<?xml version="1.0" standalone="no"?>
<!DOCTYPE svg PUBLIC "-//W3C//DTD SVG 1.1//EN" "http://www.w3.org/Graphics/SVG/1.1/DTD/svg11.dtd" >
<svg xmlns="http://www.w3.org/2000/svg">
<metadata></metadata>
<defs>
<font id="breezeserif" horiz-adv-x="549" >
<font-face units-per-em="1000" ascent="800" descent="-200" />
<missing-glyph horiz-adv-x="200" />
<glyph horiz-adv-x="0" />
<glyph horiz-adv-x="0" />
<glyph horiz-adv-x="333" />
<glyph unicode="&#xd;" horiz-adv-x="220" />
<glyph unicode=" "  horiz-adv-x="200" />
<glyph unicode="&#x09;" horiz-adv-x="200" />
<glyph unicode="&#xa0;" horiz-adv-x="200" />
<glyph unicode="!" horiz-adv-x="277" d="M70 50q0 27 19 46.5t48 19.5q32 0 51 -18.5t19 -46.5t-18.5 -48t-48.5 -20q-33 0 -51.5 19t-18.5 48zM84 529v119q0 47 55 47q57 0 57 -49v-117l-20 -349h-71z" />
<glyph unicode="&#x22;" horiz-adv-x="349" d="M56 665h93l-10 -230h-73zM199 665h93l-9 -230h-74z" />
<glyph unicode="#" horiz-adv-x="534" d="M18 157v66h107l14 156h-102v66h107l15 160h73l-15 -160h110l15 160h73l-15 -160h101v-66h-106l-14 -156h101v-66h-107l-13 -157h-73l13 157h-110l-13 -157h-73l13 157h-101zM198 223h110l14 156h-110z" />
<glyph unicode="$" horiz-adv-x="535" d="M55 473q0 74 47.5 122.5t127.5 59.5v92h75v-90q84 -5 155 -38v-141l-98 -6v54q0 14 -4 20.5t-16 10.5q-21 6 -37 7v-176h1q39 -12 66 -24t56 -33.5t43.5 -54t14.5 -75.5q0 -79 -49.5 -128t-131.5 -61v-103h-75v100q-96 3 -172 38v149l99 7v-58q0 -14 4 -20.5t16 -10.5 q22 -8 53 -8v187q-39 11 -67 23t-54.5 32.5t-40 51.5t-13.5 73zM178 484q0 -46 52 -70v144q-52 -18 -52 -74zM305 113q57 18 57 83q0 50 -57 73v-156z" />
<glyph unicode="%" horiz-adv-x="801" d="M34 474q0 88 43 135.5t116 47.5q72 0 113 -45t41 -134q0 -91 -41.5 -138.5t-117.5 -47.5q-75 0 -114.5 46t-39.5 136zM121 471q0 -110 68 -110q70 0 70 114q0 113 -68 113q-70 0 -70 -117zM214 27l292 626l81 -34l-294 -628zM456 168q0 88 43 135.5t116 47.5 q72 0 113 -45t41 -134q0 -91 -41.5 -138.5t-117.5 -47.5q-75 0 -114.5 46t-39.5 136zM543 165q0 -110 68 -110q70 0 70 114q0 113 -68 113q-70 0 -70 -117z" />
<glyph unicode="&#x26;" horiz-adv-x="714" d="M50 189q0 132 122 208q-31 51 -31 110q0 76 51 123t142 47q94 0 182 -41v-151l-102 -7v61q0 28 -21 35q-27 8 -53 8q-81 0 -81 -77q0 -102 216 -285q19 48 19 92q0 14 -18 16l-32 2v78h211v-81l-55 -2q0 -96 -42 -176q45 -38 126 -96l-66 -87q-60 40 -126 94 q-74 -74 -206 -74q-120 0 -178 59t-58 144zM166 197q0 -51 31.5 -82.5t91.5 -31.5q77 0 119 47q-120 102 -181 184q-61 -43 -61 -117z" />
<glyph unicode="'" horiz-adv-x="205" d="M56 665h93l-10 -230h-73z" />
<glyph unicode="(" horiz-adv-x="331" d="M69 271q0 227 132 458l95 -44q-109 -215 -109 -409q0 -188 108 -407l-94 -45q-132 224 -132 447z" />
<glyph unicode=")" horiz-adv-x="331" d="M35 -130q109 215 109 409q0 188 -108 407l94 45q132 -224 132 -447q0 -227 -132 -458z" />
<glyph unicode="*" horiz-adv-x="452" d="M45 579l7 44q5 32 28 40t46 -10l77 -54l-32 142l42 11q32 9 48 -8.5t10 -47.5l-18 -99l117 74l25 -36q18 -28 7.5 -49.5t-40.5 -23.5l-93 -8l108 -80l-25 -36q-20 -27 -43 -24t-37 30l-48 89l-68 -123l-40 19q-30 14 -30 39t24 40l69 49z" />
<glyph unicode="+" horiz-adv-x="535" d="M62 266v98h154v161h102v-161h154v-98h-154v-160h-102v160h-154z" />
<glyph unicode="," horiz-adv-x="241" d="M36 -136l31 203q7 50 49 50q5 0 10.5 -1t10 -2t10.5 -3.5t9.5 -4.5t11 -6t10.5 -6t12 -7.5t12 -7.5l-103 -234z" />
<glyph unicode="-" horiz-adv-x="322" d="M30 242v92h262v-92h-262z" />
<glyph unicode="." horiz-adv-x="226" d="M40 56q0 31 19.5 51.5t51.5 20.5q35 0 55 -19.5t20 -51.5q0 -31 -19 -51.5t-52 -20.5q-37 0 -56 19.5t-19 51.5z" />
<glyph unicode="/" horiz-adv-x="428" d="M8 -72l306 827l104 -37l-308 -828z" />
<glyph unicode="0" horiz-adv-x="535" d="M35 324q0 167 63 250t174 83q227 0 227 -329q0 -175 -59 -256.5t-175 -81.5t-173 80.5t-57 253.5zM156 313q0 -124 28.5 -175.5t82.5 -51.5t83.5 53t29.5 187q0 129 -28.5 181t-82.5 52q-56 0 -84.5 -55.5t-28.5 -190.5z" />
<glyph unicode="1" horiz-adv-x="454" d="M44 531l182 113h98v-554l104 -5v-85h-348v82l96 6q15 1 22 8t7 25v393l-117 -60z" />
<glyph unicode="2" horiz-adv-x="513" d="M59 0v77l199 251q31 40 41 53.5t19.5 38t9.5 51.5q0 42 -23.5 64t-60.5 22q-36 0 -60 -8q-13 -4 -16.5 -11.5t-3.5 -23.5v-71l-102 7v160q94 47 202 47q90 0 140 -48.5t50 -129.5q0 -87 -85 -190l-161 -190h250v-99h-399z" />
<glyph unicode="3" horiz-adv-x="522" d="M40 37l35 95q79 -44 157 -44q109 0 109 97q0 50 -33 73.5t-112 23.5h-38l9 91h103q60 38 60 107q0 77 -87 77q-32 0 -62 -10q-13 -4 -16.5 -11.5t-3.5 -23.5v-72l-102 7v160q100 50 204 50q92 0 140.5 -44.5t48.5 -115.5q0 -52 -25 -94.5t-66 -68.5q101 -32 101 -142 q0 -92 -57 -148.5t-169 -56.5q-55 0 -109.5 15t-86.5 35z" />
<glyph unicode="4" horiz-adv-x="536" d="M40 181v83l188 395l95 -47l-161 -337h143v54l42 133h70v-187h89v-95h-90v-90l83 -5v-85h-294v82l62 5q29 2 29 28v66h-256z" />
<glyph unicode="5" horiz-adv-x="507" d="M29 39l40 92q78 -43 150 -43q102 0 102 98q0 122 -239 122l43 336h199q23 0 23 28v43l95 -7v-159h-229l-20 -153q112 -8 182.5 -58.5t70.5 -149.5q0 -81 -54 -140t-168 -59q-56 0 -109.5 15t-85.5 35z" />
<glyph unicode="6" horiz-adv-x="534" d="M54 276q0 357 341 395l23 -90q-214 -27 -239 -212q63 41 136 41q82 0 128 -52t46 -142q0 -101 -56.5 -164t-161.5 -63q-112 0 -164.5 78t-52.5 209zM172 286q-3 -93 21.5 -149t81.5 -56q43 0 70 34.5t27 95.5q0 114 -89 114q-26 0 -59.5 -12t-51.5 -27z" />
<glyph unicode="7" horiz-adv-x="475" d="M23 481v163h432v-83l-229 -561h-125l235 545h-189q-22 0 -22 -31v-40z" />
<glyph unicode="8" horiz-adv-x="535" d="M47 159q0 111 122 182q-101 62 -101 149q0 72 56 119.5t147 47.5q97 0 144.5 -43.5t47.5 -106.5q0 -80 -95 -160q122 -71 122 -174q0 -79 -57 -131.5t-170 -52.5q-114 0 -165 50.5t-51 119.5zM164 167q0 -36 25.5 -61.5t73.5 -25.5q46 0 72.5 24t26.5 66q0 40 -28 67.5 t-83 55.5q-42 -28 -64.5 -56.5t-22.5 -69.5zM184 497q0 -60 95 -108q30 20 51.5 50.5t21.5 61.5q0 33 -23.5 52t-61.5 19q-35 0 -59 -21.5t-24 -53.5z" />
<glyph unicode="9" horiz-adv-x="535" d="M50 430q0 100 57 163.5t163 63.5q112 0 163 -78t51 -209q0 -351 -345 -382l-24 93q115 13 175 61t71 132q-58 -38 -138 -38q-82 0 -127.5 52t-45.5 142zM167 434q0 -52 23 -81.5t65 -29.5q27 0 60.5 11.5t51.5 25.5q5 204 -101 204q-45 0 -72 -34t-27 -96z" />
<glyph unicode=":" horiz-adv-x="226" d="M40 56q0 31 19.5 51.5t51.5 20.5q35 0 55 -19.5t20 -51.5q0 -31 -19 -51.5t-52 -20.5q-37 0 -56 19.5t-19 51.5zM40 424q0 31 19.5 51.5t51.5 20.5q35 0 55 -19.5t20 -51.5q0 -31 -19 -51.5t-52 -20.5q-37 0 -56 19.5t-19 51.5z" />
<glyph unicode=";" horiz-adv-x="241" d="M36 -136l31 203q7 50 49 50q5 0 10.5 -1t10 -2t10.5 -3.5t9.5 -4.5t11 -6t10.5 -6t12 -7.5t12 -7.5l-103 -234zM68 424q0 31 19.5 51.5t51.5 20.5q35 0 55 -19.5t20 -51.5q0 -31 -19 -51.5t-52 -20.5q-37 0 -56 19.5t-19 51.5z" />
<glyph unicode="&#x3c;" horiz-adv-x="535" d="M68 280v78l366 179l40 -89l-273 -126l275 -132l-42 -90z" />
<glyph unicode="=" horiz-adv-x="535" d="M65 162v97h405v-97h-405zM65 354v96h405v-96h-405z" />
<glyph unicode="&#x3e;" horiz-adv-x="535" d="M68 190l275 132l-273 126l40 89l366 -179v-78l-366 -180z" />
<glyph unicode="?" horiz-adv-x="433" d="M40 512v137q96 46 184 46q87 0 130 -41t43 -110q0 -62 -26.5 -99.5t-80.5 -77.5q-30 -21 -41 -35t-12 -42l-5 -110h-96l-5 105q-3 54 15 86t65 67q4 3 15 11t15 11t12.5 10.5t12 13.5t8 14.5t6 18t1.5 21.5q0 63 -69 63q-23 0 -50 -8q-13 -3 -16.5 -11t-3.5 -24v-53z M116 50q0 27 19 46.5t48 19.5q32 0 51 -18.5t19 -46.5t-18.5 -48t-48.5 -20q-33 0 -51.5 19t-18.5 48z" />
<glyph unicode="@" horiz-adv-x="953" d="M67 212q0 206 123 321t316 115q171 0 275 -94.5t104 -266.5q0 -140 -68 -213t-181 -74h-57l-8 54l-3 1q-39 -58 -118 -58q-163 0 -163 204q0 116 56.5 180t160.5 64q72 0 150 -29v-293l4 -53q140 9 140 214q0 131 -75 208.5t-223 77.5q-164 0 -252.5 -99t-88.5 -255 q0 -149 79.5 -241t222.5 -92q89 0 158 31l25 -73q-79 -34 -186 -34q-100 0 -177 33.5t-123 91t-68.5 128.5t-22.5 152zM385 204q0 -133 88 -133q82 0 82 96v194q-24 11 -57 11q-113 -1 -113 -168z" />
<glyph unicode="A" horiz-adv-x="662" d="M5 0v81l33 3q21 2 30 28l161 466l-63 6v81h229l204 -577h1l57 -3v-85h-258v81l38 3q17 2 23 8t1 22l-21 62h-234l-30 -88l60 -3v-85h-231zM230 268h186l-90 285h-3z" />
<glyph unicode="B" horiz-adv-x="602" d="M34 0v81l33 3q29 3 29 28v465l-57 3v85h282q216 0 216 -167q0 -92 -92 -140q59 -15 92.5 -55t33.5 -104q0 -97 -65.5 -148t-190.5 -51h-281zM218 94h94q130 0 130 106q0 50 -32.5 76.5t-92.5 26.5h-99v-209zM218 392h74q62 0 91.5 25.5t29.5 67.5q0 50 -29.5 69t-84.5 19 h-81v-181z" />
<glyph unicode="C" horiz-adv-x="602" d="M40 329q0 94 27 164t73 108.5t99.5 57t114.5 18.5q100 0 188 -41v-170l-102 -7v78q0 15 -4 22t-17 11q-25 8 -65 8q-93 0 -141 -63t-48 -178q-1 -123 45 -188q44 -63 140 -63h6q44 0 73 9q13 4 17 11t4 22v80l102 -7v-173q-78 -41 -198 -41q-153 0 -233.5 86t-80.5 256z " />
<glyph unicode="D" horiz-adv-x="665" d="M34 0v81l33 3q29 3 29 28v465l-57 3v85h274q147 0 229.5 -78t82.5 -231q0 -95 -25 -165.5t-68.5 -111t-97 -60t-116.5 -19.5h-284zM218 96h102q86 0 134 62t48 180q0 230 -195 230h-89v-472z" />
<glyph unicode="E" d="M34 0v81l33 3q29 3 29 28v465l-57 3v85h458v-166l-102 -7v40q0 17 -5 24t-24 7h-148v-171h231v-102h-231v-187h161q18 0 23 7.5t5 24.5v50l102 -7v-178h-475z" />
<glyph unicode="F" horiz-adv-x="543" d="M34 0v81l33 3q29 3 29 28v465l-57 3v85h483v-166l-102 -7v40q0 17 -5 24t-24 7h-173v-177h246v-102h-246v-196l89 -3v-85h-273z" />
<glyph unicode="G" horiz-adv-x="641" d="M40 331q0 75 19.5 135t51 99t74 64.5t86 36.5t88.5 11q108 0 196 -41v-170l-102 -7v78q0 15 -4 22t-17 11q-25 8 -74 8q-193 0 -193 -239q0 -252 174 -252q69 0 106 24v149h-1l-77 3v85h249v-80l-23 -2q-16 -2 -22.5 -8.5t-6.5 -24.5v-181q-93 -64 -230 -64 q-139 0 -216.5 86.5t-77.5 256.5z" />
<glyph unicode="H" horiz-adv-x="712" d="M32 0v81l33 3q29 3 29 28v465l-57 3v85h242v-81l-33 -3q-16 -2 -23 -8.5t-7 -24.5v-155h283v184l-57 3v85h242v-81l-33 -3q-29 -3 -29 -32v-461l57 -3v-85h-242v81l33 3q15 2 22 8.5t7 24.5v173h-283v-202l58 -3v-85h-242z" />
<glyph unicode="I" horiz-adv-x="307" d="M32 0v81l33 3q15 2 22 8.5t7 24.5v460l-57 3v85h242v-81l-33 -3q-29 -3 -29 -32v-461l57 -3v-85h-242z" />
<glyph unicode="J" horiz-adv-x="474" d="M28 29v175l102 7v-79q0 -15 4 -22t17 -12q21 -8 52 -8q40 0 56 21.5t16 69.5v395l-78 4v85h262v-81l-33 -3q-29 -3 -29 -31v-311q0 -71 -4 -105q-8 -70 -55 -108.5t-134 -38.5q-102 0 -176 42z" />
<glyph unicode="K" horiz-adv-x="622" d="M32 0v81l33 3q15 2 22 8.5t7 24.5v460l-57 3v85h240v-81l-33 -3q-29 -3 -29 -32v-220l204 248l-56 3v85h234v-81l-33 -3q-19 -2 -40 -28l-142 -174l177 -291l53 -3v-85h-256v81l31 3q20 2 20 16q0 7 -5 16l-99 171l-88 -106v-93l57 -3v-85h-240z" />
<glyph unicode="L" horiz-adv-x="537" d="M32 0v81l33 3q29 3 29 28v465l-57 3v85h241v-81l-33 -3q-29 -3 -29 -32v-446h166q14 0 18.5 7.5t4.5 24.5v70l102 -7v-198h-475z" />
<glyph unicode="M" horiz-adv-x="834" d="M20 0v81l36 3q23 2 25 27l27 465l-61 4v85h201l170 -452h2l171 452h198v-81l-33 -3q-30 -3 -29 -35l25 -458l62 -3v-85h-241v81l36 3q27 2 26 26l-19 353h-2l-154 -399h-95l-152 395h-2l-20 -371l65 -3v-85h-236z" />
<glyph unicode="N" horiz-adv-x="705" d="M32 0v81l36 3q26 2 26 28v465l-57 3v85h180l283 -459h2v371l-66 3v85h244v-81l-36 -3q-24 -2 -24 -31v-550h-117l-289 466h-2v-378l65 -3v-85h-245z" />
<glyph unicode="O" horiz-adv-x="664" d="M40 331q0 92 27 161.5t71.5 108t95.5 57.5t107 19q123 0 203 -84t80 -262q0 -167 -79.5 -255.5t-214.5 -88.5q-136 0 -213 88t-77 256zM165 336q0 -248 172 -248q46 0 79 20t50.5 55.5t25.5 76t8 88.5q0 44 -7 82.5t-23.5 78t-51 62.5t-83.5 23q-61 0 -100.5 -36 t-54.5 -87t-15 -115z" />
<glyph unicode="P" horiz-adv-x="590" d="M32 0v81l33 3q29 3 29 28v465l-57 3v85h286q112 0 174.5 -52.5t62.5 -151.5q0 -111 -71 -169.5t-188 -58.5h-85v-145l96 -3v-85h-280zM216 330h72q146 0 146 119q0 72 -37.5 95.5t-119.5 23.5h-61v-238z" />
<glyph unicode="Q" horiz-adv-x="664" d="M39 331q0 92 27 161.5t71.5 108t95.5 57.5t107 19q123 0 203 -84t80 -262q0 -129 -54.5 -212t-157.5 -110v-3q43 -2 82.5 -16.5t64 -29.5t63.5 -24q26 -7 54 -7q15 0 31 2l-12 -96q-14 -1 -27 -1l-99 17q-63 22 -123 50t-105 31q-10 1 -21 1q-28 0 -56 -6l14 72 q-238 31 -238 332zM164 336q0 -248 172 -248q46 0 79 20t50.5 55.5t25.5 76t8 88.5q0 44 -7 82.5t-23.5 78t-51 62.5t-83.5 23q-61 0 -100.5 -36t-54.5 -87t-15 -115z" />
<glyph unicode="R" horiz-adv-x="626" d="M32 0v81l33 3q29 3 29 28v465l-57 3v85h273q116 0 178 -43t62 -141q0 -68 -35.5 -112t-84.5 -64q36 -13 57 -61l72 -157l57 -2v-85h-247v81l29 3q23 3 23 18q0 6 -4 14l-47 100q-11 25 -24.5 35.5t-38.5 10.5h-91v-174l65 -3v-85h-249zM216 357h87q123 0 123 110 q0 63 -32.5 82t-104.5 19h-73v-211z" />
<glyph unicode="S" horiz-adv-x="522" d="M43 481q0 91 63.5 143.5t168.5 52.5q100 0 188 -41v-150l-102 -7v58q0 15 -4 22t-17 11q-25 8 -65 8q-48 0 -76.5 -21t-28.5 -65q0 -18 7.5 -32.5t16.5 -23.5t30.5 -18.5t35 -14t43.5 -13.5q41 -13 68.5 -26t57.5 -35.5t45.5 -57t15.5 -80.5q0 -96 -67.5 -150t-174.5 -54 q-114 0 -202 41v158l102 7v-61q0 -15 4 -22t17 -11q28 -9 72 -9q120 0 120 96q0 18 -7 32.5t-17 24t-28.5 18t-33.5 13.5t-41 12q-43 12 -72.5 24.5t-59 34.5t-44.5 56t-15 80z" />
<glyph unicode="T" horiz-adv-x="553" d="M15 495v170h523v-170l-102 -7v47q0 17 -5 24t-24 7h-68v-478l79 -3v-85h-282v81l53 3q29 3 29 28v454h-78q-23 0 -23 -31v-47z" />
<glyph unicode="U" horiz-adv-x="659" d="M22 580v85h242v-81l-33 -3q-16 -2 -23 -8.5t-7 -24.5v-332q0 -70 33.5 -98.5t97.5 -28.5q61 0 95.5 31t34.5 91v366l-58 3v85h237v-81l-33 -3q-29 -3 -29 -30v-357q0 -97 -68 -152t-183 -55q-125 0 -186.5 53.5t-61.5 169.5v367z" />
<glyph unicode="V" horiz-adv-x="654" d="M5 580v85h258v-81l-33 -3q-31 -2 -31 -24q0 -5 2 -11l134 -403h5l140 433l-61 4v85h230v-81l-33 -3q-13 -1 -19 -7.5t-12 -22.5l-189 -551h-130l-204 577z" />
<glyph unicode="W" horiz-adv-x="885" d="M5 580v85h248v-81l-33 -3q-31 -3 -31 -26q0 -4 1 -9l87 -386h4l104 452h129l108 -454h2l85 418l-54 4v85h225v-81l-33 -3q-26 -2 -33 -36l-126 -545h-137l-105 445h-3l-102 -445h-141l-138 577z" />
<glyph unicode="X" horiz-adv-x="621" d="M5 0v81l31 3q19 3 38 32l162 232l-152 224l-55 5v88h265v-82l-25 -3q-21 -2 -26.5 -14t4.5 -27l67 -105l97 143l-50 3v85h229v-81l-31 -3q-19 -3 -38 -32l-143 -193l175 -264l63 -4v-88h-278v82l30 3q19 2 26 13.5t-2 24.5l-90 139l-115 -174l48 -3v-85h-230z" />
<glyph unicode="Y" horiz-adv-x="570" d="M5 580v85h244v-81l-30 -3q-16 -1 -20.5 -12t3.5 -27l85 -174h4l109 208l-50 4v85h215v-81l-30 -3q-19 -2 -34 -30l-157 -297v-166l78 -3v-85h-282v81l53 3q29 2 29 28v142l-170 323z" />
<glyph unicode="Z" horiz-adv-x="533" d="M33 0v83l302 487h-166q-27 0 -27 -31v-40l-102 7v159h437v-81l-305 -489h194q25 0 25 32v70l102 -7v-190h-460z" />
<glyph unicode="[" horiz-adv-x="325" d="M80 -166v880h210v-81h-100v-718h100v-81h-210z" />
<glyph unicode="\" horiz-adv-x="440" d="M15 718l103 38l307 -828l-103 -37z" />
<glyph unicode="]" horiz-adv-x="325" d="M35 -85h100v718h-100v81h210v-880h-210v81z" />
<glyph unicode="^" horiz-adv-x="553" d="M49 302l187 372h87l186 -373l-101 -16l-130 267l-131 -267z" />
<glyph unicode="_" horiz-adv-x="500" d="M0 -74h500v-73h-500v73z" />
<glyph unicode="`" horiz-adv-x="500" d="M158.5 728q-0.5 20 28.5 36l47 22l116 -192l-39 -33l-128 124q-24 23 -24.5 43z" />
<glyph unicode="a" horiz-adv-x="567" d="M40 230q0 136 66 212t198 76q85 0 178 -35v-372q0 -16 5.5 -22t19.5 -7l32 -2v-80h-159v58l-3 1q-50 -72 -137 -72q-102 0 -151 65t-49 178zM162 234q0 -162 104 -162q44 0 72 26.5t28 60.5v259q-28 13 -77 13q-67 0 -97 -54t-30 -143z" />
<glyph unicode="b" horiz-adv-x="556" d="M17 630v83h176v-237q45 42 121 42q94 0 149 -63.5t55 -178.5q0 -289 -242 -289q-52 0 -109.5 12.5t-89.5 30.5v574q0 23 -25 24zM193 95q38 -20 88 -20q114 0 114 185q0 169 -112 169q-36 0 -63 -21t-27 -54v-259z" />
<glyph unicode="c" horiz-adv-x="471" d="M33 245q0 140 70.5 206.5t167.5 66.5q80 0 156 -41v-130l-92 -7v48q0 27 -21 34q-18 6 -39 6q-121 0 -121 -171q0 -85 32 -132t97 -47q56 0 115 43l43 -77q-71 -58 -174 -58q-111 0 -172.5 67.5t-61.5 191.5z" />
<glyph unicode="d" horiz-adv-x="568" d="M40 232q0 130 64.5 208t179.5 78q43 0 82 -12v101q0 22 -26 24l-43 3v79h186v-608q1 -23 25 -23l35 -2v-80h-162v59l-3 1q-45 -73 -136 -73q-56 0 -97 20t-63 56t-32 77.5t-10 91.5zM163 243q0 -168 108 -168q41 0 68 23.5t27 57.5v259q-36 16 -76 16q-66 0 -96.5 -53 t-30.5 -135z" />
<glyph unicode="e" horiz-adv-x="484" d="M37 240q0 118 65 198t182 80q75 0 119 -36.5t44 -102.5q0 -44 -19 -77.5t-47 -52.5t-68 -31t-75.5 -16t-75.5 -4q3 -53 33 -85.5t90 -32.5q64 0 126 44l38 -81q-20 -18 -67.5 -37t-108.5 -19q-122 0 -179 67.5t-57 185.5zM158 282q44 1 80.5 7.5t67.5 29t31 58.5 q0 27 -16 41.5t-44 14.5q-56 0 -86 -44.5t-33 -106.5z" />
<glyph unicode="f" horiz-adv-x="370" d="M10 419v84h86v38q0 28 3 50t13.5 48t28.5 43.5t50.5 29t77.5 11.5q76 0 139 -35l-29 -80q-48 25 -95 25q-37 0 -53 -20.5t-16 -62.5v-47h148v-84h-148v-335l84 -4v-80h-265v76l33 3q15 2 22 8.5t7 24.5v307h-86z" />
<glyph unicode="g" horiz-adv-x="544" d="M35 252q0 131 71 198.5t189 67.5q98 0 185 -37v-371q0 -85 -2 -109q-9 -111 -64 -163t-167 -52q-122 0 -188 33v139l95 8v-48q0 -27 23 -36q27 -10 71 -10q64 0 90 38.5t26 108.5v55q-48 -56 -133 -56q-52 0 -91.5 20t-61.5 54.5t-32.5 74.5t-10.5 85zM158 264 q0 -158 104 -158q43 0 72.5 26.5t29.5 71.5v215q-35 12 -80 12q-61 0 -93.5 -45t-32.5 -122z" />
<glyph unicode="h" horiz-adv-x="600" d="M32 0v76l33 3q15 2 22 8.5t7 24.5v487q0 16 -5.5 22t-19.5 7l-35 2v83h178v-269q52 74 146 74q76 0 117.5 -43.5t41.5 -130.5v-261l57 -3v-80h-238v76l33 3q15 2 22 8.5t7 24.5v206q0 52 -16.5 80t-61.5 28q-50 0 -78.5 -29.5t-28.5 -71.5v-242l57 -3v-80h-238z" />
<glyph unicode="i" horiz-adv-x="296" d="M33 0v76l33 3q29 3 29 32v278q0 17 -5.5 23t-19.5 6l-35 2v83h179v-420l57 -3v-80h-238zM67 642q0 32 21 53.5t56 21.5q33 0 54.5 -21.5t21.5 -53.5t-21.5 -52.5t-55.5 -20.5t-55 20.5t-21 52.5z" />
<glyph unicode="j" horiz-adv-x="283" d="M-80 -179l36 83q39 -21 74 -21q30 0 44.5 20t14.5 68v418q0 16 -5.5 22t-19.5 7l-35 2v83h179v-527q0 -41 -5.5 -71t-21 -59t-49 -44.5t-84.5 -15.5q-72 0 -128 35zM61 642q0 32 21 53.5t56 21.5q33 0 54.5 -21.5t21.5 -53.5t-21.5 -52.5t-55.5 -20.5t-55 20.5t-21 52.5z " />
<glyph unicode="k" horiz-adv-x="556" d="M33 0v76l33 3q15 2 22 8.5t7 24.5v487q0 16 -5.5 22t-19.5 7l-35 2v83h178v-433q55 5 96 34t56 76q3 10 3 16q0 17 -19 17l-38 2v78h207v-81l-48 -2q-13 -102 -88 -161l98 -176l61 -3v-80h-146l-114 208q-33 -9 -68 -14v-111h1l57 -3v-80h-238z" />
<glyph unicode="l" horiz-adv-x="298" d="M31 0v76l33 3q29 3 29 32v493q0 22 -25 24l-35 2v83h179v-630l57 -3v-80h-238z" />
<glyph unicode="m" horiz-adv-x="866" d="M27 422v81h169v-65q56 80 152 80q99 0 133 -80q56 80 152 80q72 0 111 -43.5t39 -130.5v-261l57 -3v-80h-238v76l33 3q15 2 21.5 8.5t7.5 23.5v207q0 55 -12.5 81.5t-56.5 26.5q-48 0 -72.5 -28t-24.5 -75v-240l55 -3v-80h-236v76l33 3q15 2 22 8.5t7 24.5v206 q0 55 -12.5 81.5t-56.5 26.5q-49 0 -73 -29t-24 -72v-242l54 -3v-80h-236v76l33 3q15 2 22 8.5t7 24.5h1v276q0 17 -5.5 23.5t-19.5 7.5z" />
<glyph unicode="n" horiz-adv-x="600" d="M27 423v80h169v-65q26 37 69 58.5t93 21.5q76 0 117.5 -43.5t41.5 -130.5v-261l57 -3v-80h-238v76l33 3q15 2 22 8.5t7 24.5v206q0 55 -17 81.5t-65 26.5q-47 0 -75 -30t-28 -71v-242l57 -3v-80h-238v76l33 3q15 2 22 8.5t7 24.5v277q0 30 -25 31z" />
<glyph unicode="o" horiz-adv-x="528" d="M33 252q0 74 22 128.5t59 83t76 41.5t81 13q27 0 52 -4t58 -19.5t56.5 -41t40 -74t16.5 -114.5q0 -138 -67 -209t-172 -71q-104 0 -163 67.5t-59 199.5zM154 266q0 -40 4 -70t14.5 -60.5t33.5 -46.5t57 -16q109 0 109 176q0 89 -24.5 135t-82.5 46q-57 0 -84 -44 t-27 -120z" />
<glyph unicode="p" horiz-adv-x="568" d="M22 422v81h169v-65q16 30 58 55t100 25q181 0 181 -254q0 -135 -59 -207t-160 -72q-60 0 -107 29v-138l81 -4v-79h-258v76l33 3q15 2 22 8.5t7 24.5v484q0 17 -5.5 23.5t-19.5 6.5zM204 105q38 -25 88 -25q59 0 86.5 50t27.5 124q0 167 -101 167q-42 0 -71.5 -25.5 t-29.5 -60.5v-230z" />
<glyph unicode="q" horiz-adv-x="551" d="M40 230q0 146 69.5 217t188.5 71q98 0 185 -37v-605l58 -3v-80h-263v76l59 3q15 1 22.5 8t7.5 25v138q-48 -56 -133 -56q-69 0 -114.5 38.5t-62.5 90.5t-17 114zM163 246q0 -33 3 -58t13 -53.5t32.5 -44t56.5 -15.5q44 0 71 23t27 66v255q-34 12 -79 12q-60 0 -92 -51.5 t-32 -133.5z" />
<glyph unicode="r" horiz-adv-x="462" d="M28 422v81h169v-75q18 39 56 64.5t86 25.5q51 0 96 -22v-149l-93 -7v46q0 20 -10 25q-11 5 -27 5q-40 0 -65.5 -28.5t-25.5 -72.5v-232l87 -4v-79h-268v76l33 3q15 2 22 8.5t7 24.5v277q0 16 -5.5 22.5t-19.5 7.5z" />
<glyph unicode="s" horiz-adv-x="451" d="M44 18v139l90 7v-48q0 -25 23 -34q27 -10 66 -10q79 0 79 61q0 22 -14.5 36t-28.5 19t-48 14q-5 1 -7 2q-35 9 -56.5 17.5t-47.5 25t-38.5 44.5t-12.5 68q0 75 55 117t138 42q84 0 166 -40v-120l-90 -7v42q0 25 -23 34q-24 9 -58 9t-54.5 -15.5t-20.5 -44.5 q0 -16 7.5 -28.5t23.5 -21t28.5 -13t35.5 -10.5q31 -9 48 -14.5t42.5 -18.5t39 -27.5t24 -39.5t10.5 -56q0 -75 -54.5 -117.5t-138.5 -42.5q-122 0 -184 31z" />
<glyph unicode="t" horiz-adv-x="377" d="M19 419l10 73q47 4 71 33.5t44 83.5h65v-106h133l-10 -84h-123v-263q0 -44 16 -61.5t49 -17.5q34 0 68 21l30 -77q-50 -35 -127 -35q-45 0 -76 11.5t-46 25.5t-23 41t-9 42.5t-1 45.5v267h-71z" />
<glyph unicode="u" horiz-adv-x="591" d="M27 421v82h176v-317q0 -53 15 -80t59 -27q50 0 78.5 29t28.5 70v211q0 16 -5.5 22.5t-19.5 7.5l-32 2v82h176v-392q0 -16 5 -21.5t20 -7.5l35 -3v-79h-162v65q-55 -78 -162 -78q-155 0 -155 173v231q0 27 -25 28z" />
<glyph unicode="v" horiz-adv-x="558" d="M10 425v78h235v-80l-61 -3l103 -329h2l100 329l-52 3v80h211v-78l-31 -2q-20 -2 -27 -24l-129 -399h-153l-140 398q-5 14 -10.5 19t-18.5 6z" />
<glyph unicode="w" horiz-adv-x="795" d="M10 426v77h229v-80l-56 -3l69 -307h2l110 370h97l104 -372h2l68 309l-51 3v80h201v-77l-33 -2q-20 -2 -27 -24l-95 -400h-144l-82 298h-3l-85 -298h-147l-101 399q-5 14 -10.5 19t-18.5 6z" />
<glyph unicode="x" horiz-adv-x="534" d="M14 0v79l31 3q23 3 40 24l115 144l-123 170l-51 6v77h233v-79l-29 -2q-12 -1 -15.5 -9t3.5 -17l57 -76l77 100l-41 3v80h203v-78l-30 -2q-21 -1 -40 -25l-110 -139l131 -174l51 -6v-79h-238v79l31 2q13 1 15.5 8.5t-5.5 16.5l-61 80l-83 -103l47 -3v-80h-208z" />
<glyph unicode="y" horiz-adv-x="573" d="M27 421v82h176v-287q0 -53 15 -80t59 -27q50 0 78.5 29t28.5 70v181q0 17 -5.5 23.5t-19.5 6.5l-32 2v82h176v-484q0 -121 -58.5 -177t-173.5 -56q-122 0 -188 33v139l95 8v-48q0 -27 23 -36q27 -10 71 -10q129 0 129 147v76q-55 -78 -162 -78q-155 0 -155 173v201 q0 27 -25 28z" />
<glyph unicode="z" horiz-adv-x="483" d="M40 0v76l257 338h-126q-21 0 -26.5 -8t-5.5 -26v-35l-94 7v151h398v-68l-260 -345h142q29 0 29 34v42l94 -7v-159h-408z" />
<glyph unicode="{" horiz-adv-x="340" d="M43 244v74q41 5 53.5 31t10.5 88q-1 28 -4 80.5t-4 61.5q-3 69 30.5 104.5t95.5 35.5q40 0 80 -10l-10 -74q-28 5 -40 5q-31 0 -40.5 -15.5t-9.5 -54.5q0 -22 4.5 -81t4.5 -82q0 -51 -15 -81t-51 -45q38 -13 52 -39.5t14 -81.5q0 -23 -5.5 -88t-5.5 -88q0 -39 9.5 -57 t40.5 -18q19 0 39 5l10 -76q-42 -9 -79 -9q-61 0 -94.5 34t-33.5 93q0 30 10 170q3 58 -9.5 85.5t-52.5 32.5z" />
<glyph unicode="|" horiz-adv-x="274" d="M85 -88v835h104v-835h-104z" />
<glyph unicode="}" horiz-adv-x="340" d="M35 709q40 10 80 10q62 0 95.5 -35.5t30.5 -104.5q-1 -9 -4 -61.5t-4 -80.5q-2 -62 10.5 -88t53.5 -31v-74q-40 -5 -52.5 -32.5t-9.5 -85.5q10 -140 10 -170q0 -59 -33.5 -93t-94.5 -34q-37 0 -79 9l10 76q20 -5 39 -5q31 0 40.5 18t9.5 57q0 23 -5.5 88t-5.5 88 q0 55 14 81.5t52 39.5q-36 15 -51 45t-15 81q0 23 4.5 82t4.5 81q0 39 -9.5 54.5t-40.5 15.5q-12 0 -40 -5z" />
<glyph unicode="~" horiz-adv-x="598" d="M47 282q63 106 146 106q43 0 108.5 -38t95.5 -38q45 0 81 64l73 -54q-49 -104 -146 -104q-46 0 -112 36.5t-90 36.5q-41 0 -84 -65z" />
<glyph unicode="&#xa1;" horiz-adv-x="277" d="M70 450q0 28 18.5 48t48.5 20q33 0 51.5 -19t18.5 -48q0 -27 -19 -46.5t-48 -19.5q-32 0 -51 18.5t-19 46.5zM81 -28l20 349h71l21 -349v-119q0 -47 -55 -47q-57 0 -57 49v117z" />
<glyph unicode="&#xa2;" horiz-adv-x="535" d="M75 301q0 120 55.5 185.5t139.5 82.5v116h75v-112q71 -4 139 -40v-130l-92 -7v48q0 27 -21 34q-15 4 -26 5v-344q51 3 105 43l43 -77q-63 -50 -148 -57v-108h-75v110q-91 14 -143 78.5t-52 172.5zM196 313q0 -126 74 -161v320q-74 -35 -74 -159z" />
<glyph unicode="&#xa3;" horiz-adv-x="552" d="M32 -8v93q77 36 84 125l6 79h-84l10 84h80l6 86q14 198 219 198q93 0 170 -41v-140l-102 -7v47q0 15 -3.5 22t-16.5 12q-21 9 -47 9q-51 0 -75.5 -25.5t-28.5 -83.5l-6 -77h175l-10 -83h-170l-3 -41q-6 -84 -87 -146l2 -4q54 20 84 20q26 0 80 -10t91 -10q45 0 94 14 l-13 -107q-48 -9 -87 -9q-49 0 -123 12.5t-119 12.5q-59 0 -126 -30z" />
<glyph unicode="&#xa5;" horiz-adv-x="550" d="M5 580v85h244v-81l-30 -3q-16 -1 -20.5 -12t3.5 -27l75 -154h4l99 188l-50 4v85h215v-81l-30 -3q-19 -2 -34 -30l-107 -179h113v-76h-153v-65h153v-76h-153v-67l78 -3v-85h-282v81l53 3q29 2 29 28v43h-153v76h153v65h-153v76h113l-120 205z" />
<glyph unicode="&#xa6;" horiz-adv-x="275" d="M85 -88v374h105v-374h-105zM85 403v344h105v-344h-105z" />
<glyph unicode="&#xa7;" horiz-adv-x="552" d="M43 268q0 87 84 159q-13 29 -13 73q0 27 8 53t26.5 53.5t56.5 44t90 16.5q79 0 158 -41v-130l-92 -7v48q0 28 -21 35q-17 5 -36 5q-40 0 -60.5 -18.5t-20.5 -49.5q0 -15 6 -29t12.5 -23t22.5 -22t25 -19t32.5 -20t32.5 -20q66 -42 100.5 -84t34.5 -102q0 -85 -82 -155 q13 -34 13 -73q0 -27 -8 -53t-26.5 -53.5t-56.5 -44t-90 -16.5q-83 0 -158 39v132l92 7v-48q0 -28 21 -35q17 -5 36 -5q40 0 60.5 18.5t20.5 49.5q0 10 -2 19t-7 18t-9 15.5t-14 15t-15.5 13.5t-19.5 13.5t-19.5 12t-22 13.5t-22.5 13q-71 42 -104 82.5t-33 99.5zM153 289 q0 -9 1 -16.5t5 -15t6.5 -12.5t10.5 -12.5t11.5 -11t15.5 -12t17.5 -12.5t21.5 -14t23 -15q79 -54 87 -61q29 26 29 66q0 9 -1 16.5t-5 15t-6.5 12.5t-10.5 12.5t-11.5 11t-15.5 12t-17.5 12.5t-21.5 14t-23 15q-63 40 -87 61q-29 -27 -29 -66z" />
<glyph unicode="&#xa8;" horiz-adv-x="500" d="M83 647q0 28 19.5 47.5t49.5 19.5t49.5 -19.5t19.5 -47.5q0 -29 -19.5 -47.5t-49.5 -18.5q-31 0 -50 18.5t-19 47.5zM283 647q0 28 19.5 47.5t49.5 19.5t49.5 -19.5t19.5 -47.5q0 -29 -19.5 -47.5t-49.5 -18.5q-31 0 -50 18.5t-19 47.5z" />
<glyph unicode="&#xa9;" horiz-adv-x="814" d="M60 326q0 148 96.5 249t245.5 101q153 0 252 -100t99 -244q0 -151 -99 -251.5t-252 -100.5q-157 0 -249.5 96t-92.5 250zM139 326q0 -125 73.5 -199.5t190.5 -74.5t194 78.5t77 198.5q0 118 -77.5 196.5t-193.5 78.5q-117 0 -190.5 -79.5t-73.5 -198.5zM232 331 q0 55 16.5 96t43.5 62t55 31t58 10q95 0 150 -75l-56 -44q-46 50 -96 50q-38 0 -64.5 -30.5t-26.5 -98.5q0 -134 97 -134q45 0 96 42l40 -54q-54 -56 -138 -56q-86 0 -130.5 53.5t-44.5 147.5z" />
<glyph unicode="&#xaa;" horiz-adv-x="414" d="M48 419q0 88 47.5 139.5t134.5 51.5q63 0 128 -24v-244q0 -11 4.5 -15t16.5 -5l17 -1v-57h-116v38h-4q-37 -46 -93 -46q-69 0 -102 46.5t-33 116.5zM140 429q0 -105 66 -105q26 0 43 14.5t17 30.5v164q-22 8 -46 8q-40 0 -60 -31.5t-20 -80.5z" />
<glyph unicode="&#xab;" horiz-adv-x="530" d="M47 264q0 28 29 51l170 136l47 -45l-120 -143l113 -160l-47 -42l-174 161q-18 17 -18 42zM251 264q0 28 29 51l170 136l47 -45l-120 -143l113 -160l-47 -42l-174 161q-18 17 -18 42z" />
<glyph unicode="&#xac;" horiz-adv-x="535" d="M52 315v97h429v-241h-96v144h-333z" />
<glyph unicode="&#xad;" horiz-adv-x="322" d="M42 244v93h237v-93h-237z" />
<glyph unicode="&#xae;" horiz-adv-x="463" d="M30 481q0 85 56 140.5t143 55.5q89 0 146.5 -55.5t57.5 -138.5q0 -86 -57 -141.5t-147 -55.5q-91 0 -145 54.5t-54 140.5zM83 481q0 -66 41 -108t105 -42q67 0 109 41t42 109q0 65 -43 107.5t-108 42.5q-66 0 -106 -42t-40 -108zM162 378v211h76q70 0 70 -57 q0 -42 -34 -58q8 -4 13 -15l36 -81h-50l-31 70q-6 14 -16 14h-19v-84h-45zM207 498h16q36 0 36 30q0 25 -36 25h-16v-55z" />
<glyph unicode="&#xaf;" horiz-adv-x="500" d="M104 610v84h287v-84h-287z" />
<glyph unicode="&#xb0;" horiz-adv-x="298" d="M35 596q0 51 32 84.5t82 33.5q52 0 83 -32.5t31 -79.5q0 -53 -32 -87t-85 -34q-52 0 -81.5 32.5t-29.5 82.5zM97 596q0 -26 13.5 -42.5t38.5 -16.5t38 16.5t13 42.5q0 61 -51 61q-52 0 -52 -61z" />
<glyph unicode="&#xb1;" horiz-adv-x="535" d="M65 35v97h149v134h-149v98h149v156h102v-156h154v-98h-154v-134h154v-97h-405z" />
<glyph unicode="&#xb2;" horiz-adv-x="337" d="M23 591v109q72 37 150 37q60 0 92 -28t32 -72q0 -33 -13.5 -59t-42.5 -61l-89 -101h158v-75h-275v58l124 144q17 20 23.5 29t13.5 23.5t7 27.5q0 20 -13 31t-34 11q-27 0 -43 -7q-10 -4 -12 -9t-2 -17v-45z" />
<glyph unicode="&#xb3;" horiz-adv-x="337" d="M24 367l23 65q50 -26 98 -26q63 0 63 47q0 27 -19.5 39.5t-64.5 12.5h-32l6 66h65q38 22 38 55q0 41 -50 41q-21 0 -36 -5q-13 -4 -13 -22v-33l-70 5v95q62 30 134 30q58 0 90 -26.5t32 -69.5q0 -58 -57 -97q64 -20 64 -85q0 -55 -37.5 -89t-108.5 -34q-75 0 -125 31z " />
<glyph unicode="&#xb4;" horiz-adv-x="500" d="M148 594l116 192l47 -22q29 -16 28.5 -36t-24.5 -43l-128 -124z" />
<glyph unicode="&#xb5;" horiz-adv-x="584" d="M74 -216v719h112v-289q0 -70 22 -107t75 -37q51 0 79 43.5t28 117.5v272h114v-400q0 -33 26 -33q14 0 39 12l14 -70q-43 -24 -91 -24q-75 0 -79 81q-16 -37 -51 -60t-78 -23q-70 0 -103 49v-251h-107z" />
<glyph unicode="&#xb6;" d="M51 430q0 122 66 178.5t175 56.5h227v-81l-33 -3q-29 -3 -29 -32v-468q0 -131 -51 -194t-194 -92l-25 98q88 21 121.5 59t33.5 110v517h-72v-364q-95 2 -157 56.5t-62 158.5z" />
<glyph unicode="&#xb7;" horiz-adv-x="309" d="M85 307q0 30 18.5 49t49.5 19q33 0 52 -18.5t19 -48.5t-18.5 -49.5t-49.5 -19.5q-34 0 -52.5 18.5t-18.5 49.5z" />
<glyph unicode="&#xb8;" horiz-adv-x="500" d="M133 -224l16 52q39 -13 67 -13q48 0 48 37q0 38 -88 38l36 113h57l-17 -66q42 -3 67.5 -24t25.5 -58q0 -50 -36.5 -73.5t-85.5 -23.5t-90 18z" />
<glyph unicode="&#xb9;" horiz-adv-x="316" d="M26 660l125 71h73v-320l70 -3v-67h-233v66l59 4q16 1 16 16v212l-81 -36z" />
<glyph unicode="&#xba;" horiz-adv-x="406" d="M42 430q0 50 15 87t40.5 56.5t52.5 28.5t56 9q64 0 110.5 -38.5t46.5 -129.5q0 -89 -45 -138t-120 -49q-74 0 -115 46.5t-41 127.5zM136 442q0 -111 66 -111q67 0 67 101q0 53 -15.5 79t-52.5 26q-65 0 -65 -95z" />
<glyph unicode="&#xbb;" horiz-adv-x="530" d="M34 408l47 45l170 -136q29 -23 29 -51q0 -27 -20 -45l-172 -158l-47 42l113 158zM238 408l47 45l170 -136q29 -23 29 -51q0 -27 -20 -45l-172 -158l-47 42l113 158z" />
<glyph unicode="&#xbc;" horiz-adv-x="825" d="M27 580l125 71h73v-320l70 -3v-67h-233v66l59 4q16 1 16 16v212l-81 -36zM208 -6l324 692l78 -33l-326 -694zM472 113v58l112 232l69 -32l-92 -189h68l29 76h53v-76h61v-71h-61v-41l71 -3v-67h-233v66l59 4q16 1 16 16v27h-152z" />
<glyph unicode="&#xbd;" horiz-adv-x="825" d="M29 580l125 71h73v-320l70 -3v-67h-233v66l59 4q16 1 16 16v212l-81 -36zM201 -6l324 692l78 -33l-326 -694zM497 250v109q72 37 150 37q60 0 92 -28t32 -72q0 -33 -13.5 -59t-42.5 -61l-89 -101h158v-75h-275v58l124 144q17 20 23.5 29t13.5 23.5t7 27.5q0 20 -13 31 t-34 11q-27 0 -43 -7q-10 -4 -12 -9t-2 -17v-45z" />
<glyph unicode="&#xbe;" horiz-adv-x="825" d="M50 287l23 65q50 -26 98 -26q63 0 63 47q0 27 -19.5 39.5t-64.5 12.5h-32l6 66h65q38 22 38 55q0 41 -50 41q-21 0 -36 -5q-13 -4 -13 -22v-33l-70 5v95q62 30 134 30q58 0 90 -26.5t32 -69.5q0 -58 -57 -97q64 -20 64 -85q0 -55 -37.5 -89t-108.5 -34q-75 0 -125 31z M218 -6l324 692l78 -33l-326 -694zM483 113v58l112 232l69 -32l-92 -189h68l29 76h53v-76h61v-71h-61v-41l71 -3v-67h-233v66l59 4q16 1 16 16v27h-152z" />
<glyph unicode="&#xbf;" horiz-adv-x="433" d="M48 -43q0 62 26.5 99.5t80.5 77.5q30 21 41 35t12 42l5 110h96l5 -105q3 -54 -15 -86t-65 -67q-4 -3 -15 -11t-15 -11t-12.5 -10.5t-12 -13.5t-8 -14.5t-6 -18t-1.5 -21.5q0 -63 69 -63q23 0 50 8q13 3 16.5 11t3.5 24v53l102 -7v-137q-96 -46 -184 -46q-87 0 -130 41 t-43 110zM192 450q0 28 18.5 48t48.5 20q33 0 51.5 -19t18.5 -48q0 -27 -19 -46.5t-48 -19.5q-32 0 -51 18.5t-19 46.5z" />
<glyph unicode="&#xc0;" horiz-adv-x="662" d="M5 0v81l33 3q21 2 30 28l161 466l-63 6v81h229l204 -577h1l57 -3v-85h-258v81l38 3q17 2 23 8t1 22l-21 62h-234l-30 -88l60 -3v-85h-231zM179.5 832q-5.5 20 17.5 42l40 33l162 -157l-30 -41l-155 87q-29 16 -34.5 36zM230 268h186l-90 285h-3z" />
<glyph unicode="&#xc1;" horiz-adv-x="662" d="M5 0v81l33 3q21 2 30 28l161 466l-63 6v81h229l204 -577h1l57 -3v-85h-258v81l38 3q17 2 23 8t1 22l-21 62h-234l-30 -88l60 -3v-85h-231zM221 750l162 157l40 -33q23 -21 17 -41.5t-34 -36.5l-155 -87zM230 268h186l-90 285h-3z" />
<glyph unicode="&#xc2;" horiz-adv-x="662" d="M5 0v81l33 3q21 2 30 28l161 466l-63 6v81h229l204 -577h1l57 -3v-85h-258v81l38 3q17 2 23 8t1 22l-21 62h-234l-30 -88l60 -3v-85h-231zM140 742l118 128q41 44 82 2l120 -129l-41 -35l-120 86l-118 -86zM230 268h186l-90 285h-3z" />
<glyph unicode="&#xc3;" horiz-adv-x="662" d="M5 0v81l33 3q21 2 30 28l161 466l-63 6v81h229l204 -577h1l57 -3v-85h-258v81l38 3q17 2 23 8t1 22l-21 62h-234l-30 -88l60 -3v-85h-231zM136 763q36 79 102 79q24 0 70 -14t64 -14q25 0 44 32l54 -29q-33 -87 -103 -87q-21 0 -65 13.5t-60 13.5q-20 0 -31 -5.5 t-27 -23.5zM230 268h186l-90 285h-3z" />
<glyph unicode="&#xc4;" horiz-adv-x="662" d="M5 0v81l33 3q21 2 30 28l161 466l-63 6v81h229l204 -577h1l57 -3v-85h-258v81l38 3q17 2 23 8t1 22l-21 62h-234l-30 -88l60 -3v-85h-231zM134 787q0 28 19.5 47.5t49.5 19.5t49.5 -19.5t19.5 -47.5q0 -29 -19.5 -47.5t-49.5 -18.5q-31 0 -50 18.5t-19 47.5zM230 268h186 l-90 285h-3zM334 787q0 28 19.5 47.5t49.5 19.5t49.5 -19.5t19.5 -47.5q0 -29 -19.5 -47.5t-49.5 -18.5q-31 0 -50 18.5t-19 47.5z" />
<glyph unicode="&#xc5;" horiz-adv-x="662" d="M5 0v81l33 3q21 2 30 28l161 466l-63 6v81h229l204 -577h1l57 -3v-85h-258v81l38 3q17 2 23 8t1 22l-21 62h-234l-30 -88l60 -3v-85h-231zM210 793q0 41 26.5 67t68.5 26q43 0 68 -25.5t25 -62.5q0 -43 -26 -70.5t-70 -27.5q-43 0 -67.5 26.5t-24.5 66.5zM230 268h186 l-90 285h-3zM269 793q0 -42 36 -42q17 0 26.5 12t9.5 30q0 41 -36 41t-36 -41z" />
<glyph unicode="&#xc6;" horiz-adv-x="854" d="M0 0v81l33 3q21 2 30 28l161 466l-63 6v81h641v-166l-102 -7v40q0 17 -5 24t-24 7h-225l59 -171h249v-102h-231l66 -187h95q18 0 23 7.5t5 24.5v50l102 -7v-178h-420v81l38 3q17 2 23 8t1 22l-21 62h-234l-30 -88l60 -3v-85h-231zM225 268h186l-90 285h-3z" />
<glyph unicode="&#xc7;" horiz-adv-x="602" d="M40 329q0 94 27 164t73 108.5t99.5 57t114.5 18.5q100 0 188 -41v-170l-102 -7v78q0 15 -4 22t-17 11q-25 8 -65 8q-93 0 -141 -63t-48 -178q0 -123 45.5 -188t145.5 -63q44 0 73 9q13 4 17 11t4 22v80l102 -7v-173q-78 -41 -197 -41l-13 -50q42 -3 67.5 -24t25.5 -58 q0 -50 -36.5 -73.5t-85.5 -23.5t-90 18l16 52q39 -13 67 -13q48 0 48 37q0 38 -88 38l32 101q-126 14 -192 99.5t-66 238.5z" />
<glyph unicode="&#xc8;" d="M34 0v81l33 3q29 3 29 28v465l-57 3v85h458v-166l-102 -7v40q0 17 -5 24t-24 7h-148v-171h231v-102h-231v-187h161q18 0 23 7.5t5 24.5v50l102 -7v-178h-475zM156.5 832q-5.5 20 17.5 42l40 33l162 -157l-30 -41l-155 87q-29 16 -34.5 36z" />
<glyph unicode="&#xc9;" d="M34 0v81l33 3q29 3 29 28v465l-57 3v85h458v-166l-102 -7v40q0 17 -5 24t-24 7h-148v-171h231v-102h-231v-187h161q18 0 23 7.5t5 24.5v50l102 -7v-178h-475zM184 750l162 157l40 -33q23 -21 17 -41.5t-34 -36.5l-155 -87z" />
<glyph unicode="&#xca;" d="M34 0v81l33 3q29 3 29 28v465l-57 3v85h458v-166l-102 -7v40q0 17 -5 24t-24 7h-148v-171h231v-102h-231v-187h161q18 0 23 7.5t5 24.5v50l102 -7v-178h-475zM114 742l118 128q41 44 82 2l120 -129l-41 -35l-120 86l-118 -86z" />
<glyph unicode="&#xcb;" d="M34 0v81l33 3q29 3 29 28v465l-57 3v85h458v-166l-102 -7v40q0 17 -5 24t-24 7h-148v-171h231v-102h-231v-187h161q18 0 23 7.5t5 24.5v50l102 -7v-178h-475zM107 787q0 28 19.5 47.5t49.5 19.5t49.5 -19.5t19.5 -47.5q0 -29 -19.5 -47.5t-49.5 -18.5q-31 0 -50 18.5 t-19 47.5zM307 787q0 28 19.5 47.5t49.5 19.5t49.5 -19.5t19.5 -47.5q0 -29 -19.5 -47.5t-49.5 -18.5q-31 0 -50 18.5t-19 47.5z" />
<glyph unicode="&#xcc;" horiz-adv-x="307" d="M28.5 832q-5.5 20 17.5 42l40 33l162 -157l-30 -41l-155 87q-29 16 -34.5 36zM32 0v81l33 3q15 2 22 8.5t7 24.5v460l-57 3v85h242v-81l-33 -3q-29 -3 -29 -32v-461l57 -3v-85h-242z" />
<glyph unicode="&#xcd;" horiz-adv-x="307" d="M32 0v81l33 3q15 2 22 8.5t7 24.5v460l-57 3v85h242v-81l-33 -3q-29 -3 -29 -32v-461l57 -3v-85h-242zM64 750l162 157l40 -33q23 -21 17 -41.5t-34 -36.5l-155 -87z" />
<glyph unicode="&#xce;" horiz-adv-x="307" d="M-3 742l118 128q41 44 82 2l120 -129l-41 -35l-120 86l-118 -86zM32 0v81l33 3q15 2 22 8.5t7 24.5v460l-57 3v85h242v-81l-33 -3q-29 -3 -29 -32v-461l57 -3v-85h-242z" />
<glyph unicode="&#xcf;" horiz-adv-x="307" d="M-10 787q0 28 19.5 47.5t49.5 19.5t49.5 -19.5t19.5 -47.5q0 -29 -19.5 -47.5t-49.5 -18.5q-31 0 -50 18.5t-19 47.5zM32 0v81l33 3q15 2 22 8.5t7 24.5v460l-57 3v85h242v-81l-33 -3q-29 -3 -29 -32v-461l57 -3v-85h-242zM190 787q0 28 19.5 47.5t49.5 19.5t49.5 -19.5 t19.5 -47.5q0 -29 -19.5 -47.5t-49.5 -18.5q-31 0 -50 18.5t-19 47.5z" />
<glyph unicode="&#xd0;" horiz-adv-x="679" d="M36 290v90h74v197l-57 3v85h274q147 0 229.5 -78t82.5 -231q0 -95 -25 -165.5t-68.5 -111t-97 -60t-116.5 -19.5h-284v81l33 3q29 3 29 28v178h-74zM232 96h102q86 0 134 62t48 180q0 230 -195 230h-89v-188h169v-90h-169v-194z" />
<glyph unicode="&#xd1;" horiz-adv-x="705" d="M32 0v81l36 3q26 2 26 28v465l-57 3v85h180l283 -459h2v371l-66 3v85h244v-81l-36 -3q-24 -2 -24 -31v-550h-117l-289 466h-2v-378l65 -3v-85h-245zM174 763q36 79 102 79q24 0 70 -14t64 -14q25 0 44 32l54 -29q-33 -87 -103 -87q-21 0 -65 13.5t-60 13.5 q-20 0 -31 -5.5t-27 -23.5z" />
<glyph unicode="&#xd2;" horiz-adv-x="664" d="M40 331q0 92 27 161.5t71.5 108t95.5 57.5t107 19q123 0 203 -84t80 -262q0 -167 -79.5 -255.5t-214.5 -88.5q-136 0 -213 88t-77 256zM165 336q0 -248 172 -248q46 0 79 20t50.5 55.5t25.5 76t8 88.5q0 44 -7 82.5t-23.5 78t-51 62.5t-83.5 23q-61 0 -100.5 -36 t-54.5 -87t-15 -115zM224.5 832q-5.5 20 17.5 42l40 33l162 -157l-30 -41l-155 87q-29 16 -34.5 36z" />
<glyph unicode="&#xd3;" horiz-adv-x="664" d="M40 331q0 92 27 161.5t71.5 108t95.5 57.5t107 19q123 0 203 -84t80 -262q0 -167 -79.5 -255.5t-214.5 -88.5q-136 0 -213 88t-77 256zM165 336q0 -248 172 -248q46 0 79 20t50.5 55.5t25.5 76t8 88.5q0 44 -7 82.5t-23.5 78t-51 62.5t-83.5 23q-61 0 -100.5 -36 t-54.5 -87t-15 -115zM237 750l162 157l40 -33q23 -21 17 -41.5t-34 -36.5l-155 -87z" />
<glyph unicode="&#xd4;" horiz-adv-x="664" d="M40 331q0 92 27 161.5t71.5 108t95.5 57.5t107 19q123 0 203 -84t80 -262q0 -167 -79.5 -255.5t-214.5 -88.5q-136 0 -213 88t-77 256zM165 336q0 -248 172 -248q46 0 79 20t50.5 55.5t25.5 76t8 88.5q0 44 -7 82.5t-23.5 78t-51 62.5t-83.5 23q-61 0 -100.5 -36 t-54.5 -87t-15 -115zM179 742l118 128q41 44 82 2l120 -129l-41 -35l-120 86l-118 -86z" />
<glyph unicode="&#xd5;" horiz-adv-x="664" d="M40 331q0 92 27 161.5t71.5 108t95.5 57.5t107 19q123 0 203 -84t80 -262q0 -167 -79.5 -255.5t-214.5 -88.5q-136 0 -213 88t-77 256zM165 336q0 -248 172 -248q46 0 79 20t50.5 55.5t25.5 76t8 88.5q0 44 -7 82.5t-23.5 78t-51 62.5t-83.5 23q-61 0 -100.5 -36 t-54.5 -87t-15 -115zM172 763q36 79 102 79q24 0 70 -14t64 -14q25 0 44 32l54 -29q-33 -87 -103 -87q-21 0 -65 13.5t-60 13.5q-20 0 -31 -5.5t-27 -23.5z" />
<glyph unicode="&#xd6;" horiz-adv-x="664" d="M40 331q0 92 27 161.5t71.5 108t95.5 57.5t107 19q123 0 203 -84t80 -262q0 -167 -79.5 -255.5t-214.5 -88.5q-136 0 -213 88t-77 256zM165 336q0 -248 172 -248q46 0 79 20t50.5 55.5t25.5 76t8 88.5q0 44 -7 82.5t-23.5 78t-51 62.5t-83.5 23q-61 0 -100.5 -36 t-54.5 -87t-15 -115zM169 787q0 28 19.5 47.5t49.5 19.5t49.5 -19.5t19.5 -47.5q0 -29 -19.5 -47.5t-49.5 -18.5q-31 0 -50 18.5t-19 47.5zM369 787q0 28 19.5 47.5t49.5 19.5t49.5 -19.5t19.5 -47.5q0 -29 -19.5 -47.5t-49.5 -18.5q-31 0 -50 18.5t-19 47.5z" />
<glyph unicode="&#xd7;" horiz-adv-x="535" d="M83 200l114 114l-114 114l72 72l114 -114l112 112l69 -69l-112 -113l113 -113l-72 -72l-113 113l-113 -113z" />
<glyph unicode="&#xd8;" horiz-adv-x="664" d="M40 331q0 92 27 161.5t71.5 108t95.5 57.5t107 19q54 0 103 -17l44 91l89 -41l-49 -102q96 -89 96 -277q0 -167 -79.5 -255.5t-214.5 -88.5q-56 0 -107 16l-50 -103l-87 42l53 110q-99 88 -99 279zM165 336q0 -110 34 -172l192 400q-28 10 -56 10q-61 0 -100.5 -36 t-54.5 -87t-15 -115zM275 98q26 -10 62 -10q46 0 79 20t50.5 55.5t25.5 76t8 88.5q0 102 -34 167z" />
<glyph unicode="&#xd9;" horiz-adv-x="659" d="M22 580v85h242v-81l-33 -3q-16 -2 -23 -8.5t-7 -24.5v-332q0 -70 33.5 -98.5t97.5 -28.5q61 0 95.5 31t34.5 91v366l-58 3v85h237v-81l-33 -3q-29 -3 -29 -30v-357q0 -97 -68 -152t-183 -55q-125 0 -186.5 53.5t-61.5 169.5v367zM199.5 832q-5.5 20 17.5 42l40 33 l162 -157l-30 -41l-155 87q-29 16 -34.5 36z" />
<glyph unicode="&#xda;" horiz-adv-x="659" d="M22 580v85h242v-81l-33 -3q-16 -2 -23 -8.5t-7 -24.5v-332q0 -70 33.5 -98.5t97.5 -28.5q61 0 95.5 31t34.5 91v366l-58 3v85h237v-81l-33 -3q-29 -3 -29 -30v-357q0 -97 -68 -152t-183 -55q-125 0 -186.5 53.5t-61.5 169.5v367zM243 750l162 157l40 -33q23 -21 17 -41.5 t-34 -36.5l-155 -87z" />
<glyph unicode="&#xdb;" horiz-adv-x="659" d="M22 580v85h242v-81l-33 -3q-16 -2 -23 -8.5t-7 -24.5v-332q0 -70 33.5 -98.5t97.5 -28.5q61 0 95.5 31t34.5 91v366l-58 3v85h237v-81l-33 -3q-29 -3 -29 -30v-357q0 -97 -68 -152t-183 -55q-125 0 -186.5 53.5t-61.5 169.5v367zM168 742l118 128q41 44 82 2l120 -129 l-41 -35l-120 86l-118 -86z" />
<glyph unicode="&#xdc;" horiz-adv-x="659" d="M22 580v85h242v-81l-33 -3q-16 -2 -23 -8.5t-7 -24.5v-332q0 -70 33.5 -98.5t97.5 -28.5q61 0 95.5 31t34.5 91v366l-58 3v85h237v-81l-33 -3q-29 -3 -29 -30v-357q0 -97 -68 -152t-183 -55q-125 0 -186.5 53.5t-61.5 169.5v367zM169 787q0 28 19.5 47.5t49.5 19.5 t49.5 -19.5t19.5 -47.5q0 -29 -19.5 -47.5t-49.5 -18.5q-31 0 -50 18.5t-19 47.5zM369 787q0 28 19.5 47.5t49.5 19.5t49.5 -19.5t19.5 -47.5q0 -29 -19.5 -47.5t-49.5 -18.5q-31 0 -50 18.5t-19 47.5z" />
<glyph unicode="&#xdd;" horiz-adv-x="570" d="M5 580v85h244v-81l-30 -3q-16 -1 -20.5 -12t3.5 -27l85 -174h4l109 208l-50 4v85h215v-81l-30 -3q-19 -2 -34 -30l-157 -297v-166l78 -3v-85h-282v81l53 3q29 2 29 28v142l-170 323zM191 750l162 157l40 -33q23 -21 17 -41.5t-34 -36.5l-155 -87z" />
<glyph unicode="&#xde;" horiz-adv-x="590" d="M32 0v78l33 3q29 3 29 28v470l-62 4v82h277v-75l-64 -3q-29 -2 -29 -28v-17h107q112 0 174.5 -50t62.5 -144q0 -106 -71 -162t-188 -56h-85v-46l96 -3v-81h-280zM216 227h72q146 0 146 109q0 66 -37.5 87.5t-119.5 21.5h-61v-218z" />
<glyph unicode="&#xdf;" horiz-adv-x="625" d="M28 0v76l33 3q15 2 22 8.5t7 24.5v398q0 203 240 203q109 0 162.5 -40.5t53.5 -104.5q0 -29 -13.5 -54t-33 -43t-38.5 -34t-32.5 -33t-13.5 -34q0 -19 18.5 -36.5t45 -33t53 -34t45 -49.5t18.5 -71q0 -76 -50.5 -117.5t-129.5 -41.5q-92 0 -160 31v139l90 7v-48 q0 -16 3 -23t16 -12q20 -8 49 -8q28 1 46 18t18 48q0 26 -18 46t-43 34.5t-50.5 30t-43.5 41t-18 59.5t20 64t44.5 49t44.5 44t20 49q0 67 -109 67q-115 0 -115 -107v-516h-181z" />
<glyph unicode="&#xe0;" horiz-adv-x="567" d="M40 230q0 136 66 212t198 76q85 0 178 -35v-372q0 -16 5.5 -22t19.5 -7l32 -2v-80h-159v58l-3 1q-50 -72 -137 -72q-102 0 -151 65t-49 178zM162 234q0 -162 104 -162q44 0 72 26.5t28 60.5v259q-28 13 -77 13q-67 0 -97 -54t-30 -143zM177.5 728q-0.5 20 28.5 36l47 22 l116 -192l-39 -33l-128 124q-24 23 -24.5 43z" />
<glyph unicode="&#xe1;" horiz-adv-x="567" d="M40 230q0 136 66 212t198 76q85 0 178 -35v-372q0 -16 5.5 -22t19.5 -7l32 -2v-80h-159v58l-3 1q-50 -72 -137 -72q-102 0 -151 65t-49 178zM162 234q0 -162 104 -162q44 0 72 26.5t28 60.5v259q-28 13 -77 13q-67 0 -97 -54t-30 -143zM214 594l116 192l47 -22 q29 -16 28.5 -36t-24.5 -43l-128 -124z" />
<glyph unicode="&#xe2;" horiz-adv-x="567" d="M40 230q0 136 66 212t198 76q85 0 178 -35v-372q0 -16 5.5 -22t19.5 -7l32 -2v-80h-159v58l-3 1q-50 -72 -137 -72q-102 0 -151 65t-49 178zM133 594l115 151q21 27 45 26t44 -28l113 -148l-41 -34l-118 104l-117 -103zM162 234q0 -162 104 -162q44 0 72 26.5t28 60.5 v259q-28 13 -77 13q-67 0 -97 -54t-30 -143z" />
<glyph unicode="&#xe3;" horiz-adv-x="567" d="M40 230q0 136 66 212t198 76q85 0 178 -35v-372q0 -16 5.5 -22t19.5 -7l32 -2v-80h-159v58l-3 1q-50 -72 -137 -72q-102 0 -151 65t-49 178zM127 631q36 79 102 79q24 0 70 -14t64 -14q25 0 44 32l54 -29q-33 -87 -103 -87q-22 0 -66 13.5t-59 13.5q-20 0 -31 -5.5 t-27 -23.5zM162 234q0 -162 104 -162q44 0 72 26.5t28 60.5v259q-28 13 -77 13q-67 0 -97 -54t-30 -143z" />
<glyph unicode="&#xe4;" horiz-adv-x="567" d="M40 230q0 136 66 212t198 76q85 0 178 -35v-372q0 -16 5.5 -22t19.5 -7l32 -2v-80h-159v58l-3 1q-50 -72 -137 -72q-102 0 -151 65t-49 178zM121 647q0 28 19.5 47.5t49.5 19.5t49.5 -19.5t19.5 -47.5q0 -29 -19.5 -47.5t-49.5 -18.5q-31 0 -50 18.5t-19 47.5zM162 234 q0 -162 104 -162q44 0 72 26.5t28 60.5v259q-28 13 -77 13q-67 0 -97 -54t-30 -143zM321 647q0 28 19.5 47.5t49.5 19.5t49.5 -19.5t19.5 -47.5q0 -29 -19.5 -47.5t-49.5 -18.5q-31 0 -50 18.5t-19 47.5z" />
<glyph unicode="&#xe5;" horiz-adv-x="567" d="M40 230q0 136 66 212t198 76q85 0 178 -35v-372q0 -16 5.5 -22t19.5 -7l32 -2v-80h-159v58l-3 1q-50 -72 -137 -72q-102 0 -151 65t-49 178zM162 234q0 -162 104 -162q44 0 72 26.5t28 60.5v259q-28 13 -77 13q-67 0 -97 -54t-30 -143zM192 657q0 41 26.5 67t68.5 26 q43 0 68 -25.5t25 -62.5q0 -43 -26 -70.5t-70 -27.5q-43 0 -67.5 26.5t-24.5 66.5zM251 657q0 -42 36 -42q17 0 26.5 12t9.5 30q0 41 -36 41t-36 -41z" />
<glyph unicode="&#xe6;" horiz-adv-x="765" d="M40 233q0 133 67 209t192 76q73 0 143 -34q53 34 124 34q75 0 118.5 -36.5t43.5 -102.5q0 -179 -285 -181q3 -55 34 -87t90 -32t125 45l38 -81q-23 -19 -70 -37.5t-110 -18.5q-104 0 -158 54q-66 -54 -148 -54q-108 0 -156 67.5t-48 178.5zM162 244q0 -86 24.5 -129 t82.5 -43q43 0 75 32q-26 55 -26 137q0 100 51 175q-37 15 -82 15q-63 0 -94 -53t-31 -134zM439 281q24 0 51.5 4t57.5 13.5t50 29.5t20 47t-16 42.5t-43 15.5q-56 0 -86.5 -45t-33.5 -107z" />
<glyph unicode="&#xe7;" horiz-adv-x="471" d="M33 245q0 140 70.5 206.5t167.5 66.5q80 0 156 -41v-130l-92 -7v48q0 27 -21 34q-18 6 -39 6q-121 0 -121 -171q0 -85 32 -132t97 -47q56 0 115 43l43 -77q-63 -53 -157 -57l-12 -50q42 -3 67.5 -24t25.5 -58q0 -50 -36.5 -73.5t-85.5 -23.5t-90 18l16 52q39 -13 67 -13 q48 0 48 37q0 38 -88 38l31 99q-93 11 -143.5 77t-50.5 179z" />
<glyph unicode="&#xe8;" horiz-adv-x="484" d="M37 240q0 118 65 198t182 80q75 0 119 -36.5t44 -102.5q0 -44 -19 -77.5t-47 -52.5t-68 -31t-75.5 -16t-75.5 -4q3 -53 33 -85.5t90 -32.5q64 0 126 44l38 -81q-20 -18 -67.5 -37t-108.5 -19q-122 0 -179 67.5t-57 185.5zM144.5 728q-0.5 20 28.5 36l47 22l116 -192 l-39 -33l-128 124q-24 23 -24.5 43zM158 282q44 1 80.5 7.5t67.5 29t31 58.5q0 27 -16 41.5t-44 14.5q-56 0 -86 -44.5t-33 -106.5z" />
<glyph unicode="&#xe9;" horiz-adv-x="484" d="M37 240q0 118 65 198t182 80q75 0 119 -36.5t44 -102.5q0 -44 -19 -77.5t-47 -52.5t-68 -31t-75.5 -16t-75.5 -4q3 -53 33 -85.5t90 -32.5q64 0 126 44l38 -81q-20 -18 -67.5 -37t-108.5 -19q-122 0 -179 67.5t-57 185.5zM158 282q44 1 80.5 7.5t67.5 29t31 58.5 q0 27 -16 41.5t-44 14.5q-56 0 -86 -44.5t-33 -106.5zM173 594l116 192l47 -22q29 -16 28.5 -36t-24.5 -43l-128 -124z" />
<glyph unicode="&#xea;" horiz-adv-x="484" d="M37 240q0 118 65 198t182 80q75 0 119 -36.5t44 -102.5q0 -44 -19 -77.5t-47 -52.5t-68 -31t-75.5 -16t-75.5 -4q3 -53 33 -85.5t90 -32.5q64 0 126 44l38 -81q-20 -18 -67.5 -37t-108.5 -19q-122 0 -179 67.5t-57 185.5zM104 594l115 151q21 27 45 26t44 -28l113 -148 l-41 -34l-118 104l-117 -103zM158 282q44 1 80.5 7.5t67.5 29t31 58.5q0 27 -16 41.5t-44 14.5q-56 0 -86 -44.5t-33 -106.5z" />
<glyph unicode="&#xeb;" horiz-adv-x="484" d="M37 240q0 -118 57 -185.5t179 -67.5q61 0 108.5 19t67.5 37l-38 81q-62 -44 -126 -44q-60 0 -90 32.5t-33 85.5q40 0 75.5 4t75.5 16t68 31t47 52.5t19 77.5q0 66 -44 102.5t-119 36.5q-117 0 -182 -80t-65 -198zM91 647q0 28 19.5 47.5t49.5 19.5t49.5 -19.5t19.5 -47.5 q0 -29 -19.5 -47.5t-49.5 -18.5q-31 0 -50 18.5t-19 47.5zM158 282q3 62 33 106.5t86 44.5q28 0 44 -14.5t16 -41.5q0 -36 -31 -58.5t-67.5 -29t-80.5 -7.5zM291 647q0 28 19.5 47.5t49.5 19.5t49.5 -19.5t19.5 -47.5q0 -29 -19.5 -47.5t-49.5 -18.5q-31 0 -50 18.5 t-19 47.5z" />
<glyph unicode="&#xec;" horiz-adv-x="296" d="M20.5 728q-0.5 20 28.5 36l47 22l116 -192l-39 -33l-128 124q-24 23 -24.5 43zM33 0v76l33 3q29 3 29 32v278q0 17 -5.5 23t-19.5 6l-35 2v83h179v-420l57 -3v-80h-238z" />
<glyph unicode="&#xed;" horiz-adv-x="296" d="M33 0v76l33 3q29 3 29 32v278q0 17 -5.5 23t-19.5 6l-35 2v83h179v-420l57 -3v-80h-238zM82 594l116 192l47 -22q29 -16 28.5 -36t-24.5 -43l-128 -124z" />
<glyph unicode="&#xee;" horiz-adv-x="296" d="M-33 594l115 151q21 27 45 26t44 -28l113 -148l-41 -34l-118 104l-117 -103zM33 0v76l33 3q29 3 29 32v278q0 17 -5.5 23t-19.5 6l-35 2v83h179v-420l57 -3v-80h-238z" />
<glyph unicode="&#xef;" horiz-adv-x="296" d="M-44 647q0 28 19.5 47.5t49.5 19.5t49.5 -19.5t19.5 -47.5q0 -29 -19.5 -47.5t-49.5 -18.5q-31 0 -50 18.5t-19 47.5zM33 0v76l33 3q29 3 29 32v278q0 17 -5.5 23t-19.5 6l-35 2v83h179v-420l57 -3v-80h-238zM156 647q0 28 19.5 47.5t49.5 19.5t49.5 -19.5t19.5 -47.5 q0 -29 -19.5 -47.5t-49.5 -18.5q-31 0 -50 18.5t-19 47.5z" />
<glyph unicode="&#xf0;" horiz-adv-x="512" d="M30 209q0 104 54.5 170t148.5 66q65 0 114 -32q-19 70 -62 121l-83 -57l-46 65l66 45q-44 27 -100 37l24 93q100 -13 171 -65l84 57l45 -65l-67 -47q99 -123 99 -321q0 -131 -57 -210.5t-178 -79.5q-109 0 -161 61t-52 162zM153 213q0 -63 24.5 -97.5t70.5 -34.5 q54 0 80.5 49.5t26.5 130.5q0 41 -1 55q-45 37 -104 37q-97 0 -97 -140z" />
<glyph unicode="&#xf1;" horiz-adv-x="600" d="M27 423v80h169v-65q26 37 69 58.5t93 21.5q76 0 117.5 -43.5t41.5 -130.5v-261l57 -3v-80h-238v76l33 3q15 2 22 8.5t7 24.5v206q0 55 -17 81.5t-65 26.5q-47 0 -75 -30t-28 -71v-242l57 -3v-80h-238v76l33 3q15 2 22 8.5t7 24.5v277q0 30 -25 31zM129 631q36 79 102 79 q24 0 70 -14t64 -14q25 0 44 32l54 -29q-33 -87 -103 -87q-22 0 -66 13.5t-59 13.5q-20 0 -31 -5.5t-27 -23.5z" />
<glyph unicode="&#xf2;" horiz-adv-x="528" d="M33 252q0 74 22 128.5t59 83t76 41.5t81 13q27 0 52 -4t58 -19.5t56.5 -41t40 -74t16.5 -114.5q0 -138 -67 -209t-172 -71q-104 0 -163 67.5t-59 199.5zM152.5 728q-0.5 20 28.5 36l47 22l116 -192l-39 -33l-128 124q-24 23 -24.5 43zM154 266q0 -40 4 -70t14.5 -60.5 t33.5 -46.5t57 -16q109 0 109 176q0 89 -24.5 135t-82.5 46q-57 0 -84 -44t-27 -120z" />
<glyph unicode="&#xf3;" horiz-adv-x="528" d="M33 252q0 74 22 128.5t59 83t76 41.5t81 13q27 0 52 -4t58 -19.5t56.5 -41t40 -74t16.5 -114.5q0 -138 -67 -209t-172 -71q-104 0 -163 67.5t-59 199.5zM154 266q0 -40 4 -70t14.5 -60.5t33.5 -46.5t57 -16q109 0 109 176q0 89 -24.5 135t-82.5 46q-57 0 -84 -44 t-27 -120zM186 594l116 192l47 -22q29 -16 28.5 -36t-24.5 -43l-128 -124z" />
<glyph unicode="&#xf4;" horiz-adv-x="528" d="M33 252q0 74 22 128.5t59 83t76 41.5t81 13q27 0 52 -4t58 -19.5t56.5 -41t40 -74t16.5 -114.5q0 -138 -67 -209t-172 -71q-104 0 -163 67.5t-59 199.5zM103 594l115 151q21 27 45 26t44 -28l113 -148l-41 -34l-118 104l-117 -103zM154 266q0 -40 4 -70t14.5 -60.5 t33.5 -46.5t57 -16q109 0 109 176q0 89 -24.5 135t-82.5 46q-57 0 -84 -44t-27 -120z" />
<glyph unicode="&#xf5;" horiz-adv-x="528" d="M33 252q0 74 22 128.5t59 83t76 41.5t81 13q27 0 52 -4t58 -19.5t56.5 -41t40 -74t16.5 -114.5q0 -138 -67 -209t-172 -71q-104 0 -163 67.5t-59 199.5zM99 631q36 79 102 79q24 0 70 -14t64 -14q25 0 44 32l54 -29q-33 -87 -103 -87q-22 0 -66 13.5t-59 13.5 q-20 0 -31 -5.5t-27 -23.5zM154 266q0 -40 4 -70t14.5 -60.5t33.5 -46.5t57 -16q109 0 109 176q0 89 -24.5 135t-82.5 46q-57 0 -84 -44t-27 -120z" />
<glyph unicode="&#xf6;" horiz-adv-x="528" d="M33 252q0 74 22 128.5t59 83t76 41.5t81 13q27 0 52 -4t58 -19.5t56.5 -41t40 -74t16.5 -114.5q0 -138 -67 -209t-172 -71q-104 0 -163 67.5t-59 199.5zM92 647q0 28 19.5 47.5t49.5 19.5t49.5 -19.5t19.5 -47.5q0 -29 -19.5 -47.5t-49.5 -18.5q-31 0 -50 18.5t-19 47.5z M154 266q0 -40 4 -70t14.5 -60.5t33.5 -46.5t57 -16q109 0 109 176q0 89 -24.5 135t-82.5 46q-57 0 -84 -44t-27 -120zM292 647q0 28 19.5 47.5t49.5 19.5t49.5 -19.5t19.5 -47.5q0 -29 -19.5 -47.5t-49.5 -18.5q-31 0 -50 18.5t-19 47.5z" />
<glyph unicode="&#xf7;" horiz-adv-x="535" d="M65 266v96h405v-96h-405zM204 128q0 28 17.5 47.5t46.5 19.5q30 0 48 -18t18 -48t-18 -49.5t-47 -19.5q-31 0 -48 18.5t-17 49.5zM204 505q0 28 17.5 47.5t46.5 19.5q30 0 48 -18t18 -48t-18 -49.5t-47 -19.5q-31 0 -48 18.5t-17 49.5z" />
<glyph unicode="&#xf8;" horiz-adv-x="528" d="M35 252q0 74 22 128.5t59 83t76 41.5t81 13q44 0 79 -11l38 76l73 -35l-40 -80q73 -64 73 -203q0 -138 -67 -209t-172 -71q-44 0 -80 12l-40 -81l-72 36l42 86q-72 69 -72 214zM156 266q0 -73 12 -114l138 271q-15 7 -39 7q-57 0 -84 -44t-27 -120zM222 81q19 -8 43 -8 q109 0 109 176q0 64 -13 104z" />
<glyph unicode="&#xf9;" horiz-adv-x="591" d="M27 421v82h176v-317q0 -53 15 -80t59 -27q50 0 78.5 29t28.5 70v211q0 16 -5.5 22.5t-19.5 7.5l-32 2v82h176v-392q0 -16 5 -21.5t20 -7.5l35 -3v-79h-162v65q-55 -78 -162 -78q-155 0 -155 173v231q0 27 -25 28zM158.5 728q-0.5 20 28.5 36l47 22l116 -192l-39 -33 l-128 124q-24 23 -24.5 43z" />
<glyph unicode="&#xfa;" horiz-adv-x="591" d="M27 421v82h176v-317q0 -53 15 -80t59 -27q50 0 78.5 29t28.5 70v211q0 16 -5.5 22.5t-19.5 7.5l-32 2v82h176v-392q0 -16 5 -21.5t20 -7.5l35 -3v-79h-162v65q-55 -78 -162 -78q-155 0 -155 173v231q0 27 -25 28zM204 594l116 192l47 -22q29 -16 28.5 -36t-24.5 -43 l-128 -124z" />
<glyph unicode="&#xfb;" horiz-adv-x="591" d="M27 421v82h176v-317q0 -53 15 -80t59 -27q50 0 78.5 29t28.5 70v211q0 16 -5.5 22.5t-19.5 7.5l-32 2v82h176v-392q0 -16 5 -21.5t20 -7.5l35 -3v-79h-162v65q-55 -78 -162 -78q-155 0 -155 173v231q0 27 -25 28zM116 594l115 151q21 27 45 26t44 -28l113 -148l-41 -34 l-118 104l-117 -103z" />
<glyph unicode="&#xfc;" horiz-adv-x="591" d="M27 421v82h176v-317q0 -53 15 -80t59 -27q50 0 78.5 29t28.5 70v211q0 16 -5.5 22.5t-19.5 7.5l-32 2v82h176v-392q0 -16 5 -21.5t20 -7.5l35 -3v-79h-162v65q-55 -78 -162 -78q-155 0 -155 173v231q0 27 -25 28zM108 647q0 28 19.5 47.5t49.5 19.5t49.5 -19.5 t19.5 -47.5q0 -29 -19.5 -47.5t-49.5 -18.5q-31 0 -50 18.5t-19 47.5zM308 647q0 28 19.5 47.5t49.5 19.5t49.5 -19.5t19.5 -47.5q0 -29 -19.5 -47.5t-49.5 -18.5q-31 0 -50 18.5t-19 47.5z" />
<glyph unicode="&#xfd;" horiz-adv-x="573" d="M27 421v82h176v-287q0 -53 15 -80t59 -27q50 0 78.5 29t28.5 70v181q0 17 -5.5 23.5t-19.5 6.5l-32 2v82h176v-484q0 -121 -58.5 -177t-173.5 -56q-122 0 -188 33v139l95 8v-48q0 -27 23 -36q27 -10 71 -10q129 0 129 147v76q-55 -78 -162 -78q-155 0 -155 173v201 q0 27 -25 28zM205 594l116 192l47 -22q29 -16 28.5 -36t-24.5 -43l-128 -124z" />
<glyph unicode="&#xfe;" horiz-adv-x="568" d="M27 -131l33 3q15 2 22 8.5t7 24.5v699q0 23 -25 24l-35 2v83h175v-237q45 42 121 42q93 0 148.5 -64.5t55.5 -177.5q0 -138 -57.5 -214.5t-160.5 -76.5q-60 0 -107 29v-138l81 -4v-79h-258v76zM204 105q38 -25 88 -25q60 0 87 49.5t27 130.5q0 169 -112 169 q-36 0 -63 -21t-27 -54v-249z" />
<glyph unicode="&#xff;" horiz-adv-x="573" d="M27 421v82h176v-287q0 -53 15 -80t59 -27q50 0 78.5 29t28.5 70v181q0 17 -5.5 23.5t-19.5 6.5l-32 2v82h176v-484q0 -121 -58.5 -177t-173.5 -56q-122 0 -188 33v139l95 8v-48q0 -27 23 -36q27 -10 71 -10q129 0 129 147v76q-55 -78 -162 -78q-155 0 -155 173v201 q0 27 -25 28zM101 647q0 28 19.5 47.5t49.5 19.5t49.5 -19.5t19.5 -47.5q0 -29 -19.5 -47.5t-49.5 -18.5q-31 0 -50 18.5t-19 47.5zM301 647q0 28 19.5 47.5t49.5 19.5t49.5 -19.5t19.5 -47.5q0 -29 -19.5 -47.5t-49.5 -18.5q-31 0 -50 18.5t-19 47.5z" />
<glyph unicode="&#x100;" horiz-adv-x="662" d="M5 0v81l33 3q21 2 30 28l161 466l-63 6v81h229l204 -577h1l57 -3v-85h-258v81l38 3q17 2 23 8t1 22l-21 62h-234l-30 -88l60 -3v-85h-231zM159 734v87h287v-87h-287zM230 268h186l-90 285h-3z" />
<glyph unicode="&#x101;" horiz-adv-x="567" d="M40 230q0 136 66 212t198 76q85 0 178 -35v-372q0 -16 5.5 -22t19.5 -7l32 -2v-80h-159v58l-3 1q-50 -72 -137 -72q-102 0 -151 65t-49 178zM149 610v84h287v-84h-287zM162 234q0 -162 104 -162q44 0 72 26.5t28 60.5v259q-28 13 -77 13q-67 0 -97 -54t-30 -143z" />
<glyph unicode="&#x102;" horiz-adv-x="662" d="M5 0v81l33 3q21 2 30 28l161 466l-63 6v81h229l204 -577h1l57 -3v-85h-258v81l38 3q17 2 23 8t1 22l-21 62h-234l-30 -88l60 -3v-85h-231zM140 846l67 28q31 -78 100 -78q37 0 59.5 18.5t39.5 59.5l66 -27q-42 -127 -169 -127q-128 0 -163 126zM230 268h186l-90 285h-3z " />
<glyph unicode="&#x103;" horiz-adv-x="567" d="M40 230q0 136 66 212t198 76q85 0 178 -35v-372q0 -16 5.5 -22t19.5 -7l32 -2v-80h-159v58l-3 1q-50 -72 -137 -72q-102 0 -151 65t-49 178zM128 706l68 16q28 -84 94 -84q31 0 53.5 18.5t40.5 64.5l65 -15q-16 -68 -56.5 -106t-105.5 -38q-70 0 -110 41.5t-49 102.5z M162 234q0 -162 104 -162q44 0 72 26.5t28 60.5v259q-28 13 -77 13q-67 0 -97 -54t-30 -143z" />
<glyph unicode="&#x104;" horiz-adv-x="662" d="M5 0v81l33 3q21 2 30 28l161 466l-63 6v81h229l204 -577h1l57 -3v-85h-45q-99 -43 -99 -97q0 -38 41 -38q22 0 47 11l22 -66q-50 -24 -99 -24q-60 0 -85.5 27.5t-25.5 68.5q0 69 88 118h-102v81l38 3q17 2 23 8t1 22l-21 62h-234l-30 -88l60 -3v-85h-231zM230 268h186 l-90 285h-3z" />
<glyph unicode="&#x105;" horiz-adv-x="567" d="M40 230q0 136 66 212t198 76q85 0 178 -35v-372q0 -16 5.5 -22t19.5 -7l32 -2v-80q-109 -42 -109 -95q0 -40 41 -40q22 0 47 11l22 -66q-50 -24 -99 -24q-60 0 -85.5 27.5t-25.5 68.5q0 75 95 111v7h-45v58l-3 1q-50 -72 -137 -72q-102 0 -151 65t-49 178zM162 234 q0 -162 104 -162q44 0 72 26.5t28 60.5v259q-28 13 -77 13q-67 0 -97 -54t-30 -143z" />
<glyph unicode="&#x106;" horiz-adv-x="602" d="M40 329q0 94 27 164t73 108.5t99.5 57t114.5 18.5q100 0 188 -41v-170l-102 -7v78q0 15 -4 22t-17 11q-25 8 -65 8q-93 0 -141 -63t-48 -178q0 -123 45.5 -188t145.5 -63q44 0 73 9q13 4 17 11t4 22v80l102 -7v-173q-78 -41 -198 -41q-153 0 -233.5 86t-80.5 256z M238 750l162 157l40 -33q23 -21 17 -41.5t-34 -36.5l-155 -87z" />
<glyph unicode="&#x107;" horiz-adv-x="471" d="M33 245q0 140 70.5 206.5t167.5 66.5q80 0 156 -41v-130l-92 -7v48q0 27 -21 34q-18 6 -39 6q-121 0 -121 -171q0 -85 32 -132t97 -47q56 0 115 43l43 -77q-71 -58 -174 -58q-111 0 -172.5 67.5t-61.5 191.5zM183 594l116 192l47 -22q29 -16 28.5 -36t-24.5 -43 l-128 -124z" />
<glyph unicode="&#x108;" horiz-adv-x="602" d="M40 329q0 94 27 164t73 108.5t99.5 57t114.5 18.5q100 0 188 -41v-170l-102 -7v78q0 15 -4 22t-17 11q-25 8 -65 8q-93 0 -141 -63t-48 -178q0 -123 45.5 -188t145.5 -63q44 0 73 9q13 4 17 11t4 22v80l102 -7v-173q-78 -41 -198 -41q-153 0 -233.5 86t-80.5 256z M183 742l118 128q41 44 82 2l120 -129l-41 -35l-120 86l-118 -86z" />
<glyph unicode="&#x109;" horiz-adv-x="471" d="M33 245q0 140 70.5 206.5t167.5 66.5q80 0 156 -41v-130l-92 -7v48q0 27 -21 34q-18 6 -39 6q-121 0 -121 -171q0 -85 32 -132t97 -47q56 0 115 43l43 -77q-71 -58 -174 -58q-111 0 -172.5 67.5t-61.5 191.5zM103 595l115 151q21 27 45 26t44 -28l113 -148l-41 -34 l-118 104l-117 -103z" />
<glyph unicode="&#x10a;" horiz-adv-x="602" d="M40 329q0 94 27 164t73 108.5t99.5 57t114.5 18.5q100 0 188 -41v-170l-102 -7v78q0 15 -4 22t-17 11q-25 8 -65 8q-93 0 -141 -63t-48 -178q0 -123 45.5 -188t145.5 -63q44 0 73 9q13 4 17 11t4 22v80l102 -7v-173q-78 -41 -198 -41q-153 0 -233.5 86t-80.5 256z M276 793q0 28 19.5 47.5t49.5 19.5t49.5 -19.5t19.5 -47.5q0 -29 -19.5 -47.5t-49.5 -18.5q-31 0 -50 18.5t-19 47.5z" />
<glyph unicode="&#x10b;" horiz-adv-x="471" d="M33 245q0 140 70.5 206.5t167.5 66.5q80 0 156 -41v-130l-92 -7v48q0 27 -21 34q-18 6 -39 6q-121 0 -121 -171q0 -85 32 -132t97 -47q56 0 115 43l43 -77q-71 -58 -174 -58q-111 0 -172.5 67.5t-61.5 191.5zM197 647q0 28 19.5 47.5t49.5 19.5t49.5 -19.5t19.5 -47.5 q0 -29 -19.5 -47.5t-49.5 -18.5q-31 0 -50 18.5t-19 47.5z" />
<glyph unicode="&#x10c;" horiz-adv-x="602" d="M40 329q0 94 27 164t73 108.5t99.5 57t114.5 18.5q100 0 188 -41v-170l-102 -7v78q0 15 -4 22t-17 11q-25 8 -65 8q-93 0 -141 -63t-48 -178q0 -123 45.5 -188t145.5 -63q44 0 73 9q13 4 17 11t4 22v80l102 -7v-173q-78 -41 -198 -41q-153 0 -233.5 86t-80.5 256z M179 858l41 35l120 -86l118 86l41 -34l-118 -128q-41 -44 -82 -2z" />
<glyph unicode="&#x10d;" horiz-adv-x="471" d="M33 245q0 140 70.5 206.5t167.5 66.5q80 0 156 -41v-130l-92 -7v48q0 27 -21 34q-18 6 -39 6q-121 0 -121 -171q0 -85 32 -132t97 -47q56 0 115 43l43 -77q-71 -58 -174 -58q-111 0 -172.5 67.5t-61.5 191.5zM107 738l41 34l118 -104l117 103l41 -32l-115 -146 q-21 -27 -45 -26t-44 28z" />
<glyph unicode="&#x10e;" horiz-adv-x="665" d="M34 0v81l33 3q29 3 29 28v465l-57 3v85h274q147 0 229.5 -78t82.5 -231q0 -95 -25 -165.5t-68.5 -111t-97 -60t-116.5 -19.5h-284zM139 858l41 35l120 -86l118 86l41 -34l-118 -128q-41 -44 -82 -2zM218 96h102q86 0 134 62t48 180q0 230 -195 230h-89v-472z" />
<glyph unicode="&#x10f;" horiz-adv-x="650" d="M40 232q0 130 64.5 208t179.5 78q43 0 82 -12v101q0 22 -26 24l-43 3v79h186v-608q1 -23 25 -23l35 -2v-80h-162v59l-3 1q-45 -73 -136 -73q-56 0 -97 20t-63 56t-32 77.5t-10 91.5zM163 243q0 -168 108 -168q41 0 68 23.5t27 57.5v259q-36 16 -76 16q-66 0 -96.5 -53 t-30.5 -135zM551 502v211l50 5q32 3 42.5 -16t1.5 -50l-46 -159z" />
<glyph unicode="&#x110;" horiz-adv-x="679" d="M36 290v90h74v197l-57 3v85h274q147 0 229.5 -78t82.5 -231q0 -95 -25 -165.5t-68.5 -111t-97 -60t-116.5 -19.5h-284v81l33 3q29 3 29 28v178h-74zM232 96h102q86 0 134 62t48 180q0 230 -195 230h-89v-188h169v-90h-169v-194z" />
<glyph unicode="&#x111;" horiz-adv-x="568" d="M40 232q0 119 64.5 191t179.5 72q43 0 82 -12v73h-150v52h150v6q0 32 -26 34l-43 3v62h186v-105h60v-52h-60v-451q1 -23 25 -23l35 -2v-80h-162v59l-3 1q-45 -73 -136 -73q-56 0 -97 20t-63 56t-32 77.5t-10 91.5zM163 243q0 -168 108 -168q41 0 68 23.5t27 57.5v236 q-36 16 -76 16q-67 0 -97 -46.5t-30 -118.5z" />
<glyph unicode="&#x112;" d="M34 0v81l33 3q29 3 29 28v465l-57 3v85h458v-166l-102 -7v40q0 17 -5 24t-24 7h-148v-171h231v-102h-231v-187h161q18 0 23 7.5t5 24.5v50l102 -7v-178h-475zM128 734v87h287v-87h-287z" />
<glyph unicode="&#x113;" horiz-adv-x="484" d="M37 240q0 118 65 198t182 80q75 0 119 -36.5t44 -102.5q0 -44 -19 -77.5t-47 -52.5t-68 -31t-75.5 -16t-75.5 -4q3 -53 33 -85.5t90 -32.5q64 0 126 44l38 -81q-20 -18 -67.5 -37t-108.5 -19q-122 0 -179 67.5t-57 185.5zM122 610v84h287v-84h-287zM158 282 q44 1 80.5 7.5t67.5 29t31 58.5q0 27 -16 41.5t-44 14.5q-56 0 -86 -44.5t-33 -106.5z" />
<glyph unicode="&#x114;" d="M34 0v81l33 3q29 3 29 28v465l-57 3v85h458v-166l-102 -7v40q0 17 -5 24t-24 7h-148v-171h231v-102h-231v-187h161q18 0 23 7.5t5 24.5v50l102 -7v-178h-475zM110 846l67 28q31 -78 100 -78q37 0 59.5 18.5t39.5 59.5l66 -27q-42 -127 -169 -127q-128 0 -163 126z" />
<glyph unicode="&#x115;" horiz-adv-x="484" d="M37 240q0 118 65 198t182 80q75 0 119 -36.5t44 -102.5q0 -44 -19 -77.5t-47 -52.5t-68 -31t-75.5 -16t-75.5 -4q3 -53 33 -85.5t90 -32.5q64 0 126 44l38 -81q-20 -18 -67.5 -37t-108.5 -19q-122 0 -179 67.5t-57 185.5zM101 706l68 16q28 -84 94 -84q31 0 53.5 18.5 t40.5 64.5l65 -15q-16 -68 -56.5 -106t-105.5 -38q-70 0 -110 41.5t-49 102.5zM158 282q44 1 80.5 7.5t67.5 29t31 58.5q0 27 -16 41.5t-44 14.5q-56 0 -86 -44.5t-33 -106.5z" />
<glyph unicode="&#x116;" d="M34 0v81l33 3q29 3 29 28v465l-57 3v85h458v-166l-102 -7v40q0 17 -5 24t-24 7h-148v-171h231v-102h-231v-187h161q18 0 23 7.5t5 24.5v50l102 -7v-178h-475zM208 793q0 28 19.5 47.5t49.5 19.5t49.5 -19.5t19.5 -47.5q0 -29 -19.5 -47.5t-49.5 -18.5q-31 0 -50 18.5 t-19 47.5z" />
<glyph unicode="&#x117;" horiz-adv-x="484" d="M37 240q0 118 65 198t182 80q75 0 119 -36.5t44 -102.5q0 -44 -19 -77.5t-47 -52.5t-68 -31t-75.5 -16t-75.5 -4q3 -53 33 -85.5t90 -32.5q64 0 126 44l38 -81q-20 -18 -67.5 -37t-108.5 -19q-122 0 -179 67.5t-57 185.5zM158 282q44 1 80.5 7.5t67.5 29t31 58.5 q0 27 -16 41.5t-44 14.5q-56 0 -86 -44.5t-33 -106.5zM198 647q0 28 19.5 47.5t49.5 19.5t49.5 -19.5t19.5 -47.5q0 -29 -19.5 -47.5t-49.5 -18.5q-31 0 -50 18.5t-19 47.5z" />
<glyph unicode="&#x118;" d="M34 0v81l33 3q29 3 29 28v465l-57 3v85h458v-166l-102 -7v40q0 17 -5 24t-24 7h-148v-171h231v-102h-231v-187h161q18 0 23 7.5t5 24.5v50l102 -7v-178q-113 -39 -113 -97q0 -38 41 -38q22 0 47 11l22 -66q-50 -24 -99 -24q-60 0 -85.5 27.5t-25.5 68.5q0 69 88 118h-350 z" />
<glyph unicode="&#x119;" horiz-adv-x="484" d="M37 240q0 118 65 198t182 80q75 0 119 -36.5t44 -102.5q0 -44 -19 -77.5t-47 -52.5t-68 -31t-75.5 -16t-75.5 -4q3 -53 33 -85.5t90 -32.5q64 0 126 44l38 -81q-14 -12 -52 -32q-54 -28 -80.5 -53t-26.5 -55q0 -38 41 -38q22 0 47 11l22 -66q-50 -24 -99 -24 q-60 0 -85.5 27.5t-25.5 68.5q0 62 67 105q-114 5 -167 72t-53 181zM158 282q44 1 80.5 7.5t67.5 29t31 58.5q0 27 -16 41.5t-44 14.5q-56 0 -86 -44.5t-33 -106.5z" />
<glyph unicode="&#x11a;" d="M34 0v81l33 3q29 3 29 28v465l-57 3v85h458v-166l-102 -7v40q0 17 -5 24t-24 7h-148v-171h231v-102h-231v-187h161q18 0 23 7.5t5 24.5v50l102 -7v-178h-475zM123 858l41 35l120 -86l118 86l41 -34l-118 -128q-41 -44 -82 -2z" />
<glyph unicode="&#x11b;" horiz-adv-x="484" d="M37 240q0 118 65 198t182 80q75 0 119 -36.5t44 -102.5q0 -44 -19 -77.5t-47 -52.5t-68 -31t-75.5 -16t-75.5 -4q3 -53 33 -85.5t90 -32.5q64 0 126 44l38 -81q-20 -18 -67.5 -37t-108.5 -19q-122 0 -179 67.5t-57 185.5zM105 738l41 34l118 -104l117 103l41 -32 l-115 -146q-21 -27 -45 -26t-44 28zM158 282q44 1 80.5 7.5t67.5 29t31 58.5q0 27 -16 41.5t-44 14.5q-56 0 -86 -44.5t-33 -106.5z" />
<glyph unicode="&#x11c;" horiz-adv-x="641" d="M40 331q0 75 19.5 135t51 99t74 64.5t86 36.5t88.5 11q108 0 196 -41v-170l-102 -7v78q0 15 -4 22t-17 11q-25 8 -74 8q-193 0 -193 -239q0 -252 174 -252q69 0 106 24v149h-1l-77 3v85h249v-80l-23 -2q-16 -2 -22.5 -8.5t-6.5 -24.5v-181q-93 -64 -230 -64 q-139 0 -216.5 86.5t-77.5 256.5zM188 742l118 128q41 44 82 2l120 -129l-41 -35l-120 86l-118 -86z" />
<glyph unicode="&#x11d;" horiz-adv-x="544" d="M35 252q0 131 71 198.5t189 67.5q98 0 185 -37v-371q0 -85 -2 -109q-9 -111 -64 -163t-167 -52q-122 0 -188 33v139l95 8v-48q0 -27 23 -36q27 -10 71 -10q64 0 90 38.5t26 108.5v55q-48 -56 -133 -56q-52 0 -91.5 20t-61.5 54.5t-32.5 74.5t-10.5 85zM119 594l115 151 q21 27 45 26t44 -28l113 -148l-41 -34l-118 104l-117 -103zM158 264q0 -158 104 -158q43 0 72.5 26.5t29.5 71.5v215q-35 12 -80 12q-61 0 -93.5 -45t-32.5 -122z" />
<glyph unicode="&#x11e;" horiz-adv-x="641" d="M40 331q0 75 19.5 135t51 99t74 64.5t86 36.5t88.5 11q108 0 196 -41v-170l-102 -7v78q0 15 -4 22t-17 11q-25 8 -74 8q-193 0 -193 -239q0 -252 174 -252q69 0 106 24v149h-1l-77 3v85h249v-80l-23 -2q-16 -2 -22.5 -8.5t-6.5 -24.5v-181q-93 -64 -230 -64 q-139 0 -216.5 86.5t-77.5 256.5zM174 846l67 28q31 -78 100 -78q37 0 59.5 18.5t39.5 59.5l66 -27q-42 -127 -169 -127q-128 0 -163 126z" />
<glyph unicode="&#x11f;" horiz-adv-x="544" d="M35 252q0 131 71 198.5t189 67.5q98 0 185 -37v-371q0 -85 -2 -109q-9 -111 -64 -163t-167 -52q-122 0 -188 33v139l95 8v-48q0 -27 23 -36q27 -10 71 -10q64 0 90 38.5t26 108.5v55q-48 -56 -133 -56q-52 0 -91.5 20t-61.5 54.5t-32.5 74.5t-10.5 85zM120 706l68 16 q28 -84 94 -84q31 0 53.5 18.5t40.5 64.5l65 -15q-16 -68 -56.5 -106t-105.5 -38q-70 0 -110 41.5t-49 102.5zM158 264q0 -158 104 -158q43 0 72.5 26.5t29.5 71.5v215q-35 12 -80 12q-61 0 -93.5 -45t-32.5 -122z" />
<glyph unicode="&#x120;" horiz-adv-x="641" d="M40 331q0 75 19.5 135t51 99t74 64.5t86 36.5t88.5 11q108 0 196 -41v-170l-102 -7v78q0 15 -4 22t-17 11q-25 8 -74 8q-193 0 -193 -239q0 -252 174 -252q69 0 106 24v149h-1l-77 3v85h249v-80l-23 -2q-16 -2 -22.5 -8.5t-6.5 -24.5v-181q-93 -64 -230 -64 q-139 0 -216.5 86.5t-77.5 256.5zM284 793q0 28 19.5 47.5t49.5 19.5t49.5 -19.5t19.5 -47.5q0 -29 -19.5 -47.5t-49.5 -18.5q-31 0 -50 18.5t-19 47.5z" />
<glyph unicode="&#x121;" horiz-adv-x="544" d="M35 252q0 131 71 198.5t189 67.5q98 0 185 -37v-371q0 -85 -2 -109q-9 -111 -64 -163t-167 -52q-122 0 -188 33v139l95 8v-48q0 -27 23 -36q27 -10 71 -10q64 0 90 38.5t26 108.5v55q-48 -56 -133 -56q-52 0 -91.5 20t-61.5 54.5t-32.5 74.5t-10.5 85zM158 264 q0 -158 104 -158q43 0 72.5 26.5t29.5 71.5v215q-35 12 -80 12q-61 0 -93.5 -45t-32.5 -122zM211 647q0 28 19.5 47.5t49.5 19.5t49.5 -19.5t19.5 -47.5q0 -29 -19.5 -47.5t-49.5 -18.5q-31 0 -50 18.5t-19 47.5z" />
<glyph unicode="&#x122;" horiz-adv-x="641" d="M40 331q0 75 19.5 135t51 99t74 64.5t86 36.5t88.5 11q108 0 196 -41v-170l-102 -7v78q0 15 -4 22t-17 11q-25 8 -74 8q-193 0 -193 -239q0 -252 174 -252q69 0 106 24v149h-1l-77 3v85h249v-80l-23 -2q-16 -2 -22.5 -8.5t-6.5 -24.5v-181q-93 -64 -230 -64 q-139 0 -216.5 86.5t-77.5 256.5zM253 -259l46 -22l86 135q18 24 13 46.5t-37 28.5l-49 10z" />
<glyph unicode="&#x123;" horiz-adv-x="544" d="M35 252q0 131 71 198.5t189 67.5q98 0 185 -37v-371q0 -85 -2 -109q-9 -111 -64 -163t-167 -52q-122 0 -188 33v139l95 8v-48q0 -27 23 -36q27 -10 71 -10q64 0 90 38.5t26 108.5v55q-48 -56 -133 -56q-52 0 -91.5 20t-61.5 54.5t-32.5 74.5t-10.5 85zM158 264 q0 -158 104 -158q43 0 72.5 26.5t29.5 71.5v215q-35 12 -80 12q-61 0 -93.5 -45t-32.5 -122zM227 612.5q-5 22.5 13 46.5l86 135l46 -22l-59 -198l-49 10q-32 6 -37 28.5z" />
<glyph unicode="&#x124;" horiz-adv-x="712" d="M32 0v81l33 3q29 3 29 28v465l-57 3v85h242v-81l-33 -3q-16 -2 -23 -8.5t-7 -24.5v-155h283v184l-57 3v85h242v-81l-33 -3q-29 -3 -29 -32v-461l57 -3v-85h-242v81l33 3q15 2 22 8.5t7 24.5v173h-283v-202l58 -3v-85h-242zM195 742l118 128q41 44 82 2l120 -129l-41 -35 l-120 86l-118 -86z" />
<glyph unicode="&#x125;" horiz-adv-x="600" d="M-34 770l118 128q41 44 82 2l120 -129l-41 -35l-120 86l-118 -86zM32 0v76l33 3q15 2 22 8.5t7 24.5v487q0 16 -5.5 22t-19.5 7l-35 2v83h178v-269q52 74 146 74q76 0 117.5 -43.5t41.5 -130.5v-261l57 -3v-80h-238v76l33 3q15 2 22 8.5t7 24.5v206q0 52 -16.5 80 t-61.5 28q-50 0 -78.5 -29.5t-28.5 -71.5v-242l57 -3v-80h-238z" />
<glyph unicode="&#x126;" horiz-adv-x="728" d="M38 0v81l33 3q29 3 29 28v340h-62v77h62v48l-57 3v85h242v-81l-33 -3q-16 -2 -23 -8.5t-7 -24.5v-19h283v48l-57 3v85h242v-81l-33 -3q-29 -3 -29 -32v-20h67v-77h-67v-364l57 -3v-85h-242v81l33 3q15 2 22 8.5t7 24.5v173h-283v-202l58 -3v-85h-242zM222 393h283v59 h-283v-59z" />
<glyph unicode="&#x127;" horiz-adv-x="600" d="M29 528v72h65v4q0 16 -5.5 22t-19.5 7l-35 2v78h178v-113h164v-72h-164v-109q52 74 146 74q76 0 117.5 -43.5t41.5 -130.5v-236l57 -3v-80h-238v76l33 3q15 2 22 8.5t7 24.5v181q0 52 -16.5 80t-61.5 28q-50 0 -78.5 -29.5t-28.5 -71.5v-217l57 -3v-80h-238v76l33 3 q15 2 22 8.5t7 24.5v416h-65z" />
<glyph unicode="&#x128;" horiz-adv-x="307" d="M-5 763q36 79 102 79q24 0 70 -14t64 -14q25 0 44 32l54 -29q-33 -87 -103 -87q-22 0 -66 13.5t-59 13.5q-20 0 -31 -5.5t-27 -23.5zM32 0v81l33 3q15 2 22 8.5t7 24.5v460l-57 3v85h242v-81l-33 -3q-29 -3 -29 -32v-461l57 -3v-85h-242z" />
<glyph unicode="&#x129;" horiz-adv-x="296" d="M-32 631q36 79 102 79q24 0 70 -14t64 -14q25 0 44 32l54 -29q-33 -87 -103 -87q-21 0 -65 13.5t-60 13.5q-20 0 -31 -5.5t-27 -23.5zM33 0v76l33 3q29 3 29 32v278q0 17 -5.5 23t-19.5 6l-35 2v83h179v-420l57 -3v-80h-238z" />
<glyph unicode="&#x12a;" horiz-adv-x="307" d="M12 734v87h287v-87h-287zM32 0v81l33 3q15 2 22 8.5t7 24.5v460l-57 3v85h242v-81l-33 -3q-29 -3 -29 -32v-461l57 -3v-85h-242z" />
<glyph unicode="&#x12b;" horiz-adv-x="296" d="M-15 610v84h287v-84h-287zM33 0v76l33 3q29 3 29 32v278q0 17 -5.5 23t-19.5 6l-35 2v83h179v-420l57 -3v-80h-238z" />
<glyph unicode="&#x12c;" horiz-adv-x="307" d="M-8 846l67 28q31 -78 100 -78q37 0 59.5 18.5t39.5 59.5l66 -27q-42 -127 -169 -127q-128 0 -163 126zM32 0v81l33 3q15 2 22 8.5t7 24.5v460l-57 3v85h242v-81l-33 -3q-29 -3 -29 -32v-461l57 -3v-85h-242z" />
<glyph unicode="&#x12d;" horiz-adv-x="296" d="M-27 706l68 16q28 -84 94 -84q31 0 53.5 18.5t40.5 64.5l65 -15q-16 -68 -56.5 -106t-105.5 -38q-70 0 -110 41.5t-49 102.5zM33 0v76l33 3q29 3 29 32v278q0 17 -5.5 23t-19.5 6l-35 2v83h179v-420l57 -3v-80h-238z" />
<glyph unicode="&#x12e;" horiz-adv-x="307" d="M32 0v81l33 3q15 2 22 8.5t7 24.5v460l-57 3v85h242v-81l-33 -3q-29 -3 -29 -32v-461l57 -3v-85q-106 -41 -106 -97q0 -38 41 -38q22 0 47 11l22 -66q-50 -24 -99 -24q-60 0 -85.5 27.5t-25.5 68.5q0 40 22.5 64t64.5 47v7h-123z" />
<glyph unicode="&#x12f;" horiz-adv-x="296" d="M33 0v76l33 3q29 3 29 32v278q0 17 -5.5 23t-19.5 6l-35 2v83h179v-420l57 -3v-80q-117 -38 -117 -97q0 -38 41 -38q22 0 47 11l22 -66q-50 -24 -99 -24q-60 0 -85.5 27.5t-25.5 68.5q0 40 24 65t65 44v9h-110zM67 642q0 32 21 53.5t56 21.5q33 0 54.5 -21.5t21.5 -53.5 t-21.5 -52.5t-55.5 -20.5t-55 20.5t-21 52.5z" />
<glyph unicode="&#x130;" horiz-adv-x="307" d="M32 0v81l33 3q15 2 22 8.5t7 24.5v460l-57 3v85h242v-81l-33 -3q-29 -3 -29 -32v-461l57 -3v-85h-242zM89 793q0 28 19.5 47.5t49.5 19.5t49.5 -19.5t19.5 -47.5q0 -29 -19.5 -47.5t-49.5 -18.5q-31 0 -50 18.5t-19 47.5z" />
<glyph unicode="&#x131;" horiz-adv-x="296" d="M33 0v76l33 3q29 3 29 32v278q0 17 -5.5 23t-19.5 6l-35 2v83h179v-420l57 -3v-80h-238z" />
<glyph unicode="&#x132;" horiz-adv-x="781" d="M32 0v81l33 3q15 2 22 8.5t7 24.5v460l-57 3v85h242v-81l-33 -3q-29 -3 -29 -32v-461l57 -3v-85h-242zM335 29v175l102 7v-79q0 -15 4 -22t17 -12q21 -8 52 -8q40 0 56 21.5t16 69.5v395l-78 4v85h262v-81l-33 -3q-29 -3 -29 -31v-311q0 -71 -4 -105q-8 -70 -55 -108.5 t-134 -38.5q-102 0 -176 42z" />
<glyph unicode="&#x133;" horiz-adv-x="579" d="M33 0v76l33 3q29 3 29 32v278q0 17 -5.5 23t-19.5 6l-35 2v83h179v-420l57 -3v-80h-238zM67 642q0 32 21 53.5t56 21.5q33 0 54.5 -21.5t21.5 -53.5t-21.5 -52.5t-55.5 -20.5t-55 20.5t-21 52.5zM216 -179l36 83q39 -21 74 -21q30 0 44.5 20t14.5 68v418q0 16 -5.5 22 t-19.5 7l-35 2v83h179v-527q0 -41 -5.5 -71t-21 -59t-49 -44.5t-84.5 -15.5q-72 0 -128 35zM357 642q0 32 21 53.5t56 21.5q33 0 54.5 -21.5t21.5 -53.5t-21.5 -52.5t-55.5 -20.5t-55 20.5t-21 52.5z" />
<glyph unicode="&#x134;" horiz-adv-x="474" d="M28 29v175l102 7v-79q0 -15 4 -22t17 -12q21 -8 52 -8q40 0 56 21.5t16 69.5v395l-78 4v85h262v-81l-33 -3q-29 -3 -29 -31v-311q0 -71 -4 -105q-8 -70 -55 -108.5t-134 -38.5q-102 0 -176 42zM167 743l118 128q41 44 82 2l120 -129l-41 -35l-120 86l-118 -86z" />
<glyph unicode="&#x135;" horiz-adv-x="283" d="M-80 -179l36 83q39 -21 74 -21q30 0 44.5 20t14.5 68v418q0 16 -5.5 22t-19.5 7l-35 2v83h179v-527q0 -41 -5.5 -71t-21 -59t-49 -44.5t-84.5 -15.5q-72 0 -128 35zM-34 594l115 151q21 27 45 26t44 -28l113 -148l-41 -34l-118 104l-117 -103z" />
<glyph unicode="&#x136;" horiz-adv-x="622" d="M32 0v81l33 3q15 2 22 8.5t7 24.5v460l-57 3v85h240v-81l-33 -3q-29 -3 -29 -32v-220l204 248l-56 3v85h234v-81l-33 -3q-19 -2 -40 -28l-142 -174l177 -291l53 -3v-85h-256v81l31 3q30 3 15 32l-99 171l-88 -106v-93l57 -3v-85h-240zM220 -259l46 -22l86 135 q18 24 13 46.5t-37 28.5l-49 10z" />
<glyph unicode="&#x137;" horiz-adv-x="556" d="M33 0v76l33 3q15 2 22 8.5t7 24.5v487q0 16 -5.5 22t-19.5 7l-35 2v83h178v-433q55 5 96 34t56 76q11 33 -16 33l-38 2v78h207v-81l-48 -2q-13 -102 -88 -161l98 -176l61 -3v-80h-146l-114 208q-33 -9 -68 -14v-111h1l57 -3v-80h-238zM190 -259l46 -22l86 135 q18 24 13 46.5t-37 28.5l-49 10z" />
<glyph unicode="&#x138;" horiz-adv-x="556" d="M33 0v76l33 3q15 2 22 8.5t7 24.5v277q0 16 -5.5 22t-19.5 7l-35 2v83h178v-223q55 5 96 34t56 76q11 33 -16 33l-38 2v78h207v-81l-48 -2q-13 -102 -88 -161l98 -176l61 -3v-80h-146l-114 208q-33 -9 -68 -14v-111h1l57 -3v-80h-238z" />
<glyph unicode="&#x139;" horiz-adv-x="537" d="M32 0v81l33 3q29 3 29 28v465l-57 3v85h241v-81l-33 -3q-29 -3 -29 -32v-446h166q14 0 18.5 7.5t4.5 24.5v70l102 -7v-198h-475zM58 750l162 157l40 -33q23 -21 17 -41.5t-34 -36.5l-155 -87z" />
<glyph unicode="&#x13a;" horiz-adv-x="298" d="M31 0v76l33 3q29 3 29 32v493q0 22 -25 24l-35 2v83h179v-630l57 -3v-80h-238zM34 781l162 157l40 -33q23 -21 17 -41.5t-34 -36.5l-155 -87z" />
<glyph unicode="&#x13b;" horiz-adv-x="537" d="M32 0v81l33 3q29 3 29 28v465l-57 3v85h241v-81l-33 -3q-29 -3 -29 -32v-446h166q14 0 18.5 7.5t4.5 24.5v70l102 -7v-198h-475zM198 -259l46 -22l86 135q18 24 13 46.5t-37 28.5l-49 10z" />
<glyph unicode="&#x13c;" horiz-adv-x="298" d="M31 0v76l33 3q29 3 29 32v493q0 22 -25 24l-35 2v83h179v-630l57 -3v-80h-238zM63 -259l46 -22l86 135q18 24 13 46.5t-37 28.5l-49 10z" />
<glyph unicode="&#x13d;" horiz-adv-x="537" d="M32 0v81l33 3q29 3 29 28v465l-57 3v85h241v-81l-33 -3q-29 -3 -29 -32v-446h166q14 0 18.5 7.5t4.5 24.5v70l102 -7v-198h-475zM362 447v211l50 5q32 3 42.5 -16t1.5 -50l-46 -159z" />
<glyph unicode="&#x13e;" horiz-adv-x="378" d="M31 0v76l33 3q29 3 29 32v493q0 22 -25 24l-35 2v83h179v-630l57 -3v-80h-238zM279 502v211l50 5q32 3 42.5 -16t1.5 -50l-46 -159z" />
<glyph unicode="&#x13f;" horiz-adv-x="537" d="M32 0v81l33 3q29 3 29 28v465l-57 3v85h241v-81l-33 -3q-29 -3 -29 -32v-446h166q14 0 18.5 7.5t4.5 24.5v70l102 -7v-198h-475zM338 380q0 28 19.5 47.5t49.5 19.5t49.5 -19.5t19.5 -47.5q0 -29 -19.5 -47.5t-49.5 -18.5q-31 0 -50 18.5t-19 47.5z" />
<glyph unicode="&#x140;" horiz-adv-x="379" d="M31 0v76l33 3q29 3 29 32v493q0 22 -25 24l-35 2v83h179v-630l57 -3v-80h-238zM271 380q0 28 19.5 47.5t49.5 19.5t49.5 -19.5t19.5 -47.5q0 -29 -19.5 -47.5t-49.5 -18.5q-31 0 -50 18.5t-19 47.5z" />
<glyph unicode="&#x141;" horiz-adv-x="537" d="M5 295l89 48v234l-57 3v85h241v-81l-33 -3q-29 -3 -29 -32v-155l185 97l24 -88l-209 -108v-192h166q14 0 18.5 7.5t4.5 24.5v70l102 -7v-198h-475v81l33 3q29 3 29 28v132l-66 -36z" />
<glyph unicode="&#x142;" horiz-adv-x="328" d="M10 330l98 67v207q0 22 -25 24l-35 2v83h179v-253l72 52l33 -87l-105 -73v-269l57 -3v-80h-238v76l33 3q29 3 29 32v179l-65 -47z" />
<glyph unicode="&#x143;" horiz-adv-x="705" d="M32 0v81l36 3q26 2 26 28v465l-57 3v85h180l283 -459h2v371l-66 3v85h244v-81l-36 -3q-24 -2 -24 -31v-550h-117l-289 466h-2v-378l65 -3v-85h-245zM269 750l162 157l40 -33q23 -21 17 -41.5t-34 -36.5l-155 -87z" />
<glyph unicode="&#x144;" horiz-adv-x="600" d="M27 423v80h169v-65q26 37 69 58.5t93 21.5q76 0 117.5 -43.5t41.5 -130.5v-261l57 -3v-80h-238v76l33 3q15 2 22 8.5t7 24.5v206q0 55 -17 81.5t-65 26.5q-47 0 -75 -30t-28 -71v-242l57 -3v-80h-238v76l33 3q15 2 22 8.5t7 24.5v277q0 30 -25 31zM217 594l116 192 l47 -22q29 -16 28.5 -36t-24.5 -43l-128 -124z" />
<glyph unicode="&#x145;" horiz-adv-x="705" d="M32 0v81l36 3q26 2 26 28v465l-57 3v85h180l283 -459h2v371l-66 3v85h244v-81l-36 -3q-24 -2 -24 -31v-550h-117l-289 466h-2v-378l65 -3v-85h-245zM254 -259l46 -22l86 135q18 24 13 46.5t-37 28.5l-49 10z" />
<glyph unicode="&#x146;" horiz-adv-x="600" d="M27 423v80h169v-65q26 37 69 58.5t93 21.5q76 0 117.5 -43.5t41.5 -130.5v-261l57 -3v-80h-238v76l33 3q15 2 22 8.5t7 24.5v206q0 55 -17 81.5t-65 26.5q-47 0 -75 -30t-28 -71v-242l57 -3v-80h-238v76l33 3q15 2 22 8.5t7 24.5v277q0 30 -25 31zM211 -259l46 -22 l86 135q18 24 13 46.5t-37 28.5l-49 10z" />
<glyph unicode="&#x147;" horiz-adv-x="705" d="M32 0v81l36 3q26 2 26 28v465l-57 3v85h180l283 -459h2v371l-66 3v85h244v-81l-36 -3q-24 -2 -24 -31v-550h-117l-289 466h-2v-378l65 -3v-85h-245zM191 858l41 35l120 -86l118 86l41 -34l-118 -128q-41 -44 -82 -2z" />
<glyph unicode="&#x148;" horiz-adv-x="600" d="M27 423v80h169v-65q26 37 69 58.5t93 21.5q76 0 117.5 -43.5t41.5 -130.5v-261l57 -3v-80h-238v76l33 3q15 2 22 8.5t7 24.5v206q0 55 -17 81.5t-65 26.5q-47 0 -75 -30t-28 -71v-242l57 -3v-80h-238v76l33 3q15 2 22 8.5t7 24.5v277q0 30 -25 31zM138 738l41 34 l118 -104l117 103l41 -32l-115 -146q-21 -27 -45 -26t-44 28z" />
<glyph unicode="&#x149;" horiz-adv-x="600" d="M-73 481l34 210l48 -2q30 -1 37.5 -22t-6.5 -46l-69 -155zM27 423v80h169v-65q26 37 69 58.5t93 21.5q76 0 117.5 -43.5t41.5 -130.5v-261l57 -3v-80h-238v76l33 3q15 2 22 8.5t7 24.5v206q0 55 -17 81.5t-65 26.5q-47 0 -75 -30t-28 -71v-242l57 -3v-80h-238v76l33 3 q15 2 22 8.5t7 24.5v277q0 30 -25 31z" />
<glyph unicode="&#x14a;" horiz-adv-x="705" d="M32 0v81l36 3q26 2 26 28v465l-57 3v85h180l280 -453h2v365l-66 3v85h247v-81l-36 -3q-24 -2 -24 -31v-572q0 -98 -33.5 -146.5t-124.5 -48.5q-92 0 -169 45l44 87q52 -32 97 -32q35 0 49.5 21.5t14.5 72.5v31l-282 454h-2v-374l65 -3v-85h-247z" />
<glyph unicode="&#x14b;" horiz-adv-x="592" d="M27 423v80h169v-65q26 37 69 58.5t93 21.5q76 0 117.5 -43.5t41.5 -130.5v-368q0 -41 -5.5 -71t-21 -59t-49 -44.5t-84.5 -15.5q-72 0 -128 35l36 83q39 -21 74 -21q30 0 44.5 20t14.5 68v347q0 55 -17 81.5t-65 26.5q-47 0 -75 -30t-28 -71v-242l57 -3v-80h-238v76l33 3 q15 2 22 8.5t7 24.5v277q0 30 -25 31z" />
<glyph unicode="&#x14c;" horiz-adv-x="664" d="M40 331q0 92 27 161.5t71.5 108t95.5 57.5t107 19q123 0 203 -84t80 -262q0 -167 -79.5 -255.5t-214.5 -88.5q-136 0 -213 88t-77 256zM165 336q0 -248 172 -248q46 0 79 20t50.5 55.5t25.5 76t8 88.5q0 44 -7 82.5t-23.5 78t-51 62.5t-83.5 23q-61 0 -100.5 -36 t-54.5 -87t-15 -115zM192 734v87h287v-87h-287z" />
<glyph unicode="&#x14d;" horiz-adv-x="528" d="M33 252q0 74 22 128.5t59 83t76 41.5t81 13q27 0 52 -4t58 -19.5t56.5 -41t40 -74t16.5 -114.5q0 -138 -67 -209t-172 -71q-104 0 -163 67.5t-59 199.5zM118 610v84h287v-84h-287zM154 266q0 -40 4 -70t14.5 -60.5t33.5 -46.5t57 -16q109 0 109 176q0 89 -24.5 135 t-82.5 46q-57 0 -84 -44t-27 -120z" />
<glyph unicode="&#x14e;" horiz-adv-x="664" d="M40 331q0 92 27 161.5t71.5 108t95.5 57.5t107 19q123 0 203 -84t80 -262q0 -167 -79.5 -255.5t-214.5 -88.5q-136 0 -213 88t-77 256zM165 336q0 -248 172 -248q46 0 79 20t50.5 55.5t25.5 76t8 88.5q0 44 -7 82.5t-23.5 78t-51 62.5t-83.5 23q-61 0 -100.5 -36 t-54.5 -87t-15 -115zM169 846l67 28q31 -78 100 -78q37 0 59.5 18.5t39.5 59.5l66 -27q-42 -127 -169 -127q-128 0 -163 126z" />
<glyph unicode="&#x14f;" horiz-adv-x="528" d="M33 252q0 74 22 128.5t59 83t76 41.5t81 13q27 0 52 -4t58 -19.5t56.5 -41t40 -74t16.5 -114.5q0 -138 -67 -209t-172 -71q-104 0 -163 67.5t-59 199.5zM100 706l68 16q28 -84 94 -84q31 0 53.5 18.5t40.5 64.5l65 -15q-16 -68 -56.5 -106t-105.5 -38q-70 0 -110 41.5 t-49 102.5zM154 266q0 -40 4 -70t14.5 -60.5t33.5 -46.5t57 -16q109 0 109 176q0 89 -24.5 135t-82.5 46q-57 0 -84 -44t-27 -120z" />
<glyph unicode="&#x150;" horiz-adv-x="664" d="M40 331q0 92 27 161.5t71.5 108t95.5 57.5t107 19q123 0 203 -84t80 -262q0 -167 -79.5 -255.5t-214.5 -88.5q-136 0 -213 88t-77 256zM165 336q0 -248 172 -248q46 0 79 20t50.5 55.5t25.5 76t8 88.5q0 44 -7 82.5t-23.5 78t-51 62.5t-83.5 23q-61 0 -100.5 -36 t-54.5 -87t-15 -115zM180 744l165 153l40 -34q22 -22 15.5 -42t-34.5 -36l-157 -83zM388 744l165 153l40 -34q22 -22 15.5 -42t-34.5 -36l-157 -83z" />
<glyph unicode="&#x151;" horiz-adv-x="528" d="M33 252q0 74 22 128.5t59 83t76 41.5t81 13q27 0 52 -4t58 -19.5t56.5 -41t40 -74t16.5 -114.5q0 -138 -67 -209t-172 -71q-104 0 -163 67.5t-59 199.5zM125 597l116 192l43 -20q29 -16 28.5 -36t-24.5 -43l-124 -126zM154 266q0 -40 4 -70t14.5 -60.5t33.5 -46.5t57 -16 q109 0 109 176q0 89 -24.5 135t-82.5 46q-57 0 -84 -44t-27 -120zM295 594l116 192l43 -20q29 -16 28.5 -36t-24.5 -43l-124 -126z" />
<glyph unicode="&#x152;" horiz-adv-x="886" d="M40 332q0 74 18 134t47.5 98.5t69.5 64.5t82.5 37t87.5 11q46 0 99 -12h390v-166l-102 -7v40q0 17 -5 24t-24 7h-148v-171h231v-102h-231v-187h161q18 0 23 7.5t5 24.5v50l102 -7v-178h-402q-54 -13 -112 -13q-139 0 -215.5 88t-76.5 257zM165 337q0 -38 4.5 -71t17 -67 t32.5 -57.5t52.5 -38.5t75.5 -15q51 0 86 15v452q-46 20 -88 20q-91 0 -135.5 -69t-44.5 -169z" />
<glyph unicode="&#x153;" horiz-adv-x="807" d="M33 251q0 74 22 129t58 83.5t74 41.5t79 13q120 0 164 -91q57 91 177 91q75 0 119 -36.5t44 -102.5q0 -55 -27 -93t-72.5 -56t-90.5 -25t-95 -7q3 -54 33.5 -86.5t90.5 -32.5q61 0 125 45l38 -81q-20 -18 -67.5 -37t-108.5 -19q-129 0 -178 85q-49 -86 -167 -86 q-101 0 -159.5 66.5t-58.5 198.5zM154 265q0 -40 4 -70t15 -60t33.5 -46t56.5 -16q55 0 82 47t27 129q0 181 -107 181q-56 0 -83.5 -44.5t-27.5 -120.5zM481 281q34 -1 71.5 5.5t72.5 29.5t35 58q0 27 -16.5 43t-43.5 16q-55 0 -85.5 -45t-33.5 -107z" />
<glyph unicode="&#x154;" horiz-adv-x="626" d="M32 0v81l33 3q29 3 29 28v465l-57 3v85h273q116 0 178 -43t62 -141q0 -68 -35.5 -112t-84.5 -64q36 -13 57 -61l72 -157l57 -2v-85h-247v81l29 3q32 4 19 32l-47 100q-11 25 -24.5 35.5t-38.5 10.5h-91v-174l65 -3v-85h-249zM204 750l162 157l40 -33q23 -21 17 -41.5 t-34 -36.5l-155 -87zM216 357h87q123 0 123 110q0 63 -32.5 82t-104.5 19h-73v-211z" />
<glyph unicode="&#x155;" horiz-adv-x="462" d="M28 422v81h169v-75q18 39 56 64.5t86 25.5q51 0 96 -22v-149l-93 -7v46q0 20 -10 25q-11 5 -27 5q-40 0 -65.5 -28.5t-25.5 -72.5v-232l87 -4v-79h-268v76l33 3q15 2 22 8.5t7 24.5v277q0 16 -5.5 22.5t-19.5 7.5zM173 594l116 192l47 -22q29 -16 28.5 -36t-24.5 -43 l-128 -124z" />
<glyph unicode="&#x156;" horiz-adv-x="626" d="M32 0v81l33 3q29 3 29 28v465l-57 3v85h273q116 0 178 -43t62 -141q0 -68 -35.5 -112t-84.5 -64q36 -13 57 -61l72 -157l57 -2v-85h-247v81l29 3q32 4 19 32l-47 100q-11 25 -24.5 35.5t-38.5 10.5h-91v-174l65 -3v-85h-249zM216 357h87q123 0 123 110q0 63 -32.5 82 t-104.5 19h-73v-211zM224 -259l46 -22l86 135q18 24 13 46.5t-37 28.5l-49 10z" />
<glyph unicode="&#x157;" horiz-adv-x="462" d="M28 422v81h169v-75q18 39 56 64.5t86 25.5q51 0 96 -22v-149l-93 -7v46q0 20 -10 25q-11 5 -27 5q-40 0 -65.5 -28.5t-25.5 -72.5v-232l87 -4v-79h-268v76l33 3q15 2 22 8.5t7 24.5v277q0 16 -5.5 22.5t-19.5 7.5zM79 -259l46 -22l86 135q18 24 13 46.5t-37 28.5l-49 10z " />
<glyph unicode="&#x158;" horiz-adv-x="626" d="M32 0v81l33 3q29 3 29 28v465l-57 3v85h273q116 0 178 -43t62 -141q0 -68 -35.5 -112t-84.5 -64q36 -13 57 -61l72 -157l57 -2v-85h-247v81l29 3q32 4 19 32l-47 100q-11 25 -24.5 35.5t-38.5 10.5h-91v-174l65 -3v-85h-249zM119 858l41 35l120 -86l118 86l41 -34 l-118 -128q-41 -44 -82 -2zM216 357h87q123 0 123 110q0 63 -32.5 82t-104.5 19h-73v-211z" />
<glyph unicode="&#x159;" horiz-adv-x="462" d="M28 422v81h169v-75q18 39 56 64.5t86 25.5q51 0 96 -22v-149l-93 -7v46q0 20 -10 25q-11 5 -27 5q-40 0 -65.5 -28.5t-25.5 -72.5v-232l87 -4v-79h-268v76l33 3q15 2 22 8.5t7 24.5v277q0 16 -5.5 22.5t-19.5 7.5zM68 738l41 34l118 -104l117 103l41 -32l-115 -146 q-21 -27 -45 -26t-44 28z" />
<glyph unicode="&#x15a;" horiz-adv-x="522" d="M43 481q0 91 63.5 143.5t168.5 52.5q100 0 188 -41v-150l-102 -7v58q0 15 -4 22t-17 11q-25 8 -65 8q-48 0 -76.5 -21t-28.5 -65q0 -18 7.5 -32.5t16.5 -23.5t30.5 -18.5t35 -14t43.5 -13.5q41 -13 68.5 -26t57.5 -35.5t45.5 -57t15.5 -80.5q0 -96 -67.5 -150t-174.5 -54 q-114 0 -202 41v158l102 7v-61q0 -15 4 -22t17 -11q28 -9 72 -9q120 0 120 96q0 18 -7 32.5t-17 24t-28.5 18t-33.5 13.5t-41 12q-43 12 -72.5 24.5t-59 34.5t-44.5 56t-15 80zM184 750l162 157l40 -33q23 -21 17 -41.5t-34 -36.5l-155 -87z" />
<glyph unicode="&#x15b;" horiz-adv-x="451" d="M44 18v139l90 7v-48q0 -25 23 -34q27 -10 66 -10q79 0 79 61q0 22 -14.5 36t-28.5 19t-48 14q-5 1 -7 2q-35 9 -56.5 17.5t-47.5 25t-38.5 44.5t-12.5 68q0 75 55 117t138 42q84 0 166 -40v-120l-90 -7v42q0 25 -23 34q-24 9 -58 9t-54.5 -15.5t-20.5 -44.5 q0 -16 7.5 -28.5t23.5 -21t28.5 -13t35.5 -10.5q31 -9 48 -14.5t42.5 -18.5t39 -27.5t24 -39.5t10.5 -56q0 -75 -54.5 -117.5t-138.5 -42.5q-122 0 -184 31zM160 594l116 192l47 -22q29 -16 28.5 -36t-24.5 -43l-128 -124z" />
<glyph unicode="&#x15c;" horiz-adv-x="522" d="M43 481q0 91 63.5 143.5t168.5 52.5q100 0 188 -41v-150l-102 -7v58q0 15 -4 22t-17 11q-25 8 -65 8q-48 0 -76.5 -21t-28.5 -65q0 -18 7.5 -32.5t16.5 -23.5t30.5 -18.5t35 -14t43.5 -13.5q41 -13 68.5 -26t57.5 -35.5t45.5 -57t15.5 -80.5q0 -96 -67.5 -150t-174.5 -54 q-114 0 -202 41v158l102 7v-61q0 -15 4 -22t17 -11q28 -9 72 -9q120 0 120 96q0 18 -7 32.5t-17 24t-28.5 18t-33.5 13.5t-41 12q-43 12 -72.5 24.5t-59 34.5t-44.5 56t-15 80zM114 742l118 128q41 44 82 2l120 -129l-41 -35l-120 86l-118 -86z" />
<glyph unicode="&#x15d;" horiz-adv-x="451" d="M44 18v139l90 7v-48q0 -25 23 -34q27 -10 66 -10q79 0 79 61q0 22 -14.5 36t-28.5 19t-48 14q-5 1 -7 2q-35 9 -56.5 17.5t-47.5 25t-38.5 44.5t-12.5 68q0 75 55 117t138 42q84 0 166 -40v-120l-90 -7v42q0 25 -23 34q-24 9 -58 9t-54.5 -15.5t-20.5 -44.5 q0 -16 7.5 -28.5t23.5 -21t28.5 -13t35.5 -10.5q31 -9 48 -14.5t42.5 -18.5t39 -27.5t24 -39.5t10.5 -56q0 -75 -54.5 -117.5t-138.5 -42.5q-122 0 -184 31zM78 594l115 151q21 27 45 26t44 -28l113 -148l-41 -34l-118 104l-117 -103z" />
<glyph unicode="&#x15e;" horiz-adv-x="522" d="M43 481q0 91 63.5 143.5t168.5 52.5q100 0 188 -41v-150l-102 -7v58q0 15 -4 22t-17 11q-25 8 -65 8q-48 0 -76.5 -21t-28.5 -65q0 -18 7.5 -32.5t16.5 -23.5t30.5 -18.5t35 -14t43.5 -13.5q41 -13 68.5 -26t57.5 -35.5t45.5 -57t15.5 -80.5q0 -88 -56.5 -140.5 t-148.5 -61.5l-13 -52q42 -3 67.5 -24t25.5 -58q0 -50 -36.5 -73.5t-85.5 -23.5t-90 18l16 52q39 -13 67 -13q48 0 48 37q0 38 -88 38l31 97q-102 3 -181 41v158l102 7v-61q0 -15 4 -22t17 -11q28 -9 72 -9q120 0 120 96q0 18 -7 32.5t-17 24t-28.5 18t-33.5 13.5t-41 12 q-43 12 -72.5 24.5t-59 34.5t-44.5 56t-15 80z" />
<glyph unicode="&#x15f;" horiz-adv-x="451" d="M44 18v139l90 7v-48q0 -25 23 -34q27 -10 66 -10q79 0 79 61q0 22 -14.5 36t-28.5 19t-48 14q-5 1 -7 2q-35 9 -56.5 17.5t-47.5 25t-38.5 44.5t-12.5 68q0 75 55 117t138 42q84 0 166 -40v-120l-90 -7v42q0 25 -23 34q-24 9 -58 9t-54.5 -15.5t-20.5 -44.5 q0 -16 7.5 -28.5t23.5 -21t28.5 -13t35.5 -10.5q31 -9 48 -14.5t42.5 -18.5t39 -27.5t24 -39.5t10.5 -56q0 -69 -47.5 -111t-121.5 -48l-13 -51q42 -3 67.5 -24t25.5 -58q0 -50 -36.5 -73.5t-85.5 -23.5t-90 18l16 52q39 -13 67 -13q48 0 48 37q0 38 -88 38l31 98 q-102 5 -150 30z" />
<glyph unicode="&#x160;" horiz-adv-x="522" d="M43 481q0 91 63.5 143.5t168.5 52.5q100 0 188 -41v-150l-102 -7v58q0 15 -4 22t-17 11q-25 8 -65 8q-48 0 -76.5 -21t-28.5 -65q0 -18 7.5 -32.5t16.5 -23.5t30.5 -18.5t35 -14t43.5 -13.5q41 -13 68.5 -26t57.5 -35.5t45.5 -57t15.5 -80.5q0 -96 -67.5 -150t-174.5 -54 q-114 0 -202 41v158l102 7v-61q0 -15 4 -22t17 -11q28 -9 72 -9q120 0 120 96q0 18 -7 32.5t-17 24t-28.5 18t-33.5 13.5t-41 12q-43 12 -72.5 24.5t-59 34.5t-44.5 56t-15 80zM107 858l41 35l120 -86l118 86l41 -34l-118 -128q-41 -44 -82 -2z" />
<glyph unicode="&#x161;" horiz-adv-x="451" d="M44 18v139l90 7v-48q0 -25 23 -34q27 -10 66 -10q79 0 79 61q0 22 -14.5 36t-28.5 19t-48 14q-5 1 -7 2q-35 9 -56.5 17.5t-47.5 25t-38.5 44.5t-12.5 68q0 75 55 117t138 42q84 0 166 -40v-120l-90 -7v42q0 25 -23 34q-24 9 -58 9t-54.5 -15.5t-20.5 -44.5 q0 -16 7.5 -28.5t23.5 -21t28.5 -13t35.5 -10.5q31 -9 48 -14.5t42.5 -18.5t39 -27.5t24 -39.5t10.5 -56q0 -75 -54.5 -117.5t-138.5 -42.5q-122 0 -184 31zM76 738l41 34l118 -104l117 103l41 -32l-115 -146q-21 -27 -45 -26t-44 28z" />
<glyph unicode="&#x162;" horiz-adv-x="553" d="M15 495v170h523v-170l-102 -7v40q0 17 -5 24t-24 7h-68v-471l79 -3v-85h-115l-16 -63q42 -3 67.5 -24t25.5 -58q0 -50 -36.5 -73.5t-85.5 -23.5t-90 18l16 52q39 -13 67 -13q48 0 48 37q0 38 -88 38l35 110h-110v81l53 3q29 3 29 28v447h-78q-23 0 -23 -31v-40z" />
<glyph unicode="&#x163;" horiz-adv-x="377" d="M19 419l10 73q47 4 71 33.5t44 83.5h65v-106h133l-10 -84h-123v-263q0 -44 16 -61.5t49 -17.5q34 0 68 21l30 -77q-48 -33 -125 -35l-12 -49q42 -3 67.5 -24t25.5 -58q0 -50 -36.5 -73.5t-85.5 -23.5t-90 18l16 52q39 -13 67 -13q48 0 48 37q0 38 -88 38l32 101 q-29 6 -49.5 19.5t-30.5 27.5t-15 38t-5.5 37t-0.5 39v267h-71z" />
<glyph unicode="&#x164;" horiz-adv-x="553" d="M15 495v170h523v-170l-102 -7v47q0 17 -5 24t-24 7h-68v-478l79 -3v-85h-282v81l53 3q29 3 29 28v454h-78q-23 0 -23 -31v-47zM120 858l41 35l120 -86l118 86l41 -34l-118 -128q-41 -44 -82 -2z" />
<glyph unicode="&#x165;" horiz-adv-x="377" d="M19 419l10 73q47 4 71 33.5t44 83.5h65v-106h133l-10 -84h-123v-263q0 -44 16 -61.5t49 -17.5q34 0 68 21l30 -77q-50 -35 -127 -35q-45 0 -76 11.5t-46 25.5t-23 41t-9 42.5t-1 45.5v267h-71zM272 558v211l50 5q32 3 42.5 -16t1.5 -50l-46 -159z" />
<glyph unicode="&#x166;" horiz-adv-x="553" d="M15 495v170h523v-170l-102 -7v40q0 17 -5 24t-24 7h-68v-197h124v-90h-124v-184l79 -3v-85h-282v81l53 3q29 3 29 28v160h-125v90h125v197h-78q-23 0 -23 -31v-40z" />
<glyph unicode="&#x167;" horiz-adv-x="377" d="M19 419l10 73q47 4 71 33.5t44 83.5h65v-106h133l-10 -84h-123v-96h120v-84h-120v-83q0 -44 16 -61.5t49 -17.5q34 0 68 21l30 -77q-50 -35 -127 -35q-45 0 -76 11.5t-46 25.5t-23 41t-9 42.5t-1 45.5v87h-70v84h70v96h-71z" />
<glyph unicode="&#x168;" horiz-adv-x="659" d="M22 580v85h242v-81l-33 -3q-16 -2 -23 -8.5t-7 -24.5v-332q0 -70 33.5 -98.5t97.5 -28.5q61 0 95.5 31t34.5 91v366l-58 3v85h237v-81l-33 -3q-29 -3 -29 -30v-357q0 -97 -68 -152t-183 -55q-125 0 -186.5 53.5t-61.5 169.5v367zM171 763q36 79 102 79q24 0 70 -14 t64 -14q25 0 44 32l54 -29q-33 -87 -103 -87q-22 0 -66 13.5t-59 13.5q-20 0 -31 -5.5t-27 -23.5z" />
<glyph unicode="&#x169;" horiz-adv-x="591" d="M27 421v82h176v-317q0 -53 15 -80t59 -27q50 0 78.5 29t28.5 70v211q0 16 -5.5 22.5t-19.5 7.5l-32 2v82h176v-392q0 -16 5 -21.5t20 -7.5l35 -3v-79h-162v65q-55 -78 -162 -78q-155 0 -155 173v231q0 27 -25 28zM109 631q36 79 102 79q24 0 70 -14t64 -14q25 0 44 32 l54 -29q-33 -87 -103 -87q-22 0 -66 13.5t-59 13.5q-20 0 -31 -5.5t-27 -23.5z" />
<glyph unicode="&#x16a;" horiz-adv-x="659" d="M22 580v85h242v-81l-33 -3q-16 -2 -23 -8.5t-7 -24.5v-332q0 -70 33.5 -98.5t97.5 -28.5q61 0 95.5 31t34.5 91v366l-58 3v85h237v-81l-33 -3q-29 -3 -29 -30v-357q0 -97 -68 -152t-183 -55q-125 0 -186.5 53.5t-61.5 169.5v367zM188 734v87h287v-87h-287z" />
<glyph unicode="&#x16b;" horiz-adv-x="591" d="M27 421v82h176v-317q0 -53 15 -80t59 -27q50 0 78.5 29t28.5 70v211q0 16 -5.5 22.5t-19.5 7.5l-32 2v82h176v-392q0 -16 5 -21.5t20 -7.5l35 -3v-79h-162v65q-55 -78 -162 -78q-155 0 -155 173v231q0 27 -25 28zM123 610v84h287v-84h-287z" />
<glyph unicode="&#x16c;" horiz-adv-x="659" d="M22 580v85h242v-81l-33 -3q-16 -2 -23 -8.5t-7 -24.5v-332q0 -70 33.5 -98.5t97.5 -28.5q61 0 95.5 31t34.5 91v366l-58 3v85h237v-81l-33 -3q-29 -3 -29 -30v-357q0 -97 -68 -152t-183 -55q-125 0 -186.5 53.5t-61.5 169.5v367zM168 846l67 28q31 -78 100 -78 q37 0 59.5 18.5t39.5 59.5l66 -27q-42 -127 -169 -127q-128 0 -163 126z" />
<glyph unicode="&#x16d;" horiz-adv-x="977" d="M413 421v82h176v-317q0 -53 15 -80t59 -27q50 0 78.5 29t28.5 70v211q0 16 -5.5 22.5t-19.5 7.5l-32 2v82h176v-392q0 -16 5 -21.5t20 -7.5l35 -3v-79h-162v65q-55 -78 -162 -78q-155 0 -155 173v231q0 27 -25 28zM499 706l68 16q28 -84 94 -84q31 0 53.5 18.5t40.5 64.5 l65 -15q-16 -68 -56.5 -106t-105.5 -38q-70 0 -110 41.5t-49 102.5z" />
<glyph unicode="&#x16e;" horiz-adv-x="659" d="M22 580v85h242v-81l-33 -3q-16 -2 -23 -8.5t-7 -24.5v-332q0 -70 33.5 -98.5t97.5 -28.5q61 0 95.5 31t34.5 91v366l-58 3v85h237v-81l-33 -3q-29 -3 -29 -30v-357q0 -97 -68 -152t-183 -55q-125 0 -186.5 53.5t-61.5 169.5v367zM240 793q0 41 26.5 67t68.5 26 q43 0 68 -25.5t25 -62.5q0 -43 -26 -70.5t-70 -27.5q-43 0 -67.5 26.5t-24.5 66.5zM299 793q0 -42 36 -42q17 0 26.5 12t9.5 30q0 41 -36 41t-36 -41z" />
<glyph unicode="&#x16f;" horiz-adv-x="591" d="M27 421v82h176v-317q0 -53 15 -80t59 -27q50 0 78.5 29t28.5 70v211q0 16 -5.5 22.5t-19.5 7.5l-32 2v82h176v-392q0 -16 5 -21.5t20 -7.5l35 -3v-79h-162v65q-55 -78 -162 -78q-155 0 -155 173v231q0 27 -25 28zM182 657q0 41 26.5 67t68.5 26q43 0 68 -25.5t25 -62.5 q0 -43 -26 -70.5t-70 -27.5q-43 0 -67.5 26.5t-24.5 66.5zM241 657q0 -42 36 -42q17 0 26.5 12t9.5 30q0 41 -36 41t-36 -41z" />
<glyph unicode="&#x170;" horiz-adv-x="659" d="M22 580v85h242v-81l-33 -3q-16 -2 -23 -8.5t-7 -24.5v-332q0 -70 33.5 -98.5t97.5 -28.5q61 0 95.5 31t34.5 91v366l-58 3v85h237v-81l-33 -3q-29 -3 -29 -30v-357q0 -97 -68 -152t-183 -55q-125 0 -186.5 53.5t-61.5 169.5v367zM169 744l165 153l40 -34q22 -22 15.5 -42 t-34.5 -36l-157 -83zM377 744l165 153l40 -34q22 -22 15.5 -42t-34.5 -36l-157 -83z" />
<glyph unicode="&#x171;" horiz-adv-x="591" d="M27 421v82h176v-317q0 -53 15 -80t59 -27q50 0 78.5 29t28.5 70v211q0 16 -5.5 22.5t-19.5 7.5l-32 2v82h176v-392q0 -16 5 -21.5t20 -7.5l35 -3v-79h-162v65q-55 -78 -162 -78q-155 0 -155 173v231q0 27 -25 28zM139 597l116 192l43 -20q29 -16 28.5 -36t-24.5 -43 l-124 -126zM309 594l116 192l43 -20q29 -16 28.5 -36t-24.5 -43l-124 -126z" />
<glyph unicode="&#x172;" horiz-adv-x="659" d="M22 580v85h242v-81l-33 -3q-16 -2 -23 -8.5t-7 -24.5v-332q0 -70 33.5 -98.5t97.5 -28.5q61 0 95.5 31t34.5 91v366l-58 3v85h237v-81l-33 -3q-29 -3 -29 -30v-357q0 -119 -97 -172q-108 -59 -108 -119q0 -38 41 -38q22 0 47 11l22 -66q-50 -24 -99 -24q-60 0 -85.5 27.5 t-25.5 68.5q0 62 67 105h-13q-125 0 -186.5 53.5t-61.5 169.5v367z" />
<glyph unicode="&#x173;" horiz-adv-x="591" d="M27 421v82h176v-317q0 -53 15 -80t59 -27q50 0 78.5 29t28.5 70v211q0 16 -5.5 22.5t-19.5 7.5l-32 2v82h176v-392q0 -16 5 -21.5t20 -7.5l35 -3v-79q-107 -41 -107 -97q0 -38 41 -38q22 0 47 11l22 -66q-50 -24 -99 -24q-60 0 -85.5 27.5t-25.5 66.5q0 75 91 115v8h-46 v62q-55 -78 -162 -78q-155 0 -155 173v231q0 27 -25 28z" />
<glyph unicode="&#x174;" horiz-adv-x="885" d="M5 580v85h248v-81l-33 -3q-37 -3 -30 -35l87 -386h4l104 452h129l108 -454h2l85 418l-54 4v85h225v-81l-33 -3q-26 -2 -33 -36l-126 -545h-137l-105 445h-3l-102 -445h-141l-138 577zM285 742l118 128q41 44 82 2l120 -129l-41 -35l-120 86l-118 -86z" />
<glyph unicode="&#x175;" horiz-adv-x="795" d="M10 426v77h229v-80l-56 -3l69 -307h2l110 370h97l104 -372h2l68 309l-51 3v80h201v-77l-33 -2q-20 -2 -27 -24l-95 -400h-144l-82 298h-3l-85 -298h-147l-101 399q-5 14 -10.5 19t-18.5 6zM253 594l115 151q21 27 45 26t44 -28l113 -148l-41 -34l-118 104l-117 -103z" />
<glyph unicode="&#x176;" horiz-adv-x="570" d="M5 580v85h244v-81l-30 -3q-16 -1 -20.5 -12t3.5 -27l85 -174h4l109 208l-50 4v85h215v-81l-30 -3q-19 -2 -34 -30l-157 -297v-166l78 -3v-85h-282v81l53 3q29 2 29 28v142l-170 323zM125 742l118 128q41 44 82 2l120 -129l-41 -35l-120 86l-118 -86z" />
<glyph unicode="&#x177;" horiz-adv-x="573" d="M27 421v82h176v-287q0 -53 15 -80t59 -27q50 0 78.5 29t28.5 70v181q0 17 -5.5 23.5t-19.5 6.5l-32 2v82h176v-484q0 -121 -58.5 -177t-173.5 -56q-122 0 -188 33v139l95 8v-48q0 -27 23 -36q27 -10 71 -10q129 0 129 147v76q-55 -78 -162 -78q-155 0 -155 173v201 q0 27 -25 28zM108 594l115 151q21 27 45 26t44 -28l113 -148l-41 -34l-118 104l-117 -103z" />
<glyph unicode="&#x178;" horiz-adv-x="570" d="M5 580v85h244v-81l-30 -3q-16 -1 -20.5 -12t3.5 -27l85 -174h4l109 208l-50 4v85h215v-81l-30 -3q-19 -2 -34 -30l-157 -297v-166l78 -3v-85h-282v81l53 3q29 2 29 28v142l-170 323zM128 787q0 28 19.5 47.5t49.5 19.5t49.5 -19.5t19.5 -47.5q0 -29 -19.5 -47.5 t-49.5 -18.5q-31 0 -50 18.5t-19 47.5zM328 787q0 28 19.5 47.5t49.5 19.5t49.5 -19.5t19.5 -47.5q0 -29 -19.5 -47.5t-49.5 -18.5q-31 0 -50 18.5t-19 47.5z" />
<glyph unicode="&#x179;" horiz-adv-x="533" d="M33 0v83l302 487h-166q-27 0 -27 -31v-40l-102 7v159h437v-81l-305 -489h194q25 0 25 32v70l102 -7v-190h-460zM178 750l162 157l40 -33q23 -21 17 -41.5t-34 -36.5l-155 -87z" />
<glyph unicode="&#x17a;" horiz-adv-x="483" d="M40 0v76l257 338h-126q-21 0 -26.5 -8t-5.5 -26v-35l-94 7v151h398v-68l-260 -345h142q29 0 29 34v42l94 -7v-159h-408zM163 594l116 192l47 -22q29 -16 28.5 -36t-24.5 -43l-128 -124z" />
<glyph unicode="&#x17b;" horiz-adv-x="533" d="M33 0v83l302 487h-166q-27 0 -27 -31v-40l-102 7v159h437v-81l-305 -489h194q25 0 25 32v70l102 -7v-190h-460zM189 793q0 28 19.5 47.5t49.5 19.5t49.5 -19.5t19.5 -47.5q0 -29 -19.5 -47.5t-49.5 -18.5q-31 0 -50 18.5t-19 47.5z" />
<glyph unicode="&#x17c;" horiz-adv-x="483" d="M40 0v76l257 338h-126q-21 0 -26.5 -8t-5.5 -26v-35l-94 7v151h398v-68l-260 -345h142q29 0 29 34v42l94 -7v-159h-408zM168 647q0 28 19.5 47.5t49.5 19.5t49.5 -19.5t19.5 -47.5q0 -29 -19.5 -47.5t-49.5 -18.5q-31 0 -50 18.5t-19 47.5z" />
<glyph unicode="&#x17d;" horiz-adv-x="533" d="M33 0v83l302 487h-166q-27 0 -27 -31v-40l-102 7v159h437v-81l-305 -489h194q25 0 25 32v70l102 -7v-190h-460zM105 858l41 35l120 -86l118 86l41 -34l-118 -128q-41 -44 -82 -2z" />
<glyph unicode="&#x17e;" horiz-adv-x="483" d="M40 0v76l257 338h-126q-21 0 -26.5 -8t-5.5 -26v-35l-94 7v151h398v-68l-260 -345h142q29 0 29 34v42l94 -7v-159h-408zM81 738l41 34l118 -104l117 103l41 -32l-115 -146q-21 -27 -45 -26t-44 28z" />
<glyph unicode="&#x17f;" horiz-adv-x="370" d="M10 419v84h86v38q0 28 3 50t13.5 48t28.5 43.5t50.5 29t77.5 11.5q76 0 139 -35l-29 -80q-48 25 -95 25q-37 0 -53 -20.5t-16 -62.5v-466l84 -4v-80h-265v76l33 3q15 2 22 8.5t7 24.5v307h-86z" />
<glyph unicode="&#x192;" horiz-adv-x="547" d="M-88 -175l40 79q47 -25 93 -25q67 0 80 76l59 339h-107l15 95h109l13 75q8 47 18.5 77t31 59t57 43t89.5 14q74 0 141 -35l-40 -80q-49 26 -93 26q-35 0 -53.5 -18t-26.5 -58l-19 -103h148l-17 -95h-147l-53 -306q-8 -47 -19 -79t-33 -61.5t-59 -43.5t-90 -14 q-74 0 -137 35z" />
<glyph unicode="&#x2c6;" horiz-adv-x="500" d="M90 594l115 151q21 27 45 26t44 -28l113 -148l-41 -34l-118 104l-117 -103z" />
<glyph unicode="&#x2c7;" horiz-adv-x="500" d="M87 738l41 34l118 -104l117 103l41 -32l-115 -146q-21 -27 -45 -26t-44 28z" />
<glyph unicode="&#x2d8;" horiz-adv-x="500" d="M91 706l68 16q28 -84 94 -84q31 0 53.5 18.5t40.5 64.5l65 -15q-16 -68 -56.5 -106t-105.5 -38q-70 0 -110 41.5t-49 102.5z" />
<glyph unicode="&#x2d9;" horiz-adv-x="500" d="M183 647q0 28 19.5 47.5t49.5 19.5t49.5 -19.5t19.5 -47.5q0 -29 -19.5 -47.5t-49.5 -18.5q-31 0 -50 18.5t-19 47.5z" />
<glyph unicode="&#x2da;" horiz-adv-x="500" d="M155 657q0 41 26.5 67t68.5 26q43 0 68 -25.5t25 -62.5q0 -43 -26 -70.5t-70 -27.5q-43 0 -67.5 26.5t-24.5 66.5zM214 657q0 -42 36 -42q17 0 26.5 12t9.5 30q0 41 -36 41t-36 -41z" />
<glyph unicode="&#x2db;" horiz-adv-x="500" d="M128 -118q0 43 27 71.5t72 52.5l105 -4q-104 -46 -104 -99q0 -38 41 -38q22 0 47 11l22 -66q-50 -24 -99 -24q-60 0 -85.5 27.5t-25.5 68.5z" />
<glyph unicode="&#x2dc;" horiz-adv-x="500" d="M85 631q36 79 102 79q24 0 70 -14t64 -14q25 0 44 32l54 -29q-33 -87 -103 -87q-22 0 -66 13.5t-59 13.5q-20 0 -31 -5.5t-27 -23.5z" />
<glyph unicode="&#x2dd;" horiz-adv-x="500" d="M82 597l116 192l43 -20q29 -16 28.5 -36t-24.5 -43l-124 -126zM252 594l116 192l43 -20q29 -16 28.5 -36t-24.5 -43l-124 -126z" />
<glyph unicode="&#x386;" horiz-adv-x="728" d="M-8 594l116 192l47 -22q29 -16 28.5 -36t-24.5 -43l-128 -124zM35 0v81l33 3q21 2 30 28l161 466l-63 6v81h229l204 -577h1l57 -3v-85h-258v81l38 3q17 2 23 8t1 22l-21 62h-234l-30 -88l60 -3v-85h-231zM260 268h186l-90 285h-3z" />
<glyph unicode="&#x388;" d="M-168 594l116 192l47 -22q29 -16 28.5 -36t-24.5 -43l-128 -124zM34 0v81l33 3q29 3 29 28v465l-57 3v85h458v-166l-102 -7v40q0 17 -5 24t-24 7h-148v-171h231v-102h-231v-187h161q18 0 23 7.5t5 24.5v50l102 -7v-178h-475z" />
<glyph unicode="&#x389;" horiz-adv-x="712" d="M-168 594l116 192l47 -22q29 -16 28.5 -36t-24.5 -43l-128 -124zM32 0v81l33 3q29 3 29 28v465l-57 3v85h242v-81l-33 -3q-16 -2 -23 -8.5t-7 -24.5v-155h283v184l-57 3v85h242v-81l-33 -3q-29 -3 -29 -32v-461l57 -3v-85h-242v81l33 3q15 2 22 8.5t7 24.5v173h-283v-202 l58 -3v-85h-242z" />
<glyph unicode="&#x38a;" horiz-adv-x="313" d="M-168 594l116 192l47 -22q29 -16 28.5 -36t-24.5 -43l-128 -124zM32 0v81l33 3q15 2 22 8.5t7 24.5v460l-57 3v85h242v-81l-33 -3q-29 -3 -29 -32v-461l57 -3v-85h-242z" />
<glyph unicode="&#x38c;" horiz-adv-x="652" d="M-8 594l116 192l47 -22q29 -16 28.5 -36t-24.5 -43l-128 -124zM30 331q0 92 27 161.5t71.5 108t95.5 57.5t107 19q123 0 203 -84t80 -262q0 -167 -79.5 -255.5t-214.5 -88.5q-136 0 -213 88t-77 256zM155 336q0 -248 172 -248q46 0 79 20t50.5 55.5t25.5 76t8 88.5 q0 44 -7 82.5t-23.5 78t-51 62.5t-83.5 23q-61 0 -100.5 -36t-54.5 -87t-15 -115z" />
<glyph unicode="&#x38e;" horiz-adv-x="592" d="M-188 594l116 192l47 -22q29 -16 28.5 -36t-24.5 -43l-128 -124zM25 580v85h244v-81l-30 -3q-16 -1 -20.5 -12t3.5 -27l85 -174h4l109 208l-50 4v85h215v-81l-30 -3q-19 -2 -34 -30l-157 -297v-166l78 -3v-85h-282v81l53 3q29 2 29 28v142l-170 323z" />
<glyph unicode="&#x38f;" horiz-adv-x="737" d="M22 594l116 192l47 -22q29 -16 28.5 -36t-24.5 -43l-128 -124zM25 0v106h136q-55 38 -86.5 99.5t-31.5 139.5q0 146 91 229t228 83q147 0 232.5 -76t85.5 -219q0 -80 -33.5 -147.5t-88.5 -108.5h145v-106h-277v86q130 94 130 249q0 110 -53.5 164.5t-139.5 54.5 q-84 0 -139 -54.5t-55 -165.5q0 -86 40 -150t100 -99v-85h-284z" />
<glyph unicode="&#x390;" horiz-adv-x="356" d="M-44 647q0 28 19.5 47.5t49.5 19.5t49.5 -19.5t19.5 -47.5q0 -29 -19.5 -47.5t-49.5 -18.5q-31 0 -50 18.5t-19 47.5zM17 427v83h211v-358q0 -31 10.5 -42.5t32.5 -11.5q13 0 21 1.5t24 6.5l15 -98q-23 -10 -42.5 -13.5t-45.5 -3.5q-74 0 -113 40.5t-39 122.5v259z M92 734l116 192l47 -22q29 -16 28.5 -36t-24.5 -43l-128 -124zM156 647q0 28 19.5 47.5t49.5 19.5t49.5 -19.5t19.5 -47.5q0 -29 -19.5 -47.5t-49.5 -18.5q-31 0 -50 18.5t-19 47.5z" />
<glyph unicode="&#x391;" horiz-adv-x="662" d="M5 0v81l33 3q21 2 30 28l161 466l-63 6v81h229l204 -577h1l57 -3v-85h-258v81l38 3q17 2 23 8t1 22l-21 62h-234l-30 -88l60 -3v-85h-231zM230 268h186l-90 285h-3z" />
<glyph unicode="&#x392;" horiz-adv-x="602" d="M34 0v81l33 3q29 3 29 28v465l-57 3v85h282q216 0 216 -167q0 -92 -92 -140q59 -15 92.5 -55t33.5 -104q0 -97 -65.5 -148t-190.5 -51h-281zM218 94h94q130 0 130 106q0 50 -32.5 76.5t-92.5 26.5h-99v-209zM218 392h74q62 0 91.5 25.5t29.5 67.5q0 50 -29.5 69t-84.5 19 h-81v-181z" />
<glyph unicode="&#x393;" horiz-adv-x="537" d="M32 585l33 -3q29 -3 29 -28v-465l-57 -3v-85h241v81l-33 3q-14 2 -21.5 8.5t-7.5 23.5v446h166q15 0 19 -7.5t4 -24.5v-70l102 7v198h-475v-81z" />
<glyph unicode="&#x394;" horiz-adv-x="669" d="M16 0l257 665h125l255 -665h-637zM169 93h331l-163 445h-4z" />
<glyph unicode="&#x395;" d="M34 0v81l33 3q29 3 29 28v465l-57 3v85h458v-166l-102 -7v40q0 17 -5 24t-24 7h-148v-171h231v-102h-231v-187h161q18 0 23 7.5t5 24.5v50l102 -7v-178h-475z" />
<glyph unicode="&#x396;" horiz-adv-x="533" d="M33 0v83l302 487h-166q-27 0 -27 -31v-40l-102 7v159h437v-81l-305 -489h194q25 0 25 32v70l102 -7v-190h-460z" />
<glyph unicode="&#x397;" horiz-adv-x="712" d="M32 0v81l33 3q29 3 29 28v465l-57 3v85h242v-81l-33 -3q-16 -2 -23 -8.5t-7 -24.5v-155h283v184l-57 3v85h242v-81l-33 -3q-29 -3 -29 -32v-461l57 -3v-85h-242v81l33 3q15 2 22 8.5t7 24.5v173h-283v-202l58 -3v-85h-242z" />
<glyph unicode="&#x398;" horiz-adv-x="664" d="M40 331q0 92 27 161.5t71.5 108t95.5 57.5t107 19q123 0 203 -84t80 -262q0 -167 -79.5 -255.5t-214.5 -88.5q-136 0 -213 88t-77 256zM165 336q0 -248 172 -248q46 0 79 20t50.5 55.5t25.5 76t8 88.5q0 44 -7 82.5t-23.5 78t-51 62.5t-83.5 23q-61 0 -100.5 -36 t-54.5 -87t-15 -115zM215 282v93h237v-93h-237z" />
<glyph unicode="&#x399;" horiz-adv-x="307" d="M32 0v81l33 3q15 2 22 8.5t7 24.5v460l-57 3v85h242v-81l-33 -3q-29 -3 -29 -32v-461l57 -3v-85h-242z" />
<glyph unicode="&#x39a;" horiz-adv-x="622" d="M32 0v81l33 3q15 2 22 8.5t7 24.5v460l-57 3v85h240v-81l-33 -3q-29 -3 -29 -32v-220l204 248l-56 3v85h234v-81l-33 -3q-19 -2 -40 -28l-142 -174l177 -291l53 -3v-85h-256v81l31 3q30 3 15 32l-99 171l-88 -106v-93l57 -3v-85h-240z" />
<glyph unicode="&#x39b;" horiz-adv-x="662" d="M5 0v81l33 3q21 2 30 28l161 466l-63 6v81h229l204 -577h1l57 -3v-85h-258v81l38 3q17 2 23 8t1 22l-138 439h3l-150 -465l60 -3v-85h-231z" />
<glyph unicode="&#x39c;" horiz-adv-x="834" d="M20 0v81l36 3q23 2 25 27l27 465l-61 4v85h201l170 -452h2l171 452h198v-81l-33 -3q-30 -3 -29 -35l25 -458l62 -3v-85h-241v81l36 3q27 2 26 26l-19 353h-2l-154 -399h-95l-152 395h-2l-20 -371l65 -3v-85h-236z" />
<glyph unicode="&#x39d;" horiz-adv-x="705" d="M32 0v81l36 3q26 2 26 28v465l-57 3v85h180l283 -459h2v371l-66 3v85h244v-81l-36 -3q-24 -2 -24 -31v-550h-117l-289 466h-2v-378l65 -3v-85h-245z" />
<glyph unicode="&#x39e;" horiz-adv-x="553" d="M15 2h523v170l-102 7v-47q0 -17 -5 -24t-24 -7h-267q-23 0 -23 31v47l-102 -7v-170zM15 495v170h523v-170l-102 -7v47q0 17 -5 24t-24 7h-267q-23 0 -23 -31v-47zM120 282v93h317v-93h-317z" />
<glyph unicode="&#x39f;" horiz-adv-x="664" d="M40 331q0 92 27 161.5t71.5 108t95.5 57.5t107 19q123 0 203 -84t80 -262q0 -167 -79.5 -255.5t-214.5 -88.5q-136 0 -213 88t-77 256zM165 336q0 -248 172 -248q46 0 79 20t50.5 55.5t25.5 76t8 88.5q0 44 -7 82.5t-23.5 78t-51 62.5t-83.5 23q-61 0 -100.5 -36 t-54.5 -87t-15 -115z" />
<glyph unicode="&#x3a0;" horiz-adv-x="718" d="M30 0h242v85l-58 3v460q0 18 7 24.5t23 8.5l33 2h154l33 -2q16 -2 23 -8.5t7 -24.5l3 -431q0 -18 -7 -24.5t-22 -8.5l-33 -3v-81h242v85l-57 3v461q0 29 29 32l33 3v81h-647v-85l57 -3v-465q0 -25 -29 -28l-33 -3v-81z" />
<glyph unicode="&#x3a1;" horiz-adv-x="590" d="M32 0v81l33 3q29 3 29 28v465l-57 3v85h286q112 0 174.5 -52.5t62.5 -151.5q0 -111 -71 -169.5t-188 -58.5h-85v-145l96 -3v-85h-280zM216 330h72q146 0 146 119q0 72 -37.5 95.5t-119.5 23.5h-61v-238z" />
<glyph unicode="&#x3a3;" horiz-adv-x="533" d="M33 0v83l149 279l-145 232v81h437v-159l-102 -7v40q0 31 -27 31h-166l135 -218l-142 -267h194q25 0 25 32v70l102 -7v-190h-460z" />
<glyph unicode="&#x3a4;" horiz-adv-x="553" d="M15 495v170h523v-170l-102 -7v47q0 17 -5 24t-24 7h-68v-478l79 -3v-85h-282v81l53 3q29 3 29 28v454h-78q-23 0 -23 -31v-47z" />
<glyph unicode="&#x3a5;" horiz-adv-x="570" d="M5 580v85h244v-81l-30 -3q-16 -1 -20.5 -12t3.5 -27l85 -174h4l109 208l-50 4v85h215v-81l-30 -3q-19 -2 -34 -30l-157 -297v-166l78 -3v-85h-282v81l53 3q29 2 29 28v142l-170 323z" />
<glyph unicode="&#x3a6;" horiz-adv-x="828" d="M9 317q0 106 71 162t188 56h85v46l-96 3v81h312v-75l-64 -3q-29 -2 -29 -28v-17h107q112 0 174.5 -50t62.5 -144q0 -106 -71 -162t-188 -56h-85v-46l96 -3v-81h-312v75l64 3q29 2 29 28v17h-107q-112 0 -174.5 50t-62.5 144zM135 329q0 -66 37.5 -87.5t119.5 -21.5h61 v218h-72q-146 0 -146 -109zM476 227h72q146 0 146 109q0 66 -37.5 87.5t-119.5 21.5h-61v-218z" />
<glyph unicode="&#x3a7;" horiz-adv-x="621" d="M5 0v81l31 3q19 3 38 32l162 232l-152 224l-55 5v88h265v-82l-25 -3q-21 -2 -26.5 -14t4.5 -27l67 -105l97 143l-50 3v85h229v-81l-31 -3q-19 -3 -38 -32l-143 -193l175 -264l63 -4v-88h-278v82l30 3q19 2 26 13.5t-2 24.5l-90 139l-115 -174l48 -3v-85h-230z" />
<glyph unicode="&#x3a8;" horiz-adv-x="778" d="M13 585v81h64h133v-131q0 -72 29 -114t82 -50l3 1v207l-64 6v81h64h196v-81l-63 -6v-207l2 -1q53 7 80 48.5t27 115.5v131h133h65v-81l-65 -6v-44q0 -119 -65 -189.5t-177 -82.5v-175l70 -6v-80h-274v80l71 6v175q-114 10 -180.5 80.5t-66.5 191.5v44z" />
<glyph unicode="&#x3a9;" horiz-adv-x="781" d="M55 0v106h136q-55 38 -86.5 99.5t-31.5 139.5q0 146 91 229t228 83q147 0 232.5 -76t85.5 -219q0 -80 -33.5 -147.5t-88.5 -108.5h145v-106h-277v86q130 94 130 249q0 110 -53.5 164.5t-139.5 54.5q-84 0 -139 -54.5t-55 -165.5q0 -86 40 -150t100 -99v-85h-284z" />
<glyph unicode="&#x3aa;" horiz-adv-x="307" d="M-10 787q0 28 19.5 47.5t49.5 19.5t49.5 -19.5t19.5 -47.5q0 -29 -19.5 -47.5t-49.5 -18.5q-31 0 -50 18.5t-19 47.5zM32 0v81l33 3q15 2 22 8.5t7 24.5v460l-57 3v85h242v-81l-33 -3q-29 -3 -29 -32v-461l57 -3v-85h-242zM190 787q0 28 19.5 47.5t49.5 19.5t49.5 -19.5 t19.5 -47.5q0 -29 -19.5 -47.5t-49.5 -18.5q-31 0 -50 18.5t-19 47.5z" />
<glyph unicode="&#x3ab;" horiz-adv-x="570" d="M5 580v85h244v-81l-30 -3q-16 -1 -20.5 -12t3.5 -27l85 -174h4l109 208l-50 4v85h215v-81l-30 -3q-19 -2 -34 -30l-157 -297v-166l78 -3v-85h-282v81l53 3q29 2 29 28v142l-170 323zM128 787q0 28 19.5 47.5t49.5 19.5t49.5 -19.5t19.5 -47.5q0 -29 -19.5 -47.5 t-49.5 -18.5q-31 0 -50 18.5t-19 47.5zM328 787q0 28 19.5 47.5t49.5 19.5t49.5 -19.5t19.5 -47.5q0 -29 -19.5 -47.5t-49.5 -18.5q-31 0 -50 18.5t-19 47.5z" />
<glyph unicode="&#x3ac;" horiz-adv-x="552" d="M23 237v10q0 120 52 193.5t147 73.5q40 0 70.5 -18t52.5 -51l10 60h119v-346q0 -36 8 -50t25 -14q3 0 5.5 0.5t4.5 1.5l12 -98q-15 -7 -28.5 -9.5t-30.5 -2.5q-43 0 -73 19t-45 58q-23 -38 -55 -57.5t-76 -19.5q-94 0 -146 68.5t-52 181.5zM161 237q0 -68 22.5 -106.5 t72.5 -38.5q28 0 48 12t33 35v9v11v199q-14 24 -33.5 37.5t-46.5 13.5q-50 0 -73 -45t-23 -117v-10zM262 594l116 192l47 -22q29 -16 28.5 -36t-24.5 -43l-128 -124z" />
<glyph unicode="&#x3ad;" horiz-adv-x="497" d="M14 150q0 43 25 73t72 45q-42 17 -65 45.5t-23 62.5q0 70 62.5 109t165.5 39q91 0 152.5 -42t58.5 -110l-1 -3h-132q0 25 -24 40t-61 15q-42 0 -63 -17t-21 -41q0 -26 22 -40.5t63 -14.5h88v-89h-88q-46 0 -70 -15t-24 -48q0 -26 24.5 -44.5t68.5 -18.5t68.5 17.5 t24.5 43.5h133l1 -3q2 -76 -64 -116.5t-156 -40.5q-104 0 -170.5 41t-66.5 112zM212 594l116 192l47 -22q29 -16 28.5 -36t-24.5 -43l-128 -124z" />
<glyph unicode="&#x3ae;" horiz-adv-x="552" d="M12 494q18 10 46.5 16.5t57.5 6.5q45 0 73 -19t36 -58q25 38 62 59t83 21q77 0 120 -49t43 -157v-507h-137v506q0 55 -19.5 78t-56.5 23q-31 0 -54 -11t-38 -31v-370h-137v366q0 21 -8.5 29.5t-24.5 8.5q-9 0 -14.5 -1t-17.5 -4zM232 594l116 192l47 -22q29 -16 28.5 -36 t-24.5 -43l-128 -124z" />
<glyph unicode="&#x3af;" horiz-adv-x="352" d="M17 427v83h211v-358q0 -31 10.5 -42.5t32.5 -11.5q13 0 21 1.5t24 6.5l15 -98q-23 -10 -42.5 -13.5t-45.5 -3.5q-74 0 -113 40.5t-39 122.5v259zM102 594l116 192l47 -22q29 -16 28.5 -36t-24.5 -43l-128 -124z" />
<glyph unicode="&#x3b0;" horiz-adv-x="546" d="M9 494q18 10 46.5 16.5t57.5 6.5q54 0 83 -27.5t29 -82.5v-212q0 -53 16 -76.5t43 -23.5q47 0 75.5 51.5t28.5 118.5q-2 60 -14.5 120.5t-33.5 122.5h130q24 -49 39 -110t15 -133q0 -122 -59 -199t-177 -77q-94 0 -147 51.5t-53 155.5v172q0 21 -8 29.5t-25 8.5 q-9 0 -15 -1t-17 -4zM106 647q0 28 19.5 47.5t49.5 19.5t49.5 -19.5t19.5 -47.5q0 -29 -19.5 -47.5t-49.5 -18.5q-31 0 -50 18.5t-19 47.5zM242 734l116 192l47 -22q29 -16 28.5 -36t-24.5 -43l-128 -124zM306 647q0 28 19.5 47.5t49.5 19.5t49.5 -19.5t19.5 -47.5 q0 -29 -19.5 -47.5t-49.5 -18.5q-31 0 -50 18.5t-19 47.5z" />
<glyph unicode="&#x3b1;" horiz-adv-x="552" d="M23 247v10q0 120 52 193.5t147 73.5q40 0 70.5 -18t52.5 -51l10 60h119v-346q0 -36 8 -50t25 -14q3 0 5.5 0.5t4.5 1.5l12 -98q-15 -7 -28.5 -9.5t-30.5 -2.5q-43 0 -73 19t-45 58q-23 -38 -55 -57.5t-76 -19.5q-94 0 -146 68.5t-52 181.5zM161 247q0 -68 22.5 -106.5 t72.5 -38.5q28 0 48 12t33 35v9v11v199q-14 24 -33.5 37.5t-46.5 13.5q-50 0 -73 -45t-23 -117v-10z" />
<glyph unicode="&#x3b2;" horiz-adv-x="527" d="M26 -185v677q0 91 64 149t157 58q99 0 160 -50.5t61 -135.5q0 -45 -23 -83t-63 -61q59 -20 90.5 -64t31.5 -105q0 -98 -56 -151.5t-153 -53.5q-35 0 -69 8.5t-63 26.5v-215h-137zM163 129q18 -14 43.5 -21.5t57.5 -7.5q47 0 75 28.5t28 72.5q0 51 -26 81t-74 30h-45v96 h23q44 0 65 25t21 71q0 37 -22 63t-62 26q-37 0 -60.5 -28t-23.5 -73v-363z" />
<glyph unicode="&#x3b3;" horiz-adv-x="537" d="M20 513q11 4 32.5 7t38.5 3q49 0 69 -15t34 -60l76 -249l5 -29h3l6 29l59 226l-51 10v83h230v-83l-42 -7l-140 -412v-203h-137v222l-110 344q-6 18 -16 25t-29 7q-4 0 -10 -0.5t-8 -0.5z" />
<glyph unicode="&#x3b4;" horiz-adv-x="534" d="M21 241v9q0 77 41 134.5t103 73.5l2 5q-42 21 -65 52.5t-23 73.5q0 70 53 110t147 40q35 0 70 -10t74 -29l-21 -87q-26 10 -56.5 18t-61.5 8q-35 0 -55 -13t-20 -34q0 -17 15.5 -34t57.5 -32q111 -39 166.5 -105.5t55.5 -164.5v-10q0 -112 -64.5 -183t-176.5 -71 q-113 0 -177.5 69.5t-64.5 179.5zM157 252q0 -68 27 -112t79 -44q51 0 78 44t27 112v9q0 52 -29.5 97t-75.5 55q-51 0 -78.5 -43.5t-27.5 -108.5v-9z" />
<glyph unicode="&#x3b5;" horiz-adv-x="497" d="M14 150q0 43 25 73t72 45q-42 17 -65 45.5t-23 62.5q0 70 62.5 109t165.5 39q91 0 152.5 -42t58.5 -110l-1 -3h-132q0 25 -24 40t-61 15q-42 0 -63 -17t-21 -41q0 -26 22 -40.5t63 -14.5h88v-89h-88q-46 0 -70 -15t-24 -48q0 -26 24.5 -44.5t68.5 -18.5t68.5 17.5 t24.5 43.5h133l1 -3q2 -76 -64 -116.5t-156 -40.5q-104 0 -170.5 41t-66.5 112z" />
<glyph unicode="&#x3b6;" horiz-adv-x="448" d="M12 572v105h419v-75l-169 -201q-51 -61 -72.5 -105.5t-21.5 -104.5q0 -41 17.5 -61t57.5 -31l37 -11q73 -22 105 -45t32 -75q0 -38 -34 -84t-76 -73l-69 51q21 23 32 43.5t11 35.5q0 17 -12 28t-41 19l-34 9q-86 22 -124.5 63.5t-38.5 112.5t31 137t97 146l96 114l-1 2 h-242z" />
<glyph unicode="&#x3b7;" horiz-adv-x="552" d="M12 494q18 10 46.5 16.5t57.5 6.5q45 0 73 -19t36 -58q25 38 62 59t83 21q77 0 120 -49t43 -157v-507h-137v506q0 55 -19.5 78t-56.5 23q-31 0 -54 -11t-38 -31v-370h-137v366q0 21 -8.5 29.5t-24.5 8.5q-9 0 -14.5 -1t-17.5 -4z" />
<glyph unicode="&#x3b8;" horiz-adv-x="490" d="M10 272v151q0 136 62.5 206.5t168.5 70.5t169 -70.5t63 -206.5v-151q0 -136 -62.5 -206t-168.5 -70q-107 0 -169.5 70t-62.5 206zM147 259q0 -83 24 -120.5t71 -37.5q46 0 70 37.5t24 120.5v40h-189v-40zM147 401h189v36q0 82 -24.5 119.5t-70.5 37.5t-70 -37.5 t-24 -119.5v-36z" />
<glyph unicode="&#x3b9;" horiz-adv-x="354" d="M17 427v83h211v-358q0 -31 10.5 -42.5t32.5 -11.5q13 0 21 1.5t24 6.5l15 -98q-23 -10 -42.5 -13.5t-45.5 -3.5q-74 0 -113 40.5t-39 122.5v259z" />
<glyph unicode="&#x3ba;" horiz-adv-x="575" d="M12 425v82h205v-197h45l76 108l-45 7v82h249v-82l-60 -14l-100 -129l126 -190l52 -11v-82h-152l-132 213h-59v-117l59 -14v-82h-262v82l66 14v315z" />
<glyph unicode="&#x3bb;" horiz-adv-x="557" d="M16 1l179 496l-33 74q-9 21 -24.5 32t-36.5 11h-14t-13 -1l-3 97q14 5 37 7.5t42 2.5q49 0 78.5 -20t45.5 -59l197 -493q10 -24 21 -36.5t28 -12.5h9h7l1 -103q-10 -2 -23 -3t-29 -1q-57 0 -90 25t-51 79l-81 226h-3l-6 -29l-91 -292h-147z" />
<glyph unicode="&#x3bc;" horiz-adv-x="637" d="M19 422v83h74h137v-291q0 -70 20.5 -95.5t63.5 -25.5q35 0 58.5 13t37.5 38v264l-74 14v83h210v-412l67 -14v-83h-194l-3 32q-21 -20 -47.5 -30.5t-58.5 -10.5q-24 0 -44 4.5t-36 15.5v-206h-137v607z" />
<glyph unicode="&#x3bd;" horiz-adv-x="556" d="M19 423v82h231v-82l-48 -9l67 -228l9 -48h3l10 48l66 227l-49 10v82h231v-82l-44 -7l-150 -419h-131l-151 419z" />
<glyph unicode="&#x3be;" horiz-adv-x="466" d="M17 208q0 65 37 110.5t106 67.5q-50 18 -76.5 50t-26.5 76q0 83 61 131t164 48q44 0 76 -5.5t66 -17.5l-21 -102q-41 10 -61 13.5t-45 3.5q-51 0 -76.5 -19t-25.5 -50q0 -33 25.5 -53t80.5 -20h71v-109h-68q-73 0 -111.5 -30.5t-38.5 -90.5q0 -47 31 -73.5t83 -38.5 l45 -10q70 -16 104 -41t34 -79q-1 -38 -34.5 -83.5t-75.5 -73.5l-70 52q23 23 33.5 43t9.5 37q1 18 -11 28.5t-41 16.5l-17 5q-116 23 -172 69t-56 145z" />
<glyph unicode="&#x3bf;" horiz-adv-x="510" d="M14 251v9q0 114 63.5 186.5t175.5 72.5q113 0 176.5 -72t63.5 -187v-9q0 -115 -63.5 -187t-175.5 -72q-113 0 -176.5 72t-63.5 187zM151 251q0 -70 24.5 -112t78.5 -42q53 0 78 42t25 112v9q0 68 -25 111t-78.5 43t-78 -43t-24.5 -111v-9z" />
<glyph unicode="&#x3c0;" horiz-adv-x="613" d="M13 410v100h263v1h211v-1h64v-100h-64v-257q0 -31 10 -42.5t32 -11.5q14 0 22 1.5t24 6.5l14 -98q-22 -10 -41.5 -13.5t-45.5 -3.5q-74 0 -113.5 40.5t-39.5 122.5v255h-128v-408h-137v408h-71z" />
<glyph unicode="&#x3c1;" horiz-adv-x="491" d="M15 -198v467q0 110 63 178.5t170 68.5q108 0 167 -73.5t59 -194.5v-10q0 -113 -52 -181.5t-145 -68.5q-40 0 -71 14.5t-53 41.5v-242h-138zM152 258h1v-121q12 -21 34 -32.5t54 -11.5q50 0 72.5 39t22.5 106v10q0 72 -23 117t-72 45q-45 0 -66.5 -43.5t-21.5 -108.5h-1z " />
<glyph unicode="&#x3c2;" horiz-adv-x="470" d="M9 230v14q0 112 61.5 184.5t173.5 72.5q94 0 151 -52.5t55 -142.5l-1 -3h-125q0 40 -20.5 66t-59.5 26q-52 0 -75 -42.5t-23 -108.5v-14q0 -61 28 -93t91 -51q78 -22 109.5 -44t33.5 -77q0 -38 -33 -84t-75 -74l-71 52q22 24 32.5 43.5t10.5 36.5q0 19 -12 29.5t-37 16.5 q-109 28 -161.5 86t-52.5 159z" />
<glyph unicode="&#x3c3;" horiz-adv-x="544" d="M15 250v10q0 110 64 180t176 70h270v-107h-122q38 -31 61.5 -73.5t23.5 -88.5v-10q0 -104 -62 -172t-170 -68q-113 0 -177 72.5t-64 186.5zM152 250q0 -69 24.5 -111t79.5 -42q49 0 72 42t23 111v10q0 64 -23 103.5t-73 39.5q-53 0 -78 -40t-25 -103v-10z" />
<glyph unicode="&#x3c4;" horiz-adv-x="456" d="M15 405v105h421v-105h-145v-253q0 -31 10.5 -42.5t32.5 -11.5q13 0 21 1.5t24 6.5l15 -98q-23 -10 -42.5 -13.5t-45.5 -3.5q-74 0 -113 40.5t-39 122.5v251h-139z" />
<glyph unicode="&#x3c5;" horiz-adv-x="546" d="M9 494q18 10 46.5 16.5t57.5 6.5q54 0 83 -27.5t29 -82.5v-212q0 -53 16 -76.5t43 -23.5q47 0 75.5 51.5t28.5 118.5q-2 60 -14.5 120.5t-33.5 122.5h130q24 -49 39 -110t15 -133q0 -122 -59 -199t-177 -77q-94 0 -147 51.5t-53 155.5v172q0 21 -8 29.5t-25 8.5 q-9 0 -15 -1t-17 -4z" />
<glyph unicode="&#x3c6;" horiz-adv-x="694" d="M15 306q0 73 28.5 135.5t76.5 100.5l94 -72q-30 -32 -45.5 -76t-16.5 -88q0 -68 28.5 -113.5t93.5 -58.5l2 1v268q0 58 43 98.5t104 40.5q122 0 188 -75.5t66 -177.5q0 -105 -63 -179t-200 -89v-218h-138v219q-136 16 -198.5 94t-62.5 190zM414 133l2 -1q65 12 94.5 54 t29.5 103q-1 65 -27.5 106t-72.5 41q-16 0 -21 -8t-5 -22v-273z" />
<glyph unicode="&#x3c7;" horiz-adv-x="562" d="M12 3v82l48 7l137 166l-132 163l-48 8v82h136l128 -179l71 94l-47 6v79h230v-82l-46 -8l-131 -161l138 -168l48 -7v-82h-134l-138 183l-74 -99l41 -5v-79h-227z" />
<glyph unicode="&#x3c8;" horiz-adv-x="772" d="M16 523q18 9 46.5 15.5t57.5 6.5q54 0 83 -27t29 -83v-132q0 -74 29 -115t80 -52l3 1v399h137v-402l3 -1q67 11 97.5 57.5t30.5 115.5q-1 55 -14.5 111.5t-36.5 118.5h128q26 -47 43 -104.5t17 -125.5q0 -115 -64 -193t-204 -92v-218h-137v220q-119 16 -184 85.5 t-65 196.5v92q0 20 -8 29t-25 9q-9 0 -12.5 -1t-19.5 -5z" />
<glyph unicode="&#x3c9;" horiz-adv-x="757" d="M17 265q0 72 19 133t51 110h131q-29 -61 -46 -122t-18 -121q0 -74 17 -122t56 -48q34 0 54.5 32t20.5 102v163h144v-163q0 -70 20.5 -102t54.5 -32q39 0 56 48t17 122q-1 60 -18 121t-46 122h131q31 -49 50.5 -110t19.5 -133q0 -126 -48 -201t-157 -75q-52 0 -91 25.5 t-61 73.5q-23 -48 -62 -73.5t-89 -25.5q-110 0 -158 75t-48 201z" />
<glyph unicode="&#x3ca;" horiz-adv-x="351" d="M-44 647q0 28 19.5 47.5t49.5 19.5t49.5 -19.5t19.5 -47.5q0 -29 -19.5 -47.5t-49.5 -18.5q-31 0 -50 18.5t-19 47.5zM17 427v83h211v-358q0 -31 10.5 -42.5t32.5 -11.5q13 0 21 1.5t24 6.5l15 -98q-23 -10 -42.5 -13.5t-45.5 -3.5q-74 0 -113 40.5t-39 122.5v259z M156 647q0 28 19.5 47.5t49.5 19.5t49.5 -19.5t19.5 -47.5q0 -29 -19.5 -47.5t-49.5 -18.5q-31 0 -50 18.5t-19 47.5z" />
<glyph unicode="&#x3cb;" horiz-adv-x="546" d="M9 494q18 10 46.5 16.5t57.5 6.5q54 0 83 -27.5t29 -82.5v-212q0 -53 16 -76.5t43 -23.5q47 0 75.5 51.5t28.5 118.5q-2 60 -14.5 120.5t-33.5 122.5h130q24 -49 39 -110t15 -133q0 -122 -59 -199t-177 -77q-94 0 -147 51.5t-53 155.5v172q0 21 -8 29.5t-25 8.5 q-9 0 -15 -1t-17 -4zM106 647q0 28 19.5 47.5t49.5 19.5t49.5 -19.5t19.5 -47.5q0 -29 -19.5 -47.5t-49.5 -18.5q-31 0 -50 18.5t-19 47.5zM306 647q0 28 19.5 47.5t49.5 19.5t49.5 -19.5t19.5 -47.5q0 -29 -19.5 -47.5t-49.5 -18.5q-31 0 -50 18.5t-19 47.5z" />
<glyph unicode="&#x3cc;" horiz-adv-x="510" d="M14 251v9q0 114 63.5 186.5t175.5 72.5q113 0 176.5 -72t63.5 -187v-9q0 -115 -63.5 -187t-175.5 -72q-113 0 -176.5 72t-63.5 187zM151 251q0 -70 24.5 -112t78.5 -42q53 0 78 42t25 112v9q0 68 -25 111t-78.5 43t-78 -43t-24.5 -111v-9zM212 594l116 192l47 -22 q29 -16 28.5 -36t-24.5 -43l-128 -124z" />
<glyph unicode="&#x3cd;" horiz-adv-x="546" d="M9 494q18 10 46.5 16.5t57.5 6.5q54 0 83 -27.5t29 -82.5v-212q0 -53 16 -76.5t43 -23.5q47 0 75.5 51.5t28.5 118.5q-2 60 -14.5 120.5t-33.5 122.5h130q24 -49 39 -110t15 -133q0 -122 -59 -199t-177 -77q-94 0 -147 51.5t-53 155.5v172q0 21 -8 29.5t-25 8.5 q-9 0 -15 -1t-17 -4zM242 594l116 192l47 -22q29 -16 28.5 -36t-24.5 -43l-128 -124z" />
<glyph unicode="&#x3ce;" horiz-adv-x="757" d="M17 265q0 72 19 133t51 110h131q-29 -61 -46 -122t-18 -121q0 -74 17 -122t56 -48q34 0 54.5 32t20.5 102v163h144v-163q0 -70 20.5 -102t54.5 -32q39 0 56 48t17 122q-1 60 -18 121t-46 122h131q31 -49 50.5 -110t19.5 -133q0 -126 -48 -201t-157 -75q-52 0 -91 25.5 t-61 73.5q-23 -48 -62 -73.5t-89 -25.5q-110 0 -158 75t-48 201zM332 594l116 192l47 -22q29 -16 28.5 -36t-24.5 -43l-128 -124z" />
<glyph unicode="&#x3d1;" horiz-adv-x="607" d="M25 259v327l145 1v-328q0 -71 36.5 -116t99.5 -45q60 0 94.5 41.5t35.5 114.5q-91 7 -151 62t-60 137v48q0 87 50.5 139t130.5 52q81 0 128 -51t47 -140v-242q0 -123 -76 -197t-199 -74q-125 0 -203 77t-78 194zM355 452q0 -39 21 -66t58 -30h2v158q0 30 -9.5 45.5 t-27.5 15.5q-20 0 -32 -15.5t-12 -45.5v-62z" />
<glyph unicode="&#x3d2;" horiz-adv-x="603" d="M13 489q9 5 21 7t27 2q62 0 97 -28t63 -99l70 -181l9 -42h3l9 42l69 178q29 72 64.5 101t96.5 29q15 0 26.5 -2t21.5 -7l-11 -104q-2 0 -10 1t-14 1q-17 0 -30.5 -12.5t-21.5 -32.5l-135 -316v-224h-137v231l-131 309q-9 20 -22.5 32.5t-30.5 12.5q-5 0 -13.5 -1 t-10.5 -1z" />
<glyph unicode="&#x3d6;" horiz-adv-x="808" d="M11 415v95h784v-95h-60q12 -34 18.5 -71t6.5 -77q0 -126 -47 -201t-153 -75q-55 0 -95.5 26t-63.5 76q-24 -50 -64.5 -76t-94.5 -26q-106 0 -153 75t-47 201q0 41 6.5 77.5t17.5 70.5h-55zM179 267q0 -75 15.5 -122.5t52.5 -47.5t59.5 32t22.5 102v97h144v-97 q0 -70 22.5 -102t59.5 -32q36 0 52 47.5t16 122.5q-1 36 -8 73.5t-18 74.5h-392q-12 -37 -18.5 -74t-7.5 -74z" />
<glyph unicode="&#x400;" d="M34 0v81l33 3q29 3 29 28v465l-57 3v85h458v-166l-102 -7v40q0 17 -5 24t-24 7h-148v-171h231v-102h-231v-187h161q18 0 23 7.5t5 24.5v50l102 -7v-178h-475zM156.5 832q-5.5 20 17.5 42l40 33l162 -157l-30 -41l-155 87q-29 16 -34.5 36z" />
<glyph unicode="&#x401;" d="M34 0v81l33 3q29 3 29 28v465l-57 3v85h458v-166l-102 -7v40q0 17 -5 24t-24 7h-148v-171h231v-102h-231v-187h161q18 0 23 7.5t5 24.5v50l102 -7v-178h-475zM107 787q0 28 19.5 47.5t49.5 19.5t49.5 -19.5t19.5 -47.5q0 -29 -19.5 -47.5t-49.5 -18.5q-31 0 -50 18.5 t-19 47.5zM307 787q0 28 19.5 47.5t49.5 19.5t49.5 -19.5t19.5 -47.5q0 -29 -19.5 -47.5t-49.5 -18.5q-31 0 -50 18.5t-19 47.5z" />
<glyph unicode="&#x402;" horiz-adv-x="769" d="M30 497v170h523v-170l-102 -7v47q0 17 -5 24t-24 7h-75l-1 -173q58 26 136 26q125 0 186.5 -53.5t61.5 -169.5l-2 -222q0 -41 -5.5 -71t-21 -59t-49 -44.5t-84.5 -15.5q-72 0 -128 35l36 83q39 -21 74 -21q30 0 44.5 20t14.5 68v221q0 70 -33.5 98.5t-97.5 28.5 q-61 0 -95.5 -31t-34.5 -91v-106l58 -3v-85h-237v81l33 3q29 3 29 30l-3 451h-73q-23 0 -23 -31v-47z" />
<glyph unicode="&#x403;" horiz-adv-x="537" d="M32 585l33 -3q29 -3 29 -28v-465l-57 -3v-85h241v81l-33 3q-14 2 -21.5 8.5t-7.5 23.5v446h166q15 0 19 -7.5t4 -24.5v-70l102 7v198h-475v-81zM214 750l162 157l40 -33q23 -21 17 -41.5t-34 -36.5l-155 -87z" />
<glyph unicode="&#x404;" horiz-adv-x="602" d="M40 329q0 94 27 164t73 108.5t99.5 57t114.5 18.5q100 0 188 -41v-170l-102 -7v78q0 15 -4 22t-17 11q-25 8 -65 8q-160 0 -177 -200l197 -3v-96l-197 3q10 -99 51 -148.5t128 -47.5q44 0 73 9q13 4 17 11t4 22v80l102 -7v-173q-78 -41 -198 -41q-153 0 -233.5 86 t-80.5 256z" />
<glyph unicode="&#x405;" horiz-adv-x="522" d="M43 481q0 91 63.5 143.5t168.5 52.5q100 0 188 -41v-150l-102 -7v58q0 15 -4 22t-17 11q-25 8 -65 8q-48 0 -76.5 -21t-28.5 -65q0 -18 7.5 -32.5t16.5 -23.5t30.5 -18.5t35 -14t43.5 -13.5q41 -13 68.5 -26t57.5 -35.5t45.5 -57t15.5 -80.5q0 -96 -67.5 -150t-174.5 -54 q-114 0 -202 41v158l102 7v-61q0 -15 4 -22t17 -11q28 -9 72 -9q120 0 120 96q0 18 -7 32.5t-17 24t-28.5 18t-33.5 13.5t-41 12q-43 12 -72.5 24.5t-59 34.5t-44.5 56t-15 80z" />
<glyph unicode="&#x406;" horiz-adv-x="307" d="M32 0v81l33 3q15 2 22 8.5t7 24.5v460l-57 3v85h242v-81l-33 -3q-29 -3 -29 -32v-461l57 -3v-85h-242z" />
<glyph unicode="&#x407;" horiz-adv-x="307" d="M-10 787q0 28 19.5 47.5t49.5 19.5t49.5 -19.5t19.5 -47.5q0 -29 -19.5 -47.5t-49.5 -18.5q-31 0 -50 18.5t-19 47.5zM32 0v81l33 3q15 2 22 8.5t7 24.5v460l-57 3v85h242v-81l-33 -3q-29 -3 -29 -32v-461l57 -3v-85h-242zM190 787q0 28 19.5 47.5t49.5 19.5t49.5 -19.5 t19.5 -47.5q0 -29 -19.5 -47.5t-49.5 -18.5q-31 0 -50 18.5t-19 47.5z" />
<glyph unicode="&#x408;" horiz-adv-x="474" d="M28 29v175l102 7v-79q0 -15 4 -22t17 -12q21 -8 52 -8q40 0 56 21.5t16 69.5v395l-78 4v85h262v-81l-33 -3q-29 -3 -29 -31v-311q0 -71 -4 -105q-8 -70 -55 -108.5t-134 -38.5q-102 0 -176 42z" />
<glyph unicode="&#x409;" horiz-adv-x="878" d="M23 90l1 -103q87 0 134 38.5t55 108.5q4 34 4 105l-3 309q0 18 7 24.5t23 8.5l33 2h94l33 -2q16 -2 23 -8.5t7 -24.5l3 -431q0 -18 -7 -24.5t-22 -8.5l-33 -3v-81h253q112 0 164.5 42.5t52.5 141.5q0 110 -60.5 159t-178.5 49h-46v157q0 29 29 32l33 3v81h-587v-85l57 -3 l3 -396q0 -48 -16 -69.5t-56 -21.5zM560 96v199h33q75 0 110.5 -19t35.5 -80q0 -29 -7.5 -48.5t-17 -29.5t-32 -15t-38.5 -5.5t-51 -0.5h-11z" />
<glyph unicode="&#x40a;" horiz-adv-x="932" d="M32 0h242v85l-58 3v202h283v-173q0 -18 -7 -24.5t-22 -8.5l-33 -3v-81h251q112 0 164.5 42.5t52.5 141.5q0 110 -60.5 159t-178.5 49l-44 -1v158q0 29 29 32l33 3v81h-242v-85l57 -3v-184h-283v155q0 18 7 24.5t23 8.5l33 3v81h-242v-85l57 -3v-465q0 -25 -29 -28l-33 -3 v-81zM622 97v197l31 1q75 0 110.5 -19t35.5 -80q0 -29 -7.5 -48.5t-17 -29.5t-32 -15t-38.5 -5.5t-51 -0.5h-11h-20z" />
<glyph unicode="&#x40b;" horiz-adv-x="815" d="M30 497v170h523v-170l-102 -7v47q0 17 -5 24t-24 7h-75l-1 -173q58 26 136 26q125 0 186.5 -53.5t61.5 -169.5v-107l58 -3v-85h-242v81l33 3q16 2 23 8.5t7 24.5v72q0 70 -33.5 98.5t-97.5 28.5q-61 0 -95.5 -31t-34.5 -91v-106l58 -3v-85h-237v81l33 3q29 3 29 30 l-3 451h-73q-23 0 -23 -31v-47z" />
<glyph unicode="&#x40c;" horiz-adv-x="622" d="M32 0v81l33 3q15 2 22 8.5t7 24.5v460l-57 3v85h240v-81l-33 -3q-29 -3 -29 -32v-220l204 248l-56 3v85h234v-81l-33 -3q-19 -2 -40 -28l-142 -174l177 -291l53 -3v-85h-256v81l31 3q30 3 15 32l-99 171l-88 -106v-93l57 -3v-85h-240zM214 750l162 157l40 -33 q23 -21 17 -41.5t-34 -36.5l-155 -87z" />
<glyph unicode="&#x40d;" horiz-adv-x="705" d="M27 588l36 -3q24 -2 24 -31l-1 -550h117l289 466h2v-378l-65 -3v-85l245 -1v81l-36 3q-26 2 -26 28l1 465l57 3v85l-180 1l-284 -459h-2l1 371l66 3v85h-244v-81zM216.5 832q-5.5 20 17.5 42l40 33l162 -157l-30 -41l-155 87q-29 16 -34.5 36z" />
<glyph unicode="&#x40e;" horiz-adv-x="659" d="M22 580v85h242v-81l-33 -3q-16 -2 -23 -8.5t-7 -24.5v-72q0 -70 33.5 -98.5t97.5 -28.5q61 0 95.5 31t34.5 91v106l-58 3v85h237v-81l-33 -3q-29 -3 -29 -30v-97v-11l-2 -204q0 -71 -4 -105q-7 -67 -73.5 -107t-158.5 -40q-36 0 -83.5 4t-98 14.5t-74.5 23.5v145l102 7 v-49q0 -13 8 -20.5t23 -13.5q21 -8 122 -8q47 0 86 24t39 67l-1 92q-58 -26 -136 -26q-125 0 -186.5 53.5t-61.5 169.5v107zM168 846l67 28q31 -78 100 -78q37 0 59.5 18.5t39.5 59.5l66 -27q-42 -127 -169 -127q-128 0 -163 126z" />
<glyph unicode="&#x40f;" horiz-adv-x="718" d="M30 583l33 -3q29 -3 29 -28v-445l-57 -3v-105h292v-159h96l1 159h258v101l-33 3q-29 3 -29 32v441l57 3v85h-242v-81l33 -3q15 -2 22 -8.5t7 -24.5l-3 -411q0 -18 -7 -24.5t-23 -8.5l-33 -2h-154l-33 2q-16 2 -23 8.5t-7 24.5v440l58 3v85h-242v-81z" />
<glyph unicode="&#x410;" horiz-adv-x="662" d="M5 0v81l33 3q21 2 30 28l161 466l-63 6v81h229l204 -577h1l57 -3v-85h-258v81l38 3q17 2 23 8t1 22l-21 62h-234l-30 -88l60 -3v-85h-231zM230 268h186l-90 285h-3z" />
<glyph unicode="&#x411;" horiz-adv-x="590" d="M32 584l33 -3q29 -3 29 -28v-465l-57 -3v-85h286q112 0 174.5 52.5t62.5 151.5q0 111 -71 169.5t-188 58.5h-85v145l316 3v85h-500v-81zM216 97v238h72q146 0 146 -119q0 -72 -37.5 -95.5t-119.5 -23.5h-61z" />
<glyph unicode="&#x412;" horiz-adv-x="602" d="M34 0v81l33 3q29 3 29 28v465l-57 3v85h282q216 0 216 -167q0 -92 -92 -140q59 -15 92.5 -55t33.5 -104q0 -97 -65.5 -148t-190.5 -51h-281zM218 94h94q130 0 130 106q0 50 -32.5 76.5t-92.5 26.5h-99v-209zM218 392h74q62 0 91.5 25.5t29.5 67.5q0 50 -29.5 69t-84.5 19 h-81v-181z" />
<glyph unicode="&#x413;" horiz-adv-x="537" d="M32 585l33 -3q29 -3 29 -28v-465l-57 -3v-85h241v81l-33 3q-14 2 -21.5 8.5t-7.5 23.5v446h166q15 0 19 -7.5t4 -24.5v-70l102 7v198h-475v-81z" />
<glyph unicode="&#x414;" horiz-adv-x="677" d="M26 -67v170h34q43 -2 59 14.5t16 63.5l-3 396l-57 3v85h567v-81l-33 -3q-29 -3 -29 -32v-446h59v-170l-102 -7v47q0 17 -5 24t-24 7h-357q-23 0 -23 -31v-47zM246 103h210l-2 415q0 19 -13 40.5t-27 22.5l-34 2h-53l-33 -2q-14 -1 -27 -22.5t-13 -40.5l-1 -384 q-1 -10 -7 -31z" />
<glyph unicode="&#x415;" d="M34 0v81l33 3q29 3 29 28v465l-57 3v85h458v-166l-102 -7v40q0 17 -5 24t-24 7h-148v-171h231v-102h-231v-187h161q18 0 23 7.5t5 24.5v50l102 -7v-178h-475z" />
<glyph unicode="&#x416;" horiz-adv-x="948" d="M17 0v85l53 3l177 291l-142 174q-21 26 -40 28l-33 3v81h234v-85l-56 -3l204 -251v251l-57 3v85h240v-81l-33 -3q-29 -3 -29 -32v-220l204 248l-56 3v85h234v-81l-33 -3q-19 -2 -40 -28l-142 -174l177 -291l53 -3v-85h-256v81l31 3q30 3 15 32l-99 171l-88 -106v-93 l57 -3v-85h-240v81l33 3q15 2 22 8.5t7 24.5v59l-88 111l-99 -171q-15 -29 15 -32l31 -3v-81h-256z" />
<glyph unicode="&#x417;" horiz-adv-x="570" d="M88 37l35 95q79 -44 157 -44q109 0 109 97q0 50 -33 73.5t-112 23.5h-38l9 91h103q60 38 60 107q0 77 -87 77q-32 0 -62 -10q-13 -4 -16.5 -11.5t-3.5 -23.5v-19l-102 7v107q100 50 204 50q92 0 140.5 -44.5t48.5 -115.5q0 -52 -25 -94.5t-66 -68.5q101 -32 101 -142 q0 -92 -57 -148.5t-169 -56.5q-55 0 -109.5 15t-86.5 35z" />
<glyph unicode="&#x418;" horiz-adv-x="705" d="M27 588l36 -3q24 -2 24 -31l-1 -550h117l289 466h2v-378l-65 -3v-85l245 -1v81l-36 3q-26 2 -26 28l1 465l57 3v85l-180 1l-284 -459h-2l1 371l66 3v85h-244v-81z" />
<glyph unicode="&#x419;" horiz-adv-x="705" d="M27 588l36 -3q24 -2 24 -31l-1 -550h117l289 466h2v-378l-65 -3v-85l245 -1v81l-36 3q-26 2 -26 28l1 465l57 3v85l-180 1l-284 -459h-2l1 371l66 3v85h-244v-81zM168 846l67 28q31 -78 100 -78q37 0 59.5 18.5t39.5 59.5l66 -27q-42 -127 -169 -127q-128 0 -163 126z " />
<glyph unicode="&#x41a;" horiz-adv-x="622" d="M32 0v81l33 3q15 2 22 8.5t7 24.5v460l-57 3v85h240v-81l-33 -3q-29 -3 -29 -32v-220l204 248l-56 3v85h234v-81l-33 -3q-19 -2 -40 -28l-142 -174l177 -291l53 -3v-85h-256v81l31 3q30 3 15 32l-99 171l-88 -106v-93l57 -3v-85h-240z" />
<glyph unicode="&#x41b;" horiz-adv-x="656" d="M23 90q40 0 56 21.5t16 69.5l-3 396l-57 3v85h587v-81l-33 -3q-29 -3 -29 -32v-461l57 -3v-85h-242v81l33 3q15 2 22 8.5t7 24.5l-3 431q0 18 -7 24.5t-23 8.5l-33 2h-94l-33 -2q-16 -2 -23 -8.5t-7 -24.5l3 -309q0 -71 -4 -105q-8 -70 -55 -108.5t-134 -38.5z" />
<glyph unicode="&#x41c;" horiz-adv-x="834" d="M20 0v81l36 3q23 2 25 27l27 465l-61 4v85h201l170 -452h2l171 452h198v-81l-33 -3q-30 -3 -29 -35l25 -458l62 -3v-85h-241v81l36 3q27 2 26 26l-19 353h-2l-154 -399h-95l-152 395h-2l-20 -371l65 -3v-85h-236z" />
<glyph unicode="&#x41d;" horiz-adv-x="712" d="M32 0v81l33 3q29 3 29 28v465l-57 3v85h242v-81l-33 -3q-16 -2 -23 -8.5t-7 -24.5v-155h283v184l-57 3v85h242v-81l-33 -3q-29 -3 -29 -32v-461l57 -3v-85h-242v81l33 3q15 2 22 8.5t7 24.5v173h-283v-202l58 -3v-85h-242z" />
<glyph unicode="&#x41e;" horiz-adv-x="664" d="M40 331q0 92 27 161.5t71.5 108t95.5 57.5t107 19q123 0 203 -84t80 -262q0 -167 -79.5 -255.5t-214.5 -88.5q-136 0 -213 88t-77 256zM165 336q0 -248 172 -248q46 0 79 20t50.5 55.5t25.5 76t8 88.5q0 44 -7 82.5t-23.5 78t-51 62.5t-83.5 23q-61 0 -100.5 -36 t-54.5 -87t-15 -115z" />
<glyph unicode="&#x41f;" horiz-adv-x="718" d="M30 0h242v85l-58 3v440q0 18 7 24.5t23 8.5l33 2h154l33 -2q16 -2 23 -8.5t7 -24.5l3 -411q0 -18 -7 -24.5t-22 -8.5l-33 -3v-81h242v85l-57 3v441q0 29 29 32l33 3v101h-647v-105l57 -3v-445q0 -25 -29 -28l-33 -3v-81z" />
<glyph unicode="&#x420;" horiz-adv-x="590" d="M32 0v81l33 3q29 3 29 28v465l-57 3v85h286q112 0 174.5 -52.5t62.5 -151.5q0 -111 -71 -169.5t-188 -58.5h-85v-145l96 -3v-85h-280zM216 330h72q146 0 146 119q0 72 -37.5 95.5t-119.5 23.5h-61v-238z" />
<glyph unicode="&#x421;" horiz-adv-x="602" d="M40 329q0 94 27 164t73 108.5t99.5 57t114.5 18.5q100 0 188 -41v-170l-102 -7v78q0 15 -4 22t-17 11q-25 8 -65 8q-93 0 -141 -63t-48 -178q0 -123 45.5 -188t145.5 -63q44 0 73 9q13 4 17 11t4 22v80l102 -7v-173q-78 -41 -198 -41q-153 0 -233.5 86t-80.5 256z" />
<glyph unicode="&#x422;" horiz-adv-x="553" d="M15 495v170h523v-170l-102 -7v47q0 17 -5 24t-24 7h-68v-478l79 -3v-85h-282v81l53 3q29 3 29 28v454h-78q-23 0 -23 -31v-47z" />
<glyph unicode="&#x423;" horiz-adv-x="659" d="M22 580v85h242v-81l-33 -3q-16 -2 -23 -8.5t-7 -24.5v-72q0 -70 33.5 -98.5t97.5 -28.5q61 0 95.5 31t34.5 91v106l-58 3v85h237v-81l-33 -3q-29 -3 -29 -30v-97v-11l-2 -204q0 -71 -4 -105q-7 -67 -73.5 -107t-158.5 -40q-36 0 -83.5 4t-98 14.5t-74.5 23.5v145l102 7 v-49q0 -13 8 -20.5t23 -13.5q21 -8 122 -8q47 0 86 24t39 67l-1 92q-58 -26 -136 -26q-125 0 -186.5 53.5t-61.5 169.5v107z" />
<glyph unicode="&#x424;" horiz-adv-x="828" d="M9 317q0 106 71 162t188 56h85v46l-96 3v81h312v-75l-64 -3q-29 -2 -29 -28v-17h107q112 0 174.5 -50t62.5 -144q0 -106 -71 -162t-188 -56h-85v-46l96 -3v-81h-312v75l64 3q29 2 29 28v17h-107q-112 0 -174.5 50t-62.5 144zM135 329q0 -66 37.5 -87.5t119.5 -21.5h61 v218h-72q-146 0 -146 -109zM476 227h72q146 0 146 109q0 66 -37.5 87.5t-119.5 21.5h-61v-218z" />
<glyph unicode="&#x425;" horiz-adv-x="621" d="M5 0v81l31 3q19 3 38 32l162 232l-152 224l-55 5v88h265v-82l-25 -3q-21 -2 -26.5 -14t4.5 -27l67 -105l97 143l-50 3v85h229v-81l-31 -3q-19 -3 -38 -32l-143 -193l175 -264l63 -4v-88h-278v82l30 3q19 2 26 13.5t-2 24.5l-90 139l-115 -174l48 -3v-85h-230z" />
<glyph unicode="&#x426;" horiz-adv-x="804" d="M30 583l33 -3q29 -3 29 -28v-445l-57 -3v-105l616 1q31 0 31 -23l-2 -137h96v262l-127 1q-29 3 -29 32v441l57 3v85h-242v-81l33 -3q15 -2 22 -8.5t7 -24.5l-3 -411q0 -18 -7 -24.5t-23 -8.5l-33 -2h-154l-33 2q-16 2 -23 8.5t-7 24.5v440l58 3v85h-242v-81z" />
<glyph unicode="&#x427;" horiz-adv-x="677" d="M28 580v85h242v-81l-33 -3q-16 -2 -23 -8.5t-7 -24.5v-72q0 -70 33.5 -98.5t97.5 -28.5q61 0 95.5 31t34.5 91v106l-58 3v85h237v-81l-33 -3q-29 -3 -29 -30l-2 -463l67 -3v-85h-242v81l33 3q15 2 22 8.5t7 24.5v156q-58 -26 -136 -26q-125 0 -186.5 53.5t-61.5 169.5 v107z" />
<glyph unicode="&#x428;" horiz-adv-x="1040" d="M30 583v81h242v-85l-58 -3v-440q0 -18 7 -24.5t23 -8.5l33 -2h114l33 2q16 2 23 8.5t7 24.5l3 411q0 18 -7 24.5t-22 8.5l-33 3v81h242v-85l-57 -3v-441q0 -29 29 -32l36 -2h114l33 2q16 2 23 8.5t7 24.5l3 411q0 18 -7 24.5t-22 8.5l-33 3v81h242v-85l-57 -3v-441 q0 -29 29 -32l33 -3v-101h-975v105l57 3v445q0 25 -29 28z" />
<glyph unicode="&#x429;" horiz-adv-x="1134" d="M30 585v81h242v-85l-58 -3v-440q0 -18 7 -24.5t23 -8.5l33 -2h114l33 2q16 2 23 8.5t7 24.5l3 411q0 18 -7 24.5t-22 8.5l-33 3v81h242v-85l-57 -3v-441q0 -29 29 -32l32 -4h114l33 2q16 2 23 8.5t7 24.5l3 411q0 18 -7 24.5t-22 8.5l-33 3v81h242v-85l-57 -3v-441 q0 -29 29 -32l127 -1v-262h-96l2 137q0 23 -31 23l-940 1v105l57 3v445q0 25 -29 28z" />
<glyph unicode="&#x42a;" horiz-adv-x="744" d="M16 511l102 -7v47q0 31 23 31h58q17 -3 24 -9t7 -20v-465l-57 -3v-85h286q112 0 174.5 52.5t62.5 151.5q0 111 -71 169.5t-188 58.5h-85v145l96 3v86h-432v-155zM352 97v238h72q146 0 146 -119q0 -72 -37.5 -95.5t-119.5 -23.5h-61z" />
<glyph unicode="&#x42b;" horiz-adv-x="864" d="M32 584l33 -3q29 -3 29 -28v-465l-57 -3v-85h286q112 0 174.5 52.5t62.5 151.5q0 111 -71 169.5t-188 58.5h-85v145l96 3v85h-280v-81zM216 97v238h72q146 0 146 -119q0 -72 -37.5 -95.5t-119.5 -23.5h-61zM582 0v81l33 3q15 2 22 8.5t7 24.5v460l-57 3v85h242v-81 l-33 -3q-29 -3 -29 -32v-461l57 -3v-85h-242z" />
<glyph unicode="&#x42c;" horiz-adv-x="590" d="M32 584l33 -3q29 -3 29 -28v-465l-57 -3v-85h286q112 0 174.5 52.5t62.5 151.5q0 111 -71 169.5t-188 58.5h-85v145l96 3v85h-280v-81zM216 97v238h72q146 0 146 -119q0 -72 -37.5 -95.5t-119.5 -23.5h-61z" />
<glyph unicode="&#x42d;" horiz-adv-x="602" d="M44 28q78 -41 198 -41q153 0 233.5 86t80.5 256q0 94 -27 164t-73 108.5t-99.5 57t-114.5 18.5q-100 0 -188 -41v-170l102 -7v78q0 15 4 22t17 11q25 8 65 8q160 0 177 -200l-197 -3v-96l197 3q-10 -99 -51 -148.5t-128 -47.5q-44 0 -73 9q-13 4 -17 11t-4 22v80l-102 -7 v-173z" />
<glyph unicode="&#x42e;" horiz-adv-x="922" d="M22 0v81l33 3q15 2 22 8.5t7 24.5v460l-57 3v85h242v-81l-33 -3q-14 -2 -21.5 -8.5t-7.5 -23.5v-171h95q4 53 19 98t37.5 77.5t50.5 56.5t60.5 38.5t65 21.5t66.5 7q123 0 203 -84t80 -262q0 -167 -79.5 -255.5t-214.5 -88.5q-82 0 -143.5 33t-99 99t-45.5 162h-95v-193 l57 -3v-85h-242zM425 336q0 -248 172 -248q37 0 65.5 13.5t46.5 36t30 54.5t16.5 65t4.5 71q0 24 -2 46t-7 47t-12.5 46.5t-20.5 41.5t-30 34t-40.5 22.5t-52.5 8.5q-46 0 -80 -20t-53 -55t-28 -75.5t-9 -87.5z" />
<glyph unicode="&#x42f;" horiz-adv-x="626" d="M22 0h247v81l-29 3q-32 4 -19 32l47 100q11 25 24.5 35.5t38.5 10.5h91v-174l-65 -3v-85h249v81l-33 3q-29 3 -29 28v465l57 3v85h-273q-116 0 -178 -43t-62 -141q0 -68 35.5 -112t84.5 -64q-36 -13 -57 -61l-72 -157l-57 -2v-85zM212 467q0 63 32.5 82t104.5 19h73v-211 h-87q-123 0 -123 110z" />
<glyph unicode="&#x430;" horiz-adv-x="567" d="M40 230q0 136 66 212t198 76q85 0 178 -35v-372q0 -16 5.5 -22t19.5 -7l32 -2v-80h-159v58l-3 1q-50 -72 -137 -72q-102 0 -151 65t-49 178zM162 234q0 -162 104 -162q44 0 72 26.5t28 60.5v259q-28 13 -77 13q-67 0 -97 -54t-30 -143z" />
<glyph unicode="&#x431;" horiz-adv-x="520" d="M20 233v66q0 167 65 258t170 111q45 8 67 20.5t22 40.5h106l1 -3q2 -91 -41.5 -120.5t-148.5 -46.5q-53 -9 -84 -41.5t-40 -89.5l1 -3q26 23 60.5 37.5t72.5 14.5q107 0 167.5 -66t60.5 -171v-9q0 -108 -63.5 -176t-175.5 -68q-113 0 -176.5 69t-63.5 177zM157 233 q0 -63 24.5 -102t78.5 -39q53 0 77.5 38t24.5 101v9q0 58 -25 95t-78 37t-77.5 -37t-24.5 -95v-7z" />
<glyph unicode="&#x432;" horiz-adv-x="504" d="M26 0v86l25 2q22 2 22 18v303l-43 3v91h235q85 0 130.5 -27.5t45.5 -97.5q0 -77 -78 -106q114 -20 114 -121q0 -76 -51 -113.5t-163 -37.5h-237zM183 100h74q103 0 103 57q0 27 -26 41.5t-73 14.5h-78v-113zM183 309h55q91 0 91 49q0 47 -86 47h-60v-96z" />
<glyph unicode="&#x433;" horiz-adv-x="440" d="M24 445l25 -2q22 -3 22 -21v-342l-43 -2v-91h210v87l-25 2q-22 3 -22 24v329h126q17 0 17 -24v-53l77 5v160h-387v-72z" />
<glyph unicode="&#x434;" horiz-adv-x="608" d="M20 -75v181h36q44 -2 61 8.5t17 41.5l-4 256l-58 1v90h520v-86l-35 -2q-31 -2 -31 -21v-288h63v-181l-99 -5v48q0 17 -5 24.5t-22 7.5h-313q-21 0 -21 -32v-48zM242 106h162l-2 268q0 12 -10.5 26t-20.5 15l-25 1h-40l-25 -1q-10 -1 -20 -15t-10 -26l-1 -248 q-3 -11 -8 -20z" />
<glyph unicode="&#x435;" horiz-adv-x="484" d="M37 240q0 118 65 198t182 80q75 0 119 -36.5t44 -102.5q0 -44 -19 -77.5t-47 -52.5t-68 -31t-75.5 -16t-75.5 -4q3 -53 33 -85.5t90 -32.5q64 0 126 44l38 -81q-20 -18 -67.5 -37t-108.5 -19q-122 0 -179 67.5t-57 185.5zM158 282q44 1 80.5 7.5t67.5 29t31 58.5 q0 27 -16 41.5t-44 14.5q-56 0 -86 -44.5t-33 -106.5z" />
<glyph unicode="&#x436;" horiz-adv-x="793" d="M7 0h146l114 208q33 -9 68 -14v-82q0 -18 -7 -24.5t-22 -8.5l-33 -3v-76h238v80l-57 3h-1v111q35 5 68 14l114 -208h146v80l-61 3l-98 176q75 59 88 161l48 2v81h-207v-78l38 -2q27 0 16 -33q-15 -47 -56 -76t-96 -34v223h-118v-223q-55 5 -96 34t-56 76q-11 33 16 33 l38 2v78h-207v-81l48 -2q13 -102 88 -161l-98 -176l-61 -3v-80z" />
<glyph unicode="&#x437;" horiz-adv-x="516" d="M67 46l32 79q67 -21 139 -21q97 0 97 47q0 24 -26 35.5t-87 11.5h-30l8 103h77q46 18 46 48q0 35 -66 35q-19 0 -46 -5q-10 -2 -12.5 -5t-2.5 -10v-9l-115 3v82q98 57 197 57q89 0 136 -33t47 -86q0 -39 -28.5 -70t-75.5 -51q115 -25 115 -109q0 -71 -54.5 -114.5 t-162.5 -43.5q-53 0 -105.5 16.5t-82.5 39.5z" />
<glyph unicode="&#x438;" horiz-adv-x="606" d="M20 445l27 -3q19 -2 19 -23l-1 -416h125l219 352h1v-286l-49 -2v-64l222 -1v62l-27 2q-20 2 -20 21v352l44 2v65h-173l-214 -347h-2v280l50 2v65h-221v-61z" />
<glyph unicode="&#x439;" horiz-adv-x="606" d="M20 432l27 -2q19 -2 19 -24l-1 -416h125l219 353h1v-286l-49 -3v-64h222v61l-27 3q-20 2 -20 21v351l44 3v64h-173l-214 -347h-2v281l50 2v64h-221v-61zM161 706l68 16q28 -84 94 -84q31 0 53.5 18.5t40.5 64.5l65 -15q-16 -68 -56.5 -106t-105.5 -38q-70 0 -110 41.5 t-49 102.5z" />
<glyph unicode="&#x43a;" horiz-adv-x="556" d="M33 0v76l33 3q15 2 22 8.5t7 24.5v277q0 16 -5.5 22t-19.5 7l-35 2v83h178v-223q55 5 96 34t56 76q11 33 -16 33l-38 2v78h207v-81l-48 -2q-13 -102 -88 -161l98 -176l61 -3v-80h-146l-114 208q-33 -9 -68 -14v-111h1l57 -3v-80h-238z" />
<glyph unicode="&#x43b;" horiz-adv-x="571" d="M17 100q29 0 41.5 13.5t12.5 44.5l-3 254l-42 1v90h519v-86l-25 -2q-22 -2 -22 -21v-297l44 -7v-90h-221v86l25 2q21 2 21 22l-3 283q0 20 -22 22l-25 1h-70l-26 -1q-12 -1 -17.5 -6t-5.5 -18l3 -221q0 -57 -3 -75q-15 -105 -180 -105z" />
<glyph unicode="&#x43c;" horiz-adv-x="706" d="M15 0v86l27 2q17 2 19 21l21 300l-46 3v91h177l141 -328h2l142 328h173v-87l-25 -2q-12 -1 -17.5 -6t-4.5 -18l20 -296l47 -3v-91h-218v86l27 2q21 2 20 20l-15 228l-5 1l-116 -302h-72l-115 299h-2l-16 -240l41 -3v-91h-205z" />
<glyph unicode="&#x43d;" horiz-adv-x="683" d="M24 0v86l35 2q31 2 31 18v304l-60 2v91h258v-87l-36 -1q-32 -2 -32 -19v-85h245v99l-60 2v91h258v-87l-36 -2q-31 -2 -31 -21v-303h61v-90h-258v86l35 2q31 2 31 18v94h-245v-110h62v-90h-258z" />
<glyph unicode="&#x43e;" horiz-adv-x="528" d="M33 252q0 74 22 128.5t59 83t76 41.5t81 13q27 0 52 -4t58 -19.5t56.5 -41t40 -74t16.5 -114.5q0 -138 -67 -209t-172 -71q-104 0 -163 67.5t-59 199.5zM154 266q0 -40 4 -70t14.5 -60.5t33.5 -46.5t57 -16q109 0 109 176q0 89 -24.5 135t-82.5 46q-57 0 -84 -44 t-27 -120z" />
<glyph unicode="&#x43f;" horiz-adv-x="613" d="M23 0h219v96l-44 -1v271q0 19 22 21l25 1h116l25 -1q22 -2 22 -21l4 -253q0 -18 -22 -20l-25 -2v-91h219v96l-43 -1v273q0 17 22 19l25 2v114h-562v-118l44 -1v-274q0 -15 -22 -17l-25 -2v-91z" />
<glyph unicode="&#x440;" horiz-adv-x="568" d="M22 422v81h169v-65q16 30 58 55t100 25q181 0 181 -254q0 -135 -59 -207t-160 -72q-60 0 -107 29v-138l81 -4v-79h-258v76l33 3q15 2 22 8.5t7 24.5v484q0 17 -5.5 23.5t-19.5 6.5zM204 105q38 -25 88 -25q59 0 86.5 50t27.5 124q0 167 -101 167q-42 0 -71.5 -25.5 t-29.5 -60.5v-230z" />
<glyph unicode="&#x441;" horiz-adv-x="471" d="M33 245q0 140 70.5 206.5t167.5 66.5q80 0 156 -41v-130l-92 -7v48q0 27 -21 34q-18 6 -39 6q-121 0 -121 -171q0 -85 32 -132t97 -47q56 0 115 43l43 -77q-71 -58 -174 -58q-111 0 -172.5 67.5t-61.5 191.5z" />
<glyph unicode="&#x442;" horiz-adv-x="518" d="M11 322v181h496v-181l-109 -4v48q0 17 -3.5 24.5t-17.5 7.5h-52v-304l60 -3v-91h-250v86l40 2q21 2 21 18v292h-58q-18 0 -18 -32v-48z" />
<glyph unicode="&#x443;" horiz-adv-x="573" d="M27 421v82h176v-287q0 -53 15 -80t59 -27q50 0 78.5 29t28.5 70v181q0 17 -5.5 23.5t-19.5 6.5l-32 2v82h176v-484q0 -121 -58.5 -177t-173.5 -56q-122 0 -188 33v139l95 8v-48q0 -27 23 -36q27 -10 71 -10q129 0 129 147v76q-55 -78 -162 -78q-155 0 -155 173v201 q0 27 -25 28z" />
<glyph unicode="&#x444;" horiz-adv-x="782" d="M7 230q0 138 57.5 214.5t160.5 76.5q60 0 107 -29v138l-81 4v79h258v-76l-33 -3q-15 -2 -22 -8.5t-7 -24.5l-3 -125q45 42 121 42q93 0 148.5 -64.5t55.5 -177.5q0 -138 -57.5 -214.5t-160.5 -76.5q-60 0 -107 29l3 -112l3 -6q2 -5 4 -8t7 -6.5t11 -3.5l35 -2v-83h-240 v76l33 3q8 1 14.5 9t10.5 16l4 8l3 125q-45 -42 -121 -42q-93 0 -148.5 64.5t-55.5 177.5zM130 246q0 -169 112 -169q36 0 63 21t27 54v249q-38 25 -88 25q-60 0 -87 -49.5t-27 -130.5zM444 105q38 -25 88 -25q60 0 87 49.5t27 130.5q0 169 -112 169q-36 0 -63 -21t-27 -54 v-249z" />
<glyph unicode="&#x445;" horiz-adv-x="534" d="M14 0v79l31 3q23 3 40 24l115 144l-123 170l-51 6v77h233v-79l-29 -2q-12 -1 -15.5 -9t3.5 -17l57 -76l77 100l-41 3v80h203v-78l-30 -2q-21 -1 -40 -25l-110 -139l131 -174l51 -6v-79h-238v79l31 2q13 1 15.5 8.5t-5.5 16.5l-61 80l-83 -103l47 -3v-80h-208z" />
<glyph unicode="&#x446;" horiz-adv-x="700" d="M23 411l25 -2q22 -2 22 -17v-271l-44 -4v-118l535 1q28 0 28 -17l-2 -104h103v236l-126 1q-22 2 -22 20v271l43 -1v96h-220v-91l26 -2q22 -1 22 -20l-3 -253q0 -19 -23 -21l-25 -1h-117l-25 1q-22 2 -22 21v271l44 -1v96h-219v-91z" />
<glyph unicode="&#x447;" horiz-adv-x="623" d="M21 407v96h217v-91l-24 -2q-22 -2 -22 -17v-38q0 -37 27.5 -52t80.5 -15q106 0 106 63v54l-66 2v96h258v-91l-37 -2q-33 -2 -33 -19l-2 -292l75 -3v-96h-263v91l38 2q32 1 32 19v89q-53 -29 -125 -29q-114 0 -166 37.5t-52 120.5v75z" />
<glyph unicode="&#x448;" horiz-adv-x="900" d="M23 411v91h219v-96l-44 1v-271q0 -19 22 -21l25 -1h87l25 1q23 2 23 21l3 253q0 19 -22 20l-26 2v91h220v-96l-43 1v-272q0 -18 22 -20l27 -1h86l25 1q23 2 23 21l3 253q0 19 -22 20l-26 2v91h220v-96l-43 1v-273q0 -17 22 -19l25 -2v-114h-848v118l44 1v274q0 15 -22 17 z" />
<glyph unicode="&#x449;" horiz-adv-x="998" d="M23 413v91h219v-96l-44 1v-271q0 -19 22 -21l25 -1h87l25 1q23 2 23 21l3 253q0 19 -22 20l-26 2v91h220v-96l-43 1v-273q0 -18 22 -20l24 -2h86l25 1q23 2 23 20l3 254q0 19 -22 20l-26 2v91h219v-96l-42 1v-271q0 -18 28 -20l125 -1v-236h-108l2 104q0 17 -28 17 l-817 1v118l44 1v274q0 15 -22 17z" />
<glyph unicode="&#x44a;" horiz-adv-x="639" d="M12 379l77 -4v24q0 16 18 16h44q8 -2 12.5 -3.5t7.5 -5.5t3 -10v-303l-43 -3v-90h258q101 0 157.5 41t56.5 119q0 87 -61.5 133t-163.5 46h-74v71l73 3v91h-365v-125zM304 103v132h55q110 0 110 -66q0 -40 -28.5 -53t-90.5 -13h-46z" />
<glyph unicode="&#x44b;" horiz-adv-x="804" d="M24 417l25 -2q22 -2 22 -18v-303l-43 -3v-91h258q101 0 157.5 41t56.5 119q0 87 -61.5 133t-163.5 46h-74v71l73 3v90h-250v-86zM201 103v132h55q110 0 110 -66q0 -40 -28.5 -53t-90.5 -13h-46zM514 0v87l35 2q31 2 31 21v303h-60v90h258v-86l-36 -2q-31 -2 -31 -21v-300 l61 -3v-91h-258z" />
<glyph unicode="&#x44c;" horiz-adv-x="522" d="M24 454l25 -2q22 -2 22 -21v-338l-43 -3v-90h258q101 0 157.5 41t56.5 119q0 87 -61.5 133t-163.5 46h-74v110l73 2v64h-250v-61zM201 103v133h55q110 0 110 -66q0 -41 -28.5 -54t-90.5 -13h-46z" />
<glyph unicode="&#x44d;" horiz-adv-x="544" d="M33 36q71 -46 184 -46q143 0 217.5 65.5t74.5 193.5q0 57 -16.5 102.5t-44 75t-65.5 49.5t-78.5 28t-85.5 8q-93 0 -174 -46v-134l111 -4v47q0 9 3 13t13 7q17 5 49 5q68 0 103 -21.5t41 -76.5l-149 -2v-104l148 2q-7 -55 -41 -76.5t-104 -19.5q-37 0 -55 5q-10 3 -13 7 t-3 13v49l-115 -4v-136z" />
<glyph unicode="&#x44e;" horiz-adv-x="845" d="M17 0v86l35 2q31 2 31 21v298l-61 5v91h258v-87l-35 -1q-31 -2 -31 -18v-96h86q6 56 31.5 98t64 66t81.5 35.5t89 11.5q109 0 180 -63.5t71 -198.5q0 -126 -70.5 -193t-190.5 -67q-110 0 -177.5 52.5t-77.5 153.5h-87v-106h61v-90h-258zM432 253q0 -155 130 -155 q66 0 94.5 42.5t28.5 107.5q0 27 -5.5 51.5t-18 49t-38.5 39t-63 14.5q-67 0 -97.5 -43t-30.5 -106z" />
<glyph unicode="&#x44f;" d="M17 0h225v86l-22 2q-17 1 -20 5t5 12l36 53q17 24 48 24h69v-92h-50v-90h227v86l-25 2q-22 2 -22 18v304l43 3v90h-247q-105 0 -161 -32.5t-56 -107.5q0 -52 37.5 -86t89.5 -49q-36 -8 -59 -38l-75 -98l-43 -2v-90zM199 344q0 34 24.5 45t78.5 11h56v-116h-66 q-93 0 -93 60z" />
<glyph unicode="&#x450;" horiz-adv-x="484" d="M37 240q0 118 65 198t182 80q75 0 119 -36.5t44 -102.5q0 -44 -19 -77.5t-47 -52.5t-68 -31t-75.5 -16t-75.5 -4q3 -53 33 -85.5t90 -32.5q64 0 126 44l38 -81q-20 -18 -67.5 -37t-108.5 -19q-122 0 -179 67.5t-57 185.5zM144.5 728q-0.5 20 28.5 36l47 22l116 -192 l-39 -33l-128 124q-24 23 -24.5 43zM158 282q44 1 80.5 7.5t67.5 29t31 58.5q0 27 -16 41.5t-44 14.5q-56 0 -86 -44.5t-33 -106.5z" />
<glyph unicode="&#x451;" horiz-adv-x="484" d="M37 240q0 -118 57 -185.5t179 -67.5q61 0 108.5 19t67.5 37l-38 81q-62 -44 -126 -44q-60 0 -90 32.5t-33 85.5q40 0 75.5 4t75.5 16t68 31t47 52.5t19 77.5q0 66 -44 102.5t-119 36.5q-117 0 -182 -80t-65 -198zM91 647q0 28 19.5 47.5t49.5 19.5t49.5 -19.5t19.5 -47.5 q0 -29 -19.5 -47.5t-49.5 -18.5q-31 0 -50 18.5t-19 47.5zM158 282q3 62 33 106.5t86 44.5q28 0 44 -14.5t16 -41.5q0 -36 -31 -58.5t-67.5 -29t-80.5 -7.5zM291 647q0 28 19.5 47.5t49.5 19.5t49.5 -19.5t19.5 -47.5q0 -29 -19.5 -47.5t-49.5 -18.5q-31 0 -50 18.5 t-19 47.5z" />
<glyph unicode="&#x452;" horiz-adv-x="556" d="M29 528v72h65v4q0 16 -5.5 22t-19.5 7l-35 2v78h178v-113h164v-72h-164v-109q52 74 146 74q76 0 117.5 -43.5t41.5 -130.5l1 -343q0 -41 -5.5 -71t-21 -59t-49 -44.5t-84.5 -15.5q-72 0 -128 35l36 83q39 -21 74 -21q30 0 44.5 20t14.5 68l-1 322q0 52 -16.5 80t-61.5 28 q-50 0 -78.5 -29.5t-28.5 -71.5v-217l57 -3v-80h-238v76l33 3q15 2 22 8.5t7 24.5v416h-65z" />
<glyph unicode="&#x453;" horiz-adv-x="435" d="M24 448l25 -2q22 -3 22 -21v-342l-43 -2v-97h218v92l-25 3q-22 3 -22 24v329h126q17 0 17 -24v-53l77 5v160h-395v-72zM163 594l116 192l47 -22q29 -16 28.5 -36t-24.5 -43l-128 -124z" />
<glyph unicode="&#x454;" horiz-adv-x="548" d="M30 249q0 57 17 102.5t45 75t66.5 49.5t79.5 28t86 8q94 0 175 -46v-120l-115 -3v37q0 13 -16 16q-19 4 -49 4q-122 0 -135 -95l150 -3v-109l-149 3q7 -48 39 -72t99 -22q36 0 56 4q16 3 16 16v38l115 -4v-120q-72 -46 -185 -46q-144 0 -219.5 65.5t-75.5 193.5z" />
<glyph unicode="&#x455;" horiz-adv-x="451" d="M44 18v139l90 7v-48q0 -25 23 -34q27 -10 66 -10q79 0 79 61q0 22 -14.5 36t-28.5 19t-48 14q-5 1 -7 2q-35 9 -56.5 17.5t-47.5 25t-38.5 44.5t-12.5 68q0 75 55 117t138 42q84 0 166 -40v-120l-90 -7v42q0 25 -23 34q-24 9 -58 9t-54.5 -15.5t-20.5 -44.5 q0 -16 7.5 -28.5t23.5 -21t28.5 -13t35.5 -10.5q31 -9 48 -14.5t42.5 -18.5t39 -27.5t24 -39.5t10.5 -56q0 -75 -54.5 -117.5t-138.5 -42.5q-122 0 -184 31z" />
<glyph unicode="&#x456;" horiz-adv-x="296" d="M33 0v76l33 3q29 3 29 32v278q0 17 -5.5 23t-19.5 6l-35 2v83h179v-420l57 -3v-80h-238zM67 642q0 32 21 53.5t56 21.5q33 0 54.5 -21.5t21.5 -53.5t-21.5 -52.5t-55.5 -20.5t-55 20.5t-21 52.5z" />
<glyph unicode="&#x457;" horiz-adv-x="296" d="M-44 647q0 28 19.5 47.5t49.5 19.5t49.5 -19.5t19.5 -47.5q0 -29 -19.5 -47.5t-49.5 -18.5q-31 0 -50 18.5t-19 47.5zM33 0v76l33 3q29 3 29 32v278q0 17 -5.5 23t-19.5 6l-35 2v83h179v-420l57 -3v-80h-238zM156 647q0 28 19.5 47.5t49.5 19.5t49.5 -19.5t19.5 -47.5 q0 -29 -19.5 -47.5t-49.5 -18.5q-31 0 -50 18.5t-19 47.5z" />
<glyph unicode="&#x458;" horiz-adv-x="283" d="M-80 -179l36 83q39 -21 74 -21q30 0 44.5 20t14.5 68v418q0 16 -5.5 22t-19.5 7l-35 2v83h179v-527q0 -41 -5.5 -71t-21 -59t-49 -44.5t-84.5 -15.5q-72 0 -128 35zM61 642q0 32 21 53.5t56 21.5q33 0 54.5 -21.5t21.5 -53.5t-21.5 -52.5t-55.5 -20.5t-55 20.5t-21 52.5z " />
<glyph unicode="&#x459;" horiz-adv-x="749" d="M17 106l1 -116q171 0 187 104q4 24 4 74l-3 217q0 22 23 24l25 1h72l25 -1q23 -2 23 -21l2 -270q0 -19 -22 -21l-25 -2v-95h213q95 0 138.5 34t43.5 114q0 89 -54 128.5t-160 39.5h-41v78q0 14 22 16l25 1v92h-490v-96h42l3 -245q0 -30 -12 -43t-42 -13zM479 110v94l24 1 q57 0 83.5 -9t26.5 -39q0 -34 -5 -49.5t-16 -17t-23.5 2.5t-34 10.5t-40.5 6.5h-15z" />
<glyph unicode="&#x45a;" horiz-adv-x="836" d="M24 0h229v96l-44 3v100h214v-89q0 -15 -22 -17l-25 -2v-91h236q106 0 155 34t49 113q0 89 -54 128t-160 39l-40 -1v120q0 21 22 24l25 2v62h-229v-65l43 -2v-139h-214v117q0 22 23 25l25 2v62h-229v-65l43 -2v-340q0 -19 -22 -21l-25 -2v-91zM562 110v94l24 1 q57 0 83.5 -9t26.5 -39q0 -34 -5 -49.5t-16 -17t-23.5 2.5t-34 10.5t-40.5 6.5h-15z" />
<glyph unicode="&#x45b;" horiz-adv-x="600" d="M29 528v72h65v4q0 16 -5.5 22t-19.5 7l-35 2v78h178v-113h164v-72h-164v-109q52 74 146 74q76 0 117.5 -43.5t41.5 -130.5v-236l57 -3v-80h-238v76l33 3q15 2 22 8.5t7 24.5v181q0 52 -16.5 80t-61.5 28q-50 0 -78.5 -29.5t-28.5 -71.5v-217l57 -3v-80h-238v76l33 3 q15 2 22 8.5t7 24.5v416h-65z" />
<glyph unicode="&#x45c;" horiz-adv-x="556" d="M33 0v76l33 3q15 2 22 8.5t7 24.5v277q0 16 -5.5 22t-19.5 7l-35 2v83h178v-223q55 5 96 34t56 76q11 33 -16 33l-38 2v78h207v-81l-48 -2q-13 -102 -88 -161l98 -176l61 -3v-80h-146l-114 208q-33 -9 -68 -14v-111h1l57 -3v-80h-238zM183 594l116 192l47 -22 q29 -16 28.5 -36t-24.5 -43l-128 -124z" />
<glyph unicode="&#x45d;" horiz-adv-x="620" d="M20 445l27 -3q19 -2 19 -23l-1 -416h132l219 352h1v-286l-49 -2v-64l229 -1v62l-27 2q-20 2 -20 21v352l44 2v65h-180l-214 -347h-2v280l50 2v65h-228v-61zM174.5 728q-0.5 20 28.5 36l47 22l116 -192l-39 -33l-128 124q-24 23 -24.5 43z" />
<glyph unicode="&#x45e;" horiz-adv-x="539" d="M27 421v82h176v-287q0 -53 15 -80t59 -27q50 0 78.5 29t28.5 70v181q0 17 -5.5 23.5t-19.5 6.5l-32 2v82h176v-484q0 -121 -58.5 -177t-173.5 -56q-122 0 -188 33v139l95 8v-48q0 -27 23 -36q27 -10 71 -10q129 0 129 147v76q-55 -78 -162 -78q-155 0 -155 173v201 q0 27 -25 28zM109 706l68 16q28 -84 94 -84q31 0 53.5 18.5t40.5 64.5l65 -15q-16 -68 -56.5 -106t-105.5 -38q-70 0 -110 41.5t-49 102.5z" />
<glyph unicode="&#x45f;" horiz-adv-x="611" d="M23 411l25 -2q22 -2 22 -17v-274l-44 -1v-118h240v-120h101l1 120h221v114l-25 2q-22 2 -22 19v273l43 -1v96h-220v-91l26 -2q22 -1 22 -20l-3 -253q0 -19 -23 -21l-25 -1h-117l-25 1q-22 2 -22 21v271l44 -1v96h-219v-91z" />
<glyph unicode="&#x2000;" horiz-adv-x="469" />
<glyph unicode="&#x2001;" horiz-adv-x="938" />
<glyph unicode="&#x2002;" horiz-adv-x="469" />
<glyph unicode="&#x2003;" horiz-adv-x="938" />
<glyph unicode="&#x2004;" horiz-adv-x="312" />
<glyph unicode="&#x2005;" horiz-adv-x="234" />
<glyph unicode="&#x2006;" horiz-adv-x="156" />
<glyph unicode="&#x2007;" horiz-adv-x="156" />
<glyph unicode="&#x2008;" horiz-adv-x="117" />
<glyph unicode="&#x2009;" horiz-adv-x="187" />
<glyph unicode="&#x200a;" horiz-adv-x="52" />
<glyph unicode="&#x2010;" horiz-adv-x="322" d="M30 242v92h262v-92h-262z" />
<glyph unicode="&#x2011;" horiz-adv-x="322" d="M30 242v92h262v-92h-262z" />
<glyph unicode="&#x2012;" horiz-adv-x="322" d="M30 242v92h262v-92h-262z" />
<glyph unicode="&#x2013;" horiz-adv-x="500" d="M0 244v83h500v-83h-500z" />
<glyph unicode="&#x2014;" horiz-adv-x="1000" d="M0 244v83h1000v-83h-1000z" />
<glyph unicode="&#x2018;" horiz-adv-x="220" d="M31 530q0 20 11 39l95 165l63 -23l-58 -236q-61 7 -92 23q-19 10 -19 32z" />
<glyph unicode="&#x2019;" horiz-adv-x="212" d="M31 498l58 236q61 -7 92 -23q19 -10 19 -32q0 -20 -11 -39l-95 -165z" />
<glyph unicode="&#x201a;" horiz-adv-x="227" d="M27 -128l30 190q8 50 49 50q5 0 10.5 -1t10 -2t10.5 -3.5t9.5 -4.5t11 -6t10.5 -6t12 -7.5t12 -7.5l-102 -221z" />
<glyph unicode="&#x201c;" horiz-adv-x="386" d="M31 530q0 20 11 39l95 165l63 -23l-58 -236q-61 7 -92 23q-19 10 -19 32zM197 530q0 20 11 39l95 165l63 -23l-58 -236q-61 7 -92 23q-19 10 -19 32z" />
<glyph unicode="&#x201d;" horiz-adv-x="378" d="M31 498l58 236q61 -7 92 -23q19 -10 19 -32q0 -20 -11 -39l-95 -165zM197 498l58 236q61 -7 92 -23q19 -10 19 -32q0 -20 -11 -39l-95 -165z" />
<glyph unicode="&#x201e;" horiz-adv-x="393" d="M27 -128l30 190q8 50 49 50q5 0 10.5 -1t10 -2t10.5 -3.5t9.5 -4.5t11 -6t10.5 -6t12 -7.5t12 -7.5l-102 -221zM193 -128l30 190q8 50 49 50q5 0 10.5 -1t10 -2t10.5 -3.5t9.5 -4.5t11 -6t10.5 -6t12 -7.5t12 -7.5l-102 -221z" />
<glyph unicode="&#x2020;" horiz-adv-x="401" d="M40 507q-7 24 7 38t37 10l88 -16l-23 126l33 8q26 7 42 -6.5t12 -35.5l-16 -94l130 24l8 -32q7 -24 -7 -40t-37 -11l-94 19l20 -211q2 -23 -13 -36t-41 -7l-43 10l27 244l-122 -25z" />
<glyph unicode="&#x2021;" horiz-adv-x="439" d="M58 379q-7 24 7 40t37 11l89 -18v94l-120 -24l-8 35q-7 24 7 38t37 10l88 -16l-23 116l33 8q26 7 42 -6.5t12 -35.5l-16 -84l130 24l8 -32q7 -24 -7 -40t-37 -11l-89 18v-95l120 25l8 -35q7 -24 -7 -38t-37 -10l-88 16l23 -116l-33 -8q-26 -7 -42 6.5t-12 35.5l16 84 l-130 -24z" />
<glyph unicode="&#x2022;" horiz-adv-x="500" d="M134 310q0 55 32.5 89t83.5 34t83.5 -34t32.5 -89q0 -56 -32.5 -90t-83.5 -34t-83.5 34t-32.5 90z" />
<glyph unicode="&#x2026;" horiz-adv-x="727" d="M36 56q0 31 19.5 51.5t51.5 20.5q35 0 55 -19.5t20 -51.5q0 -31 -19 -51.5t-52 -20.5q-37 0 -56 19.5t-19 51.5zM294 56q0 31 19.5 51.5t51.5 20.5q35 0 55 -19.5t20 -51.5q0 -31 -19 -51.5t-52 -20.5q-37 0 -56 19.5t-19 51.5zM544 56q0 31 19.5 51.5t51.5 20.5 q35 0 55 -19.5t20 -51.5q0 -31 -19 -51.5t-52 -20.5q-37 0 -56 19.5t-19 51.5z" />
<glyph unicode="&#x202f;" horiz-adv-x="187" />
<glyph unicode="&#x2030;" horiz-adv-x="924" d="M31 501q0 74 38.5 115t100.5 41t98 -38.5t36 -114.5q0 -77 -37.5 -117.5t-102.5 -40.5q-64 0 -98.5 39t-34.5 116zM64 176l441 368l57 -67l-443 -368zM110 497q0 -88 56 -88q60 0 60 93q0 91 -58 91t-58 -96zM312 141q0 75 38 115.5t101 40.5q61 0 97.5 -38.5 t36.5 -114.5t-37.5 -117t-102.5 -41q-64 0 -98.5 39.5t-34.5 115.5zM390 138q0 -89 57 -89q59 0 59 94q0 90 -57 90q-59 0 -59 -95zM621 141q0 75 38 115.5t101 40.5q62 0 98 -38.5t36 -114.5q0 -77 -37.5 -117.5t-102.5 -40.5q-64 0 -98.5 39.5t-34.5 115.5zM700 138 q0 -89 56 -89q60 0 60 94q0 90 -58 90t-58 -95z" />
<glyph unicode="&#x2039;" horiz-adv-x="326" d="M47 264q0 28 29 51l170 136l47 -45l-120 -143l113 -160l-47 -42l-174 161q-18 17 -18 42z" />
<glyph unicode="&#x203a;" horiz-adv-x="326" d="M34 408l47 45l170 -136q29 -23 29 -51q0 -27 -20 -45l-172 -158l-47 42l113 158z" />
<glyph unicode="&#x2044;" horiz-adv-x="173" d="M-115 -6l324 692l78 -33l-326 -694z" />
<glyph unicode="&#x205f;" horiz-adv-x="234" />
<glyph unicode="&#x20ac;" horiz-adv-x="561" d="M40 206v82h405v-82h-210q12 -59 43.5 -88t87.5 -29q65 0 121 47l57 -80q-75 -68 -190 -68q-205 0 -243 218h-71zM40 345v82h71q11 113 82 171.5t172 58.5q94 0 171 -41v-140l-102 -7v47q0 15 -4 21.5t-17 11.5q-22 9 -54 9q-55 0 -87.5 -37t-38.5 -94h212v-82h-405z" />
<glyph unicode="&#x2122;" horiz-adv-x="779" d="M39 569v96h283v-96l-56 -4v20q0 9 -2.5 12.5t-12.5 3.5h-30v-217l40 -3v-52h-161v51l27 1q14 3 14 14v206h-34q-12 0 -12 -16v-20zM337 329v51l18 2q13 0 13 14l10 209l-31 2v58h129l76 -200h1l76 200h116v-56l-16 -1q-16 -3 -16 -18l13 -206l32 -2v-53h-133v51l18 2 q14 0 14 13l-9 162h-2l-74 -195h-52l-78 196h-1l-10 -174l33 -2v-53h-127z" />
<glyph unicode="&#x2202;" horiz-adv-x="555" d="M54 207q0 97 55 155t147 58q65 0 121 -35q-10 72 -76.5 126t-161.5 71l24 87q177 -33 253 -133.5t76 -263.5q0 -81 -20 -142.5t-71 -102.5t-130 -41q-111 0 -164 62t-53 159zM170 205q0 -63 26.5 -97t75.5 -34q106 0 106 180q0 22 -1 34q-47 45 -109 45q-46 0 -72 -34 t-26 -94z" />
<glyph unicode="&#x2206;" horiz-adv-x="669" d="M16 0l257 665h125l255 -665h-637zM169 93h331l-163 445h-4z" />
<glyph unicode="&#x220f;" horiz-adv-x="687" d="M11 -51l36 3q25 2 25 27v597l-57 4v85h661v-81l-33 -3q-15 -2 -22 -9t-7 -26v-590l57 -3v-85h-241v81l36 3q25 1 25 27v579h-296v-602l59 -3v-85h-243v81z" />
<glyph unicode="&#x2211;" horiz-adv-x="586" d="M27 -37l260 306l-251 300v96h516v-177l-102 -7v46q0 17 -5 24t-24 7h-223l234 -288l-246 -295h245q18 0 23 7.5t5 24.5v55l102 -7v-187h-534v95z" />
<glyph unicode="&#x221a;" horiz-adv-x="667" d="M34 423l200 101l129 -382l200 589h118l-262 -745h-113l-141 404l-96 -49z" />
<glyph unicode="&#x221e;" horiz-adv-x="764" d="M41 345q0 67 46.5 114t119.5 47q56 0 96.5 -25.5t81.5 -81.5q50 56 92 82t97 26q71 0 110 -43.5t39 -106.5q0 -75 -43.5 -119.5t-111.5 -44.5q-99 0 -184 97q-84 -99 -179 -99q-77 0 -120.5 42.5t-43.5 111.5zM137 347q0 -32 19.5 -52t54.5 -20q56 0 106 70 q-48 76 -104 76q-37 0 -56.5 -21t-19.5 -53zM450 347q53 -72 109 -72q31 0 48.5 22t17.5 53q0 33 -17 52t-50 19q-29 0 -53.5 -18.5t-54.5 -55.5z" />
<glyph unicode="&#x222b;" horiz-adv-x="390" d="M29 -136l16 75q39 -12 65 -12q27 0 37.5 12t9.5 49q0 7 -3 52l-25 434q-3 51 -3 73q0 60 31.5 100t104.5 40q53 0 105 -18l-12 -75q-39 12 -67 12t-39.5 -14t-9.5 -55q1 -15 2.5 -40t1.5 -32l25 -408q0 -6 1.5 -21t2 -28t0.5 -20q2 -64 -31 -104t-100 -40q-62 0 -112 20z " />
<glyph unicode="&#x2248;" horiz-adv-x="620" d="M49 406q68 104 149 104q40 0 106.5 -35t98.5 -35q47 0 92 63l69 -58q-61 -99 -152 -99q-49 0 -114.5 34t-89.5 34q-42 0 -91 -64zM51 199q70 104 149 104q40 0 107 -35t98 -35q47 0 92 63l69 -58q-61 -99 -151 -99q-49 0 -114.5 34t-89.5 34q-43 0 -91 -64z" />
<glyph unicode="&#x2260;" horiz-adv-x="535" d="M65 162v97h132l27 95h-159v96h186l29 104h96l-28 -104h122v-96h-148l-26 -95h174v-97h-200l-28 -105h-100l29 105h-106z" />
<glyph unicode="&#x2264;" horiz-adv-x="535" d="M73 19v97h390v-97h-390zM74 322v82l353 173l40 -89l-262 -122l264 -125l-42 -90z" />
<glyph unicode="&#x2265;" horiz-adv-x="535" d="M73 241l264 125l-262 122l40 89l353 -173v-82l-353 -171zM79 19v97h390v-97h-390z" />
<glyph unicode="&#x25fc;" horiz-adv-x="505" d="M0 0v505h505v-505h-505z" />
</font>
</defs>
</svg>
