<?xml version="1.0" encoding="utf-8"?>
<!-- Generator: Adobe Illustrator 23.0.1, SVG Export Plug-In . SVG Version: 6.00 Build 0)  -->
<svg version="1.1" id="full_color" xmlns="http://www.w3.org/2000/svg" xmlns:xlink="http://www.w3.org/1999/xlink" x="0px" y="0px"
	 viewBox="0 0 49.6 49.6" style="enable-background:new 0 0 49.6 49.6;" xml:space="preserve">
<style type="text/css">
	.st0{fill:#FFFFFF;}
</style>
<path class="st0" d="M25,36.4c0-6.8-5.8-14.5-6.3-14.2c-1.4,0.9,4,5.3,4,13.6c0,4.6-2.7,9.2-8.7,9.2c-5.9,0-10-3.7-10-9.4
	C4,30.3,7.7,25,9.9,22.4c0.9,1.3,2.9,4.4,3.4,5.1c0.6,0.9,1.3,2.9-0.1,3.1c-2,0.3-2.1-2.9-2.2-3.8c0-0.3-0.5-0.4-0.7-0.1
	c-0.6,1.1-1.1,4.6,0.8,6.2c1.3,1.1,3.7,1.2,4.7-1.4c1.5,2.6,1.9,5,2.1,6.6c0,0.3,0.4,0.3,0.5,0c0.9-5.3-1.6-9.1-2.4-10.7
	c-0.8-1.7-4.3-6.5-4.9-7.5S8.9,16.1,8.9,13c0-4.6,3.8-9.1,4.5-9.1s4.7,3.7,4.7,9.2c0,2.1-0.5,3.6-1,4.7c-0.2,0.4-0.7,0.4-0.9,0
	c-2.2-3.4-2.2-4.2-0.8-5.1c0.9-0.7-3.6-2.5-3.4,1.3c0.1,2,2.9,6.1,3.6,6.9c0.7,0.8,4.7-0.9,4.7-8.2s-6.2-12-7-12s-7,5.9-7,12.2
	c0,3.1,1.1,5.7,2.4,7.8c-0.2,0.1-8,6.4-7.9,15.7c0.1,7.2,4.9,12.3,12.7,12.3C20.5,48.7,25,44,25,36.4z"/>
</svg>
