<?xml version="1.0" standalone="no"?>
<!DOCTYPE svg PUBLIC "-//W3C//DTD SVG 1.1//EN" "http://www.w3.org/Graphics/SVG/1.1/DTD/svg11.dtd">
<svg xmlns="http://www.w3.org/2000/svg">
<defs >
<font id="Alegreya" horiz-adv-x="549" ><font-face
    font-family="Alegreya"
    units-per-em="1000"
    panose-1="0 0 0 0 0 0 0 0 0 0"
    ascent="1016"
    descent="-345"
    alphabetic="0" />
<glyph unicode=" " horiz-adv-x="174" />
<glyph unicode="!" horiz-adv-x="285" d="M109 221L93 235L74 666L86 683L216 704L232 687L171 232L109 221ZM124 -11Q88 -11 70 10T51 63Q51 99 72 121T131 144Q166 144 185 124T204 70Q204 35 183 12T124 -11Z" />
<glyph unicode="&quot;" horiz-adv-x="320" d="M62 409L47 412Q49 470 47 522T43 607T40 640L139 654L147 644Q147 644 142 612T129 531T109 428L62 409ZM206 409L191 412Q193 470 191 522T187 607T184 640L283 654L291 644Q291 644 286 612T273 531T253 428L206 409Z" />
<glyph unicode="#" horiz-adv-x="525" d="M93 33L83 41L111 180L15 179L9 190L24 258L126 257L136 309L145 352H49L43 363L58 431L158 430L186 570L256 577L267 571L236 429H283H330L358 570L429 577L439 571L408 430L506 431L511 420L497 352H393L387 323L374
257L471 259L477 247L462 179L361 180L334 44L265 33L255 41L284 180L227 181L189 180L162 44L93 33ZM298 256L308 309L317 353H258H221L215 323L202 257H246L298 256Z" />
<glyph unicode="$" horiz-adv-x="466" d="M170 26L219 479L291 484L242 31L170 26ZM157 -159L150 -152L170 26L242 31L222 -151L157 -159ZM219 479L237 649L304 658L310 649L291 484L219 479ZM192 -9Q148 -9 115 -2T63 13T44 21L36 33Q36 33 39 53T46 104T50 164L126
170Q126 131 134 109T162 78T213 69Q250 69 271 83T293 121Q293 142 276 156T231 184T172 210Q140 225 111 243T62 287T43 352Q43 399 71 434T151 489T269 510Q311 510 343 505T394 494T413 489L420 477Q420 477 416 459T408 410T400 343L331 338L323 343Q323 343
323 350T324 367Q324 399 307 413T248 428Q216 428 195 414T174 377Q174 349 207 331T282 295Q316 280 349 262T405 217T427 149Q427 101 398 66T317 11T192 -9Z" />
<glyph unicode="%" horiz-adv-x="710" d="M547 -12Q479 -12 443 33T406 153Q406 207 425 247T480 309T563 332Q611 332 642 311T688 254T704 171Q704 118 686 77T632 12T547 -12ZM161 310Q93 310 56 355T19 475Q19 529 38 569T93 631T177 654Q224 654 255 633T302
575T317 492Q317 440 299 399T246 334T161 310ZM173 407Q195 407 213 413T243 433T255 474Q255 509 232 531T161 553Q122 553 102 536T81 487Q81 458 93 441T127 415T173 407ZM560 85Q581 85 600 91T630 111T641 152Q641 187 618 209T548 231Q509 231 488 214T467
165Q467 137 480 119T513 93T560 85ZM144 -93L81 -67L76 -53Q76 -53 89 -33T124 20T173 94T229 180T284 265L545 678L605 654L613 635Q613 635 594 607T545 532T479 432T409 324T347 228Q320 185 292 140T237 53T190 -22T157 -74T144 -93Z" />
<glyph unicode="&amp;" horiz-adv-x="718" d="M585 -42Q569 -30 538 -3T459 66Q417 29 369 9T264 -12Q198 -12 148 8T70 68T42 161Q42 206 61 237T104 287T148 316T167 325V334Q127 376 107 412T87 489Q87 537 115 574T193 632T311 654Q359 654 395 645T447 631L450
614L401 523Q397 523 393 523T384 523Q355 549 332 559T279 570Q242 570 222 553T202 501Q202 474 212 450T246 400T312 337L482 191Q496 226 496 267Q496 316 482 338T438 361Q428 361 413 359T385 355T370 353L355 421Q355 423 372 429T418 436L623 448Q668 451
686 453T705 459L719 436L702 387Q695 372 680 366T632 359H554L550 352Q562 338 568 318T575 276Q575 243 565 211T534 147L671 32V15Q663 8 648 -3T616 -25T585 -42ZM297 72Q329 72 358 81T412 109L212 288Q185 269 170 243T154 186Q154 131 191 102T297 72Z"
/>
<glyph unicode="&apos;" horiz-adv-x="176" d="M62 409L47 412Q49 470 47 522T43 607T40 640L139 654L147 644Q147 644 142 612T129 531T109 428L62 409Z" />
<glyph unicode="(" horiz-adv-x="290" d="M232 -146Q232 -146 214 -137T170 -107T118 -51T74 37T56 163V336Q56 410 74 463T118 552T172 609T217 640T235 649H245L276 604L275 598Q275 598 264 591T236 567T203 522T175 451T163 351V178Q163 115 175 69T204 -9T238
-60T267 -88T279 -97V-105L240 -146H232Z" />
<glyph unicode=")" horiz-adv-x="290" d="M45 -146L14 -101L15 -95Q15 -95 26 -88T54 -64T87 -19T115 52T127 152V325Q127 388 115 434T86 512T52 563T23 591T11 600V608L50 649H58Q58 649 75 640T119 610T172 554T216 466T234 340V167Q234 94 216 41T171 -49T118
-106T73 -137T55 -146H45Z" />
<glyph unicode="*" horiz-adv-x="415" d="M136 424Q136 424 124 428T96 441T64 459V469Q64 469 76 481T110 510T158 546L194 527L197 519Q181 496 168 475T145 439T136 424ZM151 560Q126 569 101 575T59 586T43 590Q43 590 43 603T46 634T54 669L64 673Q64 673
78 665T117 641T166 607L159 566L151 560ZM267 404L257 407Q257 407 250 422T233 463T213 520L243 549H252Q269 527 285 507T312 474T323 461Q323 461 315 451T295 428T267 404ZM185 613L178 617Q177 645 176 671T173 713T171 730Q171 730 184 733T215 740T251
744L258 735Q258 735 255 719T244 676T226 618L185 613ZM255 565L237 601L240 611Q266 620 290 629T329 644T345 651Q345 651 352 640T368 613T382 580L376 571Q376 571 360 570T316 566T255 565Z" />
<glyph unicode="+" horiz-adv-x="506" d="M213 25L202 32Q202 32 202 48T202 89T203 146T203 209Q172 209 141 209T82 208T40 208T24 208L17 219L31 306Q31 306 57 306T123 306T203 305L204 487L291 497L303 490Q303 490 303 473T301 427T299 367T297 305Q327
306 359 307T419 309T464 310T482 311L489 299L479 210L297 209Q297 168 297 129T298 65T298 39L213 25Z" />
<glyph unicode="," horiz-adv-x="269" d="M67 -141L31 -112V-95Q63 -73 83 -42T103 19Q103 39 95 59T73 91L75 105Q93 119 114 129T153 140Q182 140 200 117T219 51Q219 15 198 -21T142 -87T67 -141Z" />
<glyph unicode="-" horiz-adv-x="355" d="M60 195L50 207L58 284L222 302Q263 307 279 309T295 312L305 299L296 221L60 195Z" />
<glyph unicode="." horiz-adv-x="275" d="M134 -11Q98 -11 80 10T61 63Q61 99 82 121T141 144Q176 144 195 124T214 70Q214 35 193 12T134 -11Z" />
<glyph unicode="/" horiz-adv-x="329" d="M29 -110L20 -99Q20 -99 28 -70T51 6T80 111T111 226L226 675H305L317 660Q317 660 309 630T288 551T258 442T225 323T196 215Q180 153 165 95T138 -9T119 -83T112 -110H29Z" />
<glyph unicode="0" horiz-adv-x="503" d="M239 -12Q174 -12 126 18T53 104T27 237Q27 318 57 379T140 475T265 510Q330 510 377 480T451 395T477 263Q477 181 447 119T364 23T239 -12ZM256 116Q323 116 360 149T397 240Q397 282 379 312T326 360T245 377Q180 377
143 344T106 251Q106 210 124 180T176 133T256 116Z" />
<glyph unicode="1" horiz-adv-x="358" d="M32 -11L40 51Q74 54 93 63T121 91T129 144V360Q129 396 117 406T78 417Q63 417 46 415T28 412L22 418L28 475Q38 476 57 478T100 484T148 490Q197 496 226 501T268 508T282 510L292 481Q274 467 266 451T254 402Q250
362 248 316T245 223T244 130Q244 93 253 79T288 64Q306 64 321 65T337 66L340 61L329 -4Q329 -4 314 -4T276 -2T229 -1T186 0Q163 0 137 -2T87 -6T48 -9T32 -11Z" />
<glyph unicode="2" horiz-adv-x="483" d="M16 23L91 106Q145 169 178 213T225 289T240 344Q240 374 224 390T177 406Q147 406 117 386T64 329H51L34 400Q59 434 90 458T157 496T227 510Q297 510 339 475T382 381Q382 350 366 315T309 230T194 99L198 91H297Q329
91 347 99T376 126T394 182L468 189Q468 189 465 172T457 126T448 65T440 3L426 -9Q426 -9 401 -9T334 -6T247 -3T158 -1T87 0L23 -9L16 23Z" />
<glyph unicode="3" horiz-adv-x="430" d="M93 -100Q51 -100 34 -78T14 0L26 14Q65 1 112 1Q154 1 187 13T240 48T259 98Q259 140 223 159T110 180L101 189L94 249L159 264Q193 279 214 305T235 360Q235 386 217 401T172 416Q147 416 118 403T63 366Q60 366 57
366T50 366L31 435Q40 443 60 455T106 480T161 501T215 510Q282 510 322 478T362 393Q362 352 332 315T252 256V249Q320 231 355 198T390 117Q390 78 365 40T296 -31T201 -81T93 -100Z" />
<glyph unicode="4" horiz-adv-x="470" d="M249 -100L241 -90Q241 -90 242 -76T244 -37T246 15T247 70Q188 72 125 73T7 74Q8 90 8 106T10 139L276 508Q277 508 279 509T282 510L363 499V157H445L453 145L444 64Q444 64 422 65T363 67Q364 31 365 -3T368 -58T370
-80L362 -88L249 -100ZM111 157H248V337H238L111 157Z" />
<glyph unicode="5" horiz-adv-x="427" d="M81 -100Q43 -100 24 -79T2 0L14 14Q35 7 56 4T100 1Q144 1 178 13T233 48T253 99Q253 126 235 144T176 176T63 199L54 210Q59 259 62 307T68 393T72 455T73 479L81 487L275 494Q304 496 317 504T338 534L391 538L365
392L353 381Q353 381 326 383T253 387T152 389L145 297Q220 282 273 261T354 209T382 130Q382 85 355 44T284 -29T187 -81T81 -100Z" />
<glyph unicode="6" horiz-adv-x="467" d="M228 -12Q170 -12 127 15T59 90T34 203Q34 269 58 330T129 443T238 535T380 598L390 593L409 540Q284 485 219 399T153 203Q153 139 177 103T245 67Q285 67 306 92T327 165Q327 198 316 222T284 259T237 273Q215 273 188
262T137 232L173 337L187 322Q215 338 238 348T274 360Q324 360 362 339T421 279T443 190Q443 130 416 85T341 14T228 -12Z" />
<glyph unicode="7" horiz-adv-x="427" d="M183 -100L94 -73L83 -49L308 396L172 388Q140 386 123 379T99 353T84 300L25 294Q25 294 27 312T33 361T40 427T45 497L51 502Q51 502 68 501T114 499T173 498H389L427 451Q390 374 362 312T310 199T268 101T230 11L199
-100H183Z" />
<glyph unicode="8" horiz-adv-x="480" d="M224 -12Q173 -12 131 5T64 54T39 130Q39 172 58 201T103 250T152 279Q112 304 83 339T53 429Q53 475 79 513T150 575T252 598Q298 598 337 582T400 534T424 459Q424 423 410 397T375 352T334 323Q362 307 385 287T424
239T439 174Q439 122 411 80T334 13T224 -12ZM242 60Q277 60 301 82T326 140Q326 166 309 184T264 218T205 249Q194 242 180 230T156 200T146 156Q146 130 158 108T192 73T242 60ZM275 352Q289 363 302 383T316 436Q316 477 294 499T238 521Q205 521 186 501T166
454Q166 430 181 413T222 381T275 352Z" />
<glyph unicode="9" horiz-adv-x="463" d="M88 -101L78 -95L59 -42Q184 13 249 98T315 295Q315 358 291 394T223 430Q183 430 162 405T141 332Q141 301 153 277T185 238T231 224Q253 224 280 235T331 265L295 161L281 176Q253 160 230 150T194 138Q144 138 106
159T47 219T25 307Q25 368 52 413T128 484T240 510Q298 510 341 483T409 408T434 294Q434 228 410 167T339 54T230 -37T88 -101Z" />
<glyph unicode=":" horiz-adv-x="238" d="M388 -11Q352 -11 334 10T315 63Q315 99 336 121T395 144Q430 144 449 124T468 70Q468 35 447 12T388 -11ZM132 262Q96 262 78 283T59 336Q59 372 80 394T139 417Q174 417 193 397T212 343Q212 308 191 285T132 262Z" />
<glyph unicode=";" horiz-adv-x="238" d="M67 -141L31 -112V-95Q63 -73 83 -42T103 19Q103 39 95 59T73 91L75 105Q93 119 114 129T153 140Q182 140 200 117T219 51Q219 15 198 -21T142 -87T67 -141ZM132 262Q96 262 78 283T59 336Q59 372 80 394T139 417Q174
417 193 397T212 343Q212 308 191 285T132 262Z" />
<glyph unicode="&lt;" horiz-adv-x="472" d="M391 57Q391 57 377 64T338 82T285 106T226 132Q200 144 168 158T105 185T56 206T36 214L28 227L29 322L221 404Q253 417 284 430T342 455T384 473T400 480L413 472L432 397Q432 397 415 391T371 375T312 352T250 327L125
276V269L264 209Q302 191 340 175T403 148T428 136L433 121L391 57Z" />
<glyph unicode="=" horiz-adv-x="506" d="M24 297L17 308L31 395Q31 395 55 395T115 395T192 394T265 394Q295 394 332 395T404 397T460 399T482 400L489 388L479 299L252 298Q218 298 179 298T104 298T47 297T24 297ZM24 120L17 131L31 219Q31 219 55 219T115
219T192 218T265 218Q295 218 332 219T404 221T460 223T482 224L489 212L479 122L252 121Q218 121 179 121T104 121T47 120T24 120Z" />
<glyph unicode="&gt;" horiz-adv-x="472" d="M73 57L60 65L40 140Q40 140 57 146T102 162T161 185T222 211L347 261V268L209 329Q170 346 132 362T69 390T44 401L39 416L81 480Q81 480 96 473T134 456T187 432T246 405Q273 393 305 379T367 353T416 332T436 323L444
310L443 215L251 133Q219 120 188 107T130 82T89 64T73 57Z" />
<glyph unicode="?" horiz-adv-x="369" d="M113 214L101 220L77 346L80 360L189 423Q212 438 227 455T242 496Q242 545 192 571T57 601L49 615L86 698L101 704Q174 702 232 679T324 618T358 531Q358 496 347 471T313 424T261 381T193 334L190 326L205 243L200 232L113
214ZM151 -11Q115 -11 97 10T78 63Q78 99 99 121T158 144Q193 144 212 124T231 70Q231 35 210 12T151 -11Z" />
<glyph unicode="@" horiz-adv-x="861" d="M459 -223Q355 -220 274 -190T138 -105T53 21T24 179Q24 251 46 319T109 445T207 547T332 615T480 640Q589 640 668 600T792 489T837 325Q837 254 814 193T747 86T639 14T492 -12Q472 -12 460 -1T448 28Q448 33 451 47T458
82T466 123T475 164T483 195L475 196Q429 112 390 64T312 -12Q258 -12 229 27T200 133Q200 195 221 254T278 361T355 437T440 465L528 448L535 470L546 476L624 463L632 446Q632 446 627 424T612 364T592 279T572 181T555 82L560 77Q621 77 663 104T728 181T751
294Q751 378 714 438T610 530T452 562Q377 562 315 534T207 457T137 344T113 205Q113 100 154 20T279 -107T490 -158Q490 -162 490 -166T490 -174L459 -223ZM343 102Q358 102 384 137T441 230T499 359Q495 361 481 368T449 381T410 388Q389 388 369 360T335 285T321
188Q321 153 327 128T343 102Z" />
<glyph unicode="A" horiz-adv-x="625" d="M336 -8L331 0L336 59Q369 62 385 65T407 76T413 95Q413 102 412 110T408 130L387 207Q368 208 341 208T295 209Q271 209 244 207T199 202L174 125Q168 103 168 94Q168 76 178 69T215 62H258L263 55L256 -6Q256 -6 233
-5T176 -2T110 0Q83 0 55 0T9 -2T-10 -3L-3 62Q21 66 36 81T63 130L242 637L395 653L406 648Q406 648 412 622T431 553T458 454T488 341T520 229T550 131Q560 95 577 80T629 62L633 55L626 -3Q626 -3 605 -2T555 -1T504 0Q462 0 423 -2T360 -6T336 -8ZM223 286H295Q311
286 332 287T369 289L310 512H297L223 286Z" />
<glyph unicode="B" horiz-adv-x="627" d="M182 0Q161 0 136 -1T89 -5T52 -8T38 -10L45 56Q88 64 103 80T118 136L119 528Q119 556 113 567T87 578Q78 578 66 577T53 576L46 584L55 644Q55 644 71 644T110 643T156 643T193 642Q203 642 221 642T261 643T301 645T332
646T344 647Q447 647 501 608T555 492Q555 440 525 402T447 339Q488 329 519 309T570 260T589 190Q589 130 557 85T466 15T330 -10Q316 -10 297 -9T257 -5T217 -2T182 0ZM249 281L245 133Q245 101 267 88T340 74Q390 74 417 100T445 175Q445 260 342 282L249 281ZM251
368Q251 368 263 367T292 364T324 360T347 359Q347 359 357 364T382 381T406 414T417 467Q417 518 383 542T277 566Q267 566 264 563T259 547Q257 520 256 487T253 422T251 368Z" />
<glyph unicode="C" horiz-adv-x="616" d="M326 -12Q234 -12 168 26T65 135T29 303Q29 383 53 447T124 558T234 629T379 654Q410 654 443 650T505 641T551 633T569 629L575 616Q575 616 570 591T558 524T548 428L453 422Q453 422 454 438T455 474Q455 519 428 539T343
559Q291 559 255 534T200 460T181 338Q181 256 201 198T260 110T350 79Q405 79 436 112T479 219L575 225Q575 225 573 208T567 164T560 104T555 40L545 28Q545 28 516 18T438 -2T326 -12Z" />
<glyph unicode="D" horiz-adv-x="694" d="M318 -12Q318 -12 303 -10T264 -6T214 -2T167 0Q141 0 111 -2T61 -7T40 -10L46 57Q89 65 104 82T119 142V523Q119 555 113 566T88 577Q78 577 66 576T54 575L49 584L57 645Q57 645 71 645T105 644T147 643T183 642Q200
642 226 642T279 644T323 645T341 646Q442 646 514 611T626 508T665 347Q665 267 640 202T568 89T458 14T318 -12ZM287 562Q271 562 265 557T258 538Q252 409 249 310T245 145Q245 117 252 101T278 79T331 72Q419 72 465 134T512 316Q512 401 488 455T413 536T287
562Z" />
<glyph unicode="E" horiz-adv-x="596" d="M38 -10L45 57Q87 63 102 81T117 143L118 524Q118 557 112 567T86 578Q80 578 71 578T55 576L49 585L57 645Q80 645 112 644T177 643T238 642Q310 642 367 643T467 647T542 654L550 643Q545 618 540 586T532 522T527 462L438
456Q439 464 439 476T440 496Q440 517 436 529T419 548T381 557T312 560Q288 560 277 558T262 549T258 526L248 309L245 137Q245 110 249 98T267 81T310 77Q357 77 386 81T431 96T455 131T468 191L550 198L557 189Q550 152 543 100T530 4L520 -7Q466 -5 408 -4T297
-1T209 0Q173 0 125 -2T38 -10ZM235 278L243 369Q250 369 268 369T307 369T345 368Q361 368 396 371T461 377L469 368L455 283Q429 284 390 285T324 286Q302 286 277 284T235 278Z" />
<glyph unicode="F" horiz-adv-x="531" d="M38 -11L45 56Q88 63 102 81T117 143L118 524Q118 556 112 567T86 578Q77 578 66 577T55 576L49 585L57 645Q57 645 74 645T120 644T179 643T238 642Q302 642 354 643T449 647T519 654L527 643Q527 643 523 617T514 548T506
460L417 455Q417 455 418 471T419 496Q419 524 412 537T382 555T312 560Q288 560 277 558T262 549T258 526L251 352L345 351Q360 351 385 353T430 358T450 360L457 351L443 266Q443 266 423 267T375 268T324 269Q302 269 282 267T248 262L245 140Q245 102 254 89T288
76Q300 76 315 77T342 80T353 81L362 71L351 -4Q351 -4 334 -4T292 -2T241 -1T195 0Q159 0 123 -3T62 -8T38 -11Z" />
<glyph unicode="G" horiz-adv-x="654" d="M327 -12Q234 -12 168 26T65 135T29 303Q29 412 71 490T194 611T384 654Q417 654 452 650T516 641T564 633T582 629L589 616Q589 616 584 592T573 527T563 434L467 427Q467 427 468 443T470 482Q470 524 445 541T360 559Q300
559 260 535T200 462T179 337Q179 255 200 197T259 109T351 79Q381 79 403 86T438 99T450 106V201Q450 231 442 240T405 249Q396 249 384 249T362 249T353 249L348 257L358 328Q370 328 392 328T441 326T497 325Q522 325 545 326T582 329T597 330L604 292Q587 281
579 265T567 217T564 128Q564 100 565 78T571 41L562 29Q562 29 533 19T451 -2T327 -12Z" />
<glyph unicode="H" horiz-adv-x="747" d="M39 -9L46 55Q89 63 103 80T118 139V526Q118 557 111 567T82 578Q76 578 67 578T52 577L47 585L54 643Q79 643 115 643T173 642Q194 642 234 644T322 649L316 583Q291 579 279 573T262 553T256 511L250 367L381 365Q412
365 438 366T500 372V526Q500 557 493 567T464 578Q458 578 449 578T433 577L428 585L436 643Q446 643 469 643T519 642T562 642Q582 642 620 644T707 649L702 584Q665 579 654 568T640 529Q637 484 635 432T631 326T629 223T628 136Q628 94 636 79T669 64Q679
64 690 65T707 67L711 60L702 -3Q674 -2 632 -1T558 0Q544 0 519 0T468 -1T420 -2L428 62Q457 63 472 71T493 99T500 155V284Q484 284 464 284T423 285T390 285Q381 285 359 284T307 281T248 275L245 132Q245 91 253 77T284 63Q293 63 303 64T321 66L326 60L317
-3Q305 -2 282 -2T236 -1T197 0Q173 0 142 -1T83 -4T39 -9Z" />
<glyph unicode="I" horiz-adv-x="365" d="M38 -9L44 55Q89 64 103 80T118 139V526Q118 557 111 567T82 578Q76 578 66 578T47 577L42 585L50 643Q82 643 119 643T188 642Q207 642 244 644T328 649L323 583Q285 578 273 568T258 529Q255 481 253 428T249 320T246
218T245 132Q245 91 253 77T284 63Q295 63 307 64T328 66L332 60L323 -3Q301 -2 273 -2T219 -1T176 0Q153 0 115 -2T38 -9Z" />
<glyph unicode="J" horiz-adv-x="332" d="M38 -153L10 -113L13 -102Q51 -74 71 -47T100 20T108 123L109 526Q109 557 102 567T74 578Q67 578 58 577T40 576T32 575L27 583L34 642H157Q191 642 225 644T283 648T306 650L301 583Q268 578 259 569T248 529Q247 501
246 460T242 371T239 272T236 178T235 102Q235 3 188 -58T38 -153Z" />
<glyph unicode="K" horiz-adv-x="657" d="M268 337L417 499Q444 526 444 549Q444 563 431 570T390 579L387 586L395 647Q395 647 408 646T441 644T483 643T519 642Q534 642 553 642T591 644T622 645T635 646L641 635L633 579Q613 571 594 558T554 522T504 467L396
347L531 145Q561 100 586 80T646 58L652 49L644 -3Q644 -3 629 -5T593 -9T554 -13T529 -15Q498 -15 472 5T418 69L265 316L268 337ZM118 526Q118 557 111 567T82 578Q74 578 63 578T52 577L47 585L54 644Q54 644 70 644T110 643T155 642T188 642Q204 642 227 643T272
645T309 647T324 649L319 583Q282 576 269 565T255 525L245 132Q244 91 252 77T284 63Q300 63 311 64T323 66L328 60L319 -3Q319 -3 304 -3T264 -2T217 -1T176 0Q155 0 131 0T86 -1T51 -2T38 -3L47 60Q91 67 104 81T118 139V526Z" />
<glyph unicode="L" horiz-adv-x="530" d="M43 -10L51 57Q89 63 103 81T117 143L118 526Q118 557 111 567T82 578Q73 578 62 578T51 577L46 585L54 643Q66 643 89 643T138 642T188 642Q205 642 230 643T281 645T323 647T340 649L333 580Q299 576 284 569T264 547T257
505Q253 451 251 389T247 262T246 138Q246 113 250 100T269 82T309 77Q345 77 368 82T404 104T426 150T440 228L521 237L528 227Q528 227 524 195T513 112T502 2L492 -8Q492 -8 465 -7T396 -5T305 -2T212 0Q169 0 130 -2T67 -7T43 -10Z" />
<glyph unicode="M" horiz-adv-x="841" d="M371 -16Q341 81 312 168T258 328T215 452H207Q207 443 205 415T201 349T195 270T190 191T186 127T184 95Q184 63 216 63Q222 63 235 63T250 64L256 59L245 -4Q235 -4 213 -3T167 -1T128 0Q116 0 99 -1T66 -4T40 -7T29
-8L35 57Q65 60 77 75T96 129Q98 140 101 172T108 248T117 338T126 427T133 497T136 532Q136 551 130 560T107 575T60 583L55 589L64 647Q81 646 105 645T152 643T189 642Q206 642 226 642T266 644T295 646Q316 570 337 502T375 377T405 282T423 227H431Q436 242
448 281T479 376T520 500T565 643Q579 643 599 642T642 641T683 642Q699 642 721 643T762 646T785 648L789 644L783 584Q741 581 725 570T709 531Q709 518 710 487T714 415T720 327T727 236T733 155Q740 100 749 82T782 63Q790 63 799 64T810 65L814 60L805 -3Q799
-3 782 -2T743 -1T704 0Q687 0 664 -1T618 -4T579 -7T562 -8L569 57Q599 61 612 72T625 107Q625 115 624 138T620 194T615 265T611 339T606 405T604 452H595Q581 414 564 364T526 254T483 128T439 -7L371 -16Z" />
<glyph unicode="N" horiz-adv-x="728" d="M527 -27Q468 67 415 148T320 291T254 388T230 423H221L220 108Q220 83 227 73T254 63Q260 63 270 63T289 64T298 65L303 59L293 -4Q293 -4 279 -4T245 -2T203 -1T165 0Q139 0 111 -2T64 -6T45 -8L52 58Q82 62 96 76T112
121L124 518Q124 551 108 563T43 581L36 590L43 647Q43 647 61 646T106 644T157 642Q178 642 200 643T236 645T251 646Q291 581 330 520T403 407T465 315T507 253T522 230H532L530 535Q529 558 522 568T497 578Q487 578 477 578T462 577L459 584L466 646Q466 646
479 646T513 644T554 643T593 642Q617 642 644 643T691 645T710 647L705 581Q672 577 657 563T641 518L628 -14L527 -27Z" />
<glyph unicode="O" horiz-adv-x="675" d="M315 -12Q227 -12 163 26T64 136T29 304Q29 382 52 446T118 557T222 629T357 654Q448 654 512 616T612 508T647 341Q647 261 623 197T555 86T450 14T315 -12ZM341 73Q389 73 423 98T475 171T494 289Q494 377 475 437T418
528T329 559Q282 559 249 534T197 460T179 343Q179 256 198 196T254 104T341 73Z" />
<glyph unicode="P" horiz-adv-x="576" d="M41 -8L49 58Q90 65 104 82T118 142V524Q118 556 112 567T86 578Q76 578 64 577T52 576L46 584L54 643Q65 643 86 643T133 642T180 642Q193 642 217 642T268 644T312 645T330 646Q399 646 445 631T518 588T558 526T570
455Q570 410 551 369T498 297T422 247T331 228H247L245 152Q245 115 248 96T262 71T292 64Q305 64 321 65T337 66L340 61L331 -3Q331 -3 317 -3T283 -2T242 -1T207 0Q188 0 160 -1T105 -3T60 -6T41 -8ZM338 303Q431 323 431 440Q431 504 395 533T281 563Q267 563
264 561T259 546Q256 492 254 433T249 316L338 303Z" />
<glyph unicode="Q" horiz-adv-x="680" d="M684 -228Q650 -228 620 -220T550 -189T455 -124T315 -12Q227 -12 163 26T64 136T29 304Q29 382 52 446T118 557T222 629T357 654Q448 654 512 616T612 508T647 341Q647 263 621 198T549 86T442 14V5Q497 -33 544 -58T633
-95T712 -108Q746 -108 771 -103T797 -98L804 -104L815 -145Q815 -145 804 -153T777 -174T742 -198T708 -219T684 -228ZM341 73Q389 73 423 98T475 171T494 289Q494 377 475 437T418 528T329 559Q282 559 249 534T197 460T179 343Q179 256 198 196T254 104T341
73Z" />
<glyph unicode="R" horiz-adv-x="641" d="M514 -16Q482 -16 455 7T405 77L318 253H247L245 140Q245 106 249 90T269 69T317 63L320 57L311 -4Q311 -4 297 -4T262 -3T219 -2T179 -1Q148 0 116 -1T61 -4T38 -6L47 60Q89 65 103 82T118 142V529Q118 558 112 568T86
578Q76 578 64 577T52 576L46 584L55 644Q55 644 68 644T102 643T144 642T180 642Q195 642 220 642T270 644T313 645T331 646Q444 646 505 602T566 475Q566 416 531 367T431 285L519 142Q547 97 573 77T631 56L638 47L631 -5L514 -16ZM340 330Q348 333 362 341T391
363T416 400T427 457Q427 512 390 539T276 566Q266 566 263 562T258 544Q255 483 253 435T250 340L340 330Z" />
<glyph unicode="S" horiz-adv-x="539" d="M220 -12Q168 -12 129 -3T67 16T45 26L37 40Q37 40 39 54T44 93T50 148T53 210L135 216Q135 161 145 130T179 87T246 75Q294 75 323 96T352 154Q352 182 331 202T276 239T204 275Q165 294 129 318T69 375T45 455Q45 513
79 558T173 628T311 654Q360 654 398 648T459 634T481 627L488 614Q488 614 483 591T473 528T464 443L390 437L381 443Q381 443 382 454T383 479Q383 524 361 543T285 562Q242 562 215 541T187 489Q187 463 205 444T254 408T318 375Q361 355 402 331T470 274T497
189Q497 129 463 84T366 13T220 -12Z" />
<glyph unicode="T" horiz-adv-x="567" d="M109 -6L117 59Q162 63 183 71T210 100T217 165V566Q176 564 152 560T116 543T97 505T87 435L5 429Q8 463 10 501T14 577T17 642L28 653L127 642H439L540 653L551 642Q552 609 553 571T556 497T561 435L479 429Q474 476
468 503T451 542T417 559T356 566Q353 531 351 480T348 369T346 248T344 134Q344 96 357 81T399 65Q424 65 452 68L456 63L447 -4Q421 -3 388 -2T324 -1T275 0Q258 0 230 0T170 -2T109 -6Z" />
<glyph unicode="U" horiz-adv-x="657" d="M317 -12Q202 -12 144 42T86 204V524Q86 557 80 567T53 578Q45 578 33 577T21 576L19 580L28 645Q28 645 51 644T108 643T169 642Q185 642 205 643T244 645T275 647T288 648L281 582Q249 578 238 567T224 528L217 236Q217
160 249 119T343 77Q405 77 436 110T468 209Q468 229 468 266T467 348T466 432T465 498T464 524Q463 557 457 567T432 578Q424 578 411 577T398 576L396 580L405 645Q405 645 417 645T448 644T487 643T521 642Q547 642 574 643T620 646T639 648L633 583Q596 575
585 566T574 531V220Q574 108 508 48T317 -12Z" />
<glyph unicode="V" horiz-adv-x="624" d="M221 -15Q221 -15 214 10T196 79T169 178T137 293T104 411T72 517Q63 548 46 562T-3 578L-7 585L0 644Q0 644 13 644T47 643T88 643T126 642Q153 642 182 643T237 645T278 648T294 650L299 642L295 583Q261 580 245 576T223
565T217 544Q217 536 222 510T235 447T253 366T274 281T292 205T305 150T310 129H325Q332 148 344 183T371 263T400 354T426 442T446 512T453 548Q453 565 442 572T401 579H361L357 586L363 647Q363 647 387 646T445 643T511 642Q538 642 564 642T609 643T627 644L620
579Q595 576 585 566T565 527L380 5L221 -15Z" />
<glyph unicode="W" horiz-adv-x="962" d="M214 -15Q214 -15 208 10T190 80T164 179T134 293T102 411T71 517Q62 548 45 562T-2 578Q-3 580 -4 581T-6 585L1 644Q1 644 23 644T73 643T122 642Q163 642 200 644T261 648T285 650L290 642L285 583Q253 580 237 576T216
565T210 545Q210 536 215 510T228 445T245 365T265 280T283 204T296 150T301 129H313Q321 150 331 182T354 254T379 336T404 418T425 490Q424 503 422 513T417 533Q411 558 395 568T342 578L338 585L346 644Q346 644 360 644T396 643T441 643T481 642Q518 642 555
644T618 648T643 650L648 642L643 583Q611 580 595 577T573 566T567 544Q567 536 572 510T585 446T603 366T622 281T640 205T654 150T659 129H671Q678 148 689 183T715 264T743 356T770 444T789 514T796 551Q796 567 785 573T745 579H706L702 586L709 647Q709 647
732 646T789 643T853 642Q878 642 903 642T946 643T964 644L957 579Q934 576 924 566T904 527L726 5L573 -15Q570 1 562 36T543 120T516 227T484 346H475L368 5L214 -15Z" />
<glyph unicode="X" horiz-adv-x="681" d="M358 -7L353 0L358 60Q387 61 400 67T414 88Q414 96 410 104T398 124L311 254L243 159Q224 132 216 117T208 92Q208 64 257 62L261 54L255 -6Q255 -6 240 -5T204 -3T161 0T126 1Q111 1 92 0T54 -2T24 -3T11 -4L7 6L14
65Q37 73 61 92T110 139T159 199L259 331L151 493Q132 521 113 537T72 562T22 576L18 581L26 644Q26 644 40 644T77 643T128 642T184 642Q208 642 234 643T284 645T321 648T336 649L341 640L336 584Q304 582 290 575T275 553Q275 538 300 498T366 398Q379 418 396
442T428 489T454 530T465 557Q465 570 454 575T416 583L414 588L420 645Q432 645 454 645T502 643T551 642Q575 642 600 642T644 644T662 645L666 638L660 578Q630 568 609 555T569 523T528 472L419 322L539 150Q568 109 598 89T670 66L673 62L665 -2Q665 -2 651
-2T617 -1T574 0T536 1Q521 1 499 0T452 -2T406 -4T371 -6T358 -7Z" />
<glyph unicode="Y" horiz-adv-x="594" d="M136 -11L143 56Q182 61 201 70T226 99T233 151V182Q233 208 227 230T204 285L106 475Q91 506 77 526T44 559T-8 576L-10 581L-3 644Q-3 644 11 644T46 643T89 642T125 641Q145 641 172 642T224 645T267 648T285 649L289
640L284 584Q249 581 236 575T223 553Q223 545 231 525T251 476T275 421T297 372T310 344H319L400 512Q415 541 415 559Q415 570 403 576T363 583L361 588L368 645Q380 645 402 644T451 642T500 641Q523 641 546 642T585 644T601 645L605 638L598 578Q570 569 551
554T515 514T476 450L381 271Q372 254 368 236T363 194T362 131Q361 94 371 80T408 65Q425 65 441 66T458 68L462 63L453 -4Q453 -4 435 -4T391 -2T337 -1T290 0Q268 0 242 -2T192 -5T152 -9T136 -11Z" />
<glyph unicode="Z" horiz-adv-x="580" d="M44 -5L20 39L372 570L242 562Q200 558 176 546T142 508T127 435L44 429Q44 429 46 449T51 501T57 572T61 644L71 654L249 643L540 639L557 599Q493 513 436 431T330 278T248 154T195 71L354 82Q404 86 431 122T471 237L553
244Q553 244 550 223T543 167T535 93T529 16L512 -3L119 3L44 -5Z" />
<glyph unicode="[" horiz-adv-x="317" d="M295 -132L82 -121Q82 -121 83 -92T86 -18T89 79T92 178T93 255Q93 285 92 332T90 431T86 530T83 605T82 634L298 645L302 637L295 582L191 561V-49L298 -70L302 -79L295 -132Z" />
<glyph unicode="\" horiz-adv-x="329" d="M218 -110Q218 -110 211 -83T192 -10T166 95T135 215Q122 264 106 323T74 441T44 550T22 630T14 660L26 675H105L220 226Q235 169 250 112T279 7T301 -70T310 -99L301 -110H218Z" />
<glyph unicode="]" horiz-adv-x="317" d="M19 -132L15 -125L22 -70L126 -49V561L19 582L15 591L22 645L235 634Q235 634 234 605T232 531T228 434T225 335T224 258Q224 228 225 181T227 82T231 -16T234 -92T235 -121L19 -132Z" />
<glyph unicode="^" horiz-adv-x="490" d="M298 474Q298 474 306 455T327 405T354 342T380 282Q393 253 406 224T431 170T450 131T457 116L393 75L378 79Q378 79 367 104T339 167T304 244L244 382H237L186 257Q174 228 162 196T139 137T122 93T116 76L41 95L33
108Q33 108 39 124T57 165T82 223T109 286L191 478L285 482L298 474Z" />
<glyph unicode="_" horiz-adv-x="453" d="M0 -178L-9 -164L2 -90Q16 -90 43 -90T104 -90T175 -91T243 -91Q274 -91 307 -91T373 -89Q413 -88 434 -88T455 -86L463 -100L452 -176Q405 -176 354 -176T252 -176T153 -177T66 -178T0 -178Z" />
<glyph unicode="`" horiz-adv-x="398" d="M254 523Q208 558 165 587T95 634T67 652L65 666L118 734L132 735Q132 735 146 720T184 680T238 625T298 565L269 527L254 523Z" />
<glyph unicode="a" horiz-adv-x="483" d="M382 -12Q338 -12 313 8T282 65L274 68Q255 48 234 31T195 3T164 -8Q125 -8 94 11T45 63T27 137Q27 168 43 190T85 220L278 265L279 289Q279 332 257 356T193 380Q165 380 133 367T76 333L67 337L50 397Q79 414 115 431T183
461T233 473Q291 473 328 455T382 407T399 337Q399 324 396 297T389 238T382 177T379 131Q379 112 388 101T415 90Q428 90 441 96T463 107L478 86Q468 69 452 48T418 10T382 -12ZM201 87Q216 87 236 95T273 116L276 211L169 181Q145 174 145 148Q145 122 160 105T201
87Z" />
<glyph unicode="b" horiz-adv-x="513" d="M235 -10Q196 -10 160 -6T101 1T78 5L68 16V598Q68 630 59 642T26 655Q19 655 13 654T3 653L-1 658L5 710Q39 714 74 719T140 730T188 739T207 742L214 723Q209 716 204 676T195 567T188 406Q228 435 258 453T297 471Q355
471 398 444T464 368T487 250Q487 175 455 116T366 24T235 -10ZM258 71Q306 71 333 107T360 212Q360 262 348 299T313 356T261 377Q243 377 222 367T186 343L183 87Q193 82 214 77T258 71Z" />
<glyph unicode="c" horiz-adv-x="431" d="M246 -12Q178 -12 129 16T53 95T26 218Q26 293 57 350T143 440T269 473Q307 473 335 468T379 458T396 453L400 444Q400 444 396 423T386 367T378 290L314 286V319Q314 354 298 372T251 390Q205 390 180 356T155 257Q155
174 184 131T266 87Q294 87 318 94T358 109T373 116L380 113L396 62Q396 62 382 51T344 25T294 -1T246 -12Z" />
<glyph unicode="d" horiz-adv-x="537" d="M439 -12Q350 -12 339 60L333 62Q285 28 256 10T216 -8Q158 -8 116 18T50 94T26 211Q26 286 58 344T148 437T278 471Q291 471 303 471T330 468V597Q330 628 321 640T288 653Q281 653 273 652T264 650L270 709Q305 713
340 719T403 730T449 739T467 742L476 725Q471 717 466 682T458 591T451 461T447 305T445 131Q445 112 453 101T477 90Q489 90 499 94T516 103T523 107L539 86Q539 86 531 74T510 45T478 11T439 -12ZM253 84Q267 84 280 89T305 101T323 113T330 118V371Q330 371
310 379T256 388Q207 388 180 352T153 248Q153 198 165 162T200 105T253 84Z" />
<glyph unicode="e" horiz-adv-x="462" d="M252 -12Q182 -12 132 16T54 96T26 218Q26 273 44 319T94 399T169 453T262 473Q430 473 430 303Q430 288 428 272T423 247L411 235H152Q154 166 184 128T270 85T399 115L406 111L422 62Q402 47 372 30T310 0T252 -12ZM152
290L289 298Q301 299 304 303T308 321Q308 357 292 376T245 395Q206 395 182 369T152 290Z" />
<glyph unicode="f" horiz-adv-x="341" d="M32 -6L38 55Q68 58 81 72T94 112V347Q93 370 80 378T29 387L25 393L33 444L94 454V462Q95 548 125 611T212 708T344 742Q396 742 428 732T460 721L464 706Q464 706 453 680T429 618L417 615Q417 615 404 624T366 643T311
653Q277 653 256 638T224 588T214 496L213 450Q249 450 278 451T324 452T342 453L345 448L335 381Q335 381 319 381T275 383T212 384L209 112Q209 65 251 65Q274 65 293 66T312 67L316 63L306 -3Q306 -3 290 -3T251 -2T203 -1T163 0Q142 0 119 0T76 -2T44 -5T32
-6Z" />
<glyph unicode="g" horiz-adv-x="510" d="M221 -242Q168 -242 129 -225T67 -176T45 -101Q57 -88 84 -68T145 -28V-21Q97 -13 71 13T42 81Q60 99 80 116T124 148V168L192 148Q170 134 160 123T149 101Q149 83 173 75T236 63T318 54T399 38T461 5T486 -56Q486 -91
464 -124T405 -184T320 -226T221 -242ZM259 -168Q292 -168 318 -159T359 -132T375 -94Q375 -78 363 -69T314 -51T207 -34Q189 -50 179 -69T169 -106Q169 -135 192 -151T259 -168ZM256 193Q292 193 311 218T331 290Q331 342 308 371T245 400Q209 400 190 375T171
302Q171 251 193 222T256 193ZM238 127Q181 127 138 147T72 204T48 289Q48 342 75 384T149 450T255 474Q287 474 311 469T358 464Q378 466 416 475T498 497L504 493L491 416Q472 414 452 413T417 410L413 404Q453 362 453 305Q453 254 425 214T349 151T238 127Z"
/>
<glyph unicode="h" horiz-adv-x="543" d="M26 58Q53 61 63 72T73 112V598Q73 630 64 642T31 654H8L4 658L10 710Q39 714 75 719T148 731T212 742L219 723Q213 716 208 673T198 558T191 387Q205 401 223 416T261 444T297 465T325 473Q397 473 436 440T475 344Q475
329 472 298T466 230T459 160T456 108Q456 83 463 72T488 60Q493 60 502 60T518 62L520 58L511 -3Q488 -2 456 -1T403 0Q391 0 372 -1T332 -3T292 -8L297 54Q322 59 333 72T344 110L348 283Q349 327 333 348T283 370Q265 370 240 359T190 328Q189 299 189 268T188
198T188 106Q188 81 195 71T218 61Q223 61 230 61T244 62L246 57L236 -3Q214 -2 182 -1T128 0Q106 0 75 -1T17 -3L26 58Z" />
<glyph unicode="i" horiz-adv-x="292" d="M27 -11L35 52Q64 57 77 72T91 114V330Q91 362 82 374T49 386Q43 386 35 385T26 383L32 440Q66 445 99 450T160 461T204 470T221 473L230 457Q225 446 221 415T213 337T208 231T206 105Q206 82 213 72T237 61Q245 61 255
62T266 63L269 58L259 -3Q259 -3 248 -3T220 -2T184 -1T149 0Q125 0 97 -3T48 -8T27 -11ZM396 559Q362 559 345 578T327 629Q327 664 349 686T406 709Q439 709 456 689T474 638Q474 603 453 581T396 559Z" />
<glyph unicode="j" horiz-adv-x="273" d="M38 -244L7 -214L9 -203Q38 -175 54 -145T76 -71T83 36V330Q83 362 75 374T46 386Q36 386 27 385T17 383L23 440Q53 444 85 449T146 460T193 469T211 473L219 457Q209 435 204 316T198 -14Q198 -85 156 -145T38 -244ZM139
575Q107 575 89 594T70 646Q70 682 92 704T149 726Q180 726 198 707T217 655Q217 619 196 597T139 575Z" />
<glyph unicode="k" horiz-adv-x="517" d="M25 56Q47 59 57 67T70 91T73 134V598Q73 648 45 652Q36 654 25 654T6 653Q6 656 6 659T5 666L10 710Q44 714 79 719T145 730T193 739T212 742L219 723Q214 716 209 683T201 593T194 461T190 295T188 105Q188 80 195 70T218
60Q224 60 234 61T244 62L247 56L236 -4Q236 -4 225 -4T197 -2T162 -1T128 0Q104 0 78 -1T35 -4T17 -6L25 56ZM204 234L206 257L303 355Q315 367 319 374T324 389Q324 400 312 404T271 409L268 414L277 463Q277 463 297 463T345 462T398 461Q421 461 445 462T487
465T504 466L507 461L499 405Q467 394 436 370T376 317T320 261L405 131Q431 94 455 76T508 56L512 48L505 -1Q505 -1 492 -3T461 -9T432 -13Q419 -14 408 -13T388 -9Q363 -4 345 13T305 68L204 234Z" />
<glyph unicode="l" horiz-adv-x="263" d="M16 -9L23 52Q47 58 57 67T70 92T73 134V598Q73 624 69 636T50 651T8 653L4 657L10 710Q60 716 110 724T212 742L219 723Q214 709 209 673T200 579T193 449T189 288T188 105Q188 81 194 71T218 60L251 62L254 56L243 -3Q217
-2 185 -1T130 0Q109 0 78 -2T16 -9Z" />
<glyph unicode="m" horiz-adv-x="838" d="M319 54Q343 59 353 72T365 110L368 283Q368 327 352 348T303 370Q287 370 270 363T238 347T215 332Q213 305 212 271T209 204T206 144T205 107Q205 81 212 72T235 62Q242 62 252 62T262 63L264 59L254 -3Q254 -3 236
-2T194 -1T149 0Q123 0 96 0T49 -2T30 -3L39 58Q68 61 79 72T91 112V324Q91 358 81 371T42 384H29L25 389L30 441Q76 448 117 455T186 468T214 474L222 464Q222 464 218 443T211 395L214 392Q226 402 244 415T282 442T319 464T345 473Q401 473 437 452T486 390Q497
399 515 413T553 440T591 463T619 473Q691 473 730 439T770 344Q770 329 767 298T761 230T754 160T751 108Q751 81 758 71T783 60Q792 60 803 61T814 62L816 58L806 -3Q806 -3 795 -3T766 -2T731 -1T697 0Q683 0 665 -1T629 -2T601 -4T589 -5L596 57Q619 61 629
72T639 110L642 283Q643 327 627 348T577 370Q561 370 545 364T514 349T491 333L478 108Q478 83 485 72T509 60Q517 60 527 61T537 62L539 58L529 -3Q529 -3 518 -3T491 -2T456 -1T424 0Q409 0 391 -1T354 -4T324 -6T312 -8L319 54Z" />
<glyph unicode="n" horiz-adv-x="562" d="M319 54Q344 59 354 72T366 110L369 283Q369 327 353 348T304 370Q288 370 271 364T239 348T216 332Q215 305 213 271T210 204T207 144T206 107Q206 81 213 72T236 62Q243 62 253 62T263 63L265 59L255 -3Q255 -3 237
-2T195 -1T150 0Q124 0 97 -1T51 -4T32 -6L40 56Q69 60 80 72T92 112V324Q92 358 82 371T43 384H30L26 389L31 441Q77 448 119 455T188 468T215 474L223 464Q223 464 219 443T212 395L216 391Q228 401 245 415T282 442T319 464T346 473Q417 473 456 439T496 344Q496
329 493 298T487 230T481 160T478 108Q478 83 485 72T509 60Q518 60 529 61T540 62L542 58L533 -3Q533 -3 522 -3T493 -2T458 -1T425 0Q410 0 392 -1T355 -4T326 -6T314 -8L319 54Z" />
<glyph unicode="o" horiz-adv-x="516" d="M243 -12Q179 -12 132 16T59 96T32 217Q32 293 62 350T147 440T273 473Q338 473 385 445T457 366T483 245Q483 169 453 111T369 21T243 -12ZM263 63Q306 63 328 97T351 199Q351 262 339 304T305 368T250 389Q207 389 185
355T162 253Q162 190 174 148T208 84T263 63Z" />
<glyph unicode="p" horiz-adv-x="537" d="M30 -236L38 -175Q66 -172 74 -160T84 -112Q85 -93 86 -66T88 -10T89 41V324Q89 358 79 371T40 384H27L23 389L28 441Q73 448 115 455T183 468T210 474L219 464Q219 464 215 444T208 401L212 396Q251 432 277 450T313
469Q372 469 416 442T486 366T511 250Q511 191 492 144T437 62T353 9T246 -10Q239 -10 229 -9T210 -8T202 -7Q202 -29 202 -52T203 -100Q203 -139 209 -154T239 -169Q250 -169 262 -168T280 -167L282 -171L271 -232Q265 -232 251 -232T219 -231T183 -230T151 -230Q123
-230 95 -231T49 -234T30 -236ZM281 71Q330 71 357 107T384 212Q384 261 372 297T337 352T284 372Q270 372 250 364T212 341Q210 302 209 257T207 168T206 86Q217 82 238 77T281 71Z" />
<glyph unicode="q" horiz-adv-x="517" d="M248 -234L254 -174Q298 -172 311 -161T326 -112L330 59Q283 26 255 8T216 -10Q158 -10 116 17T50 94T26 211Q26 286 58 344T148 437T278 471Q301 471 329 469T388 461Q416 471 435 479T454 487L465 476Q460 465 456 419T450
297T446 120T444 -101Q444 -143 449 -155T475 -168Q486 -168 493 -168T501 -167L503 -170L496 -230H371Q353 -230 332 -230T291 -232T260 -233T248 -234ZM253 83Q267 83 280 88T305 100T323 112T330 118V371Q330 371 310 379T256 388Q207 388 180 352T153 248Q153
198 165 161T200 104T253 83Z" />
<glyph unicode="r" horiz-adv-x="411" d="M44 57Q74 59 84 73T95 126V325Q95 359 86 371T52 384Q46 384 40 384T33 383L28 390L34 440Q77 447 118 455T186 468T214 474L223 465Q223 465 221 451T216 415T213 371L219 367Q251 414 288 440T359 466Q375 466 384
465T394 463L398 455Q398 455 396 439T390 395T383 336T378 274L314 270Q314 318 309 333T286 349Q270 349 252 337T218 304Q218 304 217 287T215 242T212 187T210 138T209 111Q209 85 217 75T248 65Q262 65 280 66T298 68L301 62L290 -4Q290 -4 277 -3T244 -2T201
-1T161 0Q131 0 102 -1T55 -3T36 -4L44 57Z" />
<glyph unicode="s" horiz-adv-x="408" d="M170 -12Q130 -12 100 -5T54 8T37 15L31 25Q33 39 35 63T40 112T44 157L99 162Q100 111 122 86T188 61Q217 61 236 73T255 105Q255 119 247 130T217 154T155 187Q95 215 68 246T41 320Q41 366 67 400T140 453T247 473Q296
473 327 464T359 455L364 445Q364 445 361 427T353 379T345 316L289 312Q289 312 289 319T290 330Q290 365 273 381T220 398Q193 398 176 386T158 354Q158 335 174 319T227 285Q285 258 317 236T361 190T374 137Q374 96 347 62T274 8T170 -12Z" />
<glyph unicode="t" horiz-adv-x="332" d="M206 -12Q135 -12 102 18T69 111V334Q69 365 58 376T15 388L5 395L12 444Q44 459 74 477T127 512T165 539T179 550L207 536Q207 536 204 514T196 450L314 453L318 448L308 381L190 384Q187 341 186 287T184 166Q184 123
199 104T248 85Q270 85 289 92T308 99L321 67Q321 67 308 55T275 28T236 0T206 -12Z" />
<glyph unicode="u" horiz-adv-x="546" d="M75 337Q75 362 67 374T41 386Q32 386 24 385T16 383L22 441Q53 445 84 450T143 461T186 470T203 473L212 457Q206 444 202 415T193 347T187 263T185 173Q185 92 248 92Q271 92 293 104T335 130V336Q335 365 327 374T292
385Q288 385 282 385T274 384L282 441Q315 445 347 450T407 460T451 468T468 471L477 455Q470 440 464 392T454 275T450 131Q450 112 459 101T486 90Q498 90 509 94T527 103T534 107L549 87Q549 87 540 74T516 42T482 8T446 -12Q354 -12 344 65L336 69Q297 33 267
11T224 -11Q148 -11 108 21T68 114L75 337Z" />
<glyph unicode="v" horiz-adv-x="466" d="M158 -15Q158 -15 152 6T137 63T115 139T91 223T69 299T53 352Q37 400 -9 402L-11 406L-4 462Q-4 462 12 462T51 462T90 461Q123 461 154 463T205 466T226 468L228 463L219 406Q189 404 180 399T170 380Q170 374 174 352T186
299T201 236T216 176T228 131T233 113H243Q270 186 290 243T321 335T332 381Q332 393 325 397T299 401H271L267 408L274 462Q274 462 292 462T336 462T384 461Q405 461 425 461T460 462T475 462L467 402Q445 399 435 388T412 343L286 0L158 -15Z" />
<glyph unicode="w" horiz-adv-x="737" d="M158 -15Q158 -15 152 6T137 63T116 139T93 223T72 299T55 352Q39 401 -6 402L-8 406L-1 462Q-1 462 15 462T54 462T91 461Q124 461 155 463T206 466T226 468L228 463L219 406Q189 404 180 399T171 380Q171 373 175 351T187
299T202 236T217 175T228 130T233 112H243Q251 133 261 161T280 220T299 277T315 326T325 358Q319 381 308 391T269 401L266 406L274 462Q274 462 290 462T328 462T366 461Q399 461 429 462T478 465T497 467L499 462L491 405Q460 402 452 398T443 380Q443 374 447
352T459 299T474 236T489 175T500 130T505 112H514Q541 186 560 242T591 335T602 381Q602 393 596 397T570 402H543L539 408L547 463Q547 463 564 463T605 462T652 461Q672 461 693 461T728 462T743 462L735 402Q713 399 704 388T681 343L557 0L434 -15Q433 -4
427 22T411 85T391 161T371 236H360L283 0L158 -15Z" />
<glyph unicode="x" horiz-adv-x="496" d="M250 -6L246 -1L254 48Q275 49 284 53T293 66Q293 71 290 78T280 95L220 177Q206 160 189 138T159 97T146 70Q146 59 154 55T183 50L186 44L179 -4Q179 -4 168 -4T139 -2T106 -1T81 0Q66 0 48 0T18 -2T5 -3L1 4L9 51Q22
58 34 68T60 95T98 139L178 234L110 328Q91 355 76 370T45 392T7 403L5 408L11 463Q11 463 28 463T72 462T127 461Q158 461 186 462T231 464T249 465L253 459L246 409Q208 409 208 390Q208 378 214 368T230 345L272 286L320 348Q331 363 337 373T344 393Q344 401
337 403T308 406L306 410L312 461H400Q418 461 437 462T470 463T484 464L487 459L481 406Q460 395 438 376T396 331L316 229L394 123Q419 89 440 73T491 54L494 50L486 -2Q486 -2 468 -2T427 -1T389 0Q375 0 352 -1T306 -3T266 -5T250 -6Z" />
<glyph unicode="y" horiz-adv-x="464" d="M52 -241Q45 -241 33 -232T9 -209T-13 -183T-22 -161L-15 -149Q50 -144 100 -107T183 -8Q172 21 159 59T130 140T100 224T72 299T49 358Q38 381 24 390T-12 401L-14 406L-7 462Q-1 462 13 462T43 462T71 461Q97 461 123
462T172 464T208 467T222 468L224 463L216 406Q187 405 178 400T168 382Q168 374 173 353T186 303T202 244T219 189T232 147T237 131H247Q262 170 278 211T308 288T330 350T338 382Q338 394 332 398T308 403H276L273 408L281 464Q281 464 298 464T339 462T387 461Q404
461 422 461T456 462T479 462L471 402Q450 397 440 388T420 353L293 44Q262 -33 233 -87T174 -176T116 -226T52 -241Z" />
<glyph unicode="z" horiz-adv-x="458" d="M21 28L274 398L182 392Q147 389 128 381T100 355T89 304L39 298Q39 298 40 314T44 356T47 410T50 464L56 470L186 462L417 459L430 430Q369 350 317 276T226 146T169 62L277 71Q320 75 342 102T372 189L424 194Q424 194
422 176T416 130T410 71T407 11L392 -5L93 2L38 -4L21 28Z" />
<glyph unicode="{" horiz-adv-x="321" d="M218 -128Q178 -128 148 -113T100 -71T83 -12Q83 17 94 49T117 111T129 160Q129 193 106 212T44 242L48 287Q82 297 105 316T129 362Q129 384 118 414T95 477T83 538Q83 587 122 620T231 654Q248 654 264 652T292 647T303
645L309 635L297 581Q297 581 283 583T256 586Q227 586 214 569T200 526Q200 506 207 478T220 421T227 370Q227 330 206 308T154 276V271Q186 260 206 236T227 172Q227 149 221 118T207 57T200 6Q200 -21 214 -39T258 -57Q272 -57 286 -55T300 -52L307 -61L297
-114Q297 -114 276 -121T218 -128Z" />
<glyph unicode="|" horiz-adv-x="336" d="M130 -269L119 -258Q119 -258 119 -232T119 -160T119 -59T119 58T119 174T120 276L121 796L205 807L220 796Q220 796 220 771T219 702T217 606T216 496T215 386T214 291Q214 248 214 191T214 73T214 -48T215 -154T215
-230T215 -258L130 -269Z" />
<glyph unicode="}" horiz-adv-x="321" d="M90 -128Q73 -128 57 -126T29 -122T18 -120L12 -110L24 -56Q24 -56 38 -58T65 -61Q94 -61 107 -44T121 0Q121 20 115 48T101 107T94 160Q94 199 116 221T167 253V259Q136 270 115 293T94 357Q94 381 101 410T114 469T121
519Q121 546 107 564T62 582Q49 582 35 580T21 577L13 586L24 639Q24 639 45 646T102 654Q143 654 173 638T221 596T238 538Q238 509 227 478T203 418T191 369Q191 336 215 316T277 288L273 242Q239 233 215 214T191 167Q191 145 203 115T226 53T238 -8Q238 -58
199 -93T90 -128Z" />
<glyph unicode="~" horiz-adv-x="506" d="M62 179L28 216V226L118 326L137 330Q155 330 186 325T251 311T315 298T360 292Q370 292 383 300T407 319T426 339T434 348H445L479 311V301L389 200L370 196Q352 196 321 202T256 216T193 229T147 235Q137 235 124 227T100
207T81 188T73 179H62Z" />
<glyph unicode="&#xa0;" horiz-adv-x="174" />
<glyph unicode="&#xa1;" horiz-adv-x="285" d="M69 -242L52 -224L114 230L176 241L191 228L211 -204L199 -220L69 -242ZM154 318Q119 318 100 338T81 392Q81 428 102 450T161 473Q197 473 215 453T234 399Q234 364 213 341T154 318Z" />
<glyph unicode="&#xa2;" horiz-adv-x="431" d="M308 658L314 649L226 -151L161 -159L154 -152L241 649L308 658ZM246 -12Q178 -12 129 16T53 95T26 218Q26 293 57 350T143 440T269 473Q307 473 335 468T379 458T396 453L400 444Q400 444 396 423T386 367T378 290L314
286V319Q314 354 298 372T251 390Q205 390 180 356T155 257Q155 174 184 131T266 87Q294 87 318 94T358 109T373 116L380 113L396 62Q396 62 382 51T344 25T294 -1T246 -12Z" />
<glyph unicode="&#xa3;" horiz-adv-x="519" d="M392 -12Q359 -12 320 0T242 25T166 37Q113 37 58 1L47 6L28 66Q121 122 121 203V244Q120 267 107 275T56 285L52 291L59 341L121 351V373Q121 420 138 461T187 532T260 580T347 598Q379 598 410 594T459 583L464
572L432 478L413 475Q377 495 352 504T305 513Q269 513 252 490T233 416L231 347Q270 347 304 348T360 349T382 350L386 346L375 278Q375 278 355 279T301 280T228 281L227 221Q226 187 213 157T179 108L235 120Q257 120 282 115T332 105T378 100Q407 100 424 119T443
175L467 174Q477 158 482 136T488 92Q488 47 461 18T392 -12Z" />
<glyph unicode="&#xa4;" horiz-adv-x="484" d="M96 142L80 146L32 215Q41 222 61 240T103 278Q84 312 84 351Q84 393 104 427Q85 445 68 461T41 487T30 498L33 515L102 564Q109 555 128 535T168 491Q184 500 203 505T242 510Q262 510 281 505T316 491Q333 510
349 527T374 556T384 568L402 564L451 495L379 428Q390 411 395 392T401 351Q401 331 396 313T382 278Q410 253 432 232T455 211L452 195L383 144L317 213Q283 194 242 194Q200 194 165 215Q139 186 118 164T96 142ZM242 264Q278 264 304 289T330 351Q330 388 304
414T242 440Q206 440 181 414T155 351Q155 315 180 290T242 264Z" />
<glyph unicode="&#xa5;" horiz-adv-x="574" d="M145 -9L151 50Q184 54 199 61T219 86T225 133Q190 133 157 133T96 133T53 132L45 140L54 194H217Q213 203 210 212T200 232L181 268Q140 267 106 267T54 267L47 274L55 328H144Q132 350 119 369T91 404T60 430T24
445Q24 451 24 456T25 468Q26 477 28 486T31 505Q31 505 48 505T90 503T134 502Q140 502 156 503T192 505T231 506T263 508T277 509L283 499L277 449Q246 447 238 443T229 429Q229 422 233 411T245 384Q248 380 250 375T254 363L303 277L370 408Q373 415 375 421T378
433Q378 441 372 442T356 444T334 451Q335 456 335 460T335 470L340 505Q351 505 370 505T412 503T455 502Q475 502 495 503T528 504T542 505L547 499L540 445Q516 438 502 429T478 407T453 372L428 330Q458 331 483 331T524 332L531 323L527 268H391L364 222Q361
217 359 210T354 194Q389 195 421 195T480 197T523 198L530 188L526 133H344Q344 123 344 113T345 94Q346 75 352 68T372 59Q376 58 381 58T391 58Q404 59 414 59T425 60L428 54L420 -3Q420 -3 405 -3T366 -2T319 -1T280 0Q262 0 239 -1T195 -4T159 -7T145 -9Z"
/>
<glyph unicode="&#xa6;" horiz-adv-x="336" d="M128 363L120 370Q120 477 120 583T121 796L205 807L220 796Q220 796 220 770T218 699T217 599T215 486T214 375L128 363ZM130 -269L119 -258Q119 -229 119 -183T119 -81T119 36T119 159L205 173L214 164Q214 107
214 47T214 -67T215 -165T215 -233T215 -258L130 -269Z" />
<glyph unicode="&#xa7;" horiz-adv-x="500" d="M386 53Q387 16 362 -19T294 -77T196 -100Q160 -100 130 -90T80 -61T61 -22Q61 7 68 36T87 81L108 80Q116 36 145 8T214 -21Q239 -21 255 -7T271 29Q271 54 253 73T208 111T150 148T92 190T47 242T29 310Q29 343
45 372T89 426T150 467L183 431Q156 414 143 396T130 352Q130 324 148 301T196 256T258 214T320 170T367 118T386 53ZM319 127Q343 142 355 161T368 205Q368 233 350 256T304 300T243 342T182 387T135 439T117 503Q117 545 140 579T202 633T290 654Q322 654 349
647T394 629T411 604Q411 588 406 567T394 528T381 503H362Q350 533 326 552T277 571Q258 571 245 558T232 525Q232 502 249 482T294 444T353 405T411 362T455 311T473 245Q473 214 458 184T416 128T354 86L319 127Z" />
<glyph unicode="&#xa8;" horiz-adv-x="398" d="M284 552Q255 552 240 568T225 612Q225 641 243 659T291 678Q320 678 335 662T350 619Q350 590 332 571T284 552ZM106 552Q77 552 62 568T47 612Q47 641 65 659T114 678Q142 678 157 662T172 619Q172 590 154 571T106 552Z" />
<glyph unicode="&#xa9;" horiz-adv-x="696" d="M347 -12Q284 -12 229 12T132 77T67 174T43 293Q43 356 66 411T132 508T229 574T347 598Q410 598 465 574T563 509T628 412T652 293Q652 230 629 175T563 78T466 12T347 -12ZM337 129Q287 129 253 149T201 206T184
289Q184 342 205 381T266 442T364 464Q387 464 411 461T452 455T469 451L472 444Q472 444 466 416T458 344L399 341Q399 341 399 349T400 367Q400 387 389 397T350 408Q315 408 297 384T279 306Q279 248 297 217T353 185Q380 185 394 200T412 251L470 255Q470 255
468 239T464 201T461 156L455 148Q455 148 440 144T398 134T337 129ZM347 37Q400 37 446 56T527 111T582 193T602 293Q602 346 583 392T528 474T446 529T347 549Q295 549 249 530T168 475T113 393T93 293Q93 240 113 194T168 112T249 57T347 37Z" />
<glyph unicode="&#xaa;" horiz-adv-x="340" d="M266 332Q202 332 196 381L190 384Q172 366 151 351T116 335Q77 335 50 364T23 436Q23 456 34 471T63 491L192 517V527Q192 552 178 566T137 581Q118 581 100 574T71 559T59 551L53 554L39 598Q39 598 54 606T91
624T133 642T167 650Q210 650 236 638T273 605T285 559Q285 548 282 523T275 472T272 433Q272 409 294 409Q305 409 313 413T322 418L333 402Q333 402 327 393T311 370T290 346T266 332ZM148 405Q157 405 168 408T189 418L191 477L129 462Q114 458 114 443Q114
427 123 416T148 405Z" />
<glyph unicode="&#xab;" horiz-adv-x="449" d="M371 44Q343 75 314 105T261 160T221 200T206 215V236Q206 236 221 251T260 291T314 348T371 410L411 386L414 370Q390 334 367 297T324 229Q344 197 367 160T414 85L411 69L371 44ZM187 44Q159 75 130 105T77 160T37
200T22 215V236Q22 236 37 251T76 291T130 348T187 410L227 386L230 370Q206 334 183 297T140 229Q160 197 183 160T230 85L227 69L187 44Z" />
<glyph unicode="&#xac;" horiz-adv-x="506" d="M362 21L351 29Q351 29 351 46T351 91T352 154T352 223L252 222Q218 222 179 222T104 222T47 221T24 221L17 232L31 320Q31 320 55 320T115 320T192 319T265 319Q293 319 325 320T387 322T434 324T452 325L459 313Q459
313 457 293T452 240T449 171Q449 136 449 105T450 55T450 36L362 21Z" />
<glyph unicode="&#xad;" horiz-adv-x="355" d="M60 195L50 207L58 284L222 302Q263 307 279 309T295 312L305 299L296 221L60 195Z" />
<glyph unicode="&#xae;" horiz-adv-x="468" d="M234 303Q178 303 132 330T58 404T30 507Q30 564 57 610T131 683T234 711Q291 711 337 684T410 610T438 507Q438 451 411 405T337 331T234 303ZM234 341Q280 341 317 363T377 424T400 507Q400 553 378 590T318 650T234
673Q189 673 151 651T91 591T68 507Q68 462 90 424T151 364T234 341ZM298 409Q283 409 274 415T257 439L232 490H211Q210 483 210 476T210 463Q210 446 213 442T234 438Q235 437 235 436T236 434L233 413Q233 413 226 413T210 414T194 415H182Q169 414 153 413T137
412L140 436Q155 438 158 444T162 469V576Q162 587 160 590T152 594Q149 594 146 594T141 594L139 597L142 618Q147 618 161 618T185 617H196Q204 618 216 618T231 619Q273 619 295 605T317 563Q317 540 305 526T274 502L299 464Q307 451 316 443T335 434L337 430Q337
422 335 418T325 412T298 409ZM239 520Q248 523 256 531T264 556Q264 574 253 581T220 589Q214 589 214 581Q213 566 213 551T212 522Q216 522 224 521T239 520Z" />
<glyph unicode="&#xaf;" horiz-adv-x="398" d="M61 569L50 581L64 655Q64 655 79 655T119 655T169 654T218 654Q243 654 272 655T323 658T345 660L353 646L341 571L200 570Q171 570 138 570T83 570T61 569Z" />
<glyph unicode="&#xb0;" horiz-adv-x="302" d="M151 393Q115 393 86 410T39 458T21 523Q21 560 38 589T85 636T151 654Q187 654 216 637T263 590T281 523Q281 488 264 458T217 411T151 393ZM151 450Q182 450 203 471T224 523Q224 554 203 575T151 597Q120 597
99 576T78 523Q78 493 99 472T151 450Z" />
<glyph unicode="&#xb1;" horiz-adv-x="506" d="M213 47L202 54Q202 54 202 80T203 145T203 226Q172 226 141 226T82 225T40 225T24 225L17 236L31 323Q31 323 57 323T123 323T203 322Q203 366 203 410T204 498L291 508L303 502Q303 502 303 486T301 442T299 384T297
322Q327 323 359 324T419 326T464 327T482 328L489 316L479 227Q434 227 388 227T297 226Q297 187 297 149T298 86T298 61L213 47ZM32 -97L24 -84L35 -9Q47 -9 73 -9T133 -9T201 -10T267 -10Q296 -10 329 -10T392 -8Q432 -8 453 -7T474 -6L482 -20L471 -96Q426
-96 376 -96T276 -96T180 -96T96 -97T32 -97Z" />
<glyph unicode="&#xb2;" horiz-adv-x="351" d="M22 381L102 467Q142 515 161 548T180 606Q180 642 137 642Q90 642 51 589H41L28 650Q52 684 90 706T166 728Q220 728 253 703T286 635Q286 608 274 578T232 508T151 415L154 410H213Q243 410 255 422T273 468L333
473Q333 473 329 452T321 401T314 343L303 334Q303 334 279 335T218 337T144 339T82 340L28 335L22 381Z" />
<glyph unicode="&#xb3;" horiz-adv-x="309" d="M81 332Q51 332 39 349T23 406L34 418Q47 413 61 411T92 408Q128 408 151 422T174 458Q174 482 153 493T84 504L77 512L71 559L115 568Q135 577 147 592T160 625Q160 640 151 648T124 657Q91 657 52 630H44L27 683Q40
692 62 702T109 720T156 728Q201 728 230 707T259 650Q259 622 239 599T185 562V555Q234 541 256 518T278 462Q278 430 249 400T176 351T81 332Z" />
<glyph unicode="&#xb4;" horiz-adv-x="398" d="M161 521L146 525L115 562Q145 592 174 623T226 679T264 720T278 736H291L347 669L346 656Q346 656 319 637T249 588T161 521Z" />
<glyph unicode="&#xb5;" horiz-adv-x="544" d="M234 -6Q180 21 147 72L93 44L140 203Q156 163 173 147T210 130Q246 130 276 166T336 272Q336 324 338 369T346 450L369 469Q397 462 422 453T472 428Q445 333 420 257T368 119L353 124Q334 81 314 52T273 9T234
-6ZM75 -239L59 -228L88 275L97 144Q76 209 67 258T58 353T69 458L90 471H104L191 444L137 70Q142 -5 157 -77T196 -222Q169 -229 138 -233T75 -239ZM469 -9Q415 -9 391 21T362 123L357 242L405 280L403 204Q403 161 414 139T453 115T532 127L542 115Q536 77 518
47T469 -9Z" />
<glyph unicode="&#xb6;" horiz-adv-x="567" d="M225 -100Q189 -100 157 -88T105 -55T85 -4Q85 20 97 51T127 104H143Q146 41 172 8T240 -26Q276 -26 296 -12T323 35T331 121V563Q331 573 327 575T304 578Q264 578 244 539T223 434Q223 366 238 321T288 229V205Q214
209 155 235T60 312T25 435Q25 494 53 542T132 618T251 646Q289 646 329 644T395 642Q408 642 431 642T479 643T520 644T537 645L531 584L529 580Q491 578 479 569T465 534Q463 518 461 485T458 408T456 320T455 235T454 170Q454 112 440 63T397 -23T325 -80T225
-100Z" />
<glyph unicode="&#xb7;" horiz-adv-x="238" d="M116 162Q79 162 61 182T42 236Q42 272 64 294T122 317Q158 317 177 297T196 243Q196 207 175 185T116 162Z" />
<glyph unicode="&#xb8;" horiz-adv-x="398" d="M167 -237Q150 -237 133 -232T103 -217T90 -194Q90 -183 102 -164T126 -132H135Q136 -160 150 -174T187 -188Q205 -188 216 -180T228 -157Q228 -145 215 -133T182 -109T142 -86L174 28H225L204 -45Q223 -55 245 -70T283
-102T300 -141Q300 -167 281 -189T231 -224T167 -237Z" />
<glyph unicode="&#xb9;" horiz-adv-x="264" d="M26 333L31 379Q61 381 75 391T90 426V624Q90 647 83 653T57 660Q48 660 37 659T25 658L20 663L24 705Q39 706 62 709T107 715Q139 719 161 722T194 726T206 728L214 705Q204 697 198 686T188 656Q187 641 186 616T183
560T182 496T181 431Q181 408 187 398T209 388Q221 388 230 388T240 389L242 386L234 337Q234 337 217 338T177 339T136 340Q114 340 89 339T45 335T26 333Z" />
<glyph unicode="&#xba;" horiz-adv-x="353" d="M168 332Q102 332 63 373T23 483Q23 534 43 571T100 629T186 650Q254 650 292 610T330 499Q330 449 310 412T254 353T168 332ZM179 389Q204 389 215 408T227 467Q227 530 213 558T172 586Q148 586 137 568T125 509Q125
446 139 418T179 389Z" />
<glyph unicode="&#xbb;" horiz-adv-x="449" d="M263 44L222 68L219 84Q243 120 266 157T309 225Q289 257 266 294T219 370L222 385L263 410Q290 380 319 350T372 294T412 254T427 239V219Q427 219 412 204T373 163T319 106T263 44ZM79 44L38 68L35 84Q59 120 82
157T125 225Q105 257 82 294T35 370L38 385L79 410Q106 380 135 350T188 294T228 254T243 239V219Q243 219 228 204T189 163T135 106T79 44Z" />
<glyph unicode="&#xbc;" horiz-adv-x="757" d="M26 254L31 300Q61 302 75 312T90 347V545Q90 568 83 574T57 581Q48 581 37 580T25 579L20 584L24 626Q39 627 62 630T107 636Q139 640 161 643T194 647T206 649L214 626Q204 618 198 607T188 577Q187 562 186 537T183
481T182 417T181 352Q181 329 187 319T209 309Q221 309 230 309T240 310L242 307L234 258Q234 258 217 259T177 260T136 261Q114 261 89 260T45 256T26 254ZM162 -93L99 -67L93 -53Q93 -53 106 -33T142 20T191 94T247 180T302 265L563 678L623 654L631 635Q631
635 612 607T563 532T497 432T426 324T365 228Q338 185 310 140T255 53T207 -22T174 -74T162 -93ZM587 -7L582 -1Q582 -1 583 13T585 50T586 95L431 97L433 148L603 386L608 388L677 380V160H728L734 151L727 91L678 92Q679 59 680 33T682 7L676 0L587 -7ZM507
160H586V265H579L507 160Z" />
<glyph unicode="&#xbd;" horiz-adv-x="787" d="M26 254L31 300Q61 302 75 312T90 347V545Q90 568 83 574T57 581Q48 581 37 580T25 579L20 584L24 626Q39 627 62 630T107 636Q139 640 161 643T194 647T206 649L214 626Q204 618 198 607T188 577Q187 562 186 537T183
481T182 417T181 352Q181 329 187 319T209 309Q221 309 230 309T240 310L242 307L234 258Q234 258 217 259T177 260T136 261Q114 261 89 260T45 256T26 254ZM162 -93L99 -67L93 -53Q93 -53 106 -33T142 20T191 94T247 180T302 265L563 678L623 654L631 635Q631
635 612 607T563 532T497 432T426 324T365 228Q338 185 310 140T255 53T207 -22T174 -74T162 -93ZM458 41L538 127Q578 175 597 208T616 265Q616 302 573 302Q526 302 487 248H477L464 310Q488 344 526 366T602 388Q656 388 689 363T722 295Q722 268 710 238T668
168T587 75L590 69H649Q679 69 691 81T709 128L769 133Q769 133 765 112T757 61T750 3L739 -6Q739 -6 715 -5T654 -3T580 -1T518 0L464 -6L458 41Z" />
<glyph unicode="&#xbe;" horiz-adv-x="758" d="M81 253Q51 253 39 270T23 327L34 339Q47 334 61 332T92 329Q128 329 151 343T174 379Q174 403 153 414T84 425L77 433L71 480L115 489Q135 498 147 513T160 546Q160 561 151 569T124 578Q91 578 52 550H44L27 604Q40
613 62 623T109 641T156 649Q201 649 230 628T259 571Q259 543 239 520T185 483V476Q234 462 256 439T278 383Q278 351 249 321T176 272T81 253ZM162 -93L99 -67L93 -53Q93 -53 106 -33T142 20T191 94T247 180T302 265L563 678L623 654L631 635Q631 635 612 607T563
532T497 432T426 324T365 228Q338 185 310 140T255 53T207 -22T174 -74T162 -93ZM587 -7L582 -1Q582 -1 583 13T585 50T586 95L431 97L433 148L603 386L608 388L677 380V160H728L734 151L727 91L678 92Q679 59 680 33T682 7L676 0L587 -7ZM507 160H586V265H579L507
160Z" />
<glyph unicode="&#xbf;" horiz-adv-x="369" d="M268 -242Q196 -240 138 -217T46 -155T12 -69Q12 -34 23 -9T56 38T108 81T176 129L179 136L164 219L170 230L257 248L268 243L292 117L289 102L180 39Q157 25 143 7T128 -33Q128 -83 177 -109T313 -139L320 -153L283
-235L268 -242ZM211 318Q176 318 157 338T138 392Q138 428 160 450T218 473Q255 473 273 453T291 399Q291 364 270 341T211 318Z" />
<glyph unicode="&#xc0;" horiz-adv-x="625" d="M336 -8L331 0L336 59Q369 62 385 65T407 76T413 95Q413 102 412 110T408 130L387 207Q368 208 341 208T295 209Q271 209 244 207T199 202L174 125Q168 103 168 94Q168 76 178 69T215 62H258L263 55L256 -6Q256 -6
233 -5T176 -2T110 0Q83 0 55 0T9 -2T-10 -3L-3 62Q21 66 36 81T63 130L242 637L395 653L406 648Q406 648 412 622T431 553T458 454T488 341T520 229T550 131Q560 95 577 80T629 62L633 55L626 -3Q626 -3 605 -2T555 -1T504 0Q462 0 423 -2T360 -6T336 -8ZM223
286H295Q311 286 332 287T369 289L310 512H297L223 286ZM398 698Q355 711 315 723T241 744T189 758T170 763L165 776L190 851L202 856Q202 856 221 847T272 822T343 788T423 751L410 706L398 698Z" />
<glyph unicode="&#xc1;" horiz-adv-x="625" d="M336 -8L331 0L336 59Q369 62 385 65T407 76T413 95Q413 102 412 110T408 130L387 207Q368 208 341 208T295 209Q271 209 244 207T199 202L174 125Q168 103 168 94Q168 76 178 69T215 62H258L263 55L256 -6Q256 -6
233 -5T176 -2T110 0Q83 0 55 0T9 -2T-10 -3L-3 62Q21 66 36 81T63 130L242 637L395 653L406 648Q406 648 412 622T431 553T458 454T488 341T520 229T550 131Q560 95 577 80T629 62L633 55L626 -3Q626 -3 605 -2T555 -1T504 0Q462 0 423 -2T360 -6T336 -8ZM223
286H295Q311 286 332 287T369 289L310 512H297L223 286ZM257 698L244 706L231 751Q271 769 310 787T382 821T433 846T453 856L465 851L490 776L485 763Q485 763 466 758T414 744T341 723T257 698Z" />
<glyph unicode="&#xc2;" horiz-adv-x="625" d="M336 -8L331 0L336 59Q369 62 385 65T407 76T413 95Q413 102 412 110T408 130L387 207Q368 208 341 208T295 209Q271 209 244 207T199 202L174 125Q168 103 168 94Q168 76 178 69T215 62H258L263 55L256 -6Q256 -6
233 -5T176 -2T110 0Q83 0 55 0T9 -2T-10 -3L-3 62Q21 66 36 81T63 130L242 637L395 653L406 648Q406 648 412 622T431 553T458 454T488 341T520 229T550 131Q560 95 577 80T629 62L633 55L626 -3Q626 -3 605 -2T555 -1T504 0Q462 0 423 -2T360 -6T336 -8ZM223
286H295Q311 286 332 287T369 289L310 512H297L223 286ZM192 707L177 711L153 751Q180 771 207 792T258 832T294 862T308 874H328Q328 875 341 864T378 834T428 793T483 751L460 711L445 707Q410 724 375 740T318 766Q297 757 262 741T192 707Z" />
<glyph unicode="&#xc3;" horiz-adv-x="625" d="M336 -8L331 0L336 59Q369 62 385 65T407 76T413 95Q413 102 412 110T408 130L387 207Q368 208 341 208T295 209Q271 209 244 207T199 202L174 125Q168 103 168 94Q168 76 178 69T215 62H258L263 55L256 -6Q256 -6
233 -5T176 -2T110 0Q83 0 55 0T9 -2T-10 -3L-3 62Q21 66 36 81T63 130L242 637L395 653L406 648Q406 648 412 622T431 553T458 454T488 341T520 229T550 131Q560 95 577 80T629 62L633 55L626 -3Q626 -3 605 -2T555 -1T504 0Q462 0 423 -2T360 -6T336 -8ZM223
286H295Q311 286 332 287T369 289L310 512H297L223 286ZM178 688L140 724V734L218 829L234 833Q247 833 268 828T311 817T354 805T384 800Q393 800 404 808T425 825T442 843T449 851H459L498 815V805L420 710L403 706Q391 706 370 711T327 722T285 734T253 739Q244
739 233 731T212 714T196 696T189 688H178Z" />
<glyph unicode="&#xc4;" horiz-adv-x="625" d="M336 -8L331 0L336 59Q369 62 385 65T407 76T413 95Q413 102 412 110T408 130L387 207Q368 208 341 208T295 209Q271 209 244 207T199 202L174 125Q168 103 168 94Q168 76 178 69T215 62H258L263 55L256 -6Q256 -6
233 -5T176 -2T110 0Q83 0 55 0T9 -2T-10 -3L-3 62Q21 66 36 81T63 130L242 637L395 653L406 648Q406 648 412 622T431 553T458 454T488 341T520 229T550 131Q560 95 577 80T629 62L633 55L626 -3Q626 -3 605 -2T555 -1T504 0Q462 0 423 -2T360 -6T336 -8ZM223
286H295Q311 286 332 287T369 289L310 512H297L223 286ZM403 701Q374 701 359 718T344 761Q344 790 362 809T410 828Q439 828 454 812T469 768Q469 739 451 720T403 701ZM225 701Q196 701 181 718T166 761Q166 790 184 809T233 828Q261 828 276 812T291 768Q291
739 273 720T225 701Z" />
<glyph unicode="&#xc5;" horiz-adv-x="625" d="M336 -8L331 0L336 59Q369 62 385 65T407 76T413 95Q413 102 412 110T408 130L387 207Q368 208 341 208T295 209Q271 209 244 207T199 202L174 125Q168 103 168 94Q168 76 178 69T215 62H258L263 55L256 -6Q256 -6
233 -5T176 -2T110 0Q83 0 55 0T9 -2T-10 -3L-3 62Q21 66 36 81T63 130L242 637L395 653L406 648Q406 648 412 622T431 553T458 454T488 341T520 229T550 131Q560 95 577 80T629 62L633 55L626 -3Q626 -3 605 -2T555 -1T504 0Q462 0 423 -2T360 -6T336 -8ZM223
286H295Q311 286 332 287T369 289L310 512H297L223 286ZM313 678Q271 678 249 703T226 768Q226 808 252 835T321 862Q369 862 389 836T410 776Q410 738 385 708T313 678ZM320 730Q331 730 345 736T360 767Q360 786 349 797T314 808Q294 808 284 799T274 772Q274
749 290 740T320 730Z" />
<glyph unicode="&#xc6;" horiz-adv-x="868" d="M318 59Q369 64 385 73T402 106Q402 119 401 131T398 157L386 250L297 240L213 224L167 125Q160 111 158 102T155 88Q155 73 167 68T210 62L245 58L239 -6Q238 -6 221 -5T177 -3T123 -1T74 0Q59 0 42 -1T13 -2T1
-3L-5 55Q4 58 21 77T56 130L266 557Q264 569 258 573T241 578Q232 578 221 577T210 576L204 585L212 645Q212 645 230 645T282 644T358 643T449 642Q506 642 556 642T647 644T719 648T768 654L775 643Q775 643 771 617T761 550T752 462L664 456Q664 456 665 471T666
496Q666 525 658 538T621 555T535 560Q501 560 492 555T482 532L507 348L605 360L701 379L711 368L698 287L608 280L519 269L539 144Q545 107 561 92T610 76Q653 76 679 80T720 96T742 131T755 191L837 198L844 189Q844 189 839 163T828 94T817 4L807 -7Q807 -7
780 -6T708 -4T613 -1T515 0H477Q437 0 401 -2T342 -6T319 -8L314 0L318 59ZM315 321L378 328L355 511H340L250 316L315 321Z" />
<glyph unicode="&#xc7;" horiz-adv-x="616" d="M326 -12Q234 -12 168 26T65 135T29 303Q29 383 53 447T124 558T234 629T379 654Q410 654 443 650T505 641T551 633T569 629L575 616Q575 616 570 591T558 524T548 428L453 422Q453 422 454 438T455 474Q455 519
428 539T343 559Q291 559 255 534T200 460T181 338Q181 256 201 198T260 110T350 79Q405 79 436 112T479 219L575 225Q575 225 573 208T567 164T560 104T555 40L545 28Q545 28 516 18T438 -2T326 -12ZM306 -237Q289 -237 272 -232T242 -217T229 -194Q229 -183 241
-164T265 -132H274Q275 -160 289 -174T326 -188Q344 -188 355 -180T367 -157Q367 -145 354 -133T321 -109T281 -86L313 28H364L343 -45Q362 -55 384 -70T422 -102T439 -141Q439 -167 420 -189T370 -224T306 -237Z" />
<glyph unicode="&#xc8;" horiz-adv-x="596" d="M38 -10L45 57Q87 63 102 81T117 143L118 524Q118 557 112 567T86 578Q80 578 71 578T55 576L49 585L57 645Q80 645 112 644T177 643T238 642Q310 642 367 643T467 647T542 654L550 643Q545 618 540 586T532 522T527
462L438 456Q439 464 439 476T440 496Q440 517 436 529T419 548T381 557T312 560Q288 560 277 558T262 549T258 526L248 309L245 137Q245 110 249 98T267 81T310 77Q357 77 386 81T431 96T455 131T468 191L550 198L557 189Q550 152 543 100T530 4L520 -7Q466 -5
408 -4T297 -1T209 0Q173 0 125 -2T38 -10ZM235 278L243 369Q250 369 268 369T307 369T345 368Q361 368 396 371T461 377L469 368L455 283Q429 284 390 285T324 286Q302 286 277 284T235 278ZM384 698Q341 711 301 723T227 744T175 758T156 763L151 776L176 851L188
856Q188 856 207 847T258 822T329 788T409 751L396 706L384 698Z" />
<glyph unicode="&#xc9;" horiz-adv-x="596" d="M38 -10L45 57Q87 63 102 81T117 143L118 524Q118 557 112 567T86 578Q80 578 71 578T55 576L49 585L57 645Q80 645 112 644T177 643T238 642Q310 642 367 643T467 647T542 654L550 643Q545 618 540 586T532 522T527
462L438 456Q439 464 439 476T440 496Q440 517 436 529T419 548T381 557T312 560Q288 560 277 558T262 549T258 526L248 309L245 137Q245 110 249 98T267 81T310 77Q357 77 386 81T431 96T455 131T468 191L550 198L557 189Q550 152 543 100T530 4L520 -7Q466 -5
408 -4T297 -1T209 0Q173 0 125 -2T38 -10ZM235 278L243 369Q250 369 268 369T307 369T345 368Q361 368 396 371T461 377L469 368L455 283Q429 284 390 285T324 286Q302 286 277 284T235 278ZM257 698L244 706L231 751Q271 769 310 787T382 821T433 846T453 856L465
851L490 776L485 763Q485 763 466 758T414 744T341 723T257 698Z" />
<glyph unicode="&#xca;" horiz-adv-x="596" d="M38 -10L45 57Q87 63 102 81T117 143L118 524Q118 557 112 567T86 578Q80 578 71 578T55 576L49 585L57 645Q80 645 112 644T177 643T238 642Q310 642 367 643T467 647T542 654L550 643Q545 618 540 586T532 522T527
462L438 456Q439 464 439 476T440 496Q440 517 436 529T419 548T381 557T312 560Q288 560 277 558T262 549T258 526L248 309L245 137Q245 110 249 98T267 81T310 77Q357 77 386 81T431 96T455 131T468 191L550 198L557 189Q550 152 543 100T530 4L520 -7Q466 -5
408 -4T297 -1T209 0Q173 0 125 -2T38 -10ZM235 278L243 369Q250 369 268 369T307 369T345 368Q361 368 396 371T461 377L469 368L455 283Q429 284 390 285T324 286Q302 286 277 284T235 278ZM192 707L177 711L153 751Q180 771 207 792T258 832T294 862T308 874H328Q328
875 341 864T378 834T428 793T483 751L460 711L445 707Q410 724 375 740T318 766Q297 757 262 741T192 707Z" />
<glyph unicode="&#xcb;" horiz-adv-x="596" d="M38 -10L45 57Q87 63 102 81T117 143L118 524Q118 557 112 567T86 578Q80 578 71 578T55 576L49 585L57 645Q80 645 112 644T177 643T238 642Q310 642 367 643T467 647T542 654L550 643Q545 618 540 586T532 522T527
462L438 456Q439 464 439 476T440 496Q440 517 436 529T419 548T381 557T312 560Q288 560 277 558T262 549T258 526L248 309L245 137Q245 110 249 98T267 81T310 77Q357 77 386 81T431 96T455 131T468 191L550 198L557 189Q550 152 543 100T530 4L520 -7Q466 -5
408 -4T297 -1T209 0Q173 0 125 -2T38 -10ZM235 278L243 369Q250 369 268 369T307 369T345 368Q361 368 396 371T461 377L469 368L455 283Q429 284 390 285T324 286Q302 286 277 284T235 278ZM403 701Q374 701 359 718T344 761Q344 790 362 809T410 828Q439 828
454 812T469 768Q469 739 451 720T403 701ZM225 701Q196 701 181 718T166 761Q166 790 184 809T233 828Q261 828 276 812T291 768Q291 739 273 720T225 701Z" />
<glyph unicode="&#xcc;" horiz-adv-x="365" d="M38 -9L44 55Q89 64 103 80T118 139V526Q118 557 111 567T82 578Q76 578 66 578T47 577L42 585L50 643Q82 643 119 643T188 642Q207 642 244 644T328 649L323 583Q285 578 273 568T258 529Q255 481 253 428T249 320T246
218T245 132Q245 91 253 77T284 63Q295 63 307 64T328 66L332 60L323 -3Q301 -2 273 -2T219 -1T176 0Q153 0 115 -2T38 -9ZM501 949Q458 962 418 974T344 995T292 1009T273 1014L268 1027L293 1102L305 1107Q305 1107 324 1098T375 1073T446 1039T526 1002L513
957L501 949Z" />
<glyph unicode="&#xcd;" horiz-adv-x="365" d="M38 -9L44 55Q89 64 103 80T118 139V526Q118 557 111 567T82 578Q76 578 66 578T47 577L42 585L50 643Q82 643 119 643T188 642Q207 642 244 644T328 649L323 583Q285 578 273 568T258 529Q255 481 253 428T249 320T246
218T245 132Q245 91 253 77T284 63Q295 63 307 64T328 66L332 60L323 -3Q301 -2 273 -2T219 -1T176 0Q153 0 115 -2T38 -9ZM346 698L333 706L320 751Q360 769 399 787T471 821T522 846T542 856L554 851L579 776L574 763Q574 763 555 758T503 744T430 723T346 698Z"
/>
<glyph unicode="&#xce;" horiz-adv-x="365" d="M38 -9L44 55Q89 64 103 80T118 139V526Q118 557 111 567T82 578Q76 578 66 578T47 577L42 585L50 643Q82 643 119 643T188 642Q207 642 244 644T328 649L323 583Q285 578 273 568T258 529Q255 481 253 428T249 320T246
218T245 132Q245 91 253 77T284 63Q295 63 307 64T328 66L332 60L323 -3Q301 -2 273 -2T219 -1T176 0Q153 0 115 -2T38 -9ZM313 707L298 711L274 751Q301 771 328 792T379 832T415 862T429 874H449Q449 875 462 864T499 834T549 793T604 751L581 711L566 707Q531
724 496 740T439 766Q418 757 383 741T313 707Z" />
<glyph unicode="&#xcf;" horiz-adv-x="365" d="M38 -9L44 55Q89 64 103 80T118 139V526Q118 557 111 567T82 578Q76 578 66 578T47 577L42 585L50 643Q82 643 119 643T188 642Q207 642 244 644T328 649L323 583Q285 578 273 568T258 529Q255 481 253 428T249 320T246
218T245 132Q245 91 253 77T284 63Q295 63 307 64T328 66L332 60L323 -3Q301 -2 273 -2T219 -1T176 0Q153 0 115 -2T38 -9ZM524 701Q495 701 480 718T465 761Q465 790 483 809T531 828Q560 828 575 812T590 768Q590 739 572 720T524 701ZM346 701Q317 701 302 718T287
761Q287 790 305 809T354 828Q382 828 397 812T412 768Q412 739 394 720T346 701Z" />
<glyph unicode="&#xd0;" horiz-adv-x="709" d="M332 -12Q332 -12 317 -10T278 -6T229 -2T181 0Q155 0 126 -2T75 -7T54 -10L61 57Q91 63 106 72T127 102T133 162V287H16L8 294L18 352H133V523Q133 555 127 566T102 577Q92 577 81 576T69 575L63 584L71 645Q71
645 85 645T119 644T161 643T197 642Q212 642 238 642T291 644T336 645T355 646Q455 646 528 610T640 506T679 347Q679 267 654 202T582 89T472 14T332 -12ZM264 352L391 354L397 345L391 287H262L259 145Q259 117 266 101T292 79T345 72Q433 72 479 134T526 316Q526
401 502 455T427 536T301 562Q285 562 279 557T272 538L264 352Z" />
<glyph unicode="&#xd1;" horiz-adv-x="728" d="M527 -27Q468 67 415 148T320 291T254 388T230 423H221L220 108Q220 83 227 73T254 63Q260 63 270 63T289 64T298 65L303 59L293 -4Q293 -4 279 -4T245 -2T203 -1T165 0Q139 0 111 -2T64 -6T45 -8L52 58Q82 62 96
76T112 121L124 518Q124 551 108 563T43 581L36 590L43 647Q43 647 61 646T106 644T157 642Q178 642 200 643T236 645T251 646Q291 581 330 520T403 407T465 315T507 253T522 230H532L530 535Q529 558 522 568T497 578Q487 578 477 578T462 577L459 584L466 646Q466
646 479 646T513 644T554 643T593 642Q617 642 644 643T691 645T710 647L705 581Q672 577 657 563T641 518L628 -14L527 -27ZM237 688L199 724V734L277 829L293 833Q306 833 327 828T370 817T413 805T443 800Q452 800 463 808T484 825T501 843T508 851H518L557
815V805L479 710L462 706Q450 706 429 711T386 722T344 734T312 739Q303 739 292 731T271 714T255 696T248 688H237Z" />
<glyph unicode="&#xd2;" horiz-adv-x="675" d="M315 -12Q227 -12 163 26T64 136T29 304Q29 382 52 446T118 557T222 629T357 654Q448 654 512 616T612 508T647 341Q647 261 623 197T555 86T450 14T315 -12ZM341 73Q389 73 423 98T475 171T494 289Q494 377 475
437T418 528T329 559Q282 559 249 534T197 460T179 343Q179 256 198 196T254 104T341 73ZM401 698Q358 711 318 723T244 744T192 758T173 763L168 776L193 851L205 856Q205 856 224 847T275 822T346 788T426 751L413 706L401 698Z" />
<glyph unicode="&#xd3;" horiz-adv-x="675" d="M315 -12Q227 -12 163 26T64 136T29 304Q29 382 52 446T118 557T222 629T357 654Q448 654 512 616T612 508T647 341Q647 261 623 197T555 86T450 14T315 -12ZM341 73Q389 73 423 98T475 171T494 289Q494 377 475
437T418 528T329 559Q282 559 249 534T197 460T179 343Q179 256 198 196T254 104T341 73ZM274 698L261 706L248 751Q288 769 327 787T399 821T450 846T470 856L482 851L507 776L502 763Q502 763 483 758T431 744T358 723T274 698Z" />
<glyph unicode="&#xd4;" horiz-adv-x="675" d="M315 -12Q227 -12 163 26T64 136T29 304Q29 382 52 446T118 557T222 629T357 654Q448 654 512 616T612 508T647 341Q647 261 623 197T555 86T450 14T315 -12ZM341 73Q389 73 423 98T475 171T494 289Q494 377 475
437T418 528T329 559Q282 559 249 534T197 460T179 343Q179 256 198 196T254 104T341 73ZM209 707L194 711L170 751Q197 771 224 792T275 832T311 862T325 874H345Q345 875 358 864T395 834T445 793T500 751L477 711L462 707Q427 724 392 740T335 766Q314 757 279
741T209 707Z" />
<glyph unicode="&#xd5;" horiz-adv-x="675" d="M315 -12Q227 -12 163 26T64 136T29 304Q29 382 52 446T118 557T222 629T357 654Q448 654 512 616T612 508T647 341Q647 261 623 197T555 86T450 14T315 -12ZM341 73Q389 73 423 98T475 171T494 289Q494 377 475
437T418 528T329 559Q282 559 249 534T197 460T179 343Q179 256 198 196T254 104T341 73ZM194 688L156 724V734L234 829L250 833Q263 833 284 828T327 817T370 805T400 800Q409 800 420 808T441 825T458 843T465 851H475L514 815V805L436 710L419 706Q407 706 386
711T343 722T301 734T269 739Q260 739 249 731T228 714T212 696T205 688H194Z" />
<glyph unicode="&#xd6;" horiz-adv-x="675" d="M315 -12Q227 -12 163 26T64 136T29 304Q29 382 52 446T118 557T222 629T357 654Q448 654 512 616T612 508T647 341Q647 261 623 197T555 86T450 14T315 -12ZM341 73Q389 73 423 98T475 171T494 289Q494 377 475
437T418 528T329 559Q282 559 249 534T197 460T179 343Q179 256 198 196T254 104T341 73ZM419 701Q390 701 375 718T360 761Q360 790 378 809T426 828Q455 828 470 812T485 768Q485 739 467 720T419 701ZM241 701Q212 701 197 718T182 761Q182 790 200 809T249
828Q277 828 292 812T307 768Q307 739 289 720T241 701Z" />
<glyph unicode="&#xd7;" horiz-adv-x="506" d="M127 56L114 59L63 129Q63 129 81 147T128 192T184 248Q161 270 139 293T97 335T65 366T53 378L56 391L128 443Q128 443 139 432T168 402T209 361T253 317Q273 338 295 361T336 405T367 439T379 452L392 447L447
378L320 250Q341 230 364 208T407 168T439 139T451 127L447 114L376 58L251 181Q229 159 207 137T167 97T138 67T127 56Z" />
<glyph unicode="&#xd8;" horiz-adv-x="675" d="M239 81L179 121L440 574L501 534L239 81ZM127 -107L69 -78L66 -68L179 121L239 81L127 -107ZM501 534L440 574L534 728L593 700L596 687L501 534ZM315 -12Q227 -12 163 26T64 136T29 304Q29 382 52 446T118 557T222
629T357 654Q448 654 512 616T612 508T647 341Q647 261 623 197T555 86T450 14T315 -12ZM341 73Q389 73 423 98T475 171T494 289Q494 377 475 437T418 528T329 559Q282 559 249 534T197 460T179 343Q179 256 198 196T254 104T341 73Z" />
<glyph unicode="&#xd9;" horiz-adv-x="657" d="M317 -12Q202 -12 144 42T86 204V524Q86 557 80 567T53 578Q45 578 33 577T21 576L19 580L28 645Q28 645 51 644T108 643T169 642Q185 642 205 643T244 645T275 647T288 648L281 582Q249 578 238 567T224 528L217
236Q217 160 249 119T343 77Q405 77 436 110T468 209Q468 229 468 266T467 348T466 432T465 498T464 524Q463 557 457 567T432 578Q424 578 411 577T398 576L396 580L405 645Q405 645 417 645T448 644T487 643T521 642Q547 642 574 643T620 646T639 648L633 583Q596
575 585 566T574 531V220Q574 108 508 48T317 -12ZM407 698Q364 711 324 723T250 744T198 758T179 763L174 776L199 851L211 856Q211 856 230 847T281 822T352 788T432 751L419 706L407 698Z" />
<glyph unicode="&#xda;" horiz-adv-x="657" d="M317 -12Q202 -12 144 42T86 204V524Q86 557 80 567T53 578Q45 578 33 577T21 576L19 580L28 645Q28 645 51 644T108 643T169 642Q185 642 205 643T244 645T275 647T288 648L281 582Q249 578 238 567T224 528L217
236Q217 160 249 119T343 77Q405 77 436 110T468 209Q468 229 468 266T467 348T466 432T465 498T464 524Q463 557 457 567T432 578Q424 578 411 577T398 576L396 580L405 645Q405 645 417 645T448 644T487 643T521 642Q547 642 574 643T620 646T639 648L633 583Q596
575 585 566T574 531V220Q574 108 508 48T317 -12ZM280 698L267 706L254 751Q294 769 333 787T405 821T456 846T476 856L488 851L513 776L508 763Q508 763 489 758T437 744T364 723T280 698Z" />
<glyph unicode="&#xdb;" horiz-adv-x="657" d="M317 -12Q202 -12 144 42T86 204V524Q86 557 80 567T53 578Q45 578 33 577T21 576L19 580L28 645Q28 645 51 644T108 643T169 642Q185 642 205 643T244 645T275 647T288 648L281 582Q249 578 238 567T224 528L217
236Q217 160 249 119T343 77Q405 77 436 110T468 209Q468 229 468 266T467 348T466 432T465 498T464 524Q463 557 457 567T432 578Q424 578 411 577T398 576L396 580L405 645Q405 645 417 645T448 644T487 643T521 642Q547 642 574 643T620 646T639 648L633 583Q596
575 585 566T574 531V220Q574 108 508 48T317 -12ZM215 707L200 711L176 751Q203 771 230 792T281 832T317 862T331 874H351Q351 875 364 864T401 834T451 793T506 751L483 711L468 707Q433 724 398 740T341 766Q320 757 285 741T215 707Z" />
<glyph unicode="&#xdc;" horiz-adv-x="657" d="M317 -12Q202 -12 144 42T86 204V524Q86 557 80 567T53 578Q45 578 33 577T21 576L19 580L28 645Q28 645 51 644T108 643T169 642Q185 642 205 643T244 645T275 647T288 648L281 582Q249 578 238 567T224 528L217
236Q217 160 249 119T343 77Q405 77 436 110T468 209Q468 229 468 266T467 348T466 432T465 498T464 524Q463 557 457 567T432 578Q424 578 411 577T398 576L396 580L405 645Q405 645 417 645T448 644T487 643T521 642Q547 642 574 643T620 646T639 648L633 583Q596
575 585 566T574 531V220Q574 108 508 48T317 -12ZM426 701Q397 701 382 718T367 761Q367 790 385 809T433 828Q462 828 477 812T492 768Q492 739 474 720T426 701ZM248 701Q219 701 204 718T189 761Q189 790 207 809T256 828Q284 828 299 812T314 768Q314 739
296 720T248 701Z" />
<glyph unicode="&#xdd;" horiz-adv-x="594" d="M136 -11L143 56Q182 61 201 70T226 99T233 151V182Q233 208 227 230T204 285L106 475Q91 506 77 526T44 559T-8 576L-10 581L-3 644Q-3 644 11 644T46 643T89 642T125 641Q145 641 172 642T224 645T267 648T285
649L289 640L284 584Q249 581 236 575T223 553Q223 545 231 525T251 476T275 421T297 372T310 344H319L400 512Q415 541 415 559Q415 570 403 576T363 583L361 588L368 645Q380 645 402 644T451 642T500 641Q523 641 546 642T585 644T601 645L605 638L598 578Q570
569 551 554T515 514T476 450L381 271Q372 254 368 236T363 194T362 131Q361 94 371 80T408 65Q425 65 441 66T458 68L462 63L453 -4Q453 -4 435 -4T391 -2T337 -1T290 0Q268 0 242 -2T192 -5T152 -9T136 -11ZM261 698L248 706L235 751Q275 769 314 787T386 821T437
846T457 856L469 851L494 776L489 763Q489 763 470 758T418 744T345 723T261 698Z" />
<glyph unicode="&#xde;" horiz-adv-x="571" d="M38 -9L44 55Q88 63 103 80T118 139V526Q118 557 111 567T82 578Q72 578 60 578T47 577L42 585L50 643Q62 643 85 643T136 642T188 642Q204 642 228 643T274 645T312 647T328 649L323 583Q283 578 272 569T258 536Q257
527 257 522T256 512H332Q445 512 502 468T559 336Q559 282 527 239T439 170T316 144H245V114Q245 84 253 74T284 63Q303 63 317 64T332 66L337 60L328 -3Q328 -3 311 -3T269 -2T219 -1T176 0Q155 0 131 -1T86 -4T51 -7T38 -9ZM331 216Q420 230 420 326Q420 381
386 407T276 433Q262 433 258 430T252 418Q251 381 250 346T248 282T246 230Q265 225 290 221T331 216Z" />
<glyph unicode="&#xdf;" horiz-adv-x="637" d="M433 -12Q383 -12 345 5T301 46Q302 61 308 81T325 123T344 155H364Q366 114 389 90T449 65Q474 65 491 83T509 128Q509 156 488 175T436 211T372 249T319 297T298 369Q298 396 309 418T338 458T373 493T402 529T413
570Q413 607 386 630T311 653Q276 653 255 637T224 587T214 496L209 112Q208 65 243 65Q260 65 270 66T280 67L284 62L275 -3Q275 -3 263 -3T232 -2T195 -1T163 0Q145 0 123 0T80 -2T46 -4T32 -6L38 55Q71 59 82 73T94 120V347Q93 370 80 378T29 387L25 393L33
444L94 454Q94 590 160 666T345 742Q399 742 440 724T506 675T530 602Q530 572 519 549T491 506T457 470T429 436T418 398Q418 373 439 355T493 320T557 282T610 231T632 155Q632 109 606 71T534 11T433 -12Z" />
<glyph unicode="&#xe0;" horiz-adv-x="479" d="M382 -12Q338 -12 313 8T282 65L274 68Q255 48 234 31T195 3T164 -8Q125 -8 94 11T45 63T27 137Q27 168 43 190T85 220L278 265L279 289Q279 332 257 356T193 380Q165 380 133 367T76 333L67 337L50 397Q79 414 115
431T183 461T233 473Q291 473 328 455T382 407T399 337Q399 324 396 297T389 238T382 177T379 131Q379 112 388 101T415 90Q428 90 441 96T463 107L478 86Q468 69 452 48T418 10T382 -12ZM201 87Q216 87 236 95T273 116L276 211L169 181Q145 174 145 148Q145 122
160 105T201 87ZM280 524Q234 559 191 588T121 635T93 653L91 667L144 735L158 736Q158 736 172 721T210 681T264 626T324 566L295 528L280 524Z" />
<glyph unicode="&#xe1;" horiz-adv-x="479" d="M382 -12Q338 -12 313 8T282 65L274 68Q255 48 234 31T195 3T164 -8Q125 -8 94 11T45 63T27 137Q27 168 43 190T85 220L278 265L279 289Q279 332 257 356T193 380Q165 380 133 367T76 333L67 337L50 397Q79 414 115
431T183 461T233 473Q291 473 328 455T382 407T399 337Q399 324 396 297T389 238T382 177T379 131Q379 112 388 101T415 90Q428 90 441 96T463 107L478 86Q468 69 452 48T418 10T382 -12ZM201 87Q216 87 236 95T273 116L276 211L169 181Q145 174 145 148Q145 122
160 105T201 87ZM190 522L175 526L144 563Q174 593 203 624T255 680T293 721T307 737H320L376 670L375 657Q375 657 348 638T278 589T190 522Z" />
<glyph unicode="&#xe2;" horiz-adv-x="479" d="M382 -12Q338 -12 313 8T282 65L274 68Q255 48 234 31T195 3T164 -8Q125 -8 94 11T45 63T27 137Q27 168 43 190T85 220L278 265L279 289Q279 332 257 356T193 380Q165 380 133 367T76 333L67 337L50 397Q79 414 115
431T183 461T233 473Q291 473 328 455T382 407T399 337Q399 324 396 297T389 238T382 177T379 131Q379 112 388 101T415 90Q428 90 441 96T463 107L478 86Q468 69 452 48T418 10T382 -12ZM201 87Q216 87 236 95T273 116L276 211L169 181Q145 174 145 148Q145 122
160 105T201 87ZM111 531L95 534L67 574Q93 600 120 627T169 677T205 714T218 729H238Q238 729 251 715T286 677T335 627T388 574L360 534L345 531Q313 557 281 579T228 615Q207 601 175 579T111 531Z" />
<glyph unicode="&#xe3;" horiz-adv-x="479" d="M382 -12Q338 -12 313 8T282 65L274 68Q255 48 234 31T195 3T164 -8Q125 -8 94 11T45 63T27 137Q27 168 43 190T85 220L278 265L279 289Q279 332 257 356T193 380Q165 380 133 367T76 333L67 337L50 397Q79 414 115
431T183 461T233 473Q291 473 328 455T382 407T399 337Q399 324 396 297T389 238T382 177T379 131Q379 112 388 101T415 90Q428 90 441 96T463 107L478 86Q468 69 452 48T418 10T382 -12ZM201 87Q216 87 236 95T273 116L276 211L169 181Q145 174 145 148Q145 122
160 105T201 87ZM85 538L46 574V584L124 685L141 689Q153 689 174 684T217 672T260 660T290 655Q299 655 310 664T331 683T348 703T355 712H366L404 676V666L326 565L310 561Q297 561 276 566T233 577T191 589T160 594Q151 594 140 586T119 566T102 547T95 538H85Z"
/>
<glyph unicode="&#xe4;" horiz-adv-x="479" d="M382 -12Q338 -12 313 8T282 65L274 68Q255 48 234 31T195 3T164 -8Q125 -8 94 11T45 63T27 137Q27 168 43 190T85 220L278 265L279 289Q279 332 257 356T193 380Q165 380 133 367T76 333L67 337L50 397Q79 414 115
431T183 461T233 473Q291 473 328 455T382 407T399 337Q399 324 396 297T389 238T382 177T379 131Q379 112 388 101T415 90Q428 90 441 96T463 107L478 86Q468 69 452 48T418 10T382 -12ZM201 87Q216 87 236 95T273 116L276 211L169 181Q145 174 145 148Q145 122
160 105T201 87ZM311 553Q282 553 267 569T252 613Q252 642 270 660T318 679Q347 679 362 663T377 620Q377 591 359 572T311 553ZM133 553Q104 553 89 569T74 613Q74 642 92 660T141 679Q169 679 184 663T199 620Q199 591 181 572T133 553Z" />
<glyph unicode="&#xe5;" horiz-adv-x="479" d="M382 -12Q338 -12 313 8T282 65L274 68Q255 48 234 31T195 3T164 -8Q125 -8 94 11T45 63T27 137Q27 168 43 190T85 220L278 265L279 289Q279 332 257 356T193 380Q165 380 133 367T76 333L67 337L50 397Q79 414 115
431T183 461T233 473Q291 473 328 455T382 407T399 337Q399 324 396 297T389 238T382 177T379 131Q379 112 388 101T415 90Q428 90 441 96T463 107L478 86Q468 69 452 48T418 10T382 -12ZM201 87Q216 87 236 95T273 116L276 211L169 181Q145 174 145 148Q145 122
160 105T201 87ZM223 544Q183 544 160 568T136 634Q136 677 162 703T232 729Q272 729 296 706T320 643Q320 600 293 572T223 544ZM230 597Q249 597 259 606T270 633Q270 653 258 664T225 675Q184 675 184 639Q184 621 197 609T230 597Z" />
<glyph unicode="&#xe6;" horiz-adv-x="669" d="M486 -12Q421 -12 372 13T296 87Q253 46 216 21T156 -8Q117 -8 86 10T37 61T19 134Q19 168 36 192T83 222L265 261L266 292Q266 335 244 358T181 382Q152 382 125 370T80 346T62 333L54 337L36 397Q36 397 50 405T86
424T134 446T182 465T219 473Q304 473 343 407Q372 439 410 456T493 473Q566 473 606 429T647 307Q647 295 646 287T645 278L634 266L378 221Q385 155 418 119T508 82Q539 82 566 90T611 107T629 115L636 111L652 62Q652 62 636 51T595 25T541 -1T486 -12ZM190
85Q207 85 230 96T277 128Q265 164 264 208L164 182Q149 179 142 169T135 145Q135 120 150 103T190 85ZM375 274L505 307Q523 311 523 322Q523 352 507 371T465 391Q423 391 399 364T375 291V274Z" />
<glyph unicode="&#xe7;" horiz-adv-x="431" d="M246 -12Q178 -12 129 16T53 95T26 218Q26 293 57 350T143 440T269 473Q307 473 335 468T379 458T396 453L400 444Q400 444 396 423T386 367T378 290L314 286V319Q314 354 298 372T251 390Q205 390 180 356T155 257Q155
174 184 131T266 87Q294 87 318 94T358 109T373 116L380 113L396 62Q396 62 382 51T344 25T294 -1T246 -12ZM217 -237Q200 -237 183 -232T153 -217T140 -194Q140 -183 152 -164T176 -132H185Q186 -160 200 -174T237 -188Q255 -188 266 -180T278 -157Q278 -145 265
-133T232 -109T192 -86L224 28H275L254 -45Q273 -55 295 -70T333 -102T350 -141Q350 -167 331 -189T281 -224T217 -237Z" />
<glyph unicode="&#xe8;" horiz-adv-x="462" d="M252 -12Q182 -12 132 16T54 96T26 218Q26 273 44 319T94 399T169 453T262 473Q430 473 430 303Q430 288 428 272T423 247L411 235H152Q154 166 184 128T270 85T399 115L406 111L422 62Q402 47 372 30T310 0T252
-12ZM152 290L289 298Q301 299 304 303T308 321Q308 357 292 376T245 395Q206 395 182 369T152 290ZM303 523Q257 558 214 587T144 634T116 652L114 666L167 734L181 735Q181 735 195 720T233 680T287 625T347 565L318 527L303 523Z" />
<glyph unicode="&#xe9;" horiz-adv-x="462" d="M252 -12Q182 -12 132 16T54 96T26 218Q26 273 44 319T94 399T169 453T262 473Q430 473 430 303Q430 288 428 272T423 247L411 235H152Q154 166 184 128T270 85T399 115L406 111L422 62Q402 47 372 30T310 0T252
-12ZM152 290L289 298Q301 299 304 303T308 321Q308 357 292 376T245 395Q206 395 182 369T152 290ZM212 521L197 525L166 562Q196 592 225 623T277 679T315 720T329 736H342L398 669L397 656Q397 656 370 637T300 588T212 521Z" />
<glyph unicode="&#xea;" horiz-adv-x="462" d="M252 -12Q182 -12 132 16T54 96T26 218Q26 273 44 319T94 399T169 453T262 473Q430 473 430 303Q430 288 428 272T423 247L411 235H152Q154 166 184 128T270 85T399 115L406 111L422 62Q402 47 372 30T310 0T252
-12ZM152 290L289 298Q301 299 304 303T308 321Q308 357 292 376T245 395Q206 395 182 369T152 290ZM134 531L118 534L90 574Q116 600 143 627T192 677T228 714T241 729H261Q261 729 274 715T309 677T358 627T411 574L383 534L368 531Q336 557 304 579T251 615Q230
601 198 579T134 531Z" />
<glyph unicode="&#xeb;" horiz-adv-x="462" d="M252 -12Q182 -12 132 16T54 96T26 218Q26 273 44 319T94 399T169 453T262 473Q430 473 430 303Q430 288 428 272T423 247L411 235H152Q154 166 184 128T270 85T399 115L406 111L422 62Q402 47 372 30T310 0T252
-12ZM152 290L289 298Q301 299 304 303T308 321Q308 357 292 376T245 395Q206 395 182 369T152 290ZM334 552Q305 552 290 568T275 612Q275 641 293 659T341 678Q370 678 385 662T400 619Q400 590 382 571T334 552ZM156 552Q127 552 112 568T97 612Q97 641 115
659T164 678Q192 678 207 662T222 619Q222 590 204 571T156 552Z" />
<glyph unicode="&#xec;" horiz-adv-x="292" d="M27 -11L35 52Q64 57 77 72T91 114V330Q91 362 82 374T49 386Q43 386 35 385T26 383L32 440Q66 445 99 450T160 461T204 470T221 473L230 457Q225 446 221 415T213 337T208 231T206 105Q206 82 213 72T237 61Q245
61 255 62T266 63L269 58L259 -3Q259 -3 248 -3T220 -2T184 -1T149 0Q125 0 97 -3T48 -8T27 -11ZM455 523Q409 558 366 587T296 634T268 652L266 666L319 734L333 735Q333 735 347 720T385 680T439 625T499 565L470 527L455 523Z" />
<glyph unicode="&#xed;" horiz-adv-x="292" d="M27 -11L35 52Q64 57 77 72T91 114V330Q91 362 82 374T49 386Q43 386 35 385T26 383L32 440Q66 445 99 450T160 461T204 470T221 473L230 457Q225 446 221 415T213 337T208 231T206 105Q206 82 213 72T237 61Q245
61 255 62T266 63L269 58L259 -3Q259 -3 248 -3T220 -2T184 -1T149 0Q125 0 97 -3T48 -8T27 -11ZM330 521L315 525L284 562Q314 592 343 623T395 679T433 720T447 736H460L516 669L515 656Q515 656 488 637T418 588T330 521Z" />
<glyph unicode="&#xee;" horiz-adv-x="292" d="M27 -11L35 52Q64 57 77 72T91 114V330Q91 362 82 374T49 386Q43 386 35 385T26 383L32 440Q66 445 99 450T160 461T204 470T221 473L230 457Q225 446 221 415T213 337T208 231T206 105Q206 82 213 72T237 61Q245
61 255 62T266 63L269 58L259 -3Q259 -3 248 -3T220 -2T184 -1T149 0Q125 0 97 -3T48 -8T27 -11ZM292 786L276 789L248 829Q274 855 301 882T350 932T386 969T399 984H419Q419 984 432 970T467 932T516 882T569 829L541 789L526 786Q494 812 462 834T409 870Q388
856 356 834T292 786Z" />
<glyph unicode="&#xef;" horiz-adv-x="292" d="M27 -11L35 52Q64 57 77 72T91 114V330Q91 362 82 374T49 386Q43 386 35 385T26 383L32 440Q66 445 99 450T160 461T204 470T221 473L230 457Q225 446 221 415T213 337T208 231T206 105Q206 82 213 72T237 61Q245
61 255 62T266 63L269 58L259 -3Q259 -3 248 -3T220 -2T184 -1T149 0Q125 0 97 -3T48 -8T27 -11ZM474 792Q447 792 433 808T418 849Q418 876 435 894T481 912Q508 912 522 897T536 856Q536 828 519 810T474 792ZM320 792Q293 792 279 808T265 849Q265 876 282 894T328
912Q355 912 369 897T383 856Q383 828 366 810T320 792Z" />
<glyph unicode="&#xf0;" horiz-adv-x="508" d="M244 -12Q178 -12 130 15T56 95T29 219Q29 284 55 338T128 425T234 458Q246 457 258 453T280 444T293 438L296 443Q282 473 263 500T218 552L89 488L79 490L63 549L164 599Q137 622 106 642T38 681L69 736L82 741Q177
700 253 644L393 715L402 710L418 652L310 599Q392 525 435 436T479 249Q479 172 449 113T367 21T244 -12ZM266 63Q305 63 325 98T346 204Q346 284 331 349Q321 358 302 367T251 376Q220 376 200 362T170 317T160 233Q160 177 172 139T209 82T266 63Z" />
<glyph unicode="&#xf1;" horiz-adv-x="570" d="M319 54Q344 59 354 72T366 110L369 283Q369 327 353 348T304 370Q288 370 271 364T239 348T216 332Q215 305 213 271T210 204T207 144T206 107Q206 81 213 72T236 62Q243 62 253 62T263 63L265 59L255 -3Q255 -3
237 -2T195 -1T150 0Q124 0 97 -1T51 -4T32 -6L40 56Q69 60 80 72T92 112V324Q92 358 82 371T43 384H30L26 389L31 441Q77 448 119 455T188 468T215 474L223 464Q223 464 219 443T212 395L216 391Q228 401 245 415T282 442T319 464T346 473Q417 473 456 439T496
344Q496 329 493 298T487 230T481 160T478 108Q478 83 485 72T509 60Q518 60 529 61T540 62L542 58L533 -3Q533 -3 522 -3T493 -2T458 -1T425 0Q410 0 392 -1T355 -4T326 -6T314 -8L319 54ZM156 537L117 573V583L195 684L212 688Q224 688 245 683T288 671T331 659T361
654Q370 654 381 663T402 682T419 702T426 711H437L475 675V665L397 564L381 560Q368 560 347 565T304 576T262 588T231 593Q222 593 211 585T190 565T173 546T166 537H156Z" />
<glyph unicode="&#xf2;" horiz-adv-x="503" d="M243 -12Q179 -12 132 16T59 96T32 217Q32 293 62 350T147 440T273 473Q338 473 385 445T457 366T483 245Q483 169 453 111T369 21T243 -12ZM263 63Q306 63 328 97T351 199Q351 262 339 304T305 368T250 389Q207
389 185 355T162 253Q162 190 174 148T208 84T263 63ZM311 523Q265 558 222 587T152 634T124 652L122 666L175 734L189 735Q189 735 203 720T241 680T295 625T355 565L326 527L311 523Z" />
<glyph unicode="&#xf3;" horiz-adv-x="503" d="M243 -12Q179 -12 132 16T59 96T32 217Q32 293 62 350T147 440T273 473Q338 473 385 445T457 366T483 245Q483 169 453 111T369 21T243 -12ZM263 63Q306 63 328 97T351 199Q351 262 339 304T305 368T250 389Q207
389 185 355T162 253Q162 190 174 148T208 84T263 63ZM220 521L205 525L174 562Q204 592 233 623T285 679T323 720T337 736H350L406 669L405 656Q405 656 378 637T308 588T220 521Z" />
<glyph unicode="&#xf4;" horiz-adv-x="503" d="M243 -12Q179 -12 132 16T59 96T32 217Q32 293 62 350T147 440T273 473Q338 473 385 445T457 366T483 245Q483 169 453 111T369 21T243 -12ZM263 63Q306 63 328 97T351 199Q351 262 339 304T305 368T250 389Q207
389 185 355T162 253Q162 190 174 148T208 84T263 63ZM142 531L126 534L98 574Q124 600 151 627T200 677T236 714T249 729H269Q269 729 282 715T317 677T366 627T419 574L391 534L376 531Q344 557 312 579T259 615Q238 601 206 579T142 531Z" />
<glyph unicode="&#xf5;" horiz-adv-x="503" d="M243 -12Q179 -12 132 16T59 96T32 217Q32 293 62 350T147 440T273 473Q338 473 385 445T457 366T483 245Q483 169 453 111T369 21T243 -12ZM263 63Q306 63 328 97T351 199Q351 262 339 304T305 368T250 389Q207
389 185 355T162 253Q162 190 174 148T208 84T263 63ZM115 537L76 573V583L154 684L171 688Q183 688 204 683T247 671T290 659T320 654Q329 654 340 663T361 682T378 702T385 711H396L434 675V665L356 564L340 560Q327 560 306 565T263 576T221 588T190 593Q181
593 170 585T149 565T132 546T125 537H115Z" />
<glyph unicode="&#xf6;" horiz-adv-x="503" d="M243 -12Q179 -12 132 16T59 96T32 217Q32 293 62 350T147 440T273 473Q338 473 385 445T457 366T483 245Q483 169 453 111T369 21T243 -12ZM263 63Q306 63 328 97T351 199Q351 262 339 304T305 368T250 389Q207
389 185 355T162 253Q162 190 174 148T208 84T263 63ZM342 552Q313 552 298 568T283 612Q283 641 301 659T349 678Q378 678 393 662T408 619Q408 590 390 571T342 552ZM164 552Q135 552 120 568T105 612Q105 641 123 659T172 678Q200 678 215 662T230 619Q230 590
212 571T164 552Z" />
<glyph unicode="&#xf7;" horiz-adv-x="506" d="M24 208L17 219L31 306Q31 306 54 306T115 306T192 305T265 305Q295 305 332 306T404 308T460 310T482 311L489 299L479 210L252 209Q218 209 179 209T104 209T47 208T24 208ZM245 8Q212 8 195 27T178 76Q178 109
198 130T252 151Q284 151 301 132T319 83Q319 50 299 29T245 8ZM245 363Q212 363 195 382T178 430Q178 464 198 484T252 505Q284 505 301 486T319 437Q319 405 299 384T245 363Z" />
<glyph unicode="&#xf8;" horiz-adv-x="516" d="M196 61L136 100L319 416L380 376L196 61ZM89 -116L31 -88L28 -78L136 100L196 61L89 -116ZM380 376L319 416L411 570L470 541L473 529L380 376ZM245 -12Q182 -12 135 16T61 96T35 217Q35 293 65 350T149 440T276
473Q340 473 387 445T460 366T485 245Q485 169 455 111T371 21T245 -12ZM266 63Q308 63 330 97T353 199Q353 262 342 304T307 368T252 389Q210 389 187 355T164 253Q164 190 176 148T211 84T266 63Z" />
<glyph unicode="&#xf9;" horiz-adv-x="546" d="M75 337Q75 362 67 374T41 386Q32 386 24 385T16 383L22 441Q53 445 84 450T143 461T186 470T203 473L212 457Q206 444 202 415T193 347T187 263T185 173Q185 92 248 92Q271 92 293 104T335 130V336Q335 365 327
374T292 385Q288 385 282 385T274 384L282 441Q315 445 347 450T407 460T451 468T468 471L477 455Q470 440 464 392T454 275T450 131Q450 112 459 101T486 90Q498 90 509 94T527 103T534 107L549 87Q549 87 540 74T516 42T482 8T446 -12Q354 -12 344 65L336 69Q297
33 267 11T224 -11Q148 -11 108 21T68 114L75 337ZM318 523Q272 558 229 587T159 634T131 652L129 666L182 734L196 735Q196 735 210 720T248 680T302 625T362 565L333 527L318 523Z" />
<glyph unicode="&#xfa;" horiz-adv-x="546" d="M75 337Q75 362 67 374T41 386Q32 386 24 385T16 383L22 441Q53 445 84 450T143 461T186 470T203 473L212 457Q206 444 202 415T193 347T187 263T185 173Q185 92 248 92Q271 92 293 104T335 130V336Q335 365 327
374T292 385Q288 385 282 385T274 384L282 441Q315 445 347 450T407 460T451 468T468 471L477 455Q470 440 464 392T454 275T450 131Q450 112 459 101T486 90Q498 90 509 94T527 103T534 107L549 87Q549 87 540 74T516 42T482 8T446 -12Q354 -12 344 65L336 69Q297
33 267 11T224 -11Q148 -11 108 21T68 114L75 337ZM227 521L212 525L181 562Q211 592 240 623T292 679T330 720T344 736H357L413 669L412 656Q412 656 385 637T315 588T227 521Z" />
<glyph unicode="&#xfb;" horiz-adv-x="546" d="M75 337Q75 362 67 374T41 386Q32 386 24 385T16 383L22 441Q53 445 84 450T143 461T186 470T203 473L212 457Q206 444 202 415T193 347T187 263T185 173Q185 92 248 92Q271 92 293 104T335 130V336Q335 365 327
374T292 385Q288 385 282 385T274 384L282 441Q315 445 347 450T407 460T451 468T468 471L477 455Q470 440 464 392T454 275T450 131Q450 112 459 101T486 90Q498 90 509 94T527 103T534 107L549 87Q549 87 540 74T516 42T482 8T446 -12Q354 -12 344 65L336 69Q297
33 267 11T224 -11Q148 -11 108 21T68 114L75 337ZM148 531L132 534L104 574Q130 600 157 627T206 677T242 714T255 729H275Q275 729 288 715T323 677T372 627T425 574L397 534L382 531Q350 557 318 579T265 615Q244 601 212 579T148 531Z" />
<glyph unicode="&#xfc;" horiz-adv-x="546" d="M75 337Q75 362 67 374T41 386Q32 386 24 385T16 383L22 441Q53 445 84 450T143 461T186 470T203 473L212 457Q206 444 202 415T193 347T187 263T185 173Q185 92 248 92Q271 92 293 104T335 130V336Q335 365 327
374T292 385Q288 385 282 385T274 384L282 441Q315 445 347 450T407 460T451 468T468 471L477 455Q470 440 464 392T454 275T450 131Q450 112 459 101T486 90Q498 90 509 94T527 103T534 107L549 87Q549 87 540 74T516 42T482 8T446 -12Q354 -12 344 65L336 69Q297
33 267 11T224 -11Q148 -11 108 21T68 114L75 337ZM349 552Q320 552 305 568T290 612Q290 641 308 659T356 678Q385 678 400 662T415 619Q415 590 397 571T349 552ZM171 552Q142 552 127 568T112 612Q112 641 130 659T179 678Q207 678 222 662T237 619Q237 590
219 571T171 552Z" />
<glyph unicode="&#xfd;" horiz-adv-x="464" d="M52 -241Q45 -241 33 -232T9 -209T-13 -183T-22 -161L-15 -149Q50 -144 100 -107T183 -8Q172 21 159 59T130 140T100 224T72 299T49 358Q38 381 24 390T-12 401L-14 406L-7 462Q-1 462 13 462T43 462T71 461Q97 461
123 462T172 464T208 467T222 468L224 463L216 406Q187 405 178 400T168 382Q168 374 173 353T186 303T202 244T219 189T232 147T237 131H247Q262 170 278 211T308 288T330 350T338 382Q338 394 332 398T308 403H276L273 408L281 464Q281 464 298 464T339 462T387
461Q404 461 422 461T456 462T479 462L471 402Q450 397 440 388T420 353L293 44Q262 -33 233 -87T174 -176T116 -226T52 -241ZM211 521L196 525L165 562Q195 592 224 623T276 679T314 720T328 736H341L397 669L396 656Q396 656 369 637T299 588T211 521Z" />
<glyph unicode="&#xfe;" horiz-adv-x="513" d="M5 -236L13 -175Q37 -173 48 -166T62 -142T65 -97L69 76V602Q69 626 64 637T44 652T0 653L6 710Q36 714 72 719T144 731T208 742L215 723Q209 716 204 677T196 569T189 406Q214 424 236 438T275 462T298 471Q356
471 398 444T464 368T488 250Q488 175 456 117T367 24T236 -10L183 -7L182 -104Q182 -135 187 -149T210 -167T264 -167L267 -171L256 -232Q239 -231 219 -231T181 -230T149 -230Q115 -230 77 -232T5 -236ZM259 71Q307 71 334 108T361 212Q361 262 349 299T314 356T262
377Q246 377 225 368T186 342L184 87L259 71Z" />
<glyph unicode="&#xff;" horiz-adv-x="464" d="M52 -241Q45 -241 33 -232T9 -209T-13 -183T-22 -161L-15 -149Q50 -144 100 -107T183 -8Q172 21 159 59T130 140T100 224T72 299T49 358Q38 381 24 390T-12 401L-14 406L-7 462Q-1 462 13 462T43 462T71 461Q97 461
123 462T172 464T208 467T222 468L224 463L216 406Q187 405 178 400T168 382Q168 374 173 353T186 303T202 244T219 189T232 147T237 131H247Q262 170 278 211T308 288T330 350T338 382Q338 394 332 398T308 403H276L273 408L281 464Q281 464 298 464T339 462T387
461Q404 461 422 461T456 462T479 462L471 402Q450 397 440 388T420 353L293 44Q262 -33 233 -87T174 -176T116 -226T52 -241ZM332 552Q303 552 288 568T273 612Q273 641 291 659T339 678Q368 678 383 662T398 619Q398 590 380 571T332 552ZM154 552Q125 552 110
568T95 612Q95 641 113 659T162 678Q190 678 205 662T220 619Q220 590 202 571T154 552Z" />
<glyph unicode="&#x2013;" horiz-adv-x="536" d="M40 212L32 226L43 300L284 299L495 304L503 290L493 214Q446 214 395 214T293 214T194 213T107 212T40 212Z" />
<glyph unicode="&#x2014;" horiz-adv-x="878" d="M0 212L-9 226L2 300Q21 300 56 300T139 300T238 300T343 299T443 299Q488 299 543 299T654 300T759 301T840 302T880 304L887 290L877 214Q802 214 720 214T553 214T389 213T235 213T102 212T0 212Z" />
<glyph unicode="&#x2018;" horiz-adv-x="215" d="M107 381Q77 381 57 409T36 477Q36 517 64 565T144 656L185 635L189 619Q167 598 154 572T141 522Q141 498 155 478T191 445L192 431Q149 381 107 381Z" />
<glyph unicode="&#x2019;" horiz-adv-x="215" d="M71 381L30 402L27 418Q48 439 61 466T74 515Q74 539 60 560T24 592L23 606Q67 656 108 656Q138 656 158 629T179 560Q179 520 151 472T71 381Z" />
<glyph unicode="&#x201a;" horiz-adv-x="238" d="M67 -141L31 -112V-95Q63 -73 83 -42T103 19Q103 39 95 59T73 91L75 105Q93 119 114 129T153 140Q182 140 200 117T219 51Q219 15 198 -21T142 -87T67 -141Z" />
<glyph unicode="&#x201c;" horiz-adv-x="397" d="M289 381Q259 381 239 409T218 477Q218 517 246 565T326 656L367 635L371 619Q349 598 336 572T323 522Q323 498 337 478T373 445L374 431Q331 381 289 381ZM107 381Q77 381 57 409T36 477Q36 517 64 565T144 656L185
635L189 619Q167 598 154 572T141 522Q141 498 155 478T191 445L192 431Q149 381 107 381Z" />
<glyph unicode="&#x201d;" horiz-adv-x="397" d="M253 381L212 402L209 418Q230 439 243 466T256 515Q256 539 242 560T206 592L205 606Q249 656 290 656Q320 656 340 629T361 560Q361 520 333 472T253 381ZM71 381L30 402L27 418Q48 439 61 466T74 515Q74 539
60 560T24 592L23 606Q67 656 108 656Q138 656 158 629T179 560Q179 520 151 472T71 381Z" />
<glyph unicode="&#x201e;" horiz-adv-x="420" d="M229 -125L193 -96V-79Q222 -59 241 -31T261 23Q261 43 251 61T226 91L229 105Q246 119 267 129T306 140Q336 140 355 117T374 55Q374 20 354 -13T301 -75T229 -125ZM49 -125L13 -96V-79Q43 -59 62 -31T82 23Q82
43 72 61T47 91L49 105Q67 119 88 129T127 140Q157 140 176 117T195 55Q195 20 175 -13T121 -75T49 -125Z" />
<glyph unicode="&#x2022;" horiz-adv-x="340" d="M167 113Q111 113 81 146T51 230Q51 285 84 319T173 354Q227 354 258 322T289 238Q289 183 256 148T167 113Z" />
<glyph unicode="&#x2039;" horiz-adv-x="265" d="M187 44Q159 75 130 105T77 160T37 200T22 215V236Q22 236 37 251T76 291T130 348T187 410L227 386L230 370Q206 334 183 297T140 229Q160 197 183 160T230 85L227 69L187 44Z" />
<glyph unicode="&#x203a;" horiz-adv-x="265" d="M79 44L38 68L35 84Q59 120 82 157T125 225Q105 257 82 294T35 370L38 385L79 410Q106 380 135 350T188 294T228 254T243 239V219Q243 219 228 204T189 163T135 106T79 44Z" />
</font>
</defs>
</svg>
