<?xml version="1.0" standalone="no"?>
<!DOCTYPE svg PUBLIC "-//W3C//DTD SVG 1.1//EN" "http://www.w3.org/Graphics/SVG/1.1/DTD/svg11.dtd">
<svg xmlns="http://www.w3.org/2000/svg">
<defs >
<font id="Alegreya" horiz-adv-x="562" ><font-face
    font-family="Alegreya"
    units-per-em="1000"
    panose-1="0 0 8 0 0 0 0 0 0 0"
    ascent="1016"
    descent="-345"
    alphabetic="0" />
<glyph unicode=" " glyph-name="space" horiz-adv-x="174" />
<glyph unicode="!" glyph-name="exclam" horiz-adv-x="285" d="M93 235L74 666L86 683L216 704L232 687L171 232L109 221L93 235ZM88 -11T70 9T51 63Q51 99 72 121T131 144Q166 144 185 124T204 70Q204 34 182 12T124 -11Q88 -11 70 9Z" />
<glyph unicode="&quot;" glyph-name="quotedbl" horiz-adv-x="320" d="M47 412L48 457Q48 518 45 571T40 640L139 654L147 644Q144 625 134 560T109 428L62 409L47 412ZM191 412L192 457Q192 518 189 571T184 640L283 654L291 644Q288 625 278 560T253 428L206
409L191 412Z" />
<glyph unicode="#" glyph-name="numbersign" horiz-adv-x="525" d="M83 41L111 180L15 179L9 190L24 258L126 257L136 309L145 352H49L43 363L58 431L158 430L186 570L256 577L267 571L236 429H330L358 570L429 577L439 571L408 430L506 431L511 420L497 352H393L387
323L374 257L471 259L477 247L462 179L361 180L334 44L265 33L255 41L284 180L227 181L189 180L162 44L93 33L83 41ZM284 288L312 317L277 338L259 353L232 331H216L206 285H235L260 256L284 288Z" />
<glyph unicode="$" glyph-name="dollar" horiz-adv-x="466" d="M427 85T376 44T238 -7L222 -151L157 -159L150 -152L166 -8Q133 -6 106 0T64 13T44 21L36 33Q38 45 44 86T51 164L126 170Q126 112 145 91T213 69Q250 69 271 83T293 121Q293 145 269 162T194 201L173
210Q112 237 78 269T43 352Q43 413 92 455T222 507L237 649L304 658L310 649L294 509Q325 508 351 504T393 495T413 489L420 477Q418 466 411 427T400 343L331 338L323 343L324 367Q324 399 306 413T248 428Q216 428 195 414T174 377Q174 352 200 336T282 295Q328
275 357 258T406 214T427 149Q427 85 376 44Z" />
<glyph unicode="%" glyph-name="percent" horiz-adv-x="710" d="M81 -67L75 -53Q95 -22 162 79T284 265L545 678L605 654L613 635Q584 591 494 454T347 228Q277 117 220 27T144 -93L81 -67ZM94 310T57 354T19 475Q19 556 62 605T177 654Q245 654 281 609T317 492Q317
411 276 361T161 310Q94 310 57 354ZM255 407T255 474Q255 510 231 531T161 553Q122 553 102 536T81 487Q81 446 106 427T173 407Q255 407 255 474ZM480 -12T443 32T406 153Q406 233 449 282T563 332Q632 332 668 288T704 171Q704 90 662 39T547 -12Q480 -12 443
32ZM641 85T641 152Q641 188 617 209T548 231Q509 231 488 214T467 165Q467 125 493 105T560 85Q641 85 641 152Z" />
<glyph unicode="&amp;" glyph-name="ampersand" horiz-adv-x="718" d="M561 -25T459 66Q370 -12 264 -12Q162 -12 102 34T42 161Q42 214 70 250T132 307T167 325V334Q126 378 107 414T87 489Q87 537 114 574T193 633T311 654Q353 654 383 648T447 631L450 614L401
523H384Q355 549 332 559T279 570Q242 570 222 552T202 501Q202 460 225 425T312 337L482 191Q496 225 496 267Q496 316 482 338T438 361Q424 361 400 357T370 353L355 421Q355 423 374 429T418 436L623 448Q704 453 705 459L719 436L702 387Q695 372 680 366T632
359H554L550 352Q562 338 568 318T575 276Q575 212 534 147L671 32V15Q657 3 630 -15T585 -42Q561 -25 459 66ZM359 72T412 109L212 288Q185 269 170 243T154 186Q154 131 191 102T297 72Q359 72 412 109Z" />
<glyph unicode="&apos;" glyph-name="quotesingle" horiz-adv-x="176" d="M47 412L48 457Q48 518 45 571T40 640L139 654L147 644Q144 625 134 560T109 428L62 409L47 412Z" />
<glyph unicode="(" glyph-name="parenleft" horiz-adv-x="290" d="M232 -153T183 -118T95 -14T56 163V336Q56 445 96 514T185 620T235 649H245L276 604L275 598Q275 603 244 575T188 492T163 351V178Q163 85 189 24T247 -70T279 -97V-105L240 -146H232Q232 -153
183 -118Z" />
<glyph unicode=")" glyph-name="parenright" horiz-adv-x="290" d="M14 -101L15 -95Q15 -100 46 -72T102 11T127 152V325Q127 418 101 479T43 573T11 600V608L50 649H58Q58 656 107 621T195 517T234 340V167Q234 58 194 -11T105 -117T55 -146H45L14 -101Z" />
<glyph unicode="*" glyph-name="asterisk" horiz-adv-x="415" d="M178 617Q177 652 175 686T171 730Q178 732 203 738T251 744L258 735Q256 725 248 691T226 618L185 613L178 617ZM118 571T86 579T43 590Q43 598 45 623T54 669L64 673Q73 668 103 650T166 607L159
566L151 560Q118 571 86 579ZM237 601L240 611Q272 622 304 634T345 651Q347 648 353 638T369 612T382 580L376 571Q366 570 331 567T255 565L237 601ZM257 407Q253 416 239 448T213 520L243 549H252Q273 521 294 495T323 461Q318 455 302 436T267 404L257 407ZM129
426T106 436T64 459V469Q71 476 97 499T158 546L194 527L197 519Q177 491 159 462T136 424Q129 426 106 436Z" />
<glyph unicode="+" glyph-name="plus" horiz-adv-x="506" d="M202 32L203 209Q140 208 90 208T24 208L17 219L31 306L203 305L204 487L291 497L303 490Q302 472 300 420T297 305Q359 306 411 308T482 311L489 299L479 210L297 209L298 39L213 25L202 32Z" />
<glyph unicode="," glyph-name="comma" horiz-adv-x="269" d="M31 -112V-95Q63 -73 83 -42T103 19Q103 39 95 58T73 91L75 105Q94 120 114 130T153 140Q182 140 200 116T219 51Q219 -1 176 -52T67 -141L31 -112Z" />
<glyph unicode="-" glyph-name="hyphen" horiz-adv-x="355" d="M50 207L58 284L222 302Q256 306 273 308T295 312L305 299L296 221L60 195L50 207Z" />
<glyph unicode="." glyph-name="period" horiz-adv-x="275" d="M98 -11T80 9T61 63Q61 99 82 121T141 144Q175 144 194 124T214 70Q214 34 192 12T134 -11Q98 -11 80 9Z" />
<glyph unicode="/" glyph-name="slash" horiz-adv-x="329" d="M20 -99Q29 -70 58 30T111 226L226 675H305L317 660Q304 613 269 483T196 215Q165 95 142 7T112 -110H29L20 -99Z" />
<glyph unicode="0" glyph-name="zero" horiz-adv-x="503" d="M141 -12T84 55T27 237Q27 318 57 380T141 476T265 510Q363 510 420 444T477 263Q477 181 448 119T364 23T239 -12Q141 -12 84 55ZM322 116T359 149T397 240Q397 302 356 339T245 377Q180 377 143 344T106
251Q106 189 146 153T256 116Q322 116 359 149Z" />
<glyph unicode="1" glyph-name="one" horiz-adv-x="358" d="M40 51Q91 56 110 75T129 144V360Q129 395 118 406T78 417Q66 417 50 415T28 412L22 418L28 475Q87 481 148 490Q222 500 251 505T282 510L292 481Q274 466 266 450T254 402Q244 288 244 130Q244 93
253 79T288 64Q306 64 319 65T337 66L340 61L329 -4Q314 -3 272 -2T186 0Q142 0 90 -5T32 -11L40 51Z" />
<glyph unicode="2" glyph-name="two" horiz-adv-x="483" d="M91 106Q171 198 205 253T240 344Q240 374 224 390T177 406Q147 406 118 386T64 329H51L34 400Q72 451 123 480T227 510Q297 510 339 475T382 381Q382 349 366 315T309 231T194 99L198 91H297Q344 91
363 109T394 182L468 189Q464 171 454 112T440 3L426 -9Q386 -8 266 -4T87 0L23 -9L16 23L91 106Z" />
<glyph unicode="3" glyph-name="three" horiz-adv-x="430" d="M51 -100T34 -78T14 0L26 14Q64 1 112 1Q176 1 217 28T259 98Q259 140 223 159T110 180L101 189L94 249L159 264Q193 279 214 305T235 360Q235 385 218 400T172 416Q147 416 118 403T63 366H50L31
435Q59 458 114 484T215 510Q281 510 321 478T362 393Q362 352 332 315T252 256V249Q320 231 355 198T390 117Q390 66 346 15T233 -68T93 -100Q51 -100 34 -78Z" />
<glyph unicode="4" glyph-name="four" horiz-adv-x="470" d="M241 -90Q242 -75 244 -25T247 70Q91 74 7 74L10 139L276 508L282 510L363 499V157H445L453 145L444 64L363 67Q365 13 367 -27T370 -80L362 -88L249 -100L241 -90ZM248 157V337H238L111 157H248Z" />
<glyph unicode="5" glyph-name="five" horiz-adv-x="427" d="M42 -100T24 -78T2 0L14 14Q54 1 100 1Q166 1 209 28T253 99Q253 139 211 161T63 199L54 210Q62 291 67 373T73 479L81 487L275 494Q304 496 317 504T338 534L391 538L365 392L353 381Q337 382 279
385T152 389L145 297Q265 273 323 235T382 130Q382 73 337 20T221 -67T81 -100Q42 -100 24 -78Z" />
<glyph unicode="6" glyph-name="six" horiz-adv-x="467" d="M348 360T395 313T443 190Q443 131 416 85T340 14T228 -12Q171 -12 127 15T59 90T34 203Q34 291 77 369T198 507T380 598L390 593L409 540Q235 464 179 331L187 322Q245 355 274 360Q348 360 395 313ZM285
67T306 92T327 165Q327 213 302 243T237 273Q219 273 198 266T156 245Q153 224 153 203Q153 139 177 103T245 67Q285 67 306 92Z" />
<glyph unicode="7" glyph-name="seven" horiz-adv-x="427" d="M94 -73L83 -49L308 396L172 388Q139 385 123 378T99 353T84 300L25 294Q28 313 35 377T45 497L51 502Q61 501 97 500T173 498H389L427 451Q309 206 230 11L199 -100H183L94 -73Z" />
<glyph unicode="8" glyph-name="eight" horiz-adv-x="480" d="M145 -12T92 27T39 130Q39 186 73 222T152 279Q106 307 80 342T53 429Q53 474 79 513T150 575T252 598Q298 598 337 581T400 533T424 459Q424 410 398 376T334 323Q383 295 411 260T439 174Q439 122
411 80T334 13T224 -12Q145 -12 92 27ZM316 384T316 436Q316 476 295 498T238 521Q206 521 186 502T166 454Q166 421 192 400T275 352Q316 384 316 436ZM278 60T302 82T326 140Q326 164 310 182T272 214T205 249Q180 233 163 212T146 156Q146 116 173 88T242 60Q278
60 302 82Z" />
<glyph unicode="9" glyph-name="nine" horiz-adv-x="463" d="M297 510T341 483T409 407T434 294Q434 207 391 128T270 -10T88 -101L78 -95L59 -42Q232 33 290 167L281 176Q219 141 194 138Q120 138 73 185T25 307Q25 366 52 412T128 484T240 510Q297 510 341 483ZM249
224T270 231T312 252Q315 273 315 295Q315 359 291 394T223 430Q183 430 162 405T141 332Q141 284 166 254T231 224Q249 224 270 231Z" />
<glyph unicode=":" glyph-name="colon" horiz-adv-x="238" d="M352 -11T334 9T315 63Q315 99 336 121T395 144Q429 144 448 124T468 70Q468 34 446 12T388 -11Q352 -11 334 9ZM96 262T78 282T59 336Q59 372 80 394T139 417Q173 417 192 397T212 343Q212 307 190
285T132 262Q96 262 78 282Z" />
<glyph unicode=";" glyph-name="semicolon" horiz-adv-x="238" d="M31 -112V-95Q63 -73 83 -42T103 19Q103 39 95 58T73 91L75 105Q94 120 114 130T153 140Q182 140 200 116T219 51Q219 -1 176 -52T67 -141L31 -112ZM96 262T78 282T59 336Q59 372 80 394T139 417Q173
417 192 397T212 343Q212 307 190 285T132 262Q96 262 78 282Z" />
<glyph unicode="&lt;" glyph-name="less" horiz-adv-x="472" d="M376 64T330 85T226 132Q167 158 112 182T36 214L28 227L29 322L221 404L400 480L413 472L432 397Q414 391 357 370T250 327L125 276V269L264 209Q322 183 367 163T428 136L433 121L391 57Q376 64 330 85Z" />
<glyph unicode="=" glyph-name="equal" horiz-adv-x="506" d="M17 308L31 395L265 394Q315 394 387 396T482 400L489 388L479 299L252 298L24 297L17 308ZM17 131L31 219L265 218Q315 218 387 220T482 224L489 212L479 122L252 121L24 120L17 131Z" />
<glyph unicode="&gt;" glyph-name="greater" horiz-adv-x="472" d="M60 65L40 140Q57 146 115 168T222 211L347 261V268L209 329L44 401L39 416L81 480Q96 473 142 452T246 405Q305 379 360 355T436 323L444 310L443 215L251 133L73 57L60 65Z" />
<glyph unicode="?" glyph-name="question" horiz-adv-x="369" d="M101 220L77 346L80 360L189 423Q242 455 242 496Q242 544 194 570T57 601L49 615L86 698L101 704Q173 702 231 679T324 617T358 531Q358 490 342 461T299 410T217 350Q201 340 193 334L190 326L205
243L200 232L113 214L101 220ZM116 -11T97 9T78 63Q78 99 100 121T158 144Q193 144 212 124T231 70Q231 34 209 12T151 -11Q116 -11 97 9Z" />
<glyph unicode="@" glyph-name="at" horiz-adv-x="861" d="M323 -220T225 -168T75 -26T24 179Q24 299 84 405T248 575T480 640Q586 640 667 600T792 489T837 325Q837 230 796 153T677 32T492 -12Q472 -12 460 -2T448 28Q448 39 460 96T483 195L475 196Q431 114
392 65T312 -12Q259 -12 230 27T200 133Q200 213 236 290T328 416T440 465L528 448L535 470L546 476L624 463L632 446Q628 430 614 373T582 234T555 82L560 77Q650 77 700 136T751 294Q751 377 715 437T611 530T452 562Q353 562 276 515T156 385T113 205Q113 99
155 19T281 -108T490 -158V-174L459 -223Q323 -220 225 -168ZM358 102T384 137T442 231T499 359Q448 388 410 388Q389 388 368 359T334 284T321 188Q321 152 327 127T343 102Q358 102 384 137Z" />
<glyph unicode="A" glyph-name="A" horiz-adv-x="625" d="M331 0L336 59Q370 62 385 65T407 75T413 95Q413 107 408 130L387 207Q335 209 295 209Q277 209 220 204L199 202L174 125Q168 103 168 94Q168 76 178 69T215 62H258L263 55L256 -6Q242 -5 196 -3T110
0Q68 0 35 -1T-10 -3L-3 62Q20 66 35 81T63 130L242 637L395 653L406 648Q421 591 468 415T550 131Q561 95 578 80T629 62L633 55L626 -3Q613 -2 577 -1T504 0Q451 0 401 -3T336 -8L331 0ZM295 286Q306 286 369 289L310 512H297L223 286H295Z" />
<glyph unicode="B" glyph-name="B" horiz-adv-x="627" d="M147 0T100 -4T38 -10L45 56Q88 64 103 80T118 136L119 528Q119 556 112 567T87 578Q77 578 67 577T53 576L46 584L55 644Q71 644 113 643T193 642Q231 642 278 644T344 647Q447 647 501 607T555 492Q555
442 527 404T447 339Q512 322 550 285T589 190Q589 131 557 86T466 15T330 -10Q318 -10 297 -8T265 -5Q252 -4 225 -2T182 0Q147 0 100 -4ZM263 367T299 363T347 359Q347 357 366 369T401 406T417 467Q417 518 383 542T277 566Q267 566 264 562T259 547Q253 466
251 368Q263 367 299 363ZM245 133Q245 101 267 88T340 74Q389 74 417 101T445 175Q445 216 419 243T342 282L249 281L245 133Z" />
<glyph unicode="C" glyph-name="C" horiz-adv-x="616" d="M235 -12T168 26T65 135T29 303Q29 409 72 488T194 610T379 654Q416 654 458 649T531 637T569 629L575 616Q573 609 568 584T557 517T548 428L453 422Q453 426 454 440T455 474Q455 518 428 538T343 559Q264
559 223 503T181 338Q181 215 225 147T350 79Q405 79 436 112T479 219L575 225Q572 208 565 150T555 40L545 28Q545 27 512 17T430 -3T326 -12Q235 -12 168 26Z" />
<glyph unicode="D" glyph-name="D" horiz-adv-x="694" d="M302 -10T253 -5T167 0Q134 0 93 -4T40 -10L46 57Q89 64 104 82T119 142V523Q119 555 113 566T88 577Q77 577 67 576T54 575L49 584L57 645Q71 645 109 644T183 642Q227 642 275 643T341 646Q441 646 514
610T626 507T665 347Q665 243 621 161T497 34T318 -12Q302 -10 253 -5ZM271 562T265 557T258 538Q245 259 245 145Q245 115 252 100T277 78T331 72Q419 72 465 134T512 316Q512 443 457 502T287 562Q271 562 265 557Z" />
<glyph unicode="E" glyph-name="E" horiz-adv-x="596" d="M557 189Q541 111 530 4L520 -7Q329 0 209 0Q125 0 38 -10L45 57Q87 63 102 81T117 143L118 524Q118 557 112 567T86 578Q73 578 55 576L49 585L57 645H77Q148 642 238 642Q461 642 542 654L550 643Q542
606 536 555T527 462L438 456L440 496Q440 526 432 538T398 555T312 560Q286 560 276 558T263 549T258 526L251 369L345 368Q366 368 397 370T461 377L469 368L455 283Q442 283 435 284Q365 286 324 286Q293 286 247 280L245 137Q245 109 249 97T266 81T310 77Q376
77 405 84T448 115T468 191L550 198L557 189Z" />
<glyph unicode="F" glyph-name="F" horiz-adv-x="531" d="M45 56Q88 63 102 81T117 143L118 524Q118 556 112 567T86 578Q76 578 67 577T55 576L49 585L57 645Q75 644 126 643T238 642Q443 642 519 654L527 643Q524 627 517 573T506 460L417 455Q417 460 418 472T419
496Q419 525 412 538T383 555T312 560Q286 560 276 558T263 549T258 526L251 352L345 351Q364 351 401 355T450 360L457 351L443 266Q431 267 397 268T324 269Q288 269 248 262L245 140Q245 102 253 89T288 76Q304 76 325 78T353 81L362 71L351 -4Q334 -3 288 -2T195
0Q149 0 101 -4T38 -11L45 56Z" />
<glyph unicode="G" glyph-name="G" horiz-adv-x="654" d="M235 -12T168 26T65 135T29 303Q29 411 72 490T195 611T384 654Q423 654 467 649T542 637T582 629L589 616Q587 610 582 586T572 521T563 434L467 427Q468 431 469 446T470 482Q470 524 445 541T360 559Q269
559 224 505T179 337Q179 214 224 147T351 79Q378 79 400 85T434 97T450 106V201Q450 230 441 239T405 249H353L348 257L358 328Q382 328 399 327Q455 325 497 325Q528 325 558 327T597 330L604 292Q587 281 579 265T567 218T564 128Q564 68 571 41L562 29Q562
28 529 17T443 -3T327 -12Q235 -12 168 26Z" />
<glyph unicode="H" glyph-name="H" horiz-adv-x="747" d="M46 55Q89 63 103 80T118 139V526Q118 557 111 567T82 578L52 577L47 585L54 643L173 642Q212 642 322 649L316 583Q290 579 279 573T263 553T256 511L250 367L381 365Q433 365 500 372V526Q500 557 493
567T464 578L433 577L428 585L436 643L562 642Q595 642 707 649L702 584Q665 579 654 569T640 529Q635 441 632 327T628 136Q628 94 636 79T669 64Q680 64 707 67L711 60L702 -3Q688 -3 681 -2Q605 0 558 0L420 -2L428 62Q457 63 472 71T494 98T500 155V284L390
285Q368 285 330 282T248 275L245 132Q245 91 253 77T284 63Q294 63 321 66L326 60L317 -3Q245 0 197 0Q163 0 114 -3T39 -9L46 55Z" />
<glyph unicode="I" glyph-name="I" horiz-adv-x="365" d="M44 55Q88 64 103 80T118 139V526Q118 557 111 567T82 578L47 577L42 585L50 643L188 642Q221 642 328 649L323 583Q285 578 273 568T258 529Q245 293 245 132Q245 91 253 77T284 63Q295 63 328 66L332
60L323 -3L287 -2L176 0Q130 0 38 -9L44 55Z" />
<glyph unicode="J" glyph-name="J" horiz-adv-x="332" d="M10 -113L13 -102Q52 -74 72 -46T100 20T108 123L109 526Q109 557 102 567T74 578Q62 578 50 577T32 575L27 583L34 642H157Q199 642 245 645T306 650L301 583Q268 578 259 568T248 529Q244 461 240 322T235
102Q235 3 188 -58T38 -153L10 -113Z" />
<glyph unicode="K" glyph-name="K" horiz-adv-x="657" d="M118 557T111 567T82 578L52 577L47 585L54 644L188 642Q215 642 262 645T324 649L319 583Q282 576 269 565T255 525L245 132Q244 91 252 77T284 63Q299 63 309 64T323 66L328 60L319 -3Q303 -3 260 -2T176
0Q131 0 92 -1T38 -3L47 60Q77 64 92 71T112 94T118 139V526Q118 557 111 567ZM417 499Q444 528 444 549Q444 563 431 570T390 579L387 586L395 647Q409 646 451 644T519 642Q553 642 587 643T635 646L641 635L633 579Q603 567 576 543T504 467L396 347L531 145Q562
99 587 79T646 58L652 49L644 -3Q629 -5 585 -10T529 -15Q499 -15 472 5T418 69L265 316L268 337L417 499Z" />
<glyph unicode="L" glyph-name="L" horiz-adv-x="530" d="M51 57Q89 63 103 81T117 143L118 526Q118 557 111 567T82 578L51 577L46 585L54 643L188 642Q216 642 269 645T340 649L333 580Q299 576 284 569T264 548T257 505Q246 355 246 138Q246 111 251 99T269
82T309 77Q359 77 383 88T420 130T440 228L521 237L528 227Q525 208 517 142T502 2L492 -8Q465 -7 375 -4T212 0Q157 0 107 -4T43 -10L51 57Z" />
<glyph unicode="M" glyph-name="M" horiz-adv-x="841" d="M296 222T215 452H207Q207 441 203 379T196 276Q184 108 184 95Q184 63 216 63L250 64L256 59L245 -4Q161 0 128 0Q105 0 73 -3T29 -8L35 57Q64 60 77 75T96 129Q105 207 120 362T136 532Q136 559 121
569T60 583L55 589L64 647Q146 642 189 642Q211 642 295 646Q335 505 406 279L423 227H431Q437 247 447 277T468 343Q519 495 565 643Q586 643 599 642L652 641L683 642Q704 642 737 644T785 648L789 644L783 584Q740 580 725 569T709 531Q709 500 717 374T733
155Q739 100 748 82T782 63Q793 63 800 64T810 65L814 60L805 -3Q790 -3 778 -2Q734 0 704 0Q675 0 628 -3T562 -8L569 57Q599 61 612 72T625 107Q625 111 617 231Q606 388 604 452H595Q511 218 439 -7L371 -16Q296 222 215 452Z" />
<glyph unicode="N" glyph-name="N" horiz-adv-x="728" d="M429 129T330 277T230 423H221L220 108Q220 82 227 73T254 63L298 65L303 59L293 -4Q279 -3 241 -2T165 0Q132 0 94 -3T45 -8L52 58Q83 62 97 76T112 121L124 518Q124 550 108 563T43 581L36 590L43 647Q54
646 90 644T157 642Q183 642 212 643T251 646Q333 512 427 370T522 230H532L530 535Q529 558 522 568T497 578L462 577L459 584L466 646Q480 645 517 644T593 642Q623 642 660 644T710 647L705 581Q671 576 657 562T641 518L628 -14L527 -27Q429 129 330 277Z"
/>
<glyph unicode="O" glyph-name="O" horiz-adv-x="675" d="M227 -12T163 26T64 136T29 304Q29 408 70 487T185 610T357 654Q447 654 512 617T612 509T647 341Q647 237 606 157T489 32T315 -12Q227 -12 163 26ZM413 73T453 129T494 289Q494 420 451 489T329 559Q258
559 219 503T179 343Q179 212 221 143T341 73Q413 73 453 129Z" />
<glyph unicode="P" glyph-name="P" horiz-adv-x="576" d="M49 58Q90 65 104 82T118 142V524Q118 556 112 567T86 578Q75 578 65 577T52 576L46 584L54 643L180 642Q218 642 264 643T330 646Q458 646 514 592T570 455Q570 396 537 344T448 260T331 228H247L245
152Q245 113 248 95T261 71T292 64Q306 64 319 65T337 66L340 61L331 -3Q317 -3 280 -2T207 0Q173 0 117 -3T41 -8L49 58ZM431 323T431 440Q431 504 395 533T281 563Q267 563 264 561T259 546Q253 456 249 316L338 303Q431 323 431 440Z" />
<glyph unicode="Q" glyph-name="Q" horiz-adv-x="680" d="M638 -228T597 -212T493 -152T315 -12Q227 -12 163 26T64 136T29 304Q29 408 70 487T185 610T357 654Q447 654 512 617T612 509T647 341Q647 226 591 139T442 14V5Q525 -53 591 -80T712 -108Q741 -108
765 -104T797 -98L804 -104L815 -145Q807 -151 781 -171T725 -209T684 -228Q638 -228 597 -212ZM413 73T453 129T494 289Q494 420 451 489T329 559Q258 559 219 503T179 343Q179 212 221 143T341 73Q413 73 453 129Z" />
<glyph unicode="R" glyph-name="R" horiz-adv-x="641" d="M449 -16T405 77L318 253H247L245 140Q245 105 250 90T269 69T317 63L320 57L311 -4Q293 -3 248 -2T165 -1Q128 -1 89 -3T38 -6L47 60Q89 65 103 82T118 142V529Q118 558 112 568T86 578Q75 578 65 577T52
576L46 584L55 644Q69 644 106 643T180 642Q220 642 266 643T331 646Q445 646 505 602T566 475Q566 416 531 367T431 285L519 142Q547 96 573 76T631 56L638 47L631 -5L514 -16Q449 -16 405 77ZM373 344T400 371T427 457Q427 512 390 539T276 566Q266 566 263 562T258
544Q252 441 250 340L340 330Q373 344 400 371Z" />
<glyph unicode="S" glyph-name="S" horiz-adv-x="539" d="M174 -12T135 -4T71 15T45 26L37 40Q38 47 41 70T49 133T53 210L135 216Q135 160 145 130T178 88T246 75Q294 75 323 96T352 154Q352 187 322 210T227 264Q223 266 204 275Q129 311 87 351T45 455Q45 512
79 557T173 628T311 654Q355 654 392 648T452 636T481 627L488 614Q487 608 482 584T472 521T464 443L390 437L381 443Q381 446 382 455T383 479Q383 524 361 543T285 562Q242 562 215 542T187 489Q187 465 204 446T246 412T318 375Q374 348 410 326T472 270T497
189Q497 129 463 84T366 13T220 -12Q174 -12 135 -4Z" />
<glyph unicode="T" glyph-name="T" horiz-adv-x="567" d="M117 59Q163 63 183 71T210 99T217 165V566Q159 564 136 556T103 524T87 435L5 429Q12 512 17 642L28 653L127 642H439L540 653L551 642Q553 522 561 435L479 429Q471 497 463 522T433 555T356 566Q351
492 348 365T344 134Q344 97 357 81T399 65Q424 65 452 68L456 63L447 -4Q341 0 275 0Q223 0 109 -6L117 59Z" />
<glyph unicode="U" glyph-name="U" horiz-adv-x="657" d="M86 -12T86 204V524Q86 557 80 567T53 578Q43 578 34 577T21 576L19 580L28 645Q42 644 82 643T169 642Q195 642 235 644T288 648L281 582Q249 578 238 567T224 528L217 236Q217 160 249 119T343 77Q468
77 468 209Q468 286 467 385T464 524Q463 557 457 567T432 578Q422 578 412 577T398 576L396 580L405 645Q418 645 452 644T521 642Q553 642 590 644T639 648L633 583Q606 577 594 572T578 558T574 531V220Q574 108 508 48T317 -12Q86 -12 86 204Z" />
<glyph unicode="V" glyph-name="V" horiz-adv-x="624" d="M206 41T158 219T72 517Q63 548 46 562T-3 578L-7 585L0 644Q14 644 51 643T126 642Q171 642 224 645T294 650L299 642L295 583Q260 579 244 576T223 565T217 544Q217 522 256 356T310 129H325Q349 190
401 358T453 548Q453 565 442 572T401 579H361L357 586L363 647Q377 646 424 644T511 642Q551 642 583 643T627 644L620 579Q595 575 585 566T565 527L380 5L221 -15Q206 41 158 219Z" />
<glyph unicode="W" glyph-name="W" horiz-adv-x="962" d="M200 41T154 219T71 517Q62 548 45 562T-2 578L-6 585L1 644Q14 644 50 643T122 642Q172 642 221 645T285 650L290 642L285 583Q251 579 236 576T216 566T210 545Q210 520 248 354T301 129H313Q342 206
425 490Q422 512 417 533Q411 558 395 567T342 578L338 585L346 644Q361 644 401 643T481 642Q527 642 577 645T643 650L648 642L643 583Q608 579 593 576T573 565T567 544Q567 522 605 356T659 129H671Q694 191 745 360T796 551Q796 567 785 573T745 579H706L702
586L709 647Q723 646 768 644T853 642Q891 642 922 643T964 644L957 579Q934 575 924 566T904 527L726 5L573 -15Q568 18 543 121T484 346H475L368 5L214 -15Q200 41 154 219Z" />
<glyph unicode="X" glyph-name="X" horiz-adv-x="681" d="M353 0L358 60Q387 62 400 68T414 88Q414 102 398 124L311 254L243 159Q223 132 216 117T208 92Q208 77 219 70T257 62L261 54L255 -6Q240 -5 194 -2T126 1Q102 1 63 -1T11 -4L7 6L14 65Q73 85 159 199L259
331L151 493Q124 533 95 550T22 576L18 581L26 644Q40 644 84 643T184 642Q223 642 272 645T336 649L341 640L336 584Q304 582 290 575T275 553Q275 540 295 507T366 398Q365 397 397 443Q430 490 447 518T465 557Q465 570 454 576T416 583L414 588L420 645L467
644Q521 642 551 642Q588 642 619 643T662 645L666 638L660 578Q616 563 590 542T528 472L419 322L539 150Q568 108 598 89T670 66L673 62L665 -2Q651 -2 613 -1T536 1Q504 1 441 -2T358 -7L353 0Z" />
<glyph unicode="Y" glyph-name="Y" horiz-adv-x="594" d="M143 56Q183 61 201 70T226 97T233 151V182Q233 209 227 231T204 285L106 475Q81 526 59 547T-8 576L-10 581L-3 644Q11 644 49 643T125 641Q157 641 212 644T285 649L289 640L284 584Q250 582 237 575T223
553Q223 534 291 388Q311 342 310 344H319L400 512Q415 542 415 559Q415 570 403 575T363 583L361 588L368 645L416 643Q470 641 500 641Q528 641 560 642T601 645L605 638L598 578Q558 565 535 539T476 450L381 271Q367 246 365 220T362 125Q362 92 372 79T408
65Q426 65 439 66T458 68L462 63L453 -4Q435 -3 386 -2T290 0Q254 0 203 -4T136 -11L143 56Z" />
<glyph unicode="Z" glyph-name="Z" horiz-adv-x="580" d="M20 39L372 570L242 562Q198 557 175 546T142 509T127 435L44 429Q46 450 52 518T61 644L71 654L249 643L540 639L557 599Q376 358 195 71L354 82Q404 87 431 123T471 237L553 244Q550 222 541 150T529
16L512 -3L119 3L44 -5L20 39Z" />
<glyph unicode="[" glyph-name="bracketleft" horiz-adv-x="317" d="M82 -121Q84 -76 88 58T93 255Q93 318 89 453T82 634L298 645L302 637L295 582L191 561V-49L298 -70L302 -79L295 -132L82 -121Z" />
<glyph unicode="\" glyph-name="backslash" horiz-adv-x="329" d="M135 215Q98 353 63 483T14 660L26 675H105L220 226Q244 131 272 31T310 -99L301 -110H218L135 215Z" />
<glyph unicode="]" glyph-name="bracketright" horiz-adv-x="317" d="M15 -125L22 -70L126 -49V561L19 582L15 591L22 645L235 634Q233 589 229 455T224 258Q224 196 228 60T235 -121L19 -132L15 -125Z" />
<glyph unicode="^" glyph-name="asciicircum" horiz-adv-x="490" d="M306 454T330 398T380 282Q407 223 428 177T457 116L393 75L378 79L304 244L244 382H237L186 257Q165 208 144 151T116 76L41 95L33 108L109 286L191 478L285 482L298 474Q306 454 330 398Z" />
<glyph unicode="_" glyph-name="underscore" horiz-adv-x="453" d="M-9 -164L2 -90L243 -91Q289 -91 373 -89Q455 -87 455 -86L463 -100L452 -176L167 -177Q98 -178 0 -178L-9 -164Z" />
<glyph unicode="`" glyph-name="grave" horiz-adv-x="398" d="M196 566T140 604T67 652L65 666L118 734L132 735Q146 719 196 667T298 565L269 527L254 523Q196 566 140 604Z" />
<glyph unicode="a" glyph-name="a" horiz-adv-x="483" d="M338 -12T313 7T282 65L274 68Q242 35 212 14T164 -8Q105 -8 66 33T27 137Q27 168 43 190T85 220L278 265L279 289Q279 332 256 356T193 380Q166 380 135 367T76 333L67 337L50 397Q100 425 155 449T233
473Q316 473 357 436T399 337Q399 315 390 247Q379 150 379 131Q379 112 389 101T415 90Q427 90 440 95T463 107L478 86Q460 54 434 25T382 -12Q338 -12 313 7ZM216 87T236 95T273 116L276 211L169 181Q145 175 145 148Q145 122 160 105T201 87Q216 87 236 95Z"
/>
<glyph unicode="b" glyph-name="b" horiz-adv-x="513" d="M200 -10T165 -7T107 0T78 5L68 16V598Q68 630 59 642T26 655Q18 655 12 654T3 653L-1 658L5 710Q62 718 125 728T207 742L214 723Q196 702 188 406Q280 471 297 471Q384 471 435 412T487 250Q487 175
455 116T365 24T235 -10Q200 -10 165 -7ZM306 71T333 108T360 212Q360 287 333 332T261 377Q244 377 223 367T186 343L183 87Q194 81 216 76T258 71Q306 71 333 108Z" />
<glyph unicode="c" glyph-name="c" horiz-adv-x="431" d="M144 -12T85 49T26 218Q26 292 57 350T143 440T269 473Q302 473 330 469T375 460T396 453L400 444Q399 438 395 417T385 361T378 290L314 286V319Q314 353 298 371T251 390Q204 390 180 356T155 257Q155
175 184 131T266 87Q291 87 314 93T353 107T373 116L380 113L396 62Q389 56 364 39T306 5T246 -12Q144 -12 85 49Z" />
<glyph unicode="d" glyph-name="d" horiz-adv-x="537" d="M350 -12T339 60L333 62Q236 -8 216 -8Q129 -8 78 51T26 211Q26 285 58 344T148 437T278 471Q302 471 330 468V597Q330 628 321 640T288 653Q280 653 273 652T264 650L270 709Q329 716 389 727T467 742L476
725Q463 706 454 530T445 131Q445 112 453 101T477 90Q488 90 498 94T514 102T523 107L539 86Q536 80 522 60T486 18T439 -12Q350 -12 339 60ZM269 84T286 91T315 107T330 118V371Q328 372 318 376T292 384T256 388Q207 388 180 352T153 248Q153 174 180 129T253
84Q269 84 286 91Z" />
<glyph unicode="e" glyph-name="e" horiz-adv-x="462" d="M147 -12T87 49T26 218Q26 290 57 348T142 439T262 473Q430 473 430 303Q430 273 423 247L411 235H152Q153 162 186 124T280 85Q332 85 399 115L406 111L422 62Q385 34 337 11T252 -12Q147 -12 87 49ZM289
298Q301 299 304 303T308 321Q308 395 245 395Q206 395 182 368T152 290L289 298Z" />
<glyph unicode="f" glyph-name="f" horiz-adv-x="341" d="M38 55Q67 58 80 72T94 112V347Q93 370 80 377T29 387L25 393L33 444L94 454V462Q94 547 125 610T212 708T344 742Q375 742 400 738T441 728T460 721L464 706Q461 699 452 676T429 618L417 615Q414 618
400 627T362 644T311 653Q259 653 237 617T214 496L213 450Q263 450 297 451T342 453L345 448L335 381Q326 381 294 382T212 384L209 112Q209 65 251 65Q273 65 290 66T312 67L316 63L306 -3Q290 -3 247 -2T163 0Q128 0 87 -2T32 -6L38 55Z" />
<glyph unicode="g" glyph-name="g" horiz-adv-x="510" d="M438 411T417 410L413 404Q453 361 453 305Q453 255 425 214T348 150T238 127Q205 127 173 135Q160 124 155 117T149 101Q149 82 178 74T270 59Q337 52 380 43T454 11T486 -56Q486 -103 448 -146T349 -215T221
-242Q141 -242 93 -204T45 -101Q71 -74 145 -28V-21Q97 -13 71 13T42 81Q78 118 124 148V154Q88 175 68 210T48 289Q48 341 75 383T149 450T255 474Q280 474 314 468Q346 464 358 464Q394 466 498 497L504 493L491 416Q438 411 417 410ZM292 193T311 218T331 290Q331
340 309 370T245 400Q210 400 191 376T171 302Q171 253 193 223T256 193Q292 193 311 218ZM189 -49T179 -68T169 -106Q169 -135 192 -151T259 -168Q308 -168 341 -147T375 -94Q375 -78 363 -69T317 -52T207 -34Q189 -49 179 -68Z" />
<glyph unicode="h" glyph-name="h" horiz-adv-x="543" d="M52 61T62 72T73 112V598Q73 630 64 642T31 654H8L4 658L10 710Q118 725 212 742L219 723Q209 712 202 624T191 387Q223 418 264 445T325 473Q397 473 436 440T475 344Q475 320 466 239Q456 137 456 108Q456
82 463 71T488 60L518 62L520 58L511 -3L488 -2Q430 0 403 0Q366 0 292 -8L297 54Q322 59 333 72T344 110L348 283Q349 370 283 370Q266 370 240 359T190 328Q188 270 188 106Q188 81 195 71T218 61L244 62L246 57L236 -3Q223 -3 216 -2Q158 0 128 0Q70 0 17 -3L26
58Q52 61 62 72Z" />
<glyph unicode="i" glyph-name="i" horiz-adv-x="292" d="M35 52Q64 57 77 71T91 114V330Q91 362 82 374T49 386Q42 386 35 385T26 383L32 440Q88 448 146 458T221 473L230 457Q219 435 213 337T206 105Q206 81 213 71T237 61Q246 61 254 62T266 63L269 58L259
-3Q248 -2 216 -1T149 0Q118 0 79 -4T27 -11L35 52ZM107 559T89 578T71 629Q71 665 92 687T150 709Q182 709 200 690T218 638Q218 603 197 581T140 559Q107 559 89 578Z" />
<glyph unicode="j" glyph-name="j" horiz-adv-x="273" d="M107 575T89 594T70 646Q70 681 92 703T149 726Q180 726 198 707T217 655Q217 620 196 598T139 575Q107 575 89 594ZM7 -214L9 -203Q52 -161 67 -111T83 36V330Q83 362 75 374T46 386Q36 386 28 385T17
383L23 440Q73 447 133 458T211 473L219 457Q198 414 198 -14Q198 -84 156 -145T38 -244L7 -214Z" />
<glyph unicode="k" glyph-name="k" horiz-adv-x="517" d="M47 59T57 67T70 89T73 134V598Q73 624 67 637T45 652Q35 654 28 654L6 653Q5 657 5 666L10 710Q67 717 130 728T212 742L219 723Q206 707 197 531T188 105Q188 80 195 70T218 60Q225 60 233 61T244 62L247
56L236 -4Q225 -3 194 -2T128 0Q97 0 62 -2T17 -6L25 56Q47 59 57 67ZM206 257L303 355Q315 367 319 374T324 389Q324 400 312 404T271 409L268 414L277 463Q289 463 323 462T398 461Q426 461 460 463T504 466L507 461L499 405Q464 392 431 365T348 289Q348 289
320 261L405 131Q431 93 455 76T508 56L512 48L505 -1Q497 -3 472 -7T432 -13Q406 -14 388 -9Q364 -4 346 13T305 68L204 234L206 257Z" />
<glyph unicode="l" glyph-name="l" horiz-adv-x="263" d="M23 52Q46 57 56 66T70 90T73 134V598Q73 625 69 636T51 651T8 653L4 657L10 710Q131 726 212 742L219 723Q205 690 197 519T188 105Q188 80 195 70T218 60L251 62L254 56L243 -3L210 -2Q154 0 130 0Q92
0 16 -9L23 52Z" />
<glyph unicode="m" glyph-name="m" horiz-adv-x="838" d="M343 59T353 72T365 110L368 283Q368 327 352 348T303 370Q265 370 215 332Q205 152 205 107Q205 81 211 72T235 62L262 63L264 59L254 -3Q243 -2 213 -1T149 0Q108 0 75 -1T30 -3L39 58Q68 60 79 72T91
112V324Q91 359 81 371T42 384H29L25 389L30 441Q86 449 142 460T214 474L222 464Q220 458 216 437T211 395L214 392Q249 420 288 446T345 473Q401 473 436 452T486 390Q514 415 557 444T619 473Q690 473 730 439T770 344Q770 320 761 239Q751 137 751 108Q751
82 758 71T783 60Q792 60 801 61T814 62L816 58L806 -3Q794 -2 762 -1T697 0Q673 0 637 -2T589 -5L596 57Q619 60 628 72T639 110L642 283Q643 370 577 370Q539 370 491 333L478 108Q478 82 485 71T509 60Q518 60 526 61T537 62L539 58L529 -3Q518 -2 487 -1T424
0Q400 0 362 -3T312 -8L319 54Q343 59 353 72Z" />
<glyph unicode="n" glyph-name="n" d="M344 59T354 72T366 110L369 283Q369 327 353 348T304 370Q266 370 216 332Q206 152 206 107Q206 82 212 72T236 62L263 63L265 59L255 -3Q244 -2 214 -1T150 0Q118 0 81 -2T32 -6L40 56Q69 59 80 71T92 112V324Q92 359 82
371T43 384H30L26 389L31 441Q88 449 143 460T215 474L223 464Q221 458 217 437T212 395L216 391Q247 418 287 445T346 473Q417 473 456 439T496 344Q496 329 488 239Q478 137 478 108Q478 82 485 71T509 60Q519 60 528 61T540 62L542 58L533 -3Q521 -2 490 -1T425
0Q401 0 364 -3T314 -8L319 54Q344 59 354 72Z" />
<glyph unicode="o" glyph-name="o" horiz-adv-x="516" d="M180 -12T132 16T58 97T32 217Q32 292 62 350T147 440T273 473Q370 473 426 412T483 245Q483 170 453 112T369 21T243 -12Q180 -12 132 16ZM306 63T328 97T351 199Q351 293 325 341T250 389Q207 389 185
355T162 253Q162 159 188 111T263 63Q306 63 328 97Z" />
<glyph unicode="p" glyph-name="p" horiz-adv-x="537" d="M38 -175Q66 -173 74 -161T84 -112Q89 -17 89 41V324Q89 358 79 371T40 384H27L23 389L28 441Q84 449 139 460T210 474L219 464Q218 458 214 439T208 401L212 396Q294 469 313 469Q372 469 417 442T486
365T511 250Q511 173 477 114T383 23T246 -10Q233 -10 220 -9T202 -7L203 -100Q203 -141 209 -155T239 -169Q253 -169 263 -168T280 -167L282 -171L271 -232Q249 -232 232 -231L151 -230Q116 -230 79 -232T30 -236L38 -175ZM330 71T357 108T384 212Q384 285 357
328T284 372Q270 372 250 364T212 341Q206 224 206 86Q219 81 240 76T281 71Q330 71 357 108Z" />
<glyph unicode="q" glyph-name="q" horiz-adv-x="517" d="M254 -174Q285 -172 299 -167T319 -150T326 -112L330 59Q233 -10 216 -10Q129 -10 78 49T26 211Q26 285 58 344T148 437T278 471Q320 471 388 461Q414 471 431 478T454 487L465 476Q455 455 450 298T444
-101Q444 -130 446 -144T455 -163T475 -168Q485 -168 492 -168T501 -167L503 -170L496 -230H371Q340 -230 300 -231T248 -234L254 -174ZM269 83T286 91T315 107T330 118V371Q328 372 318 376T292 384T256 388Q207 388 180 352T153 248Q153 173 180 128T253 83Q269
83 286 91Z" />
<glyph unicode="r" glyph-name="r" horiz-adv-x="411" d="M74 59T84 73T95 126V325Q95 359 86 371T52 384L33 383L28 390L34 440Q87 449 142 460T214 474L223 465Q221 456 218 427T213 371L219 367Q250 414 287 440T359 466Q373 466 382 465T394 463L398 455Q395
438 388 382T378 274L314 270Q314 318 309 333T286 349Q270 349 252 337T218 304Q217 276 214 213T209 111Q209 85 217 75T248 65Q263 65 278 66T298 68L301 62L290 -4Q276 -3 239 -2T161 0Q123 0 85 -1T36 -4L44 57Q74 59 84 73Z" />
<glyph unicode="s" glyph-name="s" horiz-adv-x="408" d="M134 -12T105 -6T58 6T37 15L31 25Q35 52 38 88T44 157L99 162Q100 61 188 61Q217 61 236 73T255 105Q255 125 235 141T155 187Q95 215 68 246T41 320Q41 365 67 399T140 453T247 473Q276 473 301 469T340
461T359 455L364 445Q362 434 356 396T345 316L289 312L290 330Q290 365 273 381T220 398Q194 398 176 386T158 354Q158 335 174 319T227 285Q286 257 317 235T361 191T374 137Q374 96 347 62T273 8T170 -12Q134 -12 105 -6Z" />
<glyph unicode="t" glyph-name="t" horiz-adv-x="332" d="M135 -12T102 17T69 111V334Q69 366 58 376T15 388L5 395L12 444Q50 462 87 485T148 527T179 550L207 536Q206 530 203 507T196 450L314 453L318 448L308 381L190 384Q184 297 184 166Q184 123 199 104T248
85Q266 85 284 91T308 99L321 67Q315 61 293 42T245 6T206 -12Q135 -12 102 17Z" />
<glyph unicode="u" glyph-name="u" horiz-adv-x="546" d="M75 363T67 374T41 386Q32 386 25 385T16 383L22 441Q74 448 130 458T203 473L212 457Q201 432 193 348T185 173Q185 132 200 112T248 92Q268 92 287 101T335 130V336Q335 364 327 374T292 385L274 384L282
441Q336 448 393 458T468 471L477 455Q466 432 458 338T450 131Q450 112 460 101T486 90Q497 90 507 94T525 102T534 107L549 87Q545 80 529 59T490 15T446 -12Q355 -12 344 65L336 69Q298 34 267 12T224 -11Q148 -11 108 21T68 114L75 337Q75 363 67 374Z" />
<glyph unicode="v" glyph-name="v" horiz-adv-x="466" d="M145 32T107 168T53 352Q38 400 -9 402L-11 406L-4 462L90 461Q131 461 172 464T226 468L228 463L219 406Q188 403 179 398T170 380Q170 363 196 257T233 113H243Q292 248 312 307T332 381Q332 393 325
397T299 401H271L267 408L274 462L384 461L475 462L467 402Q445 399 435 389T412 343L286 0L158 -15Q145 32 107 168Z" />
<glyph unicode="w" glyph-name="w" horiz-adv-x="737" d="M145 32T108 168T55 352Q40 401 -6 402L-8 406L-1 462L91 461Q132 461 173 464T226 468L228 463L219 406Q189 403 180 398T171 380Q171 363 197 257T233 112H243Q275 194 325 358Q319 382 308 391T269
401L266 406L274 462L366 461Q407 461 446 463T497 467L499 462L491 405Q460 402 452 398T443 380Q443 363 469 257T505 112H514Q558 235 580 300T602 381Q602 393 596 397T570 402H543L539 408L547 463Q557 463 587 462T652 461L743 462L735 402Q713 399 704 389T681
343L557 0L434 -15Q431 6 388 171L371 236H360L283 0L158 -15Q145 32 108 168Z" />
<glyph unicode="x" glyph-name="x" horiz-adv-x="496" d="M246 -1L254 48Q275 49 284 53T293 66Q293 77 280 95L220 177Q215 171 194 145T159 98T146 70Q146 59 154 55T183 50L186 44L179 -4Q167 -3 137 -2T81 0Q56 0 34 -1T5 -3L1 4L9 51Q28 61 42 76T98 139L178
234L110 328Q82 368 62 382T7 403L5 408L11 463Q21 463 53 462T127 461Q166 461 202 462T249 465L253 459L246 409Q208 409 208 390Q208 380 213 370T230 345L272 286L320 348Q333 366 338 375T344 393Q344 401 337 403T308 406L306 410L312 461H400Q428 461 452
462T484 464L487 459L481 406Q438 384 396 331L316 229L394 123Q420 88 441 72T491 54L494 50L486 -2Q475 -2 446 -1T389 0Q365 0 316 -2T250 -6L246 -1Z" />
<glyph unicode="y" glyph-name="y" horiz-adv-x="464" d="M43 -241T25 -226T-7 -191T-22 -161L-15 -149Q49 -144 99 -108T183 -8Q180 -2 179 4T175 15Q162 50 118 175T49 358Q39 381 25 390T-12 401L-14 406L-7 462L71 461Q116 461 169 464T222 468L224 463L216
406Q187 405 178 400T168 382Q168 367 183 312T215 202T237 131H247Q338 362 338 382Q338 393 331 398T308 403H276L273 408L281 464Q291 463 321 462T387 461L479 462L471 402Q449 397 439 388T420 353L293 44Q229 -111 174 -176T52 -241Q43 -241 25 -226Z" />
<glyph unicode="z" glyph-name="z" horiz-adv-x="458" d="M274 398L182 392Q146 389 128 381T101 355T89 304L39 298Q41 315 45 369T50 464L56 470L186 462L417 459L430 430Q349 323 277 220T169 62L277 71Q320 75 341 102T372 189L424 194Q423 186 419 158T411
87T407 11L392 -5L93 2L38 -4L21 28L274 398Z" />
<glyph unicode="{" glyph-name="braceleft" horiz-adv-x="321" d="M158 -128T121 -95T83 -12Q83 9 89 30T109 89Q129 140 129 160Q129 220 44 242L48 287Q84 297 106 316T129 362Q129 376 124 393T108 439Q96 472 90 495T83 538Q83 588 123 621T231 654Q252 654
274 651T303 645L309 635L297 581Q293 582 280 584T256 586Q228 586 214 570T200 526Q200 510 205 485T213 451Q227 393 227 370Q227 333 207 310T154 276V271Q188 259 207 235T227 172Q227 146 213 84Q200 30 200 6Q200 -22 214 -39T258 -57Q270 -57 283 -55T300
-52L307 -61L297 -114Q295 -115 285 -118T258 -125T218 -128Q158 -128 121 -95Z" />
<glyph unicode="|" glyph-name="bar" horiz-adv-x="336" d="M119 -258Q119 -200 119 -42T120 276L121 796L205 807L220 796Q219 740 217 568T214 291L215 -258L130 -269L119 -258Z" />
<glyph unicode="}" glyph-name="braceright" horiz-adv-x="321" d="M69 -128T47 -125T18 -120L12 -110L24 -56Q28 -57 41 -59T65 -61Q93 -61 107 -45T121 0Q121 22 108 76Q94 136 94 160Q94 197 114 220T167 253V259Q94 285 94 357Q94 383 108 443Q121 497 121
519Q121 547 106 564T62 582Q51 582 38 580T21 577L13 586L24 639Q26 640 36 643T63 650T102 654Q162 654 200 620T238 538Q238 517 231 494T211 438Q209 433 200 409T191 369Q191 337 214 317T277 288L273 242Q237 232 214 213T191 167Q191 153 196 136T212 90Q238
26 238 -8Q238 -60 198 -94T90 -128Q69 -128 47 -125Z" />
<glyph unicode="~" glyph-name="asciitilde" horiz-adv-x="506" d="M28 216V226L118 326L137 330Q164 330 256 310Q340 292 360 292Q372 292 388 304T417 330T434 348H445L479 311V301L389 200L370 196Q339 196 251 217Q167 235 147 235Q135 235 119 223T90 197T73
179H62L28 216Z" />
<glyph unicode="&#xa0;" glyph-name="uni00A0" horiz-adv-x="174" />
<glyph unicode="&#xa1;" glyph-name="exclamdown" horiz-adv-x="285" d="M119 318T100 338T81 392Q81 428 102 450T161 473Q196 473 215 453T234 399Q234 363 212 341T154 318Q119 318 100 338ZM52 -224L114 230L176 241L191 228L211 -204L199 -220L69 -242L52 -224Z" />
<glyph unicode="&#xa2;" glyph-name="cent" horiz-adv-x="431" d="M396 62Q390 57 367 41T312 8T253 -12L238 -151L172 -159L166 -152L182 -5Q108 13 67 71T26 218Q26 285 52 339T126 428T234 471L253 649L319 658L325 649L306 471Q340 469 368 462T396 453L400
444Q399 438 395 417T385 361T378 290L314 286V319Q314 353 298 371T251 390Q204 390 180 356T155 257Q155 175 184 131T266 87Q291 87 314 93T353 107T373 116L380 113L396 62Z" />
<glyph unicode="&#xa3;" glyph-name="sterling" horiz-adv-x="519" d="M370 -12T346 -6T282 12Q238 25 214 31T166 37Q113 37 58 1L47 6L28 66Q121 123 121 203V244Q120 267 107 275T56 285L52 291L59 341L121 351V373Q121 434 152 486T235 568T347 598Q379 598
410 594T459 583L464 572L432 478L413 475Q347 513 305 513Q269 513 252 490T233 416L231 347Q287 347 328 348T382 350L386 346L375 278Q363 279 324 280T228 281L227 221Q225 187 213 157T179 108L235 120Q258 120 308 110Q358 100 378 100Q407 100 424 119T443
175L467 174Q477 158 482 136T488 92Q488 47 461 18T392 -12Q370 -12 346 -6Z" />
<glyph unicode="&#xa4;" glyph-name="currency" horiz-adv-x="484" d="M80 146L32 215Q43 224 80 257L103 278Q84 313 84 351Q84 393 104 427L30 498L33 515L102 564Q111 552 168 491Q203 510 242 510Q281 510 316 491L384 568L402 564L451 495L379 428Q401 393
401 351Q401 314 382 278L455 211L452 195L383 144L317 213Q282 194 242 194Q198 194 165 215Q140 187 121 168T96 142L80 146ZM279 264T304 289T330 351Q330 388 305 414T242 440Q206 440 181 414T155 351Q155 315 180 290T242 264Q279 264 304 289Z" />
<glyph unicode="&#xa5;" glyph-name="yen" horiz-adv-x="574" d="M151 50Q184 55 199 62T219 85T225 133L53 132L45 140L54 194H217Q204 224 200 232L181 268Q127 267 54 267L47 274L55 328H144Q116 377 88 407T24 445Q24 460 25 468Q25 470 31 505Q42 504 71
503T134 502Q165 503 210 505T277 509L283 499L277 449Q248 446 239 442T229 429Q229 422 235 407T245 384L254 363L303 277L370 408Q378 426 378 433Q378 439 375 441T358 444T334 451Q335 457 335 470L340 505L382 504Q428 502 455 502Q485 502 509 503T542 505L547
499L540 445Q506 434 491 421T453 372L428 330L524 332L531 323L527 268H391L364 222Q357 210 354 194Q425 195 523 198L530 188L526 133H344Q344 106 345 94Q347 75 352 68T372 59Q377 58 391 58L425 60L428 54L420 -3Q404 -3 362 -2T280 0Q251 0 205 -3T145 -9L151
50Z" />
<glyph unicode="&#xa6;" glyph-name="brokenbar" horiz-adv-x="336" d="M120 370L121 796L205 807L220 796Q219 755 217 635T214 375L128 363L120 370ZM119 -258V159L205 173L214 164L215 -258L130 -269L119 -258Z" />
<glyph unicode="&#xa7;" glyph-name="section" horiz-adv-x="500" d="M473 203T447 164T377 98Q386 77 386 53Q387 15 362 -20T293 -78T196 -100Q141 -100 101 -77T61 -22Q61 6 68 35T87 81L108 80Q116 36 145 8T214 -21Q238 -21 254 -7T271 29Q271 58 247 80T171
135Q125 164 97 185T49 238T29 310Q29 352 56 389T128 454Q117 478 117 503Q117 544 140 579T202 634T290 654Q337 654 374 639T411 604Q411 580 401 546T381 503H362Q350 533 327 552T277 571Q258 571 245 558T232 525Q232 497 256 475T332 419Q377 390 405 368T453
314T473 245Q473 203 447 164ZM130 317T158 289T246 223Q280 200 303 183T344 147Q368 171 368 205Q368 240 340 267T253 336Q185 382 157 412Q130 387 130 352Q130 317 158 289Z" />
<glyph unicode="&#xa8;" glyph-name="dieresis" horiz-adv-x="398" d="M78 552T63 568T47 612Q47 641 65 659T114 678Q141 678 156 662T172 619Q172 590 154 571T106 552Q78 552 63 568ZM256 552T241 568T225 612Q225 641 243 659T291 678Q319 678 334 662T350
619Q350 590 332 571T284 552Q256 552 241 568Z" />
<glyph unicode="&#xa9;" glyph-name="copyright" horiz-adv-x="696" d="M264 -12T195 29T84 140T43 293Q43 376 84 446T194 557T347 598Q430 598 500 557T611 446T652 293Q652 210 611 140T500 29T347 -12Q264 -12 195 29ZM416 37T474 71T567 165T602 293Q602
362 568 421T475 514T347 549Q278 549 220 515T127 421T93 293Q93 224 127 165T219 72T347 37Q416 37 474 71ZM263 129T224 172T184 289Q184 370 231 417T364 464Q393 464 426 459T469 451L472 444Q470 436 465 408T458 344L399 341L400 367Q400 388 389 398T350
408Q314 408 297 384T279 306Q279 185 353 185Q380 185 394 200T412 251L470 255Q469 246 466 215T461 156L455 148Q451 146 435 142T393 133T337 129Q263 129 224 172Z" />
<glyph unicode="&#xaa;" glyph-name="ordfeminine" horiz-adv-x="340" d="M202 332T196 381L190 384Q169 363 149 349T116 335Q77 335 50 364T23 436Q23 456 34 471T63 491L192 517V527Q192 552 177 566T137 581Q120 581 103 575T74 561T59 551L53 554L39 598Q46
602 70 614T123 638T167 650Q228 650 256 625T285 559Q285 548 279 500Q272 453 272 433Q272 422 278 416T294 409Q303 409 311 412T322 418L333 402Q330 397 320 382T295 352T266 332Q202 332 196 381ZM156 405T168 409T189 418L191 477L129 462Q121 460 118 456T114
443Q114 426 123 416T148 405Q156 405 168 409Z" />
<glyph unicode="&#xab;" glyph-name="guillemotleft" horiz-adv-x="449" d="M325 95T274 147T206 215V236Q222 251 273 304T371 410L411 386L414 370Q398 347 363 290L324 229Q354 181 362 168Q371 153 384 132T414 85L411 69L371 44Q325 95 274 147ZM141 95T90
147T22 215V236Q38 251 89 304T187 410L227 386L230 370Q214 347 179 290L140 229Q170 181 178 168Q187 153 200 132T230 85L227 69L187 44Q141 95 90 147Z" />
<glyph unicode="&#xac;" glyph-name="logicalnot" horiz-adv-x="506" d="M351 29L352 223L252 222L24 221L17 232L31 320L265 319Q312 319 372 321T452 325L459 313Q457 301 454 259T449 171Q449 120 449 84T450 36L362 21L351 29Z" />
<glyph unicode="&#xad;" glyph-name="uni00AD" horiz-adv-x="355" d="M50 207L58 284L222 302Q256 306 273 308T295 312L305 299L296 221L60 195L50 207Z" />
<glyph unicode="&#xae;" glyph-name="registered" horiz-adv-x="468" d="M178 303T132 330T58 404T30 507Q30 563 57 609T131 683T234 711Q290 711 336 684T410 610T438 507Q438 451 411 405T337 331T234 303Q178 303 132 330ZM279 341T317 363T377 424T400 507Q400
552 378 590T317 650T234 673Q189 673 151 651T91 590T68 507Q68 462 90 424T151 364T234 341Q279 341 317 363ZM283 409T274 415T257 439L232 490H211Q210 480 210 463Q210 446 213 442T234 438L236 434L233 413Q229 413 218 414T194 415H182L137 412L140 436Q154
438 158 444T162 469V576Q162 587 160 590T152 594H141L139 597L142 618L185 617H196L231 619Q317 619 317 563Q317 525 274 502L299 464Q317 434 335 434L337 430Q336 421 334 417T325 412T298 409Q283 409 274 415ZM264 529T264 556Q264 589 220 589Q216 589
215 588T214 581Q212 541 212 522Q217 522 224 521T239 520Q264 529 264 556Z" />
<glyph unicode="&#xaf;" glyph-name="overscore" horiz-adv-x="398" d="M50 581L64 655L218 654Q249 654 290 656T345 660L353 646L341 571L200 570L61 569L50 581Z" />
<glyph unicode="&#xb0;" glyph-name="degree" horiz-adv-x="302" d="M116 393T86 410T39 458T21 523Q21 559 38 589T86 636T151 654Q186 654 216 637T263 589T281 523Q281 488 264 458T216 411T151 393Q116 393 86 410ZM182 450T203 471T224 523Q224 554 203 575T151
597Q120 597 99 576T78 523Q78 492 99 471T151 450Q182 450 203 471Z" />
<glyph unicode="&#xb1;" glyph-name="plusminus" horiz-adv-x="506" d="M202 54L203 226Q140 225 90 225T24 225L17 236L31 323L203 322L204 498L291 508L303 502Q302 485 300 428T297 322Q359 323 411 325T482 328L489 316L479 227L297 226L298 61L213 47L202
54ZM24 -84L35 -9L267 -10Q312 -10 392 -8Q427 -8 448 -7T474 -6L482 -20L471 -96L32 -97L24 -84Z" />
<glyph unicode="&#xb2;" glyph-name="uni00B2" horiz-adv-x="351" d="M102 467Q142 514 161 547T180 604Q180 642 137 642Q89 642 51 589H41L28 650Q52 685 90 706T166 728Q220 728 253 703T286 635Q286 593 256 544T151 415L154 410H213Q242 410 254 422T273
468L333 473Q330 460 324 419T314 343L303 334Q278 335 201 337T82 340L28 335L22 381L102 467Z" />
<glyph unicode="&#xb3;" glyph-name="uni00B3" horiz-adv-x="309" d="M51 332T38 348T23 406L34 418Q58 408 92 408Q128 408 151 422T174 458Q174 482 153 493T84 504L77 512L71 559L115 568Q136 577 148 592T160 625Q160 639 150 648T124 657Q92 657 52 630H44L27
683Q49 699 87 713T156 728Q202 728 230 707T259 650Q259 622 239 599T185 562V555Q233 541 255 518T278 462Q278 430 250 400T175 351T81 332Q51 332 38 348Z" />
<glyph unicode="&#xb4;" glyph-name="acute" horiz-adv-x="398" d="M146 525L115 562Q165 613 214 666T278 736H291L347 669L346 656Q330 645 274 606T161 521L146 525Z" />
<glyph unicode="&#xb5;" glyph-name="uni00B5" horiz-adv-x="544" d="M542 115Q528 38 469 -9Q416 -9 391 21T362 121L353 124Q324 60 294 27T234 -6Q182 19 147 72L137 67Q147 -69 196 -222Q147 -236 75 -239L59 -228L83 190Q58 278 58 347Q58 394 69 458L90
471H104L191 444L152 176Q165 152 179 141T210 130Q245 130 275 165T336 272Q336 381 346 450L369 469Q429 453 472 428Q430 284 403 209V204Q402 156 415 136T462 115Q489 115 532 127L542 115Z" />
<glyph unicode="&#xb6;" glyph-name="paragraph" horiz-adv-x="567" d="M168 -100T127 -74T85 -4Q85 20 97 51T127 104H143Q146 42 172 8T240 -26Q276 -26 295 -12T323 34T331 121V563Q331 573 327 575T304 578Q264 578 244 540T223 434Q223 368 238 323T288 229V205Q172
210 99 270T25 435Q25 494 53 542T133 618T251 646Q282 646 336 644Q382 642 395 642Q432 642 476 643T537 645L531 584L529 580Q492 578 480 569T465 534Q460 499 457 375T454 170Q454 49 395 -25T225 -100Q168 -100 127 -74Z" />
<glyph unicode="&#xb7;" glyph-name="middot" horiz-adv-x="238" d="M80 162T61 182T42 236Q42 272 64 294T122 317Q157 317 176 297T196 243Q196 207 174 185T116 162Q80 162 61 182Z" />
<glyph unicode="&#xb8;" glyph-name="cedilla" horiz-adv-x="398" d="M139 -237T115 -225T90 -194Q90 -184 101 -166T126 -132H135Q136 -159 150 -173T187 -188Q205 -188 216 -180T228 -157Q228 -142 204 -124T142 -86L174 28H225L204 -45Q246 -69 273 -91T300
-141Q300 -167 281 -189T231 -224T167 -237Q139 -237 115 -225Z" />
<glyph unicode="&#xb9;" glyph-name="uni00B9" horiz-adv-x="264" d="M31 379Q62 381 76 391T90 426V624Q90 646 83 653T57 660Q47 660 38 659T25 658L20 663L24 705L107 715Q158 721 181 724T206 728L214 705Q203 697 198 686T188 656Q185 626 183 561T181 431Q181
408 187 398T209 388Q221 388 229 388T240 389L242 386L234 337Q224 338 195 339T136 340Q108 340 73 337T26 333L31 379Z" />
<glyph unicode="&#xba;" glyph-name="ordmasculine" horiz-adv-x="353" d="M102 332T63 373T23 483Q23 559 67 604T186 650Q254 650 292 610T330 499Q330 423 286 378T168 332Q102 332 63 373ZM203 389T215 408T227 467Q227 529 214 557T172 586Q148 586 137 568T125
509Q125 446 138 418T179 389Q203 389 215 408Z" />
<glyph unicode="&#xbb;" glyph-name="guillemotright" horiz-adv-x="449" d="M222 68L219 84Q235 107 270 164L309 225L267 293L219 370L222 385L263 410Q308 359 359 307T427 239V219Q411 203 360 150T263 44L222 68ZM38 68L35 84Q51 107 86 164L125 225L83 293L35
370L38 385L79 410Q124 359 175 307T243 239V219Q227 203 176 150T79 44L38 68Z" />
<glyph unicode="&#xbc;" glyph-name="onequarter" horiz-adv-x="757" d="M31 300Q62 302 76 312T90 347V545Q90 567 83 574T57 581Q47 581 38 580T25 579L20 584L24 626L107 636Q158 642 181 645T206 649L214 626Q203 618 198 607T188 577Q185 547 183 482T181
352Q181 329 187 319T209 309Q221 309 229 309T240 310L242 307L234 258Q224 259 195 260T136 261Q108 261 73 258T26 254L31 300ZM99 -67L93 -53Q113 -22 180 79T302 265L563 678L623 654L631 635Q602 591 512 454T365 228Q295 117 238 27T162 -93L99 -67ZM582
-1Q583 8 584 34T586 95L431 97L433 148L603 386L608 388L677 380V160H728L734 151L727 91L678 92Q679 60 680 37T682 7L676 0L587 -7L582 -1ZM586 160V265H579L507 160H586Z" />
<glyph unicode="&#xbd;" glyph-name="onehalf" horiz-adv-x="787" d="M31 300Q62 302 76 312T90 347V545Q90 567 83 574T57 581Q47 581 38 580T25 579L20 584L24 626L107 636Q158 642 181 645T206 649L214 626Q203 618 198 607T188 577Q185 547 183 482T181 352Q181
329 187 319T209 309Q221 309 229 309T240 310L242 307L234 258Q224 259 195 260T136 261Q108 261 73 258T26 254L31 300ZM99 -67L93 -53Q113 -22 180 79T302 265L563 678L623 654L631 635Q602 591 512 454T365 228Q295 117 238 27T162 -93L99 -67ZM538 127Q578
174 597 206T616 263Q616 302 573 302Q526 302 487 248H477L464 310Q488 345 526 366T602 388Q656 388 689 363T722 295Q722 253 692 204T587 75L590 69H649Q678 69 690 81T709 128L769 133Q766 120 760 79T750 3L739 -6Q714 -5 637 -3T518 0L464 -6L458 41L538
127Z" />
<glyph unicode="&#xbe;" glyph-name="threequarters" horiz-adv-x="758" d="M51 253T38 269T23 327L34 339Q58 329 92 329Q128 329 151 343T174 379Q174 403 153 414T84 425L77 433L71 480L115 489Q136 498 148 513T160 546Q160 560 150 569T124 578Q91 578 52
550H44L27 604Q49 620 87 634T156 649Q202 649 230 628T259 571Q259 543 239 520T185 483V476Q233 462 255 439T278 383Q278 351 250 321T175 272T81 253Q51 253 38 269ZM99 -67L93 -53Q113 -22 180 79T302 265L563 678L623 654L631 635Q602 591 512 454T365 228Q295
117 238 27T162 -93L99 -67ZM582 -1Q583 8 584 34T586 95L431 97L433 148L603 386L608 388L677 380V160H728L734 151L727 91L678 92Q679 60 680 37T682 7L676 0L587 -7L582 -1ZM586 160V265H579L507 160H586Z" />
<glyph unicode="&#xbf;" glyph-name="questiondown" horiz-adv-x="369" d="M177 318T158 338T138 392Q138 428 160 450T218 473Q254 473 272 453T291 399Q291 363 270 341T211 318Q177 318 158 338ZM197 -240T139 -217T46 -155T12 -69Q12 -28 28 1T71 53T152 113Q168
123 176 129L179 136L164 219L170 230L257 248L268 243L292 117L289 102L180 39Q128 7 128 -33Q128 -81 176 -107T313 -139L320 -153L283 -235L268 -242Q197 -240 139 -217Z" />
<glyph unicode="&#xc0;" glyph-name="Agrave" horiz-adv-x="625" d="M331 0L336 59Q370 62 385 65T407 75T413 95Q413 107 408 130L387 207Q335 209 295 209Q277 209 220 204L199 202L174 125Q168 103 168 94Q168 76 178 69T215 62H258L263 55L256 -6Q242 -5 196
-3T110 0Q68 0 35 -1T-10 -3L-3 62Q20 66 35 81T63 130L242 637L395 653L406 648Q421 591 468 415T550 131Q561 95 578 80T629 62L633 55L626 -3Q613 -2 577 -1T504 0Q451 0 401 -3T336 -8L331 0ZM295 286Q306 286 369 289L310 512H297L223 286H295ZM327 721T259
739T170 763L165 776L190 851L202 856Q221 846 288 814T423 751L410 706L398 698Q327 721 259 739Z" />
<glyph unicode="&#xc1;" glyph-name="Aacute" horiz-adv-x="625" d="M331 0L336 59Q370 62 385 65T407 75T413 95Q413 107 408 130L387 207Q335 209 295 209Q277 209 220 204L199 202L174 125Q168 103 168 94Q168 76 178 69T215 62H258L263 55L256 -6Q242 -5 196
-3T110 0Q68 0 35 -1T-10 -3L-3 62Q20 66 35 81T63 130L242 637L395 653L406 648Q421 591 468 415T550 131Q561 95 578 80T629 62L633 55L626 -3Q613 -2 577 -1T504 0Q451 0 401 -3T336 -8L331 0ZM295 286Q306 286 369 289L310 512H297L223 286H295ZM244 706L231
751Q298 781 365 813T453 856L465 851L490 776L485 763Q465 758 397 740T257 698L244 706Z" />
<glyph unicode="&#xc2;" glyph-name="Acircumflex" horiz-adv-x="625" d="M331 0L336 59Q370 62 385 65T407 75T413 95Q413 107 408 130L387 207Q335 209 295 209Q277 209 220 204L199 202L174 125Q168 103 168 94Q168 76 178 69T215 62H258L263 55L256 -6Q242
-5 196 -3T110 0Q68 0 35 -1T-10 -3L-3 62Q20 66 35 81T63 130L242 637L395 653L406 648Q421 591 468 415T550 131Q561 95 578 80T629 62L633 55L626 -3Q613 -2 577 -1T504 0Q451 0 401 -3T336 -8L331 0ZM295 286Q306 286 369 289L310 512H297L223 286H295ZM177
711L153 751Q199 785 246 823T308 874H328Q328 875 368 843Q429 792 483 751L460 711L445 707Q370 744 318 766Q263 743 192 707L177 711Z" />
<glyph unicode="&#xc3;" glyph-name="Atilde" horiz-adv-x="625" d="M331 0L336 59Q370 62 385 65T407 75T413 95Q413 107 408 130L387 207Q335 209 295 209Q277 209 220 204L199 202L174 125Q168 103 168 94Q168 76 178 69T215 62H258L263 55L256 -6Q242 -5 196
-3T110 0Q68 0 35 -1T-10 -3L-3 62Q20 66 35 81T63 130L242 637L395 653L406 648Q421 591 468 415T550 131Q561 95 578 80T629 62L633 55L626 -3Q613 -2 577 -1T504 0Q451 0 401 -3T336 -8L331 0ZM295 286Q306 286 369 289L310 512H297L223 286H295ZM140 724V734L218
829L234 833Q246 833 268 828T314 816Q319 815 345 808T384 800Q394 800 408 811T434 835T449 851H459L498 815V805L420 710L403 706Q384 706 322 724Q270 739 254 739Q243 739 229 728T203 704T189 688H178L140 724Z" />
<glyph unicode="&#xc4;" glyph-name="Adieresis" horiz-adv-x="625" d="M331 0L336 59Q370 62 385 65T407 75T413 95Q413 107 408 130L387 207Q335 209 295 209Q277 209 220 204L199 202L174 125Q168 103 168 94Q168 76 178 69T215 62H258L263 55L256 -6Q242 -5
196 -3T110 0Q68 0 35 -1T-10 -3L-3 62Q20 66 35 81T63 130L242 637L395 653L406 648Q421 591 468 415T550 131Q561 95 578 80T629 62L633 55L626 -3Q613 -2 577 -1T504 0Q451 0 401 -3T336 -8L331 0ZM295 286Q306 286 369 289L310 512H297L223 286H295ZM197 701T182
717T166 761Q166 790 184 809T233 828Q260 828 275 812T291 768Q291 739 273 720T225 701Q197 701 182 717ZM375 701T360 717T344 761Q344 790 362 809T410 828Q438 828 453 812T469 768Q469 739 451 720T403 701Q375 701 360 717Z" />
<glyph unicode="&#xc5;" glyph-name="Aring" horiz-adv-x="625" d="M331 0L336 59Q370 62 385 65T407 75T413 95Q413 107 408 130L387 207Q335 209 295 209Q277 209 220 204L199 202L174 125Q168 103 168 94Q168 76 178 69T215 62H258L263 55L256 -6Q242 -5 196
-3T110 0Q68 0 35 -1T-10 -3L-3 62Q20 66 35 81T63 130L242 637L395 653L406 648Q421 591 468 415T550 131Q561 95 578 80T629 62L633 55L626 -3Q613 -2 577 -1T504 0Q451 0 401 -3T336 -8L331 0ZM295 286Q306 286 369 289L310 512H297L223 286H295ZM272 678T249
702T226 768Q226 809 252 835T321 862Q366 862 388 837T410 776Q410 736 384 707T313 678Q272 678 249 702ZM336 730T348 737T360 766Q360 786 348 797T314 808Q295 808 285 799T274 773Q274 751 288 741T320 730Q336 730 348 737Z" />
<glyph unicode="&#xc6;" glyph-name="AE" horiz-adv-x="868" d="M353 62T371 67T395 80T402 106Q402 119 398 157L386 250L297 240L213 224L167 125Q155 100 155 88Q155 73 166 68T210 62L245 58L239 -6Q221 -4 167 -2T74 0Q50 0 29 -1T1 -3L-5 55Q5 57 22 77T56
130L266 557Q264 569 258 573T241 578Q231 578 222 577T210 576L204 585L212 645Q231 644 294 643T449 642Q693 642 768 654L775 643Q772 628 764 574T752 462L664 456Q664 460 665 472T666 496Q666 526 657 538T622 555T535 560Q501 560 492 555T482 532L507 348L605
360L701 379L711 368L698 287L608 280L519 269L539 144Q545 107 561 92T610 76Q670 76 697 84T736 115T755 191L837 198L844 189Q841 173 832 118T817 4L807 -7L762 -6Q588 0 515 0H477Q426 0 379 -3T319 -8L314 0L318 59Q353 62 371 67ZM378 328L355 511H340L250
316L315 321L378 328Z" />
<glyph unicode="&#xc7;" glyph-name="Ccedilla" horiz-adv-x="616" d="M235 -12T168 26T65 135T29 303Q29 409 72 488T194 610T379 654Q416 654 458 649T531 637T569 629L575 616Q573 609 568 584T557 517T548 428L453 422Q453 426 454 440T455 474Q455 518 428
538T343 559Q264 559 223 503T181 338Q181 215 225 147T350 79Q405 79 436 112T479 219L575 225Q572 208 565 150T555 40L545 28Q545 27 512 17T430 -3T326 -12Q235 -12 168 26ZM278 -237T254 -225T229 -194Q229 -184 240 -166T265 -132H274Q275 -159 289 -173T326
-188Q344 -188 355 -180T367 -157Q367 -142 343 -124T281 -86L313 28H364L343 -45Q385 -69 412 -91T439 -141Q439 -167 420 -189T370 -224T306 -237Q278 -237 254 -225Z" />
<glyph unicode="&#xc8;" glyph-name="Egrave" horiz-adv-x="596" d="M557 189Q541 111 530 4L520 -7Q329 0 209 0Q125 0 38 -10L45 57Q87 63 102 81T117 143L118 524Q118 557 112 567T86 578Q73 578 55 576L49 585L57 645H77Q148 642 238 642Q461 642 542 654L550
643Q542 606 536 555T527 462L438 456L440 496Q440 526 432 538T398 555T312 560Q286 560 276 558T263 549T258 526L251 369L345 368Q366 368 397 370T461 377L469 368L455 283Q442 283 435 284Q365 286 324 286Q293 286 247 280L245 137Q245 109 249 97T266 81T310
77Q376 77 405 84T448 115T468 191L550 198L557 189ZM313 721T245 739T156 763L151 776L176 851L188 856Q207 846 274 814T409 751L396 706L384 698Q313 721 245 739Z" />
<glyph unicode="&#xc9;" glyph-name="Eacute" horiz-adv-x="596" d="M557 189Q541 111 530 4L520 -7Q329 0 209 0Q125 0 38 -10L45 57Q87 63 102 81T117 143L118 524Q118 557 112 567T86 578Q73 578 55 576L49 585L57 645H77Q148 642 238 642Q461 642 542 654L550
643Q542 606 536 555T527 462L438 456L440 496Q440 526 432 538T398 555T312 560Q286 560 276 558T263 549T258 526L251 369L345 368Q366 368 397 370T461 377L469 368L455 283Q442 283 435 284Q365 286 324 286Q293 286 247 280L245 137Q245 109 249 97T266 81T310
77Q376 77 405 84T448 115T468 191L550 198L557 189ZM244 706L231 751Q298 781 365 813T453 856L465 851L490 776L485 763Q465 758 397 740T257 698L244 706Z" />
<glyph unicode="&#xca;" glyph-name="Ecircumflex" horiz-adv-x="596" d="M557 189Q541 111 530 4L520 -7Q329 0 209 0Q125 0 38 -10L45 57Q87 63 102 81T117 143L118 524Q118 557 112 567T86 578Q73 578 55 576L49 585L57 645H77Q148 642 238 642Q461 642 542
654L550 643Q542 606 536 555T527 462L438 456L440 496Q440 526 432 538T398 555T312 560Q286 560 276 558T263 549T258 526L251 369L345 368Q366 368 397 370T461 377L469 368L455 283Q442 283 435 284Q365 286 324 286Q293 286 247 280L245 137Q245 109 249 97T266
81T310 77Q376 77 405 84T448 115T468 191L550 198L557 189ZM177 711L153 751Q199 785 246 823T308 874H328Q328 875 368 843Q429 792 483 751L460 711L445 707Q370 744 318 766Q263 743 192 707L177 711Z" />
<glyph unicode="&#xcb;" glyph-name="Edieresis" horiz-adv-x="596" d="M557 189Q541 111 530 4L520 -7Q329 0 209 0Q125 0 38 -10L45 57Q87 63 102 81T117 143L118 524Q118 557 112 567T86 578Q73 578 55 576L49 585L57 645H77Q148 642 238 642Q461 642 542 654L550
643Q542 606 536 555T527 462L438 456L440 496Q440 526 432 538T398 555T312 560Q286 560 276 558T263 549T258 526L251 369L345 368Q366 368 397 370T461 377L469 368L455 283Q442 283 435 284Q365 286 324 286Q293 286 247 280L245 137Q245 109 249 97T266 81T310
77Q376 77 405 84T448 115T468 191L550 198L557 189ZM197 701T182 717T166 761Q166 790 184 809T233 828Q260 828 275 812T291 768Q291 739 273 720T225 701Q197 701 182 717ZM375 701T360 717T344 761Q344 790 362 809T410 828Q438 828 453 812T469 768Q469 739
451 720T403 701Q375 701 360 717Z" />
<glyph unicode="&#xcc;" glyph-name="Igrave" horiz-adv-x="365" d="M44 55Q88 64 103 80T118 139V526Q118 557 111 567T82 578L47 577L42 585L50 643L188 642Q221 642 328 649L323 583Q285 578 273 568T258 529Q245 293 245 132Q245 91 253 77T284 63Q295 63
328 66L332 60L323 -3L287 -2L176 0Q130 0 38 -9L44 55ZM174 716T106 734T17 758L12 771L37 846L49 851Q68 841 135 809T270 746L257 701L245 693Q174 716 106 734Z" />
<glyph unicode="&#xcd;" glyph-name="Iacute" horiz-adv-x="365" d="M44 55Q88 64 103 80T118 139V526Q118 557 111 567T82 578L47 577L42 585L50 643L188 642Q221 642 328 649L323 583Q285 578 273 568T258 529Q245 293 245 132Q245 91 253 77T284 63Q295 63
328 66L332 60L323 -3L287 -2L176 0Q130 0 38 -9L44 55ZM77 706L64 751Q131 781 198 813T286 856L298 851L323 776L318 763Q298 758 230 740T90 698L77 706Z" />
<glyph unicode="&#xce;" glyph-name="Icircumflex" horiz-adv-x="365" d="M44 55Q88 64 103 80T118 139V526Q118 557 111 567T82 578L47 577L42 585L50 643L188 642Q221 642 328 649L323 583Q285 578 273 568T258 529Q245 293 245 132Q245 91 253 77T284 63Q295
63 328 66L332 60L323 -3L287 -2L176 0Q130 0 38 -9L44 55ZM42 711L18 751Q64 785 111 823T173 874H193Q193 875 233 843Q294 792 348 751L325 711L310 707Q235 744 183 766Q128 743 57 707L42 711Z" />
<glyph unicode="&#xcf;" glyph-name="Idieresis" horiz-adv-x="365" d="M44 55Q88 64 103 80T118 139V526Q118 557 111 567T82 578L47 577L42 585L50 643L188 642Q221 642 328 649L323 583Q285 578 273 568T258 529Q245 293 245 132Q245 91 253 77T284 63Q295
63 328 66L332 60L323 -3L287 -2L176 0Q130 0 38 -9L44 55ZM62 701T47 717T31 761Q31 790 49 809T98 828Q125 828 140 812T156 768Q156 739 138 720T90 701Q62 701 47 717ZM240 701T225 717T209 761Q209 790 227 809T275 828Q303 828 318 812T334 768Q334 739 316
720T268 701Q240 701 225 717Z" />
<glyph unicode="&#xd0;" glyph-name="Eth" horiz-adv-x="709" d="M316 -10T267 -5T181 0Q149 0 108 -4T54 -10L61 57Q93 63 107 72T127 101T133 162V287H16L8 294L18 352H133V523Q133 555 127 566T102 577Q91 577 82 576T69 575L63 584L71 645Q85 645 123 644T197
642Q239 642 287 643T355 646Q455 646 528 610T640 507T679 347Q679 243 635 161T511 34T332 -12Q316 -10 267 -5ZM391 354L397 345L391 287H262L259 145Q259 115 266 100T292 78T345 72Q434 72 480 134T526 316Q526 443 471 502T301 562Q285 562 279 557T272 538L264
352L391 354Z" />
<glyph unicode="&#xd1;" glyph-name="Ntilde" horiz-adv-x="728" d="M429 129T330 277T230 423H221L220 108Q220 82 227 73T254 63L298 65L303 59L293 -4Q279 -3 241 -2T165 0Q132 0 94 -3T45 -8L52 58Q83 62 97 76T112 121L124 518Q124 550 108 563T43 581L36
590L43 647Q54 646 90 644T157 642Q183 642 212 643T251 646Q333 512 427 370T522 230H532L530 535Q529 558 522 568T497 578L462 577L459 584L466 646Q480 645 517 644T593 642Q623 642 660 644T710 647L705 581Q671 576 657 562T641 518L628 -14L527 -27Q429
129 330 277ZM199 724V734L277 829L293 833Q305 833 327 828T373 816Q378 815 404 808T443 800Q453 800 467 811T493 835T508 851H518L557 815V805L479 710L462 706Q443 706 381 724Q329 739 313 739Q302 739 288 728T262 704T248 688H237L199 724Z" />
<glyph unicode="&#xd2;" glyph-name="Ograve" horiz-adv-x="675" d="M227 -12T163 26T64 136T29 304Q29 408 70 487T185 610T357 654Q447 654 512 617T612 509T647 341Q647 237 606 157T489 32T315 -12Q227 -12 163 26ZM413 73T453 129T494 289Q494 420 451 489T329
559Q258 559 219 503T179 343Q179 212 221 143T341 73Q413 73 453 129ZM330 721T262 739T173 763L168 776L193 851L205 856Q224 846 291 814T426 751L413 706L401 698Q330 721 262 739Z" />
<glyph unicode="&#xd3;" glyph-name="Oacute" horiz-adv-x="675" d="M227 -12T163 26T64 136T29 304Q29 408 70 487T185 610T357 654Q447 654 512 617T612 509T647 341Q647 237 606 157T489 32T315 -12Q227 -12 163 26ZM413 73T453 129T494 289Q494 420 451 489T329
559Q258 559 219 503T179 343Q179 212 221 143T341 73Q413 73 453 129ZM261 706L248 751Q315 781 382 813T470 856L482 851L507 776L502 763Q482 758 414 740T274 698L261 706Z" />
<glyph unicode="&#xd4;" glyph-name="Ocircumflex" horiz-adv-x="675" d="M227 -12T163 26T64 136T29 304Q29 408 70 487T185 610T357 654Q447 654 512 617T612 509T647 341Q647 237 606 157T489 32T315 -12Q227 -12 163 26ZM413 73T453 129T494 289Q494 420 451
489T329 559Q258 559 219 503T179 343Q179 212 221 143T341 73Q413 73 453 129ZM194 711L170 751Q216 785 263 823T325 874H345Q345 875 385 843Q446 792 500 751L477 711L462 707Q387 744 335 766Q280 743 209 707L194 711Z" />
<glyph unicode="&#xd5;" glyph-name="Otilde" horiz-adv-x="675" d="M227 -12T163 26T64 136T29 304Q29 408 70 487T185 610T357 654Q447 654 512 617T612 509T647 341Q647 237 606 157T489 32T315 -12Q227 -12 163 26ZM413 73T453 129T494 289Q494 420 451 489T329
559Q258 559 219 503T179 343Q179 212 221 143T341 73Q413 73 453 129ZM156 724V734L234 829L250 833Q262 833 284 828T330 816Q335 815 361 808T400 800Q410 800 424 811T450 835T465 851H475L514 815V805L436 710L419 706Q400 706 338 724Q286 739 270 739Q259
739 245 728T219 704T205 688H194L156 724Z" />
<glyph unicode="&#xd6;" glyph-name="Odieresis" horiz-adv-x="675" d="M227 -12T163 26T64 136T29 304Q29 408 70 487T185 610T357 654Q447 654 512 617T612 509T647 341Q647 237 606 157T489 32T315 -12Q227 -12 163 26ZM413 73T453 129T494 289Q494 420 451
489T329 559Q258 559 219 503T179 343Q179 212 221 143T341 73Q413 73 453 129ZM213 701T198 717T182 761Q182 790 200 809T249 828Q276 828 291 812T307 768Q307 739 289 720T241 701Q213 701 198 717ZM391 701T376 717T360 761Q360 790 378 809T426 828Q454 828
469 812T485 768Q485 739 467 720T419 701Q391 701 376 717Z" />
<glyph unicode="&#xd7;" glyph-name="multiply" horiz-adv-x="506" d="M114 59L63 129Q74 140 107 172T184 248L53 378L56 391L128 443L253 317Q296 362 331 400T379 452L392 447L447 378L320 250Q355 216 396 177T451 127L447 114L376 58L251 181L127 56L114 59Z" />
<glyph unicode="&#xd8;" glyph-name="Oslash" horiz-adv-x="675" d="M592 558T619 493T647 341Q647 237 606 157T489 32T315 -12Q247 -12 196 10L127 -107L69 -78L66 -68L134 46Q83 87 56 153T29 304Q29 408 70 487T185 610T357 654Q423 654 476 633L534 728L593
700L596 687L540 598Q592 558 619 493ZM258 559T219 503T179 343Q179 237 208 171L415 531Q378 559 329 559Q258 559 219 503ZM413 73T453 129T494 289Q494 398 463 468L253 105Q290 73 341 73Q413 73 453 129Z" />
<glyph unicode="&#xd9;" glyph-name="Ugrave" horiz-adv-x="657" d="M86 -12T86 204V524Q86 557 80 567T53 578Q43 578 34 577T21 576L19 580L28 645Q42 644 82 643T169 642Q195 642 235 644T288 648L281 582Q249 578 238 567T224 528L217 236Q217 160 249 119T343
77Q468 77 468 209Q468 286 467 385T464 524Q463 557 457 567T432 578Q422 578 412 577T398 576L396 580L405 645Q418 645 452 644T521 642Q553 642 590 644T639 648L633 583Q606 577 594 572T578 558T574 531V220Q574 108 508 48T317 -12Q86 -12 86 204ZM336 721T268
739T179 763L174 776L199 851L211 856Q230 846 297 814T432 751L419 706L407 698Q336 721 268 739Z" />
<glyph unicode="&#xda;" glyph-name="Uacute" horiz-adv-x="657" d="M86 -12T86 204V524Q86 557 80 567T53 578Q43 578 34 577T21 576L19 580L28 645Q42 644 82 643T169 642Q195 642 235 644T288 648L281 582Q249 578 238 567T224 528L217 236Q217 160 249 119T343
77Q468 77 468 209Q468 286 467 385T464 524Q463 557 457 567T432 578Q422 578 412 577T398 576L396 580L405 645Q418 645 452 644T521 642Q553 642 590 644T639 648L633 583Q606 577 594 572T578 558T574 531V220Q574 108 508 48T317 -12Q86 -12 86 204ZM267 706L254
751Q321 781 388 813T476 856L488 851L513 776L508 763Q488 758 420 740T280 698L267 706Z" />
<glyph unicode="&#xdb;" glyph-name="Ucircumflex" horiz-adv-x="657" d="M86 -12T86 204V524Q86 557 80 567T53 578Q43 578 34 577T21 576L19 580L28 645Q42 644 82 643T169 642Q195 642 235 644T288 648L281 582Q249 578 238 567T224 528L217 236Q217 160 249
119T343 77Q468 77 468 209Q468 286 467 385T464 524Q463 557 457 567T432 578Q422 578 412 577T398 576L396 580L405 645Q418 645 452 644T521 642Q553 642 590 644T639 648L633 583Q606 577 594 572T578 558T574 531V220Q574 108 508 48T317 -12Q86 -12 86 204ZM200
711L176 751Q222 785 269 823T331 874H351Q351 875 391 843Q452 792 506 751L483 711L468 707Q393 744 341 766Q286 743 215 707L200 711Z" />
<glyph unicode="&#xdc;" glyph-name="Udieresis" horiz-adv-x="657" d="M86 -12T86 204V524Q86 557 80 567T53 578Q43 578 34 577T21 576L19 580L28 645Q42 644 82 643T169 642Q195 642 235 644T288 648L281 582Q249 578 238 567T224 528L217 236Q217 160 249
119T343 77Q468 77 468 209Q468 286 467 385T464 524Q463 557 457 567T432 578Q422 578 412 577T398 576L396 580L405 645Q418 645 452 644T521 642Q553 642 590 644T639 648L633 583Q606 577 594 572T578 558T574 531V220Q574 108 508 48T317 -12Q86 -12 86 204ZM220
701T205 717T189 761Q189 790 207 809T256 828Q283 828 298 812T314 768Q314 739 296 720T248 701Q220 701 205 717ZM398 701T383 717T367 761Q367 790 385 809T433 828Q461 828 476 812T492 768Q492 739 474 720T426 701Q398 701 383 717Z" />
<glyph unicode="&#xdd;" glyph-name="Yacute" horiz-adv-x="594" d="M143 56Q183 61 201 70T226 97T233 151V182Q233 209 227 231T204 285L106 475Q81 526 59 547T-8 576L-10 581L-3 644Q11 644 49 643T125 641Q157 641 212 644T285 649L289 640L284 584Q250 582
237 575T223 553Q223 534 291 388Q311 342 310 344H319L400 512Q415 542 415 559Q415 570 403 575T363 583L361 588L368 645L416 643Q470 641 500 641Q528 641 560 642T601 645L605 638L598 578Q558 565 535 539T476 450L381 271Q367 246 365 220T362 125Q362 92
372 79T408 65Q426 65 439 66T458 68L462 63L453 -4Q435 -3 386 -2T290 0Q254 0 203 -4T136 -11L143 56ZM248 706L235 751Q302 781 369 813T457 856L469 851L494 776L489 763Q469 758 401 740T261 698L248 706Z" />
<glyph unicode="&#xde;" glyph-name="Thorn" horiz-adv-x="571" d="M44 55Q88 63 103 80T118 139V526Q118 557 111 567T82 578L47 577L42 585L50 643L188 642Q216 642 264 645T328 649L323 583Q284 577 272 568T258 536L256 512H332Q444 512 501 468T559 336Q559
283 527 239T439 170T316 144H245V114Q245 83 253 73T284 63Q302 63 315 64T332 66L337 60L328 -3Q311 -3 265 -2T176 0Q141 0 97 -3T38 -9L44 55ZM420 231T420 326Q420 381 385 407T276 433Q262 433 258 430T252 418Q248 318 246 230Q265 225 290 221T331 216Q420
231 420 326Z" />
<glyph unicode="&#xdf;" glyph-name="germandbls" horiz-adv-x="637" d="M383 -12T345 4T301 46Q302 67 315 102T344 155H364Q366 114 389 90T449 65Q474 65 491 83T509 128Q509 155 488 174T421 219Q382 241 358 259T316 305T298 369Q298 401 314 425T361 482Q387
509 400 528T413 570Q413 607 385 630T311 653Q258 653 236 617T214 496L209 112Q209 65 243 65Q258 65 267 66T280 67L284 62L275 -3Q262 -3 229 -2T163 0Q131 0 89 -2T32 -6L38 55Q71 59 82 73T94 120V347Q93 369 80 377T29 387L25 393L33 444L94 454Q94 590
160 666T345 742Q398 742 440 724T506 674T530 602Q530 566 514 539T466 479Q442 454 430 437T418 398Q418 374 438 357T502 314Q544 290 569 272T613 224T632 155Q632 109 606 71T534 11T433 -12Q383 -12 345 4Z" />
<glyph unicode="&#xe0;" glyph-name="agrave" horiz-adv-x="479" d="M338 -12T313 7T282 65L274 68Q242 35 212 14T164 -8Q105 -8 66 33T27 137Q27 168 43 190T85 220L278 265L279 289Q279 332 256 356T193 380Q166 380 135 367T76 333L67 337L50 397Q100 425
155 449T233 473Q316 473 357 436T399 337Q399 315 390 247Q379 150 379 131Q379 112 389 101T415 90Q427 90 440 95T463 107L478 86Q460 54 434 25T382 -12Q338 -12 313 7ZM216 87T236 95T273 116L276 211L169 181Q145 175 145 148Q145 122 160 105T201 87Q216
87 236 95ZM222 567T166 605T93 653L91 667L144 735L158 736Q172 720 222 668T324 566L295 528L280 524Q222 567 166 605Z" />
<glyph unicode="&#xe1;" glyph-name="aacute" horiz-adv-x="479" d="M338 -12T313 7T282 65L274 68Q242 35 212 14T164 -8Q105 -8 66 33T27 137Q27 168 43 190T85 220L278 265L279 289Q279 332 256 356T193 380Q166 380 135 367T76 333L67 337L50 397Q100 425
155 449T233 473Q316 473 357 436T399 337Q399 315 390 247Q379 150 379 131Q379 112 389 101T415 90Q427 90 440 95T463 107L478 86Q460 54 434 25T382 -12Q338 -12 313 7ZM216 87T236 95T273 116L276 211L169 181Q145 175 145 148Q145 122 160 105T201 87Q216
87 236 95ZM175 526L144 563Q194 614 243 667T307 737H320L376 670L375 657Q359 646 303 607T190 522L175 526Z" />
<glyph unicode="&#xe2;" glyph-name="acircumflex" horiz-adv-x="479" d="M338 -12T313 7T282 65L274 68Q242 35 212 14T164 -8Q105 -8 66 33T27 137Q27 168 43 190T85 220L278 265L279 289Q279 332 256 356T193 380Q166 380 135 367T76 333L67 337L50 397Q100
425 155 449T233 473Q316 473 357 436T399 337Q399 315 390 247Q379 150 379 131Q379 112 389 101T415 90Q427 90 440 95T463 107L478 86Q460 54 434 25T382 -12Q338 -12 313 7ZM216 87T236 95T273 116L276 211L169 181Q145 175 145 148Q145 122 160 105T201 87Q216
87 236 95ZM95 534L67 574Q111 617 157 665T218 729H238Q251 714 297 666T388 574L360 534L345 531Q309 559 272 584T228 615Q162 573 111 531L95 534Z" />
<glyph unicode="&#xe3;" glyph-name="atilde" horiz-adv-x="479" d="M338 -12T313 7T282 65L274 68Q242 35 212 14T164 -8Q105 -8 66 33T27 137Q27 168 43 190T85 220L278 265L279 289Q279 332 256 356T193 380Q166 380 135 367T76 333L67 337L50 397Q100 425
155 449T233 473Q316 473 357 436T399 337Q399 315 390 247Q379 150 379 131Q379 112 389 101T415 90Q427 90 440 95T463 107L478 86Q460 54 434 25T382 -12Q338 -12 313 7ZM216 87T236 95T273 116L276 211L169 181Q145 175 145 148Q145 122 160 105T201 87Q216
87 236 95ZM58 576V586L135 687L151 691Q167 691 221 673Q269 657 280 657Q290 657 304 669T329 696T343 714H354L393 678V668L316 567L299 563Q282 563 230 581Q225 583 203 590T171 597Q160 597 146 585T121 558T107 540H97L58 576Z" />
<glyph unicode="&#xe4;" glyph-name="adieresis" horiz-adv-x="479" d="M338 -12T313 7T282 65L274 68Q242 35 212 14T164 -8Q105 -8 66 33T27 137Q27 168 43 190T85 220L278 265L279 289Q279 332 256 356T193 380Q166 380 135 367T76 333L67 337L50 397Q100 425
155 449T233 473Q316 473 357 436T399 337Q399 315 390 247Q379 150 379 131Q379 112 389 101T415 90Q427 90 440 95T463 107L478 86Q460 54 434 25T382 -12Q338 -12 313 7ZM216 87T236 95T273 116L276 211L169 181Q145 175 145 148Q145 122 160 105T201 87Q216
87 236 95ZM105 553T90 569T74 613Q74 642 92 660T141 679Q168 679 183 663T199 620Q199 591 181 572T133 553Q105 553 90 569ZM283 553T268 569T252 613Q252 642 270 660T318 679Q346 679 361 663T377 620Q377 591 359 572T311 553Q283 553 268 569Z" />
<glyph unicode="&#xe5;" glyph-name="aring" horiz-adv-x="479" d="M338 -12T313 7T282 65L274 68Q242 35 212 14T164 -8Q105 -8 66 33T27 137Q27 168 43 190T85 220L278 265L279 289Q279 332 256 356T193 380Q166 380 135 367T76 333L67 337L50 397Q100 425 155
449T233 473Q316 473 357 436T399 337Q399 315 390 247Q379 150 379 131Q379 112 389 101T415 90Q427 90 440 95T463 107L478 86Q460 54 434 25T382 -12Q338 -12 313 7ZM216 87T236 95T273 116L276 211L169 181Q145 175 145 148Q145 122 160 105T201 87Q216 87
236 95ZM183 544T160 568T136 634Q136 676 162 702T231 729Q272 729 296 706T320 643Q320 600 293 572T223 544Q183 544 160 568ZM249 597T259 606T270 633Q270 653 258 664T224 675Q205 675 195 666T184 639Q184 621 197 609T230 597Q249 597 259 606Z" />
<glyph unicode="&#xe6;" glyph-name="ae" horiz-adv-x="669" d="M421 -12T372 13T296 87Q254 46 217 21T156 -8Q97 -8 58 32T19 134Q19 168 36 192T83 222L265 261L266 292Q266 335 244 358T181 382Q155 382 129 371T85 349T62 333L54 337L36 397Q46 403 81 421T158
456T219 473Q305 473 343 407Q371 439 410 456T493 473Q565 473 606 429T647 307Q647 296 646 288T645 278L634 266L378 221Q385 154 418 118T508 82Q536 82 562 89T606 104T629 115L636 111L652 62Q652 61 621 41T554 5T486 -12Q421 -12 372 13ZM505 307Q523 310
523 322Q523 352 507 371T465 391Q424 391 400 364T375 291V274L505 307ZM207 85T230 96T277 128Q266 161 264 208L164 182Q135 175 135 145Q135 120 151 103T190 85Q207 85 230 96Z" />
<glyph unicode="&#xe7;" glyph-name="ccedilla" horiz-adv-x="431" d="M144 -12T85 49T26 218Q26 292 57 350T143 440T269 473Q302 473 330 469T375 460T396 453L400 444Q399 438 395 417T385 361T378 290L314 286V319Q314 353 298 371T251 390Q204 390 180 356T155
257Q155 175 184 131T266 87Q291 87 314 93T353 107T373 116L380 113L396 62Q389 56 364 39T306 5T246 -12Q144 -12 85 49ZM189 -237T165 -225T140 -194Q140 -184 151 -166T176 -132H185Q186 -159 200 -173T237 -188Q255 -188 266 -180T278 -157Q278 -142 254 -124T192
-86L224 28H275L254 -45Q296 -69 323 -91T350 -141Q350 -167 331 -189T281 -224T217 -237Q189 -237 165 -225Z" />
<glyph unicode="&#xe8;" glyph-name="egrave" horiz-adv-x="462" d="M147 -12T87 49T26 218Q26 290 57 348T142 439T262 473Q430 473 430 303Q430 273 423 247L411 235H152Q153 162 186 124T280 85Q332 85 399 115L406 111L422 62Q385 34 337 11T252 -12Q147 -12
87 49ZM289 298Q301 299 304 303T308 321Q308 395 245 395Q206 395 182 368T152 290L289 298ZM245 566T189 604T116 652L114 666L167 734L181 735Q195 719 245 667T347 565L318 527L303 523Q245 566 189 604Z" />
<glyph unicode="&#xe9;" glyph-name="eacute" horiz-adv-x="462" d="M147 -12T87 49T26 218Q26 290 57 348T142 439T262 473Q430 473 430 303Q430 273 423 247L411 235H152Q153 162 186 124T280 85Q332 85 399 115L406 111L422 62Q385 34 337 11T252 -12Q147 -12
87 49ZM289 298Q301 299 304 303T308 321Q308 395 245 395Q206 395 182 368T152 290L289 298ZM197 525L166 562Q216 613 265 666T329 736H342L398 669L397 656Q381 645 325 606T212 521L197 525Z" />
<glyph unicode="&#xea;" glyph-name="ecircumflex" horiz-adv-x="462" d="M147 -12T87 49T26 218Q26 290 57 348T142 439T262 473Q430 473 430 303Q430 273 423 247L411 235H152Q153 162 186 124T280 85Q332 85 399 115L406 111L422 62Q385 34 337 11T252 -12Q147
-12 87 49ZM289 298Q301 299 304 303T308 321Q308 395 245 395Q206 395 182 368T152 290L289 298ZM118 534L90 574Q134 617 180 665T241 729H261Q274 714 320 666T411 574L383 534L368 531Q332 559 295 584T251 615Q185 573 134 531L118 534Z" />
<glyph unicode="&#xeb;" glyph-name="edieresis" horiz-adv-x="462" d="M147 -12T87 49T26 218Q26 290 57 348T142 439T262 473Q430 473 430 303Q430 273 423 247L411 235H152Q153 162 186 124T280 85Q332 85 399 115L406 111L422 62Q385 34 337 11T252 -12Q147
-12 87 49ZM289 298Q301 299 304 303T308 321Q308 395 245 395Q206 395 182 368T152 290L289 298ZM128 552T113 568T97 612Q97 641 115 659T164 678Q191 678 206 662T222 619Q222 590 204 571T156 552Q128 552 113 568ZM306 552T291 568T275 612Q275 641 293 659T341
678Q369 678 384 662T400 619Q400 590 382 571T334 552Q306 552 291 568Z" />
<glyph unicode="&#xec;" glyph-name="igrave" horiz-adv-x="292" d="M35 52Q64 57 77 71T91 114V330Q91 362 82 374T49 386Q42 386 35 385T26 383L32 440Q88 448 146 458T221 473L230 457Q219 435 213 337T206 105Q206 81 213 71T237 61Q246 61 254 62T266 63L269
58L259 -3Q248 -2 216 -1T149 0Q118 0 79 -4T27 -11L35 52ZM141 566T85 604T12 652L10 666L63 734L77 735Q91 719 141 667T243 565L214 527L199 523Q141 566 85 604Z" />
<glyph unicode="&#xed;" glyph-name="iacute" horiz-adv-x="292" d="M35 52Q64 57 77 71T91 114V330Q91 362 82 374T49 386Q42 386 35 385T26 383L32 440Q88 448 146 458T221 473L230 457Q219 435 213 337T206 105Q206 81 213 71T237 61Q246 61 254 62T266 63L269
58L259 -3Q248 -2 216 -1T149 0Q118 0 79 -4T27 -11L35 52ZM59 525L28 562Q78 613 127 666T191 736H204L260 669L259 656Q243 645 187 606T74 521L59 525Z" />
<glyph unicode="&#xee;" glyph-name="icircumflex" horiz-adv-x="292" d="M35 52Q64 57 77 71T91 114V330Q91 362 82 374T49 386Q42 386 35 385T26 383L32 440Q88 448 146 458T221 473L230 457Q219 435 213 337T206 105Q206 81 213 71T237 61Q246 61 254 62T266
63L269 58L259 -3Q248 -2 216 -1T149 0Q118 0 79 -4T27 -11L35 52ZM20 533L-8 573Q36 616 82 664T143 728H163Q176 713 222 665T313 573L285 533L270 530Q234 558 197 583T153 614Q87 572 36 530L20 533Z" />
<glyph unicode="&#xef;" glyph-name="idieresis" horiz-adv-x="292" d="M35 52Q64 57 77 71T91 114V330Q91 362 82 374T49 386Q42 386 35 385T26 383L32 440Q88 448 146 458T221 473L230 457Q219 435 213 337T206 105Q206 81 213 71T237 61Q246 61 254 62T266
63L269 58L259 -3Q248 -2 216 -1T149 0Q118 0 79 -4T27 -11L35 52ZM38 536T24 551T9 593Q9 620 26 638T72 656Q98 656 112 641T127 600Q127 572 110 554T64 536Q38 536 24 551ZM191 536T177 551T162 593Q162 620 179 638T225 656Q251 656 265 641T280 600Q280 572
263 554T218 536Q191 536 177 551Z" />
<glyph unicode="&#xf0;" glyph-name="eth" horiz-adv-x="508" d="M144 -12T87 49T29 219Q29 284 55 339T128 426T234 458Q252 456 271 448T293 438L296 443Q267 503 218 552L89 488L79 490L63 549L164 599Q112 643 38 681L69 736L82 741Q175 702 253 644L393 715L402
710L418 652L310 599Q392 524 435 435T479 249Q479 172 450 113T367 21T244 -12Q144 -12 87 49ZM305 63T325 99T346 204Q346 285 331 349Q299 376 251 376Q204 376 182 343T160 233Q160 150 187 107T266 63Q305 63 325 99Z" />
<glyph unicode="&#xf1;" glyph-name="ntilde" horiz-adv-x="570" d="M344 59T354 72T366 110L369 283Q369 327 353 348T304 370Q266 370 216 332Q206 152 206 107Q206 82 212 72T236 62L263 63L265 59L255 -3Q244 -2 214 -1T150 0Q118 0 81 -2T32 -6L40 56Q69
59 80 71T92 112V324Q92 359 82 371T43 384H30L26 389L31 441Q88 449 143 460T215 474L223 464Q221 458 217 437T212 395L216 391Q247 418 287 445T346 473Q417 473 456 439T496 344Q496 329 488 239Q478 137 478 108Q478 82 485 71T509 60Q519 60 528 61T540 62L542
58L533 -3Q521 -2 490 -1T425 0Q401 0 364 -3T314 -8L319 54Q344 59 354 72ZM129 575V585L206 686L222 690Q238 690 292 672Q340 656 351 656Q361 656 375 668T400 695T414 713H425L464 677V667L387 566L370 562Q353 562 301 580Q296 582 274 589T242 596Q231 596
217 584T192 557T178 539H168L129 575Z" />
<glyph unicode="&#xf2;" glyph-name="ograve" horiz-adv-x="503" d="M180 -12T132 16T58 97T32 217Q32 292 62 350T147 440T273 473Q370 473 426 412T483 245Q483 170 453 112T369 21T243 -12Q180 -12 132 16ZM306 63T328 97T351 199Q351 293 325 341T250 389Q207
389 185 355T162 253Q162 159 188 111T263 63Q306 63 328 97ZM253 566T197 604T124 652L122 666L175 734L189 735Q203 719 253 667T355 565L326 527L311 523Q253 566 197 604Z" />
<glyph unicode="&#xf3;" glyph-name="oacute" horiz-adv-x="503" d="M180 -12T132 16T58 97T32 217Q32 292 62 350T147 440T273 473Q370 473 426 412T483 245Q483 170 453 112T369 21T243 -12Q180 -12 132 16ZM306 63T328 97T351 199Q351 293 325 341T250 389Q207
389 185 355T162 253Q162 159 188 111T263 63Q306 63 328 97ZM205 525L174 562Q224 613 273 666T337 736H350L406 669L405 656Q389 645 333 606T220 521L205 525Z" />
<glyph unicode="&#xf4;" glyph-name="ocircumflex" horiz-adv-x="503" d="M180 -12T132 16T58 97T32 217Q32 292 62 350T147 440T273 473Q370 473 426 412T483 245Q483 170 453 112T369 21T243 -12Q180 -12 132 16ZM306 63T328 97T351 199Q351 293 325 341T250
389Q207 389 185 355T162 253Q162 159 188 111T263 63Q306 63 328 97ZM126 534L98 574Q142 617 188 665T249 729H269Q282 714 328 666T419 574L391 534L376 531Q340 559 303 584T259 615Q193 573 142 531L126 534Z" />
<glyph unicode="&#xf5;" glyph-name="otilde" horiz-adv-x="503" d="M180 -12T132 16T58 97T32 217Q32 292 62 350T147 440T273 473Q370 473 426 412T483 245Q483 170 453 112T369 21T243 -12Q180 -12 132 16ZM306 63T328 97T351 199Q351 293 325 341T250 389Q207
389 185 355T162 253Q162 159 188 111T263 63Q306 63 328 97ZM88 575V585L165 686L181 690Q197 690 251 672Q299 656 310 656Q320 656 334 668T359 695T373 713H384L423 677V667L346 566L329 562Q312 562 260 580Q255 582 233 589T201 596Q190 596 176 584T151
557T137 539H127L88 575Z" />
<glyph unicode="&#xf6;" glyph-name="odieresis" horiz-adv-x="503" d="M180 -12T132 16T58 97T32 217Q32 292 62 350T147 440T273 473Q370 473 426 412T483 245Q483 170 453 112T369 21T243 -12Q180 -12 132 16ZM306 63T328 97T351 199Q351 293 325 341T250 389Q207
389 185 355T162 253Q162 159 188 111T263 63Q306 63 328 97ZM136 552T121 568T105 612Q105 641 123 659T172 678Q199 678 214 662T230 619Q230 590 212 571T164 552Q136 552 121 568ZM314 552T299 568T283 612Q283 641 301 659T349 678Q377 678 392 662T408 619Q408
590 390 571T342 552Q314 552 299 568Z" />
<glyph unicode="&#xf7;" glyph-name="divide" horiz-adv-x="506" d="M213 363T196 381T178 430Q178 463 198 484T252 505Q284 505 301 487T319 437Q319 404 299 384T245 363Q213 363 196 381ZM17 219L31 306L265 305Q315 305 387 307T482 311L489 299L479 210L252
209L24 208L17 219ZM213 8T196 27T178 76Q178 109 198 130T252 151Q284 151 301 133T319 83Q319 50 299 29T245 8Q213 8 196 27Z" />
<glyph unicode="&#xf8;" glyph-name="oslash" horiz-adv-x="516" d="M447 399T466 352T485 245Q485 170 455 112T371 21T245 -12Q199 -12 161 3L89 -116L31 -88L28 -78L101 42Q69 72 52 117T34 217Q34 292 64 350T149 440T275 473Q310 473 347 463L411 570L470
541L473 529L412 428Q447 399 466 352ZM209 389T187 355T164 253Q164 203 172 163L296 376Q277 389 252 389Q209 389 187 355ZM308 63T330 97T353 199Q353 266 340 308L210 85Q232 63 265 63Q308 63 330 97Z" />
<glyph unicode="&#xf9;" glyph-name="ugrave" horiz-adv-x="546" d="M75 363T67 374T41 386Q32 386 25 385T16 383L22 441Q74 448 130 458T203 473L212 457Q201 432 193 348T185 173Q185 132 200 112T248 92Q268 92 287 101T335 130V336Q335 364 327 374T292 385L274
384L282 441Q336 448 393 458T468 471L477 455Q466 432 458 338T450 131Q450 112 460 101T486 90Q497 90 507 94T525 102T534 107L549 87Q545 80 529 59T490 15T446 -12Q355 -12 344 65L336 69Q298 34 267 12T224 -11Q148 -11 108 21T68 114L75 337Q75 363 67 374ZM260
566T204 604T131 652L129 666L182 734L196 735Q210 719 260 667T362 565L333 527L318 523Q260 566 204 604Z" />
<glyph unicode="&#xfa;" glyph-name="uacute" horiz-adv-x="546" d="M75 363T67 374T41 386Q32 386 25 385T16 383L22 441Q74 448 130 458T203 473L212 457Q201 432 193 348T185 173Q185 132 200 112T248 92Q268 92 287 101T335 130V336Q335 364 327 374T292 385L274
384L282 441Q336 448 393 458T468 471L477 455Q466 432 458 338T450 131Q450 112 460 101T486 90Q497 90 507 94T525 102T534 107L549 87Q545 80 529 59T490 15T446 -12Q355 -12 344 65L336 69Q298 34 267 12T224 -11Q148 -11 108 21T68 114L75 337Q75 363 67 374ZM212
525L181 562Q231 613 280 666T344 736H357L413 669L412 656Q396 645 340 606T227 521L212 525Z" />
<glyph unicode="&#xfb;" glyph-name="ucircumflex" horiz-adv-x="546" d="M75 363T67 374T41 386Q32 386 25 385T16 383L22 441Q74 448 130 458T203 473L212 457Q201 432 193 348T185 173Q185 132 200 112T248 92Q268 92 287 101T335 130V336Q335 364 327 374T292
385L274 384L282 441Q336 448 393 458T468 471L477 455Q466 432 458 338T450 131Q450 112 460 101T486 90Q497 90 507 94T525 102T534 107L549 87Q545 80 529 59T490 15T446 -12Q355 -12 344 65L336 69Q298 34 267 12T224 -11Q148 -11 108 21T68 114L75 337Q75
363 67 374ZM132 534L104 574Q148 617 194 665T255 729H275Q288 714 334 666T425 574L397 534L382 531Q346 559 309 584T265 615Q199 573 148 531L132 534Z" />
<glyph unicode="&#xfc;" glyph-name="udieresis" horiz-adv-x="546" d="M75 363T67 374T41 386Q32 386 25 385T16 383L22 441Q74 448 130 458T203 473L212 457Q201 432 193 348T185 173Q185 132 200 112T248 92Q268 92 287 101T335 130V336Q335 364 327 374T292
385L274 384L282 441Q336 448 393 458T468 471L477 455Q466 432 458 338T450 131Q450 112 460 101T486 90Q497 90 507 94T525 102T534 107L549 87Q545 80 529 59T490 15T446 -12Q355 -12 344 65L336 69Q298 34 267 12T224 -11Q148 -11 108 21T68 114L75 337Q75
363 67 374ZM143 552T128 568T112 612Q112 641 130 659T179 678Q206 678 221 662T237 619Q237 590 219 571T171 552Q143 552 128 568ZM321 552T306 568T290 612Q290 641 308 659T356 678Q384 678 399 662T415 619Q415 590 397 571T349 552Q321 552 306 568Z" />
<glyph unicode="&#xfd;" glyph-name="yacute" horiz-adv-x="464" d="M43 -241T25 -226T-7 -191T-22 -161L-15 -149Q49 -144 99 -108T183 -8Q180 -2 179 4T175 15Q162 50 118 175T49 358Q39 381 25 390T-12 401L-14 406L-7 462L71 461Q116 461 169 464T222 468L224
463L216 406Q187 405 178 400T168 382Q168 367 183 312T215 202T237 131H247Q338 362 338 382Q338 393 331 398T308 403H276L273 408L281 464Q291 463 321 462T387 461L479 462L471 402Q449 397 439 388T420 353L293 44Q229 -111 174 -176T52 -241Q43 -241 25 -226ZM196
525L165 562Q215 613 264 666T328 736H341L397 669L396 656Q380 645 324 606T211 521L196 525Z" />
<glyph unicode="&#xfe;" glyph-name="thorn" horiz-adv-x="513" d="M13 -175Q37 -173 47 -166T61 -144T65 -97L69 76V602Q69 632 60 643T24 654Q9 654 0 653L6 710Q104 723 208 742L215 723Q197 702 189 406Q279 471 298 471Q385 471 436 411T488 250Q488 176
456 117T366 24T236 -10L183 -7L182 -104Q182 -143 191 -156T231 -169Q238 -169 264 -167L267 -171L256 -232L149 -230Q93 -230 5 -236L13 -175ZM307 71T334 108T361 212Q361 287 334 332T262 377Q246 377 225 367T186 342L184 87L259 71Q307 71 334 108Z" />
<glyph unicode="&#xff;" glyph-name="ydieresis" horiz-adv-x="464" d="M43 -241T25 -226T-7 -191T-22 -161L-15 -149Q49 -144 99 -108T183 -8Q180 -2 179 4T175 15Q162 50 118 175T49 358Q39 381 25 390T-12 401L-14 406L-7 462L71 461Q116 461 169 464T222 468L224
463L216 406Q187 405 178 400T168 382Q168 367 183 312T215 202T237 131H247Q338 362 338 382Q338 393 331 398T308 403H276L273 408L281 464Q291 463 321 462T387 461L479 462L471 402Q449 397 439 388T420 353L293 44Q229 -111 174 -176T52 -241Q43 -241 25 -226ZM126
552T111 568T95 612Q95 641 113 659T162 678Q189 678 204 662T220 619Q220 590 202 571T154 552Q126 552 111 568ZM304 552T289 568T273 612Q273 641 291 659T339 678Q367 678 382 662T398 619Q398 590 380 571T332 552Q304 552 289 568Z" />
<glyph unicode="&#x2013;" glyph-name="endash" horiz-adv-x="536" d="M32 226L43 300L284 299L495 304L503 290L493 214L208 213Q139 212 40 212L32 226Z" />
<glyph unicode="&#x2014;" glyph-name="emdash" horiz-adv-x="878" d="M-9 226L2 300L443 299Q571 299 717 301T880 304L887 290L877 214L320 213Q224 212 143 212T0 212L-9 226Z" />
<glyph unicode="&#x2018;" glyph-name="quoteleft" horiz-adv-x="215" d="M78 381T57 409T36 477Q36 517 65 565T144 656L185 635L189 619Q167 598 154 572T141 522Q141 498 154 477T191 445L192 431Q150 381 107 381Q78 381 57 409Z" />
<glyph unicode="&#x2019;" glyph-name="quoteright" horiz-adv-x="215" d="M30 402L27 418Q48 439 61 466T74 515Q74 539 61 560T24 592L23 606Q65 656 108 656Q138 656 158 629T179 560Q179 520 151 472T71 381L30 402Z" />
<glyph unicode="&#x201a;" glyph-name="quotesinglbase" horiz-adv-x="238" d="M31 -112V-95Q63 -73 83 -42T103 19Q103 39 95 58T73 91L75 105Q94 120 114 130T153 140Q182 140 200 116T219 51Q219 -1 176 -52T67 -141L31 -112Z" />
<glyph unicode="&#x201c;" glyph-name="quotedblleft" horiz-adv-x="397" d="M260 381T239 409T218 477Q218 517 247 565T326 656L367 635L371 619Q349 598 336 572T323 522Q323 498 336 477T373 445L374 431Q332 381 289 381Q260 381 239 409ZM78 381T57 409T36
477Q36 517 65 565T144 656L185 635L189 619Q167 598 154 572T141 522Q141 498 154 477T191 445L192 431Q150 381 107 381Q78 381 57 409Z" />
<glyph unicode="&#x201d;" glyph-name="quotedblright" horiz-adv-x="397" d="M212 402L209 418Q230 439 243 466T256 515Q256 539 243 560T206 592L205 606Q247 656 290 656Q320 656 340 629T361 560Q361 520 333 472T253 381L212 402ZM30 402L27 418Q48 439
61 466T74 515Q74 539 61 560T24 592L23 606Q65 656 108 656Q138 656 158 629T179 560Q179 520 151 472T71 381L30 402Z" />
<glyph unicode="&#x201e;" glyph-name="quotedblbase" horiz-adv-x="420" d="M13 -96V-79Q43 -59 62 -31T82 23Q82 43 72 61T47 91L49 105Q93 140 127 140Q157 140 176 117T195 55Q195 5 154 -42T49 -125L13 -96ZM193 -96V-79Q223 -59 242 -31T261 23Q261 43 251
61T226 91L229 105Q247 120 268 130T306 140Q336 140 355 117T374 55Q374 5 333 -42T229 -125L193 -96Z" />
<glyph unicode="&#x2022;" glyph-name="bullet" horiz-adv-x="340" d="M113 113T82 145T51 230Q51 285 84 319T173 354Q226 354 257 322T289 238Q289 183 256 148T167 113Q113 113 82 145Z" />
<glyph unicode="&#x2039;" glyph-name="guilsinglleft" horiz-adv-x="265" d="M141 95T90 147T22 215V236Q38 251 89 304T187 410L227 386L230 370Q214 347 179 290L140 229Q170 181 178 168Q187 153 200 132T230 85L227 69L187 44Q141 95 90 147Z" />
<glyph unicode="&#x203a;" glyph-name="guilsinglright" horiz-adv-x="265" d="M38 68L35 84Q51 107 86 164L125 225L83 293L35 370L38 385L79 410Q124 359 175 307T243 239V219Q227 203 176 150T79 44L38 68Z" />
</font>
</defs>
</svg>
