<?xml version="1.0" standalone="no"?>
<!DOCTYPE svg PUBLIC "-//W3C//DTD SVG 1.1//EN" "http://www.w3.org/Graphics/SVG/1.1/DTD/svg11.dtd">
<svg xmlns="http://www.w3.org/2000/svg">
<defs >
<font id="Alegreya" horiz-adv-x="578" ><font-face
    font-family="Alegreya Black"
    units-per-em="1000"
    panose-1="0 0 10 0 0 0 0 0 0 0"
    ascent="1016"
    descent="-345"
    alphabetic="0" />
<glyph unicode=" " glyph-name="space" horiz-adv-x="144" />
<glyph unicode="!" glyph-name="exclam" horiz-adv-x="284" d="M78 265L44 667L62 691L250 717L275 691L202 261L99 245L78 265ZM86 -9T62 15T38 86Q38 134 65 162T140 190Q184 190 208 165T233 95Q233 47 206 19T132 -9Q86 -9 62 15Z" />
<glyph unicode="&quot;" glyph-name="quotedbl" horiz-adv-x="347" d="M32 407Q33 460 31 515T27 603T23 645L157 659L166 647Q163 628 152 562T124 426L51 401L32 407ZM203 407Q204 460 202 515T198 603T194 645L328 659L337 647Q334 628 323 562T295 426L222
401L203 407Z" />
<glyph unicode="#" glyph-name="numbersign" horiz-adv-x="557" d="M77 40L95 144H16L7 157L21 262L114 261L121 306L126 339H47L38 352L52 457L143 456L160 573L268 582L282 575L260 456H340L357 573L465 582L479 575L457 459L542 462L549 447L540 341L437 340L435
324L425 264L511 267L518 252L509 146L408 145L393 45L287 31L274 40L292 145H210L196 45L90 31L77 40ZM311 261L318 306L323 340H240L238 324L228 261H311Z" />
<glyph unicode="$" glyph-name="dollar" horiz-adv-x="475" d="M460 89T408 48T261 -5L242 -151L128 -164L120 -158L140 -6Q109 -2 84 5T44 17T26 25L15 40Q18 53 25 95T34 167L147 175Q147 141 165 123T215 105Q237 105 249 111T262 128Q262 145 243 156T180
184Q161 190 145 197Q87 221 53 254T19 343Q19 407 68 450T204 507L221 644L337 658L343 649L325 511Q357 509 383 505T425 496T445 491L456 472Q453 461 445 421T433 336L329 329L318 336V344Q318 368 303 381T262 395Q242 395 229 388T216 367Q216 350 235 339T298
312L320 304Q384 280 422 248T460 155Q460 89 408 48Z" />
<glyph unicode="%" glyph-name="percent" horiz-adv-x="758" d="M86 -56L80 -39Q99 -12 160 79T274 253L541 679L628 647L638 623Q609 578 529 455T368 207Q301 100 249 18T179 -91L86 -56ZM77 290T39 335T0 466Q0 557 44 608T166 659Q238 659 276 614T314 483Q314
392 271 341T150 290Q77 290 39 335ZM198 428T215 438T233 470Q233 494 214 505T152 517Q114 517 97 507T80 475Q80 428 160 428Q198 428 215 438ZM521 -12T483 33T444 164Q444 255 488 306T610 357Q682 357 720 312T758 181Q758 90 715 39T594 -12Q521 -12 483
33ZM642 126T659 136T677 168Q677 192 658 203T596 215Q558 215 541 205T524 173Q524 126 604 126Q642 126 659 136Z" />
<glyph unicode="&amp;" glyph-name="ampersand" horiz-adv-x="741" d="M449 52Q404 19 360 4T258 -12Q153 -12 90 34T26 162Q26 217 52 253T110 308T142 324V335Q103 378 85 412T66 487Q66 566 132 612T319 659Q405 659 474 637L478 617L428 507H402Q382 525 355
535T299 545Q265 545 250 531T235 486Q235 456 249 431T295 380L477 226Q487 259 487 290Q487 324 479 338T452 353Q437 353 371 347L355 446Q355 452 431 457L634 469Q723 474 723 480L741 458L718 386Q712 369 694 360T649 350H597L592 342Q596 323 596 292Q596
257 586 226T555 160L689 47V30Q620 -30 573 -60L449 52ZM331 98T376 118L208 269Q184 234 184 194Q184 143 210 121T297 98Q331 98 376 118Z" />
<glyph unicode="&apos;" glyph-name="quotesingle" horiz-adv-x="176" d="M32 407Q33 460 31 515T27 603T23 645L157 659L166 647Q163 628 152 562T124 426L51 401L32 407Z" />
<glyph unicode="(" glyph-name="parenleft" horiz-adv-x="309" d="M220 -153T174 -118T91 -14T54 163V336Q54 445 91 514T176 620T223 649H240L292 585L291 576Q291 581 269 555T229 479T211 351V178Q211 92 229 36T271 -50T294 -75V-86L232 -146H220Q220 -153 174 -118Z" />
<glyph unicode=")" glyph-name="parenright" horiz-adv-x="309" d="M17 -82L18 -73Q18 -78 40 -52T80 24T98 152V325Q98 411 80 467T38 553T15 578V589L77 649H89Q89 656 135 621T218 517T255 340V167Q255 58 218 -11T133 -117T86 -146H69L17 -82Z" />
<glyph unicode="*" glyph-name="asterisk" horiz-adv-x="364" d="M152 620Q151 656 148 691T144 736Q144 737 178 744T238 752L245 742Q243 733 234 700T210 620L160 615L152 620ZM83 567T53 575T12 585Q12 599 14 626T26 678L37 681Q45 677 74 659T142 611L133
562L124 555Q83 567 53 575ZM218 604L222 615Q261 629 291 640T330 656Q333 653 341 640T359 609T374 572L366 564Q357 563 323 560T240 558L218 604ZM234 393Q230 401 217 433T190 511L227 546H238Q259 518 281 491T311 456Q309 453 300 441T276 413T245 388L234
393ZM111 413T97 418T64 433T30 453L31 465Q37 471 63 493T129 543L174 519L177 510Q154 475 137 448T115 412Q111 413 97 418Z" />
<glyph unicode="+" glyph-name="plus" horiz-adv-x="506" d="M179 27L180 177L24 176L15 189L33 324Q46 324 86 324T180 323L181 480L312 493L327 486Q326 471 325 426T321 323Q378 325 423 326T483 329L490 314L477 178L321 177Q321 125 321 87T322 36L192 18L179 27Z" />
<glyph unicode="," glyph-name="comma" horiz-adv-x="238" d="M-8 -76V-51Q21 -30 38 -1T56 55Q56 75 48 96T27 131L30 145Q57 166 84 177T132 189Q170 189 193 162T217 88Q217 35 172 -21T50 -122L-8 -76Z" />
<glyph unicode="-" glyph-name="hyphen" horiz-adv-x="324" d="M33 194L43 300L196 317Q236 321 255 324T279 328L291 310L278 202L46 176L33 194Z" />
<glyph unicode="." glyph-name="period" horiz-adv-x="238" d="M69 -9T45 15T21 86Q21 134 48 162T123 190Q167 190 191 165T216 95Q216 47 189 19T115 -9Q69 -9 45 15Z" />
<glyph unicode="/" glyph-name="slash" horiz-adv-x="329" d="M4 -95Q13 -66 41 32T93 226L208 675H327L344 655Q331 609 296 481T224 215L141 -110H15L4 -95Z" />
<glyph unicode="0" glyph-name="zero" horiz-adv-x="467" d="M122 -12T68 53T13 239Q13 368 75 441T246 515Q347 515 400 450T454 264Q454 134 393 61T223 -12Q122 -12 68 53ZM293 179T319 195T345 246Q345 320 227 320Q173 320 147 304T121 252Q121 216 150 198T238
179Q293 179 319 195Z" />
<glyph unicode="1" glyph-name="one" horiz-adv-x="377" d="M21 71Q68 76 88 92T109 139V340Q109 375 100 386T62 397Q47 397 34 396T15 394L6 404L14 479Q71 484 146 493Q193 498 236 503T292 511L320 515L336 472Q320 460 311 444T296 400Q288 363 285 309T281
153Q281 119 290 104T320 88Q337 88 349 89T364 90L368 84L354 -6Q337 -5 285 -3T199 0Q139 0 38 -8Q27 -9 21 -9T12 -10L21 71Z" />
<glyph unicode="2" glyph-name="two" horiz-adv-x="493" d="M72 121Q149 211 176 252T204 320Q204 367 156 367Q131 367 105 351T56 304H38L13 408Q118 515 236 515Q315 515 364 477T413 376Q413 343 400 313T354 244T254 137L259 128H293Q331 128 348 148T371
219L487 228Q483 206 473 134T460 6L443 -12Q401 -10 274 -5T82 0L7 -6L2 44L72 121Z" />
<glyph unicode="3" glyph-name="three" horiz-adv-x="448" d="M66 -95T46 -82T16 -41T2 39L24 62Q60 44 116 44Q166 44 197 59T228 99Q228 129 201 142T114 156L101 171L91 261L156 274Q184 285 199 304T214 346Q214 363 202 373T170 384Q126 384 66 336L51 335L19
438Q62 471 121 493T227 515Q303 515 349 482T395 394Q395 350 365 315T284 263V252Q353 232 390 196T427 112Q427 61 380 13T257 -65T101 -95Q66 -95 46 -82Z" />
<glyph unicode="4" glyph-name="four" horiz-adv-x="490" d="M226 -83Q227 -71 228 -34T232 52Q112 55 0 55L1 155L255 513L264 515L404 503V173H473L484 158L473 45L405 47Q407 2 408 -30T411 -72L400 -83L236 -95L226 -83ZM233 173V300H222L136 173H233Z" />
<glyph unicode="5" glyph-name="five" horiz-adv-x="423" d="M33 -95T11 -66T-16 39L6 62Q43 44 98 44Q147 44 178 59T210 100Q210 129 173 144T43 169L34 180Q44 271 50 362T57 479L65 487L263 493Q292 494 305 502T326 533L405 538L376 359L357 340Q343 341
292 344T178 348L170 298Q297 276 350 239T404 133Q404 76 359 23T239 -62T83 -95Q33 -95 11 -66Z" />
<glyph unicode="6" glyph-name="six" horiz-adv-x="473" d="M372 379T416 332T461 203Q461 103 398 46T225 -12Q129 -12 72 48T15 211Q15 298 62 378T191 516T378 599L391 592L421 511Q291 452 233 369L239 358Q265 369 297 379Q372 379 416 332ZM268 105T280
122T293 177Q293 259 240 259Q218 259 184 242Q182 216 182 202Q182 155 196 130T239 105Q268 105 280 122Z" />
<glyph unicode="7" glyph-name="seven" horiz-adv-x="435" d="M84 -57L72 -29L267 360L175 351Q144 348 129 341T107 319T93 269L10 263Q13 285 20 360T30 502L36 507Q46 506 82 505T158 503H381L438 433Q379 305 349 234T273 48L235 -95H208L84 -57Z" />
<glyph unicode="8" glyph-name="eight" horiz-adv-x="473" d="M163 -12T117 7T45 61T19 137Q19 186 45 217T112 266Q72 295 50 332T27 422Q27 471 56 511T137 575T250 599Q302 599 346 580T415 526T441 452Q441 370 361 327Q401 302 424 268T448 183Q448 128 419
84T337 14T221 -12Q163 -12 117 7ZM292 397T292 427Q292 453 278 468T240 483Q218 483 206 472T193 441Q193 419 213 404T274 370Q292 397 292 427ZM255 96T269 108T283 143Q283 158 271 170T235 196T186 222Q167 196 167 165Q167 134 184 115T230 96Q255 96 269
108Z" />
<glyph unicode="9" glyph-name="nine" horiz-adv-x="473" d="M344 515T401 455T458 292Q458 205 411 125T282 -13T95 -96L82 -89L52 -8Q182 51 240 134L234 145Q209 134 176 124Q101 124 57 171T12 300Q12 400 75 457T248 515Q344 515 401 455ZM255 244T289 261Q291
287 291 301Q291 348 277 373T234 398Q205 398 193 381T180 326Q180 244 233 244Q255 244 289 261Z" />
<glyph unicode=":" glyph-name="colon" horiz-adv-x="238" d="M69 -9T45 15T21 86Q21 134 48 162T123 190Q167 190 191 165T216 95Q216 47 189 19T115 -9Q69 -9 45 15ZM69 256T45 280T21 351Q21 399 48 427T123 455Q167 455 191 430T216 360Q216 312 189 284T115
256Q69 256 45 280Z" />
<glyph unicode=";" glyph-name="semicolon" horiz-adv-x="238" d="M-8 -76V-51Q21 -30 38 -1T56 55Q56 75 48 96T27 131L30 145Q57 166 84 177T132 189Q170 189 193 162T217 88Q217 35 172 -21T50 -122L-8 -76ZM69 256T45 280T21 351Q21 399 48 427T123 455Q167
455 191 430T216 360Q216 312 189 284T115 256Q69 256 45 280Z" />
<glyph unicode="&lt;" glyph-name="less" horiz-adv-x="431" d="M339 47T302 64T212 105L33 184L25 199V352L203 429Q251 450 296 471T354 499L372 488L406 383Q390 377 338 356T240 315L150 276V268L252 219Q305 195 344 178T397 155L406 134L350 42Q339 47 302 64Z" />
<glyph unicode="=" glyph-name="equal" horiz-adv-x="506" d="M15 289L33 424L262 423Q312 423 386 425T483 429L490 414L477 278L250 277L24 276L15 289ZM15 89L33 224L262 223Q312 223 386 225T483 229L490 214L477 78L250 77L24 76L15 89Z" />
<glyph unicode="&gt;" glyph-name="greater" horiz-adv-x="431" d="M59 53L25 158Q41 164 93 185T191 226L281 265V273L179 322Q126 346 87 363T34 386L25 407L81 499Q92 494 129 477T219 436L398 357L406 342V189L228 112Q180 91 135 70T77 42L59 53Z" />
<glyph unicode="?" glyph-name="question" horiz-adv-x="381" d="M93 240L69 373L72 388L169 435Q216 461 216 492Q216 526 174 546T53 571L39 589L80 707L97 716Q181 714 248 690T354 624T393 534Q393 498 380 472T332 416T230 341L227 335L235 266L226 252L108
232L93 240ZM115 -9T91 15T67 86Q67 134 94 162T169 190Q213 190 237 165T262 95Q262 47 235 19T161 -9Q115 -9 91 15Z" />
<glyph unicode="@" glyph-name="at" horiz-adv-x="897" d="M345 -240T237 -191T72 -50T14 169Q14 300 82 416T263 603T504 673Q621 673 706 634T837 522T883 350Q883 240 838 159T708 33T511 -12Q487 -12 472 3T457 42Q457 51 462 77T481 158H471Q430 87 400 48T338
-12Q267 -12 227 29T187 145Q187 222 225 298T322 423T441 472L513 452L518 472L537 484L671 472L679 449Q671 414 647 303T610 112L617 104Q662 104 698 130T755 204T776 310Q776 389 740 447T635 537T473 568Q374 568 294 520T169 389T123 203Q123 32 228 -58T531
-149L530 -176L493 -240Q345 -240 237 -191ZM395 143T414 172T452 248T485 341Q482 343 471 349T444 361T411 367Q402 367 393 343T377 281T370 207Q370 179 374 161T384 143Q395 143 414 172Z" />
<glyph unicode="A" glyph-name="A" horiz-adv-x="676" d="M333 3L339 87Q373 91 384 93T399 101T403 121L401 139L395 178L318 180Q303 180 238 175L228 131Q225 115 225 109Q225 96 230 93T256 89H282L290 79L282 -4Q267 -3 223 -2T128 -1L-5 -2L2 85Q38 94 53
140L212 642L475 658L490 646Q505 584 551 403T615 153Q624 119 637 104T674 86L681 76L673 -3Q659 -3 618 -2T532 -1Q473 -1 415 -3T341 -6L333 3ZM321 301Q337 301 373 303L339 478H317L270 301H321Z" />
<glyph unicode="B" glyph-name="B" horiz-adv-x="663" d="M154 0T93 -3T13 -7L22 83Q61 90 75 105T89 156L90 513Q90 559 63 559Q53 559 43 558T29 557L17 569L29 649L198 647Q242 648 303 650T390 654Q502 654 560 614T618 496Q618 445 592 409T521 343Q577 323
611 291T646 198Q646 -11 358 -11Q336 -8 275 -4T194 0Q154 0 93 -3ZM299 387T327 383T370 378Q370 376 381 387T402 417T412 460Q412 495 388 511T315 528Q305 528 302 525T297 514Q295 487 293 445T290 389Q299 387 327 383ZM283 160Q283 136 300 125T356 114Q393
114 412 132T431 187Q431 212 415 231T367 260H288L283 160Z" />
<glyph unicode="C" glyph-name="C" horiz-adv-x="603" d="M171 -11T93 74T15 311Q15 479 106 569T366 659Q404 659 451 653T532 641T576 633L584 613Q582 606 577 577T566 501T556 399L402 390Q402 395 403 410T404 447Q404 487 389 504T335 521Q299 521 280 505T252
452T243 347Q243 235 266 183T340 130Q378 130 396 156T419 246L572 256Q570 236 565 170T560 43L547 27Q538 24 506 15T420 -2T310 -11Q171 -11 93 74Z" />
<glyph unicode="D" glyph-name="D" horiz-adv-x="682" d="M303 -10T251 -5T160 0Q125 0 78 -3T17 -8L25 85Q63 91 76 108T90 168V503Q90 534 85 545T65 557Q54 557 45 556T33 555L23 569L32 650Q50 650 96 649T184 647Q213 647 272 649T350 653Q507 653 587 577T667
352Q667 241 625 159T504 33T319 -12Q303 -10 251 -5ZM303 526T299 520T293 499Q283 356 283 162Q283 133 290 123T319 113Q384 113 411 159T438 314Q438 397 427 442T389 507T314 526Q303 526 299 520Z" />
<glyph unicode="E" glyph-name="E" horiz-adv-x="603" d="M588 215Q571 127 560 9L545 -7Q377 0 224 0Q126 0 13 -10L22 82Q60 88 73 106T87 170L88 505Q88 538 83 548T61 559Q47 559 35 557L23 571L32 650Q52 650 63 649Q185 647 265 647Q359 647 445 650T574
659L587 643Q579 602 573 545T564 444L426 435L428 472Q428 495 421 506T393 522T330 527Q309 527 303 522T296 500L290 387L372 386Q412 386 482 392L494 378L480 263Q384 266 360 266Q339 266 285 260L284 175Q284 148 287 136T300 119T332 115Q377 115 399 123T431
152T448 221L576 230L588 215Z" />
<glyph unicode="F" glyph-name="F" horiz-adv-x="554" d="M22 82Q60 88 73 106T87 170L88 505Q88 537 83 548T61 559Q52 559 45 558T35 557L23 571L32 650Q56 649 123 648T265 647Q350 647 429 650T546 659L559 643Q557 625 551 564T541 444L403 436Q403 440 404
450T405 472Q405 504 390 515T330 527Q309 527 303 522T296 500L289 370L372 369Q390 369 427 371T477 375L489 361L475 246Q463 247 430 248T360 249Q336 249 285 243L284 175Q284 139 292 127T326 115Q345 115 362 118T384 123L400 105L387 -3Q368 -3 319 -2T224
0Q160 0 96 -4T13 -10L22 82Z" />
<glyph unicode="G" glyph-name="G" horiz-adv-x="639" d="M176 -11T96 74T15 311Q15 481 107 570T376 659Q418 659 463 653T539 641T579 633L590 613Q588 606 583 580T571 508T562 411L408 402Q408 406 409 420T410 457Q410 494 398 507T351 521Q309 521 286 505T253
452T243 347Q243 233 267 182T347 130Q363 130 374 132T392 138T399 142V205Q399 229 393 237T367 246L334 245L325 259L337 354H490Q528 354 563 355T609 359L619 301Q595 287 585 272T571 225T567 124Q567 67 574 38L562 22Q562 21 531 13T446 -3T320 -11Q176
-11 96 74Z" />
<glyph unicode="H" glyph-name="H" horiz-adv-x="739" d="M23 80Q63 88 75 104T88 162V508Q88 539 81 549T53 559L27 558L18 572L26 647H155Q194 647 354 652L347 562Q315 556 306 547T294 510L288 389L373 386Q423 386 457 389V508Q457 538 450 548T422 559L395
558L386 572L394 647H555Q547 647 703 651L731 652L724 564Q688 558 677 548T664 510Q660 454 657 359T654 172Q654 124 662 107T693 89Q703 89 721 92L729 81L720 -2Q634 0 549 0L383 -1L391 86Q427 87 442 104T457 162V264L398 265Q370 265 285 256V156Q285 114
291 101T317 87Q334 87 344 90L352 80L343 -4Q237 0 181 0Q132 0 15 -5L23 80Z" />
<glyph unicode="I" glyph-name="I" horiz-adv-x="370" d="M23 80Q63 89 75 105T88 162V508Q88 539 81 549T53 559L27 558L18 572L26 647H187Q211 647 359 652L352 562Q318 557 308 548T295 510Q285 337 285 156Q285 114 291 101T317 87Q336 87 349 90L357 80L348
-4Q238 0 181 0Q127 0 15 -5L23 80Z" />
<glyph unicode="J" glyph-name="J" horiz-adv-x="339" d="M-5 -116L-3 -101Q32 -69 49 -41T73 26T80 132V508Q80 539 74 549T48 559Q36 559 26 558T12 557L3 571L11 647L152 648Q213 649 269 651T342 655L334 562Q305 555 297 547T287 510Q282 439 279 312T275
85Q275 -11 218 -71T35 -164L-5 -116Z" />
<glyph unicode="K" glyph-name="K" horiz-adv-x="693" d="M88 539T81 549T53 559L27 558L18 572L27 648L187 647Q232 647 285 649T359 652L352 562Q315 553 304 543T292 506L285 156Q284 114 290 101T317 87Q330 87 338 88T349 90L357 80L348 -4Q328 -3 277 -2T181
0Q142 0 87 -2T15 -5L23 80Q63 88 75 104T88 162V508Q88 539 81 549ZM411 480Q421 490 426 502T432 526Q432 543 423 550T391 558L385 568L394 650Q410 650 452 649T537 647Q575 647 619 649T681 652L690 637L681 562Q644 541 609 506T534 415L492 356L586 174Q609
130 631 109T684 84L694 69L683 -5Q663 -7 605 -11T530 -16Q491 -16 467 1T420 65L294 317L299 347L411 480Z" />
<glyph unicode="L" glyph-name="L" horiz-adv-x="557" d="M22 82Q60 88 73 106T87 170V508Q87 539 80 549T52 559L26 558L17 572L25 647H186Q239 647 303 649T393 652L382 554Q330 549 313 539T294 502Q284 352 284 158Q284 135 292 125T321 115Q358 115 377 128T404
175T417 278L545 291L557 276Q554 254 547 175T533 9L518 -7Q492 -6 403 -3T224 0Q160 0 96 -4T13 -10L22 82Z" />
<glyph unicode="M" glyph-name="M" horiz-adv-x="834" d="M834 81L825 -3Q744 0 716 0Q683 0 609 -3T527 -8L539 81Q567 84 578 95T590 130Q590 182 585 369H572Q571 365 539 266T460 -2L339 -12Q289 171 259 268T228 369H215Q215 354 213 310L209 120Q209 86
242 86L268 88L277 80L265 -4Q173 0 124 0Q103 0 56 -3T8 -8L16 80Q42 83 53 96T73 147Q80 206 94 354T109 514Q109 534 106 541T91 552T46 560L38 568L48 652Q171 647 193 647Q254 647 344 651Q357 583 379 491T422 326H434Q487 504 522 647Q562 647 582 646L642
645Q663 645 703 647L797 653L804 649L796 563Q755 561 742 551T729 511Q729 467 736 357T751 175Q755 124 765 106T798 87Q813 87 827 89L834 81Z" />
<glyph unicode="N" glyph-name="N" horiz-adv-x="739" d="M405 104T346 197T270 315H255L258 137Q259 108 267 97T297 86Q307 86 317 87T331 90L340 81L329 -4Q311 -3 264 -2T175 0Q132 0 84 -3T21 -8L31 82Q60 86 73 100T88 145L100 494Q100 518 95 530T74 547T25
557L13 571L19 652Q32 651 76 649T167 647Q201 647 242 648T295 651Q351 550 419 441T487 333H502L498 516Q497 541 490 550T465 559H434L429 570L434 651Q452 650 501 649T600 647Q645 647 685 648T739 650L734 560Q702 556 690 542T676 497L663 0L475 -12Q405
104 346 197Z" />
<glyph unicode="O" glyph-name="O" horiz-adv-x="655" d="M168 -12T92 71T15 312Q15 480 99 569T342 659Q490 659 565 579T640 340Q640 171 555 80T313 -12Q168 -12 92 71ZM375 114T393 151T411 277Q411 369 403 422T375 498T321 522Q279 522 262 486T244 361Q244
269 252 216T280 138T332 114Q375 114 393 151Z" />
<glyph unicode="P" glyph-name="P" horiz-adv-x="606" d="M23 83Q60 89 74 107T88 168V505Q88 536 83 547T62 559Q50 559 40 558T27 557L17 569L27 647H170Q198 647 263 649T350 653Q508 653 564 590T621 445Q621 383 587 328T495 241T371 208H285V160Q285 118
295 103T335 88Q346 88 355 89T368 90L373 82L363 -4Q343 -3 293 -2T200 0Q171 0 104 -4T14 -9L23 83ZM386 332T400 359T415 435Q415 484 390 506T312 528Q302 528 299 524T295 506Q290 416 287 331L356 321Q386 332 400 359Z" />
<glyph unicode="Q" glyph-name="Q" horiz-adv-x="659" d="M610 -242T572 -225T477 -161T313 -12Q168 -12 92 71T15 312Q15 480 99 569T342 659Q490 659 565 579T640 340Q640 236 599 156T485 32V18Q539 -23 599 -47T709 -72Q737 -72 764 -68T800 -62L812 -73L829
-141Q819 -149 784 -173T709 -219T653 -242Q610 -242 572 -225ZM375 114T393 151T411 277Q411 369 403 422T375 498T321 522Q279 522 262 486T244 361Q244 269 252 216T280 138T332 114Q375 114 393 151Z" />
<glyph unicode="R" glyph-name="R" horiz-adv-x="678" d="M475 -16T449 5T403 75L341 228H285V160Q285 127 289 114T308 95T356 88L361 80L351 -4Q331 -3 281 -2T187 0Q141 0 86 -3T14 -9L23 83Q60 89 74 107T88 168V515Q88 540 83 549T62 559Q50 559 40 558T27
557L17 569L28 648L170 647Q200 647 266 649T355 653Q631 653 631 465Q631 347 511 276L573 172Q599 129 623 107T670 84L681 68L672 -5L517 -16Q475 -16 449 5ZM398 358T411 380T425 445Q425 488 398 508T312 528Q302 528 299 524T295 506Q290 438 288 354L364
344Q398 358 411 380Z" />
<glyph unicode="S" glyph-name="S" horiz-adv-x="551" d="M170 -12T126 -3T54 18T25 31L13 49Q16 65 24 119T34 214L160 223Q160 170 182 146T248 121Q279 121 296 132T314 162Q314 186 289 202T211 241L171 259Q101 290 60 332T18 445Q18 509 56 557T164 632T326
659Q375 659 417 653T485 640T517 631L529 609Q526 595 517 543T502 435L386 427L374 435V451Q374 521 301 521Q273 521 256 509T238 476Q238 451 262 436T343 396L364 387Q415 366 451 344T511 285T535 197Q535 132 497 85T389 13T222 -12Q170 -12 126 -3Z" />
<glyph unicode="T" glyph-name="T" horiz-adv-x="593" d="M98 83Q140 87 160 94T189 119T197 168V526Q169 526 156 516T136 478T124 390L0 382Q6 499 8 644L21 658L140 647H454L575 658L588 644Q590 475 593 390L469 382Q464 451 458 479T440 517T400 526Q395
344 395 160Q395 122 406 107T447 91Q465 91 498 94L503 88L494 -6Q362 0 291 0Q225 0 90 -9L98 83Z" />
<glyph unicode="U" glyph-name="U" horiz-adv-x="627" d="M177 -12T118 38T59 199V505Q59 538 54 548T31 559Q22 559 14 558T2 557L0 561L10 650Q27 649 76 648T187 647Q224 647 265 648T321 651L311 558Q285 556 275 545T263 509L257 220Q257 171 277 143T334
115Q372 115 389 136T406 203L405 505Q405 536 400 547T379 559Q371 559 365 558T356 557L353 561L364 650Q378 650 414 649T484 647Q532 647 573 648T628 650L620 560Q589 550 581 542T572 516V234Q572 112 505 50T305 -12Q177 -12 118 38Z" />
<glyph unicode="V" glyph-name="V" horiz-adv-x="641" d="M161 51T118 238T57 493Q48 527 36 542T2 560L-5 570L3 649Q17 649 56 648T140 647Q199 647 257 649T331 652L339 643L333 559Q299 555 287 552T272 544T269 525Q269 500 291 359T323 168H345Q358 221
392 368T427 537Q427 550 422 553T396 557H370L362 567L370 650Q385 649 429 648T524 647L647 648L640 561Q624 556 616 546T599 506L450 4L175 -13Q161 51 118 238Z" />
<glyph unicode="W" glyph-name="W" horiz-adv-x="998" d="M154 51T113 238T55 493Q46 527 34 542T2 560L-5 570L4 649Q17 649 55 648T135 647Q192 647 247 649T319 652L326 643L320 559Q287 555 276 552T261 544T258 525Q258 500 280 359T310 168H331Q341 208
369 327T407 502Q410 522 410 529Q410 548 400 554T354 560L347 570L356 649Q373 649 420 648T518 647Q575 647 630 649T701 652L709 643L702 559Q668 555 658 552T644 544T641 525Q641 500 662 359T692 168H713Q726 221 759 368T792 537Q792 550 787 553T762 557H737L730
567L738 650Q753 649 795 648T886 647L1004 648L997 561Q981 556 974 546T957 506L819 4L554 -13L510 272H496L433 4L168 -13Q154 51 113 238Z" />
<glyph unicode="X" glyph-name="X" horiz-adv-x="711" d="M342 2L349 86Q378 88 378 106Q378 118 367 133L306 221L268 158Q251 131 251 118Q251 102 260 95T290 88L296 77L291 -4Q272 -3 225 -1T140 2Q115 2 68 0T6 -4L1 10L7 90Q29 100 67 139T133 219L221 346L139
467Q109 511 86 526T20 551L15 557L24 648Q37 648 82 648T200 647Q228 647 290 649T373 653L379 642L372 560Q333 560 333 536Q333 520 345 500T374 456T396 424L415 456Q431 482 444 507T457 541Q457 552 449 556T419 561L417 567L423 647H578Q623 647 659 648T707
650L711 642L706 555Q658 532 631 509T578 446L484 301L571 179Q603 134 632 114T696 93L700 89L691 -1Q675 -1 634 0T556 2Q527 2 451 -1T349 -5L342 2Z" />
<glyph unicode="Y" glyph-name="Y" horiz-adv-x="663" d="M135 83Q179 86 200 93T230 116T238 162V178Q238 200 232 219T210 268L103 467Q73 522 4 551L0 557L10 648L160 646Q189 646 253 649T340 653L347 642L338 560Q297 560 297 535Q297 525 314 483T336 427L353
387H367L408 501Q421 530 421 545Q421 554 413 557T383 561L380 567L388 646H546Q578 646 613 647T659 650L663 642L655 555Q623 537 594 504T544 429L453 247Q443 223 441 205T438 154Q438 119 449 105T488 91Q507 91 521 92T539 94L544 88L535 -6Q511 -5 438
-3T328 0Q288 0 219 -4T127 -9L135 83Z" />
<glyph unicode="Z" glyph-name="Z" horiz-adv-x="594" d="M3 51L329 542L252 532Q211 524 193 514T169 483T160 418L34 409Q36 433 41 512T49 649L60 660L241 649H572L597 595Q444 391 276 127L264 109L369 124Q417 133 439 164T468 266L594 275Q592 263 588 224T578
124T571 19L550 -3L121 3L39 -7L3 51Z" />
<glyph unicode="[" glyph-name="bracketleft" horiz-adv-x="326" d="M65 -116Q67 -71 71 63T76 260Q76 323 72 458T65 639L319 650L323 640L315 556L223 539V-16L319 -33L323 -44L315 -127L65 -116Z" />
<glyph unicode="\" glyph-name="backslash" horiz-adv-x="329" d="M105 215Q68 352 33 480T-15 655L2 675H121L236 226Q260 131 288 33T325 -95L314 -110H188L105 215Z" />
<glyph unicode="]" glyph-name="bracketright" horiz-adv-x="326" d="M3 -117L11 -33L103 -16V539L7 556L3 567L11 650L261 639Q259 594 255 460T250 263Q250 201 254 65T261 -116L7 -127L3 -117Z" />
<glyph unicode="^" glyph-name="asciicircum" horiz-adv-x="470" d="M399 290L465 152L373 96L352 105Q346 118 328 157T285 250L236 352H228L189 262Q169 216 148 164T121 96L16 130L5 148Q11 161 32 206T75 299L152 477L303 484L318 476L399 290Z" />
<glyph unicode="_" glyph-name="underscore" horiz-adv-x="448" d="M-12 -200L-1 -95H242H364Q405 -95 425 -94T451 -93L461 -112L447 -218L-1 -219L-12 -200Z" />
<glyph unicode="`" glyph-name="grave" horiz-adv-x="398" d="M207 563T143 597T60 642L58 659L130 760H147Q163 745 219 695T334 593L293 532L271 525Q207 563 143 597Z" />
<glyph unicode="a" glyph-name="a" horiz-adv-x="503" d="M344 -12T315 7T281 61L269 66Q240 37 210 15T158 -8Q118 -8 84 14T31 76T11 162Q11 195 28 219T75 249L271 285V286Q271 320 249 339T189 358Q163 358 131 345T74 315L62 321L37 401Q96 432 157 458T245
484Q350 484 397 443T444 339Q444 321 432 245Q422 175 422 162Q422 147 430 138T451 128Q464 128 485 136L502 109Q479 67 448 30T394 -12Q344 -12 315 7ZM240 120T268 126L269 212L197 196Q187 194 183 190T179 174Q179 150 190 135T219 120Q240 120 268 126Z"
/>
<glyph unicode="b" glyph-name="b" horiz-adv-x="520" d="M208 -7T166 -3T95 5T58 12L48 25V565Q48 601 39 612T0 624H-25L-30 631L-22 706Q70 718 145 728T246 742L255 716Q232 694 224 420Q307 479 319 479Q408 479 457 420T506 251Q506 132 437 63T250 -7Q208
-7 166 -3ZM292 106T305 131T318 210Q318 283 304 318T258 353Q234 353 222 344L220 115Q224 113 237 110T266 106Q292 106 305 131Z" />
<glyph unicode="c" glyph-name="c" horiz-adv-x="440" d="M137 -12T76 52T14 230Q14 306 45 363T135 452T272 484Q311 484 341 479T389 469T410 462L415 451Q412 436 404 385T392 277L300 272V308Q300 340 291 353T260 366Q203 366 203 273Q203 196 222 161T284
125Q308 125 330 131T365 143T382 151L392 146L414 71Q414 70 384 48T317 7T247 -12Q137 -12 76 52Z" />
<glyph unicode="d" glyph-name="d" horiz-adv-x="536" d="M376 -12T347 6T313 61L307 63Q217 -7 201 -7Q112 -7 63 52T14 221Q14 340 83 409T270 479Q293 479 300 478V561Q300 597 291 608T252 620Q245 620 239 619T229 618L238 705Q316 714 394 726T495 742L507
720Q491 698 482 544T472 163Q472 147 478 138T494 128Q503 128 512 131T524 136L541 109Q541 107 524 80T481 26T426 -12Q376 -12 347 6ZM278 119T289 123T300 129V356Q296 358 283 362T254 366Q202 366 202 262Q202 189 216 154T262 119Q278 119 289 123Z" />
<glyph unicode="e" glyph-name="e" horiz-adv-x="479" d="M141 -12T78 51T14 230Q14 306 45 363T134 452T269 484Q459 484 459 284Q459 255 451 218L440 208H203Q207 164 232 141T301 118Q351 118 420 148L429 143L451 69Q411 38 357 13T259 -12Q141 -12 78 51ZM281
290Q289 291 291 294T293 308Q293 373 253 373Q223 373 211 353T198 284L281 290Z" />
<glyph unicode="f" glyph-name="f" horiz-adv-x="355" d="M23 79Q53 82 65 94T77 134V326Q76 349 63 356T10 366L6 372L14 442L77 451V465Q77 549 111 611T207 708T352 742Q383 742 409 737T450 727T469 719L476 696Q473 687 462 656T437 581L423 577Q420 580
408 589T374 607T329 616Q297 616 281 606T259 570T252 493V451Q297 451 329 452T369 454L374 447L363 362Q355 362 327 363T251 365L250 129Q250 92 281 92Q301 92 319 93T343 94L348 89L336 -5Q317 -4 266 -2T169 0Q133 0 82 -3T14 -8L23 79Z" />
<glyph unicode="g" glyph-name="g" horiz-adv-x="522" d="M174 97T201 91T286 79Q356 73 403 64T484 29T518 -45Q518 -96 478 -141T371 -214T231 -242Q172 -242 125 -223T52 -170T25 -92Q50 -73 126 -38V-31Q84 -23 60 5T30 76Q65 116 110 147V157Q73 179 53 215T33
298Q33 384 96 435T264 486Q285 486 327 481Q357 477 373 477Q397 478 438 490T517 515L525 509L511 408Q475 405 451 405L447 399Q486 359 486 303Q486 250 457 210T374 147T250 124Q212 124 182 130Q174 121 174 113Q174 97 201 91ZM235 384T224 367T213 301Q213
260 223 239T261 217Q286 217 297 236T308 299Q308 341 297 362T257 384Q235 384 224 367ZM349 -138T349 -93Q349 -82 341 -77T306 -66T212 -50Q202 -73 202 -91Q202 -115 219 -126T274 -138Q349 -138 349 -93Z" />
<glyph unicode="h" glyph-name="h" horiz-adv-x="554" d="M39 84T47 95T56 133V565Q56 601 47 612T8 624H-17L-22 631L-14 706L74 718L254 742L263 716Q237 692 230 389Q321 484 344 484Q425 484 467 451T510 354Q510 336 506 292T499 232Q488 146 488 120Q488
99 494 91T515 83L540 84L542 80L531 -4Q449 0 401 0L311 -2L279 -3L287 84Q305 86 313 97T322 130L324 271Q325 309 316 324T281 339Q263 339 229 313Q228 274 228 116Q228 98 233 91T251 84L265 85L268 78L257 -4Q179 0 129 0Q75 0 3 -5L14 81Q39 84 47 95Z"
/>
<glyph unicode="i" glyph-name="i" horiz-adv-x="305" d="M19 79Q48 81 62 95T76 138V309Q76 344 67 355T28 367Q22 367 16 366T6 364L14 447Q89 456 163 468T259 484L272 462Q248 417 248 114Q248 97 253 91T273 84Q280 84 287 85T296 86L299 81L287 -4Q272 -3
233 -2T152 0Q115 0 68 -4T7 -10L19 79ZM105 530T81 554T57 625Q57 673 84 701T159 729Q203 729 227 704T252 634Q252 586 225 558T151 530Q105 530 81 554Z" />
<glyph unicode="j" glyph-name="j" horiz-adv-x="301" d="M116 543T92 567T68 638Q68 686 95 714T170 742Q214 742 238 717T263 647Q263 599 236 571T162 543Q116 543 92 567ZM-2 -205L0 -190Q43 -148 58 -102T73 33V309Q73 342 66 354T40 367Q28 367 20 366T8
364L16 445Q97 457 166 468T258 484L271 462Q244 401 244 -14Q244 -83 190 -146T45 -248L-2 -205Z" />
<glyph unicode="k" glyph-name="k" horiz-adv-x="542" d="M39 84T47 95T56 133V565Q56 590 52 602T38 619Q26 624 -17 624L-22 631L-14 706Q78 718 153 728T254 742L263 716Q228 683 228 114Q228 96 233 89T251 82L267 83L270 76L257 -6Q243 -5 199 -3T129 0Q93
0 54 -2T3 -5L14 81Q39 84 47 95ZM236 265L305 344Q315 354 318 361T322 376Q322 387 311 391T273 396L270 401L279 474Q292 474 332 473T423 472Q465 472 499 473T544 475L547 470L537 385Q506 369 479 346T414 285L400 270L462 146Q488 90 542 80L548 69L539
-5L467 -12Q421 -16 413 -16Q376 -13 355 4T313 65L233 233L236 265Z" />
<glyph unicode="l" glyph-name="l" horiz-adv-x="287" d="M14 81Q39 84 47 95T56 133V565Q56 593 52 604T33 620T-17 624L-22 631L-14 706Q126 723 254 742L263 716Q244 661 236 521T228 114Q228 96 233 89T251 82L283 83L286 76L273 -4Q169 0 129 0Q75 0 3 -5L14 81Z" />
<glyph unicode="m" glyph-name="m" horiz-adv-x="846" d="M328 86T336 96T345 130L347 271Q348 309 339 324T304 339Q294 339 284 333T258 317Q247 150 247 118Q247 99 252 93T271 86L287 87L290 82L278 -4Q265 -3 229 -2T156 0Q117 0 72 -2T14 -5L26 82Q55 84
66 95T77 134V307Q77 342 68 353T29 365H13L8 372L16 447Q88 457 159 468T252 484L264 472Q262 465 258 443T252 399L256 396Q292 430 325 457T368 484Q500 484 525 396Q559 429 593 456T637 484Q718 484 760 451T803 354Q803 330 791 232Q780 146 780 120Q780
99 786 91T807 83L832 84L834 80L823 -4Q808 -3 769 -2T693 0Q659 0 624 -1T574 -3L582 84Q599 86 606 95T614 130L616 271Q617 309 608 324T573 339Q555 339 528 318L514 120Q514 99 519 91T539 83L559 84L561 80L548 -4Q534 -3 497 -2T424 0Q390 0 353 -1T302
-3L311 84Q328 86 336 96Z" />
<glyph unicode="n" glyph-name="n" horiz-adv-x="579" d="M328 86T336 96T345 130L347 271Q348 309 339 324T304 339Q286 339 259 318Q247 136 247 118Q247 99 252 93T271 86L287 87L290 82L278 -4Q265 -3 229 -2T156 0Q117 0 72 -2T14 -5L26 82Q55 84 66 95T77
134V307Q77 342 68 353T29 365H13L8 372L16 447Q88 457 159 468T252 484L264 472Q262 465 258 443T252 399L259 395Q344 484 367 484Q448 484 490 451T533 354Q533 336 529 292T522 232Q511 146 511 120Q511 99 517 91T538 83L563 84L565 80L554 -4Q539 -3 500
-2T424 0Q390 0 353 -1T302 -3L310 84Q328 86 336 96Z" />
<glyph unicode="o" glyph-name="o" horiz-adv-x="538" d="M151 -12T90 51T28 225Q28 347 94 415T280 484Q391 484 450 423T509 248Q509 126 443 57T258 -12Q151 -12 90 51ZM296 95T306 115T316 191Q316 259 312 296T296 348T264 364Q238 364 228 344T218 271Q218
202 222 165T238 111T270 95Q296 95 306 115Z" />
<glyph unicode="p" glyph-name="p" horiz-adv-x="548" d="M23 -148Q46 -147 54 -137T64 -96L66 -69Q67 -56 69 -21T71 43V307Q71 342 62 353T23 365H7L2 372L10 447Q83 457 153 468T243 484L255 472Q254 465 250 445T243 399L247 397Q315 479 329 479Q390 479
436 451T508 371T534 251Q534 124 460 59T250 -7Q247 -7 245 -7T242 -6L241 -95Q241 -124 245 -134T265 -144Q281 -144 294 -143T313 -141L316 -146L302 -234Q285 -233 239 -232T150 -230Q116 -230 71 -232T11 -235L23 -148ZM320 106T333 131T346 210Q346 282 332
314T286 346Q270 346 252 338Q248 190 248 115Q252 113 265 110T294 106Q320 106 333 131Z" />
<glyph unicode="q" glyph-name="q" horiz-adv-x="518" d="M218 -147Q251 -145 267 -140T289 -123T296 -84L300 58Q216 -7 201 -7Q112 -7 63 52T14 221Q14 340 83 409T270 479Q316 479 401 468Q432 480 453 488T480 499L495 484Q485 465 478 301T471 -96Q471 -123
476 -132T497 -141Q507 -141 514 -141T523 -140L526 -144L519 -230H352Q308 -230 267 -231T210 -234L218 -147ZM278 119T289 123T300 129V356Q296 358 283 362T254 366Q202 366 202 262Q202 189 216 154T262 119Q278 119 289 123Z" />
<glyph unicode="r" glyph-name="r" horiz-adv-x="445" d="M55 84T66 95T77 134V307Q77 343 68 354T29 365H13L8 372L16 447Q88 457 159 468T252 484L264 472Q262 465 258 439T252 389L260 385Q293 431 327 452T400 474Q413 474 424 473T439 471L444 459Q441 438
432 368T419 231L325 226Q325 281 319 299T295 318Q277 318 258 302Q256 276 252 216T247 122Q247 90 276 90Q290 90 308 92T333 95L339 87L325 -6Q308 -5 254 -3T163 0Q124 0 76 -2T14 -5L26 82Q55 84 66 95Z" />
<glyph unicode="s" glyph-name="s" horiz-adv-x="416" d="M128 -12T95 -5T43 11T18 22L8 36Q17 99 23 165L103 171Q104 138 126 115T181 92Q199 92 210 99T221 118Q221 133 206 144T140 175Q77 200 49 234T20 318Q20 394 83 439T254 484Q288 484 316 480T359 471T379
464L388 447Q386 435 380 394T370 309L290 305V309Q289 343 276 359T235 376Q217 376 207 368T196 346Q196 333 207 323T243 302Q306 276 339 254T386 207T399 145Q399 100 370 64T288 8T168 -12Q128 -12 95 -5Z" />
<glyph unicode="t" glyph-name="t" horiz-adv-x="334" d="M131 -12T92 20T53 114V309Q53 345 44 356T2 367L-14 376L-6 447Q44 470 93 498T174 546T214 573L252 551Q251 544 246 517T237 451L321 454L326 447L315 362L229 365Q224 280 224 187Q224 121 272 121Q286
121 301 124T321 130L337 90Q330 82 306 58T252 11T205 -12Q131 -12 92 20Z" />
<glyph unicode="u" glyph-name="u" horiz-adv-x="553" d="M56 349T50 358T27 367L1 366L9 449Q77 457 146 468T236 484L249 462Q237 439 229 363T221 196Q221 134 264 134Q281 134 310 150V323Q310 351 304 357T274 366H265L278 448Q342 456 411 466T501 480L515
458Q501 435 492 351T482 163Q482 147 490 138T511 128Q521 128 531 131T544 136L561 110Q561 108 541 81T494 26T438 -12Q334 -12 321 61L310 67Q282 31 261 11T229 -10Q140 -10 94 24T47 126L56 325Q56 349 50 358Z" />
<glyph unicode="v" glyph-name="v" horiz-adv-x="492" d="M118 32T87 163T45 334Q37 360 24 372T-11 385L-13 390L-5 474Q6 474 37 473T103 472Q148 472 196 475T258 479L260 474L249 386Q234 383 225 381T214 374T212 360Q212 344 226 260T247 145H264Q286 221
302 288T318 368Q318 378 315 380T297 383H281L277 390L288 474Q300 474 333 473T402 472L503 473L494 385Q470 381 463 375T449 345L345 0L129 -13Q118 32 87 163Z" />
<glyph unicode="w" glyph-name="w" horiz-adv-x="777" d="M118 32T87 163T45 334Q37 360 24 372T-11 385L-13 390L-5 474Q6 474 37 473T103 472Q148 472 196 475T258 479L260 474L249 386Q234 383 225 381T214 374T212 360Q212 344 226 260T247 145H264Q273 178
295 269T318 368Q318 379 313 381T281 383L277 390L288 474Q299 474 329 473T394 472Q439 472 484 475T543 479L545 474L534 386Q519 383 510 381T499 374T497 360Q497 344 511 260T532 145H549Q571 221 587 288T603 368Q603 378 600 380T582 383H566L562 390L573
474Q585 474 618 473T687 472L788 473L779 385Q755 381 748 375T734 345L630 0L424 -13L393 184H376L340 0L129 -13Q118 32 87 163Z" />
<glyph unicode="x" glyph-name="x" horiz-adv-x="521" d="M237 0L246 70Q263 71 270 74T277 85Q277 93 269 104L225 162Q221 157 209 141T190 113T183 93Q183 71 212 71L216 63L208 -4Q193 -3 157 -2T93 0Q69 0 38 -1T-4 -4L-8 6L1 73Q13 78 30 96T85 160L159
250L101 327Q79 356 58 368T4 388L1 393L8 473Q17 473 50 473T142 472Q184 472 229 474T289 477L294 469L287 395Q257 395 257 376Q257 364 261 356T277 333L303 300L334 345Q337 349 344 360T351 381Q351 389 345 392T323 396L321 400L327 472H435Q469 472 497
473T534 475L537 469L532 391Q500 371 479 354T444 317L372 213L432 138Q458 106 478 92T526 75L529 72L518 -2Q506 -2 475 -1T415 0Q373 -1 319 -2T242 -5L237 0Z" />
<glyph unicode="y" glyph-name="y" horiz-adv-x="486" d="M58 -242T31 -222T-17 -175T-39 -134L-29 -115Q116 -92 180 -18L151 58Q119 142 84 230T34 345Q23 365 12 373T-17 383L-19 388L-11 472H61Q115 472 182 474T249 479L251 474L240 386Q218 384 211 379T203
363Q203 345 222 273T249 176H267Q329 346 329 368Q329 378 326 380T308 383H292L288 390L299 474Q310 474 342 473T410 472H511L502 384Q481 378 473 371T457 345L330 31Q279 -95 210 -168T72 -242Q58 -242 31 -222Z" />
<glyph unicode="z" glyph-name="z" horiz-adv-x="456" d="M232 379L180 372Q141 368 122 360T96 336T86 287L21 282Q22 302 26 366T32 472L40 480L172 472H429L447 432Q322 258 216 94L275 103Q321 110 343 135T373 216L439 221Q436 199 429 130T422 12L407 -4L88
0L28 -7L2 35L232 379Z" />
<glyph unicode="{" glyph-name="braceleft" horiz-adv-x="335" d="M168 -123T134 -108T80 -66T60 -7Q60 13 67 35T90 93Q102 120 107 135T113 162Q113 215 41 235L45 311Q77 321 95 338T113 376Q113 389 108 405T89 449Q74 483 67 503T60 543Q60 595 108 627T235
659Q261 659 289 654T325 647L335 631L317 548Q314 549 303 551T282 553Q258 553 245 540T232 503Q232 484 245 443Q250 425 254 407T259 375Q259 344 240 322T186 290V285Q259 261 259 195Q259 171 245 117Q232 69 232 49Q232 22 246 7T287 -9Q297 -9 306 -7T318
-4L331 -17L317 -100Q314 -102 302 -107T265 -118T209 -123Q168 -123 134 -108Z" />
<glyph unicode="|" glyph-name="bar" horiz-adv-x="293" d="M78 -253Q78 -196 78 -39T79 276L80 796L194 807L215 791Q214 736 212 566T209 291L210 -258L93 -269L78 -253Z" />
<glyph unicode="}" glyph-name="braceright" horiz-adv-x="335" d="M74 -123T46 -118T10 -111L0 -95L18 -12Q21 -13 32 -15T53 -17Q77 -17 90 -4T103 33Q103 52 90 98Q76 150 76 171Q76 202 95 224T149 256V261Q76 285 76 351Q76 373 90 423Q103 468 103 487Q103
514 89 529T48 545Q38 545 29 543T17 540L4 553L18 636Q21 638 33 643T70 654T126 659Q167 659 201 644T255 602T275 543Q275 523 268 504T245 449Q233 425 228 410T222 384Q222 356 241 337T294 311L290 235Q259 228 241 210T222 170Q222 157 228 141T246 97Q261
63 268 43T275 3Q275 -53 227 -88T100 -123Q74 -123 46 -118Z" />
<glyph unicode="~" glyph-name="asciitilde" horiz-adv-x="505" d="M10 207V223L117 338L139 342Q165 342 247 324Q323 308 342 308Q356 308 375 321T410 348T430 366H446L495 310V294L388 179L366 175Q340 175 258 193Q182 209 163 209Q149 209 130 196T95 169T75
151H59L10 207Z" />
<glyph unicode="&#xa0;" glyph-name="uni00A0" horiz-adv-x="144" />
<glyph unicode="&#xa1;" glyph-name="exclamdown" horiz-adv-x="284" d="M100 285T76 310T51 380Q51 428 78 456T152 484Q198 484 222 460T246 389Q246 341 219 313T144 285Q100 285 76 310ZM9 -216L82 214L185 230L206 210L240 -192L222 -216L34 -242L9 -216Z" />
<glyph unicode="&#xa2;" glyph-name="cent" horiz-adv-x="440" d="M414 71Q409 66 390 52T341 20T283 -6L265 -151L151 -164L143 -158L163 0Q92 21 53 80T14 230Q14 333 70 400T224 481L244 644L360 658L366 649L345 479Q371 475 388 470T410 462L415 451Q412
436 404 385T392 277L300 272V308Q300 340 291 353T260 366Q203 366 203 273Q203 196 222 161T284 125Q308 125 330 131T365 143T382 151L392 146L414 71Z" />
<glyph unicode="&#xa3;" glyph-name="sterling" horiz-adv-x="511" d="M369 -12T348 -6T291 15Q259 28 237 35T192 42Q159 42 126 32T55 -1L40 5L15 96Q95 137 95 201V235Q94 258 81 265T28 275L24 281L32 351L95 360V387Q95 437 134 486T234 567T359 598Q394
598 428 594T482 583L487 572L444 441L425 438Q384 462 359 471T311 481Q284 481 274 467T263 417L261 360Q316 360 352 361T400 363L405 356L394 271Q384 272 346 273T258 274L257 236Q257 210 249 183T228 144L287 158Q298 158 334 150Q381 141 393 141Q417 141
432 161T447 216H478Q491 200 500 167T509 105Q509 54 475 21T389 -12Q369 -12 348 -6Z" />
<glyph unicode="&#xa4;" glyph-name="currency" horiz-adv-x="495" d="M88 109L11 214L88 280Q77 310 77 342Q77 377 89 407Q60 433 38 453T9 479L13 502L118 579L184 502Q217 515 249 515Q282 515 314 502L383 581L406 577L483 472L409 408Q422 374 422 342Q422
307 408 274Q437 250 457 232T485 207L481 184L376 107L311 181Q281 170 249 170Q214 170 181 184Q156 155 137 134T111 105L88 109ZM280 268T302 289T324 342Q324 373 302 395T249 417Q218 417 197 395T175 342Q175 311 196 290T249 268Q280 268 302 289Z" />
<glyph unicode="&#xa5;" glyph-name="yen" horiz-adv-x="626" d="M136 71Q182 74 199 82T220 115L57 114L47 122L59 207H206L195 227L180 254L60 253L50 261L62 346H123Q117 354 86 376Q68 389 51 403T29 427Q31 453 33 466Q34 479 38 505Q50 505 82 504T148 503Q151
503 232 505T320 509L326 499L318 429Q301 429 295 426T288 415Q288 406 309 359L329 312H341L376 410L378 420Q378 428 373 428Q371 428 367 427T359 425Q351 425 346 435L349 468L353 502L489 503Q523 503 549 504T585 506L589 500L582 425Q551 408 536 394T507
357L502 348L576 350L584 340L578 254H448L431 223L422 208Q478 209 519 210T573 211L581 201L575 115H399Q399 108 403 98Q409 83 424 79Q434 77 443 77Q458 77 469 78T485 80L490 75L483 -5Q462 -4 408 -2T306 0Q272 0 211 -3T129 -7L136 71Z" />
<glyph unicode="&#xa6;" glyph-name="brokenbar" horiz-adv-x="293" d="M79 369L80 796L194 807L215 791Q214 750 212 632T209 374L92 358L79 369ZM78 -253Q78 -216 78 -104T79 150L191 167L209 150L210 -258L93 -269L78 -253Z" />
<glyph unicode="&#xa7;" glyph-name="section" horiz-adv-x="486" d="M469 218T369 160Q418 121 418 67Q418 22 389 -15T310 -73T198 -95Q159 -95 123 -84T65 -55T42 -18Q42 53 82 107L109 105Q114 71 141 47T201 23Q216 23 224 29T233 47Q233 66 215 79T156 113Q114
133 87 150T41 195T21 262Q21 346 128 401Q75 444 75 501Q75 546 101 582T175 638T280 659Q338 659 382 644T427 608Q427 579 413 535T385 479H360Q351 504 333 520T295 536Q282 536 273 529T264 510Q264 495 281 482T335 447Q397 412 433 378T469 291Q469 218
369 160ZM177 290T192 272T229 241T292 206Q307 224 307 245Q307 270 292 289T256 322T196 357Q177 336 177 314Q177 290 192 272Z" />
<glyph unicode="&#xa8;" glyph-name="dieresis" horiz-adv-x="398" d="M61 559T41 579T20 639Q20 679 43 702T106 726Q144 726 164 705T185 646Q185 606 162 583T99 559Q61 559 41 579ZM253 559T233 579T212 639Q212 679 235 702T298 726Q336 726 356 705T377
646Q377 606 354 583T292 559Q253 559 233 579Z" />
<glyph unicode="&#xa9;" glyph-name="copyright" horiz-adv-x="699" d="M266 -12T197 29T86 140T45 293Q45 376 86 446T196 557T349 598Q432 598 502 557T613 446T654 293Q654 210 613 140T502 29T349 -12Q266 -12 197 29ZM415 47T471 80T561 169T594 293Q594
360 561 416T472 506T349 539Q283 539 227 506T138 417T105 293Q105 226 138 170T227 80T349 47Q415 47 471 80ZM259 127T218 170T177 291Q177 377 224 421T366 465Q395 465 433 460T482 452L487 441Q486 437 483 423T476 383T471 328L381 324Q381 326 381 333T382
352Q382 373 375 381T349 389Q325 389 317 373T309 309Q309 254 319 230T352 206Q370 206 378 218T388 261L477 268Q476 257 474 222T473 155L465 145Q460 144 442 140T395 131T335 127Q259 127 218 170Z" />
<glyph unicode="&#xaa;" glyph-name="ordfeminine" horiz-adv-x="363" d="M360 404Q357 398 345 379T315 341T284 319Q249 319 228 331T204 367L195 371Q176 352 155 337T118 322Q75 322 45 356T15 440Q15 462 27 478T60 499L196 521Q194 541 180 552T140 563Q124
563 107 557T77 544T61 535L52 539L34 596Q42 600 70 614T132 640T181 653Q257 653 290 625T323 554Q323 541 315 491Q308 453 308 441Q308 431 313 425T327 419Q333 419 339 420T348 423L360 404ZM195 469L150 461Q143 459 141 457T139 448Q139 433 145 423T164
413H194L195 469Z" />
<glyph unicode="&#xab;" glyph-name="guillemotleft" horiz-adv-x="476" d="M338 94T289 148T225 219V246Q240 262 289 316T381 422L443 387L450 364Q433 335 414 298T390 251Q384 237 381 232Q423 148 450 101L443 78L381 42Q338 94 289 148ZM132 94T83 148T19
219V246Q34 262 83 316T175 422L237 387L244 364Q227 335 208 298T184 251Q178 237 175 232Q217 148 244 101L237 78L175 42Q132 94 83 148Z" />
<glyph unicode="&#xac;" glyph-name="logicalnot" horiz-adv-x="506" d="M300 20L301 207H250L24 206L15 219L33 354L262 353Q304 353 368 355T453 359L460 344Q459 338 457 315T451 251T447 164Q447 113 447 77T448 29L313 11L300 20Z" />
<glyph unicode="&#xad;" glyph-name="uni00AD" horiz-adv-x="324" d="M33 194L43 300L196 317Q236 321 255 324T279 328L291 310L278 202L46 176L33 194Z" />
<glyph unicode="&#xae;" glyph-name="registered" horiz-adv-x="468" d="M178 303T132 330T58 404T30 507Q30 563 57 609T131 683T234 711Q290 711 336 684T410 610T438 507Q438 451 411 405T337 331T234 303Q178 303 132 330ZM278 345T315 367T374 426T396 507Q396
551 374 588T315 647T234 669Q190 669 153 647T94 588T72 507Q72 463 94 426T153 367T234 345Q278 345 315 367ZM277 412T269 416T253 439L234 486H217V465Q217 450 220 447T240 443L241 441L238 415Q232 415 218 416T191 417H179L134 414L137 441Q148 443 152
449T157 468V571Q157 581 156 585T149 589Q145 589 142 589T138 588L135 590L138 615H181H192Q213 615 233 617Q279 617 301 604T324 560Q324 523 287 501L307 469Q312 459 321 451T337 441L339 438Q339 433 339 426T332 416T299 412Q277 412 269 416ZM252 526T256
533T260 553Q260 579 226 579Q223 579 222 577T221 571Q220 562 219 550T218 524L242 523Q252 526 256 533Z" />
<glyph unicode="&#xaf;" glyph-name="overscore" horiz-adv-x="398" d="M50 579L69 688L223 687Q254 687 294 689T347 693L358 675L340 566L200 565L66 564L50 579Z" />
<glyph unicode="&#xb0;" glyph-name="degree" horiz-adv-x="302" d="M114 389T83 407T34 456T16 524Q16 561 34 592T83 641T151 659Q188 659 219 641T268 592T286 524Q286 487 268 456T219 407T151 389Q114 389 83 407ZM177 464T194 480T211 524Q211 550 194 567T151
584Q124 584 108 567T91 524Q91 497 107 481T151 464Q177 464 194 480Z" />
<glyph unicode="&#xb1;" glyph-name="plusminus" horiz-adv-x="506" d="M179 49L180 199L24 198L15 211L33 346Q46 346 86 346T180 345L181 502L312 515L327 508Q326 493 325 448T321 345Q378 347 423 348T483 351L490 336L477 200L321 199Q321 147 321 109T322
58L192 40L179 49ZM31 -105L42 0H265H377Q418 0 438 1T464 2L474 -17L460 -123L42 -124L31 -105Z" />
<glyph unicode="&#xb2;" glyph-name="uni00B2" horiz-adv-x="377" d="M113 493Q146 528 158 547T170 583Q170 610 138 610Q99 610 58 566H45L27 652Q57 687 98 707T179 728Q239 728 276 700T314 626Q314 580 287 536T191 425L194 419H225Q251 419 262 432T276
480L363 486Q360 471 354 421T345 332L332 319Q305 320 223 323T95 327L26 323L19 396L113 493Z" />
<glyph unicode="&#xb3;" glyph-name="uni00B3" horiz-adv-x="329" d="M49 319T34 340T13 414L30 431Q59 418 94 418Q124 418 141 427T159 453Q159 467 142 474T86 481L77 492L69 558L114 566Q151 580 151 612Q151 622 144 628T124 634Q95 634 53 607H42L18 681Q50
703 91 715T165 728Q219 728 252 706T285 646Q285 615 264 592T208 558V550Q260 532 283 508T307 449Q307 416 276 386T194 338T85 319Q49 319 34 340Z" />
<glyph unicode="&#xb4;" glyph-name="acute" horiz-adv-x="398" d="M143 527L99 586Q165 650 213 698T277 762L294 763L371 666L370 649Q352 639 290 601T165 521L143 527Z" />
<glyph unicode="&#xb5;" glyph-name="uni00B5" horiz-adv-x="541" d="M548 150Q533 56 462 -6Q410 -6 388 20T361 115L360 128L346 132Q320 77 290 37T245 -4Q197 13 162 53L148 45Q165 -81 219 -220Q136 -240 52 -237L35 -226L65 191Q38 284 38 357Q38 409 50
470L72 483H86L214 457L171 202Q186 190 200 190Q226 190 253 222T316 324Q314 388 314 410Q314 441 315 455L334 477Q419 469 491 446Q447 308 410 218Q410 180 419 165T453 149Q477 149 533 166L548 150Z" />
<glyph unicode="&#xb6;" glyph-name="paragraph" horiz-adv-x="574" d="M186 -94T153 -80T99 -44T78 5Q78 33 91 71T124 135H142Q149 78 175 45T241 12Q283 12 301 33T319 106V545Q319 554 314 557T291 560Q263 560 248 524T232 420Q232 361 245 319T292 232V197Q206
197 141 225T41 304T5 422Q5 488 36 540T123 622T249 652Q291 652 334 649Q388 647 410 647Q449 647 501 648T574 650L568 566L566 562Q538 555 531 547T521 516Q517 484 513 372T509 190Q509 118 469 52T363 -54T224 -94Q186 -94 153 -80Z" />
<glyph unicode="&#xb7;" glyph-name="middot" horiz-adv-x="238" d="M69 154T45 178T21 249Q21 297 48 325T123 353Q167 353 191 328T216 258Q216 210 189 182T115 154Q69 154 45 178Z" />
<glyph unicode="&#xb8;" glyph-name="cedilla" horiz-adv-x="398" d="M135 -242T107 -228T79 -190Q79 -179 94 -159T128 -120H137Q138 -147 151 -161T186 -176Q201 -176 209 -170T218 -153Q218 -138 194 -122T131 -87L162 35H223L207 -38Q249 -58 282 -85T315
-143Q315 -170 295 -192T241 -228T167 -242Q135 -242 107 -228Z" />
<glyph unicode="&#xb9;" glyph-name="uni00B9" horiz-adv-x="283" d="M21 378Q53 381 67 391T82 422V606Q82 629 76 636T50 644L18 643L12 650L17 703Q58 706 82 710L110 713Q163 718 198 723T235 728L247 696Q228 682 219 649Q210 618 210 433Q210 390 236 390Q247
390 255 390T265 391L268 387L258 323Q246 324 214 325T149 327Q115 327 72 324T15 320L21 378Z" />
<glyph unicode="&#xba;" glyph-name="ordmasculine" horiz-adv-x="372" d="M104 319T61 361T18 479Q18 562 64 607T193 653Q272 653 313 612T354 494Q354 411 309 365T180 319Q104 319 61 361ZM202 396T207 407T212 454Q212 501 210 524T202 557T184 567Q168 567
163 556T158 511Q158 463 160 439T168 406T186 396Q202 396 207 407Z" />
<glyph unicode="&#xbb;" glyph-name="guillemotright" horiz-adv-x="476" d="M239 77L232 100Q249 129 268 166T292 213Q298 227 301 232Q259 316 232 363L239 386L301 422Q344 369 393 315T457 245V218Q442 202 393 148T301 42L239 77ZM33 77L26 100Q43 129 62
166T86 213Q92 227 95 232Q53 316 26 363L33 386L95 422Q138 369 187 315T251 245V218Q236 202 187 148T95 42L33 77Z" />
<glyph unicode="&#xbc;" glyph-name="onequarter" horiz-adv-x="845" d="M21 305Q53 308 67 318T82 349V533Q82 556 76 563T50 571L18 570L12 577L17 630Q58 633 82 637L110 640Q163 645 198 650T235 655L247 623Q228 609 219 576Q210 545 210 360Q210 317 236
317Q247 317 255 317T265 318L268 314L258 250Q246 251 214 252T149 254Q115 254 72 251T15 247L21 305ZM130 -56L124 -39Q143 -12 204 79T318 253L585 679L672 647L682 623Q653 578 573 455T412 207Q345 100 293 18T223 -91L130 -56ZM639 0Q640 7 641 29T643 83L488
85L489 157L658 399L665 401L771 392V169H816L824 159L816 78L772 79Q773 51 774 33T776 8L767 0L646 -8L639 0ZM644 169V250H636L585 169H644Z" />
<glyph unicode="&#xbd;" glyph-name="onehalf" horiz-adv-x="877" d="M21 305Q53 308 67 318T82 349V533Q82 556 76 563T50 571L18 570L12 577L17 630Q58 633 82 637L110 640Q163 645 198 650T235 655L247 623Q228 609 219 576Q210 545 210 360Q210 317 236 317Q247
317 255 317T265 318L268 314L258 250Q246 251 214 252T149 254Q115 254 72 251T15 247L21 305ZM130 -56L124 -39Q143 -12 204 79T318 253L585 679L672 647L682 623Q653 578 573 455T412 207Q345 100 293 18T223 -91L130 -56ZM613 166Q646 201 658 220T670 256Q670
283 638 283Q599 283 558 239H545L527 325Q557 360 598 380T679 401Q739 401 776 373T814 299Q814 253 787 209T691 98L694 92H725Q751 92 762 105T776 153L863 159Q860 144 854 94T845 5L832 -8Q805 -7 723 -4T595 0L526 -4L519 69L613 166Z" />
<glyph unicode="&#xbe;" glyph-name="threequarters" horiz-adv-x="841" d="M49 246T34 267T13 341L30 358Q59 345 94 345Q124 345 141 354T159 380Q159 394 142 401T86 408L77 419L69 485L114 493Q151 507 151 539Q151 549 144 555T124 561Q95 561 53 534H42L18
608Q50 630 91 642T165 655Q219 655 252 633T285 573Q285 542 264 519T208 485V477Q260 459 283 435T307 376Q307 343 276 313T194 265T85 246Q49 246 34 267ZM126 -56L120 -39Q139 -12 200 79T314 253L581 679L668 647L678 623Q649 578 569 455T408 207Q341 100
289 18T219 -91L126 -56ZM635 0Q636 7 637 29T639 83L484 85L485 157L654 399L661 401L767 392V169H812L820 159L812 78L768 79Q769 51 770 33T772 8L763 0L642 -8L635 0ZM640 169V250H632L581 169H640Z" />
<glyph unicode="&#xbf;" glyph-name="questiondown" horiz-adv-x="381" d="M168 285T144 310T119 380Q119 428 146 456T220 484Q266 484 290 460T314 389Q314 341 287 313T212 285Q168 285 144 310ZM200 -239T133 -215T27 -149T-12 -59Q-12 -23 1 3T48 59T151
134L154 140L146 209L155 223L273 243L288 235L312 102L309 87L212 40Q165 14 165 -17Q165 -52 207 -72T328 -96L342 -114L301 -232L284 -241Q200 -239 133 -215Z" />
<glyph unicode="&#xc0;" glyph-name="Agrave" horiz-adv-x="676" d="M333 3L339 87Q373 91 384 93T399 101T403 121L401 139L395 178L318 180Q303 180 238 175L228 131Q225 115 225 109Q225 96 230 93T256 89H282L290 79L282 -4Q267 -3 223 -2T128 -1L-5 -2L2
85Q38 94 53 140L212 642L475 658L490 646Q505 584 551 403T615 153Q624 119 637 104T674 86L681 76L673 -3Q659 -3 618 -2T532 -1Q473 -1 415 -3T341 -6L333 3ZM321 301Q337 301 373 303L339 478H317L270 301H321ZM372 710T295 726T195 746L188 762L224 870L240
875Q262 866 337 835T489 775L468 704L449 691Q372 710 295 726Z" />
<glyph unicode="&#xc1;" glyph-name="Aacute" horiz-adv-x="676" d="M333 3L339 87Q373 91 384 93T399 101T403 121L401 139L395 178L318 180Q303 180 238 175L228 131Q225 115 225 109Q225 96 230 93T256 89H282L290 79L282 -4Q267 -3 223 -2T128 -1L-5 -2L2
85Q38 94 53 140L212 642L475 658L490 646Q505 584 551 403T615 153Q624 119 637 104T674 86L681 76L673 -3Q659 -3 618 -2T532 -1Q473 -1 415 -3T341 -6L333 3ZM321 301Q337 301 373 303L339 478H317L270 301H321ZM250 704L229 775Q306 804 381 835T478 875L494
870L530 762L523 746Q501 742 424 726T269 691L250 704Z" />
<glyph unicode="&#xc2;" glyph-name="Acircumflex" horiz-adv-x="676" d="M333 3L339 87Q373 91 384 93T399 101T403 121L401 139L395 178L318 180Q303 180 238 175L228 131Q225 115 225 109Q225 96 230 93T256 89H282L290 79L282 -4Q267 -3 223 -2T128 -1L-5
-2L2 85Q38 94 53 140L212 642L475 658L490 646Q505 584 551 403T615 153Q624 119 637 104T674 86L681 76L673 -3Q659 -3 618 -2T532 -1Q473 -1 415 -3T341 -6L333 3ZM321 301Q337 301 373 303L339 478H317L270 301H321ZM189 708L153 770Q205 808 259 851T330 908H357Q357
911 421 859Q504 792 533 770L498 708L475 701Q428 721 343 752Q291 733 212 701L189 708Z" />
<glyph unicode="&#xc3;" glyph-name="Atilde" horiz-adv-x="676" d="M333 3L339 87Q373 91 384 93T399 101T403 121L401 139L395 178L318 180Q303 180 238 175L228 131Q225 115 225 109Q225 96 230 93T256 89H282L290 79L282 -4Q267 -3 223 -2T128 -1L-5 -2L2
85Q38 94 53 140L212 642L475 658L490 646Q505 584 551 403T615 153Q624 119 637 104T674 86L681 76L673 -3Q659 -3 618 -2T532 -1Q473 -1 415 -3T341 -6L333 3ZM321 301Q337 301 373 303L339 478H317L270 301H321ZM145 729V745L226 860L243 864Q263 864 325 846Q330
845 357 838T397 830Q408 830 422 843T449 870T464 888H480L539 834V818L458 703L441 699Q421 699 359 717Q354 718 327 725T287 733Q276 733 261 720T235 693T220 675H204L145 729Z" />
<glyph unicode="&#xc4;" glyph-name="Adieresis" horiz-adv-x="676" d="M333 3L339 87Q373 91 384 93T399 101T403 121L401 139L395 178L318 180Q303 180 238 175L228 131Q225 115 225 109Q225 96 230 93T256 89H282L290 79L282 -4Q267 -3 223 -2T128 -1L-5 -2L2
85Q38 94 53 140L212 642L475 658L490 646Q505 584 551 403T615 153Q624 119 637 104T674 86L681 76L673 -3Q659 -3 618 -2T532 -1Q473 -1 415 -3T341 -6L333 3ZM321 301Q337 301 373 303L339 478H317L270 301H321ZM204 685T184 705T163 765Q163 805 186 828T249
852Q287 852 307 831T328 772Q328 732 305 709T242 685Q204 685 184 705ZM396 685T376 705T355 765Q355 805 378 828T441 852Q479 852 499 831T520 772Q520 732 497 709T435 685Q396 685 376 705Z" />
<glyph unicode="&#xc5;" glyph-name="Aring" horiz-adv-x="676" d="M333 3L339 87Q373 91 384 93T399 101T403 121L401 139L395 178L318 180Q303 180 238 175L228 131Q225 115 225 109Q225 96 230 93T256 89H282L290 79L282 -4Q267 -3 223 -2T128 -1L-5 -2L2 85Q38
94 53 140L212 642L475 658L490 646Q505 584 551 403T615 153Q624 119 637 104T674 86L681 76L673 -3Q659 -3 618 -2T532 -1Q473 -1 415 -3T341 -6L333 3ZM321 301Q337 301 373 303L339 478H317L270 301H321ZM289 682T263 710T236 785Q236 832 266 862T346 892Q398
892 423 864T448 794Q448 748 418 715T337 682Q289 682 263 710ZM357 752T368 759T379 785Q379 802 369 811T340 820Q323 820 314 812T305 788Q305 769 317 761T344 752Q357 752 368 759Z" />
<glyph unicode="&#xc6;" glyph-name="AE" horiz-adv-x="938" d="M381 91T394 99T407 130Q407 147 406 162L401 219L326 206L249 183L233 130Q227 111 227 104Q227 96 231 93T248 90T282 89L289 79L282 -4Q257 -3 197 -2T85 -1Q54 -1 33 -1T5 -2L2 85Q38 94 59
140L225 531Q223 547 217 553T199 559Q190 559 183 558T173 557L161 571L170 650Q198 649 288 648T502 647Q610 648 714 651T847 659L860 643Q857 625 849 564T837 444L699 435Q699 439 700 450T701 472Q701 495 694 506T666 522T603 527Q583 527 576 522T569 503L588
372L661 385L762 411L779 394L767 278L671 266L606 254L617 181Q627 114 672 114Q712 114 731 122T761 152T777 221L905 230L917 215Q914 198 905 138T889 9L874 -7Q846 -6 748 -3T553 0H511Q458 -1 407 -3T340 -6L333 3L339 87Q381 91 394 99ZM391 337L377 478H355L298
324L341 328L391 337Z" />
<glyph unicode="&#xc7;" glyph-name="Ccedilla" horiz-adv-x="603" d="M171 -11T93 74T15 311Q15 479 106 569T366 659Q404 659 451 653T532 641T576 633L584 613Q582 606 577 577T566 501T556 399L402 390Q402 395 403 410T404 447Q404 487 389 504T335 521Q299
521 280 505T252 452T243 347Q243 235 266 183T340 130Q378 130 396 156T419 246L572 256Q570 236 565 170T560 43L547 27Q538 24 506 15T420 -2T310 -11Q171 -11 93 74ZM265 -242T237 -228T209 -190Q209 -179 224 -159T258 -120H267Q268 -147 281 -161T316 -176Q331
-176 339 -170T348 -153Q348 -138 324 -122T261 -87L292 35H353L337 -38Q379 -58 412 -85T445 -143Q445 -170 425 -192T371 -228T297 -242Q265 -242 237 -228Z" />
<glyph unicode="&#xc8;" glyph-name="Egrave" horiz-adv-x="603" d="M588 215Q571 127 560 9L545 -7Q377 0 224 0Q126 0 13 -10L22 82Q60 88 73 106T87 170L88 505Q88 538 83 548T61 559Q47 559 35 557L23 571L32 650Q52 650 63 649Q185 647 265 647Q359 647 445
650T574 659L587 643Q579 602 573 545T564 444L426 435L428 472Q428 495 421 506T393 522T330 527Q309 527 303 522T296 500L290 387L372 386Q412 386 482 392L494 378L480 263Q384 266 360 266Q339 266 285 260L284 175Q284 148 287 136T300 119T332 115Q377 115
399 123T431 152T448 221L576 230L588 215ZM327 710T250 726T150 746L143 762L179 870L195 875Q217 866 292 835T444 775L423 704L404 691Q327 710 250 726Z" />
<glyph unicode="&#xc9;" glyph-name="Eacute" horiz-adv-x="603" d="M588 215Q571 127 560 9L545 -7Q377 0 224 0Q126 0 13 -10L22 82Q60 88 73 106T87 170L88 505Q88 538 83 548T61 559Q47 559 35 557L23 571L32 650Q52 650 63 649Q185 647 265 647Q359 647 445
650T574 659L587 643Q579 602 573 545T564 444L426 435L428 472Q428 495 421 506T393 522T330 527Q309 527 303 522T296 500L290 387L372 386Q412 386 482 392L494 378L480 263Q384 266 360 266Q339 266 285 260L284 175Q284 148 287 136T300 119T332 115Q377 115
399 123T431 152T448 221L576 230L588 215ZM235 704L214 775Q291 804 366 835T463 875L479 870L515 762L508 746Q486 742 409 726T254 691L235 704Z" />
<glyph unicode="&#xca;" glyph-name="Ecircumflex" horiz-adv-x="603" d="M588 215Q571 127 560 9L545 -7Q377 0 224 0Q126 0 13 -10L22 82Q60 88 73 106T87 170L88 505Q88 538 83 548T61 559Q47 559 35 557L23 571L32 650Q52 650 63 649Q185 647 265 647Q359
647 445 650T574 659L587 643Q579 602 573 545T564 444L426 435L428 472Q428 495 421 506T393 522T330 527Q309 527 303 522T296 500L290 387L372 386Q412 386 482 392L494 378L480 263Q384 266 360 266Q339 266 285 260L284 175Q284 148 287 136T300 119T332 115Q377
115 399 123T431 152T448 221L576 230L588 215ZM174 708L138 770Q190 808 244 851T315 908H342Q342 911 406 859Q489 792 518 770L483 708L460 701Q413 721 328 752Q276 733 197 701L174 708Z" />
<glyph unicode="&#xcb;" glyph-name="Edieresis" horiz-adv-x="603" d="M588 215Q571 127 560 9L545 -7Q377 0 224 0Q126 0 13 -10L22 82Q60 88 73 106T87 170L88 505Q88 538 83 548T61 559Q47 559 35 557L23 571L32 650Q52 650 63 649Q185 647 265 647Q359 647
445 650T574 659L587 643Q579 602 573 545T564 444L426 435L428 472Q428 495 421 506T393 522T330 527Q309 527 303 522T296 500L290 387L372 386Q412 386 482 392L494 378L480 263Q384 266 360 266Q339 266 285 260L284 175Q284 148 287 136T300 119T332 115Q377
115 399 123T431 152T448 221L576 230L588 215ZM189 685T169 705T148 765Q148 805 171 828T234 852Q272 852 292 831T313 772Q313 732 290 709T227 685Q189 685 169 705ZM381 685T361 705T340 765Q340 805 363 828T426 852Q464 852 484 831T505 772Q505 732 482
709T420 685Q381 685 361 705Z" />
<glyph unicode="&#xcc;" glyph-name="Igrave" horiz-adv-x="370" d="M23 80Q63 89 75 105T88 162V508Q88 539 81 549T53 559L27 558L18 572L26 647H187Q211 647 359 652L352 562Q318 557 308 548T295 510Q285 337 285 156Q285 114 291 101T317 87Q336 87 349 90L357
80L348 -4Q238 0 181 0Q127 0 15 -5L23 80ZM186 710T109 726T9 746L2 762L38 870L54 875Q76 866 151 835T303 775L282 704L263 691Q186 710 109 726Z" />
<glyph unicode="&#xcd;" glyph-name="Iacute" horiz-adv-x="370" d="M23 80Q63 89 75 105T88 162V508Q88 539 81 549T53 559L27 558L18 572L26 647H187Q211 647 359 652L352 562Q318 557 308 548T295 510Q285 337 285 156Q285 114 291 101T317 87Q336 87 349 90L357
80L348 -4Q238 0 181 0Q127 0 15 -5L23 80ZM55 704L34 775Q111 804 186 835T283 875L299 870L335 762L328 746Q306 742 229 726T74 691L55 704Z" />
<glyph unicode="&#xce;" glyph-name="Icircumflex" horiz-adv-x="370" d="M23 80Q63 89 75 105T88 162V508Q88 539 81 549T53 559L27 558L18 572L26 647H187Q211 647 359 652L352 562Q318 557 308 548T295 510Q285 337 285 156Q285 114 291 101T317 87Q336 87
349 90L357 80L348 -4Q238 0 181 0Q127 0 15 -5L23 80ZM31 708L-5 770Q47 808 101 851T172 908H199Q199 911 263 859Q346 792 375 770L340 708L317 701Q270 721 185 752Q133 733 54 701L31 708Z" />
<glyph unicode="&#xcf;" glyph-name="Idieresis" horiz-adv-x="370" d="M23 80Q63 89 75 105T88 162V508Q88 539 81 549T53 559L27 558L18 572L26 647H187Q211 647 359 652L352 562Q318 557 308 548T295 510Q285 337 285 156Q285 114 291 101T317 87Q336 87 349
90L357 80L348 -4Q238 0 181 0Q127 0 15 -5L23 80ZM47 685T27 705T6 765Q6 805 29 828T92 852Q130 852 150 831T171 772Q171 732 148 709T85 685Q47 685 27 705ZM239 685T219 705T198 765Q198 805 221 828T284 852Q322 852 342 831T363 772Q363 732 340 709T278
685Q239 685 219 705Z" />
<glyph unicode="&#xd0;" glyph-name="Eth" horiz-adv-x="704" d="M326 -10T274 -5T183 0Q148 0 101 -3T40 -8L48 85Q86 91 99 108T113 168V266H17L7 274L20 363H113V503Q113 534 108 545T88 557Q77 557 68 556T56 555L46 569L55 650Q73 650 119 649T207 647Q247
648 299 650T373 653Q530 653 610 577T690 352Q690 241 648 159T527 33T342 -12Q326 -10 274 -5ZM384 367L392 357L385 267H306V162Q306 133 313 123T342 113Q407 113 434 159T461 314Q461 397 450 442T412 507T337 526Q326 526 322 520T316 499L309 364L384 367Z"
/>
<glyph unicode="&#xd1;" glyph-name="Ntilde" horiz-adv-x="739" d="M405 104T346 197T270 315H255L258 137Q259 108 267 97T297 86Q307 86 317 87T331 90L340 81L329 -4Q311 -3 264 -2T175 0Q132 0 84 -3T21 -8L31 82Q60 86 73 100T88 145L100 494Q100 518 95
530T74 547T25 557L13 571L19 652Q32 651 76 649T167 647Q201 647 242 648T295 651Q351 550 419 441T487 333H502L498 516Q497 541 490 550T465 559H434L429 570L434 651Q452 650 501 649T600 647Q645 647 685 648T739 650L734 560Q702 556 690 542T676 497L663
0L475 -12Q405 104 346 197ZM188 729V745L269 860L286 864Q306 864 368 846Q373 845 400 838T440 830Q451 830 465 843T492 870T507 888H523L582 834V818L501 703L484 699Q464 699 402 717Q397 718 370 725T330 733Q319 733 304 720T278 693T263 675H247L188 729Z"
/>
<glyph unicode="&#xd2;" glyph-name="Ograve" horiz-adv-x="655" d="M168 -12T92 71T15 312Q15 480 99 569T342 659Q490 659 565 579T640 340Q640 171 555 80T313 -12Q168 -12 92 71ZM375 114T393 151T411 277Q411 369 403 422T375 498T321 522Q279 522 262 486T244
361Q244 269 252 216T280 138T332 114Q375 114 393 151ZM325 710T248 726T148 746L141 762L177 870L193 875Q215 866 290 835T442 775L421 704L402 691Q325 710 248 726Z" />
<glyph unicode="&#xd3;" glyph-name="Oacute" horiz-adv-x="655" d="M168 -12T92 71T15 312Q15 480 99 569T342 659Q490 659 565 579T640 340Q640 171 555 80T313 -12Q168 -12 92 71ZM375 114T393 151T411 277Q411 369 403 422T375 498T321 522Q279 522 262 486T244
361Q244 269 252 216T280 138T332 114Q375 114 393 151ZM233 704L212 775Q289 804 364 835T461 875L477 870L513 762L506 746Q484 742 407 726T252 691L233 704Z" />
<glyph unicode="&#xd4;" glyph-name="Ocircumflex" horiz-adv-x="655" d="M168 -12T92 71T15 312Q15 480 99 569T342 659Q490 659 565 579T640 340Q640 171 555 80T313 -12Q168 -12 92 71ZM375 114T393 151T411 277Q411 369 403 422T375 498T321 522Q279 522 262
486T244 361Q244 269 252 216T280 138T332 114Q375 114 393 151ZM172 708L136 770Q188 808 242 851T313 908H340Q340 911 404 859Q487 792 516 770L481 708L458 701Q411 721 326 752Q274 733 195 701L172 708Z" />
<glyph unicode="&#xd5;" glyph-name="Otilde" horiz-adv-x="655" d="M168 -12T92 71T15 312Q15 480 99 569T342 659Q490 659 565 579T640 340Q640 171 555 80T313 -12Q168 -12 92 71ZM375 114T393 151T411 277Q411 369 403 422T375 498T321 522Q279 522 262 486T244
361Q244 269 252 216T280 138T332 114Q375 114 393 151ZM128 729V745L209 860L226 864Q246 864 308 846Q313 845 340 838T380 830Q391 830 405 843T432 870T447 888H463L522 834V818L441 703L424 699Q404 699 342 717Q337 718 310 725T270 733Q259 733 244 720T218
693T203 675H187L128 729Z" />
<glyph unicode="&#xd6;" glyph-name="Odieresis" horiz-adv-x="655" d="M168 -12T92 71T15 312Q15 480 99 569T342 659Q490 659 565 579T640 340Q640 171 555 80T313 -12Q168 -12 92 71ZM375 114T393 151T411 277Q411 369 403 422T375 498T321 522Q279 522 262
486T244 361Q244 269 252 216T280 138T332 114Q375 114 393 151ZM187 685T167 705T146 765Q146 805 169 828T232 852Q270 852 290 831T311 772Q311 732 288 709T225 685Q187 685 167 705ZM379 685T359 705T338 765Q338 805 361 828T424 852Q462 852 482 831T503
772Q503 732 480 709T418 685Q379 685 359 705Z" />
<glyph unicode="&#xd7;" glyph-name="multiply" horiz-adv-x="506" d="M128 29L49 133L149 232L35 345L38 361L146 444L252 336Q292 377 323 410T364 455L379 449L463 347L353 236Q394 197 426 168T468 129L462 113L357 26L249 132L144 26L128 29Z" />
<glyph unicode="&#xd8;" glyph-name="Oslash" horiz-adv-x="655" d="M572 571Q640 491 640 340Q640 171 555 80T313 -12Q248 -12 195 6L115 -117L20 -62L16 -52L95 68Q15 153 15 312Q15 480 99 569T342 659Q417 659 474 638L550 752L647 698L649 685L572 571ZM375
114T393 151T411 277Q411 369 403 422T375 498T321 522Q279 522 262 486T244 361Q244 269 252 216T280 138T332 114Q375 114 393 151Z" />
<glyph unicode="&#xd9;" glyph-name="Ugrave" horiz-adv-x="627" d="M177 -12T118 38T59 199V505Q59 538 54 548T31 559Q22 559 14 558T2 557L0 561L10 650Q27 649 76 648T187 647Q224 647 265 648T321 651L311 558Q285 556 275 545T263 509L257 220Q257 171 277
143T334 115Q372 115 389 136T406 203L405 505Q405 536 400 547T379 559Q371 559 365 558T356 557L353 561L364 650Q378 650 414 649T484 647Q532 647 573 648T628 650L620 560Q589 550 581 542T572 516V234Q572 112 505 50T305 -12Q177 -12 118 38ZM333 710T256
726T156 746L149 762L185 870L201 875Q223 866 298 835T450 775L429 704L410 691Q333 710 256 726Z" />
<glyph unicode="&#xda;" glyph-name="Uacute" horiz-adv-x="627" d="M177 -12T118 38T59 199V505Q59 538 54 548T31 559Q22 559 14 558T2 557L0 561L10 650Q27 649 76 648T187 647Q224 647 265 648T321 651L311 558Q285 556 275 545T263 509L257 220Q257 171 277
143T334 115Q372 115 389 136T406 203L405 505Q405 536 400 547T379 559Q371 559 365 558T356 557L353 561L364 650Q378 650 414 649T484 647Q532 647 573 648T628 650L620 560Q589 550 581 542T572 516V234Q572 112 505 50T305 -12Q177 -12 118 38ZM241 704L220
775Q297 804 372 835T469 875L485 870L521 762L514 746Q492 742 415 726T260 691L241 704Z" />
<glyph unicode="&#xdb;" glyph-name="Ucircumflex" horiz-adv-x="627" d="M177 -12T118 38T59 199V505Q59 538 54 548T31 559Q22 559 14 558T2 557L0 561L10 650Q27 649 76 648T187 647Q224 647 265 648T321 651L311 558Q285 556 275 545T263 509L257 220Q257
171 277 143T334 115Q372 115 389 136T406 203L405 505Q405 536 400 547T379 559Q371 559 365 558T356 557L353 561L364 650Q378 650 414 649T484 647Q532 647 573 648T628 650L620 560Q589 550 581 542T572 516V234Q572 112 505 50T305 -12Q177 -12 118 38ZM180
708L144 770Q196 808 250 851T321 908H348Q348 911 412 859Q495 792 524 770L489 708L466 701Q419 721 334 752Q282 733 203 701L180 708Z" />
<glyph unicode="&#xdc;" glyph-name="Udieresis" horiz-adv-x="627" d="M177 -12T118 38T59 199V505Q59 538 54 548T31 559Q22 559 14 558T2 557L0 561L10 650Q27 649 76 648T187 647Q224 647 265 648T321 651L311 558Q285 556 275 545T263 509L257 220Q257 171
277 143T334 115Q372 115 389 136T406 203L405 505Q405 536 400 547T379 559Q371 559 365 558T356 557L353 561L364 650Q378 650 414 649T484 647Q532 647 573 648T628 650L620 560Q589 550 581 542T572 516V234Q572 112 505 50T305 -12Q177 -12 118 38ZM195 685T175
705T154 765Q154 805 177 828T240 852Q278 852 298 831T319 772Q319 732 296 709T233 685Q195 685 175 705ZM387 685T367 705T346 765Q346 805 369 828T432 852Q470 852 490 831T511 772Q511 732 488 709T426 685Q387 685 367 705Z" />
<glyph unicode="&#xdd;" glyph-name="Yacute" horiz-adv-x="663" d="M135 83Q179 86 200 93T230 116T238 162V178Q238 200 232 219T210 268L103 467Q73 522 4 551L0 557L10 648L160 646Q189 646 253 649T340 653L347 642L338 560Q297 560 297 535Q297 525 314
483T336 427L353 387H367L408 501Q421 530 421 545Q421 554 413 557T383 561L380 567L388 646H546Q578 646 613 647T659 650L663 642L655 555Q623 537 594 504T544 429L453 247Q443 223 441 205T438 154Q438 119 449 105T488 91Q507 91 521 92T539 94L544 88L535
-6Q511 -5 438 -3T328 0Q288 0 219 -4T127 -9L135 83ZM273 704L252 775Q329 804 404 835T501 875L517 870L553 762L546 746Q524 742 447 726T292 691L273 704Z" />
<glyph unicode="&#xde;" glyph-name="Thorn" horiz-adv-x="605" d="M23 80Q63 88 75 104T88 162V508Q88 539 81 549T53 559L27 558L18 572L26 647H187Q232 647 285 649T359 652L352 562Q326 557 316 553T301 544T295 527L294 522H363Q487 522 546 476T605 331Q605
275 574 231T486 163T356 139H285V116Q285 98 291 93T317 87Q335 87 345 88T359 90L367 80L358 -4Q337 -3 283 -2T181 0Q142 0 87 -2T15 -5L23 80ZM399 259T399 331Q399 371 377 389T308 407Q297 407 293 402T288 385Q288 350 287 327L286 256Q331 246 350 246Q399
259 399 331Z" />
<glyph unicode="&#xdf;" glyph-name="germandbls" horiz-adv-x="692" d="M416 -12T373 6T317 53Q319 83 334 125T366 190L393 188Q397 153 417 130T466 106Q485 106 496 116T507 144Q507 165 489 178T432 210Q391 230 367 246T325 289T307 358Q307 389 320 412T360
465Q382 491 392 508T403 547Q403 577 383 596T331 616Q299 616 282 606T259 569T252 493L250 129Q250 92 277 92Q288 92 294 93T303 94L308 89L296 -5Q282 -4 239 -2T169 0Q140 0 77 -3T14 -8L23 79Q53 82 65 94T77 134V326Q75 349 63 356T10 366L6 372L14 442L77
451Q77 588 150 665T352 742Q459 742 518 699T578 580Q578 549 564 526T523 472Q502 448 492 433T482 399Q482 378 500 364T558 330Q600 309 626 291T672 242T692 165Q692 114 664 74T584 11T469 -12Q416 -12 373 6Z" />
<glyph unicode="&#xe0;" glyph-name="agrave" horiz-adv-x="494" d="M344 -12T315 7T281 61L269 66Q240 37 210 15T158 -8Q118 -8 84 14T31 76T11 162Q11 195 28 219T75 249L271 285V286Q271 320 249 339T189 358Q163 358 131 345T74 315L62 321L37 401Q96 432
157 458T245 484Q350 484 397 443T444 339Q444 321 432 245Q422 175 422 162Q422 147 430 138T451 128Q464 128 485 136L502 109Q479 67 448 30T394 -12Q344 -12 315 7ZM240 120T268 126L269 212L197 196Q187 194 183 190T179 174Q179 150 190 135T219 120Q240
120 268 126ZM240 565T176 599T93 644L91 661L163 762H180Q196 747 252 697T367 595L326 534L304 527Q240 565 176 599Z" />
<glyph unicode="&#xe1;" glyph-name="aacute" horiz-adv-x="494" d="M344 -12T315 7T281 61L269 66Q240 37 210 15T158 -8Q118 -8 84 14T31 76T11 162Q11 195 28 219T75 249L271 285V286Q271 320 249 339T189 358Q163 358 131 345T74 315L62 321L37 401Q96 432
157 458T245 484Q350 484 397 443T444 339Q444 321 432 245Q422 175 422 162Q422 147 430 138T451 128Q464 128 485 136L502 109Q479 67 448 30T394 -12Q344 -12 315 7ZM240 120T268 126L269 212L197 196Q187 194 183 190T179 174Q179 150 190 135T219 120Q240
120 268 126ZM182 529L138 588Q204 652 252 700T316 764L333 765L410 668L409 651Q391 641 329 603T204 523L182 529Z" />
<glyph unicode="&#xe2;" glyph-name="acircumflex" horiz-adv-x="494" d="M344 -12T315 7T281 61L269 66Q240 37 210 15T158 -8Q118 -8 84 14T31 76T11 162Q11 195 28 219T75 249L271 285V286Q271 320 249 339T189 358Q163 358 131 345T74 315L62 321L37 401Q96
432 157 458T245 484Q350 484 397 443T444 339Q444 321 432 245Q422 175 422 162Q422 147 430 138T451 128Q464 128 485 136L502 109Q479 67 448 30T394 -12Q344 -12 315 7ZM240 120T268 126L269 212L197 196Q187 194 183 190T179 174Q179 150 190 135T219 120Q240
120 268 126ZM106 543L60 605Q109 648 160 697T227 761H254Q269 746 320 697T420 605L375 543L352 536Q314 562 240 605Q172 566 129 536L106 543Z" />
<glyph unicode="&#xe3;" glyph-name="atilde" horiz-adv-x="494" d="M344 -12T315 7T281 61L269 66Q240 37 210 15T158 -8Q118 -8 84 14T31 76T11 162Q11 195 28 219T75 249L271 285V286Q271 320 249 339T189 358Q163 358 131 345T74 315L62 321L37 401Q96 432
157 458T245 484Q350 484 397 443T444 339Q444 321 432 245Q422 175 422 162Q422 147 430 138T451 128Q464 128 485 136L502 109Q479 67 448 30T394 -12Q344 -12 315 7ZM240 120T268 126L269 212L197 196Q187 194 183 190T179 174Q179 150 190 135T219 120Q240
120 268 126ZM51 581V597L129 712L146 716Q162 716 218 698Q268 682 278 682Q289 682 303 695T328 722T342 740H358L417 686V670L339 555L322 551Q306 551 250 569Q200 585 190 585Q179 585 165 572T140 545T126 527H110L51 581Z" />
<glyph unicode="&#xe4;" glyph-name="adieresis" horiz-adv-x="494" d="M344 -12T315 7T281 61L269 66Q240 37 210 15T158 -8Q118 -8 84 14T31 76T11 162Q11 195 28 219T75 249L271 285V286Q271 320 249 339T189 358Q163 358 131 345T74 315L62 321L37 401Q96
432 157 458T245 484Q350 484 397 443T444 339Q444 321 432 245Q422 175 422 162Q422 147 430 138T451 128Q464 128 485 136L502 109Q479 67 448 30T394 -12Q344 -12 315 7ZM240 120T268 126L269 212L197 196Q187 194 183 190T179 174Q179 150 190 135T219 120Q240
120 268 126ZM100 561T80 581T59 641Q59 681 82 704T145 728Q183 728 203 707T224 648Q224 608 201 585T138 561Q100 561 80 581ZM292 561T272 581T251 641Q251 681 274 704T337 728Q375 728 395 707T416 648Q416 608 393 585T331 561Q292 561 272 581Z" />
<glyph unicode="&#xe5;" glyph-name="aring" horiz-adv-x="494" d="M344 -12T315 7T281 61L269 66Q240 37 210 15T158 -8Q118 -8 84 14T31 76T11 162Q11 195 28 219T75 249L271 285V286Q271 320 249 339T189 358Q163 358 131 345T74 315L62 321L37 401Q96 432
157 458T245 484Q350 484 397 443T444 339Q444 321 432 245Q422 175 422 162Q422 147 430 138T451 128Q464 128 485 136L502 109Q479 67 448 30T394 -12Q344 -12 315 7ZM240 120T268 126L269 212L197 196Q187 194 183 190T179 174Q179 150 190 135T219 120Q240
120 268 126ZM189 544T162 571T135 647Q135 694 165 724T245 754Q292 754 319 728T347 656Q347 607 316 576T236 544Q189 544 162 571ZM259 614T268 623T278 647Q278 664 268 673T239 682Q223 682 214 674T204 650Q204 634 215 624T243 614Q259 614 268 623Z" />
<glyph unicode="&#xe6;" glyph-name="ae" horiz-adv-x="689" d="M425 -12T374 10T294 77Q248 37 211 15T153 -8Q113 -8 79 14T26 74T6 157Q6 195 27 222T83 254L254 277V286Q254 320 232 339T172 358Q149 358 124 349T80 329T57 315L45 321L20 401Q32 407 72 427T158
465T228 484Q296 484 352 436Q408 484 500 484Q582 484 627 432T673 288Q673 272 672 262T671 248L659 238L420 216Q428 163 452 141T526 119Q554 119 580 125T623 139T644 148L653 143L675 69Q675 68 643 46T570 6T494 -12Q425 -12 374 10ZM490 300Q505 302 505
312Q505 339 494 354T464 370Q416 370 414 317V288L490 300ZM243 120T268 131Q256 165 254 205L199 197Q185 195 180 189T174 168Q174 145 184 133T214 120Q243 120 268 131Z" />
<glyph unicode="&#xe7;" glyph-name="ccedilla" horiz-adv-x="440" d="M137 -12T76 52T14 230Q14 306 45 363T135 452T272 484Q311 484 341 479T389 469T410 462L415 451Q412 436 404 385T392 277L300 272V308Q300 340 291 353T260 366Q203 366 203 273Q203 196
222 161T284 125Q308 125 330 131T365 143T382 151L392 146L414 71Q414 70 384 48T317 7T247 -12Q137 -12 76 52ZM199 -242T171 -228T143 -190Q143 -179 158 -159T192 -120H201Q202 -147 215 -161T250 -176Q265 -176 273 -170T282 -153Q282 -138 258 -122T195 -87L226
35H287L271 -38Q313 -58 346 -85T379 -143Q379 -170 359 -192T305 -228T231 -242Q199 -242 171 -228Z" />
<glyph unicode="&#xe8;" glyph-name="egrave" horiz-adv-x="479" d="M141 -12T78 51T14 230Q14 306 45 363T134 452T269 484Q459 484 459 284Q459 255 451 218L440 208H203Q207 164 232 141T301 118Q351 118 420 148L429 143L451 69Q411 38 357 13T259 -12Q141
-12 78 51ZM281 290Q289 291 291 294T293 308Q293 373 253 373Q223 373 211 353T198 284L281 290ZM260 563T196 597T113 642L111 659L183 760H200Q216 745 272 695T387 593L346 532L324 525Q260 563 196 597Z" />
<glyph unicode="&#xe9;" glyph-name="eacute" horiz-adv-x="479" d="M141 -12T78 51T14 230Q14 306 45 363T134 452T269 484Q459 484 459 284Q459 255 451 218L440 208H203Q207 164 232 141T301 118Q351 118 420 148L429 143L451 69Q411 38 357 13T259 -12Q141
-12 78 51ZM281 290Q289 291 291 294T293 308Q293 373 253 373Q223 373 211 353T198 284L281 290ZM202 527L158 586Q224 650 272 698T336 762L353 763L430 666L429 649Q411 639 349 601T224 521L202 527Z" />
<glyph unicode="&#xea;" glyph-name="ecircumflex" horiz-adv-x="479" d="M141 -12T78 51T14 230Q14 306 45 363T134 452T269 484Q459 484 459 284Q459 255 451 218L440 208H203Q207 164 232 141T301 118Q351 118 420 148L429 143L451 69Q411 38 357 13T259 -12Q141
-12 78 51ZM281 290Q289 291 291 294T293 308Q293 373 253 373Q223 373 211 353T198 284L281 290ZM126 541L80 603Q129 646 180 695T247 759H274Q289 744 340 695T440 603L395 541L372 534Q334 560 260 603Q192 564 149 534L126 541Z" />
<glyph unicode="&#xeb;" glyph-name="edieresis" horiz-adv-x="479" d="M141 -12T78 51T14 230Q14 306 45 363T134 452T269 484Q459 484 459 284Q459 255 451 218L440 208H203Q207 164 232 141T301 118Q351 118 420 148L429 143L451 69Q411 38 357 13T259 -12Q141
-12 78 51ZM281 290Q289 291 291 294T293 308Q293 373 253 373Q223 373 211 353T198 284L281 290ZM120 559T100 579T79 639Q79 679 102 702T165 726Q203 726 223 705T244 646Q244 606 221 583T158 559Q120 559 100 579ZM312 559T292 579T271 639Q271 679 294 702T357
726Q395 726 415 705T436 646Q436 606 413 583T351 559Q312 559 292 579Z" />
<glyph unicode="&#xec;" glyph-name="igrave" horiz-adv-x="305" d="M19 79Q48 81 62 95T76 138V309Q76 344 67 355T28 367Q22 367 16 366T6 364L14 447Q89 456 163 468T259 484L272 462Q248 417 248 114Q248 97 253 91T273 84Q280 84 287 85T296 86L299 81L287
-4Q272 -3 233 -2T152 0Q115 0 68 -4T7 -10L19 79ZM164 563T100 597T17 642L15 659L87 760H104Q120 745 176 695T291 593L250 532L228 525Q164 563 100 597Z" />
<glyph unicode="&#xed;" glyph-name="iacute" horiz-adv-x="305" d="M19 79Q48 81 62 95T76 138V309Q76 344 67 355T28 367Q22 367 16 366T6 364L14 447Q89 456 163 468T259 484L272 462Q248 417 248 114Q248 97 253 91T273 84Q280 84 287 85T296 86L299 81L287
-4Q272 -3 233 -2T152 0Q115 0 68 -4T7 -10L19 79ZM61 527L17 586Q83 650 131 698T195 762L212 763L289 666L288 649Q270 639 208 601T83 521L61 527Z" />
<glyph unicode="&#xee;" glyph-name="icircumflex" horiz-adv-x="305" d="M19 79Q48 81 62 95T76 138V309Q76 344 67 355T28 367Q22 367 16 366T6 364L14 447Q89 456 163 468T259 484L272 462Q248 417 248 114Q248 97 253 91T273 84Q280 84 287 85T296 86L299
81L287 -4Q272 -3 233 -2T152 0Q115 0 68 -4T7 -10L19 79ZM30 541L-16 603Q33 646 84 695T151 759H178Q193 744 244 695T344 603L299 541L276 534Q238 560 164 603Q96 564 53 534L30 541Z" />
<glyph unicode="&#xef;" glyph-name="idieresis" horiz-adv-x="305" d="M19 79Q48 81 62 95T76 138V309Q76 344 67 355T28 367Q22 367 16 366T6 364L14 447Q89 456 163 468T259 484L272 462Q248 417 248 114Q248 97 253 91T273 84Q280 84 287 85T296 86L299 81L287
-4Q272 -3 233 -2T152 0Q115 0 68 -4T7 -10L19 79ZM36 536T18 555T-1 609Q-1 646 20 667T77 689Q111 689 130 670T150 616Q150 579 129 558T71 536Q36 536 18 555ZM198 536T179 555T160 609Q160 646 181 667T239 689Q273 689 292 670T311 616Q311 579 290 558T234
536Q198 536 179 555Z" />
<glyph unicode="&#xf0;" glyph-name="eth" horiz-adv-x="508" d="M133 -12T73 50T13 234Q13 298 34 350T97 432T196 463L236 451L240 460Q218 493 183 527L58 463L48 465L17 559L96 600Q71 620 39 639Q33 644 28 647T19 653L70 734L86 742Q163 709 229 668L373
742L382 738L413 645L322 599Q406 525 450 438T495 258Q495 131 429 60T245 -12Q133 -12 73 50ZM283 95T292 118T301 202Q301 279 289 339Q274 349 253 349Q230 349 221 341T208 309T204 230Q204 177 209 148T226 107T261 95Q283 95 292 118Z" />
<glyph unicode="&#xf1;" glyph-name="ntilde" horiz-adv-x="579" d="M328 86T336 96T345 130L347 271Q348 309 339 324T304 339Q286 339 259 318Q247 136 247 118Q247 99 252 93T271 86L287 87L290 82L278 -4Q265 -3 229 -2T156 0Q117 0 72 -2T14 -5L26 82Q55
84 66 95T77 134V307Q77 342 68 353T29 365H13L8 372L16 447Q88 457 159 468T252 484L264 472Q262 465 258 443T252 399L259 395Q344 484 367 484Q448 484 490 451T533 354Q533 336 529 292T522 232Q511 146 511 120Q511 99 517 91T538 83L563 84L565 80L554 -4Q539
-3 500 -2T424 0Q390 0 353 -1T302 -3L310 84Q328 86 336 96ZM124 579V595L202 710L219 714Q235 714 291 696Q341 680 351 680Q362 680 376 693T401 720T415 738H431L490 684V668L412 553L395 549Q379 549 323 567Q273 583 263 583Q252 583 238 570T213 543T199
525H183L124 579Z" />
<glyph unicode="&#xf2;" glyph-name="ograve" horiz-adv-x="509" d="M151 -12T90 51T28 225Q28 347 94 415T280 484Q391 484 450 423T509 248Q509 126 443 57T258 -12Q151 -12 90 51ZM296 95T306 115T316 191Q316 259 312 296T296 348T264 364Q238 364 228 344T218
271Q218 202 222 165T238 111T270 95Q296 95 306 115ZM268 563T204 597T121 642L119 659L191 760H208Q224 745 280 695T395 593L354 532L332 525Q268 563 204 597Z" />
<glyph unicode="&#xf3;" glyph-name="oacute" horiz-adv-x="509" d="M151 -12T90 51T28 225Q28 347 94 415T280 484Q391 484 450 423T509 248Q509 126 443 57T258 -12Q151 -12 90 51ZM296 95T306 115T316 191Q316 259 312 296T296 348T264 364Q238 364 228 344T218
271Q218 202 222 165T238 111T270 95Q296 95 306 115ZM210 527L166 586Q232 650 280 698T344 762L361 763L438 666L437 649Q419 639 357 601T232 521L210 527Z" />
<glyph unicode="&#xf4;" glyph-name="ocircumflex" horiz-adv-x="509" d="M151 -12T90 51T28 225Q28 347 94 415T280 484Q391 484 450 423T509 248Q509 126 443 57T258 -12Q151 -12 90 51ZM296 95T306 115T316 191Q316 259 312 296T296 348T264 364Q238 364 228
344T218 271Q218 202 222 165T238 111T270 95Q296 95 306 115ZM134 541L88 603Q137 646 188 695T255 759H282Q297 744 348 695T448 603L403 541L380 534Q342 560 268 603Q200 564 157 534L134 541Z" />
<glyph unicode="&#xf5;" glyph-name="otilde" horiz-adv-x="509" d="M151 -12T90 51T28 225Q28 347 94 415T280 484Q391 484 450 423T509 248Q509 126 443 57T258 -12Q151 -12 90 51ZM296 95T306 115T316 191Q316 259 312 296T296 348T264 364Q238 364 228 344T218
271Q218 202 222 165T238 111T270 95Q296 95 306 115ZM79 579V595L157 710L174 714Q190 714 246 696Q296 680 306 680Q317 680 331 693T356 720T370 738H386L445 684V668L367 553L350 549Q334 549 278 567Q228 583 218 583Q207 583 193 570T168 543T154 525H138L79
579Z" />
<glyph unicode="&#xf6;" glyph-name="odieresis" horiz-adv-x="509" d="M151 -12T90 51T28 225Q28 347 94 415T280 484Q391 484 450 423T509 248Q509 126 443 57T258 -12Q151 -12 90 51ZM296 95T306 115T316 191Q316 259 312 296T296 348T264 364Q238 364 228
344T218 271Q218 202 222 165T238 111T270 95Q296 95 306 115ZM128 559T108 579T87 639Q87 679 110 702T173 726Q211 726 231 705T252 646Q252 606 229 583T166 559Q128 559 108 579ZM320 559T300 579T279 639Q279 679 302 702T365 726Q403 726 423 705T444 646Q444
606 421 583T359 559Q320 559 300 579Z" />
<glyph unicode="&#xf7;" glyph-name="divide" horiz-adv-x="506" d="M206 344T186 365T165 425Q165 467 188 491T253 515Q290 515 311 494T332 434Q332 392 309 368T245 344Q206 344 186 365ZM15 189L33 324L262 323Q312 323 386 325T483 329L490 314L477 178L250
177L24 176L15 189ZM206 -17T186 4T165 64Q165 106 188 130T253 154Q290 154 311 133T332 73Q332 31 309 7T245 -17Q206 -17 186 4Z" />
<glyph unicode="&#xf8;" glyph-name="oslash" horiz-adv-x="539" d="M458 420Q514 359 514 248Q514 126 448 57T263 -12Q218 -12 176 1L83 -138L-12 -83L-16 -73L80 68Q33 131 33 225Q33 347 99 415T285 484Q325 484 354 477L438 607L535 553L537 540L458 420ZM301
95T311 115T321 191Q321 259 317 296T301 348T269 364Q243 364 233 344T223 271Q223 202 227 165T243 111T275 95Q301 95 311 115Z" />
<glyph unicode="&#xf9;" glyph-name="ugrave" horiz-adv-x="553" d="M56 349T50 358T27 367L1 366L9 449Q77 457 146 468T236 484L249 462Q237 439 229 363T221 196Q221 134 264 134Q281 134 310 150V323Q310 351 304 357T274 366H265L278 448Q342 456 411 466T501
480L515 458Q501 435 492 351T482 163Q482 147 490 138T511 128Q521 128 531 131T544 136L561 110Q561 108 541 81T494 26T438 -12Q334 -12 321 61L310 67Q282 31 261 11T229 -10Q140 -10 94 24T47 126L56 325Q56 349 50 358ZM276 563T212 597T129 642L127 659L199
760H216Q232 745 288 695T403 593L362 532L340 525Q276 563 212 597Z" />
<glyph unicode="&#xfa;" glyph-name="uacute" horiz-adv-x="553" d="M56 349T50 358T27 367L1 366L9 449Q77 457 146 468T236 484L249 462Q237 439 229 363T221 196Q221 134 264 134Q281 134 310 150V323Q310 351 304 357T274 366H265L278 448Q342 456 411 466T501
480L515 458Q501 435 492 351T482 163Q482 147 490 138T511 128Q521 128 531 131T544 136L561 110Q561 108 541 81T494 26T438 -12Q334 -12 321 61L310 67Q282 31 261 11T229 -10Q140 -10 94 24T47 126L56 325Q56 349 50 358ZM218 527L174 586Q240 650 288 698T352
762L369 763L446 666L445 649Q427 639 365 601T240 521L218 527Z" />
<glyph unicode="&#xfb;" glyph-name="ucircumflex" horiz-adv-x="553" d="M56 349T50 358T27 367L1 366L9 449Q77 457 146 468T236 484L249 462Q237 439 229 363T221 196Q221 134 264 134Q281 134 310 150V323Q310 351 304 357T274 366H265L278 448Q342 456 411
466T501 480L515 458Q501 435 492 351T482 163Q482 147 490 138T511 128Q521 128 531 131T544 136L561 110Q561 108 541 81T494 26T438 -12Q334 -12 321 61L310 67Q282 31 261 11T229 -10Q140 -10 94 24T47 126L56 325Q56 349 50 358ZM142 541L96 603Q145 646 196
695T263 759H290Q305 744 356 695T456 603L411 541L388 534Q350 560 276 603Q208 564 165 534L142 541Z" />
<glyph unicode="&#xfc;" glyph-name="udieresis" horiz-adv-x="553" d="M56 349T50 358T27 367L1 366L9 449Q77 457 146 468T236 484L249 462Q237 439 229 363T221 196Q221 134 264 134Q281 134 310 150V323Q310 351 304 357T274 366H265L278 448Q342 456 411
466T501 480L515 458Q501 435 492 351T482 163Q482 147 490 138T511 128Q521 128 531 131T544 136L561 110Q561 108 541 81T494 26T438 -12Q334 -12 321 61L310 67Q282 31 261 11T229 -10Q140 -10 94 24T47 126L56 325Q56 349 50 358ZM136 559T116 579T95 639Q95
679 118 702T181 726Q219 726 239 705T260 646Q260 606 237 583T174 559Q136 559 116 579ZM328 559T308 579T287 639Q287 679 310 702T373 726Q411 726 431 705T452 646Q452 606 429 583T367 559Q328 559 308 579Z" />
<glyph unicode="&#xfd;" glyph-name="yacute" horiz-adv-x="486" d="M58 -242T31 -222T-17 -175T-39 -134L-29 -115Q116 -92 180 -18L151 58Q119 142 84 230T34 345Q23 365 12 373T-17 383L-19 388L-11 472H61Q115 472 182 474T249 479L251 474L240 386Q218 384
211 379T203 363Q203 345 222 273T249 176H267Q329 346 329 368Q329 378 326 380T308 383H292L288 390L299 474Q310 474 342 473T410 472H511L502 384Q481 378 473 371T457 345L330 31Q279 -95 210 -168T72 -242Q58 -242 31 -222ZM214 527L170 586Q236 650 284
698T348 762L365 763L442 666L441 649Q423 639 361 601T236 521L214 527Z" />
<glyph unicode="&#xfe;" glyph-name="thorn" horiz-adv-x="516" d="M-2 -148Q25 -146 34 -137T44 -96L50 55V565Q50 594 45 606T23 622T-29 624L-20 706L68 718L248 742L257 716Q233 694 226 420Q255 440 284 459T321 479Q410 479 459 420T508 251Q508 132 439
63T252 -7L220 -6L219 -96Q219 -124 227 -134T259 -145Q267 -145 301 -141L304 -146L290 -234Q188 -230 130 -230Q79 -230 -14 -235L-2 -148ZM320 106T320 210Q320 283 306 318T260 353Q248 353 237 350T222 343V115L268 106Q320 106 320 210Z" />
<glyph unicode="&#xff;" glyph-name="ydieresis" horiz-adv-x="486" d="M58 -242T31 -222T-17 -175T-39 -134L-29 -115Q116 -92 180 -18L151 58Q119 142 84 230T34 345Q23 365 12 373T-17 383L-19 388L-11 472H61Q115 472 182 474T249 479L251 474L240 386Q218
384 211 379T203 363Q203 345 222 273T249 176H267Q329 346 329 368Q329 378 326 380T308 383H292L288 390L299 474Q310 474 342 473T410 472H511L502 384Q481 378 473 371T457 345L330 31Q279 -95 210 -168T72 -242Q58 -242 31 -222ZM132 559T112 579T91 639Q91
679 114 702T177 726Q215 726 235 705T256 646Q256 606 233 583T170 559Q132 559 112 579ZM324 559T304 579T283 639Q283 679 306 702T369 726Q407 726 427 705T448 646Q448 606 425 583T363 559Q324 559 304 579Z" />
<glyph unicode="&#x2013;" glyph-name="endash" horiz-adv-x="448" d="M-12 217L-1 322L242 321L451 324L461 305L447 199L-1 198L-12 217Z" />
<glyph unicode="&#x2014;" glyph-name="emdash" horiz-adv-x="830" d="M-12 217L-1 322H406H605Q814 322 833 324L843 305L829 199L-1 198L-12 217Z" />
<glyph unicode="&#x2018;" glyph-name="quoteleft" horiz-adv-x="263" d="M89 340T64 372T39 452Q39 499 72 556T162 663L228 630L233 606Q213 586 202 560T190 509Q190 484 203 460T237 420V406Q209 374 181 357T126 340Q89 340 64 372Z" />
<glyph unicode="&#x2019;" glyph-name="quoteright" horiz-adv-x="263" d="M35 373L30 397Q50 417 61 443T73 494Q73 519 60 543T26 583V597Q54 629 82 646T137 663Q174 663 199 631T224 551Q224 504 191 447T101 340L35 373Z" />
<glyph unicode="&#x201a;" glyph-name="quotesinglbase" horiz-adv-x="238" d="M-8 -76V-51Q21 -30 38 -1T56 55Q56 75 48 96T27 131L30 145Q57 166 84 177T132 189Q170 189 193 162T217 88Q217 35 172 -21T50 -122L-8 -76Z" />
<glyph unicode="&#x201c;" glyph-name="quotedblleft" horiz-adv-x="478" d="M304 340T279 372T254 452Q254 499 287 556T377 663L443 630L448 606Q428 586 417 560T405 509Q405 484 418 460T452 420V406Q424 374 396 357T341 340Q304 340 279 372ZM89 340T64
372T39 452Q39 499 72 556T162 663L228 630L233 606Q213 586 202 560T190 509Q190 484 203 460T237 420V406Q209 374 181 357T126 340Q89 340 64 372Z" />
<glyph unicode="&#x201d;" glyph-name="quotedblright" horiz-adv-x="478" d="M250 373L245 397Q265 417 276 443T288 494Q288 519 275 543T241 583V597Q269 629 297 646T352 663Q389 663 414 631T439 551Q439 504 406 447T316 340L250 373ZM35 373L30 397Q50
417 61 443T73 494Q73 519 60 543T26 583V597Q54 629 82 646T137 663Q174 663 199 631T224 551Q224 504 191 447T101 340L35 373Z" />
<glyph unicode="&#x201e;" glyph-name="quotedblbase" horiz-adv-x="447" d="M-8 -76V-51Q21 -30 38 -1T56 55Q56 75 48 96T27 131L30 145Q57 166 84 177T132 189Q170 189 193 162T217 88Q217 35 172 -21T50 -122L-8 -76ZM201 -76V-51Q230 -30 247 -1T265 55Q265
75 257 96T236 131L239 145Q266 166 293 177T341 189Q379 189 402 162T426 88Q426 35 381 -21T259 -122L201 -76Z" />
<glyph unicode="&#x2022;" glyph-name="bullet" horiz-adv-x="340" d="M104 109T72 141T40 236Q40 300 76 337T176 374Q235 374 267 341T299 248Q299 183 263 146T165 109Q104 109 72 141Z" />
<glyph unicode="&#x2039;" glyph-name="guilsinglleft" horiz-adv-x="270" d="M132 94T83 148T19 219V246Q34 262 83 316T175 422L237 387L244 364Q227 335 208 298T184 251Q178 237 175 232Q217 148 244 101L237 78L175 42Q132 94 83 148Z" />
<glyph unicode="&#x203a;" glyph-name="guilsinglright" horiz-adv-x="270" d="M33 77L26 100Q43 129 62 166T86 213Q92 227 95 232Q53 316 26 363L33 386L95 422Q138 369 187 315T251 245V218Q236 202 187 148T95 42L33 77Z" />
</font>
</defs>
</svg>
