<?xml version="1.0" standalone="no"?>
<!DOCTYPE svg PUBLIC "-//W3C//DTD SVG 1.1//EN" "http://www.w3.org/Graphics/SVG/1.1/DTD/svg11.dtd" >
<svg xmlns="http://www.w3.org/2000/svg" xmlns:xlink="http://www.w3.org/1999/xlink" version="1.1">
<metadata></metadata>
<defs>
<font id="kalambold" horiz-adv-x="1292" >
<font-face units-per-em="2048" ascent="1638" descent="-410" />
<missing-glyph horiz-adv-x="788" />
<glyph unicode="&#xfb01;" horiz-adv-x="1060" d="M733 1370q-49 0 -88 -112.5t-84 -313.5q188 12 367 12q154 0 153 -112q0 -49 -28.5 -134t-91 -259.5t-113.5 -344.5q-14 -49 -37 -64t-69 -15t-76.5 38.5t-30.5 99t58.5 292t66.5 280.5q-53 -4 -256 -37q-104 -444 -146.5 -558.5t-93.5 -114.5q-35 0 -88 62.5t-53 98 t14 78.5q61 176 101 387q-76 -12 -122 -12t-91 49t-45 107q0 39 70.5 67.5t232.5 53.5q68 387 168 544.5t297 157.5q111 0 246.5 -92t135.5 -213q0 -84 -26.5 -134.5t-69.5 -50.5t-88 38t-78 81q-92 121 -135 121z" />
<glyph unicode="&#xfb02;" horiz-adv-x="1054" d="M150 729q-61 0 -106.5 55.5t-45.5 102.5q0 84 211 94q25 190 27 335.5t81.5 224.5t194.5 79t176.5 -61.5t61.5 -135.5q0 -39 -20.5 -67.5t-52.5 -28.5t-63.5 21.5t-54.5 21.5q-31 0 -50.5 -58.5t-19.5 -142.5t-6 -170q356 61 357 263q0 104 25.5 231t72.5 127 q78 0 136.5 -52t58.5 -137t-33 -301.5t-84 -467t-127 -444t-150 -193.5q-49 0 -89 50t-40 113.5t72 260t113 415.5q-135 -104 -342 -125q-43 -293 -112 -502.5t-151 -209.5q-41 0 -88 53t-47 117q0 18 36 153t79 379h-20z" />
<glyph horiz-adv-x="0" />
<glyph horiz-adv-x="0" />
<glyph unicode="&#xd;" horiz-adv-x="788" />
<glyph unicode=" "  horiz-adv-x="788" />
<glyph unicode="&#x09;" horiz-adv-x="788" />
<glyph unicode="&#xa0;" horiz-adv-x="788" />
<glyph unicode="!" horiz-adv-x="978" d="M264 316.5q47 54.5 94.5 54.5t109.5 -110.5t62 -166.5q0 -27 -33.5 -59.5t-66.5 -32.5q-61 0 -137 76t-76 130t47 108.5zM428 1626q0 59 63.5 59.5t169 -90t105.5 -131.5q0 -135 -95.5 -558t-164.5 -423q-55 0 -108.5 57.5t-55.5 118.5q-4 23 16.5 132.5t45 338 t24.5 496.5z" />
<glyph unicode="&#x22;" horiz-adv-x="991" d="M705 1776q0 31 33.5 30.5t100 -50.5t66.5 -70q0 -123 -39 -364t-98 -241q-25 0 -62.5 32t-37.5 63q0 4 18.5 218t18.5 382zM276 1776q0 31 33 30.5t99.5 -50.5t66.5 -70q0 -125 -38 -365t-99 -240q-25 0 -61.5 32t-36.5 63q0 4 18 218t18 382z" />
<glyph unicode="#" horiz-adv-x="1597" d="M874 1194q131 8 185 8q33 168 33 271q0 59 61 59q55 0 139 -67.5t84 -143.5q0 -35 -18 -115h12q145 0 169 -19.5t28 -29.5t4 -31q0 -80 -266 -120q-35 -127 -111 -392h84q94 0 141 -12t54.5 -25.5t7.5 -41.5q0 -88 -344 -132q-57 -205 -105.5 -308t-99.5 -103 q-37 0 -60.5 52t-25.5 122q-14 31 26 209q-156 -18 -237 -33q-51 -184 -85 -267t-75 -83q-45 0 -76.5 65.5t-33.5 155.5q-8 14 4 90q-133 -20 -152 -20q-35 -2 -62.5 53t-27.5 110q0 80 307 123q59 231 84 336q-188 -31 -219 -31t-58.5 54.5t-27.5 109.5q0 86 362 129 q35 195 35 306q4 59 61.5 59t141.5 -67.5t84 -143.5q0 -37 -23 -127zM707 596q129 12 219 12q53 211 86 365q-51 -6 -205 -27q-22 -84 -100 -350z" />
<glyph unicode="$" horiz-adv-x="1212" d="M430 262q63 260 86 369q-160 106 -250 194t-90 169t19.5 154t46.5 107q61 74 208.5 148t286.5 113q80 213 142 213q68 -4 63 -115q0 -45 -12 -92q51 -33 84 -112t33 -142.5t-43 -63.5q-14 0 -45 10.5t-59 10.5t-56 -4q-61 -217 -111 -400q356 -242 359 -465 q2 -162 -178.5 -264t-399.5 -121q-47 -152 -86 -151q-27 2 -48.5 29.5t-20.5 46t10 79.5q-137 27 -221.5 125.5t-84.5 216t56 117.5q61 0 125 -86q25 -33 69.5 -59.5t98.5 -26.5h18zM446 1036q0 -27 134 -114q12 55 53 235q-187 -80 -187 -121zM815 375q0 55 -156 162 q-43 -160 -67 -267q223 23 223 105z" />
<glyph unicode="%" horiz-adv-x="2029" d="M1589 838q82 0 144.5 -72t88 -151.5t25.5 -143.5q0 -170 -127 -321.5t-295 -151.5q-100 0 -168.5 113.5t-68.5 248t123.5 306.5t277.5 172zM1432 369q0 -125 51 -125q29 0 79 63.5t50 149.5q0 70 -17.5 100.5t-25.5 30.5q-39 0 -88 -80t-49 -139zM1548 1626 q43 0 91.5 -86t35 -137t-54.5 -112.5t-94 -131.5q-233 -301 -398 -524q-373 -494 -448.5 -576t-93.5 -77q-45 10 -79 50t-26 76.5t59.5 119.5t146.5 218.5t173 243.5q283 387 389 533q-106 -55 -227 -82t-197 -13q6 -37 6 -65q0 -172 -128 -323.5t-295 -151.5 q-100 0 -169 113.5t-69 247.5t125 306t278 172q51 0 78 -16t45 -29q45 -27 82 -36q78 -18 205 21.5t236 98.5q298 160 329 160zM416 958q0 -125 51 -124q29 0 79 64.5t50 150.5q0 72 -18.5 101.5t-26.5 29.5q-37 0 -86 -81.5t-49 -140.5z" />
<glyph unicode="&#x26;" horiz-adv-x="1609" d="M1006 322q131 -94 252.5 -94.5t162.5 -13.5t41 -52q0 -68 -67.5 -106t-190.5 -38q-195 0 -395 179q-338 -203 -506 -203q-96 0 -196.5 106.5t-100.5 184.5q0 68 121 182q102 98 189 171t96.5 81t17.5 14q-90 205 -93 368t124 274.5t319 111.5q166 0 236 -154 q35 -80 35 -155q0 -197 -326 -500q35 -74 94 -162q72 47 225 154q274 193 308 192q100 0 100 -110q0 -55 -128 -176t-318 -254zM764 1130q-4 109 -70 109q-35 0 -55 -43q-41 -80 0 -272q125 128 125 206zM299 240q80 0 330 153q-31 39 -84 121q-213 -184 -235.5 -216 t-22.5 -45t12 -13z" />
<glyph unicode="'" horiz-adv-x="450" d="M305 1776q0 31 34 30.5t111.5 -50.5t77.5 -70q0 -43 -27.5 -193t-74.5 -289t-84 -123q-25 0 -61.5 32t-36.5 63q0 6 30.5 224t30.5 376z" />
<glyph unicode="(" horiz-adv-x="978" d="M1137 1780q43 -39 43 -84t-55.5 -100.5t-138.5 -115t-180 -153.5t-180 -199.5t-138.5 -263t-55.5 -312.5t53.5 -259.5t130 -165.5t153.5 -109.5t130 -91.5t53 -84q0 -47 -67 -47q-178 0 -347 98.5t-278.5 278.5t-109.5 387t70.5 406.5t177 349t229.5 266.5t231.5 177.5 t172 60.5t106.5 -39z" />
<glyph unicode=")" horiz-adv-x="1085" d="M932 1262q0 -256 -79 -498t-196.5 -413t-251 -303t-244 -197.5t-157.5 -65.5q-82 0 -82 49q0 59 189 232q178 168 348 426q80 123 133 292.5t53 314t-32.5 224.5t-79 123t-93.5 75.5t-79.5 68.5t-32.5 97.5t44 101.5t124 40q164 0 300 -179t136 -388z" />
<glyph unicode="*" horiz-adv-x="768" d="M473 1421l-6 195q0 35 26.5 35t70.5 -33t44 -52.5t-16.5 -72.5t-18.5 -63q35 20 97.5 75.5t79 55.5t45 -24t28.5 -50.5t-221 -130.5q23 -20 73 -50t86 -51.5t36 -31.5q0 -16 -18.5 -28.5t-41 -12.5t-82 29.5t-100.5 64.5q-10 -70 -32.5 -145.5t-43 -75.5t-42 20.5 t-21.5 35.5t8 51t19.5 76t13.5 50q-37 -35 -110 -71.5t-94.5 -36.5t-43 19.5t-21.5 35.5q0 12 48.5 33.5t112 48t87.5 43.5q-80 33 -158.5 96.5t-78.5 90t22 26.5q49 0 106.5 -17.5t57.5 -42.5q0 -14 29.5 -45t58.5 -47z" />
<glyph unicode="+" horiz-adv-x="1228" d="M575 1171q0 66 60 66q63 0 157.5 -85t94.5 -131t-35 -206q129 6 205 6q240 0 239 -59q0 -129 -499 -184l-6 -31q-59 -252 -85 -327t-61 -75q-47 0 -108.5 60.5t-61.5 118.5q0 4 43 231q-147 -8 -250 -8q-63 0 -109 60.5t-46 116.5t63 56q147 0 338 19l41 2q20 177 20 370 z" />
<glyph unicode="," horiz-adv-x="536" d="M453 39q0 -162 -125 -331t-226 -169q-61 0 -61 43q0 20 43 82q129 180 129 275q0 43 -37 75.5t-72.5 58t-35.5 62.5t58 96.5t128 59.5t134.5 -80t64.5 -172z" />
<glyph unicode="-" horiz-adv-x="1087" d="M1018 686q0 -53 -125 -88q-98 -29 -225 -54.5t-213 -47.5q-180 -43 -221 -43t-86.5 56t-45.5 107q0 57 239 98.5t521 41.5q156 0 156 -70z" />
<glyph unicode="." horiz-adv-x="485" d="M295 -10q-66 0 -146.5 80t-80.5 138t51 116.5t103 58.5t118 -114.5t66 -174.5q0 -31 -38 -67.5t-73 -36.5z" />
<glyph unicode="/" horiz-adv-x="577" d="M150 -164q-45 0 -102.5 72t-57.5 129t117.5 368.5t281.5 720t192.5 490.5t32.5 94q10 33 19 35q18 10 33 10q41 0 118.5 -98t77.5 -164q0 -61 -44 -172t-79 -191q-147 -342 -223 -530q-315 -764 -366 -764z" />
<glyph unicode="0" horiz-adv-x="1050" d="M770 1067q0 195 -55 195q-35 0 -92.5 -73t-114.5 -182.5t-98 -257t-41 -278.5q0 -197 65 -197q55 0 135 136.5t140.5 328t60.5 328.5zM686 138.5q-121 -111.5 -260 -111.5t-248.5 146t-109.5 317.5t59 367t151.5 342t208 238.5t224.5 92q162 0 256 -115t94 -328 q0 -145 -48 -327t-127 -346t-200 -275.5z" />
<glyph unicode="1" horiz-adv-x="618" d="M608 1327q0 -129 -36.5 -289.5t-69.5 -285.5t-58.5 -242t-43 -189.5t-40.5 -148.5q-45 -145 -98 -145q-47 0 -107.5 60t-60.5 109.5t45 225.5t91 461.5t46 595.5q0 59 60.5 59t166 -86t105.5 -125z" />
<glyph unicode="2" horiz-adv-x="1193" d="M371 305q367 68 556 68t189 -82q0 -78 -324.5 -168t-498.5 -90q-72 0 -174.5 92t-102.5 164q0 47 263 262q109 90 217 189.5t185 204t77 187t-78 82.5q-59 0 -105.5 -44t-72 -88t-37.5 -44q-53 0 -134 58.5t-81 101.5q0 117 124 222.5t299 105.5t275.5 -107.5 t100.5 -273.5q0 -223 -191.5 -448.5t-486.5 -391.5z" />
<glyph unicode="3" horiz-adv-x="1120" d="M313 727v8q0 25 23 41q27 33 104.5 90.5t146 107.5t124 119.5t55.5 135.5q0 25 -18 24q-68 0 -193 -66.5t-160 -66.5t-110.5 73t-75.5 107q0 57 96 111.5t220 84.5t218 30q135 0 234.5 -98.5t99.5 -207t-91 -224t-226 -208.5q287 -63 287 -260q0 -125 -144.5 -244.5 t-349.5 -189t-387 -69.5q-221 0 -221 96q0 53 368 162q137 39 253 106.5t116 138.5q0 39 -41 60.5t-92 27.5q-156 18 -203 56q-33 20 -33 55z" />
<glyph unicode="4" horiz-adv-x="1116" d="M856 1186q51 0 138 -76t87 -125q0 -119 -145 -570.5t-219 -451.5q-39 0 -87 58.5t-48 99.5t10 87t21.5 86t35 113.5t37.5 118.5q-147 -51 -289.5 -51t-221.5 78t-79 209q0 94 101.5 286.5t224.5 346t175 153.5t108.5 -51t56.5 -95t-191.5 -316.5t-191.5 -321.5 q0 -20 8 -26.5t37 -6.5q70 0 201 55.5t141 57.5q27 145 27 280q0 62 63 62z" />
<glyph unicode="5" horiz-adv-x="1036" d="M805 1513q375 0 375 -90q0 -39 -64 -67q-76 -37 -183.5 -61.5t-172 -39t-101 -23.5t-72.5 -85t-36 -119t40 -90t97 -92t115 -94q137 -117 137 -238q0 -186 -183.5 -341t-359.5 -155t-300 95.5t-124 216.5q0 39 14.5 67.5t39 28.5t63.5 -37q121 -115 215 -115t203.5 78 t109.5 156q0 70 -137 162q-57 39 -113.5 84t-96.5 114.5t-40 168t98.5 273.5t180.5 189t295 14z" />
<glyph unicode="6" horiz-adv-x="1110" d="M909.5 797q139.5 -90 139.5 -206t-103.5 -247t-268.5 -220t-317.5 -89t-242.5 95t-90 231.5t95 341t220 382t250 306.5t186.5 129t127 -34t65.5 -75q0 -25 -51.5 -93.5t-160 -197.5t-171.5 -211q182 -22 321.5 -112zM385 299q129 0 231.5 87t102.5 183q0 51 -69.5 96.5 t-190.5 65.5q-143 -217 -144 -344q0 -88 70 -88z" />
<glyph unicode="7" horiz-adv-x="966" d="M684 1245l-326 -28q-51 0 -117.5 88t-66.5 135q0 78 440 78q246 0 279 -31q47 -43 89 -128t42 -157q0 -41 -44 -123t-68.5 -126t-70.5 -120.5t-84 -141t-103.5 -186.5t-107.5 -201t-87 -154q-86 -150 -132 -150t-92.5 57.5t-46.5 122t89.5 230t193.5 327.5 q285 432 285 488q0 20 -72 20z" />
<glyph unicode="8" horiz-adv-x="1208" d="M1214 1223q0 -190 -342 -490q164 -168 164 -330q0 -141 -191.5 -256.5t-381.5 -115.5q-88 0 -204 86t-116 184q0 180 320 447q-96 74 -150.5 119.5t-103.5 110t-49 121t19.5 121t51.5 64.5q23 0 45.5 -18.5t57.5 -59.5t55.5 -62.5t60 -55t62.5 -53t82 -65.5t72 -57 q131 104 199.5 175t68.5 127.5t-70 56.5q-92 0 -203.5 -61.5t-149.5 -61.5t-91 39t-53 80q0 102 140 180t359 78q160 0 254 -75.5t94 -227.5zM750 453q0 49 -74 118q-193 -150 -230 -202q-18 -23 -18 -38.5t25.5 -36t35.5 -20.5q76 0 168.5 53.5t92.5 125.5z" />
<glyph unicode="9" horiz-adv-x="1036" d="M1022 1014q0 -61 -51 -135q-61 -150 -84 -219.5t-74 -265t-88 -298t-74 -102.5q-92 0 -92 233q0 156 53 379q-88 -35 -159 -35q-96 0 -207 116t-111 206q0 147 80 301t203 253t248 99t190.5 -96t65.5 -217q0 -70 -11 -113q86 -16 103 -80q8 -10 8 -26zM674 1042l8 140 q0 37 -14.5 70.5t-30.5 33.5q-49 0 -151.5 -147.5t-102.5 -247.5q0 -31 27.5 -57.5t66.5 -26.5t91.5 33.5t81 64.5t81.5 92q-57 12 -57 45z" />
<glyph unicode=":" horiz-adv-x="503" d="M468 619.5q-26 -33.5 -74 -33.5t-127 121.5t-79 186t36 135.5t71 71q78 0 138.5 -151.5t60.5 -223.5t-26 -105.5zM376.5 14.5q-26.5 -34.5 -74.5 -34.5t-127 121.5t-79 186t36 135.5t71 71q78 0 139 -152t61 -246q0 -47 -26.5 -81.5z" />
<glyph unicode=";" horiz-adv-x="626" d="M455 53q0 -162 -125 -330.5t-226 -168.5q-61 0 -61 43q0 20 43 79q129 182 129 277q0 63 -72.5 106t-72.5 85t58 101.5t128 59.5t134.5 -80t64.5 -172zM457 586q-55 0 -133 120.5t-78 186t34.5 136.5t69.5 71q55 0 103.5 -82t73 -172t24.5 -140.5t-26.5 -85t-67.5 -34.5z " />
<glyph unicode="&#x3c;" horiz-adv-x="972" d="M891 1241q51 0 93 -61.5t42 -101.5t-53 -66q-164 -76 -392.5 -219.5t-228.5 -182.5t81 -104.5t179 -124.5q260 -162 260 -224.5t-93 -62.5t-273 82t-333 199t-153 198q0 41 18.5 111t43.5 90q131 119 410.5 293t398.5 174z" />
<glyph unicode="=" horiz-adv-x="1376" d="M987 641q219 0 219 -62.5t-139 -115.5t-377.5 -84t-443.5 -31q-37 0 -78 65.5t-41 108.5q0 33 365.5 76t494.5 43zM852 999q207 0 313.5 -17t106.5 -73q0 -94 -465 -137q-319 -31 -475 -31q-37 0 -78 65.5t-41 108.5q0 84 639 84z" />
<glyph unicode="&#x3e;" horiz-adv-x="1261" d="M264 1190q0 53 47 53q184 0 399.5 -126t366.5 -277q86 -86 86 -142q0 -78 -79.5 -153.5t-297 -212.5t-322 -186.5t-189.5 -49.5t-85 72q0 51 105.5 138t232.5 161q336 201 336 244q0 31 -159.5 131t-260.5 133q-45 14 -112.5 95t-67.5 120z" />
<glyph unicode="?" horiz-adv-x="1245" d="M575 2q-61 0 -137 76t-76 130t47.5 108.5t94.5 54.5t109.5 -110.5t62.5 -166.5q0 -27 -34 -59.5t-67 -32.5zM584.5 1547q113.5 95 256 95t238 -86t95.5 -235q0 -90 -51.5 -179t-116.5 -149q-190 -172 -238 -270q-57 -127 -76 -160q-33 -59 -74 -59q-74 0 -73 194 q0 74 36.5 145.5t90 126t106.5 105.5q127 123 127 211q0 33 -24.5 52.5t-65.5 19.5t-70.5 -25.5t-29.5 -75t-31 -63.5q-49 -25 -72.5 -25t-82 62.5t-58.5 99.5q0 121 113.5 216z" />
<glyph unicode="@" horiz-adv-x="2207" d="M1356 1571q301 0 500.5 -185.5t199.5 -492.5q0 -152 -68.5 -295t-168 -238.5t-208 -152.5t-192.5 -57q-150 0 -190 167q-195 -190 -314 -190q-86 0 -188 97.5t-102 191.5t81.5 251.5t226 290t288.5 132.5q88 0 196.5 -94.5t108.5 -204.5q0 -49 -35 -113q49 -49 49 -92 t-15.5 -96.5t-15.5 -57.5t7.5 -4t34 19.5t65.5 59.5t74.5 91t60.5 126t25 153q0 205 -115 313t-303.5 108t-368.5 -90t-306 -231t-203 -315.5t-77 -355.5t86 -281.5t266.5 -100.5t354.5 43t188 43q47 0 48 -53q0 -76 -96.5 -146.5t-225.5 -109.5t-233 -39 q-272 0 -483.5 192.5t-211.5 464.5q0 352 228 678q250 358 612 498q201 76 420 76zM899 373q59 0 206.5 112.5t176.5 251.5q2 10 14 23q-31 72 -61 71q-70 0 -158 -91t-145.5 -191t-57.5 -138t25 -38z" />
<glyph unicode="A" horiz-adv-x="1290" d="M1042 795q82 0 118 -15.5t36 -56.5q0 -55 -178 -113q4 -156 4 -298t-22.5 -212.5t-71.5 -70.5t-77 50t-45.5 164.5t-35.5 303.5q-209 -47 -301 -76q-160 -442 -213 -442q-43 0 -113.5 57t-70.5 119q0 35 80 217q-35 23 -60.5 64.5t-25.5 80.5q0 68 202 129 q16 41 33.5 93.5t88.5 245t112 321.5q18 61 127.5 114.5t171.5 53.5q72 0 128 -199t79 -530h34zM569 760q61 8 179 20q-6 59 -19.5 202.5t-19.5 207.5q-36 -115 -140 -430z" />
<glyph unicode="B" horiz-adv-x="1277" d="M1157 532q0 -127 -140 -249.5t-340 -195.5t-380 -73q-78 0 -182.5 95.5t-104.5 156.5q0 35 15.5 55.5t36 20.5t91 -34t106.5 -34t71 7q-51 20 -102.5 71t-51.5 99q0 20 67.5 297.5t71.5 474.5q-37 35 -66.5 85t-29.5 74q0 57 90 92t226 35q287 0 459.5 -75.5 t172.5 -241.5q0 -104 -88 -213t-231 -199l20 -6q123 -33 206 -97.5t83 -144.5zM795 1247q-63 0 -299 -45q74 -82 73.5 -136t-34.5 -200q33 25 116.5 72t105 62.5t58.5 46.5q70 55 70 127.5t-90 72.5zM899 541q0 41 -117.5 70.5t-195.5 29.5q-43 0 -92 64q-92 -379 -111 -416 q172 37 344 113t172 139z" />
<glyph unicode="C" horiz-adv-x="1263" d="M899 1530q57 0 125 -101.5t68 -167t-27 -65.5q-12 0 -52 8t-69 8q-102 0 -239.5 -131t-234.5 -313t-97 -315q0 -66 20.5 -95.5t73.5 -29.5q141 0 286.5 43t239.5 87t107.5 44t27 -23.5t13.5 -56.5q0 -70 -110.5 -165t-267.5 -162.5t-284 -67.5t-267 153.5t-140 292.5 q0 195 125 443.5t322.5 431t379.5 182.5z" />
<glyph unicode="D" horiz-adv-x="1363" d="M225 1530q160 0 349.5 -65.5t352.5 -172t272.5 -256t109.5 -303.5q0 -115 -185.5 -286t-429 -295.5t-399.5 -124.5q-35 0 -112 91t-77 134q0 84 112 468t138 527q-74 49 -123 118t-49 117t41 48zM1014 791q0 66 -121 173t-281 179q-12 -154 -174 -658q-8 -27 -25.5 -87 t-25.5 -81q201 68 414 229t213 245z" />
<glyph unicode="E" horiz-adv-x="1128" d="M508 887q109 0 233.5 11t154.5 11t47.5 -14t17.5 -35q0 -90 -170 -143t-363 -62q-80 -248 -80 -313q0 -35 35 -35q233 0 481 62q84 23 97 22q39 0 38 -55q0 -74 -108.5 -143.5t-272 -110.5t-321.5 -41q-94 0 -170 70.5t-76 166t105.5 478.5t111.5 577q-2 6 -2 25 q0 29 8 45q23 57 125.5 72.5t368.5 15.5q442 0 442 -98q0 -63 -108 -88q-74 -16 -203 -31q-199 -23 -354 -66q0 -139 -49 -321h12z" />
<glyph unicode="F" horiz-adv-x="1110" d="M430.5 1484.5q108.5 18.5 328.5 18.5t336.5 -35.5t116.5 -101.5q0 -31 -23.5 -44t-41 -20.5t-47 -13.5t-54 -11t-64.5 -9t-68.5 -7.5t-75.5 -8.5t-86 -9t-205 -31v-2q0 -74 -64 -391q27 -2 97.5 -2t185.5 11.5t150.5 11.5t60 -18.5t24.5 -41.5q0 -55 -65.5 -98 t-163.5 -68q-197 -49 -346 -53q-61 -260 -74.5 -318.5t-27.5 -111.5q-27 -104 -50 -104q-43 0 -116.5 96t-73.5 143q0 82 101.5 520.5t107.5 550.5v17q0 27 6 45q23 67 131.5 85.5z" />
<glyph unicode="G" horiz-adv-x="1222" d="M665.5 766q98.5 27 213 27t175 -92.5t60.5 -205t-95 -388t-165 -275.5q-29 0 -48.5 17.5t-19.5 44.5q0 147 82 421q-96 -123 -209.5 -198.5t-233.5 -75.5t-251 104.5t-131 229.5q0 221 131 490.5t332 460t379 190.5q61 0 127.5 -96.5t66.5 -176.5q0 -37 -26 -37 q-4 0 -39 8.5t-86 8.5q-137 0 -280.5 -140.5t-233.5 -345.5t-90 -385q0 -53 69 -53q96 0 236.5 86t216.5 193q-45 -2 -109.5 -2.5t-117 38.5t-52.5 82t98.5 70z" />
<glyph unicode="H" horiz-adv-x="1333" d="M301 27q-43 0 -121 97t-78 149.5t62 316.5q-49 49 -49 123q0 41 98 82q129 524 129 663q0 68 59 68q49 0 128 -98.5t79 -184.5q0 -55 -73 -369q176 31 350 37q98 412 98 547q0 68 59 68q49 0 128 -98.5t79 -184.5q0 -43 -80 -352q102 -25 103 -80q0 -63 -152 -100 q-74 -283 -96.5 -374t-33.5 -137t-23 -89q-23 -84 -43 -84q-49 0 -118 77.5t-69 155.5q0 45 86 399q-236 -39 -362 -71q-63 -244 -84 -339t-33 -138q-23 -84 -43 -84z" />
<glyph unicode="I" horiz-adv-x="632" d="M172 112q-70 85 -70 123.5t101.5 570t105.5 652.5q4 68 64 68q49 0 131 -98.5t82 -184.5q0 -37 -56.5 -277.5t-76 -335.5t-33.5 -170t-23 -118q-57 -262 -90 -301q-12 -14 -24 -14q-41 0 -111 85z" />
<glyph unicode="J" horiz-adv-x="995" d="M27 422q0 55 11 77.5t41 22.5t79 -57t111.5 -114.5t123.5 -57.5q47 0 94.5 131t100.5 337t67 275q33 162 47 197q-55 -12 -183 -29.5t-171 -17.5t-69.5 26.5t-26.5 63.5q0 74 156.5 133t313.5 83t216 24q115 0 115 -74q0 -31 -74 -256t-90 -295q-111 -469 -166 -606 q-86 -215 -221 -250q-33 -8 -66 -8q-145 0 -277 140t-132 255z" />
<glyph unicode="K" horiz-adv-x="1232" d="M244 27h-4q-45 0 -113 83t-68 145t120 560t120 629q0 82 59 82q49 0 119 -97.5t70 -185.5q0 -53 -53 -272q168 223 315 373.5t201.5 150.5t110 -46t55.5 -80t-104.5 -132t-258.5 -249.5t-238 -282.5q0 -158 183 -318q55 -47 147 -97t144.5 -86t52.5 -73 q0 -104 -147.5 -104t-317.5 119.5t-254 318.5q-53 -152 -65.5 -220.5t-17.5 -91t-9 -36t-8 -29.5t-8.5 -25.5t-8.5 -17.5q-12 -18 -22 -18z" />
<glyph unicode="L" horiz-adv-x="1118" d="M446 1556q51 0 125 -67.5t74 -138.5q0 -197 -203 -762q-70 -199 -69 -277q0 -10 4 -12t75.5 -2t197.5 21.5t205 42t93 20.5q51 0 51 -66q0 -129 -195.5 -207.5t-453.5 -78.5q-100 0 -183 74.5t-83 164.5t151.5 582.5t151.5 638.5q0 67 59 67z" />
<glyph unicode="M" horiz-adv-x="1548" d="M367 1526q39 0 152.5 -83t113.5 -124q0 -72 47 -235.5t108 -297.5q61 72 208 265.5t247 306t149.5 112.5t102.5 -55t53 -110.5t-16 -142.5t-35.5 -161.5t-55.5 -203.5t-55.5 -204t-40 -160t-31.5 -133t-24.5 -100.5t-24 -80t-22.5 -49.5q-23 -43 -63.5 -43t-80.5 80.5 t-40 168.5q0 217 125 576q-35 -45 -100.5 -132t-97.5 -127t-79 -93q-84 -92 -164 -92q-106 0 -151 84q-23 43 -60.5 193.5t-54.5 207.5q-27 -211 -72 -383t-59 -225.5t-39 -128.5q-41 -129 -74 -129q-37 0 -101 97t-64 152.5t119.5 553t119.5 628.5q1 68 60 68z" />
<glyph unicode="N" d="M1073 1536q59 0 132 -61.5t73 -100.5q0 -129 -60.5 -447.5t-154.5 -609t-170 -290.5q-31 0 -80 33.5t-65.5 79.5t-63.5 192q-109 334 -205 553q-14 -61 -37.5 -174t-38 -177.5t-35 -155.5t-36 -144.5t-33.5 -106.5q-33 -100 -61 -100q-41 0 -106.5 74.5t-65.5 129 t117.5 570.5t127.5 647q6 78 47 78q35 0 89.5 -41t94.5 -99.5t144.5 -380t165.5 -460.5q80 238 147 717q27 190 35 232t39 42z" />
<glyph unicode="O" horiz-adv-x="1267" d="M864 646q88 161 88 308.5t-36.5 227.5t-102 80t-171 -118t-190.5 -308.5t-85 -364.5q0 -88 24.5 -142.5t61.5 -54.5q86 0 204.5 105.5t206.5 266.5zM455 27q-152 0 -270.5 148.5t-118.5 295.5q0 188 71.5 386t179 342t236.5 237.5t238 93.5q199 0 325.5 -169t126.5 -380 t-106.5 -427t-293.5 -371.5t-388 -155.5z" />
<glyph unicode="P" horiz-adv-x="1124" d="M223 37q-47 0 -112.5 79t-65.5 128t49 202q152 471 162 826q-70 74 -70 117q0 68 161 128t306 60q246 0 388.5 -114.5t142.5 -293.5q0 -227 -222.5 -411.5t-560.5 -251.5q-96 -346 -125.5 -407.5t-52.5 -61.5zM893 1163q0 66 -47 108t-127 42t-221 -76q41 -72 41 -129 q0 -113 -60 -334q184 74 299 177t115 212z" />
<glyph unicode="Q" horiz-adv-x="1349" d="M1157 1357q162 -173 162 -379t-98.5 -424t-257.5 -361q16 -47 42.5 -119t41 -112t30.5 -89q29 -92 29 -140t-16.5 -66.5t-59.5 -18.5q-123 0 -285 411q-88 -33 -174 -32q-160 0 -332.5 152.5t-172.5 291.5q0 188 71.5 386t179 342t236.5 237.5t238 93.5q204 0 366 -173z M815 1262h-6q-37 -29 -37 -60q0 -340 94 -698q162 229 162 440q0 147 -70.5 232.5t-142.5 85.5zM520 946v25q-154 -260 -153 -500q0 -80 76.5 -138.5t121.5 -58.5t97 29q-61 195 -101.5 379t-40.5 264z" />
<glyph unicode="R" horiz-adv-x="1230" d="M1161 100q0 -84 -117 -84q-160 0 -334.5 166t-248.5 346q-33 -98 -45.5 -133t-37 -110.5t-37.5 -112.5t-30 -78q-31 -78 -59 -78q-47 0 -113.5 79t-66.5 128t47 183q139 408 160 743q-39 31 -70 86t-31 92q0 61 159 129t366.5 68t347 -98.5t139.5 -256.5 q0 -117 -68.5 -224t-149.5 -167.5t-149.5 -110t-68.5 -63.5q0 -49 32.5 -93t92 -102.5t102.5 -98.5t70.5 -66.5t54.5 -55.5q55 -53 55 -88zM874 1149q0 86 -167 86q-80 0 -191 -45q51 -78 51 -143q0 -119 -32 -263q23 16 84 58.5t95 68t77 66.5q83 80 83 172z" />
<glyph unicode="S" horiz-adv-x="1130" d="M1022 451q0 -174 -166 -299t-379 -125t-343 105.5t-130 218t64 112.5q49 0 102 -49t119.5 -98.5t150.5 -49.5t190.5 70t106.5 117t-115.5 157.5t-231.5 228t-116 182t24 140.5t58 105q111 109 286 187.5t308 78.5q78 0 129 -66.5t51 -138.5q0 -29 -46 -46t-133 -35.5 t-177 -53.5q-209 -78 -209 -131q0 -25 72 -89.5t157 -135t156.5 -178t71.5 -207.5z" />
<glyph unicode="T" horiz-adv-x="1114" d="M502 1235q-221 -12 -242 -12q-49 0 -98 60t-49 126q0 100 583 100q299 0 440.5 -61.5t141.5 -149.5q0 -27 -30.5 -50t-78 -23t-172.5 6t-227 8q8 -25 8 -57.5t-23.5 -129t-66.5 -267.5t-94 -413.5t-70.5 -288.5t-38.5 -46q-43 0 -107.5 79t-64.5 128t84.5 406.5 t104.5 584.5z" />
<glyph unicode="U" horiz-adv-x="1218" d="M348 1530q51 0 130 -74t79 -144.5t-73.5 -365.5t-73.5 -406.5t27.5 -171t77.5 -59.5t117.5 73t130 188.5t104.5 276.5t42 299t-13 222t-13 100q0 63 53 64q66 0 169 -110.5t103 -263t-53 -350.5t-143 -374t-228.5 -292.5t-283 -116.5t-261 151.5t-116.5 309t41 365.5 t82 374t41 235.5t61 69.5z" />
<glyph unicode="V" horiz-adv-x="1089" d="M1049 1526q57 0 115.5 -42t58.5 -81t-15.5 -86t-49.5 -118t-67.5 -137.5t-89 -174t-96.5 -191.5t-91 -198.5t-83 -187t-69 -142.5q-72 -139 -140 -139q-31 0 -85 45t-72 90q-59 158 -157.5 657.5t-98.5 602t55 102.5q70 0 143.5 -59.5t114.5 -157.5q16 -41 31.5 -173 t37 -328t46.5 -335q207 561 326.5 807t185.5 246z" />
<glyph unicode="W" horiz-adv-x="1607" d="M313 27q-41 0 -117.5 64.5t-76.5 127.5q0 150 43 516.5t43 704.5q0 86 53 86q74 0 177.5 -82t103.5 -164q0 -29 -68 -349.5t-78 -514.5q98 199 232.5 332t220.5 133q61 0 80 -273q8 -102 32.5 -187t67.5 -85q80 0 142.5 171t62.5 353q0 395 -217 395q-63 0 -117.5 65.5 t-54.5 117.5q0 92 112 92q152 0 265.5 -56.5t177.5 -154.5q127 -195 127 -479q0 -193 -67.5 -380.5t-187.5 -310t-255 -122.5q-250 0 -285 424l-63 -91q-226 -333 -353 -333z" />
<glyph unicode="X" horiz-adv-x="1198" d="M1094 1507q39 0 105.5 -72.5t66.5 -123.5q0 -23 -20.5 -39.5t-56.5 -39t-61 -52.5q-250 -309 -372 -471q49 -88 139 -242t129 -228.5t39 -114.5t-32 -69.5t-73 -29.5q-109 0 -372 442q-135 -201 -235.5 -320.5t-163 -119.5t-126 45t-63.5 86q0 23 10 32q29 29 37 41 q176 201 391 508q-117 225 -192.5 421t-75.5 283t37 87q86 0 181 -36t95 -83q0 -147 127 -420q203 315 303.5 415.5t182.5 100.5z" />
<glyph unicode="Y" horiz-adv-x="1148" d="M618 827q37 0 130.5 176.5t189.5 351.5t143 175q70 0 116 -63.5t46 -151.5q0 -61 -106.5 -236.5t-270.5 -433.5t-252 -438q-27 -57 -86 -118.5t-114 -61.5q-82 0 -82 131q0 78 155 362q25 45 35 68q-90 35 -163.5 114.5t-116.5 180.5q-90 211 -90 409q0 123 27.5 180.5 t113.5 57.5q45 0 67.5 -62.5t41 -179.5t52 -206t83.5 -172t81 -83z" />
<glyph unicode="Z" horiz-adv-x="1323" d="M1100 1294.5q53 -96.5 53 -169t-74.5 -175t-181 -197t-212 -179.5t-180.5 -148.5t-75 -85.5q0 -31 31 -31q100 0 280.5 25.5t268.5 25.5q137 0 137 -71q0 -63 -141.5 -127t-324.5 -99.5t-327 -35.5q-100 0 -177 106.5t-77 190.5t124 216t271.5 244.5t271.5 213t124 128.5 q0 94 -252 95q-86 0 -146.5 -11.5t-78.5 -11.5q-55 0 -112.5 76t-57.5 129t121 80q66 14 165 14q221 0 451 -84q66 -22 119 -118.5z" />
<glyph unicode="[" horiz-adv-x="948" d="M518 1550q0 59 20.5 83t89 34t238.5 10q358 0 359 -98q0 -63 -86 -88q-45 -10 -144 -25q-150 -23 -194 -41q-6 -236 -236 -901q-119 -348 -119 -411q0 -12 43 -12.5t175.5 16t150.5 16.5q51 0 51 -61.5t-172 -150.5t-283.5 -89t-194.5 68.5t-83 143.5t91 369t187.5 628.5 t106.5 492.5v16z" />
<glyph unicode="\" horiz-adv-x="1228" d="M990 405.5q118 -311.5 118 -368.5t-57.5 -129t-102.5 -72q-51 0 -366 764q-76 188 -167 399t-124 291q-55 141 -55 205t77.5 162t118.5 98q37 0 47 -31q49 -150 221 -578.5t290 -740z" />
<glyph unicode="]" horiz-adv-x="1067" d="M1020 1462v-24q-4 -209 -56.5 -474.5t-78 -387t-68.5 -312t-51 -229.5q-27 -111 -95.5 -153t-207.5 -42t-278.5 71t-139.5 157q0 61 80 61q49 0 129 -10t139.5 -10t61.5 30q0 6 24.5 96.5t58 226.5t68.5 288q82 375 82 579h-37l-233 -10q-150 0 -150 65q0 80 114 134.5 t278.5 54.5t250.5 -16.5t105 -77.5q4 -13 4 -17z" />
<glyph unicode="^" horiz-adv-x="864" d="M866 1128q0 -47 -51 -47q-90 0 -332 420q-109 -111 -186 -289q-23 -51 -35 -77q-31 -63 -78 -63.5t-100 37.5t-53 69q0 78 76.5 229.5t177 275t157.5 123.5q86 0 189 -67q18 -14 32.5 -52t45 -130.5t94 -241t63.5 -187.5z" />
<glyph unicode="_" horiz-adv-x="1267" d="M1208 59q0 -55 -138 -77.5t-336.5 -33.5t-249 -15.5t-152 -15.5t-162.5 -11q-39 0 -80 57t-41 115q0 86 588 86q379 0 491 -37q80 -23 80 -68z" />
<glyph unicode="`" horiz-adv-x="528" d="M20 1624q0 59 45.5 113.5t92.5 54.5q37 0 82 -45q16 -16 52 -53t97.5 -98.5t90 -98.5t28.5 -74t-25.5 -64.5t-51 -27.5t-48.5 12.5t-67 45t-72.5 50t-53 33t-38 23.5t-33 19.5t-29.5 19.5t-23.5 18.5t-20.5 18.5t-13 18q-13 17 -13 35z" />
<glyph unicode="a" horiz-adv-x="1044" d="M922 606q37 -33 36.5 -59.5t-25 -110.5t-32.5 -130t-13 -72.5t-7 -42t-7.5 -38t-8.5 -36t-8 -30.5t-11 -26.5t-15 -19.5q-12 -16 -40.5 -16t-70.5 57t-63 139q-193 -197 -323 -196q-88 0 -190.5 97t-102.5 194.5t88 277.5t240.5 333.5t302.5 153.5q86 0 198.5 -100 t112.5 -183t-61 -192zM326 283q82 0 218 111.5t169 281.5q2 25 35 29q-6 117 -39 116q-82 0 -183.5 -106.5t-166 -227t-64.5 -178.5q0 -16 5.5 -21t25.5 -5z" />
<glyph unicode="b" horiz-adv-x="1161" d="M846 1079q94 0 179 -104.5t85 -198.5t-43 -221t-114.5 -246t-180 -200.5t-226.5 -81.5t-267 112q-41 -115 -68 -114q-43 0 -108.5 71.5t-65.5 116.5t67 295q203 750 203 1085q0 61 60 62q47 0 126.5 -89t79.5 -167q0 -182 -104 -568q234 248 377 248zM514 262 q113 0 230.5 176t117.5 346q0 12 -5 15.5t-28 3.5q-113 0 -240.5 -135.5t-226.5 -337.5q86 -68 152 -68z" />
<glyph unicode="c" horiz-adv-x="1001" d="M51 346q0 143 90 315.5t236.5 295t288.5 122.5q72 0 147.5 -93t75.5 -167q0 -53 -49 -53q-25 0 -68 22.5t-88 22.5t-128 -77t-147.5 -184.5t-64.5 -169t23.5 -79.5t114.5 -18t166 16t111 33.5t64 17.5q57 0 58 -49q0 -90 -158 -183t-315 -93q-100 0 -228.5 111.5 t-128.5 209.5z" />
<glyph unicode="d" horiz-adv-x="1103" d="M926 1655q49 0 129 -89t80 -167q0 -39 -72 -323.5t-86 -344.5q-164 -707 -240 -706q-43 0 -96 51t-53 100q0 10 2 17q-205 -168 -294 -168t-172 95t-83 173t21.5 173t66.5 201.5t103.5 200t141.5 153.5t171 60q131 0 215 -133q111 485 106 645q1 62 60 62zM322 285 q51 0 172.5 88t181.5 223q-2 16 -2 71.5t-37 104.5t-68 49q-61 0 -117.5 -65.5t-89.5 -155.5q-70 -190 -69 -289q0 -16 5.5 -21t23.5 -5z" />
<glyph unicode="e" horiz-adv-x="999" d="M832.5 518q-136.5 -80 -279.5 -80t-236 21q-18 -55 -18 -110.5t18.5 -79t92.5 -23.5q154 0 263 28.5t113 28.5q84 0 84 -55q0 -80 -132 -151.5t-305 -71.5t-277.5 108.5t-104.5 257t87 310t218 271t261.5 109.5t241 -128t110.5 -255q0 -100 -136.5 -180zM688 790.5 q-43 38.5 -81 38.5t-97 -54t-113 -140q18 -2 54 -2q281 0 280 98q0 21 -43 59.5z" />
<glyph unicode="f" horiz-adv-x="890" d="M817.5 1331q-18.5 39 -44 39t-51.5 -37t-50 -121q-39 -131 -78 -305q156 8 234.5 8t117.5 -23.5t39 -55.5q0 -63 -114.5 -98.5t-331.5 -67.5q-102 -428 -143.5 -535.5t-90.5 -107.5q-39 0 -91 64.5t-52 97t14 77.5q63 178 96 344q-61 -16 -109 -16t-95.5 44t-47.5 107 q0 74 295 127q59 393 166 570.5t307 177.5q96 0 176 -94t80 -223q0 -84 -26.5 -132.5t-69.5 -48.5t-68.5 39t-34.5 85t-27.5 85z" />
<glyph unicode="g" horiz-adv-x="985" d="M860 639q31 -35 31 -84t-41 -121q-51 -123 -90 -305t-77 -291.5t-82 -187.5t-119.5 -129t-174.5 -51q-137 0 -245.5 90t-108.5 154.5t35 116.5t64.5 52t57 -32.5t51 -70.5t62.5 -71t86 -33t86 61.5t60 133.5q51 168 63 240q-139 -86 -226 -86t-169 95t-82 180t46 213 t119 256t184.5 220t223.5 92q76 0 129.5 -37.5t77.5 -101.5q43 -111 43 -250q0 -20 -4 -53zM293 309q0 -27 22 -26q59 0 192.5 108.5t178.5 214.5v39q0 133 -24 162q-12 14 -33 14q-98 0 -217 -207t-119 -305z" />
<glyph unicode="h" horiz-adv-x="1153" d="M307 1569q0 86 68 86q55 0 126.5 -92.5t71.5 -158t-26.5 -184t-54 -217t-83 -279.5t-75.5 -253q133 270 281.5 440t248.5 170q63 0 145.5 -111.5t82.5 -200.5t-33 -259t-115 -327.5t-168 -157.5q-68 0 -67 96q0 70 41 227q59 236 59 287t-16 51q-119 0 -349 -395 q-78 -135 -130 -200.5t-99 -65.5t-113.5 75.5t-66.5 117.5t17.5 124t53 233.5t118.5 550t83 443.5z" />
<glyph unicode="i" horiz-adv-x="532" d="M300 1447q48 56 94 56t109.5 -110.5t63.5 -160.5t-32.5 -77t-67.5 -27q-59 0 -137 78t-78 131.5t48 109.5zM283 1081q72 0 128 -81.5t56 -157.5q0 -39 -70.5 -279.5t-140.5 -456.5q-25 -80 -100 -79q-45 0 -79 33.5t-34 88t52 270.5t80 368.5t51.5 223t56.5 70.5z" />
<glyph unicode="j" horiz-adv-x="532" d="M-186 -305q66 0 138.5 222t154 567t111.5 440.5t49.5 126t45.5 30.5q61 0 122 -79.5t61 -167.5q0 -37 -275 -979q-57 -197 -172 -288t-266 -91q-106 0 -210.5 88t-104.5 155q0 47 34.5 105.5t69.5 58.5t104 -84q18 -23 23 -28q62 -76 115 -76zM453 1503 q47 0 109.5 -110.5t62.5 -175.5q0 -33 -33 -61t-66 -28q-61 0 -139 78t-78 131.5t48.5 109.5t95.5 56z" />
<glyph unicode="k" horiz-adv-x="1009" d="M242 25q-47 0 -118 75.5t-71 120.5q0 12 68.5 243.5t137.5 557.5t69 569q0 63 57 64q49 0 130 -89t81 -167q0 -113 -81 -426.5t-161 -493.5q27 35 73 93.5t74.5 95.5t70.5 90t71 87t63.5 76t60.5 67.5t52 47.5q49 45 76 45q51 0 112.5 -68.5t61.5 -119.5q0 -20 -87 -94 t-174 -164t-87 -161t42 -137.5t91 -101t91 -70.5t42 -61q0 -80 -108 -79q-129 0 -342 217l-50 49q-184 -266 -245 -266z" />
<glyph unicode="l" horiz-adv-x="544" d="M467 1565q78 -90 78 -172t-24.5 -292t-51.5 -335q-170 -741 -238 -741q-45 0 -111.5 72.5t-66.5 119.5q0 4 55.5 213t111.5 537.5t56 627.5q0 59 64 60q49 0 127 -90z" />
<glyph unicode="m" horiz-adv-x="1677" d="M1430 1081q80 0 133 -106.5t53 -194.5t-34 -261t-106.5 -333.5t-156.5 -160.5q-68 0 -68 92t53.5 301t53.5 274.5t-21 65.5q-43 0 -102 -94.5t-142 -252t-103.5 -202.5t-34 -71.5t-29.5 -55.5q-66 -109 -174 0q-55 55 -56 100q0 8 34 156.5t34 339.5q0 80 -19 80 q-25 0 -57.5 -49.5t-100 -178.5t-116.5 -213q-172 -293 -262 -292q-45 0 -111.5 75.5t-66.5 115.5t46 192.5t59.5 324.5t24.5 268.5t48 96.5q78 0 150.5 -64.5t72.5 -118.5q0 -121 -88 -421q143 342 242 462q104 125 200 125q53 0 132 -98t79 -183t-2 -149q63 160 192.5 295 t242.5 135z" />
<glyph unicode="n" horiz-adv-x="1134" d="M805 1081q106 0 187 -95t81 -204q0 -174 -56 -363.5t-123 -291.5t-135.5 -102t-68.5 96q0 74 68 297q51 184 51 264t-21 80q-27 0 -52 -26.5t-41.5 -47t-38 -52.5t-37 -57.5t-39 -65.5t-38 -65.5t-36.5 -66.5q-190 -356 -299 -356q-43 0 -108.5 74.5t-65.5 109.5 q0 23 29.5 97.5t43 114.5t22.5 85t15.5 97t9.5 81t7 90q18 266 31.5 295t29.5 29q78 0 149.5 -64.5t71.5 -118.5q0 -127 -65 -364q133 233 242.5 381.5t185.5 148.5z" />
<glyph unicode="o" horiz-adv-x="933" d="M532.5 432.5q81.5 149.5 81.5 280.5t-36 180q-88 -51 -175.5 -215t-87.5 -288t25 -157q111 50 192.5 199.5zM199.5 854q158.5 229 314.5 229t262.5 -109.5t106.5 -264t-74 -314t-207 -265t-285 -105.5q-113 0 -194.5 100t-81.5 244q0 256 158.5 485z" />
<glyph unicode="p" horiz-adv-x="1101" d="M795 1079q76 0 162.5 -135t86.5 -270q0 -82 -69.5 -194.5t-175 -212t-243.5 -169t-263 -69.5h-25q-129 -537 -182 -537q-43 0 -91 71.5t-48 119t59 288.5q176 717 176 1082q0 61 60 61q49 0 124.5 -55t94.5 -144q174 164 334 164zM634 448.5q142 145.5 142 252t-59 106.5 q-86 0 -182 -98q-39 -41 -86.5 -121t-81.5 -187l-35 -129q160 31 302 176.5z" />
<glyph unicode="q" horiz-adv-x="1062" d="M715 -131q96 45 146 45t78 -30.5t28 -59.5t-33 -56.5t-105.5 -73.5t-147.5 -103.5t-119 -86t-77.5 -28.5t-73.5 59t-40 109.5t161 455.5q-113 -76 -198.5 -75.5t-181 103.5t-95.5 187t54.5 211t140.5 251t207 214t228.5 90t197.5 -96t90 -180q0 -57 -53 -57 q-23 0 -79.5 41.5t-86.5 41.5q-90 0 -203 -109.5t-186.5 -233t-73.5 -179.5q0 -18 6 -22t31 -4q80 2 216 119.5t175 287.5q8 35 50 35t126 -56.5t84 -88t-37 -129t-109.5 -276.5t-119.5 -306z" />
<glyph unicode="r" horiz-adv-x="741" d="M164 735l-12 232q0 115 71 114q41 0 81 -30.5t61 -96.5q70 61 152.5 99.5t146.5 38.5q150 0 149 -72q0 -37 -13.5 -54.5t-20.5 -25.5t-24.5 -21.5t-25.5 -19.5q-47 -31 -67 -43q-92 -57 -158 -138t-98 -224q-55 -236 -107.5 -351.5t-117 -115.5t-96.5 61.5t-32 115.5 t40 162.5t55.5 187.5t15.5 181z" />
<glyph unicode="s" horiz-adv-x="956" d="M705 1079q78 0 153.5 -92t75.5 -166q0 -49 -43 -49q-25 0 -72 19.5t-95 19.5t-141.5 -33t-93.5 -86q0 -20 55.5 -59t121 -80t121 -113.5t55.5 -157.5t-124 -171t-291 -86t-285.5 75.5t-118.5 155.5t65 80q27 0 64 -21q102 -59 254.5 -59t152.5 41t-58.5 91t-127 93 t-127 105.5t-58.5 122.5q0 111 201 240.5t316 129.5z" />
<glyph unicode="t" horiz-adv-x="923" d="M533.5 683q-31.5 -99 -77.5 -248.5t-46 -159t33.5 -9.5t160.5 46t150 46q51 0 51 -69.5t-137.5 -166.5t-286.5 -97q-66 0 -156 71.5t-90 145.5q0 61 62.5 258.5t85.5 271.5q-80 -23 -121 -22.5t-86 56.5t-45 107q0 66 317 111q39 190 39 330q0 61 62 61q53 0 136 -64.5 t83 -127t-27 -174.5q98 4 150 4q154 0 153 -70q0 -45 -89 -77t-273 -68q-17 -56 -48.5 -155z" />
<glyph unicode="u" horiz-adv-x="995" d="M770 1030q16 51 65.5 51t114 -84t64.5 -145q0 -23 -94.5 -301.5t-145.5 -439.5q-29 -86 -96 -86q-41 0 -68.5 29.5t-27.5 93t24 180.5q-211 -303 -336 -303q-66 0 -158 85t-92 164q0 197 112 502t210 305q59 0 105.5 -53t46.5 -117q0 -25 -52 -137q-156 -338 -155 -477 q0 -12 10 -12q31 0 116 97t190.5 278.5t166.5 369.5z" />
<glyph unicode="v" horiz-adv-x="864" d="M768 1081q53 0 103.5 -37.5t50.5 -78.5q0 -74 -122 -342.5t-225.5 -432t-160.5 -163.5q-31 0 -89.5 41t-74.5 82q-49 119 -119 439t-70 406t58 86q70 0 143 -55q123 -94 137 -252q6 -74 10.5 -181.5t18.5 -184.5q49 94 121 279t124 289.5t95 104.5z" />
<glyph unicode="w" horiz-adv-x="1454" d="M1406 1042.5q69 -38.5 69 -81.5t-70 -291t-218.5 -445.5t-219.5 -197.5q-29 0 -86.5 41t-81.5 92q-43 84 -43 491q-88 -287 -201 -455.5t-182 -168.5q-31 0 -89.5 41t-74.5 82q-45 111 -86 422t-41 425q0 84 57 84q78 0 160 -94t82 -147q0 -297 6 -473q82 125 148.5 311 t107.5 294.5t86 108.5q90 0 178 -87t88 -177q0 -41 -13 -170t-13 -194.5t8 -108.5q68 68 118 199t72 248q57 291 113.5 290.5t125.5 -39z" />
<glyph unicode="x" horiz-adv-x="970" d="M827 100q0 -76 -67 -75q-111 0 -291 270q-233 -270 -313 -270q-55 0 -105.5 54t-50.5 95q0 10 43 51q170 162 285 305q-88 160 -149.5 305.5t-61.5 177t2 42.5q6 27 37 26q86 0 181 -33.5t95 -78.5q0 -72 62 -209q125 176 203.5 249.5t129 73.5t112.5 -59t62 -106 q0 -23 -18 -43.5t-55 -48t-71 -62.5t-224 -268l59 -105q135 -238 135 -291z" />
<glyph unicode="y" horiz-adv-x="1064" d="M815 1030q12 51 67.5 51t114 -69.5t58.5 -157.5q0 -51 -37 -161.5t-52.5 -158t-44 -128t-52 -149.5t-63.5 -183.5t-73 -212.5q-63 -184 -154.5 -284.5t-236.5 -100.5t-260 76.5t-115 154.5q0 47 42 104.5t72 57.5t78 -48t99 -96.5t90 -48.5q27 0 44.5 25t28.5 44t23.5 53 t22.5 62.5t24.5 76t24.5 83.5q35 111 59 197q-68 -88 -139 -140t-131.5 -52t-149.5 91t-89 200.5t48 294t119.5 327.5t126.5 143q63 0 120 -54t57 -104.5t-50.5 -161t-101.5 -241.5t-51 -223q0 -12 10 -12q27 0 113 99t193.5 282.5t164.5 363.5z" />
<glyph unicode="z" horiz-adv-x="983" d="M354 285l447 16q43 0 75.5 -19.5t32.5 -58.5q0 -96 -182 -148t-453 -52q-98 0 -186 88t-88 144t104.5 142t228.5 159t228.5 139.5t104.5 89t-111 22.5t-180.5 -12.5t-112.5 -12.5t-98 71t-55 112q0 57 103 86.5t230 29.5t277 -34q68 -18 130 -104.5t62 -133.5 q0 -86 -89 -181.5t-195.5 -158.5t-195.5 -115.5t-89 -62.5q0 -6 12 -6z" />
<glyph unicode="{" horiz-adv-x="946" d="M319 872q86 0 87 89q0 41 -27 102q-82 188 -82 360t115.5 275.5t298.5 103.5q127 0 223 -94t98 -209q0 -39 -50 -108.5t-87 -69.5q-33 0 -39 41q-6 37 -6 113q0 82 -105 81q-180 0 -180 -227q2 -131 46 -256t44 -170q0 -88 -61.5 -160.5t-165.5 -87.5v-22 q0 -78 -51 -226.5t-51 -259.5q0 -70 51 -98.5t145 -28.5t132 -20t38 -76.5t-70.5 -108t-158.5 -51.5q-166 0 -287 116t-121 264.5t64.5 310t64.5 258.5q0 12 -24 49q-51 66 -51 127q0 18 8 40.5t26.5 22.5t104.5 -51q57 -29 71 -29z" />
<glyph unicode="|" horiz-adv-x="933" d="M383 -340q-43 0 -115.5 78t-72.5 110.5t159.5 902t159.5 980.5q0 61 61 61q49 0 135.5 -90t86.5 -166q0 -37 -14.5 -107.5t-23.5 -117.5t-29.5 -141.5t-30 -137.5t-89.5 -461q-178 -911 -227 -911z" />
<glyph unicode="}" horiz-adv-x="1282" d="M776 809l133 8q66 0 66 -33q0 -78 -88 -127q-98 -68 -119 -374q-8 -121 -28.5 -237t-90 -191.5t-200 -75.5t-218.5 68.5t-88 150.5q0 57 43 57q37 0 89.5 -37.5t140.5 -37.5q61 0 74.5 109.5t25.5 283.5t66 272q-139 70 -140 207q0 68 59.5 156t130 158.5t130 152.5 t59.5 139.5t-38 90t-94 32.5t-94 -27.5t-60 -58.5q-61 -88 -99.5 -88t-89.5 65.5t-51 104.5q0 70 127 147.5t267 77.5t279.5 -111.5t139.5 -208t-63.5 -192.5t-139.5 -162q-203 -176 -203 -254q0 -31 20.5 -48t53.5 -17z" />
<glyph unicode="~" horiz-adv-x="1200" d="M147 553q0 113 104.5 230.5t217.5 117.5q117 0 184 -72q29 -31 52 -63q59 -84 92 -98q29 14 58.5 67t66 95t94.5 42q86 0 86 -107.5t-95.5 -226t-175 -118.5t-165.5 74.5t-146 193.5q-47 -20 -79.5 -62t-47 -81t-46.5 -69t-79 -30q-121 1 -121 107z" />
<glyph unicode="&#xa1;" horiz-adv-x="870" d="M686 906.5q-47 -54.5 -94 -54.5t-109.5 110.5t-62.5 165.5q0 27 33.5 60t66.5 33q61 0 137 -76t76 -130t-47 -108.5zM522 -403q0 -59 -63.5 -59.5t-169 89.5t-105.5 131q0 135 95.5 558t164.5 423q55 0 108.5 -57t55.5 -119q4 -23 -16.5 -132t-45 -337.5t-24.5 -496.5z " />
<glyph unicode="&#xa2;" horiz-adv-x="1116" d="M1004 823q0 -55 -50 -55q-29 0 -135 59q-47 -156 -145 -485q68 8 136.5 24.5t96.5 16.5q55 0 55.5 -58.5t-109.5 -127t-251 -101.5q-41 -129 -69.5 -182t-62.5 -53t-54.5 21.5t-20.5 53t25 142.5q-109 20 -239 128.5t-130 199.5q0 137 99.5 308t252 293.5t287.5 122.5 q18 0 37 -6q78 162 129 162q70 0 70 -94q0 -37 -43 -166q121 -107 121 -203zM344 426q0 -84 135 -92q68 285 146 518q-96 -55 -188.5 -194.5t-92.5 -231.5z" />
<glyph unicode="&#xa3;" horiz-adv-x="1499" d="M1104 1024l8 94q0 82 -63 82q-43 0 -78 -63.5t-88 -253.5q49 -2 176 -2q201 0 201 -70q-2 -109 -439 -152l-53 -204q-14 -59 -57 -140q86 -76 163.5 -75.5t151.5 50.5t132.5 101t102.5 51t78.5 -46t34.5 -109q0 -100 -169 -197.5t-294 -97.5q-170 0 -333 151 q-135 -121 -293 -120q-68 0 -170.5 115.5t-102.5 236.5q0 84 74 163.5t185.5 79.5t213.5 -77q12 39 27 100h-20q-104 0 -150.5 19.5t-46.5 75t38 120t66 64.5q84 0 176 -15q82 307 193 454.5t297 147.5q104 0 181 -111.5t77 -236.5q0 -57 -67.5 -122.5t-114.5 -65.5 q-37 0 -37 53zM305 238q37 0 94 98q-53 59 -88 59q-59 0 -59 -63q0 -23 19.5 -58.5t33.5 -35.5z" />
<glyph unicode="&#xa4;" horiz-adv-x="1228" d="M1020 803q41 -72 41 -158q0 -174 -117 -291q90 -166 90 -207q0 -76 -67 -75q-82 0 -222 174q-49 -12 -120.5 -12.5t-147.5 28.5q-178 -193 -238.5 -192.5t-111.5 54.5t-51 95q0 10 80 89t125 126q-39 74 -39 185.5t84 211.5q-33 51 -81 112t-76 95.5t-28 53t2 28.5 q6 27 37 27q92 0 182.5 -24.5t118.5 -73.5q2 -4 24.5 -33t37.5 -47q61 16 119.5 16t111.5 -12q68 76 139.5 125t112.5 49t103.5 -60.5t62.5 -100.5t-50 -78.5t-122 -104.5zM536.5 750.5q-57.5 -56.5 -57.5 -142.5t45 -129t128 -43t139.5 61.5t56.5 133.5q-6 74 -48 125 t-124 51t-139.5 -56.5z" />
<glyph unicode="&#xa5;" horiz-adv-x="1259" d="M127 764q-4 55 295 78q-223 436 -223 534.5t55 98.5q74 0 148.5 -59.5t115.5 -155.5q82 -195 162 -342q78 88 159 231t131 234.5t79 91.5q57 0 110 -40t53 -85q0 -90 -272 -494q53 -2 196.5 -18.5t143.5 -85.5q0 -78 -492 -119q-2 -31 -12 -88q168 10 256 10 q229 0 230 -66q0 -82 -523 -172q-18 -88 -25 -166.5t-12 -105.5q-8 -51 -30 -51q-43 0 -124 64.5t-81 119.5q0 12 8 98q-213 -31 -319 -32q-39 0 -82 66.5t-43 107.5q0 57 469 104q0 23 3 49.5t3 36.5q-223 -27 -259 -26.5t-78 69t-42 113.5z" />
<glyph unicode="&#xa6;" horiz-adv-x="931" d="M488.5 958.5q-72.5 77.5 -72.5 110.5t49 292t49 370q0 61 59 61q49 0 136.5 -90t87.5 -168t-75 -365.5t-118 -287.5t-115.5 77.5zM267.5 -262q-72.5 78 -72.5 110.5t49 291.5t49 370q0 61 59 61q49 0 135 -90t86 -167.5t-73.5 -365.5t-116.5 -288t-115.5 78z" />
<glyph unicode="&#xa7;" horiz-adv-x="1083" d="M791 1421q-68 0 -121.5 -52t-53.5 -112q0 -35 64.5 -100t142.5 -134t143.5 -182.5t65.5 -227t-92 -207t-233 -138.5q74 -94 73.5 -212.5t-110 -224t-310.5 -105.5q-147 0 -259.5 91t-112.5 155.5t34.5 135t67.5 70.5q29 0 48.5 -25.5t39 -53t29.5 -40.5q72 -96 145.5 -96 t111.5 32t38 80t-39 96t-95.5 94t-112.5 97.5t-95 122t-39 163.5t93 198.5t230 185.5q-100 115 -100 207q0 152 173 291t306 139q102 0 183 -83t81 -210q0 -90 -26.5 -138t-68.5 -48t-72.5 36t-45.5 81q-36 114 -83 114zM696.5 491.5q57.5 61.5 57.5 148.5t-138 220 q-215 -113 -215 -227q0 -80 74 -154q29 -29 80 -69q84 20 141.5 81.5z" />
<glyph unicode="&#xa8;" horiz-adv-x="686" d="M428 1607.5q43 51.5 85 51.5t97.5 -100.5t55.5 -136.5t-32 -65.5t-63 -29.5q-55 0 -120.5 66.5t-65.5 114.5t43 99.5zM63 1607.5q43 51.5 85 51.5t97.5 -100.5t55.5 -136.5t-31.5 -65.5t-62.5 -29.5q-55 0 -121 66.5t-66 114.5t43 99.5z" />
<glyph unicode="&#xa9;" horiz-adv-x="1449" d="M1376 827q0 -303 -216 -503.5t-533 -200.5q-242 0 -375 143.5t-133 366.5q0 279 226 499t505 220q240 0 383 -149t143 -376zM618 274q262 0 412 148.5t150 417.5q0 158 -84 258t-215 100t-259 -67.5t-219.5 -208t-91.5 -308.5t82 -254t225 -86zM944 911l-57 9 q-70 0 -167 -112t-97 -202q0 -39 34 -39q96 0 203 33l105 33q14 0 24 -13.5t10 -29.5q0 -49 -118.5 -114.5t-201.5 -65.5t-155.5 69.5t-72.5 130.5q0 139 137 304t278 165q35 0 72 -50t37 -84t-31 -34z" />
<glyph unicode="&#xaa;" horiz-adv-x="1097" d="M899 1194q0 -29 -25 -88q6 -16 6.5 -25.5t-11 -91.5t-11.5 -141q0 -158 -33.5 -158t-67.5 34t-55 87q-117 -121 -237 -121q-68 0 -146.5 69.5t-78.5 126t26.5 144.5t74.5 183.5t128 165t167 69.5t175 -85t88 -169zM649 1005.5q53 77.5 76 190.5q-20 57 -78 57 q-68 0 -137.5 -141t-69.5 -201q0 -25 10.5 -34t34 -9t67.5 30t97 107.5z" />
<glyph unicode="&#xab;" horiz-adv-x="872" d="M1147 973q37 0 92 -46t55 -79q0 -43 -63 -49q-387 -43 -387 -135q0 -51 164 -123q61 -27 112 -63t51 -66q-6 -55 -77 -56q-135 0 -306.5 112t-171.5 216q0 25 29 68t86 79.5t195.5 89t220.5 52.5zM307 952.5q129 73.5 180.5 73.5t107.5 -35t56 -65q0 -43 -59 -62 q-158 -49 -251 -102t-93 -84q0 -45 97 -96.5t193.5 -95.5t96.5 -72q0 -63 -94 -64q-125 0 -317.5 106.5t-192.5 200.5q0 33 23.5 84.5t43.5 67.5q80 70 209 143.5z" />
<glyph unicode="&#xac;" horiz-adv-x="1015" d="M856 776l-539 -18q-72 0 -133 82t-61 136t47 54h674q190 0 301 -22q59 -12 100 -90t41 -156t-73.5 -228.5t-182 -273.5t-190.5 -123q-57 0 -58 51q0 18 58 123q174 322 174 443q0 22 -158 22z" />
<glyph unicode="&#xad;" horiz-adv-x="1228" d="M1018 686q0 -53 -125 -88q-98 -29 -225 -54.5t-213 -47.5q-180 -43 -221 -43t-86.5 56t-45.5 107q0 57 239 98.5t521 41.5q156 0 156 -70z" />
<glyph unicode="&#xae;" horiz-adv-x="1374" d="M385 1295q170 165 364.5 165t302 -110.5t107.5 -282.5q0 -227 -161.5 -377.5t-401.5 -150.5q-180 0 -280.5 107.5t-100.5 275.5q0 208 170 373zM590 653q197 0 309.5 110.5t112.5 311.5q0 119 -63.5 195t-160.5 76q-158 0 -293 -125t-135 -322q0 -119 62 -182.5 t168 -63.5zM533.5 804.5q-23.5 24.5 -23.5 39t27.5 104.5t33.5 168q-16 12 -31.5 33.5t-15.5 32.5q0 18 53.5 40.5t102.5 22.5q184 0 184 -110q0 -68 -94 -140q-33 -23 -33 -30q0 -27 24.5 -50.5t53.5 -46.5q51 -43 51 -59q0 -29 -43 -29t-99 49.5t-87 104.5 q-47 -154 -63.5 -154t-40 24.5zM756 1128.5q0 14.5 -36 14.5t-61 -10q12 -14 12.5 -39t-7.5 -60q14 6 27.5 17.5t24.5 19.5t16 13.5t11 13.5q13 16 13 30.5z" />
<glyph unicode="&#xaf;" horiz-adv-x="772" d="M752 1327q0 -39 -64.5 -57.5t-193.5 -40t-199 -33.5q-123 -25 -162 -23.5t-76 47.5t-37 85q0 55 141.5 69.5t428.5 14.5q162 -1 162 -62z" />
<glyph unicode="&#xb0;" horiz-adv-x="862" d="M595 1045.5q44 62.5 44 115.5q0 109 -70 109q-55 0 -99 -63.5t-44 -116t19.5 -80t50.5 -27.5q55 0 99 62.5zM182 1034q0 166 136.5 309.5t310.5 143.5q117 0 188.5 -73t71.5 -185q0 -166 -137.5 -308.5t-309.5 -142.5q-119 0 -189.5 71.5t-70.5 184.5z" />
<glyph unicode="&#xb1;" horiz-adv-x="1228" d="M702 1305q0 27 15.5 40t38.5 13q57 0 147 -76t90 -113q0 -53 -18 -157q156 8 174 8q203 0 203 -72q0 -109 -422 -168q-88 -393 -150 -393q-45 0 -104.5 54.5t-59.5 103.5q0 16 37 209q-129 -8 -215 -9q-57 0 -108 70t-51 123q0 45 55 45q127 0 352 10q16 148 16 312z M225 293l793 43q229 0 229 -64.5t-194 -111.5q-328 -80 -729 -80q-61 0 -110.5 56.5t-49.5 106.5t61 50z" />
<glyph unicode="&#xb2;" horiz-adv-x="686" d="M494 1290q-41 0 -73 -44t-34 -44q-23 0 -69 34t-46 50q0 61 64.5 116.5t160 55.5t141.5 -54t46 -154.5t-109.5 -229.5t-209.5 -174q135 35 244.5 35t109.5 -50q0 -43 -164 -87t-254 -44q-39 0 -92 48.5t-53 85.5q0 23 92 98.5t185 167.5t93 151q1 39 -32 39z" />
<glyph unicode="&#xb3;" horiz-adv-x="614" d="M260 1061v10q4 35 114.5 120t110.5 122q0 6 -19.5 6t-80.5 -39t-78.5 -39t-54.5 39t-37 57q0 41 94 80t165 39t119 -47t48 -94t-48 -106.5t-116 -108.5q147 -43 147.5 -136.5t-144 -169t-270.5 -75.5t-126 43q0 18 91 53t183.5 76t92.5 74q0 29 -46.5 35t-93.5 15t-51 46 z" />
<glyph unicode="&#xb4;" horiz-adv-x="544" d="M44 1361q-24 30 -24 69.5t25 77.5t75 80t88 76t56.5 49.5t41 33.5t34.5 27q31 16 53 16q49 0 90 -56.5t41 -101.5t-7 -64.5t-32.5 -38t-49 -30.5t-80 -39.5t-90.5 -46t-68 -41.5q-61 -41 -95 -41t-58 30z" />
<glyph unicode="&#xb5;" horiz-adv-x="899" d="M690 1030q14 51 63.5 51t117 -84t67.5 -143q0 -18 -35 -119q-145 -420 -207 -624q-27 -86 -98 -86q-96 0 -96 118q0 72 24 191q-203 -309 -333 -309q-61 0 -101 59q-66 -168 -147.5 -331t-120.5 -163q-49 0 -102.5 34t-53.5 59.5t33 97.5q137 301 199.5 482t119 394 t94.5 318.5t78.5 105.5t101 -36.5t60.5 -65.5q0 -61 -71.5 -309t-71.5 -373q0 -12 6 -12q37 0 132 114.5t198.5 295.5t142.5 335z" />
<glyph unicode="&#xb6;" horiz-adv-x="1212" d="M537 827q-96 -82 -163 -82t-135.5 75t-68.5 147q0 184 112.5 371.5t288.5 242.5q215 68 471 68q76 0 115 -17q41 -14 87 -92t46 -139.5t-48 -296t-85 -363.5q-199 -717 -260 -716q-39 0 -88 42t-49 73.5t60.5 207.5t140 485.5t118.5 622.5q-106 -35 -211 -49q2 -8 2 -44 t-41 -238.5t-90 -383.5q-195 -717 -258 -716q-41 0 -90 40.5t-49 76.5t27 120q117 377 168 565z" />
<glyph unicode="&#xb7;" horiz-adv-x="485" d="M295 487q-66 0 -146.5 80t-80.5 138.5t51 117t103 58.5t118 -115t66 -174q0 -31 -38 -68t-73 -37z" />
<glyph unicode="&#xb8;" horiz-adv-x="616" d="M166 -418q-59 0 -102.5 26.5t-43.5 53.5t49.5 40t136.5 28.5t144 44.5q-18 14 -62 24.5t-76 20.5t-32 26q0 35 53.5 146.5t61.5 130.5q14 41 97 41t83 -49t-74 -170q59 -8 127 -47t68 -84q-2 -88 -135 -160t-295 -72z" />
<glyph unicode="&#xb9;" horiz-adv-x="329" d="M250 1477q33 0 94.5 -49.5t61.5 -69.5q0 -86 -32 -217t-46.5 -196.5t-23.5 -104.5t-21 -80q-25 -80 -51.5 -80t-59.5 32.5t-33 61.5q0 2 39 222.5t39 449.5q0 31 33 31z" />
<glyph unicode="&#xba;" horiz-adv-x="925" d="M525.5 1146.5q-62.5 -102.5 -62.5 -176t43 -116.5q61 16 132 111.5t71 185.5t-43 117q-78 -19 -140.5 -121.5zM676 1448q96 0 157.5 -90t61.5 -174q0 -182 -118 -339t-304 -157q-76 0 -138.5 78t-62.5 178q0 199 118 351.5t286 152.5z" />
<glyph unicode="&#xbb;" horiz-adv-x="1705" d="M844 930q0 31 45 63.5t84 32.5q68 0 251 -125t183 -196q0 -37 -22.5 -89.5t-53.5 -74.5q-125 -88 -258 -139.5t-223 -51.5t-90 53q0 31 106.5 75t214 96.5t107.5 99.5q0 23 -19.5 49.5t-88 67t-179.5 75.5q-57 19 -57 64zM274.5 816q-14.5 11 -14.5 40t55.5 73t103.5 44 t156.5 -43t200.5 -108.5t92 -126t-114.5 -143.5t-257 -137.5t-228.5 -54.5q-37 0 -58.5 16.5t-21.5 43.5q0 39 113 89t225.5 99t112.5 84t-101.5 64.5t-175 39t-88 20.5z" />
<glyph unicode="&#xbc;" horiz-adv-x="1685" d="M1386 653q35 0 99.5 -53t64.5 -88q0 -96 -90 -398t-157 -302q-35 0 -60.5 36.5t-25.5 76.5t65 278q-90 -25 -194.5 -25t-173 53.5t-68.5 137.5t71.5 218t156.5 235.5t122 101.5t80 -44t43 -75t-129 -208t-129 -210q0 -16 6 -20.5t34.5 -4.5t72 13.5t90.5 35t67 27.5 q12 82 12 174q0 41 43 41zM1198 1630q45 0 94 -64.5t49 -121.5q0 -41 -36.5 -100.5t-65.5 -101.5t-82 -114.5t-99 -133t-126 -167t-127 -169t-94 -127t-78 -105.5q-117 -156 -146.5 -192.5t-64.5 -80.5t-59.5 -71t-49.5 -51q-47 -47 -74.5 -47t-63.5 37.5t-36 75.5 t179.5 304.5t472 680t338 478t54.5 67.5t15 3zM369.5 671.5q-17.5 -24.5 -44 -24.5t-65.5 41t-39 80t25 150q72 319 71 706q0 41 43 41t121 -63.5t78 -90.5q0 -113 -67 -391q-12 -49 -31 -134t-30 -133t-27.5 -102.5t-34 -79z" />
<glyph unicode="&#xbd;" horiz-adv-x="1757" d="M1116 147q180 37 307 37t127 -61q0 -57 -207.5 -113.5t-326.5 -56.5q-49 0 -117 60.5t-68 111.5q0 41 238 227q88 72 162 158t74 139t-39 53t-69 -27.5t-46 -56t-25 -28.5q-27 0 -86 43t-59 65q0 80 81 150t204 70t182 -70t59 -196t-130 -282.5t-261 -222.5zM1212 1630 q41 0 91.5 -62.5t50.5 -127.5q0 -63 -111 -215q-33 -45 -60.5 -84t-75.5 -102.5t-88 -115t-103.5 -135t-104.5 -138t-89 -118t-80 -105.5t-75 -99.5t-72.5 -94t-65.5 -80.5t-59.5 -71t-45.5 -51q-47 -47 -72 -47t-62.5 36.5t-37.5 85t186 313.5t446 622.5t371 539.5 q20 35 31.5 42t25.5 7zM382 671.5q-17 -24.5 -44 -24.5t-66 41t-39 76t25 141q72 307 72 719q0 41 43 41t120.5 -63.5t77.5 -90.5q0 -113 -67 -391q-12 -49 -30.5 -134t-30 -133t-28 -102.5t-33.5 -79z" />
<glyph unicode="&#xbe;" horiz-adv-x="1970" d="M1671 653q37 0 95.5 -53t58.5 -88q0 -94 -91.5 -397t-156.5 -303q-35 0 -55.5 35.5t-20.5 76.5t66 279q-88 -25 -192.5 -25t-173 54.5t-68.5 137.5t71.5 217t155.5 235.5t121 101.5t80 -44t43 -75t-128 -208t-128 -210q0 -16 6 -20.5t34.5 -4.5t70.5 13.5t89 35t68 27.5 q12 82 12 174q0 41 43 41zM1485 1630q41 0 91 -62.5t50 -127.5q0 -63 -110 -215q-33 -45 -61 -84t-76 -102.5t-88 -115t-103.5 -135t-104.5 -138t-89 -118t-79.5 -105.5t-74.5 -99.5t-73 -94t-65.5 -80.5t-59.5 -71t-48 -51q-45 -47 -69.5 -47t-62.5 36.5t-38 85 t186.5 313.5t446.5 622.5t370 539.5q20 35 32 42t26 7zM410 1137v10q0 53 155 164q133 96 133 147q0 6 -8 6q-43 0 -128 -48t-100.5 -48t-61.5 51t-46 72q0 53 120 104.5t210 51.5t151.5 -61.5t61.5 -137.5q0 -45 -59.5 -119t-143.5 -137q182 -45 183 -174 q0 -119 -184.5 -217.5t-368.5 -98.5q-135 0 -136 60q0 25 116 66.5t231.5 94t115.5 95.5q0 35 -57 43t-117.5 19.5t-66.5 56.5z" />
<glyph unicode="&#xbf;" horiz-adv-x="811" d="M606 1221q61 0 137 -76t76 -130t-47 -108.5t-94 -54.5t-109.5 110.5t-62.5 165.5q0 27 33.5 60t66.5 33zM597 -324.5q-114 -95.5 -256 -95.5t-237.5 86t-95.5 236q0 90 51.5 179t116.5 148q190 172 238 271q57 127 75 159q35 59 74 60q74 0 74 -195q0 -74 -37 -145.5 t-90 -125.5t-107 -106q-127 -123 -127 -210q0 -33 25 -52.5t66 -19.5t70.5 25.5t29.5 73.5t31 65q49 25 72.5 24.5t82 -63t58.5 -99.5q0 -120 -114 -215.5z" />
<glyph unicode="&#xc0;" d="M1040 795q82 0 118 -15.5t36 -56.5q0 -55 -178 -113q4 -156 4 -298t-22.5 -212.5t-71.5 -70.5t-77 50t-45.5 164.5t-35.5 303.5q-209 -47 -301 -76q-160 -442 -213 -442q-43 0 -113.5 57t-70.5 119q0 35 80 217q-35 23 -61 64.5t-26 80.5q0 68 203 129q16 41 33.5 93.5 t88.5 245t112 321.5q18 61 127.5 114.5t171.5 53.5q72 0 128 -199t79 -530h34zM567 760q61 8 178 20q-6 59 -19 202.5t-19 207.5q-36 -115 -140 -430zM422 1911q0 59 45 113.5t92 54.5q37 0 82 -45q16 -16 52 -53t97.5 -98.5t90 -98.5t28.5 -74t-25.5 -64.5t-51 -27.5 t-48 12t-66.5 45t-73 50.5t-53.5 33t-37.5 23.5t-32.5 19t-30 19.5t-23.5 18.5t-20.5 18.5t-13.5 18.5q-12 17 -12 35z" />
<glyph unicode="&#xc1;" d="M1040 795q82 0 118 -15.5t36 -56.5q0 -55 -178 -113q4 -156 4 -298t-22.5 -212.5t-71.5 -70.5t-77 50t-45.5 164.5t-35.5 303.5q-209 -47 -301 -76q-160 -442 -213 -442q-43 0 -113.5 57t-70.5 119q0 35 80 217q-35 23 -61 64.5t-26 80.5q0 68 203 129q16 41 33.5 93.5 t88.5 245t112 321.5q18 61 127.5 114.5t171.5 53.5q72 0 128 -199t79 -530h34zM567 760q61 8 178 20q-6 59 -19 202.5t-19 207.5q-36 -115 -140 -430zM771.5 1626q-19.5 -8 -46.5 -8t-50.5 29.5t-23.5 69.5t24.5 78t75 80t88.5 76t56 49t40.5 33.5t35.5 26.5q31 16 53 17 q49 0 90 -56.5t41 -101.5t-7 -64.5t-32.5 -38t-49.5 -30.5l-80 -40t-90 -46.5t-69.5 -42t-55 -31.5z" />
<glyph unicode="&#xc2;" d="M1040 795q82 0 118 -15.5t36 -56.5q0 -55 -178 -113q4 -156 4 -298t-22.5 -212.5t-71.5 -70.5t-77 50t-45.5 164.5t-35.5 303.5q-209 -47 -301 -76q-160 -442 -213 -442q-43 0 -113.5 57t-70.5 119q0 35 80 217q-35 23 -61 64.5t-26 80.5q0 68 203 129q16 41 33.5 93.5 t88.5 245t112 321.5q18 61 127.5 114.5t171.5 53.5q72 0 128 -199t79 -530h34zM567 760q61 8 178 20q-6 59 -19 202.5t-19 207.5q-36 -115 -140 -430zM557 1671.5q-31 -20.5 -67.5 -20.5t-61.5 28.5t-25 71.5q0 98 150 184q23 12 55.5 33t53 33t43.5 24q49 25 71.5 25 t43 -22.5t50 -68.5t50 -67.5t72.5 -73t73.5 -84t21.5 -60t-19 -45t-42 -17.5q-55 0 -138 58.5t-140 129.5q-57 -29 -108.5 -68.5t-82.5 -60z" />
<glyph unicode="&#xc3;" d="M1040 795q82 0 118 -15.5t36 -56.5q0 -55 -178 -113q4 -156 4 -298t-22.5 -212.5t-71.5 -70.5t-77 50t-45.5 164.5t-35.5 303.5q-209 -47 -301 -76q-160 -442 -213 -442q-43 0 -113.5 57t-70.5 119q0 35 80 217q-35 23 -61 64.5t-26 80.5q0 68 203 129q16 41 33.5 93.5 t88.5 245t112 321.5q18 61 127.5 114.5t171.5 53.5q72 0 128 -199t79 -530h34zM567 760q61 8 178 20q-6 59 -19 202.5t-19 207.5q-36 -115 -140 -430zM522.5 1664q-30.5 -38 -78 -38t-79 25.5t-31.5 72.5q0 92 89 192.5t177 100.5t139.5 -39t85 -89t54.5 -60q18 10 43 55 q61 111 137 111q82 0 82 -94.5t-81 -195.5t-151.5 -101t-141.5 59t-122 156q-37 -18 -64.5 -67.5t-58 -87.5z" />
<glyph unicode="&#xc4;" d="M1040 795q82 0 118 -15.5t36 -56.5q0 -55 -178 -113q4 -156 4 -298t-22.5 -212.5t-71.5 -70.5t-77 50t-45.5 164.5t-35.5 303.5q-209 -47 -301 -76q-160 -442 -213 -442q-43 0 -113.5 57t-70.5 119q0 35 80 217q-35 23 -61 64.5t-26 80.5q0 68 203 129q16 41 33.5 93.5 t88.5 245t112 321.5q18 61 127.5 114.5t171.5 53.5q72 0 128 -199t79 -530h34zM567 760q61 8 178 20q-6 59 -19 202.5t-19 207.5q-36 -115 -140 -430zM608 1636q-55 0 -120.5 66.5t-65.5 115t43 99.5t85 51t97 -100.5t55 -136t-31.5 -65.5t-62.5 -30zM973 1636 q-55 0 -121 66.5t-66 115t43 99.5t85 51t97.5 -100.5t55.5 -136t-31.5 -65.5t-62.5 -30z" />
<glyph unicode="&#xc5;" d="M1040 795q82 0 118 -15.5t36 -56.5q0 -55 -178 -113q4 -156 4 -298t-22.5 -212.5t-71.5 -70.5t-77 50t-45.5 164.5t-35.5 303.5q-209 -47 -301 -76q-160 -442 -213 -442q-43 0 -113.5 57t-70.5 119q0 35 80 217q-35 23 -61 64.5t-26 80.5q0 68 203 129q16 41 33.5 93.5 t88.5 245t112 321.5q18 61 127.5 114.5t171.5 53.5q72 0 128 -199t79 -530h34zM567 760q61 8 178 20q-6 59 -19 202.5t-19 207.5q-36 -115 -140 -430zM933 1681.5q-73 -71.5 -163 -71.5t-148.5 61.5t-58.5 157.5t73 167.5t163 71.5t148.5 -61t58.5 -157.5t-73 -168z M786.5 1913q-22.5 0 -40 -24.5t-17.5 -57.5t15.5 -53.5t37 -20.5t39 25.5t17.5 58.5t-14.5 52.5t-37 19.5z" />
<glyph unicode="&#xc6;" horiz-adv-x="1841" d="M1923 1362q0 -51 -159.5 -79t-399.5 -28h-102q10 -25 10 -38q0 -141 -45 -318q98 4 190 4q258 0 258 -92q0 -33 -25.5 -49.5t-46 -24.5t-54 -16t-61.5 -14.5t-74 -12.5t-79 -10q-68 -12 -178 -25q-82 -258 -82 -317q0 -35 35 -35q233 0 479 62q86 23 99 22q39 0 38 -55 q0 -74 -108.5 -143.5t-272 -110.5t-321.5 -41q-94 0 -170 70.5t-76 164t66 332.5q-236 -41 -338 -53q-203 -524 -264 -524q-43 0 -107.5 58t-64.5 114q0 37 103 286.5t134 331.5q172 463 235.5 549t202 111.5t409.5 25.5t404.5 -11t210.5 -32q154 -41 154 -102zM913 868 q57 219 76 373q-156 -16 -184 -45q-66 -70 -193 -371q170 31 301 43z" />
<glyph unicode="&#xc7;" horiz-adv-x="1288" d="M1145 422q0 -102 -208 -236.5t-398 -156.5q-12 -27 -45 -84q59 -8 126.5 -47t67.5 -84q-2 -88 -135 -160t-295 -72q-59 0 -102 26.5t-43 53.5t49 40t136 28.5t144 44.5q-18 14 -62 24.5t-76 20.5t-32 31.5t88 214.5q-111 59 -197.5 182t-86.5 225q0 195 125 443.5 t322.5 431t379.5 182.5q57 0 125 -101.5t68 -167t-27 -65.5q-12 0 -52 8t-69 8q-102 0 -239.5 -131t-234.5 -313t-97 -315q0 -66 20.5 -95.5t73.5 -29.5q141 0 286.5 43t240 87t107.5 44t26.5 -23.5t13.5 -56.5z" />
<glyph unicode="&#xc8;" horiz-adv-x="1128" d="M508 887q109 0 233.5 11t154.5 11t47.5 -14t17.5 -35q0 -90 -170 -143t-363 -62q-80 -248 -80 -313q0 -35 35 -35q233 0 481 62q84 23 97 22q39 0 38 -55q0 -74 -108.5 -143.5t-272 -110.5t-321.5 -41q-94 0 -170 70.5t-76 166t105.5 478.5t111.5 577q-2 6 -2 25 q0 29 8 45q23 57 125.5 72.5t368.5 15.5q442 0 442 -98q0 -63 -108 -88q-74 -16 -203 -31q-199 -23 -354 -66q0 -139 -49 -321h12zM444 1911q0 59 45.5 113.5t92.5 54.5q37 0 82 -45q16 -16 52 -53t97 -98.5t90 -98.5t29 -74t-25.5 -64.5t-51.5 -27.5t-48.5 12t-66.5 45 t-72.5 50.5t-53 33t-38 23.5t-33 19t-29.5 19.5t-23.5 18.5t-20.5 18.5t-13 18.5q-13 17 -13 35z" />
<glyph unicode="&#xc9;" horiz-adv-x="1128" d="M508 887q109 0 233.5 11t154.5 11t47.5 -14t17.5 -35q0 -90 -170 -143t-363 -62q-80 -248 -80 -313q0 -35 35 -35q233 0 481 62q84 23 97 22q39 0 38 -55q0 -74 -108.5 -143.5t-272 -110.5t-321.5 -41q-94 0 -170 70.5t-76 166t105.5 478.5t111.5 577q-2 6 -2 25 q0 29 8 45q23 57 125.5 72.5t368.5 15.5q442 0 442 -98q0 -63 -108 -88q-74 -16 -203 -31q-199 -23 -354 -66q0 -139 -49 -321h12zM793.5 1626q-19.5 -8 -46 -8t-50 29.5t-23.5 69.5t24.5 78t74.5 80t88 76t56.5 49t41 33.5t34.5 26.5q31 16 54 17q49 0 90 -56.5t41 -101.5 t-7.5 -64.5t-33 -38t-49 -30.5t-80 -40t-90 -46.5t-69.5 -42t-55.5 -31.5z" />
<glyph unicode="&#xca;" horiz-adv-x="1128" d="M508 887q109 0 233.5 11t154.5 11t47.5 -14t17.5 -35q0 -90 -170 -143t-363 -62q-80 -248 -80 -313q0 -35 35 -35q233 0 481 62q84 23 97 22q39 0 38 -55q0 -74 -108.5 -143.5t-272 -110.5t-321.5 -41q-94 0 -170 70.5t-76 166t105.5 478.5t111.5 577q-2 6 -2 25 q0 29 8 45q23 57 125.5 72.5t368.5 15.5q442 0 442 -98q0 -63 -108 -88q-74 -16 -203 -31q-199 -23 -354 -66q0 -139 -49 -321h12zM579.5 1671.5q-30.5 -20.5 -67.5 -20.5t-61.5 28.5t-24.5 71.5q0 98 149 184q23 12 56 33t53.5 33t44.5 24q47 25 69.5 25t43 -22.5 t50.5 -68.5t50.5 -67.5t72.5 -73t73.5 -84t21.5 -60t-19.5 -45t-41.5 -17.5q-55 0 -138.5 58.5t-140.5 129.5q-57 -29 -108.5 -68.5t-82 -60z" />
<glyph unicode="&#xcb;" horiz-adv-x="1128" d="M508 887q109 0 233.5 11t154.5 11t47.5 -14t17.5 -35q0 -90 -170 -143t-363 -62q-80 -248 -80 -313q0 -35 35 -35q233 0 481 62q84 23 97 22q39 0 38 -55q0 -74 -108.5 -143.5t-272 -110.5t-321.5 -41q-94 0 -170 70.5t-76 166t105.5 478.5t111.5 577q-2 6 -2 25 q0 29 8 45q23 57 125.5 72.5t368.5 15.5q442 0 442 -98q0 -63 -108 -88q-74 -16 -203 -31q-199 -23 -354 -66q0 -139 -49 -321h12zM631 1636q-55 0 -121 66.5t-66 115t43 99.5t85 51t97.5 -100.5t55.5 -136t-31.5 -65.5t-62.5 -30zM995 1636q-55 0 -120.5 66.5t-65.5 115 t43 99.5t85 51t97.5 -100.5t55.5 -136t-32 -65.5t-63 -30z" />
<glyph unicode="&#xcc;" horiz-adv-x="632" d="M223 1911q0 59 45 113.5t92 54.5q37 0 82 -45q16 -16 52 -53t97.5 -98.5t90.5 -98.5t29 -74t-26 -64.5t-51.5 -27.5t-48 12t-66.5 45t-72.5 50.5t-53 33t-38 23.5t-33 19t-29.5 19.5t-23.5 18.5t-20.5 18.5t-13 18.5q-13 17 -13 35zM172 112q-70 85 -70 123.5t101.5 570 t105.5 652.5q4 68 64 68q49 0 131 -98.5t82 -184.5q0 -37 -56.5 -277.5t-76 -335.5t-33.5 -170t-23 -118q-57 -262 -90 -301q-12 -14 -24 -14q-41 0 -111 85z" />
<glyph unicode="&#xcd;" horiz-adv-x="632" d="M476.5 1647.5q-23.5 29.5 -23.5 69.5t24.5 78t74.5 80t88 76t56.5 49t41 33.5t34.5 26.5q31 16 53 17q49 0 90 -56.5t41 -101.5t-7 -64.5t-32.5 -38t-49 -30.5t-80 -40t-90 -46.5t-70.5 -40.5q-59 -41 -93 -41t-57.5 29.5zM172 112q-70 85 -70 123.5t101.5 570 t105.5 652.5q4 68 64 68q49 0 131 -98.5t82 -184.5q0 -37 -56.5 -277.5t-76 -335.5t-33.5 -170t-23 -118q-57 -262 -90 -301q-12 -14 -24 -14q-41 0 -111 85z" />
<glyph unicode="&#xce;" horiz-adv-x="632" d="M547.5 2044q17.5 6 35 6t38 -22.5t50 -68.5t50 -67.5t73 -73t74 -84t21.5 -60t-19.5 -45t-42.5 -17.5q-55 0 -138 58.5t-140 129.5q-57 -29 -108.5 -68.5t-82 -60t-67.5 -20.5t-61.5 28.5t-24.5 71.5q0 98 149 184q23 12 55.5 33t53 33t44 24.5t41 18.5zM172 112 q-70 85 -70 123.5t101.5 570t105.5 652.5q4 68 64 68q49 0 131 -98.5t82 -184.5q0 -37 -56.5 -277.5t-76 -335.5t-33.5 -170t-23 -118q-57 -262 -90 -301q-12 -14 -24 -14q-41 0 -111 85z" />
<glyph unicode="&#xcf;" horiz-adv-x="632" d="M631 1917q43 51 85 51t97 -100.5t55 -136t-31.5 -65.5t-62.5 -30q-55 0 -120.5 66.5t-65.5 115t43 99.5zM266 1917q43 51 85 51t97.5 -100.5t55.5 -136t-32 -65.5t-62 -30q-55 0 -121 66.5t-66 115t43 99.5zM172 112q-70 85 -70 123.5t101.5 570t105.5 652.5q4 68 64 68 q49 0 131 -98.5t82 -184.5q0 -37 -56.5 -277.5t-76 -335.5t-33.5 -170t-23 -118q-57 -262 -90 -301q-12 -14 -24 -14q-41 0 -111 85z" />
<glyph unicode="&#xd0;" horiz-adv-x="1329" d="M313 1544q160 0 349.5 -65.5t352.5 -172t272.5 -256t109.5 -302.5q0 -115 -185.5 -286t-429 -296t-399.5 -125q-35 0 -111.5 91t-76.5 134q0 76 67 314q-41 -4 -49 -5q-76 0 -127 45.5t-51 108.5q0 86 112 98q70 6 193 27q72 242 104 408q-74 49 -123 117.5t-49 116.5 t41 48zM1102 805q0 66 -121 173t-281 179q-6 -86 -55 -268q82 0 143.5 -40t61.5 -95q0 -74 -135 -103q-55 -12 -150 -28q-45 -141 -63.5 -206t-26.5 -85q201 68 414 228.5t213 244.5z" />
<glyph unicode="&#xd1;" d="M436 1724q0 92 89 192.5t177.5 100.5t139.5 -39t85 -89t54 -60q18 10 43 55q61 111 137 111q82 0 82 -94.5t-81 -195.5t-151.5 -101t-141 59t-121.5 156q-37 -18 -65 -67.5t-58.5 -87.5t-77.5 -38t-79 25.5t-32 72.5zM1073 1536q59 0 132 -61.5t73 -100.5 q0 -129 -60.5 -447.5t-154.5 -609t-170 -290.5q-31 0 -80 33.5t-65.5 79.5t-63.5 192q-109 334 -205 553q-14 -61 -37.5 -174t-38 -177.5t-35 -155.5t-36 -144.5t-33.5 -106.5q-33 -100 -61 -100q-41 0 -106.5 74.5t-65.5 129t117.5 570.5t127.5 647q6 78 47 78 q35 0 89.5 -41t94.5 -99.5t144.5 -380t165.5 -460.5q80 238 147 717q27 190 35 232t39 42z" />
<glyph unicode="&#xd2;" horiz-adv-x="1267" d="M674 1911q0 59 45 113.5t92 54.5q37 0 82 -45q16 -16 52 -53t97.5 -98.5t90 -98.5t28.5 -74t-25.5 -64.5t-51 -27.5t-48 12t-66.5 45t-73 50.5t-53.5 33t-37.5 23.5t-32.5 19t-30 19.5t-23.5 18.5t-20.5 18.5t-13.5 18.5q-12 17 -12 35zM864 646q88 161 88 308.5 t-36.5 227.5t-102 80t-171 -118t-190.5 -308.5t-85 -364.5q0 -88 24.5 -142.5t61.5 -54.5q86 0 204.5 105.5t206.5 266.5zM455 27q-152 0 -270.5 148.5t-118.5 295.5q0 188 71.5 386t179 342t236.5 237.5t238 93.5q199 0 325.5 -169t126.5 -380t-106.5 -427t-293.5 -371.5 t-388 -155.5z" />
<glyph unicode="&#xd3;" horiz-adv-x="1267" d="M926.5 1647.5q-23.5 29.5 -23.5 69.5t24.5 78t75 80t88 76t56 49t41 33.5t35.5 26.5q31 16 53 17q49 0 90 -56.5t41 -101.5t-7 -64.5t-33 -38t-49.5 -30.5t-79.5 -40t-90 -46.5t-71 -40.5q-59 -41 -93 -41t-57.5 29.5zM864 646q88 161 88 308.5t-36.5 227.5t-102 80 t-171 -118t-190.5 -308.5t-85 -364.5q0 -88 24.5 -142.5t61.5 -54.5q86 0 204.5 105.5t206.5 266.5zM455 27q-152 0 -270.5 148.5t-118.5 295.5q0 188 71.5 386t179 342t236.5 237.5t238 93.5q199 0 325.5 -169t126.5 -380t-106.5 -427t-293.5 -371.5t-388 -155.5z" />
<glyph unicode="&#xd4;" horiz-adv-x="1267" d="M998.5 2044q17.5 6 35 6t38 -22.5t50 -68.5t50 -67.5t72.5 -73t73.5 -84t21.5 -60t-19.5 -45t-41.5 -17.5q-55 0 -138 58.5t-141 129.5q-57 -29 -108 -68.5t-82 -60t-67.5 -20.5t-61.5 28.5t-25 71.5q0 98 150 184q23 12 55.5 33t53 33t44 24.5t41 18.5zM864 646 q88 161 88 308.5t-36.5 227.5t-102 80t-171 -118t-190.5 -308.5t-85 -364.5q0 -88 24.5 -142.5t61.5 -54.5q86 0 204.5 105.5t206.5 266.5zM455 27q-152 0 -270.5 148.5t-118.5 295.5q0 188 71.5 386t179 342t236.5 237.5t238 93.5q199 0 325.5 -169t126.5 -380t-106.5 -427 t-293.5 -371.5t-388 -155.5z" />
<glyph unicode="&#xd5;" horiz-adv-x="1267" d="M586 1724q0 92 89 192.5t177 100.5t139 -39t85 -89t54 -60q18 10 44 55q61 111 137 111q82 0 82 -94.5t-81 -195.5t-151.5 -101t-141.5 59t-122 156q-37 -18 -64.5 -67.5t-58.5 -87.5t-78 -38t-78.5 25.5t-31.5 72.5zM864 646q88 161 88 308.5t-36.5 227.5t-102 80 t-171 -118t-190.5 -308.5t-85 -364.5q0 -88 24.5 -142.5t61.5 -54.5q86 0 204.5 105.5t206.5 266.5zM455 27q-152 0 -270.5 148.5t-118.5 295.5q0 188 71.5 386t179 342t236.5 237.5t238 93.5q199 0 325.5 -169t126.5 -380t-106.5 -427t-293.5 -371.5t-388 -155.5z" />
<glyph unicode="&#xd6;" horiz-adv-x="1267" d="M1081 1917q43 51 85 51t97.5 -100.5t55.5 -136t-32 -65.5t-62 -30q-55 0 -121 66.5t-66 115t43 99.5zM717 1917q43 51 85 51t97 -100.5t55 -136t-31.5 -65.5t-62.5 -30q-55 0 -120.5 66.5t-65.5 115t43 99.5zM864 646q88 161 88 308.5t-36.5 227.5t-102 80t-171 -118 t-190.5 -308.5t-85 -364.5q0 -88 24.5 -142.5t61.5 -54.5q86 0 204.5 105.5t206.5 266.5zM455 27q-152 0 -270.5 148.5t-118.5 295.5q0 188 71.5 386t179 342t236.5 237.5t238 93.5q199 0 325.5 -169t126.5 -380t-106.5 -427t-293.5 -371.5t-388 -155.5z" />
<glyph unicode="&#xd7;" horiz-adv-x="886" d="M1016 989q0 -23 -127 -139q-88 -82 -234 -227q16 -23 47 -63t47.5 -62.5t41 -55t38 -53t27.5 -45.5q25 -45 25 -68q0 -78 -66 -77q-113 0 -328 254q-195 -203 -233.5 -228.5t-58.5 -25.5q-55 0 -106.5 54t-51.5 97q0 14 31.5 46t113.5 108t152 147q-102 145 -172 273.5 t-70 165t6 50t31 13.5q90 0 194.5 -35t104.5 -80q0 -74 76 -200q78 86 109.5 121.5t88.5 93.5q102 102 162 102q39 0 95.5 -59.5t56.5 -106.5z" />
<glyph unicode="&#xd8;" horiz-adv-x="1267" d="M1274 965q0 -195 -106.5 -411t-294 -371.5t-388.5 -155.5q-121 0 -235 100q-90 -104 -120 -104t-46 23.5t-16 50t84 141.5q-86 123 -86 233q0 188 71.5 386t179 342t236.5 237.5t238 93.5q174 0 311 -137q115 119 166 118q33 0 54 -19t21 -50q0 -57 -88 -154l-45 -49 q64 -131 64 -274zM922 1194q-45 68 -100.5 68t-128 -68t-142.5 -171t-122 -243.5t-60 -267.5q31 39 92 113.5t203.5 254t257.5 314.5zM983 944q0 29 -2 43q-270 -303 -569 -668q35 -45 71 -45q86 0 205 105.5t207 266.5t88 298z" />
<glyph unicode="&#xd9;" horiz-adv-x="1183" d="M356 1911q0 59 45 113.5t93 54.5q37 0 81 -45q16 -16 52.5 -53t97.5 -98.5t90 -98.5t29 -74t-25.5 -64.5t-51.5 -27.5t-48.5 12t-66.5 45t-72.5 50.5t-53 33t-38 23.5t-33 19t-29.5 19.5t-23.5 18.5t-20.5 18.5t-13 18.5q-13 17 -13 35zM319 1530q51 0 130 -74t79 -144.5 t-73.5 -365.5t-73.5 -406.5t27.5 -171t78 -59.5t118 73t130 188.5t104.5 276.5t42 299t-13.5 222t-13.5 100q0 63 53 64q66 0 169.5 -110.5t103.5 -263t-53.5 -350.5t-143.5 -374t-228.5 -292.5t-282.5 -116.5t-261 151.5t-117 309t41 365.5t82 374t41 235.5t61 69.5z" />
<glyph unicode="&#xda;" horiz-adv-x="1183" d="M609.5 1647.5q-23.5 29.5 -23.5 69.5t24.5 78t74.5 80t88 76t56.5 49t41 33.5t34.5 26.5q31 16 53 17q49 0 90.5 -56.5t41.5 -101.5t-7.5 -64.5t-33 -38t-49 -30.5t-80 -40t-90 -46.5t-68.5 -40.5q-61 -41 -95 -41t-57.5 29.5zM319 1530q51 0 130 -74t79 -144.5 t-73.5 -365.5t-73.5 -406.5t27.5 -171t78 -59.5t118 73t130 188.5t104.5 276.5t42 299t-13.5 222t-13.5 100q0 63 53 64q66 0 169.5 -110.5t103.5 -263t-53.5 -350.5t-143.5 -374t-228.5 -292.5t-282.5 -116.5t-261 151.5t-117 309t41 365.5t82 374t41 235.5t61 69.5z" />
<glyph unicode="&#xdb;" horiz-adv-x="1183" d="M681 2044q17 6 34.5 6t38 -22.5t50.5 -68.5t50 -67.5t72.5 -73t74 -84t21.5 -60t-19.5 -45t-41.5 -17.5q-55 0 -138.5 58.5t-140.5 129.5q-57 -29 -108.5 -68.5t-82 -60t-67.5 -20.5t-61.5 28.5t-24.5 71.5q0 98 149 184q23 12 55.5 33t53 33t44.5 24.5t41 18.5z M319 1530q51 0 130 -74t79 -144.5t-73.5 -365.5t-73.5 -406.5t27.5 -171t78 -59.5t118 73t130 188.5t104.5 276.5t42 299t-13.5 222t-13.5 100q0 63 53 64q66 0 169.5 -110.5t103.5 -263t-53.5 -350.5t-143.5 -374t-228.5 -292.5t-282.5 -116.5t-261 151.5t-117 309 t41 365.5t82 374t41 235.5t61 69.5z" />
<glyph unicode="&#xdc;" horiz-adv-x="1183" d="M764 1917q43 51 85 51t97 -100.5t55 -136t-31.5 -65.5t-62.5 -30q-55 0 -120.5 66.5t-65.5 115t43 99.5zM399 1917q43 51 85 51t97.5 -100.5t55.5 -136t-32 -65.5t-62 -30q-55 0 -121 66.5t-66 115t43 99.5zM319 1530q51 0 130 -74t79 -144.5t-73.5 -365.5t-73.5 -406.5 t27.5 -171t78 -59.5t118 73t130 188.5t104.5 276.5t42 299t-13.5 222t-13.5 100q0 63 53 64q66 0 169.5 -110.5t103.5 -263t-53.5 -350.5t-143.5 -374t-228.5 -292.5t-282.5 -116.5t-261 151.5t-117 309t41 365.5t82 374t41 235.5t61 69.5z" />
<glyph unicode="&#xdd;" horiz-adv-x="1148" d="M685.5 1647.5q-23.5 29.5 -23.5 69.5t24.5 78t74.5 80t88 76t56.5 49t41 33.5t34.5 26.5q31 16 53 17q49 0 90 -56.5t41 -101.5t-7 -64.5t-32.5 -38t-49 -30.5t-80 -40t-90.5 -46.5t-70 -40.5q-59 -41 -93 -41t-57.5 29.5zM618 827q37 0 130.5 176.5t189.5 351.5t143 175 q70 0 116 -63.5t46 -151.5q0 -61 -106.5 -236.5t-270.5 -433.5t-252 -438q-27 -57 -86 -118.5t-114 -61.5q-82 0 -82 131q0 78 155 362q25 45 35 68q-90 35 -163.5 114.5t-116.5 180.5q-90 211 -90 409q0 123 27.5 180.5t113.5 57.5q45 0 67.5 -62.5t41 -179.5t52 -206 t83.5 -172t81 -83z" />
<glyph unicode="&#xde;" horiz-adv-x="1095" d="M600 1268v-4q53 4 76 4q133 0 263 -136.5t130 -240.5q0 -162 -140.5 -291t-361.5 -182q-80 -20 -178 -27q-51 -223 -77.5 -297t-75 -74t-101.5 79t-53 130.5t49 262.5q154 641 154 978q0 68 63.5 68t157.5 -75.5t94 -194.5zM799 905q0 29 -49.5 52.5t-102.5 23.5 t-106 -16q-12 -49 -43 -160t-45 -168q37 6 88 18q258 74 258 250z" />
<glyph unicode="&#xdf;" horiz-adv-x="1226" d="M537 260l86 -4q119 0 192 63q43 37 43 100.5t-38 116t-83 78.5q-119 76 -119 144q0 31 63.5 77t128 100t64.5 117.5t-59 115t-123.5 51.5t-103.5 -72t-66 -209q-184 -918 -325 -918q-43 0 -91.5 52.5t-48.5 96.5t38 184.5t92.5 340t80.5 346.5q80 442 451 443 q168 0 292 -143.5t124 -272.5q0 -59 -32 -115.5t-69 -91.5q-100 -94 -100 -125q0 -12 29.5 -38.5t64.5 -57.5t64.5 -95.5t29.5 -146.5q0 -143 -126 -257.5t-302 -114.5q-106 0 -166.5 48t-60.5 117.5t70 69.5z" />
<glyph unicode="&#xe0;" horiz-adv-x="1060" d="M690 1081q86 0 198.5 -100t112.5 -183t-61 -192q37 -33 37 -59.5t-24.5 -110.5t-33 -130t-13.5 -72.5t-7 -42t-7 -38l-8 -36t-8.5 -30.5t-11.5 -26.5t-12 -19.5q-14 -16 -43 -16t-71 57t-62 139q-193 -197 -324 -196q-88 0 -190.5 97t-102.5 194.5t88.5 277.5 t240.5 333.5t302 153.5zM344 283q82 0 218 111.5t169 281.5q2 25 35 29q-6 117 -39 116q-82 0 -183.5 -106.5t-166 -227t-64.5 -178.5q0 -16 5.5 -21t25.5 -5zM528 1427q0 59 45 113.5t93 54.5q37 0 82 -45q16 -16 52 -53t97 -98.5t90 -98t29 -73.5t-25.5 -64.5t-51.5 -27.5 t-48.5 12t-66.5 45t-72.5 50.5t-53 32.5t-38 23.5t-33 19.5t-29.5 19.5t-23.5 18.5t-20.5 18t-13 19q-13 16 -13 34z" />
<glyph unicode="&#xe1;" horiz-adv-x="1060" d="M1130 1593q49 0 90.5 -56t41.5 -101t-7.5 -64.5t-33 -38t-49 -31t-80 -40t-90 -46t-68.5 -40.5q-61 -41 -95 -41t-57.5 29.5t-23.5 69.5t24.5 78t74.5 80t88 75.5t56.5 49t41 34t34.5 26.5q30 16 53 16zM690 1081q86 0 198.5 -100t112.5 -183t-61 -192q37 -33 37 -59.5 t-24.5 -110.5t-33 -130t-13.5 -72.5t-7 -42t-7 -38l-8 -36t-8.5 -30.5t-11.5 -26.5t-12 -19.5q-14 -16 -43 -16t-71 57t-62 139q-193 -197 -324 -196q-88 0 -190.5 97t-102.5 194.5t88.5 277.5t240.5 333.5t302 153.5zM344 283q82 0 218 111.5t169 281.5q2 25 35 29 q-6 117 -39 116q-82 0 -183.5 -106.5t-166 -227t-64.5 -178.5q0 -16 5.5 -21t25.5 -5z" />
<glyph unicode="&#xe2;" horiz-adv-x="1060" d="M1172.5 1251.5q21.5 -32.5 21.5 -60.5t-19.5 -45.5t-41.5 -17.5q-55 0 -138.5 58.5t-140.5 130.5q-57 -29 -108.5 -69t-82 -60.5t-67.5 -20.5t-61.5 29t-24.5 72q0 98 149 184q23 12 56 32.5t53 33t43 24.5q47 25 70.5 25t44 -22.5t50.5 -68.5t50.5 -68t72.5 -73 t73.5 -83.5zM690 1081q86 0 198.5 -100t112.5 -183t-61 -192q37 -33 37 -59.5t-24.5 -110.5t-33 -130t-13.5 -72.5t-7 -42t-7 -38l-8 -36t-8.5 -30.5t-11.5 -26.5t-12 -19.5q-14 -16 -43 -16t-71 57t-62 139q-193 -197 -324 -196q-88 0 -190.5 97t-102.5 194.5t88.5 277.5 t240.5 333.5t302 153.5zM344 283q82 0 218 111.5t169 281.5q2 25 35 29q-6 117 -39 116q-82 0 -183.5 -106.5t-166 -227t-64.5 -178.5q0 -16 5.5 -21t25.5 -5z" />
<glyph unicode="&#xe3;" horiz-adv-x="1060" d="M1165 1511q82 0 82 -94t-81 -195.5t-151.5 -101.5t-141 59.5t-121.5 155.5q-37 -18 -65 -67t-58.5 -87t-77.5 -38t-79 25.5t-32 72.5q0 92 89 192.5t177.5 100.5t139.5 -39t85 -89t54 -60q18 10 43 55q61 110 137 110zM690 1081q86 0 198.5 -100t112.5 -183t-61 -192 q37 -33 37 -59.5t-24.5 -110.5t-33 -130t-13.5 -72.5t-7 -42t-7 -38l-8 -36t-8.5 -30.5t-11.5 -26.5t-12 -19.5q-14 -16 -43 -16t-71 57t-62 139q-193 -197 -324 -196q-88 0 -190.5 97t-102.5 194.5t88.5 277.5t240.5 333.5t302 153.5zM344 283q82 0 218 111.5t169 281.5 q2 25 35 29q-6 117 -39 116q-82 0 -183.5 -106.5t-166 -227t-64.5 -178.5q0 -16 5.5 -21t25.5 -5z" />
<glyph unicode="&#xe4;" horiz-adv-x="1060" d="M936 1433.5q43 51.5 85 51.5t97.5 -100.5t55.5 -136.5t-32 -65.5t-63 -29.5q-55 0 -120.5 66.5t-65.5 114.5t43 99.5zM690 1081q86 0 198.5 -100t112.5 -183t-61 -192q37 -33 37 -59.5t-24.5 -110.5t-33 -130t-13.5 -72.5t-7 -42t-7 -38l-8 -36t-8.5 -30.5t-11.5 -26.5 t-12 -19.5q-14 -16 -43 -16t-71 57t-62 139q-193 -197 -324 -196q-88 0 -190.5 97t-102.5 194.5t88.5 277.5t240.5 333.5t302 153.5zM344 283q82 0 218 111.5t169 281.5q2 25 35 29q-6 117 -39 116q-82 0 -183.5 -106.5t-166 -227t-64.5 -178.5q0 -16 5.5 -21t25.5 -5z M715 1153q-55 0 -121 66.5t-66 114.5t43 99.5t85 51.5t97.5 -100.5t55.5 -136.5t-31.5 -65.5t-62.5 -29.5z" />
<glyph unicode="&#xe5;" horiz-adv-x="1060" d="M742.5 1513.5q72.5 71.5 162.5 71.5t148.5 -61.5t58.5 -157.5t-72.5 -168t-163 -72t-148.5 61.5t-58 158t72.5 168zM851 1294.5q15 -20.5 36.5 -20.5t39 25.5t17.5 58.5t-14.5 52.5t-37 19.5t-39.5 -25t-17 -57.5t15 -53zM690 1081q86 0 198.5 -100t112.5 -183t-61 -192 q37 -33 37 -59.5t-24.5 -110.5t-33 -130t-13.5 -72.5t-7 -42t-7 -38l-8 -36t-8.5 -30.5t-11.5 -26.5t-12 -19.5q-14 -16 -43 -16t-71 57t-62 139q-193 -197 -324 -196q-88 0 -190.5 97t-102.5 194.5t88.5 277.5t240.5 333.5t302 153.5zM344 283q82 0 218 111.5t169 281.5 q2 25 35 29q-6 117 -39 116q-82 0 -183.5 -106.5t-166 -227t-64.5 -178.5q0 -16 5.5 -21t25.5 -5z" />
<glyph unicode="&#xe6;" horiz-adv-x="1576" d="M735 821q-119 0 -270.5 -207.5t-151.5 -304.5q0 -27 47.5 -26.5t157 66t176.5 169.5q23 94 84 201q-12 102 -43 102zM1320 794.5q-38 34.5 -81 34.5t-105.5 -56t-113.5 -140q18 -2 57 -2q281 0 281 100q0 29 -38 63.5zM164.5 123q-105.5 98 -105.5 193.5t91.5 276.5 t246 334.5t301.5 153.5q51 0 124 -41t126 -100q147 141 286.5 141t250 -128t110.5 -255q0 -100 -136 -180t-280.5 -80t-236.5 21q-16 -59 -16 -112.5t18.5 -77t91.5 -23.5q154 0 263.5 28.5t113.5 28.5q84 0 84 -55q0 -80 -132 -151.5t-286 -71.5q-268 0 -370 213 q-217 -213 -349 -213q-90 0 -195.5 98z" />
<glyph unicode="&#xe7;" horiz-adv-x="1009" d="M823 350q57 0 58 -49q0 -82 -132.5 -168t-281.5 -104q-27 -57 -45 -86q59 -8 126.5 -47t67.5 -84q-2 -88 -135 -160t-295 -72q-59 0 -102 26.5t-43 53.5t49 40t136 28.5t145 44.5q-18 14 -62.5 24t-76 20.5t-31.5 26.5q0 37 88 217q-92 47 -165 130t-73 155 q0 143 90 315.5t236.5 295t288.5 122.5q72 0 147.5 -93t75.5 -167q0 -53 -49 -53q-25 0 -68 22.5t-88 22.5t-128 -77t-147.5 -184.5t-64.5 -169t23.5 -79.5t114.5 -18t166 16t110.5 33.5t64.5 17.5z" />
<glyph unicode="&#xe8;" horiz-adv-x="929" d="M812 518q-136 -80 -279.5 -80t-235.5 21q-18 -55 -18 -110.5t18 -79t92 -23.5q154 0 263.5 28.5t113.5 28.5q84 0 84 -55q0 -80 -132 -151.5t-305 -71.5t-277.5 108.5t-104.5 257t87 310t218 271t261 109.5t240.5 -128t110.5 -255q0 -100 -136 -180zM668 790.5 q-43 38.5 -81 38.5t-97.5 -54t-112.5 -140q18 -2 53 -2q281 0 281 98q0 21 -43 59.5zM262 1427q0 59 45 113.5t92 54.5q37 0 82 -45q16 -16 52 -53t97.5 -98.5t90.5 -98t29 -73.5t-26 -64.5t-51.5 -27.5t-48 12t-66.5 45t-72.5 50.5t-53 32.5t-38 23.5t-33 19.5t-29.5 19.5 t-23.5 18.5t-20.5 18t-14 19q-12 16 -12 34z" />
<glyph unicode="&#xe9;" horiz-adv-x="929" d="M864 1593q49 0 90 -56t41 -101t-7 -64.5t-32.5 -38t-49 -31t-80 -40t-90.5 -46t-68 -40.5q-61 -41 -95 -41t-57.5 29.5t-23.5 69.5t24.5 78t74.5 80t88 75.5t56.5 49t41 34t34.5 26.5q30 16 53 16zM336 971.5q131 109.5 261 109.5t240.5 -128t110.5 -255 q0 -100 -136 -180t-279.5 -80t-235.5 21q-18 -55 -18 -110.5t18 -79t92 -23.5q154 0 263.5 28.5t113.5 28.5q84 0 84 -55q0 -80 -132 -151.5t-305 -71.5t-277.5 108.5t-104.5 257t87 310t218 271zM430 633q281 0 281 98q0 20 -43 59t-81 39t-97.5 -54t-112.5 -140 q18 -2 53 -2z" />
<glyph unicode="&#xea;" horiz-adv-x="929" d="M812 518q-136 -80 -279.5 -80t-235.5 21q-18 -55 -18 -110.5t18 -79t92 -23.5q154 0 263.5 28.5t113.5 28.5q84 0 84 -55q0 -80 -132 -151.5t-305 -71.5t-277.5 108.5t-104.5 257t87 310t218 271t261 109.5t240.5 -128t110.5 -255q0 -100 -136 -180zM668 790.5 q-43 38.5 -81 38.5t-97.5 -54t-112.5 -140q18 -2 53 -2q281 0 281 98q0 21 -43 59.5zM397.5 1187.5q-30.5 -20.5 -67.5 -20.5t-61.5 29t-24.5 72q0 98 149 184q23 12 55.5 32.5t53 33t43.5 24.5q47 25 70.5 25t44 -22.5t50 -68.5t50 -68t73 -73t74 -83.5t21.5 -60.5 t-19.5 -45.5t-42.5 -17.5q-55 0 -138 58.5t-140 130.5q-57 -29 -108.5 -69t-82 -60.5z" />
<glyph unicode="&#xeb;" horiz-adv-x="929" d="M812 518q-136 -80 -279.5 -80t-235.5 21q-18 -55 -18 -110.5t18 -79t92 -23.5q154 0 263.5 28.5t113.5 28.5q84 0 84 -55q0 -80 -132 -151.5t-305 -71.5t-277.5 108.5t-104.5 257t87 310t218 271t261 109.5t240.5 -128t110.5 -255q0 -100 -136 -180zM668 790.5 q-43 38.5 -81 38.5t-97.5 -54t-112.5 -140q18 -2 53 -2q281 0 281 98q0 21 -43 59.5zM449 1153q-55 0 -121 66.5t-66 114.5t43 99.5t85 51.5t97.5 -100.5t55.5 -136.5t-31.5 -65.5t-62.5 -29.5zM813 1153q-55 0 -120.5 66.5t-65.5 114.5t43 99.5t85 51.5t97 -100.5 t55 -136.5t-31.5 -65.5t-62.5 -29.5z" />
<glyph unicode="&#xec;" horiz-adv-x="532" d="M119 1427q0 59 45 113.5t92 54.5q37 0 82 -45q16 -16 52 -53t97.5 -98.5t90 -98t28.5 -73.5t-25.5 -64.5t-51 -27.5t-48 12t-66.5 45t-73 50.5t-53.5 32.5t-37.5 23.5t-32.5 19.5t-30 19.5t-23.5 18.5t-20.5 18t-13.5 19q-12 16 -12 34zM328 1081q72 0 128 -81.5 t56 -157.5q0 -39 -70.5 -279.5t-140.5 -456.5q-25 -80 -104 -79q-45 0 -76 33.5t-31 76.5t12.5 105.5t38 167t36.5 162t26.5 139.5t26 136t24.5 114q33 120 74 120z" />
<glyph unicode="&#xed;" horiz-adv-x="532" d="M328 1081q72 0 128 -81.5t56 -157.5q0 -39 -70.5 -279.5t-140.5 -456.5q-25 -80 -104 -79q-45 0 -76 33.5t-31 76.5t12.5 105.5t38 167t36.5 162t26.5 139.5t26 136t24.5 114q33 120 74 120zM371.5 1164.5q-23.5 29.5 -23.5 69.5t24.5 78t75 80t88 75.5t56 49t41 34 t35.5 26.5q31 16 53 16q49 0 90 -56t41 -101t-7 -64.5t-33 -38t-49.5 -31t-79.5 -40t-90 -46t-69 -40.5q-61 -41 -95 -41t-57.5 29.5z" />
<glyph unicode="&#xee;" horiz-adv-x="532" d="M328 1081q72 0 128 -81.5t56 -157.5q0 -39 -70.5 -279.5t-140.5 -456.5q-25 -80 -104 -79q-45 0 -76 33.5t-31 76.5t12.5 105.5t38 167t36.5 162t26.5 139.5t26 136t24.5 114q33 120 74 120zM443.5 1560.5q17.5 6.5 35 6.5t38 -22.5t50 -68.5t50 -68t72.5 -73t73.5 -83.5 t21.5 -60.5t-19.5 -45.5t-41.5 -17.5q-55 0 -138 58.5t-141 130.5q-57 -29 -108 -69t-82 -60.5t-67.5 -20.5t-61.5 29t-25 72q0 98 150 184q23 12 55.5 32.5t53 33t44 24.5t41 18.5z" />
<glyph unicode="&#xef;" horiz-adv-x="532" d="M328 1081q72 0 128 -81.5t56 -157.5q0 -39 -70.5 -279.5t-140.5 -456.5q-25 -80 -104 -79q-45 0 -76 33.5t-31 76.5t12.5 105.5t38 167t36.5 162t26.5 139.5t26 136t24.5 114q33 120 74 120zM526 1433.5q43 51.5 85 51.5t97.5 -100.5t55.5 -136.5t-32 -65.5t-62 -29.5 q-55 0 -121 66.5t-66 114.5t43 99.5zM162 1433.5q43 51.5 85 51.5t97 -100.5t55 -136.5t-31.5 -65.5t-62.5 -29.5q-55 0 -120.5 66.5t-65.5 114.5t43 99.5z" />
<glyph unicode="&#xf0;" horiz-adv-x="925" d="M967 1303q0 -43 -146 -115q86 -162 86 -359.5t-66.5 -382t-203.5 -303t-320 -118.5q-115 0 -208 103t-93 241q0 248 145.5 414.5t315.5 166.5q68 0 137 -55q-6 109 -41 199q-164 -53 -229 -53.5t-65 49.5q0 39 51 64.5t101 40.5t52 16t6.5 2t8.5 4q-6 8 -23 24 q-51 55 -102 55q-12 0 -49 -12t-54 -12q-45 0 -45 60.5t68.5 110.5t139.5 50t157 -52t158 -143q137 49 161.5 49.5t41 -14t16.5 -30.5zM354 233q63 0 157.5 148.5t104.5 343.5q-37 37 -71 37q-66 0 -160 -110.5t-94 -245.5q0 -57 17 -115t46 -58z" />
<glyph unicode="&#xf1;" horiz-adv-x="1130" d="M803 1081q106 0 187 -95t81 -204q0 -174 -56.5 -363.5t-123 -291.5t-135 -102t-68.5 96q0 74 68 297q51 184 51 264t-21 80q-27 0 -52 -26.5t-41.5 -47t-38 -52.5t-37 -57.5t-39 -65.5t-38 -65.5t-36.5 -66.5q-190 -356 -299 -356q-43 0 -108.5 74.5t-65.5 109.5 q0 23 29.5 97.5t43 114.5t22.5 85t15 97t9.5 81t7.5 90q18 266 31.5 295t29.5 29q78 0 149.5 -64.5t71.5 -118.5q0 -127 -65 -364q133 233 242.5 381.5t185.5 148.5zM430 1181q-31 -38 -78 -38t-78.5 25.5t-31.5 72.5q0 92 89 192.5t177 100.5t139 -39t85 -89t54 -60 q18 10 43 55q61 111 138 110q82 0 82 -94t-81 -195.5t-152 -101.5t-141.5 59.5t-121.5 155.5q-37 -18 -64.5 -67t-58.5 -87z" />
<glyph unicode="&#xf2;" horiz-adv-x="925" d="M332 1427q0 59 45 113.5t92 54.5q37 0 82 -45q16 -16 52 -53t97.5 -98.5t90 -98t28.5 -73.5t-25.5 -64.5t-51 -27.5t-48 12t-66.5 45t-73 50.5t-53.5 32.5t-37.5 23.5t-32.5 19.5t-30 19.5t-23.5 18.5t-20.5 18t-13.5 19q-12 16 -12 34zM532.5 432.5 q81.5 149.5 81.5 280.5t-36 180q-88 -51 -175.5 -215t-87.5 -288t25 -157q111 50 192.5 199.5zM199.5 854q158.5 229 314.5 229t262.5 -109.5t106.5 -264t-74 -314t-207 -265t-285 -105.5q-113 0 -194.5 100t-81.5 244q0 256 158.5 485z" />
<glyph unicode="&#xf3;" horiz-adv-x="925" d="M532.5 432.5q81.5 149.5 81.5 280.5t-36 180q-88 -51 -175.5 -215t-87.5 -288t25 -157q111 50 192.5 199.5zM199.5 854q158.5 229 314.5 229t262.5 -109.5t106.5 -264t-74 -314t-207 -265t-285 -105.5q-113 0 -194.5 100t-81.5 244q0 256 158.5 485zM584.5 1164.5 q-23.5 29.5 -23.5 69.5t24.5 78t75 80t88 75.5t56 49t41 34t35.5 26.5q31 16 53 16q49 0 90 -56t41 -101t-7 -64.5t-33 -38t-49.5 -31t-79.5 -40t-90 -46t-69 -40.5q-61 -41 -95 -41t-57.5 29.5z" />
<glyph unicode="&#xf4;" horiz-adv-x="925" d="M532.5 432.5q81.5 149.5 81.5 280.5t-36 180q-88 -51 -175.5 -215t-87.5 -288t25 -157q111 50 192.5 199.5zM199.5 854q158.5 229 314.5 229t262.5 -109.5t106.5 -264t-74 -314t-207 -265t-285 -105.5q-113 0 -194.5 100t-81.5 244q0 256 158.5 485zM656.5 1560.5 q17.5 6.5 35 6.5t38 -22.5t50 -68.5t50 -68t72.5 -73t73.5 -83.5t21.5 -60.5t-19.5 -45.5t-41.5 -17.5q-55 0 -138 58.5t-141 130.5q-57 -29 -108 -69t-82 -60.5t-68 -20.5t-61.5 29t-24.5 72q0 98 150 184q23 12 55.5 32.5t53 33t44 24.5t41 18.5z" />
<glyph unicode="&#xf5;" horiz-adv-x="925" d="M244 1241q0 92 89 192.5t177 100.5t139 -39t85 -89t54 -60q18 10 43 55q61 111 138 110q82 0 82 -94t-81 -195.5t-151.5 -101.5t-141.5 59.5t-122 155.5q-37 -18 -64.5 -67t-58.5 -87t-78 -38t-78.5 25.5t-31.5 72.5zM532.5 432.5q81.5 149.5 81.5 280.5t-36 180 q-88 -51 -175.5 -215t-87.5 -288t25 -157q111 50 192.5 199.5zM199.5 854q158.5 229 314.5 229t262.5 -109.5t106.5 -264t-74 -314t-207 -265t-285 -105.5q-113 0 -194.5 100t-81.5 244q0 256 158.5 485z" />
<glyph unicode="&#xf6;" horiz-adv-x="925" d="M532.5 432.5q81.5 149.5 81.5 280.5t-36 180q-88 -51 -175.5 -215t-87.5 -288t25 -157q111 50 192.5 199.5zM199.5 854q158.5 229 314.5 229t262.5 -109.5t106.5 -264t-74 -314t-207 -265t-285 -105.5q-113 0 -194.5 100t-81.5 244q0 256 158.5 485zM739 1433.5 q43 51.5 85 51.5t97.5 -100.5t55.5 -136.5t-32 -65.5t-62 -29.5q-55 0 -121 66.5t-66 114.5t43 99.5zM375 1433.5q43 51.5 85 51.5t97 -100.5t55 -136.5t-31.5 -65.5t-62.5 -29.5q-55 0 -120.5 66.5t-65.5 114.5t43 99.5z" />
<glyph unicode="&#xf7;" horiz-adv-x="1228" d="M836 899q-66 0 -146 80t-80 138.5t50.5 117.5t102.5 59t117.5 -115.5t65.5 -174.5q0 -31 -36.5 -68t-73.5 -37zM610 78q-63 0 -144 80t-81 137t51 116.5t102.5 59.5t118 -115.5t66.5 -159.5t-38 -81t-75 -37zM1354 770q0 -66 -136.5 -113t-340.5 -69q-375 -41 -682 -41 q-63 0 -109.5 60.5t-46.5 116.5t63 56q6 0 408.5 24.5t623 24.5t220.5 -59z" />
<glyph unicode="&#xf8;" horiz-adv-x="925" d="M1006 723q0 -154 -92.5 -316.5t-244 -272t-302.5 -109.5q-78 0 -174 69q-90 -74 -131.5 -74t-41.5 39q0 25 82 127q-61 88 -61 183q0 156 91 323.5t234.5 279t270.5 111.5t219 -69q80 70 119 69.5t57.5 -17.5t18.5 -44q0 -57 -78 -143l-2 -2q35 -76 35 -154zM272 385 l443 485q-29 23 -60 23q-68 0 -157.5 -95.5t-154.5 -216t-71 -196.5zM367 205q123 0 247.5 157.5t165.5 309.5q-264 -276 -446 -453q19 -14 33 -14z" />
<glyph unicode="&#xf9;" horiz-adv-x="980" d="M764 1030q16 51 65.5 51t114 -84t64.5 -145q0 -23 -94.5 -301.5t-145.5 -439.5q-29 -86 -96 -86q-41 0 -69 29.5t-28 93t25 180.5q-211 -303 -336 -303q-66 0 -158 85t-92 164q0 197 112 502t210 305q59 0 105 -53t46 -117q0 -25 -51 -137q-156 -346 -155 -477 q0 -12 10 -12q31 0 116 97t190.5 278.5t166.5 369.5zM326 1427q0 59 45 113.5t92 54.5q37 0 82 -45q16 -16 52 -53t97.5 -98.5t90 -98t28.5 -73.5t-25.5 -64.5t-51 -27.5t-48 12t-66.5 45t-73 50.5t-53.5 32.5t-38 23.5t-32.5 19.5t-29.5 19.5t-24 18.5t-20.5 18t-13 19 q-12 16 -12 34z" />
<glyph unicode="&#xfa;" horiz-adv-x="980" d="M928 1593q49 0 90 -56t41 -101t-7.5 -64.5t-33 -38t-49 -31t-79.5 -40t-90 -46t-71 -40.5q-59 -41 -93 -41t-57.5 29.5t-23.5 69.5t24.5 78t75 80t88 75.5t56 49t41 34t34.5 26.5q31 16 54 16zM764 1030q16 51 65.5 51t114 -84t64.5 -145q0 -23 -94.5 -301.5 t-145.5 -439.5q-29 -86 -96 -86q-41 0 -69 29.5t-28 93t25 180.5q-211 -303 -336 -303q-66 0 -158 85t-92 164q0 197 112 502t210 305q59 0 105 -53t46 -117q0 -25 -51 -137q-156 -346 -155 -477q0 -12 10 -12q31 0 116 97t190.5 278.5t166.5 369.5z" />
<glyph unicode="&#xfb;" horiz-adv-x="980" d="M764 1030q16 51 65.5 51t114 -84t64.5 -145q0 -23 -94.5 -301.5t-145.5 -439.5q-29 -86 -96 -86q-41 0 -69 29.5t-28 93t25 180.5q-211 -303 -336 -303q-66 0 -158 85t-92 164q0 197 112 502t210 305q59 0 105 -53t46 -117q0 -25 -51 -137q-156 -346 -155 -477 q0 -12 10 -12q31 0 116 97t190.5 278.5t166.5 369.5zM461 1187.5q-31 -20.5 -68 -20.5t-61.5 29t-24.5 72q0 98 150 184q23 12 55.5 32.5t53 33t44.5 24.5q45 25 68.5 25t44 -22.5t50.5 -68.5t50.5 -68t72.5 -73t73.5 -83.5t21.5 -60.5t-19.5 -45.5t-41.5 -17.5 q-55 0 -138 58.5t-141 130.5q-57 -29 -108 -69t-82 -60.5z" />
<glyph unicode="&#xfc;" horiz-adv-x="980" d="M764 1030q16 51 65.5 51t114 -84t64.5 -145q0 -23 -94.5 -301.5t-145.5 -439.5q-29 -86 -96 -86q-41 0 -69 29.5t-28 93t25 180.5q-211 -303 -336 -303q-66 0 -158 85t-92 164q0 197 112 502t210 305q59 0 105 -53t46 -117q0 -25 -51 -137q-156 -346 -155 -477 q0 -12 10 -12q31 0 116 97t190.5 278.5t166.5 369.5zM512 1153q-55 0 -120.5 66.5t-65.5 114.5t43 99.5t85 51.5t97 -100.5t55 -136.5t-31.5 -65.5t-62.5 -29.5zM877 1153q-55 0 -121 66.5t-66 114.5t43 99.5t85 51.5t97.5 -100.5t55.5 -136.5t-31.5 -65.5t-62.5 -29.5z" />
<glyph unicode="&#xfd;" horiz-adv-x="1064" d="M981 1593q49 0 90 -56t41 -101t-7 -64.5t-32.5 -38t-49.5 -31t-80 -40t-90 -46t-71 -40.5q-59 -41 -93 -41t-57.5 29.5t-23.5 69.5t24.5 78t75 80t88.5 75.5t56 49t40.5 34t35.5 26.5q30 16 53 16zM815 1030q12 51 67.5 51t114 -69.5t58.5 -157.5q0 -51 -37 -161.5 t-52.5 -158t-44 -128t-52 -149.5t-63.5 -183.5t-73 -212.5q-63 -184 -154.5 -284.5t-236.5 -100.5t-260 76.5t-115 154.5q0 47 42 104.5t72 57.5t78 -48t99 -96.5t90 -48.5q27 0 44.5 25t28.5 44t23.5 53t22.5 62.5t24.5 76t24.5 83.5q35 111 59 197q-68 -88 -139 -140 t-131.5 -52t-149.5 91t-89 200.5t48 294t119.5 327.5t126.5 143q63 0 120 -54t57 -104.5t-50.5 -161t-101.5 -241.5t-51 -223q0 -12 10 -12q27 0 113 99t193.5 282.5t164.5 363.5z" />
<glyph unicode="&#xfe;" horiz-adv-x="1077" d="M708.5 1049q90.5 0 221.5 -130.5t131 -253t-118 -244.5t-266.5 -189.5t-258.5 -67.5q-59 0 -111 22q-152 -596 -190 -596q-43 0 -107.5 72t-64.5 116t87 379t175 756.5t88 677.5q0 61 59 62q49 0 129 -89t80 -167t-63 -389q118 41 208.5 41zM401 379q63 0 159.5 41 t176.5 114.5t80 149.5q0 49 -43 78t-95 29t-126 -30t-121 -65q-55 -229 -78 -317h47z" />
<glyph unicode="&#xff;" horiz-adv-x="1064" d="M815 1030q12 51 67.5 51t114 -69.5t58.5 -157.5q0 -51 -37 -161.5t-52.5 -158t-44 -128t-52 -149.5t-63.5 -183.5t-73 -212.5q-63 -184 -154.5 -284.5t-236.5 -100.5t-260 76.5t-115 154.5q0 47 42 104.5t72 57.5t78 -48t99 -96.5t90 -48.5q27 0 44.5 25t28.5 44t23.5 53 t22.5 62.5t24.5 76t24.5 83.5q35 111 59 197q-68 -88 -139 -140t-131.5 -52t-149.5 91t-89 200.5t48 294t119.5 327.5t126.5 143q63 0 120 -54t57 -104.5t-50.5 -161t-101.5 -241.5t-51 -223q0 -12 10 -12q27 0 113 99t193.5 282.5t164.5 363.5zM565 1153q-55 0 -120.5 66.5 t-65.5 114.5t43 99.5t85 51.5t97 -100.5t55 -136.5t-31.5 -65.5t-62.5 -29.5zM930 1153q-55 0 -121 66.5t-66 114.5t43 99.5t85 51.5t97.5 -100.5t55.5 -136.5t-31.5 -65.5t-62.5 -29.5z" />
<glyph unicode="&#x100;" d="M1040 795q82 0 118 -15.5t36 -56.5q0 -55 -178 -113q4 -156 4 -298t-22.5 -212.5t-71.5 -70.5t-77 50t-45.5 164.5t-35.5 303.5q-209 -47 -301 -76q-160 -442 -213 -442q-43 0 -113.5 57t-70.5 119q0 35 80 217q-35 23 -61 64.5t-26 80.5q0 68 203 129q16 41 33.5 93.5 t88.5 245t112 321.5q18 61 127.5 114.5t171.5 53.5q72 0 128 -199t79 -530h34zM567 760q61 8 178 20q-6 59 -19 202.5t-19 207.5q-36 -115 -140 -430zM365 1788q0 55 141 69.5t428 14.5q162 0 162 -62q0 -39 -64.5 -57t-193.5 -39.5t-199 -34.5q-123 -25 -162 -23.5 t-75.5 47.5t-36.5 85z" />
<glyph unicode="&#x101;" horiz-adv-x="1060" d="M1040 1389q162 0 162 -62q0 -39 -64.5 -57.5t-193.5 -40t-199 -33.5q-123 -25 -161.5 -23.5t-75.5 47.5t-37 85q0 55 141 69.5t428 14.5zM690 1081q86 0 198.5 -100t112.5 -183t-61 -192q37 -33 37 -59.5t-24.5 -110.5t-33 -130t-13.5 -72.5t-7 -42t-7 -38l-8 -36 t-8.5 -30.5t-11.5 -26.5t-12 -19.5q-14 -16 -43 -16t-71 57t-62 139q-193 -197 -324 -196q-88 0 -190.5 97t-102.5 194.5t88.5 277.5t240.5 333.5t302 153.5zM344 283q82 0 218 111.5t169 281.5q2 25 35 29q-6 117 -39 116q-82 0 -183.5 -106.5t-166 -227t-64.5 -178.5 q0 -16 5.5 -21t25.5 -5z" />
<glyph unicode="&#x102;" d="M1040 795q82 0 118 -15.5t36 -56.5q0 -55 -178 -113q4 -156 4 -298t-22.5 -212.5t-71.5 -70.5t-77 50t-45.5 164.5t-35.5 303.5q-209 -47 -301 -76q-160 -442 -213 -442q-43 0 -113.5 57t-70.5 119q0 35 80 217q-35 23 -61 64.5t-26 80.5q0 68 203 129q16 41 33.5 93.5 t88.5 245t112 321.5q18 61 127.5 114.5t171.5 53.5q72 0 128 -199t79 -530h34zM567 760q61 8 178 20q-6 59 -19 202.5t-19 207.5q-36 -115 -140 -430zM1015 1709q-120 -95 -252 -95t-221 88t-89 177t48 131t93 42q41 0 70 -119q12 -43 45.5 -79.5t91 -36.5t106.5 36.5 t88 73.5t72 37t50.5 -18.5t17.5 -47.5q0 -94 -120 -189z" />
<glyph unicode="&#x103;" horiz-adv-x="1060" d="M1102 1444q39 37 71.5 37t50 -18.5t17.5 -47.5q0 -94 -120 -189.5t-252 -95.5t-221 88.5t-89 177.5t48 131t93 42q41 0 70 -119q12 -43 46 -80t91.5 -37t106.5 37t88 74zM690 1081q86 0 198.5 -100t112.5 -183t-61 -192q37 -33 37 -59.5t-24.5 -110.5t-33 -130 t-13.5 -72.5t-7 -42t-7 -38l-8 -36t-8.5 -30.5t-11.5 -26.5t-12 -19.5q-14 -16 -43 -16t-71 57t-62 139q-193 -197 -324 -196q-88 0 -190.5 97t-102.5 194.5t88.5 277.5t240.5 333.5t302 153.5zM344 283q82 0 218 111.5t169 281.5q2 25 35 29q-6 117 -39 116 q-82 0 -183.5 -106.5t-166 -227t-64.5 -178.5q0 -16 5.5 -21t25.5 -5z" />
<glyph unicode="&#x104;" d="M817 174q-23 109 -49 373q-209 -47 -301 -76q-160 -442 -213 -442q-43 0 -113.5 57t-70.5 119q0 35 80 217q-35 23 -61 64.5t-26 80.5q0 68 203 129q16 41 33.5 93.5t88.5 245t112 321.5q18 61 127.5 114.5t171.5 53.5q72 0 128 -199t79 -530h34q82 0 118 -15.5t36 -56.5 q0 -55 -178 -113q4 -156 4 -248q0 -285 -62 -323q-20 -27 -59 -60.5t-65.5 -59t-26.5 -42.5q0 -23 63 -22l76 6q33 0 62.5 -31t29.5 -59q0 -117 -311 -117q-72 0 -126 39t-54 88q0 84 91 212t179 181zM567 760q61 8 178 20q-6 59 -19 202.5t-19 207.5q-36 -115 -140 -430z " />
<glyph unicode="&#x105;" horiz-adv-x="1060" d="M762 -147l76 6q31 0 61.5 -30t30.5 -60q0 -117 -312 -117q-72 0 -126 39t-54 88q0 80 84 201.5t172 181.5q-12 27 -18 59q-193 -197 -324 -196q-88 0 -190.5 97t-102.5 194.5t88.5 277.5t241 333.5t301.5 153.5q86 0 198.5 -100t112.5 -183t-61 -192q37 -33 37 -59.5 t-24.5 -110.5t-45 -198.5t-33.5 -151.5q-10 -47 -93 -118.5t-82.5 -93t63.5 -21.5zM344 283q82 0 218 111.5t169 281.5q2 25 35 29q-6 117 -39 116q-82 0 -183.5 -106.5t-166 -227t-64.5 -178.5q0 -16 5.5 -21t25.5 -5z" />
<glyph unicode="&#x106;" horiz-adv-x="1288" d="M898 1647.5q-24 29.5 -24 69.5t25 78t75 80t88 76t56.5 49t41 33.5t34.5 26.5q31 16 53 17q49 0 90 -56.5t41 -101.5t-7 -64.5t-32.5 -38t-49 -30.5t-80 -40t-90.5 -46.5t-70 -40.5q-59 -41 -93 -41t-58 29.5zM903 1530q57 0 125 -101.5t68 -167t-27 -65.5q-12 0 -52 8 t-69 8q-102 0 -239.5 -131t-234.5 -313t-97 -315q0 -66 20.5 -95.5t73.5 -29.5q141 0 286.5 43t240 87t107.5 44t26.5 -23.5t13.5 -56.5q0 -70 -110.5 -165t-267.5 -162.5t-284 -67.5t-267 153.5t-140 292.5q0 195 125 443.5t322.5 431t379.5 182.5z" />
<glyph unicode="&#x107;" horiz-adv-x="1009" d="M74 346q0 143 90 315.5t236.5 295t287.5 122.5q72 0 147.5 -93t75.5 -167q0 -53 -49 -53q-25 0 -67.5 22.5t-87.5 22.5t-128 -77t-147.5 -184.5t-64.5 -169t23.5 -79.5t114.5 -18t165.5 16t110.5 33.5t65 17.5q57 0 57 -49q0 -90 -157.5 -183t-315.5 -93 q-100 0 -228 111.5t-128 209.5zM613.5 1164.5q-23.5 29.5 -23.5 69.5t24.5 78t74.5 80t88 75.5t56.5 49t41 34t34.5 26.5q31 16 54 16q49 0 90 -56t41 -101t-7.5 -64.5t-33 -38t-49 -31t-80 -40t-90 -46t-68.5 -40.5q-61 -41 -95 -41t-57.5 29.5z" />
<glyph unicode="&#x10c;" horiz-adv-x="1288" d="M1225 1974q76 0 75 -71q0 -35 -32.5 -64t-52 -43t-53.5 -37.5t-54.5 -39t-51 -41t-48.5 -40.5q-43 -37 -76 -36q-47 0 -177 128t-130 203q0 47 25.5 79t66.5 32t71.5 -23.5t77.5 -78t92 -91.5q171 123 267 123zM903 1530q57 0 125 -101.5t68 -167t-27 -65.5q-12 0 -52 8 t-69 8q-102 0 -239.5 -131t-234.5 -313t-97 -315q0 -66 20.5 -95.5t73.5 -29.5q141 0 286.5 43t240 87t107.5 44t26.5 -23.5t13.5 -56.5q0 -70 -110.5 -165t-267.5 -162.5t-284 -67.5t-267 153.5t-140 292.5q0 195 125 443.5t322.5 431t379.5 182.5z" />
<glyph unicode="&#x10d;" horiz-adv-x="1009" d="M74 346q0 143 90 315.5t236.5 295t287.5 122.5q72 0 147.5 -93t75.5 -167q0 -53 -49 -53q-25 0 -67.5 22.5t-87.5 22.5t-128 -77t-147.5 -184.5t-64.5 -169t23.5 -79.5t114.5 -18t165.5 16t110.5 33.5t65 17.5q57 0 57 -49q0 -90 -157.5 -183t-315.5 -93 q-100 0 -228 111.5t-128 209.5zM940 1491q76 0 76 -72q0 -35 -33 -63.5t-52.5 -43t-53 -38t-54 -38.5t-51.5 -41t-47 -40q-45 -37 -78 -37q-47 0 -177 128t-130 204q0 47 25.5 79t66.5 32t72 -24t78 -78t92 -91q170 123 266 123z" />
<glyph unicode="&#x10e;" horiz-adv-x="1363" d="M225 1530q160 0 349.5 -65.5t352.5 -172t272.5 -256t109.5 -303.5q0 -115 -185.5 -286t-429 -295.5t-399.5 -124.5q-35 0 -112 91t-77 134q0 84 112 468t138 527q-74 49 -123 118t-49 117t41 48zM1014 791q0 66 -121 173t-281 179q-12 -154 -174 -658q-8 -27 -25.5 -87 t-25.5 -81q201 68 414 229t213 245zM909 1479q-47 0 -177 128t-130 203q0 47 25.5 79t66.5 32t72 -23.5t78 -78t92 -90.5q170 123 266 122q76 0 76 -71q0 -35 -33 -63.5t-52 -43t-53 -38t-54.5 -39t-51 -41t-47.5 -39.5q-45 -37 -78 -37z" />
<glyph unicode="&#x10f;" horiz-adv-x="1595" d="M1395 1624q80 0 140 -58.5t60 -119.5q0 -106 -111.5 -213t-230.5 -107q-72 0 -71 64q0 41 79.5 104.5t106.5 104.5q-129 0 -129 94q0 39 56.5 85t99.5 46zM629 176v14q-199 -166 -290 -165.5t-174 95.5t-83 173t21.5 173t66.5 201.5t103.5 200t141.5 153.5t171 60 q131 0 215 -135q106 467 106 647q0 61 60 62q49 0 129 -89t80 -167q0 -39 -72 -323.5t-86 -344.5q-164 -707 -240 -706q-43 0 -96 51t-53 100zM362 285q51 0 173 88t182 223q-2 16 -2 71.5t-37 104.5t-68 49q-61 0 -117.5 -65.5t-89.5 -155.5q-70 -190 -69 -289q0 -16 5 -21 t23 -5z" />
<glyph unicode="&#x110;" horiz-adv-x="1363" d="M225 1530q160 0 349.5 -65.5t352.5 -172t272.5 -256t109.5 -303.5q0 -115 -185.5 -286t-429 -295.5t-399.5 -124.5q-35 0 -112 91t-77 134q0 76 72 326q-66 10 -103.5 49t-37.5 104q0 84 110 96q18 2 56.5 6.5t48.5 6.5q74 252 104 407q-74 49 -123 118t-49 117t41 48z M1014 791q0 66 -121 173t-281 179q-6 -80 -53 -258q49 4 59 4q98 0 165 -36t67 -103q0 -35 -37 -63t-81 -34t-253 -43q-45 -137 -64.5 -204.5t-27.5 -88.5q201 68 414 229t213 245z" />
<glyph unicode="&#x111;" horiz-adv-x="1040" d="M1292 1384q162 0 162 -61q0 -39 -62.5 -57.5t-254.5 -48.5q-102 -420 -119 -486q-164 -707 -240 -706q-43 0 -96 51t-53 100q0 10 2 17q-205 -168 -294 -168t-172 95t-83 173t21.5 173t66.5 201.5t103.5 200t141.5 153.5t171 60q131 0 215 -133q33 147 47 219h-10 q-41 2 -78 48.5t-37 84.5q0 55 164 72q23 145 21.5 214t58.5 69q49 0 129 -89t80 -167q0 -8 -2 -15h118zM362 285q51 0 173 88t182 223q-2 16 -2 71.5t-37 104.5t-68 49q-61 0 -117.5 -65.5t-89.5 -155.5q-70 -190 -69 -289q0 -16 5 -21t23 -5z" />
<glyph unicode="&#x112;" horiz-adv-x="1128" d="M508 887q109 0 233.5 11t154.5 11t47.5 -14t17.5 -35q0 -90 -170 -143t-363 -62q-80 -248 -80 -313q0 -35 35 -35q233 0 481 62q84 23 97 22q39 0 38 -55q0 -74 -108.5 -143.5t-272 -110.5t-321.5 -41q-94 0 -170 70.5t-76 166t105.5 478.5t111.5 577q-2 6 -2 25 q0 29 8 45q23 57 125.5 72.5t368.5 15.5q442 0 442 -98q0 -63 -108 -88q-74 -16 -203 -31q-199 -23 -354 -66q0 -139 -49 -321h12zM387 1788q0 55 141.5 69.5t427.5 14.5q162 0 162 -62q0 -39 -64.5 -57t-193.5 -39.5t-198 -34.5q-123 -25 -162 -23.5t-76 47.5t-37 85z" />
<glyph unicode="&#x113;" horiz-adv-x="929" d="M812 518q-136 -80 -279.5 -80t-235.5 21q-18 -55 -18 -110.5t18 -79t92 -23.5q154 0 263.5 28.5t113.5 28.5q84 0 84 -55q0 -80 -132 -151.5t-305 -71.5t-277.5 108.5t-104.5 257t87 310t218 271t261 109.5t240.5 -128t110.5 -255q0 -100 -136 -180zM668 790.5 q-43 38.5 -81 38.5t-97.5 -54t-112.5 -140q18 -2 53 -2q281 0 281 98q0 21 -43 59.5zM205 1305q0 55 141 69.5t428 14.5q162 0 162 -62q0 -39 -64.5 -57.5t-193.5 -40t-199 -33.5q-123 -25 -161.5 -23.5t-75.5 47.5t-37 85z" />
<glyph unicode="&#x116;" horiz-adv-x="1128" d="M508 887q109 0 233.5 11t154.5 11t47.5 -14t17.5 -35q0 -90 -170 -143t-363 -62q-80 -248 -80 -313q0 -35 35 -35q233 0 481 62q84 23 97 22q39 0 38 -55q0 -74 -108.5 -143.5t-272 -110.5t-321.5 -41q-94 0 -170 70.5t-76 166t105.5 478.5t111.5 577q-2 6 -2 25 q0 29 8 45q23 57 125.5 72.5t368.5 15.5q442 0 442 -98q0 -63 -108 -88q-74 -16 -203 -31q-199 -23 -354 -66q0 -139 -49 -321h12zM801 1608q-55 0 -121 65.5t-66 113.5t42 97t84 49t97.5 -96t55.5 -133t-30.5 -66.5t-61.5 -29.5z" />
<glyph unicode="&#x117;" horiz-adv-x="929" d="M812 518q-136 -80 -279.5 -80t-235.5 21q-18 -55 -18 -110.5t18 -79t92 -23.5q154 0 263.5 28.5t113.5 28.5q84 0 84 -55q0 -80 -132 -151.5t-305 -71.5t-277.5 108.5t-104.5 257t87 310t218 271t261 109.5t240.5 -128t110.5 -255q0 -100 -136 -180zM668 790.5 q-43 38.5 -81 38.5t-97.5 -54t-112.5 -140q18 -2 53 -2q281 0 281 98q0 21 -43 59.5zM618 1124q-55 0 -120.5 65.5t-65.5 114t42 97.5t84 49t97.5 -96.5t55.5 -133t-31 -66.5t-62 -30z" />
<glyph unicode="&#x118;" horiz-adv-x="1128" d="M961 45l75 6q33 0 62.5 -29.5t29.5 -60.5q0 -117 -311 -117q-72 0 -126 39t-54 91.5t39 125.5q-188 -59 -379 -59q-94 0 -170 70.5t-76 166t105.5 478.5t111.5 577q-2 6 -2 25q0 29 8 45q23 57 125.5 72.5t368.5 15.5q442 0 442 -98q0 -63 -108 -88q-74 -16 -203 -31 q-199 -23 -354 -66q0 -139 -49 -321h12q109 0 233.5 11t154.5 11t47.5 -14t17.5 -35q0 -90 -170 -143t-363 -62q-80 -248 -80 -313q0 -35 35 -35q233 0 481 62q84 23 95.5 22.5t19.5 -4.5q35 -4 65.5 -31.5t30.5 -59.5t-27.5 -69t-60.5 -63q-90 -66 -90 -96q1 -23 64 -23z " />
<glyph unicode="&#x119;" horiz-adv-x="929" d="M770 -37l76 6q31 0 61.5 -29.5t30.5 -60.5q0 -117 -311 -117q-72 0 -126.5 39t-54.5 90.5t46 137.5q-41 -4 -60 -4q-193 0 -297 108.5t-104 257t87 310t218 271t261 109.5t240.5 -128t110.5 -255q0 -100 -136 -180t-279.5 -80t-235.5 21q-18 -55 -18 -110.5t18 -79 t110.5 -23.5t172 13t122.5 28q49 18 81 18t67 -28.5t35 -65.5t-45 -84t-89 -85t-44 -58.5t63 -20.5zM668 790.5q-43 38.5 -81 38.5t-97.5 -54t-112.5 -140q18 -2 53 -2q281 0 281 98q0 21 -43 59.5z" />
<glyph unicode="&#x11a;" horiz-adv-x="1128" d="M508 887q109 0 233.5 11t154.5 11t47.5 -14t17.5 -35q0 -90 -170 -143t-363 -62q-80 -248 -80 -313q0 -35 35 -35q233 0 481 62q84 23 97 22q39 0 38 -55q0 -74 -108.5 -143.5t-272 -110.5t-321.5 -41q-94 0 -170 70.5t-76 166t105.5 478.5t111.5 577q-2 6 -2 25 q0 29 8 45q23 57 125.5 72.5t368.5 15.5q442 0 442 -98q0 -63 -108 -88q-74 -16 -203 -31q-199 -23 -354 -66q0 -139 -49 -321h12zM731 1602q-47 0 -177 128t-130 203q0 47 25.5 79t66.5 32t71.5 -23.5t78 -78t92.5 -91.5q170 123 266 123q76 0 76 -71q0 -35 -33 -64 t-52.5 -43t-53 -37.5t-54 -39t-51.5 -41t-49 -40.5q-43 -36 -76 -36z" />
<glyph unicode="&#x11b;" horiz-adv-x="929" d="M812 518q-136 -80 -279.5 -80t-235.5 21q-18 -55 -18 -110.5t18 -79t92 -23.5q154 0 263.5 28.5t113.5 28.5q84 0 84 -55q0 -80 -132 -151.5t-305 -71.5t-277.5 108.5t-104.5 257t87 310t218 271t261 109.5t240.5 -128t110.5 -255q0 -100 -136 -180zM668 790.5 q-43 38.5 -81 38.5t-97.5 -54t-112.5 -140q18 -2 53 -2q281 0 281 98q0 21 -43 59.5zM549 1118q-47 0 -177 128t-130 204q0 47 25.5 79t66.5 32t71.5 -24t77.5 -78t92 -91q170 123 267 123q76 0 76 -72q0 -35 -33 -63.5t-52.5 -43t-53.5 -38t-54 -38.5t-51 -41t-47 -40 q-45 -37 -78 -37z" />
<glyph unicode="&#x11e;" horiz-adv-x="1222" d="M1261.5 1886q38.5 37 71.5 37t50.5 -18.5t17.5 -46.5q0 -94 -120 -189.5t-252 -95.5t-221 88t-89 177t48 131t93 42q41 0 70 -119q12 -43 46 -79.5t91 -36.5t106.5 36.5t88 73.5zM665.5 766q98.5 27 213 27t175 -92.5t60.5 -205t-95 -388t-165 -275.5q-29 0 -48.5 17.5 t-19.5 44.5q0 147 82 421q-96 -123 -209.5 -198.5t-233.5 -75.5t-251 104.5t-131 229.5q0 221 131 490.5t332 460t379 190.5q61 0 127.5 -96.5t66.5 -176.5q0 -37 -26 -37q-4 0 -39 8.5t-86 8.5q-137 0 -280.5 -140.5t-233.5 -345.5t-90 -385q0 -53 69 -53q96 0 236.5 86 t216.5 193q-45 -2 -109.5 -2.5t-117 38.5t-52.5 82t98.5 70z" />
<glyph unicode="&#x11f;" horiz-adv-x="964" d="M962.5 1444q38.5 37 71.5 37t50.5 -18.5t17.5 -47.5q0 -94 -120 -189.5t-252 -95.5t-221 88.5t-89 177.5t48 131t93 42q41 0 70 -119q12 -43 46 -80t91 -37t106.5 37t88 74zM838 639q31 -35 30.5 -84t-41.5 -121q-51 -123 -90 -305t-76.5 -291.5t-81.5 -187.5t-120 -129 t-174 -51q-137 0 -246 90t-109 154.5t35 116.5t64.5 52t57.5 -32.5t51.5 -70.5t62.5 -71t86 -33t86 61.5t61 133.5q49 170 62 240q-139 -86 -226.5 -86t-169.5 95t-82 180t46.5 213t119 256t184 220t224.5 92q76 0 129 -37.5t78 -101.5q43 -111 43 -250q0 -20 -4 -53z M270 309q0 -27 23 -26q59 0 192 108.5t179 214.5v39q0 133 -25 162q-12 14 -33 14q-98 0 -217 -207t-119 -305z" />
<glyph unicode="&#x122;" horiz-adv-x="1222" d="M665.5 766q98.5 27 213 27t175 -92.5t60.5 -205t-95 -388t-165 -275.5q-29 0 -48.5 17.5t-19.5 44.5q0 147 82 421q-96 -123 -209.5 -198.5t-233.5 -75.5t-251 104.5t-131 229.5q0 221 131 490.5t332 460t379 190.5q61 0 127.5 -96.5t66.5 -176.5q0 -37 -26 -37 q-4 0 -39 8.5t-86 8.5q-137 0 -280.5 -140.5t-233.5 -345.5t-90 -385q0 -53 69 -53q96 0 236.5 86t216.5 193q-45 -2 -109.5 -2.5t-117 38.5t-52.5 82t98.5 70zM440 -27q80 0 140.5 -58t60.5 -120q0 -106 -111.5 -212.5t-230.5 -106.5q-72 0 -72 63q0 41 80 104.5t107 104.5 q-55 -8 -92 21.5t-37 70.5t56 87t99 46z" />
<glyph unicode="&#x123;" horiz-adv-x="964" d="M838 639q31 -35 30.5 -86t-47.5 -135q-29 -74 -62.5 -216.5t-65 -256t-81.5 -228.5q-104 -248 -327 -247q-137 0 -246 90t-109 154.5t35 116.5t64.5 52t57.5 -32.5t51.5 -70.5t62.5 -71t80 -33t69.5 27t57.5 104q39 100 88 302q-141 -84 -227.5 -84t-168.5 95t-82 180 t46.5 213t119 256t184 220t224.5 92q250 0 250 -389q0 -20 -4 -53zM270 309q0 -27 25 -26q57 0 189 102t180 211q-2 14 -2 50t-1.5 58.5t-5.5 53.5q-10 63 -49 63q-98 0 -217 -207t-119 -305zM676 1130q-80 0 -140.5 58.5t-60.5 120.5q0 106 111.5 212.5t230.5 106.5 q72 0 72 -63q0 -41 -80 -104.5t-107 -104.5q59 0 94 -26.5t35 -66.5t-56 -86.5t-99 -46.5z" />
<glyph unicode="&#x12a;" horiz-adv-x="632" d="M897 1810q0 -39 -64.5 -57t-193.5 -39.5t-199 -34.5q-123 -25 -161.5 -23.5t-75.5 47.5t-37 85q0 55 141.5 69.5t427.5 14.5q162 -1 162 -62zM172 112q-70 85 -70 123.5t101.5 570t105.5 652.5q4 68 64 68q49 0 131 -98.5t82 -184.5q0 -37 -56.5 -277.5t-76 -335.5 t-33.5 -170t-23 -118q-57 -262 -90 -301q-12 -14 -24 -14q-41 0 -111 85z" />
<glyph unicode="&#x12b;" horiz-adv-x="532" d="M793 1327q0 -39 -64.5 -57.5t-193.5 -40t-199 -33.5q-123 -25 -162 -23.5t-76 47.5t-37 85q0 55 141.5 69.5t428.5 14.5q162 -1 162 -62zM328 1081q72 0 128 -81.5t56 -157.5q0 -39 -70.5 -279.5t-140.5 -456.5q-25 -80 -104 -79q-45 0 -76 33.5t-31 76.5t12.5 105.5 t38 167t36.5 162t26.5 139.5t26 136t24.5 114q33 120 74 120z" />
<glyph unicode="&#x12e;" horiz-adv-x="632" d="M217 -145l76 6q31 0 61.5 -31t30.5 -59q0 -117 -311 -117q-72 0 -126 39t-54 88q0 78 79.5 194.5t165.5 182.5q-37 53 -37 84.5t101.5 563t105.5 652.5q4 68 64 68q49 0 131 -98.5t82 -184.5q0 -37 -56.5 -277.5t-76 -337t-39 -191.5t-28.5 -142t-26 -109 q-29 -117 -51 -144.5t-62 -62t-66.5 -60t-26.5 -42.5q0 -22 63 -22z" />
<glyph unicode="&#x12f;" horiz-adv-x="532" d="M168 -147l76 6q31 0 61.5 -30t30.5 -60q0 -117 -311 -117q-72 0 -126.5 39t-54.5 88q0 78 80 194.5t166 182.5q2 63 39 211.5t48 205t26.5 138.5t26 136t24.5 114q33 121 74 120q72 0 128 -81.5t56 -157.5q0 -39 -70.5 -279.5t-140.5 -456.5q-10 -37 -37 -59 q-18 -29 -60 -64.5t-71 -63.5t-29 -44q1 -22 64 -22z" />
<glyph unicode="&#x130;" horiz-adv-x="632" d="M580 1608q-55 0 -121 65.5t-66 113.5t42 97t84 49t97.5 -96t55.5 -133t-30.5 -66.5t-61.5 -29.5zM172 112q-70 85 -70 123.5t101.5 570t105.5 652.5q4 68 64 68q49 0 131 -98.5t82 -184.5q0 -37 -56.5 -277.5t-76 -335.5t-33.5 -170t-23 -118q-57 -262 -90 -301 q-12 -14 -24 -14q-41 0 -111 85z" />
<glyph unicode="&#x131;" horiz-adv-x="532" d="M328 1081q72 0 128 -81.5t56 -157.5q0 -39 -70.5 -279.5t-140.5 -456.5q-25 -80 -104 -79q-45 0 -76 33.5t-31 76.5t12.5 105.5t38 167t36.5 162t26.5 139.5t26 136t24.5 114q33 120 74 120z" />
<glyph unicode="&#x136;" horiz-adv-x="1232" d="M244 27h-4q-45 0 -113 83t-68 145t120 560t120 629q0 82 59 82q49 0 119 -97.5t70 -185.5q0 -53 -53 -272q168 223 315 373.5t201.5 150.5t110 -46t55.5 -80t-104.5 -132t-258.5 -249.5t-238 -282.5q0 -158 183 -318q55 -47 147 -97t144.5 -86t52.5 -73 q0 -104 -147.5 -104t-317.5 119.5t-254 318.5q-53 -152 -65.5 -220.5t-17.5 -91t-9 -36t-8 -29.5t-8.5 -25.5t-8.5 -17.5q-12 -18 -22 -18zM496 -27q80 0 140 -58t60 -120q0 -106 -111.5 -212.5t-230.5 -106.5q-72 0 -71 63q0 41 79.5 104.5t106.5 104.5q-55 -8 -92 21.5 t-37 70.5t56.5 87t99.5 46z" />
<glyph unicode="&#x137;" horiz-adv-x="1013" d="M242 25q-47 0 -118 75.5t-71 120.5q0 12 68.5 243.5t137.5 557.5t69 569q0 63 57 64q49 0 130 -89t81 -167q0 -113 -81 -426.5t-161 -493.5q27 35 73 93.5t74.5 95.5t70.5 90t71 87t63.5 76t60.5 67.5t52 47.5q49 45 76 45q51 0 112.5 -68.5t61.5 -119.5q0 -20 -87 -94 t-174 -164t-87 -161t42 -137.5t91 -101t91 -70.5t42 -61q0 -80 -108 -79q-129 0 -342 217l-50 49q-184 -266 -245 -266zM549 -14q80 0 140.5 -58.5t60.5 -120.5q0 -109 -112 -214t-230 -105q-72 0 -72 63q0 41 81 103.5t105 105.5q-61 0 -95 27t-34 67t56.5 86t99.5 46z" />
<glyph unicode="&#x139;" horiz-adv-x="1118" d="M689.5 1647.5q-23.5 29.5 -23.5 69.5t24.5 78t74.5 80t88 76t56.5 49t41 33.5t34.5 26.5q31 16 53 17q49 0 90 -56.5t41 -101.5t-7 -64.5t-32.5 -38t-49 -30.5t-80 -40t-90 -46.5t-70.5 -40.5q-59 -41 -93 -41t-57.5 29.5zM446 1556q51 0 125 -67.5t74 -138.5 q0 -197 -203 -762q-70 -199 -69 -277q0 -10 4 -12t75.5 -2t197.5 21.5t205 42t93 20.5q51 0 51 -66q0 -129 -195.5 -207.5t-453.5 -78.5q-100 0 -183 74.5t-83 164.5t151.5 582.5t151.5 638.5q0 67 59 67z" />
<glyph unicode="&#x13a;" horiz-adv-x="479" d="M465 1565q78 -90 78 -172t-24.5 -292t-51.5 -335q-170 -741 -238 -741q-45 0 -111.5 72.5t-66.5 119.5q0 4 55.5 213t111.5 537.5t56 627.5q0 59 64 60q49 0 127 -90zM488.5 1627q-23.5 30 -23.5 70t24.5 77.5t74.5 79.5t88 76t56.5 49.5t41 34t34.5 26.5q31 16 54 16 q49 0 90 -56t41 -101.5t-7.5 -64.5t-33 -37.5t-49 -31t-80 -40t-90 -46t-70.5 -41.5q-59 -41 -93 -41t-57.5 30z" />
<glyph unicode="&#x13b;" horiz-adv-x="1118" d="M446 1556q51 0 125 -67.5t74 -138.5q0 -197 -203 -762q-70 -199 -69 -277q0 -10 4 -12t75.5 -2t197.5 21.5t205 42t93 20.5q51 0 51 -66q0 -129 -195.5 -207.5t-453.5 -78.5q-100 0 -183 74.5t-83 164.5t151.5 582.5t151.5 638.5q0 67 59 67zM219 -461q0 41 80 104.5 t107 104.5q-55 -8 -92.5 21.5t-37.5 70.5t56.5 87t99.5 46q80 0 140.5 -58t60.5 -120q0 -106 -111.5 -212.5t-230.5 -106.5q-72 0 -72 63z" />
<glyph unicode="&#x13c;" horiz-adv-x="479" d="M467 1565q78 -90 78 -172t-24.5 -292t-51.5 -335q-170 -741 -238 -741q-45 0 -111.5 72.5t-66.5 119.5q0 4 55.5 213t111.5 537.5t56 627.5q0 59 64 60q49 0 127 -90zM297 -264q0 -109 -111.5 -214.5t-230.5 -105.5q-72 0 -72 64q0 41 81 103.5t106 105.5q-61 0 -95 26.5 t-34 66.5t56 86t99 46q80 0 140.5 -58.5t60.5 -119.5z" />
<glyph unicode="&#x13d;" horiz-adv-x="1118" d="M446 1556q51 0 125 -67.5t74 -138.5q0 -197 -203 -762q-70 -199 -69 -277q0 -10 4 -12t75.5 -2t197.5 21.5t205 42t93 20.5q51 0 51 -66q0 -129 -195.5 -207.5t-453.5 -78.5q-100 0 -183 74.5t-83 164.5t151.5 582.5t151.5 638.5q0 67 59 67zM705 1114q0 41 80.5 103.5 t105.5 105.5q-61 0 -95 26.5t-34 66.5t56 86t100 46q80 0 140 -58t60 -120q0 -109 -111.5 -214t-230.5 -105q-71 0 -71 63z" />
<glyph unicode="&#x13e;" horiz-adv-x="1026" d="M467 1565q78 -90 78 -172t-24.5 -292t-51.5 -335q-170 -741 -238 -741q-45 0 -111.5 72.5t-66.5 119.5q0 4 55.5 213t111.5 537.5t56 627.5q0 59 64 60q49 0 127 -90zM989 1446q0 -109 -111.5 -214.5t-230.5 -105.5q-72 0 -72 64q0 41 81 103.5t106 105.5q-61 0 -95 26.5 t-34 66.5t56 86t99 46q80 0 140.5 -58.5t60.5 -119.5z" />
<glyph unicode="&#x141;" horiz-adv-x="1118" d="M948 381q51 0 51 -66q0 -129 -195.5 -207.5t-453.5 -78.5q-100 0 -183 74.5t-83 163.5t104 429q-57 -8 -63 -8q-47 0 -86 43t-39 74q0 55 256 115q131 432 131 569q0 68 59 67q51 0 125 -67.5t74 -138.5q0 -137 -74 -377q127 16 158 16q90 0 90 -43t-68.5 -76.5 t-240.5 -89.5q-10 -35 -73.5 -213t-63.5 -256q0 -10 4 -12t75.5 -2t197.5 21.5t205 42t93 20.5z" />
<glyph unicode="&#x142;" horiz-adv-x="784" d="M350 25q-45 0 -111.5 72.5t-66.5 119.5q0 12 16 74q76 291 105 426q-53 -16 -74 -17q-47 0 -86 43t-39 74q0 57 240 115q61 358 61 663q0 59 64 60q49 0 127 -90t78 -168q0 -133 -39 -412q92 12 123 12q90 0 90 -43q0 -37 -56.5 -67.5t-183.5 -71.5l-10 -49 q-170 -741 -238 -741z" />
<glyph unicode="&#x143;" d="M777.5 1647.5q-23.5 29.5 -23.5 69.5t24.5 78t74.5 80t88 76t56.5 49t41 33.5t34.5 26.5q31 16 53 17q49 0 90 -56.5t41 -101.5t-7 -64.5t-32.5 -38t-49 -30.5t-80 -40t-90 -46.5t-68.5 -40.5q-61 -41 -95 -41t-57.5 29.5zM1073 1536q59 0 132 -61.5t73 -100.5 q0 -129 -60.5 -447.5t-154.5 -609t-170 -290.5q-31 0 -80 33.5t-65.5 79.5t-63.5 192q-109 334 -205 553q-14 -61 -37.5 -174t-38 -177.5t-35 -155.5t-36 -144.5t-33.5 -106.5q-33 -100 -61 -100q-41 0 -106.5 74.5t-65.5 129t117.5 570.5t127.5 647q6 78 47 78 q35 0 89.5 -41t94.5 -99.5t144.5 -380t165.5 -460.5q80 238 147 717q27 190 35 232t39 42z" />
<glyph unicode="&#x144;" horiz-adv-x="1130" d="M803 1081q106 0 187 -95t81 -204q0 -174 -56.5 -363.5t-123 -291.5t-135 -102t-68.5 96q0 74 68 297q51 184 51 264t-21 80q-27 0 -52 -26.5t-41.5 -47t-38 -52.5t-37 -57.5t-39 -65.5t-38 -65.5t-36.5 -66.5q-190 -356 -299 -356q-43 0 -108.5 74.5t-65.5 109.5 q0 23 29.5 97.5t43 114.5t22.5 85t15 97t9.5 81t7.5 90q18 266 31.5 295t29.5 29q78 0 149.5 -64.5t71.5 -118.5q0 -127 -65 -364q133 233 242.5 381.5t185.5 148.5zM678.5 1143q-19.5 -8 -46 -8t-50 29.5t-23.5 69.5t24.5 78t75 80t88 75.5t56 49t41 34t35.5 26.5 q31 16 53 16q49 0 90 -56t41 -101t-7 -64.5t-33 -38t-49.5 -31t-79.5 -40t-90 -46t-70 -42t-55.5 -31.5z" />
<glyph unicode="&#x145;" d="M1073 1536q59 0 132 -61.5t73 -100.5q0 -129 -60.5 -447.5t-154.5 -609t-170 -290.5q-31 0 -80 33.5t-65.5 79.5t-63.5 192q-109 334 -205 553q-14 -61 -37.5 -174t-38 -177.5t-35 -155.5t-36 -144.5t-33.5 -106.5q-33 -100 -61 -100q-41 0 -106.5 74.5t-65.5 129 t117.5 570.5t127.5 647q6 78 47 78q35 0 89.5 -41t94.5 -99.5t144.5 -380t165.5 -460.5q80 238 147 717q27 190 35 232t39 42zM276 -461q0 41 80 104.5t107 104.5q-55 -8 -92 21.5t-37 70.5t56 87t99 46q80 0 140.5 -58t60.5 -120q0 -106 -111.5 -212.5t-230.5 -106.5 q-72 0 -72 63z" />
<glyph unicode="&#x146;" horiz-adv-x="1130" d="M805 1081q106 0 187 -95t81 -204q0 -174 -56 -363.5t-123 -291.5t-135.5 -102t-68.5 96q0 74 68 297q51 184 51 264t-21 80q-27 0 -52 -26.5t-41.5 -47t-38 -52.5t-37 -57.5t-39 -65.5t-38 -65.5t-36.5 -66.5q-190 -356 -299 -356q-43 0 -108.5 74.5t-65.5 109.5 q0 23 29.5 97.5t43 114.5t22.5 85t15.5 97t9.5 81t7 90q18 266 31.5 295t29.5 29q78 0 149.5 -64.5t71.5 -118.5q0 -127 -65 -364q133 233 242.5 381.5t185.5 148.5zM459 -14q80 0 140 -58.5t60 -120.5q0 -109 -111.5 -214t-230.5 -105q-72 0 -71 63q0 41 81 103.5 t105 105.5q-61 0 -95 27t-34 67t56.5 86t99.5 46z" />
<glyph unicode="&#x147;" d="M1104 1974q76 0 76 -71q0 -35 -33 -64t-52.5 -43t-53 -37.5t-54 -39t-51.5 -41t-47 -40.5q-45 -37 -78 -36q-47 0 -177 128t-130 203q0 47 25.5 79t66.5 32t71.5 -23.5t78 -78t92.5 -91.5q170 123 266 123zM1073 1536q59 0 132 -61.5t73 -100.5q0 -129 -60.5 -447.5 t-154.5 -609t-170 -290.5q-31 0 -80 33.5t-65.5 79.5t-63.5 192q-109 334 -205 553q-14 -61 -37.5 -174t-38 -177.5t-35 -155.5t-36 -144.5t-33.5 -106.5q-33 -100 -61 -100q-41 0 -106.5 74.5t-65.5 129t117.5 570.5t127.5 647q6 78 47 78q35 0 89.5 -41t94.5 -99.5 t144.5 -380t165.5 -460.5q80 238 147 717q27 190 35 232t39 42z" />
<glyph unicode="&#x148;" horiz-adv-x="1130" d="M803 1081q106 0 187 -95t81 -204q0 -174 -56.5 -363.5t-123 -291.5t-135 -102t-68.5 96q0 74 68 297q51 184 51 264t-21 80q-27 0 -52 -26.5t-41.5 -47t-38 -52.5t-37 -57.5t-39 -65.5t-38 -65.5t-36.5 -66.5q-190 -356 -299 -356q-43 0 -108.5 74.5t-65.5 109.5 q0 23 29.5 97.5t43 114.5t22.5 85t15 97t9.5 81t7.5 90q18 266 31.5 295t29.5 29q78 0 149.5 -64.5t71.5 -118.5q0 -127 -65 -364q133 233 242.5 381.5t185.5 148.5zM616 1118q-47 0 -177 128t-130 204q0 47 25.5 79t66.5 32t72 -24t78 -78t92 -91q170 123 266 123 q76 0 76 -72q0 -35 -32.5 -63.5t-52 -43t-53.5 -38t-54.5 -38.5t-51 -41t-49.5 -40q-43 -37 -76 -37z" />
<glyph unicode="&#x14c;" horiz-adv-x="1267" d="M1348 1810q0 -39 -64.5 -57t-193.5 -39.5t-199 -34.5q-123 -25 -162 -23.5t-76 47.5t-37 85q0 55 141.5 69.5t428.5 14.5q162 -1 162 -62zM864 646q88 161 88 308.5t-36.5 227.5t-102 80t-171 -118t-190.5 -308.5t-85 -364.5q0 -88 24.5 -142.5t61.5 -54.5 q86 0 204.5 105.5t206.5 266.5zM455 27q-152 0 -270.5 148.5t-118.5 295.5q0 188 71.5 386t179 342t236.5 237.5t238 93.5q199 0 325.5 -169t126.5 -380t-106.5 -427t-293.5 -371.5t-388 -155.5z" />
<glyph unicode="&#x14d;" horiz-adv-x="925" d="M532.5 432.5q81.5 149.5 81.5 280.5t-36 180q-88 -51 -175.5 -215t-87.5 -288t25 -157q111 50 192.5 199.5zM199.5 854q158.5 229 314.5 229t262.5 -109.5t106.5 -264t-74 -314t-207 -265t-285 -105.5q-113 0 -194.5 100t-81.5 244q0 256 158.5 485zM1006 1327 q0 -39 -64.5 -57.5t-194 -40t-198.5 -33.5q-123 -25 -162 -23.5t-76 47.5t-37 85q0 55 141.5 69.5t428.5 14.5q162 -1 162 -62z" />
<glyph unicode="&#x150;" horiz-adv-x="1267" d="M1311 2079q55 0 91 -44t36 -90.5t-5.5 -66.5t-21.5 -40.5t-27.5 -31t-43 -36t-44 -36t-32 -27.5t-27.5 -24.5t-24.5 -20.5t-25.5 -19.5t-24 -12.5q-25 -14 -49 -14t-39.5 27.5t-15.5 60.5q0 68 76 186q12 20 29.5 48t25.5 41.5t20.5 32t19.5 26.5t17 18t19 12 q29 11 45 11zM845 2056q36 47 87 47t89 -49t38 -94t-10.5 -71.5t-19.5 -39t-42 -48.5t-73 -82t-73.5 -75.5t-64.5 -29.5t-47 27.5t-16 70.5t48 170t84 174zM864 646q88 161 88 308.5t-36.5 227.5t-102 80t-171 -118t-190.5 -308.5t-85 -364.5q0 -88 24.5 -142.5t61.5 -54.5 q86 0 204.5 105.5t206.5 266.5zM455 27q-152 0 -270.5 148.5t-118.5 295.5q0 188 71.5 386t179 342t236.5 237.5t238 93.5q199 0 325.5 -169t126.5 -380t-106.5 -427t-293.5 -371.5t-388 -155.5z" />
<glyph unicode="&#x151;" horiz-adv-x="925" d="M532.5 432.5q81.5 149.5 81.5 280.5t-36 180q-88 -51 -175.5 -215t-87.5 -288t25 -157q111 50 192.5 199.5zM199.5 854q158.5 229 314.5 229t262.5 -109.5t106.5 -264t-74 -314t-207 -265t-285 -105.5q-113 0 -194.5 100t-81.5 244q0 256 158.5 485zM969 1595 q55 0 91 -44t36 -90t-5.5 -66.5t-21.5 -41t-27.5 -30.5t-43 -35.5t-44 -36t-32 -28t-27.5 -24.5t-24.5 -20.5t-25.5 -19.5t-22 -12q-27 -14 -51 -14t-39.5 27.5t-15.5 60.5q0 68 76 186q12 20 29.5 48t25.5 41t20.5 31.5t19.5 27t17 18.5t21 12q27 10 43 10zM503 1573 q36 47 87 47t89 -49t38 -94t-10.5 -72t-19.5 -39t-42 -48t-73 -82t-73.5 -76t-64.5 -30t-47 28t-16 71t48 170t84 174z" />
<glyph unicode="&#x152;" horiz-adv-x="1945" d="M1268 887q109 0 233.5 11t154.5 11t47 -14t17 -35q0 -90 -170 -143t-362 -62q-80 -248 -80 -313q0 -35 35 -35q233 0 479 62q86 23 98 22q39 0 39 -55q0 -74 -108.5 -143.5t-272.5 -110.5t-321 -41q-66 0 -127.5 38t-93.5 97q-182 -150 -381 -149q-152 0 -270.5 148.5 t-118.5 295.5q0 188 71.5 386t179 342t236.5 237.5t238 93.5q150 0 262 -100q37 39 139 50t336 11q442 0 442 -98q0 -63 -110 -88q-72 -16 -201 -31q-199 -23 -354 -66q0 -139 -50 -321h13zM952 944q0 158 -36.5 238t-102 80t-171 -118t-190.5 -308.5t-85 -364.5 q0 -88 24.5 -142.5t61.5 -54.5q109 0 259 162t212 348q28 105 28 160z" />
<glyph unicode="&#x153;" horiz-adv-x="1855" d="M1241 731q0 20 -43 59t-82 39t-98.5 -54t-112.5 -140q18 -2 56 -2q280 0 280 98zM532.5 424q81.5 137 81.5 278.5t-36 190.5q-88 -51 -175.5 -215t-87.5 -288t25 -157q111 54 192.5 191zM1116 1081q141 0 252 -128t111 -255q0 -100 -136.5 -180t-283 -80t-228.5 19 q-23 -47 -22.5 -105.5t19 -82t92.5 -23.5q154 0 263 28.5t113 28.5q84 0 84 -55q0 -80 -132 -151.5t-285 -71.5q-213 0 -324 137q-152 -137 -322 -137q-113 0 -194.5 100t-81.5 244q0 256 158.5 485t318.5 229q184 0 297 -157q160 155 301 155z" />
<glyph unicode="&#x154;" horiz-adv-x="1177" d="M1163 1169q0 -117 -68.5 -224t-149.5 -167.5t-149.5 -110t-68.5 -63.5q0 -49 33 -93t92 -102.5t102 -98.5t71 -66.5t56 -55.5q53 -53 54 -88q0 -84 -117 -84q-160 0 -335 166t-249 346q-33 -98 -45 -133t-36.5 -110.5t-38 -112.5t-29.5 -78q-31 -78 -60 -78 q-47 0 -113.5 79t-66.5 128t45 183q141 408 162 743q-39 31 -69.5 86t-30.5 92q0 61 158.5 129t366.5 68t347 -98.5t139 -256.5zM848 1149q0 86 -168 86q-80 0 -191 -45q51 -78 52 -143q0 -119 -33 -263q23 16 84 58.5t95 68t77 66.5q84 80 84 172zM791.5 1626 q-19.5 -8 -46 -8t-50 29.5t-23.5 69.5t24.5 78t74.5 80t88 76t56.5 49t41 33.5t34.5 26.5q31 16 53 17q49 0 90.5 -56.5t41.5 -101.5t-7.5 -64.5t-33 -38t-49 -30.5t-80 -40t-90 -46.5t-69.5 -42t-55.5 -31.5z" />
<glyph unicode="&#x155;" horiz-adv-x="667" d="M770 1593q49 0 90 -56t41 -101t-7 -64.5t-32.5 -38t-49.5 -31t-80 -40t-90 -46t-69 -40.5q-61 -41 -95 -41t-57.5 29.5t-23.5 69.5t24.5 78t75 80t88.5 75.5t56 49t41 34t35 26.5q30 16 53 16zM164 735l-12 232q0 115 71 114q41 0 81 -30.5t61 -96.5q70 61 152.5 99.5 t146.5 38.5q150 0 149 -72q0 -37 -13.5 -54.5t-20.5 -25.5t-24.5 -21.5t-25.5 -19.5q-47 -31 -67 -43q-92 -57 -158 -138t-98 -224q-55 -236 -107.5 -351.5t-117 -115.5t-96.5 61.5t-32 115.5t40 162.5t55.5 187.5t15.5 181z" />
<glyph unicode="&#x156;" horiz-adv-x="1177" d="M1135 100q0 -84 -117 -84q-160 0 -335 166t-249 346q-33 -98 -45 -133t-36.5 -110.5t-38 -112.5t-29.5 -78q-31 -78 -60 -78q-47 0 -113.5 79t-66.5 128t45 183q141 408 162 743q-39 31 -69.5 86t-30.5 92q0 61 158.5 129t366.5 68t347 -98.5t139 -256.5 q0 -117 -68.5 -224t-149.5 -167.5t-149.5 -110t-68.5 -63.5q0 -49 33 -93t92 -102.5t102 -98.5t71 -66.5t56 -55.5q54 -53 54 -88zM848 1149q0 86 -168 86q-80 0 -191 -45q51 -78 52 -143q0 -119 -33 -263q23 16 84 58.5t95 68t77 66.5q84 80 84 172zM510 -27 q80 0 140.5 -58t60.5 -120q0 -106 -112 -212.5t-230 -106.5q-72 0 -72 63q0 41 80 104.5t106 104.5q-55 -8 -92 21.5t-37 70.5t56.5 87t99.5 46z" />
<glyph unicode="&#x157;" horiz-adv-x="667" d="M164 735l-12 232q0 115 71 114q41 0 81 -30.5t61 -96.5q70 61 152.5 99.5t146.5 38.5q150 0 149 -72q0 -37 -13.5 -54.5t-20.5 -25.5t-24.5 -21.5t-25.5 -19.5q-47 -31 -67 -43q-92 -57 -158 -138t-98 -224q-55 -236 -107.5 -351.5t-117 -115.5t-96.5 61.5t-32 115.5 t40 162.5t55.5 187.5t15.5 181zM137 -14q80 0 140.5 -58.5t60.5 -120.5q0 -109 -111.5 -214t-230.5 -105q-72 0 -72 63q0 41 81 103.5t106 105.5q-61 0 -95 27t-34 67t56 86t99 46z" />
<glyph unicode="&#x158;" horiz-adv-x="1177" d="M1135 100q0 -84 -117 -84q-160 0 -335 166t-249 346q-33 -98 -45 -133t-36.5 -110.5t-38 -112.5t-29.5 -78q-31 -78 -60 -78q-47 0 -113.5 79t-66.5 128t45 183q141 408 162 743q-39 31 -69.5 86t-30.5 92q0 61 158.5 129t366.5 68t347 -98.5t139 -256.5 q0 -117 -68.5 -224t-149.5 -167.5t-149.5 -110t-68.5 -63.5q0 -49 33 -93t92 -102.5t102 -98.5t71 -66.5t56 -55.5q54 -53 54 -88zM848 1149q0 86 -168 86q-80 0 -191 -45q51 -78 52 -143q0 -119 -33 -263q23 16 84 58.5t95 68t77 66.5q84 80 84 172zM729 1602 q-47 0 -177 128t-130 203q0 47 25.5 79t66.5 32t71.5 -23.5t78 -78t92.5 -91.5q170 123 266 123q76 0 76 -71q0 -35 -33 -64t-52.5 -43t-53 -37.5t-54 -39t-51.5 -41t-47 -40.5q-45 -36 -78 -36z" />
<glyph unicode="&#x159;" horiz-adv-x="667" d="M164 735l-12 232q0 115 71 114q41 0 81 -30.5t61 -96.5q70 61 152.5 99.5t146.5 38.5q150 0 149 -72q0 -37 -13.5 -54.5t-20.5 -25.5t-24.5 -21.5t-25.5 -19.5q-47 -31 -67 -43q-92 -57 -158 -138t-98 -224q-55 -236 -107.5 -351.5t-117 -115.5t-96.5 61.5t-32 115.5 t40 162.5t55.5 187.5t15.5 181zM455 1118q-47 0 -177.5 128t-130.5 204q0 47 26 79t67 32t71.5 -24t77.5 -78t92 -91q170 123 267 123q76 0 75 -72q0 -35 -32.5 -63.5t-52 -43t-53.5 -38t-54.5 -38.5t-51 -41t-47.5 -40q-44 -37 -77 -37z" />
<glyph unicode="&#x15a;" horiz-adv-x="1103" d="M816.5 1647.5q-23.5 29.5 -23.5 69.5t24.5 78t74.5 80t88 76t56.5 49t41 33.5t34.5 26.5q31 16 53 17q49 0 90 -56.5t41 -101.5t-7 -64.5t-32.5 -38t-49 -30.5t-80 -40t-90 -46.5t-70.5 -40.5q-59 -41 -93 -41t-57.5 29.5zM1022 451q0 -174 -166 -299t-379 -125 t-343 105.5t-130 218t64 112.5q49 0 102 -49t119.5 -98.5t150.5 -49.5t190.5 70t106.5 117t-115.5 157.5t-231.5 228t-116 182t24 140.5t58 105q111 109 286 187.5t308 78.5q78 0 129 -66.5t51 -138.5q0 -29 -46 -46t-133 -35.5t-177 -53.5q-209 -78 -209 -131 q0 -25 72 -89.5t157 -135t156.5 -178t71.5 -207.5z" />
<glyph unicode="&#x15b;" horiz-adv-x="956" d="M705 1079q78 0 153.5 -92t75.5 -166q0 -49 -43 -49q-25 0 -72 19.5t-95 19.5t-141.5 -33t-93.5 -86q0 -20 55.5 -59t121 -80t121 -113.5t55.5 -157.5t-124 -171t-291 -86t-285.5 75.5t-118.5 155.5t65 80q27 0 64 -21q102 -59 254.5 -59t152.5 41t-58.5 91t-127 93 t-127 105.5t-58.5 122.5q0 111 201 240.5t316 129.5zM531.5 1164.5q-23.5 29.5 -23.5 69.5t24.5 78t74.5 80t88 75.5t56.5 49t41 34t34.5 26.5q31 16 54 16q49 0 90 -56t41 -101t-7.5 -64.5t-33 -38t-49 -31t-80 -40t-90 -46t-68.5 -40.5q-61 -41 -95 -41t-57.5 29.5z" />
<glyph unicode="&#x15e;" horiz-adv-x="1103" d="M624.5 1125.5q-59.5 -33.5 -59.5 -61.5t72 -92.5t157 -135t156.5 -178t71.5 -207.5q0 -166 -151.5 -288t-364.5 -134q-20 -51 -51 -101q59 -8 126.5 -47t67.5 -84q-2 -88 -135 -159.5t-295 -71.5q-59 0 -102 26.5t-43 53t49 40t136 29t144 43.5q-18 14 -62 24.5t-76 21 t-32 26.5q0 31 86 213q-143 37 -229 128t-86 191.5t64 100.5q49 0 102 -49t119.5 -98.5t150.5 -49.5t190.5 70t106.5 117t-115.5 157.5t-231.5 228t-116 182t24 140.5t58 105q111 109 286 187.5t308 78.5q78 0 129 -66.5t51 -138.5q0 -29 -46 -46t-133 -35.5t-177 -52.5 t-149.5 -67.5z" />
<glyph unicode="&#x15f;" horiz-adv-x="956" d="M705 1079q78 0 153.5 -92t75.5 -166q0 -49 -43 -49q-25 0 -72 19.5t-95 19.5t-141.5 -33t-93.5 -86q0 -20 55.5 -59t121 -80t121 -113.5t55.5 -155.5t-116 -167t-271 -92q-12 -33 -43 -82q59 -8 126.5 -47t67.5 -84q-2 -88 -135 -160t-295 -72q-59 0 -102 26.5t-43 53.5 t49 40t136 28.5t144 44.5q-18 14 -62 24t-76 20.5t-32 26.5q0 37 80 201q-111 31 -179 91.5t-68 113.5q0 86 65 86q27 0 64 -21q102 -59 254.5 -59t152.5 41t-58.5 91t-127 93t-127 105.5t-58.5 122.5q0 111 201 240.5t316 129.5z" />
<glyph unicode="&#x160;" horiz-adv-x="1103" d="M1143 1974q76 0 76 -71q0 -35 -33 -64t-52.5 -43t-53 -37.5t-54 -39t-51.5 -41t-49 -40.5q-43 -37 -76 -36q-47 0 -177 128t-130 203q0 47 25.5 79t66.5 32t71.5 -23.5t77.5 -78t93 -91.5q170 123 266 123zM1022 451q0 -174 -166 -299t-379 -125t-343 105.5t-130 218 t64 112.5q49 0 102 -49t119.5 -98.5t150.5 -49.5t190.5 70t106.5 117t-115.5 157.5t-231.5 228t-116 182t24 140.5t58 105q111 109 286 187.5t308 78.5q78 0 129 -66.5t51 -138.5q0 -29 -46 -46t-133 -35.5t-177 -53.5q-209 -78 -209 -131q0 -25 72 -89.5t157 -135 t156.5 -178t71.5 -207.5z" />
<glyph unicode="&#x161;" horiz-adv-x="956" d="M705 1079q78 0 153.5 -92t75.5 -166q0 -49 -43 -49q-25 0 -72 19.5t-95 19.5t-141.5 -33t-93.5 -86q0 -20 55.5 -59t121 -80t121 -113.5t55.5 -157.5t-124 -171t-291 -86t-285.5 75.5t-118.5 155.5t65 80q27 0 64 -21q102 -59 254.5 -59t152.5 41t-58.5 91t-127 93 t-127 105.5t-58.5 122.5q0 111 201 240.5t316 129.5zM858 1491q76 0 76 -72q0 -35 -33 -63.5t-52.5 -43t-53 -38t-54 -38.5t-51.5 -41t-47 -40q-45 -37 -78 -37q-47 0 -177 128t-130 204q0 47 25.5 79t66.5 32t72 -24t78 -78t92 -91q170 123 266 123z" />
<glyph unicode="&#x162;" horiz-adv-x="1034" d="M502 1235q-221 -12 -242 -12q-49 0 -98 60t-49 126q0 100 583 100q299 0 440.5 -61.5t141.5 -149.5q0 -27 -30.5 -50t-78 -23t-172.5 6t-227 8q8 -25 8 -57.5t-23.5 -129t-66.5 -267.5t-95 -414.5t-69 -286.5q-16 -63 -71 -156q59 -8 126.5 -47t67.5 -84 q-2 -88 -135 -159.5t-295 -71.5q-59 0 -102 26.5t-43 53t49 40t136 29t144 43.5q-18 14 -62 24.5t-76 21t-32 26.5q0 35 53.5 146.5t60.5 129t22 25.5q-53 72 -53.5 117t84 402.5t104.5 584.5z" />
<glyph unicode="&#x163;" horiz-adv-x="745" d="M533.5 683q-31.5 -99 -77.5 -248.5t-46 -159t33.5 -9.5t160.5 46t150 46q51 0 51 -69.5t-137.5 -166.5t-286.5 -97q-33 0 -78 22q-14 -39 -53 -104q59 -8 126.5 -47t67.5 -84q-2 -88 -135 -160t-295 -72q-59 0 -102 26.5t-43 53.5t49 40t136 28.5t145 44.5 q-18 14 -62.5 24t-76 20.5t-31.5 26.5q0 35 53 146.5t61 130.5q6 18 29 29q-37 51 -37 92t19.5 112.5t62.5 207.5t66 210q-80 -23 -121 -22.5t-86 56.5t-45 107q0 66 317 111q39 190 39 330q0 61 62 61q53 0 136 -64.5t83 -127t-27 -174.5q98 4 150 4q154 0 153 -70 q0 -45 -89 -77t-273 -68q-17 -56 -48.5 -155z" />
<glyph unicode="&#x164;" horiz-adv-x="1034" d="M426 1235q-221 -12 -242 -12q-49 0 -98 60t-49 126q0 100 584 100q299 0 440 -61.5t141 -149.5q0 -27 -30.5 -50t-77.5 -23t-172 6t-228 8q8 -25 8 -57.5t-23.5 -129t-66.5 -267.5t-94 -413.5t-70.5 -288.5t-37.5 -46q-43 0 -107.5 79t-64.5 128t84 406.5t104 584.5z M627 1602q-47 0 -177.5 128t-130.5 203q0 47 26 79t67 32t71.5 -23.5t77.5 -78t92 -91.5q170 123 267 123q76 0 75 -71q0 -35 -32.5 -64t-52 -43t-53.5 -37.5t-54.5 -39t-51 -41t-46.5 -40.5q-45 -36 -78 -36z" />
<glyph unicode="&#x165;" horiz-adv-x="1069" d="M903 1616q80 0 140.5 -58.5t60.5 -119.5q0 -109 -111.5 -214.5t-230.5 -105.5q-72 0 -72 64q0 41 81 103.5t106 105.5q-61 0 -95 26.5t-34 66.5t56 86t99 46zM723 1053q154 0 154 -70q0 -45 -89.5 -77t-273.5 -68q-16 -55 -47 -154q-125 -389 -125 -405q0 -12 34 -12.5 t161 45.5t149 46q51 0 51 -69.5t-137 -166.5t-287 -97q-66 0 -155.5 71.5t-89.5 145.5q0 61 62.5 258.5t84.5 271.5q-80 -23 -121 -22.5t-86 56.5t-45 107q0 66 318 111q39 190 38 330q0 61 62 61q53 0 136 -64.5t83 -127t-27 -174.5q99 4 150 4z" />
<glyph unicode="&#x16a;" horiz-adv-x="1183" d="M1030 1810q0 -39 -64.5 -57t-193.5 -39.5t-199 -34.5q-123 -25 -161.5 -23.5t-75.5 47.5t-37 85q0 55 141.5 69.5t427.5 14.5q162 -1 162 -62zM319 1530q51 0 130 -74t79 -144.5t-73.5 -365.5t-73.5 -406.5t27.5 -171t78 -59.5t118 73t130 188.5t104.5 276.5t42 299 t-13.5 222t-13.5 100q0 63 53 64q66 0 169.5 -110.5t103.5 -263t-53.5 -350.5t-143.5 -374t-228.5 -292.5t-282.5 -116.5t-261 151.5t-117 309t41 365.5t82 374t41 235.5t61 69.5z" />
<glyph unicode="&#x16b;" horiz-adv-x="980" d="M764 1030q16 51 65.5 51t114 -84t64.5 -145q0 -23 -94.5 -301.5t-145.5 -439.5q-29 -86 -96 -86q-41 0 -69 29.5t-28 93t25 180.5q-211 -303 -336 -303q-66 0 -158 85t-92 164q0 197 112 502t210 305q59 0 105 -53t46 -117q0 -25 -51 -137q-156 -346 -155 -477 q0 -12 10 -12q31 0 116 97t190.5 278.5t166.5 369.5zM268 1305q0 55 141.5 69.5t428.5 14.5q162 0 161 -62q0 -39 -64.5 -57.5t-193.5 -40t-198 -33.5q-123 -25 -162 -23.5t-76 47.5t-37 85z" />
<glyph unicode="&#x16e;" horiz-adv-x="1183" d="M754.5 1782.5q17.5 25.5 17.5 58.5t-14.5 52.5t-37 19.5t-39.5 -24.5t-17 -57.5t15 -53.5t36.5 -20.5t39 25.5zM556 1671.5q-58 61.5 -58 157.5t72.5 167.5t162.5 71.5t148.5 -61t58.5 -157.5t-72.5 -168t-163 -71.5t-148.5 61.5zM319 1530q51 0 130 -74t79 -144.5 t-73.5 -365.5t-73.5 -406.5t27.5 -171t78 -59.5t118 73t130 188.5t104.5 276.5t42 299t-13.5 222t-13.5 100q0 63 53 64q66 0 169.5 -110.5t103.5 -263t-53.5 -350.5t-143.5 -374t-228.5 -292.5t-282.5 -116.5t-261 151.5t-117 309t41 365.5t82 374t41 235.5t61 69.5z" />
<glyph unicode="&#x16f;" horiz-adv-x="980" d="M764 1030q16 51 65.5 51t114 -84t64.5 -145q0 -23 -94.5 -301.5t-145.5 -439.5q-29 -86 -96 -86q-41 0 -69 29.5t-28 93t25 180.5q-211 -303 -336 -303q-66 0 -158 85t-92 164q0 197 112 502t210 305q59 0 105 -53t46 -117q0 -25 -51 -137q-156 -346 -155 -477 q0 -12 10 -12q31 0 116 97t190.5 278.5t166.5 369.5zM836.5 1198q-72.5 -72 -162.5 -72t-148.5 61.5t-58.5 158t72.5 168t163 71.5t148.5 -61.5t58 -157.5t-72.5 -168zM690.5 1430q-22.5 0 -40 -25t-17.5 -57.5t15.5 -53t37 -20.5t38.5 25.5t17 58.5t-14 52.5t-36.5 19.5z " />
<glyph unicode="&#x170;" horiz-adv-x="1183" d="M993 2079q55 0 91 -44t36 -90.5t-5 -66.5t-21.5 -40.5t-27.5 -31t-43 -36t-44 -36t-31.5 -27.5t-28 -24.5t-24.5 -20.5t-25.5 -19.5t-21.5 -12.5q-27 -14 -51.5 -14t-40 27.5t-15.5 60.5q0 68 76 186q12 20 29.5 48t26 41.5t20.5 32t19.5 26.5t17.5 18t20 12q27 11 43 11 zM527.5 2056q35.5 47 87 47t89 -49t37.5 -94t-10 -71.5t-19.5 -39t-42 -48.5t-72.5 -82t-74 -75.5t-64.5 -29.5t-47 27.5t-16.5 70.5t48.5 170t84 174zM319 1530q51 0 130 -74t79 -144.5t-73.5 -365.5t-73.5 -406.5t27.5 -171t78 -59.5t118 73t130 188.5t104.5 276.5t42 299 t-13.5 222t-13.5 100q0 63 53 64q66 0 169.5 -110.5t103.5 -263t-53.5 -350.5t-143.5 -374t-228.5 -292.5t-282.5 -116.5t-261 151.5t-117 309t41 365.5t82 374t41 235.5t61 69.5z" />
<glyph unicode="&#x171;" horiz-adv-x="980" d="M963 1595q55 0 91 -44t36 -90t-5.5 -66.5t-21.5 -41t-27.5 -30.5t-43 -35.5t-44 -36t-32 -28t-27.5 -24.5t-24.5 -20.5t-26 -19.5t-23.5 -12q-25 -14 -49.5 -14t-39.5 27.5t-15 60.5q0 68 75 186q12 20 30 48t26 41t20 31.5t19.5 27t17.5 18.5t19 12q29 10 45 10z M764 1030q16 51 65.5 51t114 -84t64.5 -145q0 -23 -94.5 -301.5t-145.5 -439.5q-29 -86 -96 -86q-41 0 -69 29.5t-28 93t25 180.5q-211 -303 -336 -303q-66 0 -158 85t-92 164q0 197 112 502t210 305q59 0 105 -53t46 -117q0 -25 -51 -137q-156 -346 -155 -477q0 -12 10 -12 q31 0 116 97t190.5 278.5t166.5 369.5zM428 1130q-31 0 -47 28t-16 71t48 170t83.5 174t87 47t89.5 -49t38 -94t-10.5 -72t-19.5 -39t-42 -48t-73 -82t-73.5 -76t-64.5 -30z" />
<glyph unicode="&#x172;" horiz-adv-x="1112" d="M477 -133l76 6q33 0 62.5 -30.5t29.5 -59.5q0 -117 -311 -117q-72 0 -126 39t-54 91t44 133t109 153q-90 66 -151.5 178.5t-61.5 208.5q0 258 123 756q41 166 41 235.5t61 69.5q51 0 130 -74t79 -144.5t-73.5 -365.5t-73.5 -406.5t27.5 -171t78 -59.5t118 73t130 188.5 t104.5 276.5t42 299t-13.5 222t-13.5 100q0 63 53 64q66 0 169.5 -110.5t103.5 -245.5q0 -213 -76 -457t-224.5 -442.5t-326.5 -241.5q-20 -23 -57 -55q-82 -70 -82 -91.5t63 -21.5z" />
<glyph unicode="&#x173;" horiz-adv-x="980" d="M633 -162l76 6q33 0 62.5 -30.5t29.5 -59.5q0 -117 -312 -116q-72 0 -126 38.5t-54 87.5q0 82 89 208t177 184q4 82 25 172q-211 -303 -336 -303q-66 0 -158 85t-92 164q0 197 112 502t210 305q59 0 105 -53t46 -117q0 -25 -51 -137q-156 -346 -155 -477q0 -12 10 -12 q31 0 116 97t190 278.5t167 369.5q16 51 65.5 51t114 -84t64.5 -145q0 -23 -94.5 -301.5t-125 -376.5t-47.5 -119q-16 -41 -94 -107.5t-77.5 -88t63.5 -21.5z" />
<glyph unicode="&#x178;" horiz-adv-x="1148" d="M840 1917q43 51 85 51t97 -100.5t55 -136t-31.5 -65.5t-62.5 -30q-55 0 -120.5 66.5t-65.5 115t43 99.5zM475 1917q43 51 85 51t97.5 -100.5t55.5 -136t-32 -65.5t-63 -30q-55 0 -120.5 66.5t-65.5 115t43 99.5zM618 827q37 0 130.5 176.5t189.5 351.5t143 175 q70 0 116 -63.5t46 -151.5q0 -61 -106.5 -236.5t-270.5 -433.5t-252 -438q-27 -57 -86 -118.5t-114 -61.5q-82 0 -82 131q0 78 155 362q25 45 35 68q-90 35 -163.5 114.5t-116.5 180.5q-90 211 -90 409q0 123 27.5 180.5t113.5 57.5q45 0 67.5 -62.5t41 -179.5t52 -206 t83.5 -172t81 -83z" />
<glyph unicode="&#x179;" horiz-adv-x="1323" d="M771.5 1647.5q-23.5 29.5 -23.5 69.5t24.5 78t74.5 80t88 76t56.5 49t41 33.5t34.5 26.5q31 16 53 17q49 0 90 -56.5t41 -101.5t-7 -64.5t-32.5 -38t-49 -30.5t-80 -40t-90.5 -46.5t-70 -40.5q-59 -41 -93 -41t-57.5 29.5zM1100 1294.5q53 -96.5 53 -169t-74.5 -175 t-181 -197t-212 -179.5t-180.5 -148.5t-75 -85.5q0 -31 31 -31q100 0 280.5 25.5t268.5 25.5q137 0 137 -71q0 -63 -141.5 -127t-324.5 -99.5t-327 -35.5q-100 0 -177 106.5t-77 190.5t124 216t271.5 244.5t271.5 213t124 128.5q0 94 -252 95q-86 0 -146.5 -11.5 t-78.5 -11.5q-55 0 -112.5 76t-57.5 129t121 80q66 14 165 14q221 0 451 -84q66 -22 119 -118.5z" />
<glyph unicode="&#x17a;" horiz-adv-x="940" d="M356 285l447 16q43 0 75.5 -19.5t32.5 -58.5q0 -96 -182 -148t-453 -52q-98 0 -186 88t-88 145q0 72 167 188.5t333 215t166 124.5q0 23 -111 23t-180.5 -12.5t-112.5 -12.5t-98 71t-55 112q0 57 103 86.5t230 29.5t277 -34q68 -18 130 -104.5t62 -133.5 q0 -86 -89 -181.5t-195.5 -158.5t-195.5 -115.5t-89 -62.5q0 -6 12 -6zM525.5 1164.5q-23.5 29.5 -23.5 69.5t24.5 78t74.5 80t88 75.5t56.5 49t41 34t34.5 26.5q31 16 53 16q49 0 90.5 -56t41.5 -101t-7.5 -64.5t-33 -38t-49 -31t-80 -40t-90 -46t-70.5 -40.5 q-59 -41 -93 -41t-57.5 29.5z" />
<glyph unicode="&#x17b;" horiz-adv-x="1323" d="M874 1608q-55 0 -120.5 65.5t-65.5 113.5t42 97t84 49t97.5 -96t55.5 -133t-31 -66.5t-62 -29.5zM1100 1294.5q53 -96.5 53 -169t-74.5 -175t-181 -197t-212 -179.5t-180.5 -148.5t-75 -85.5q0 -31 31 -31q100 0 280.5 25.5t268.5 25.5q137 0 137 -71q0 -63 -141.5 -127 t-324.5 -99.5t-327 -35.5q-100 0 -177 106.5t-77 190.5t124 216t271.5 244.5t271.5 213t124 128.5q0 94 -252 95q-86 0 -146.5 -11.5t-78.5 -11.5q-55 0 -112.5 76t-57.5 129t121 80q66 14 165 14q221 0 451 -84q66 -22 119 -118.5z" />
<glyph unicode="&#x17c;" horiz-adv-x="940" d="M629 1124q-55 0 -121 65.5t-66 114t42 97.5t84 49t97.5 -96.5t55.5 -133t-30.5 -66.5t-61.5 -30zM356 285l447 16q43 0 75.5 -19.5t32.5 -58.5q0 -96 -182 -148t-453 -52q-98 0 -186 88t-88 145q0 72 167 188.5t333 215t166 124.5q0 23 -111 23t-180.5 -12.5 t-112.5 -12.5t-98 71t-55 112q0 57 103 86.5t230 29.5t277 -34q68 -18 130 -104.5t62 -133.5q0 -86 -89 -181.5t-195.5 -158.5t-195.5 -115.5t-89 -62.5q0 -6 12 -6z" />
<glyph unicode="&#x17d;" horiz-adv-x="1323" d="M1098 1974q76 0 76 -71q0 -35 -33 -64t-52.5 -43t-53.5 -37.5t-54 -39t-51 -41t-49 -40.5q-43 -37 -76 -36q-47 0 -177 128t-130 203q0 47 25.5 79t66.5 32t71.5 -23.5t77.5 -78t92 -91.5q171 123 267 123zM1100 1294.5q53 -96.5 53 -169t-74.5 -175t-181 -197 t-212 -179.5t-180.5 -148.5t-75 -85.5q0 -31 31 -31q100 0 280.5 25.5t268.5 25.5q137 0 137 -71q0 -63 -141.5 -127t-324.5 -99.5t-327 -35.5q-100 0 -177 106.5t-77 190.5t124 216t271.5 244.5t271.5 213t124 128.5q0 94 -252 95q-86 0 -146.5 -11.5t-78.5 -11.5 q-55 0 -112.5 76t-57.5 129t121 80q66 14 165 14q221 0 451 -84q66 -22 119 -118.5z" />
<glyph unicode="&#x17e;" horiz-adv-x="940" d="M354 285l447 16q43 0 75.5 -19.5t32.5 -58.5q0 -96 -182 -148t-453 -52q-98 0 -186 88t-88 144t104.5 142t228.5 159t228.5 139.5t104.5 89t-111 22.5t-180.5 -12.5t-112.5 -12.5t-98 71t-55 112q0 57 103 86.5t230 29.5t277 -34q68 -18 130 -104.5t62 -133.5 q0 -86 -89 -181.5t-195.5 -158.5t-195.5 -115.5t-89 -62.5q0 -6 12 -6zM850 1491q76 0 76 -72q0 -35 -33 -63.5t-52.5 -43t-53 -38t-54 -38.5t-51.5 -41t-47 -40q-45 -37 -78 -37q-47 0 -177 128t-130 204q0 47 25.5 79t66.5 32t71.5 -24t78 -78t92.5 -91q170 123 266 123z " />
<glyph unicode="&#x192;" horiz-adv-x="1075" d="M985 1620q96 0 176 -94t80 -223q0 -180 -98 -181q-51 0 -78 62.5t-44 125t-48 62.5q-96 0 -205 -528q109 6 198 6t129 -23.5t40 -58.5q0 -59 -116 -108.5t-304 -79.5q-113 -528 -225.5 -741.5t-319.5 -213.5q-92 0 -184 78t-92 172q0 59 38 59q12 0 35 -18 q66 -57 160 -57q61 0 116.5 158.5t127.5 494.5q-96 -31 -121 -31q-57 0 -105.5 64.5t-48.5 132.5q0 76 336 129l23 108q78 377 192.5 541t337.5 164z" />
<glyph unicode="&#x218;" horiz-adv-x="1103" d="M1022 451q0 -174 -166 -299t-379 -125t-343 105.5t-130 218t64 112.5q49 0 102 -49t119.5 -98.5t150.5 -49.5t190.5 70t106.5 117t-115.5 157.5t-231.5 228t-116 182t24 140.5t58 105q111 109 286 187.5t308 78.5q78 0 129 -66.5t51 -138.5q0 -29 -46 -46t-133 -35.5 t-177 -53.5q-209 -78 -209 -131q0 -25 72 -89.5t157 -135t156.5 -178t71.5 -207.5zM201 -461q0 41 79.5 104.5t106.5 104.5q-55 -8 -92 21.5t-37 70.5t56.5 87t99.5 46q80 0 140 -58t60 -120q0 -106 -111.5 -212.5t-230.5 -106.5q-71 0 -71 63z" />
<glyph unicode="&#x219;" horiz-adv-x="956" d="M524 -193q0 -109 -111.5 -214t-230.5 -105q-72 0 -71 63q0 41 80.5 103.5t105.5 105.5q-61 0 -95 27t-34 67t56.5 86t99.5 46q80 0 140 -59t60 -120zM705 1079q78 0 153.5 -92t75.5 -166q0 -49 -43 -49q-25 0 -72 19.5t-95 19.5t-141.5 -33t-93.5 -86q0 -20 55.5 -59 t121 -80t121 -113.5t55.5 -157.5t-124 -171t-291 -86t-285.5 75.5t-118.5 155.5t65 80q27 0 64 -21q102 -59 254.5 -59t152.5 41t-58.5 91t-127 93t-127 105.5t-58.5 122.5q0 111 201 240.5t316 129.5z" />
<glyph unicode="&#x21a;" horiz-adv-x="1034" d="M492 1235q-221 -12 -242 -12q-49 0 -98.5 60t-49.5 126q0 100 584 100q299 0 440.5 -61.5t141.5 -149.5q0 -27 -31 -50t-78 -23t-172 6t-227 8q8 -25 8 -57.5t-23.5 -129t-66.5 -267.5t-94.5 -413.5t-70.5 -288.5t-38 -46q-43 0 -107.5 79t-64.5 128t84.5 406.5 t104.5 584.5zM250 -27q80 0 140.5 -58t60.5 -120q0 -106 -112 -212.5t-230 -106.5q-72 0 -72 63q0 41 80 104.5t106 104.5q-55 -8 -92 21.5t-37 70.5t56.5 87t99.5 46z" />
<glyph unicode="&#x21b;" horiz-adv-x="745" d="M466 683q-32 -99 -78 -248.5t-46 -159t34 -9.5t161 46t149 46q51 0 51 -69.5t-137 -166.5t-287 -97q-66 0 -155.5 71.5t-89.5 145.5q0 61 62.5 258.5t84.5 271.5q-80 -23 -121 -22.5t-86 56.5t-45 107q0 66 318 111q39 190 38 330q0 61 62 61q53 0 136 -64.5t83 -127 t-27 -174.5q98 4 150 4q154 0 154 -70q0 -45 -89.5 -77t-273.5 -68q-16 -56 -48 -155zM240 -14q80 0 140 -58.5t60 -120.5q0 -109 -111.5 -214t-230.5 -105q-72 0 -71 63q0 41 80.5 103.5t105.5 105.5q-61 0 -95 27t-34 67t56.5 86t99.5 46z" />
<glyph unicode="&#x2c6;" horiz-adv-x="724" d="M363.5 1560.5q17.5 6.5 35 6.5t38 -22.5t50 -68.5t50 -68t73 -73t74 -83.5t21.5 -60.5t-19.5 -45.5t-42.5 -17.5q-55 0 -138 58.5t-140 130.5q-57 -29 -108.5 -69t-82.5 -60.5t-67.5 -20.5t-61.5 29t-25 72q0 98 150 184q23 12 55.5 32.5t53 33t44 24.5t41 18.5z" />
<glyph unicode="&#x2c7;" horiz-adv-x="716" d="M621 1491q76 0 75 -72q0 -35 -32.5 -63.5t-52 -43t-53.5 -38t-54.5 -38.5t-51 -41t-46.5 -40q-45 -37 -78 -37q-47 0 -177.5 128t-130.5 204q0 47 26 79t67 32t71.5 -24t77.5 -78t92 -91q171 123 267 123z" />
<glyph unicode="&#x2d8;" horiz-adv-x="722" d="M277.5 1370q33.5 -37 91 -37t106.5 37t88 74t72 37t50 -18.5t17 -47.5q0 -94 -119.5 -189.5t-251.5 -95.5t-221.5 88.5t-89.5 177.5t48.5 131t93.5 42q41 0 71 -119q11 -43 44.5 -80z" />
<glyph unicode="&#x2d9;" horiz-adv-x="319" d="M207 1321q-55 0 -121 65.5t-66 113.5t42 97.5t84 49.5t97.5 -96.5t55.5 -133.5t-30.5 -66.5t-61.5 -29.5z" />
<glyph unicode="&#x2da;" horiz-adv-x="483" d="M277.5 1299.5q17.5 25.5 17.5 58.5t-14.5 52.5t-37 19.5t-40 -25t-17.5 -57.5t15.5 -53t37 -20.5t39 25.5zM78.5 1187.5q-58.5 61.5 -58.5 158t73 168t163 71.5t148.5 -61.5t58.5 -157.5t-73 -168t-163 -72t-148.5 61.5z" />
<glyph unicode="&#x2db;" horiz-adv-x="532" d="M344 -162l76 6q31 0 61.5 -30.5t30.5 -59.5q0 -117 -311 -116q-72 0 -126.5 38.5t-54.5 87.5q0 102 128 259t204 157q37 0 72 -28.5t35 -61.5t-28 -69.5t-62 -61.5q-88 -68 -88 -98q0 -23 63 -23z" />
<glyph unicode="&#x2dc;" horiz-adv-x="847" d="M20 1241q0 92 89.5 192.5t177.5 100.5t139 -39t85 -89t54 -60q18 10 43 55q61 111 137 110q82 0 82 -94t-80.5 -195.5t-151.5 -101.5t-141.5 59.5t-121.5 155.5q-37 -18 -64.5 -67t-58.5 -87t-78 -38t-79 25.5t-32 72.5z" />
<glyph unicode="&#x2dd;" horiz-adv-x="765" d="M618 1792q55 0 91 -44t36 -90t-5 -66.5t-21.5 -41t-27.5 -31t-43 -36t-44 -35.5t-31.5 -27.5t-27.5 -24.5t-24.5 -20.5t-26 -19.5t-23.5 -13q-25 -14 -49.5 -14t-39.5 27.5t-15 60.5q0 68 75 187q12 20 29.5 47.5t26 41t20.5 32t19.5 26.5t17.5 18.5t18 12.5q29 10 45 10 zM152.5 1769.5q35.5 47.5 87 47.5t89.5 -49.5t38 -94.5t-10.5 -71.5t-19.5 -39t-42 -48t-73 -82t-73.5 -76t-64.5 -29.5t-47.5 27.5t-16.5 70.5t48.5 170t84 174.5z" />
<glyph unicode="&#x3c0;" horiz-adv-x="1781" d="M1751 1036q0 -106 -344 -116q-8 -18 -32.5 -97.5t-29 -107t-10.5 -68.5q-12 -63 -12 -162.5t19.5 -157t46 -86t53.5 -48.5q68 -53 67 -97q0 -72 -124.5 -71.5t-226 123t-101.5 317.5q0 295 71 450q-166 -4 -241 -8q8 -33 8 -47q0 -188 -60.5 -388t-144.5 -323.5 t-158.5 -123.5t-128 40.5t-53.5 96.5q0 20 19.5 37.5t48 39t71.5 100.5t74 185.5t62 360.5q-213 -25 -262.5 -25t-101.5 72t-52 127q0 39 115.5 67.5t285.5 42.5q342 29 606.5 29t399.5 -34t135 -128z" />
<glyph unicode="&#x2000;" horiz-adv-x="1051" />
<glyph unicode="&#x2001;" horiz-adv-x="2103" />
<glyph unicode="&#x2002;" horiz-adv-x="1051" />
<glyph unicode="&#x2003;" horiz-adv-x="2103" />
<glyph unicode="&#x2004;" horiz-adv-x="701" />
<glyph unicode="&#x2005;" horiz-adv-x="525" />
<glyph unicode="&#x2006;" horiz-adv-x="350" />
<glyph unicode="&#x2007;" horiz-adv-x="350" />
<glyph unicode="&#x2008;" horiz-adv-x="262" />
<glyph unicode="&#x2009;" horiz-adv-x="420" />
<glyph unicode="&#x200a;" horiz-adv-x="116" />
<glyph unicode="&#x200b;" horiz-adv-x="0" />
<glyph unicode="&#x200c;" horiz-adv-x="0" d="M49 -471h-96v2132h96v-2132z" />
<glyph unicode="&#x200d;" horiz-adv-x="0" d="M49 -471h-96v1771l-141 -149l-68 68l190 190l-194 195l67 67l195 -194l197 194l65 -65l-196 -197l196 -195l-67 -67l-148 153v-1771z" />
<glyph unicode="&#x2010;" horiz-adv-x="1087" d="M1018 686q0 -53 -125 -88q-98 -29 -225 -54.5t-213 -47.5q-180 -43 -221 -43t-86.5 56t-45.5 107q0 57 239 98.5t521 41.5q156 0 156 -70z" />
<glyph unicode="&#x2011;" horiz-adv-x="1087" d="M1018 686q0 -53 -125 -88q-98 -29 -225 -54.5t-213 -47.5q-180 -43 -221 -43t-86.5 56t-45.5 107q0 57 239 98.5t521 41.5q156 0 156 -70z" />
<glyph unicode="&#x2012;" horiz-adv-x="1087" d="M1018 686q0 -53 -125 -88q-98 -29 -225 -54.5t-213 -47.5q-180 -43 -221 -43t-86.5 56t-45.5 107q0 57 239 98.5t521 41.5q156 0 156 -70z" />
<glyph unicode="&#x2013;" horiz-adv-x="1277" d="M1087 805q154 0 154 -68q0 -55 -117 -90q-168 -49 -575 -123q-78 -14 -188.5 -42.5t-131.5 -28.5q-47 0 -93 57t-46 110.5t382 119t615 65.5z" />
<glyph unicode="&#x2014;" horiz-adv-x="1982" d="M126 507q-36 54 -36 108.5t199.5 92t498.5 52.5q512 25 826.5 24.5t314.5 -79.5q0 -68 -237 -101q-162 -23 -413 -43t-365.5 -32.5t-303.5 -32.5q-369 -43 -408.5 -43t-75.5 54z" />
<glyph unicode="&#x2018;" horiz-adv-x="720" d="M222.5 1157q-68.5 76 -68.5 205t115.5 286.5t212 157.5t96.5 -82q0 -37 -76 -142t-76 -176t55.5 -116t55.5 -86t-43 -82t-97 -41q-106 0 -174.5 76z" />
<glyph unicode="&#x2019;" horiz-adv-x="720" d="M498.5 1730.5q68.5 -75.5 68.5 -204.5t-115.5 -287t-212 -158t-96.5 82q0 37 76 142.5t76 176t-55.5 115.5t-55.5 86t43 82t97 41q106 0 174.5 -75.5z" />
<glyph unicode="&#x201a;" horiz-adv-x="708" d="M555 39q0 -162 -125 -331t-225 -169q-61 0 -62 43q0 20 43 82q129 180 129 275q0 43 -36.5 75.5t-72.5 58t-36 62.5t58.5 96.5t128 59.5t134 -80t64.5 -172z" />
<glyph unicode="&#x201c;" horiz-adv-x="1241" d="M742.5 1157q-68.5 76 -68.5 205t115.5 286.5t212 157.5t96.5 -82q0 -37 -76 -142t-76 -176t55.5 -116t55.5 -86t-43 -82t-96 -41q-107 0 -175.5 76zM222.5 1157q-68.5 76 -68.5 205t115.5 286.5t212 157.5t96.5 -82q0 -37 -76 -142t-76 -176t55.5 -116t55.5 -86t-43 -82 t-97 -41q-106 0 -174.5 76z" />
<glyph unicode="&#x201d;" horiz-adv-x="1218" d="M498.5 1730.5q68.5 -75.5 68.5 -204.5t-115.5 -287t-212 -158t-96.5 82q0 37 76 142.5t76 176t-55.5 115.5t-55.5 86t43 82t97 41q106 0 174.5 -75.5zM996.5 1730.5q68.5 -75.5 68.5 -204.5t-115.5 -287t-212 -158t-96.5 82q0 37 76 142.5t76 176t-55.5 115.5t-55.5 86 t43 82t96 41q107 0 175.5 -75.5z" />
<glyph unicode="&#x201e;" horiz-adv-x="1165" d="M1073 39q0 -162 -125 -331t-225 -169q-61 0 -61 43q0 20 43 82q129 180 129 275q0 63 -73 106t-73 85t58.5 101.5t128 59.5t134 -80t64.5 -172zM494 39q0 -162 -125 -331t-226 -169q-61 0 -61 43q0 20 43 82q129 180 129 275q0 63 -72.5 106t-72.5 85t58 101.5t128 59.5 t134.5 -80t64.5 -172z" />
<glyph unicode="&#x2020;" horiz-adv-x="1103" d="M911 829q0 -72 -446 -112q-33 -266 -62.5 -419t-53 -275.5t-40 -207.5t-39.5 -186q-47 -207 -73 -207q-43 0 -107.5 72t-64.5 114t24 199q100 623 131 879q-188 -23 -254 -22q-39 0 -77.5 65.5t-38.5 110.5q0 74 397 88q18 240 18 385q0 61 60 61q49 0 129 -89t80 -166 t-9 -189q426 -9 426 -101z" />
<glyph unicode="&#x2021;" horiz-adv-x="1103" d="M369 82q111 6 221 6t177 -11t67 -48q4 -84 -508 -172q-86 -434 -121 -435q-43 0 -107.5 72t-64.5 114t26 206q-190 -27 -284 -27q-37 0 -77 66.5t-40 110.5t440 93q53 319 90 629q-188 -23 -254 -22q-39 0 -77.5 65.5t-38.5 110.5q0 74 397 88q18 240 18 385q0 61 60 61 q49 0 129 -89t80 -166t-8 -189q426 -8 426 -101q0 -72 -447 -112q-36 -293 -104 -635z" />
<glyph unicode="&#x2022;" horiz-adv-x="485" d="M322 492q-78 0 -177.5 98t-99.5 168.5t62.5 143.5t126 73t144.5 -142.5t81 -211.5q0 -39 -46 -84t-91 -45z" />
<glyph unicode="&#x2026;" horiz-adv-x="1628" d="M1520 -10q-66 0 -147 80t-81 138t51.5 116.5t103.5 58.5t117.5 -114.5t65.5 -174.5q0 -31 -37.5 -67.5t-72.5 -36.5zM903 -10q-66 0 -145.5 80t-79.5 138t50 116.5t102.5 58.5t118 -114.5t65.5 -174.5q0 -31 -37 -67.5t-74 -36.5zM295 -10q-66 0 -146.5 80t-80.5 138 t51 116.5t103 58.5t118 -114.5t66 -174.5q0 -31 -38 -67.5t-73 -36.5z" />
<glyph unicode="&#x202f;" horiz-adv-x="420" />
<glyph unicode="&#x2030;" horiz-adv-x="2668" d="M2294 838q82 0 144.5 -72t88 -151.5t25.5 -143.5q0 -170 -127 -321.5t-295 -151.5q-100 0 -169 113.5t-69 248t124 306.5t278 172zM2136 369q0 -125 51 -125q29 0 79 63.5t50 149.5q0 70 -17.5 100.5t-25.5 30.5q-39 0 -88 -80t-49 -139zM1589 838q82 0 144.5 -72 t88 -151.5t25.5 -143.5q0 -170 -127 -321.5t-295 -151.5q-100 0 -168.5 113.5t-68.5 248t123.5 306.5t277.5 172zM1432 369q0 -125 51 -125q29 0 79 63.5t50 149.5q0 70 -17.5 100.5t-25.5 30.5q-39 0 -88 -80t-49 -139zM1548 1626q43 0 91.5 -86t35 -137t-54.5 -112.5 t-94 -131.5q-233 -301 -398 -524q-373 -494 -448.5 -576t-93.5 -77q-45 10 -79 50t-26 76.5t59.5 119.5t146.5 218.5t173 243.5q283 387 389 533q-106 -55 -227 -82t-197 -13q6 -37 6 -65q0 -172 -128 -323.5t-295 -151.5q-100 0 -169 113.5t-69 247.5t125 306t278 172 q51 0 78 -16t45 -29q45 -27 82 -36q78 -18 205 21.5t236 98.5q298 160 329 160zM416 958q0 -125 51 -124q29 0 79 64.5t50 150.5q0 72 -18.5 101.5t-26.5 29.5q-37 0 -86 -81.5t-49 -140.5z" />
<glyph unicode="&#x2039;" horiz-adv-x="1247" d="M528 952.5q129 73.5 180.5 73.5t107.5 -35t56 -65q0 -43 -59 -62q-158 -49 -251 -102t-93 -84q0 -45 97.5 -96.5t193.5 -95.5t96 -72q0 -63 -94 -64q-125 0 -317.5 106.5t-192.5 200.5q0 33 23.5 84.5t43.5 67.5q80 70 209 143.5z" />
<glyph unicode="&#x203a;" horiz-adv-x="1236" d="M369 930q0 31 45 63.5t84 32.5q66 0 249 -125t183 -196q0 -37 -22.5 -89.5t-53.5 -74.5q-123 -88 -256 -139.5t-224 -51.5t-91 53q0 31 106.5 75t214 96.5t107.5 99.5q0 23 -19.5 49.5t-88 67t-177.5 75.5q-57 19 -57 64z" />
<glyph unicode="&#x2044;" horiz-adv-x="1685" d="M1294 1564.5q47 -65.5 47 -120.5t-90 -187q-125 -184 -463 -620q-86 -104 -230 -293.5t-216 -274.5t-99.5 -85t-65.5 35.5t-38 80.5t181.5 303.5t442.5 618.5t380 559q29 49 55 49q49 0 96 -65.5z" />
<glyph unicode="&#x205f;" horiz-adv-x="525" />
<glyph unicode="&#x20a8;" horiz-adv-x="2146" d="M1894 1079q78 0 154 -92t76 -166q0 -49 -43 -49q-25 0 -72 19.5t-95 19.5t-141.5 -33t-93.5 -86q0 -20 55.5 -59t121 -80t121 -113.5t55.5 -157.5t-124 -171t-291 -86t-286 75.5t-119 155.5t66 80q27 0 61 -21q104 -59 257 -59t153 41t-58.5 91t-127 93t-127 105.5 t-58.5 122.5q0 111 200.5 240.5t315.5 129.5zM1190 1169q0 -117 -68.5 -224t-149.5 -167.5t-149.5 -110t-68.5 -63.5q0 -49 32.5 -93t92 -102.5t102.5 -98.5t70.5 -66.5t54.5 -55.5q55 -53 55 -88q0 -84 -117 -84q-160 0 -334.5 166t-248.5 346q-33 -98 -45.5 -133 t-37 -110.5t-37.5 -112.5t-30 -78q-31 -78 -59 -78q-47 0 -113.5 79t-66.5 128t47 183q139 408 160 743q-39 31 -70 86t-31 92q0 61 159 129t366.5 68t347 -98.5t139.5 -256.5zM874 1149q0 86 -167 86q-80 0 -191 -45q51 -78 51 -143q0 -119 -32 -263q23 16 84 58.5t95 68 t77 66.5q83 80 83 172z" />
<glyph unicode="&#x20ac;" horiz-adv-x="1298" d="M219 637q0 8 19 82h-37q-37 0 -75 73.5t-38 125.5q0 61 258 83q117 223 302.5 365.5t398.5 142.5q70 0 131 -84t61 -170q0 -41 -27.5 -81.5t-56.5 -40.5q-8 0 -34.5 50t-61.5 50q-88 0 -189.5 -60.5t-191.5 -158.5q252 0 400.5 -20.5t148.5 -86.5q0 -57 -228.5 -96 t-400.5 -47q-74 -8 -92 -8q-10 -23 -29 -84q283 33 514.5 33t231.5 -66q0 -104 -736 -221q43 -127 193 -127q188 0 430 90q82 29 109.5 29t43 -21.5t15.5 -50.5q0 -59 -98.5 -134t-243.5 -128t-266 -53q-403 0 -457 356q-27 -2 -90 -2q-33 0 -71 73.5t-38 122.5q0 29 205 64 z" />
<glyph unicode="&#x20b9;" horiz-adv-x="1781" d="M309 1356h1385q70 0 104.5 -31t34.5 -77t-36 -79.5t-103 -33.5h-398q35 -74 35 -158v-4h297q70 0 104.5 -31t34.5 -77t-35.5 -79.5t-103.5 -33.5h-346q-72 -166 -223.5 -290t-333.5 -159q6 -8 18.5 -25.5t27.5 -39t62.5 -87t80 -110.5t67.5 -96q72 -104 72 -138 q0 -72 -86 -71q-35 0 -73 34.5t-59.5 56t-57.5 66t-58 70.5q-68 84 -119 148.5t-115 140.5q-117 139 -131 175t-14 73t18.5 73.5t46 36.5t106.5 -45t110 -45q104 0 209.5 63.5t170.5 168.5h-757q-70 0 -106 31.5t-36 82.5q0 106 142 107h829v28q0 41 -39 87.5t-94 46.5h-631 q-70 0 -105.5 31.5t-35.5 82.5q0 107 141 107z" />
<glyph unicode="&#x20ba;" horiz-adv-x="1130" d="M737 874q250 0 250 -65q0 -98 -450 -182q-33 -147 -35 -174q-8 -66 20.5 -110t105.5 -44t154.5 48t119.5 104.5t77 104.5t49 48t27.5 -23.5t13.5 -56.5q0 -176 -140.5 -336.5t-310.5 -160.5q-78 0 -178 74.5t-165.5 187t-49.5 205.5l19 96q-27 -2 -65 -2t-75.5 64.5 t-37.5 111.5q0 35 223 72l18 98q-18 -2 -53 -2t-75 65.5t-40 112.5q0 55 215 70q35 205 38 275.5t63 70.5q49 0 131 -98.5t82 -184.5q0 -23 -9 -57q332 -8 332 -86q0 -39 -120.5 -77t-256.5 -56l-22 -99q79 6 145 6z" />
<glyph unicode="&#x20bd;" horiz-adv-x="1247" d="M238 641q-29 0 -83.5 57.5t-54.5 85.5q0 39 230 80q43 219 49 408q-70 74 -70 117q0 68 161 128t306 60q225 0 378 -151.5t153 -335.5q0 -76 -65.5 -144.5t-176.5 -120.5q-211 -98 -490 -149l-30 -103q117 10 181.5 10.5t91 -0.5t59.5 -5q59 -10 59 -52q0 -53 -141 -106 q-125 -47 -318 -82q-76 -252 -96.5 -276.5t-34.5 -24.5q-47 0 -112.5 79t-65.5 117.5t8 71.5h-20q-37 0 -87.5 50.5t-50.5 93.5q0 37 224 79q31 100 32 113h-36zM953.5 1255.5q-33.5 38.5 -75.5 38.5t-78 -9t-99.5 -33.5t-71.5 -28.5q33 -70 33 -136.5t-25 -171.5 q203 47 276.5 109.5t73.5 127.5t-33.5 103.5z" />
<glyph unicode="&#x2122;" horiz-adv-x="1492" d="M1329.5 1403q24.5 0 48 -22.5t23.5 -48t-11.5 -67.5t-35 -115t-33.5 -104.5t-20.5 -66.5t-16.5 -55.5t-13 -43t-12.5 -34.5t-11.5 -23q-10 -18 -30.5 -18t-40 32.5t-19.5 67.5q0 121 66 246q-23 -18 -68 -70q-102 -113 -148 -112.5t-71 22t-78 109.5q-12 -31 -35 -105 q-59 -190 -84 -190q-18 0 -47.5 38t-29.5 60.5t61 231t61 262.5q0 29 25 28q18 0 76.5 -34.5t58.5 -51.5q0 -33 24.5 -100.5t55.5 -122.5q31 29 104.5 110t125 129t76 48zM293 1282l-123 -6q-20 0 -52 37t-32 61q0 41 291 41q143 0 223 -33.5t80 -74.5q0 -27 -57 -27l-183 2 q-8 -45 -36.5 -147.5t-57.5 -215t-45 -112.5q-23 0 -58.5 32.5t-35.5 53t38 159t48 230.5z" />
<glyph unicode="&#x2202;" horiz-adv-x="925" d="M434 1493q150 0 311.5 -191.5t161.5 -455.5q0 -215 -66.5 -399.5t-203.5 -303t-320 -118.5q-115 0 -208 103t-93 241q0 248 145.5 414.5t315.5 166.5q68 0 137 -55q-14 221 -139 346q-51 55 -102 55q-12 0 -49 -12t-54 -12q-45 0 -45 60.5t68.5 110.5t140.5 50zM354 233 q63 0 157.5 148.5t104.5 343.5q-37 37 -71 37q-66 0 -160 -110.5t-94 -245.5q0 -57 17 -115t46 -58z" />
<glyph unicode="&#x2206;" horiz-adv-x="1107" d="M928 336q-47 127 -97.5 343t-74.5 376q-188 -309 -398 -840q96 23 296 64t274 57zM295 31q-104 0 -165.5 36.5t-61.5 82t71.5 240t170 414.5t211 395t177 175t147.5 -39t118 -73q27 -23 50 -121.5t59 -291t54.5 -268t38.5 -147.5q41 -139 41 -222t-304 -132t-607 -49z " />
<glyph unicode="&#x220f;" horiz-adv-x="1316" d="M268 1362q0 47 35 75.5t121 41.5q115 16 380 16t353 -63.5t88 -280.5t-120.5 -760t-194.5 -543q-35 0 -92.5 73t-57.5 123t89 539.5t102 680.5q-246 0 -434 -50q-2 -244 -121 -805t-195 -561q-35 0 -92 73t-57 114t98 570.5t98 756.5z" />
<glyph unicode="&#x2211;" horiz-adv-x="1705" d="M739 952q0 -27 84 -41t188.5 -23t203 -47t120.5 -102q18 -45 13 -119.5t-35 -101.5q-82 -74 -194.5 -134t-214 -94t-191.5 -59.5t-143.5 -44t-55.5 -34.5q-4 -47 100 -48q287 -2 785 105q72 16 133 -37t57 -117q-8 -100 -139 -139q-293 -82 -868 -82q-219 -2 -333 94.5 t-106 251.5q4 88 138.5 167t291 124t287.5 88t133 66q0 27 -92 43q-84 14 -116.5 22t-91 21.5t-76 18.5t-60.5 18q-61 18 -132 66t-63 228q4 61 141.5 119t311.5 96q500 117 639 211q63 -6 96 -51t30 -95t-37 -108.5t-85 -76.5q-121 -45 -306 -83t-299 -61t-114 -41z" />
<glyph unicode="&#x221a;" horiz-adv-x="1277" d="M1247 1386q57 0 112.5 -33.5t55.5 -67.5t-47 -141.5t-138 -314t-144.5 -341t-102.5 -272.5t-81 -221t-69.5 -170t-72.5 -129t-68 -42t-98.5 44t-83.5 89q-76 178 -174 690q-29 -8 -112 -81.5t-124 -73.5q-49 0 -49 53q0 111 117 237.5t205 126.5q66 0 124 -37.5t93 -97.5 q18 -18 27.5 -108t20.5 -247t26 -261q427 1398 583 1398z" />
<glyph unicode="&#x221e;" horiz-adv-x="1673" d="M1136.5 956.5q114.5 79.5 204 79.5t178.5 -97t89 -195.5t-52.5 -238.5t-160 -254t-234.5 -114q-205 0 -340 221q-283 -225 -400.5 -225t-226 84t-108.5 178q0 68 35 170.5t91 203.5t145 173t188.5 72t181.5 -85t129 -200q166 148 280.5 227.5zM387 393q84 0 324 207 q-4 6 -15.5 20.5t-15.5 20.5t-14.5 18.5t-16.5 18.5q-43 43 -58.5 46t-23.5 3q-49 0 -124.5 -127t-75.5 -190q0 -17 20 -17zM977 489q74 -106 157 -106t140 127t57 235q0 6 -6 7q-49 -1 -348 -263z" />
<glyph unicode="&#x222b;" horiz-adv-x="1128" d="M920 1622q92 0 184 -78t92 -172q0 -59 -39 -59q-14 0 -29 18q-41 57 -114 58q-37 0 -69 -47.5t-66 -167.5q-45 -156 -108.5 -453t-99.5 -439.5t-82 -278.5t-93 -212q-102 -166 -252 -166q-92 0 -184.5 78t-92.5 172q0 59 39 59q12 0 56 -37.5t88.5 -37.5t72 37.5 t50 119.5t41 164t47 219.5t109.5 461t140 474.5q86 221 209 269q46 18 101 18z" />
<glyph unicode="&#x2248;" horiz-adv-x="1196" d="M211 852q0 113 104.5 230.5t216.5 117.5q117 0 185 -72q29 -31 51 -63q59 -84 92 -98q29 14 58.5 67t66.5 95t94 42q86 0 86 -107.5t-95 -226t-175 -118.5t-166 74.5t-145 193.5q-47 -20 -80 -62t-47.5 -81t-46 -69t-78.5 -30q-121 1 -121 107zM86 295q0 113 104.5 230.5 t217.5 117.5q117 0 184 -72q29 -31 51 -63q59 -84 92 -98q29 14 58.5 67t66.5 95t94 42q86 0 86 -107.5t-95 -226t-175 -118.5t-166 74.5t-145 193.5q-47 -20 -80 -62t-47.5 -81t-46 -69t-78.5 -30q-121 1 -121 107z" />
<glyph unicode="&#x2260;" horiz-adv-x="1196" d="M332 741q-37 0 -78 65.5t-41 108.5q0 76 467 89q72 174 120 241.5t111 67.5q31 0 50.5 -22.5t19.5 -47t-5 -44t-16.5 -54.5t-16.5 -55.5t-12 -45l-11 -38.5q352 -4 352 -97.5t-445 -134.5q-20 -47 -65 -145q145 8 233 8q215 0 215 -68q0 -57 -144 -107t-372 -73 q-37 -4 -55 -4q-154 -279 -209 -279q-29 0 -48.5 19.5t-19.5 57.5t62 194h-180q-37 0 -74 64.5t-37 113.5q0 35 389 59l56 138q-158 -11 -246 -11z" />
<glyph unicode="&#x2264;" horiz-adv-x="987" d="M945 148.5q-54 -17.5 -116 -17.5q-205 0 -498.5 67.5t-293.5 108.5q0 53 47 106.5t86 53.5t82 -11.5t137 -41t152.5 -46l117 -33t93 -25.5t80 -22.5t71 -23.5t49.5 -22q47 -25 47 -50.5t-54 -43zM930 1176q53 0 95 -60.5t42 -109t-60.5 -60.5t-166 -31.5t-169 -32 t-130.5 -26.5q-131 -31 -131 -59q0 -12 145 -56q434 -125 434 -196q0 -35 -31.5 -55.5t-104.5 -20.5t-243 38t-328.5 111.5t-158.5 153.5q0 39 24.5 97.5t57.5 80.5q98 72 335.5 149t389.5 77z" />
<glyph unicode="&#x2265;" horiz-adv-x="1259" d="M281 133q-61 0 -115.5 18.5t-54.5 45.5q0 45 139 86q129 39 260 70.5t219 60.5q170 53 212 53t90 -50t48 -102.5t-283.5 -117t-514.5 -64.5zM262 1122q0 53 47 54q193 0 403 -47.5t346 -115t136 -124.5q0 -29 -21.5 -89.5t-52.5 -80.5q-123 -84 -435 -163t-417.5 -79 t-105.5 74q0 57 187.5 114.5t374.5 100.5t187 65q0 31 -205.5 75t-345.5 44q-25 0 -61.5 66.5t-36.5 105.5z" />
<glyph unicode="&#x25ca;" horiz-adv-x="864" d="M342 307q147 162 254 398q-25 53 -69 165.5t-60 147.5q-152 -158 -229 -367q10 -27 28 -94q47 -158 76 -250zM106.5 405.5q-88.5 221.5 -88.5 277.5t74 198.5t170 259t156.5 116.5t181.5 -67q16 -8 37.5 -65.5t53.5 -150.5t69 -178t37 -104q0 -80 -75 -221t-170 -250.5 t-142.5 -109.5t-109.5 25.5t-83 41.5q-22 6 -110.5 227.5z" />
<glyph unicode="&#x25fc;" horiz-adv-x="1085" d="M0 1085h1085v-1085h-1085v1085z" />
</font>
</defs>
</svg>
