<?xml version="1.0" standalone="no"?>
<!DOCTYPE svg PUBLIC "-//W3C//DTD SVG 1.1//EN" "http://www.w3.org/Graphics/SVG/1.1/DTD/svg11.dtd" >
<svg xmlns="http://www.w3.org/2000/svg" xmlns:xlink="http://www.w3.org/1999/xlink" version="1.1">
<metadata></metadata>
<defs>
<font id="bree_serifregular" horiz-adv-x="1095" >
<font-face units-per-em="2048" ascent="1638" descent="-410" />
<missing-glyph horiz-adv-x="409" />
<glyph horiz-adv-x="0" />
<glyph horiz-adv-x="0" />
<glyph horiz-adv-x="682" />
<glyph unicode="&#xd;" horiz-adv-x="450" />
<glyph unicode=" "  horiz-adv-x="409" />
<glyph unicode="&#x09;" horiz-adv-x="409" />
<glyph unicode="&#xa0;" horiz-adv-x="409" />
<glyph unicode="!" horiz-adv-x="567" d="M143 102q0 56 39.5 96t98.5 40q66 0 104.5 -37.5t38.5 -96.5q0 -58 -37.5 -98.5t-99.5 -40.5q-67 0 -105.5 39t-38.5 98zM172 1083v244q0 42 27 69t86 27q116 0 116 -100v-240l-41 -714h-145z" />
<glyph unicode="&#x22;" horiz-adv-x="714" d="M115 1362h190l-20 -471h-150zM408 1362h190l-18 -471h-152z" />
<glyph unicode="#" horiz-adv-x="1093" d="M37 322v135h219l29 319h-209v135h219l31 328h149l-31 -328h226l30 328h150l-31 -328h207v-135h-217l-29 -319h207v-135h-219l-27 -322h-149l26 322h-225l-26 -322h-150l27 322h-207zM406 457h225l28 319h-225z" />
<glyph unicode="$" d="M113 969q0 152 96.5 250t261.5 122v189h154v-184q171 -9 317 -78v-289l-201 -12v110q0 29 -8 42t-33 22q-45 12 -75 14v-360h2q63 -19 108.5 -37t98 -50t85 -70t54.5 -96t22 -130q0 -161 -101 -261t-269 -126v-211h-154v204q-196 6 -352 78v305l203 15v-119 q0 -29 7.5 -42t32.5 -22q46 -16 109 -16v383q-63 17 -110 35t-96.5 48.5t-80.5 67.5t-51 93t-20 125zM365 991q0 -53 26.5 -85.5t79.5 -57.5v295q-106 -37 -106 -152zM625 231q116 38 116 170q0 102 -116 150v-320z" />
<glyph unicode="%" horiz-adv-x="1640" d="M70 971q0 180 88 277.5t237 97.5q147 0 231.5 -92t84.5 -275q0 -186 -85.5 -283.5t-240.5 -97.5q-154 0 -234.5 94.5t-80.5 278.5zM248 965q0 -226 139 -226q143 0 143 234q0 231 -139 231q-70 0 -106.5 -55.5t-36.5 -183.5zM438 55l598 1282l166 -69l-602 -1286z M934 344q0 179 88.5 277t237.5 98q146 0 230.5 -92t84.5 -275q0 -186 -85.5 -283.5t-240.5 -97.5q-154 0 -234.5 94.5t-80.5 278.5zM1112 338q0 -225 139 -225q144 0 144 233q0 232 -140 232q-70 0 -106.5 -56t-36.5 -184z" />
<glyph unicode="&#x26;" horiz-adv-x="1462" d="M102 387q0 270 250 426q-63 104 -63 225q0 155 104.5 251.5t290.5 96.5q194 0 373 -83v-310l-209 -14v125q0 32 -8.5 47.5t-34.5 24.5q-56 16 -109 16q-166 0 -166 -158q0 -61 39.5 -138t108 -156t140 -148.5t155.5 -140.5q39 97 39 188q0 18 -8.5 24.5t-28.5 8.5l-66 4 v160h432v-166l-112 -4q0 -196 -86 -361q77 -65 258 -196l-135 -179q-118 79 -258 193q-73 -73 -182 -112.5t-240 -39.5q-127 0 -223.5 35.5t-151.5 95.5t-82 132t-27 153zM340 403q0 -105 65 -169t187 -64q157 0 244 96q-249 212 -371 377q-125 -87 -125 -240z" />
<glyph unicode="'" horiz-adv-x="419" d="M115 1362h190l-20 -471h-150z" />
<glyph unicode="(" horiz-adv-x="677" d="M141 555q0 227 70.5 468.5t200.5 469.5l194 -90q-223 -441 -223 -838q0 -209 55.5 -409t165.5 -424l-192 -92q-271 460 -271 915z" />
<glyph unicode=")" horiz-adv-x="677" d="M72 -266q111 220 167 423.5t56 413.5q0 209 -55.5 409.5t-165.5 424.5l192 92q271 -460 271 -915q0 -227 -70.5 -468.5t-200.5 -469.5z" />
<glyph unicode="*" horiz-adv-x="925" d="M92 1186l14 90q10 65 57.5 81t94.5 -20l158 -110l-66 291l86 22q65 18 97.5 -17.5t21.5 -97.5l-37 -202l240 151l51 -74q38 -57 15.5 -100.5t-83.5 -48.5l-190 -16l221 -164l-51 -74q-41 -55 -88 -49t-76 61l-98 183l-140 -252l-81 39q-40 19 -54.5 49t-2.5 60t44 52 l142 101z" />
<glyph unicode="+" d="M127 545v200h315v330h209v-330h316v-200h-316v-328h-209v328h-315z" />
<glyph unicode="," horiz-adv-x="493" d="M74 -279l63 416q6 47 32.5 75t68.5 28q12 0 23.5 -1.5t25 -7t22 -8.5t25.5 -13t23.5 -13.5t28.5 -17t28 -17.5l-211 -479z" />
<glyph unicode="-" horiz-adv-x="659" d="M61 496v188h537v-188h-537z" />
<glyph unicode="." horiz-adv-x="462" d="M82 115q0 64 39.5 105.5t105.5 41.5q72 0 113 -39.5t41 -105.5q0 -64 -39 -106t-106 -42q-74 0 -114 39.5t-40 106.5z" />
<glyph unicode="/" horiz-adv-x="876" d="M16 -147l627 1693l213 -76l-631 -1695z" />
<glyph unicode="0" d="M72 664q0 343 128.5 512.5t356.5 169.5q465 0 465 -674q0 -357 -120.5 -524.5t-358.5 -167.5t-354.5 165t-116.5 519zM319 641q0 -130 15.5 -221.5t46.5 -144t71.5 -76t94.5 -23.5q42 0 76 13.5t63.5 48t49 89.5t31 141t11.5 200q0 136 -16 231t-47.5 148t-71 75.5 t-92.5 22.5q-56 0 -97 -25t-72 -81.5t-47 -156t-16 -241.5z" />
<glyph unicode="1" horiz-adv-x="929" d="M90 1087l373 232h201v-1135l213 -10v-174h-713v168l196 12q31 2 45.5 16.5t14.5 51.5v805l-240 -123z" />
<glyph unicode="2" horiz-adv-x="1050" d="M121 0v158l407 514q6 8 18 23q40 50 57 74t36.5 58.5t26 66t6.5 71.5q0 86 -48 131t-124 45q-70 0 -123 -17q-26 -8 -33.5 -23.5t-7.5 -47.5v-146l-209 15v327q194 97 414 97q185 0 287 -99.5t102 -265.5q0 -180 -174 -389l-330 -389h512v-203h-817z" />
<glyph unicode="3" horiz-adv-x="1069" d="M82 76l72 194q69 -38 158 -64t163 -26q223 0 223 199q0 102 -68 150.5t-229 48.5h-77l18 186h211q123 77 123 219q0 76 -45 117t-133 41q-62 0 -127 -21q-26 -8 -33.5 -23.5t-7.5 -47.5v-148l-209 14v328q206 103 418 103q188 0 287.5 -91t99.5 -237q0 -106 -51.5 -193 t-135.5 -141q207 -65 207 -291q0 -189 -116.5 -304.5t-346.5 -115.5q-113 0 -224.5 30.5t-176.5 72.5z" />
<glyph unicode="4" horiz-adv-x="1097" d="M82 371v170l385 809l195 -97l-330 -690h293v111l86 272h143v-383h182v-194h-184v-185l170 -10v-174h-602v168l127 10q59 3 59 58v135h-524z" />
<glyph unicode="5" horiz-adv-x="1038" d="M59 80l82 188q160 -88 308 -88q208 0 208 201q0 250 -489 250l88 688h408q47 0 47 57v88l194 -14v-326h-469l-41 -313q109 -8 199.5 -35t163.5 -76.5t114 -129.5t41 -185q0 -60 -14.5 -116.5t-48.5 -110.5t-85 -93.5t-129.5 -63.5t-176.5 -24q-115 0 -225 31t-175 72z " />
<glyph unicode="6" horiz-adv-x="1093" d="M111 565q0 120 19 223.5t68 205.5t126 178t200.5 130t284.5 72l47 -184q-232 -29 -348 -141t-141 -293q58 37 134.5 60.5t143.5 23.5q169 0 262.5 -106.5t93.5 -291.5q0 -134 -48 -237t-150.5 -165.5t-247.5 -62.5q-95 0 -170.5 29.5t-126 81t-84 126.5t-48.5 161.5 t-15 189.5zM352 586q-4 -125 14 -215.5t68 -147.5t129 -57q88 0 143.5 70.5t55.5 195.5q0 234 -182 234q-54 0 -122.5 -25t-105.5 -55z" />
<glyph unicode="7" horiz-adv-x="972" d="M47 985v334h885v-170l-469 -1149h-256l481 1116h-387q-25 0 -35 -15.5t-10 -47.5v-82z" />
<glyph unicode="8" d="M96 326q0 55 16.5 106t42 90t60 74.5t66 58.5t65.5 43q-207 127 -207 306q0 148 114.5 245t301.5 97q103 0 181 -26t123 -70.5t67 -98t22 -113.5q0 -94 -52 -173t-142 -154q250 -145 250 -357q0 -77 -27.5 -143.5t-82 -119.5t-146 -83.5t-209.5 -30.5q-122 0 -212.5 31.5 t-138.5 84t-70 110.5t-22 123zM336 342q0 -74 53 -126t150 -52q95 0 148.5 49t53.5 135q0 83 -57 138t-170 114q-85 -56 -131.5 -115t-46.5 -143zM377 1018q0 -123 194 -221q61 42 105.5 103.5t44.5 125.5q0 67 -48 106t-126 39q-72 0 -121 -44t-49 -109z" />
<glyph unicode="9" d="M102 881q0 133 49.5 236.5t153 166t248.5 62.5q118 0 204.5 -44.5t136.5 -126t73.5 -185t23.5 -232.5q0 -120 -19.5 -223t-69.5 -202t-128 -171t-202.5 -122.5t-286.5 -64.5l-49 191q235 27 357 125t146 270q-119 -78 -282 -78q-169 0 -262 106.5t-93 291.5zM342 889 q0 -107 46.5 -167t133.5 -60q56 0 125 22.5t105 52.5q2 92 -7.5 165.5t-33 131.5t-66 89.5t-100.5 31.5q-93 0 -148 -69.5t-55 -196.5z" />
<glyph unicode=":" horiz-adv-x="462" d="M82 115q0 64 39.5 105.5t105.5 41.5q72 0 113 -39.5t41 -105.5q0 -64 -39 -106t-106 -42q-74 0 -114 39.5t-40 106.5zM82 869q0 64 39.5 105.5t105.5 41.5q72 0 113 -39.5t41 -105.5q0 -64 -39 -106t-106 -42q-74 0 -114 39.5t-40 106.5z" />
<glyph unicode=";" horiz-adv-x="493" d="M74 -279l63 416q6 47 32.5 75t68.5 28q12 0 23.5 -1.5t25 -7t22 -8.5t25.5 -13t23.5 -13.5t28.5 -17t28 -17.5l-211 -479zM139 868q0 64 40 106t106 42q72 0 112.5 -40t40.5 -106q0 -64 -39 -105.5t-106 -41.5q-75 0 -114.5 39.5t-39.5 105.5z" />
<glyph unicode="&#x3c;" d="M139 573v160l750 367l82 -182l-559 -259l563 -270l-86 -184z" />
<glyph unicode="=" d="M133 332v198h830v-198h-830zM133 725v197h830v-197h-830z" />
<glyph unicode="&#x3e;" d="M139 389l563 270l-559 259l82 182l750 -367v-160l-750 -368z" />
<glyph unicode="?" horiz-adv-x="886" d="M82 1049v280q195 94 377 94q179 0 266.5 -83.5t87.5 -225.5q0 -55 -12 -102t-29.5 -80.5t-49 -68t-58.5 -57t-70 -54.5q-62 -44 -84 -72.5t-25 -85.5l-10 -225h-196l-11 215q-6 111 31 176t133 137q7 5 30.5 22t31 23t25 22t24 27t16 29t13 38t3.5 44q0 64 -38 96.5 t-103 32.5q-44 0 -102 -17q-26 -7 -33.5 -22.5t-7.5 -48.5v-109zM238 102q0 56 39 96t98 40q66 0 104.5 -37.5t38.5 -96.5q0 -58 -37.5 -98.5t-99.5 -40.5q-67 0 -105 39t-38 98z" />
<glyph unicode="@" horiz-adv-x="1951" d="M137 434q0 213 69 384t190.5 281.5t284.5 169t355 58.5q172 0 314 -48.5t245 -140.5t160 -233t57 -317q0 -286 -139.5 -436t-369.5 -152h-117l-17 111l-6 2q-80 -119 -241 -119q-75 0 -133.5 22.5t-95.5 60.5t-61.5 92.5t-34 114t-9.5 128.5q0 237 115 368t329 131 q55 0 140 -14.5t167 -44.5v-600l9 -109q286 18 286 439q0 131 -37 237t-110 184.5t-191 121t-272 42.5q-170 0 -304 -55.5t-219.5 -153.5t-130 -229.5t-44.5 -286.5q0 -200 70.5 -353t211.5 -241t336 -88q182 0 324 64l51 -150q-159 -69 -381 -69q-165 0 -300.5 45 t-227 122.5t-154 184t-91 226t-28.5 251.5zM788 418q0 -55 8.5 -100.5t27.5 -86t56 -63.5t89 -23q48 0 82 17t52 46.5t26 62.5t8 71v397q-53 23 -117 23q-56 -1 -98.5 -21t-67.5 -51.5t-40.5 -78t-20.5 -92t-5 -101.5z" />
<glyph unicode="A" horiz-adv-x="1355" d="M10 0v166l68 6q26 3 38 15t23 42l330 955l-129 12v166h469l418 -1182h2l117 -6v-174h-529v166l78 6q35 3 47 16t2 45l-43 127h-479l-62 -180l123 -6v-174h-473zM471 549h381l-184 584h-6z" />
<glyph unicode="B" horiz-adv-x="1232" d="M70 0v166l67 6q29 3 44.5 15.5t15.5 41.5v953l-117 6v174h577q443 0 443 -342q0 -97 -50.5 -169.5t-138.5 -117.5q120 -30 189 -112t69 -213q0 -199 -134.5 -303.5t-389.5 -104.5h-575zM446 193h193q266 0 266 217q0 102 -67 156.5t-189 54.5h-203v-428zM446 803h152 q126 0 187 51.5t61 138.5q0 53 -17 90t-50.5 56t-73 27t-93.5 8h-166v-371z" />
<glyph unicode="C" horiz-adv-x="1232" d="M82 674q0 155 37 279t98.5 203.5t145.5 132.5t173.5 75t188.5 22q206 0 385 -83v-349l-209 -14v160q0 31 -8 44.5t-35 22.5q-55 17 -133 17q-191 0 -289 -129t-98 -365q0 -254 92 -386q90 -129 287 -128h12q88 0 150 19q27 9 35 22.5t8 44.5v164l208 -14v-355 q-80 -42 -189.5 -63t-215.5 -21q-314 0 -478.5 176.5t-164.5 524.5z" />
<glyph unicode="D" horiz-adv-x="1361" d="M70 0v166l67 6q29 3 44.5 15.5t15.5 41.5v953l-117 6v174h561q301 0 470 -160t169 -473q0 -156 -34 -281.5t-92 -208t-139 -137t-171.5 -78.5t-192.5 -24h-581zM446 197h209q175 0 274 126.5t99 368.5q0 134 -30.5 228.5t-87 146t-125 74t-156.5 22.5h-183v-966z" />
<glyph unicode="E" horiz-adv-x="1124" d="M70 0v166l67 6q29 3 44.5 15.5t15.5 41.5v953l-117 6v174h938v-340l-209 -14v82q0 34 -10.5 48.5t-48.5 14.5h-304v-350h474v-209h-474v-383h330q37 0 47.5 15t10.5 50v103l208 -14v-365h-972z" />
<glyph unicode="F" horiz-adv-x="1112" d="M70 0v166l67 6q29 3 44.5 15.5t15.5 41.5v953l-117 6v174h989v-340l-209 -14v82q0 34 -10.5 48.5t-48.5 14.5h-355v-362h504v-209h-504v-402l183 -6v-174h-559z" />
<glyph unicode="G" horiz-adv-x="1312" d="M82 678q0 153 40 276.5t104.5 202.5t151.5 132t175.5 75t181.5 22q223 0 402 -83v-349l-209 -14v160q0 31 -8 44.5t-35 22.5q-55 17 -152 17q-200 0 -297.5 -127.5t-97.5 -362.5q0 -516 356 -516q60 0 123 14.5t94 34.5v305h-2l-157 7v174h510v-164l-48 -4 q-33 -3 -46 -17.5t-13 -50.5v-371q-88 -60 -210.5 -95.5t-260.5 -35.5q-285 0 -443.5 177t-158.5 526z" />
<glyph unicode="H" horiz-adv-x="1458" d="M66 0v166l67 6q29 3 44.5 15.5t15.5 41.5v953l-117 6v174h495v-166l-67 -6q-32 -3 -47 -17.5t-15 -50.5v-317h580v377l-117 6v174h496v-166l-68 -6q-29 -3 -44 -17.5t-15 -48.5v-944l117 -6v-174h-496v166l68 6q31 3 45 17.5t14 50.5v354h-580v-414l119 -6v-174h-495z " />
<glyph unicode="I" horiz-adv-x="628" d="M66 0v166l67 6q31 3 45.5 17.5t14.5 50.5v942l-117 6v174h495v-166l-67 -6q-29 -3 -44.5 -17.5t-15.5 -48.5v-944l117 -6v-174h-495z" />
<glyph unicode="J" horiz-adv-x="970" d="M57 59v359l209 14v-162q0 -31 8 -45t35 -24q47 -17 107 -17q81 0 114 44t33 143v809l-160 8v174h537v-166l-68 -6q-31 -3 -45 -18t-14 -46v-637q0 -145 -8 -215q-15 -144 -111.5 -222.5t-275.5 -78.5q-209 0 -361 86z" />
<glyph unicode="K" horiz-adv-x="1273" d="M66 0v166l67 6q31 3 45.5 17.5t14.5 50.5v942l-117 6v174h491v-166l-67 -6q-29 -3 -44.5 -17.5t-15.5 -48.5v-450l418 508l-115 6v174h480v-166l-68 -6q-23 -3 -41 -16t-41 -41l-291 -357l363 -596l108 -6v-174h-524v166l64 6q41 4 41 31q0 14 -11 35l-202 350l-181 -217 v-191l117 -6v-174h-491z" />
<glyph unicode="L" horiz-adv-x="1099" d="M66 0v166l67 6q29 3 44.5 15.5t15.5 41.5v953l-117 6v174h493v-166l-67 -6q-29 -3 -44.5 -17.5t-15.5 -48.5v-913h340q30 0 38.5 15.5t8.5 49.5v144l209 -14v-406h-972z" />
<glyph unicode="M" horiz-adv-x="1708" d="M41 0v166l74 6q22 2 36 16.5t15 38.5l55 953l-125 8v174h412l348 -926h4l350 926h406v-166l-68 -6q-31 -3 -45.5 -18.5t-13.5 -53.5l51 -938l127 -6v-174h-493v166l73 6q56 3 53 53l-38 723h-5l-315 -817h-194l-312 809h-4l-41 -760l133 -6v-174h-483z" />
<glyph unicode="N" horiz-adv-x="1443" d="M66 0v166l73 6q27 2 40.5 14.5t13.5 42.5v953l-117 6v174h368l580 -940h4v760l-135 6v174h500v-166l-74 -6q-49 -3 -49 -64v-1126h-240l-592 954h-4v-774l133 -6v-174h-501z" />
<glyph unicode="O" horiz-adv-x="1359" d="M82 678q0 152 37 274.5t97 202t141.5 133t166 76t174.5 22.5q94 0 177.5 -23t158 -76.5t128 -134t85 -201.5t31.5 -273q0 -343 -163 -524t-439 -181q-279 0 -436.5 180.5t-157.5 524.5zM338 688q0 -77 8 -143t31.5 -135.5t61 -118.5t102 -80t149.5 -31q75 0 134 28t96 74 t61 111t33.5 133t9.5 146q0 48 -3.5 94t-14 97t-26.5 95t-42.5 85t-60.5 70t-83 46t-108 17q-94 0 -164 -41t-109 -112.5t-57 -154.5t-18 -180z" />
<glyph unicode="P" horiz-adv-x="1208" d="M66 0v166l67 6q29 3 44.5 15.5t15.5 41.5v953l-117 6v174h586q229 0 357 -107.5t128 -310.5q0 -226 -145.5 -346.5t-385.5 -120.5h-174v-297l197 -6v-174h-573zM442 676h148q299 0 299 244q0 77 -21 126.5t-66 74.5t-98.5 33.5t-136.5 8.5h-125v-487z" />
<glyph unicode="Q" horiz-adv-x="1359" d="M80 678q0 152 37 274.5t97 202t141.5 133t166 76t174.5 22.5q94 0 177.5 -23t158 -76.5t128 -134t85 -201.5t31.5 -273q0 -265 -111 -435t-323 -225v-6q73 -4 138.5 -24.5t113 -45t97 -47.5t113.5 -34q36 -6 75 -6q32 0 67 4l-25 -197q-30 -3 -60 -3l-106 10 q-83 16 -153 45.5t-135 60.5t-136.5 56.5t-134.5 29.5q-20 2 -40 2q-56 0 -117 -13l28 148q-239 31 -363 200.5t-124 479.5zM336 688q0 -77 8 -143t31.5 -135.5t61 -118.5t102 -80t149.5 -31q75 0 134 28t96 74t61 111t33.5 133t9.5 146q0 48 -3.5 94t-14 97t-26.5 95 t-42.5 85t-60.5 70t-83 46t-108 17q-94 0 -164 -41t-109 -112.5t-57 -154.5t-18 -180z" />
<glyph unicode="R" horiz-adv-x="1282" d="M66 0v166l67 6q29 3 44.5 15.5t15.5 41.5v953l-117 6v174h559q116 0 204 -20t153.5 -63.5t99.5 -117t34 -176.5q0 -73 -22 -135.5t-59 -105.5t-77.5 -72t-86.5 -47q41 -15 66.5 -43t49.5 -82l148 -322l117 -4v-174h-506v166l59 6q35 4 44 19.5t-5 46.5l-96 204 q-23 51 -50.5 73t-78.5 22h-187v-357l133 -6v-174h-509zM442 731h179q251 0 251 225q0 67 -18 109.5t-58 63t-85.5 27.5t-118.5 7h-150v-432z" />
<glyph unicode="S" horiz-adv-x="1069" d="M88 985q0 186 130 293.5t345 107.5q206 0 385 -83v-308l-209 -14v119q0 31 -8 44.5t-35 22.5q-55 17 -133 17q-97 0 -156 -43t-59 -133q0 -23 4.5 -43t17 -37t23.5 -29.5t34.5 -25.5t38.5 -20.5t48 -19t50 -17t57 -17.5q66 -21 112.5 -40t101.5 -53t89 -74.5t57 -102.5 t23 -138q0 -197 -138.5 -307.5t-357.5 -110.5q-233 0 -414 84v324l209 14v-125q0 -31 8 -44.5t35 -22.5q62 -19 148 -19q245 0 245 197q0 38 -14.5 67.5t-35 49t-58.5 37t-69 27.5t-83 24q-57 15 -100 30.5t-91 38.5t-81.5 53t-61.5 69t-42.5 91.5t-14.5 116.5z" />
<glyph unicode="T" horiz-adv-x="1132" d="M31 1014v348h1071v-348l-209 -15v97q0 34 -10.5 48.5t-48.5 14.5h-140v-979l162 -6v-174h-577v166l108 6q31 3 45 15.5t14 41.5v930h-159q-29 0 -38 -16t-9 -47v-97z" />
<glyph unicode="U" horiz-adv-x="1349" d="M45 1188v174h496v-166l-68 -6q-32 -3 -46.5 -17.5t-14.5 -50.5v-680q0 -143 68 -201.5t200 -58.5q126 0 196 63.5t70 186.5v750l-119 6v174h486v-166l-68 -6q-59 -6 -59 -62v-731q0 -199 -139 -311.5t-375 -112.5q-256 0 -382 109.5t-126 347.5v752z" />
<glyph unicode="V" horiz-adv-x="1339" d="M10 1188v174h529v-166l-68 -6q-63 -6 -63 -49q0 -11 4 -23l274 -825h10l287 887l-125 8v174h471v-166l-67 -6q-27 -3 -40 -16.5t-24 -45.5l-387 -1128h-266l-418 1182z" />
<glyph unicode="W" horiz-adv-x="1812" d="M10 1188v174h508v-166l-67 -6q-64 -6 -64 -54q0 -8 2 -18l178 -790h8l213 925h265l221 -929h4l174 856l-111 8v174h461v-166l-67 -6q-31 -3 -45.5 -20t-22.5 -54l-258 -1116h-281l-215 911h-6l-209 -911h-288l-283 1182z" />
<glyph unicode="X" horiz-adv-x="1271" d="M10 0v166l64 6q22 3 39 18t39 48l331 475l-311 458l-113 11v180h543v-168l-51 -6q-42 -4 -54 -28.5t9 -55.5l137 -215l199 293l-103 6v174h469v-166l-63 -6q-22 -3 -39 -18t-39 -48l-293 -395l359 -541l129 -8v-180h-570v168l62 6q40 4 54 27t-5 51l-185 285l-235 -357 l98 -6v-174h-471z" />
<glyph unicode="Y" horiz-adv-x="1167" d="M10 1188v174h500v-166l-61 -6q-33 -3 -43 -25.5t8 -54.5l174 -356h8l223 426l-102 8v174h440v-166l-61 -6q-23 -3 -38.5 -17.5t-31.5 -44.5l-321 -608v-340l159 -6v-174h-577v166l108 6q31 2 45.5 14.5t14.5 42.5v291l-349 662z" />
<glyph unicode="Z" horiz-adv-x="1091" d="M68 0v170l618 997h-340q-55 0 -55 -63v-82l-209 14v326h895v-166l-625 -1001h398q30 0 40.5 16t10.5 49v143l209 -14v-389h-942z" />
<glyph unicode="[" horiz-adv-x="665" d="M164 -340v1802h430v-166h-205v-1470h205v-166h-430z" />
<glyph unicode="\" horiz-adv-x="901" d="M31 1470l211 78l628 -1695l-211 -76z" />
<glyph unicode="]" horiz-adv-x="665" d="M72 -174h204v1470h-204v166h430v-1802h-430v166z" />
<glyph unicode="^" horiz-adv-x="1132" d="M100 618l383 762h179l380 -764l-206 -32l-267 546l-268 -546z" />
<glyph unicode="_" horiz-adv-x="1024" d="M0 -152h1024v-149h-1024v149z" />
<glyph unicode="`" horiz-adv-x="1024" d="M325.5 1490.5q-1.5 21.5 13 41t44.5 33.5l96 45l238 -393l-80 -68l-262 254q-23 22 -35.5 44t-14 43.5z" />
<glyph unicode="a" horiz-adv-x="1161" d="M82 471q0 278 135.5 434t405.5 156q64 0 164.5 -17.5t199.5 -54.5v-762q0 -33 10.5 -45t40.5 -14l66 -4v-164h-326v119l-6 2q-47 -69 -121.5 -108.5t-158.5 -39.5q-208 0 -309 133.5t-101 364.5zM332 479q0 -332 213 -332q91 0 148 54.5t57 124.5v530q-60 27 -158 27 q-71 0 -122.5 -31.5t-81 -88.5t-43 -127t-13.5 -157z" />
<glyph unicode="b" horiz-adv-x="1138" d="M35 1290v170h360v-485q43 40 109.5 63t138.5 23q193 0 305.5 -130t112.5 -366q0 -592 -496 -592q-107 0 -224.5 25.5t-182.5 62.5v1176q0 25 -12.5 36t-39.5 13zM395 195q80 -41 180 -41q113 0 173.5 88t60.5 290q0 52 -5.5 97.5t-20.5 93t-40 81t-66.5 54.5t-96.5 21 q-73 0 -129 -43.5t-56 -110.5v-530z" />
<glyph unicode="c" horiz-adv-x="964" d="M68 502q0 120 28.5 217t76 160t111.5 105t131.5 59.5t139.5 17.5q164 0 319 -84v-266l-188 -15v99q0 31 -8.5 45.5t-34.5 23.5q-41 13 -80 13q-122 0 -185 -90t-63 -261q0 -173 66 -269.5t199 -96.5q114 0 235 88l88 -158q-65 -53 -156.5 -86t-199.5 -33 q-227 0 -353 138.5t-126 392.5z" />
<glyph unicode="d" horiz-adv-x="1163" d="M82 475q0 267 132 426.5t368 159.5q84 0 168 -25v207q0 25 -13.5 36t-40.5 13l-88 6v162h381v-1245q1 -26 13 -36.5t38 -10.5l72 -4v-164h-332v121l-6 2q-46 -75 -118.5 -112.5t-159.5 -37.5q-93 0 -165.5 28t-118.5 74.5t-76 112.5t-42 136t-12 151zM334 498 q0 -344 221 -344q85 0 140 48t55 117v531q-76 33 -156 33q-70 0 -122 -31.5t-81.5 -86.5t-43 -121.5t-13.5 -145.5z" />
<glyph unicode="e" horiz-adv-x="991" d="M76 492q0 115 32.5 217t94 181t159.5 125t220 46q153 0 243 -75t90 -210q0 -65 -20 -119t-53 -91.5t-80.5 -66.5t-98 -46t-110.5 -28t-112 -15t-109 -4q7 -108 68 -175t184 -67q132 0 258 90l78 -166q-41 -36 -138.5 -75.5t-222.5 -39.5q-128 0 -222 37.5t-150.5 108 t-83.5 163.5t-27 210zM324 578q65 1 122.5 9.5t116 28.5t93 60t34.5 96t-33 85.5t-90 29.5q-78 0 -133.5 -46.5t-81 -114t-28.5 -148.5z" />
<glyph unicode="f" horiz-adv-x="757" d="M20 858v172h177v78q0 57 6 102.5t27.5 98.5t58.5 88.5t104 59.5t158 24q67 0 149.5 -21t135.5 -51l-60 -164q-97 51 -194 51q-75 0 -108.5 -41.5t-33.5 -128.5v-96h303v-172h-303v-686l172 -8v-164h-542v156l67 6q32 3 46 17t14 50v629h-177z" />
<glyph unicode="g" horiz-adv-x="1114" d="M72 516q0 136 39.5 241t111 171t168 99.5t213.5 33.5q80 0 187 -20t192 -56v-760q0 -174 -4 -223q-19 -227 -131.5 -333.5t-341.5 -106.5q-103 0 -213 18t-172 49v285l194 16v-98q0 -30 10 -47t37 -27q56 -20 146 -20q68 0 116 22t73.5 64.5t36.5 94t11 120.5v113 q-98 -115 -272 -115q-87 0 -156.5 27.5t-114.5 73.5t-75 109t-42.5 129.5t-12.5 139.5zM324 541q0 -48 3.5 -87.5t17 -86t35.5 -77.5t62 -52t95 -21q89 0 148.5 55t59.5 146v440q-73 25 -163 25q-125 0 -191.5 -91.5t-66.5 -250.5z" />
<glyph unicode="h" horiz-adv-x="1228" d="M66 0v156l67 6q32 3 46 17t14 50v998q0 33 -11 45t-41 14l-71 4v170h364v-551q48 69 125 110.5t174 41.5q157 0 241.5 -89t84.5 -267v-535l117 -6v-164h-488v156l68 6q31 3 45 17t14 50v422q0 106 -34.5 163.5t-125.5 57.5q-102 0 -160.5 -60.5t-58.5 -145.5v-496l117 -6 v-164h-487z" />
<glyph unicode="i" horiz-adv-x="606" d="M68 0v156l67 6q31 3 45.5 17t14.5 48v570q0 34 -11.5 46.5t-40.5 12.5l-71 4v170h366v-860l117 -6v-164h-487zM137 1315q0 66 43.5 109.5t114.5 43.5q67 0 111.5 -44t44.5 -109t-44.5 -107.5t-113.5 -42.5q-70 0 -113 42.5t-43 107.5z" />
<glyph unicode="j" horiz-adv-x="579" d="M-164 -367l74 170q78 -43 151 -43q61 0 91 41.5t30 139.5v856q0 33 -10.5 45t-40.5 14l-72 4v170h367v-1079q0 -67 -6 -117t-26 -104t-54.5 -88.5t-96 -57t-145.5 -22.5q-65 0 -137 19t-125 52zM125 1315q0 66 43.5 109.5t114.5 43.5q67 0 111 -44t44 -109t-44 -107.5 t-113 -42.5q-70 0 -113 42.5t-43 107.5z" />
<glyph unicode="k" horiz-adv-x="1138" d="M68 0v156l67 6q32 3 46 17t14 50v998q0 33 -11 45t-41 14l-71 4v170h364v-887q112 11 196.5 70t115.5 156q10 37 0.5 52t-33.5 15l-78 4v160h424v-166l-98 -4q-26 -208 -181 -330l201 -360l125 -6v-164h-299l-234 426q-74 -21 -139 -29v-227h2l117 -6v-164h-487z" />
<glyph unicode="l" horiz-adv-x="610" d="M63 0v156l68 6q30 3 44.5 16.5t14.5 48.5v1010q0 26 -13 36.5t-38 12.5l-71 4v170h366v-1290l117 -6v-164h-488z" />
<glyph unicode="m" horiz-adv-x="1773" d="M55 864v166h346v-133q116 164 312 164q203 0 272 -164q116 164 311 164q148 0 228 -89t80 -267v-535l116 -6v-164h-487v156l67 6q30 3 44.5 16.5t15.5 48.5v424q0 44 -2 72t-10 59t-22.5 49t-41.5 29.5t-65 11.5q-99 0 -149 -57.5t-50 -152.5v-492l113 -6v-164h-484v156 l68 6q31 3 45 17t14 50v422q0 44 -2 72t-10 59t-22.5 49t-41.5 29.5t-65 11.5q-100 0 -149.5 -59t-49.5 -147v-496l111 -6v-164h-484v156l68 6q31 3 45 17t14 50h3v566q0 34 -11.5 48t-40.5 15z" />
<glyph unicode="n" horiz-adv-x="1228" d="M55 866v164h346v-133q54 77 142.5 120.5t189.5 43.5q157 0 241.5 -89t84.5 -267v-535l117 -6v-164h-488v156l68 6q31 3 45 17t14 50v422q0 111 -35 166t-133 55q-97 0 -154 -61t-57 -145v-496l117 -6v-164h-487v156l67 6q32 3 46 17t14 50v568q0 33 -12 47t-40 16z" />
<glyph unicode="o" horiz-adv-x="1081" d="M68 516q0 123 31 220t79.5 156.5t114.5 99t130 54.5t132 15q38 0 73.5 -3.5t83 -17t87.5 -35t80.5 -61t69 -92.5t46 -132.5t17.5 -176.5q0 -143 -38.5 -254.5t-106 -180.5t-155 -104t-190.5 -35q-212 0 -333 138t-121 409zM315 545q0 -53 3 -96t11 -90.5t24 -83t40 -65 t61 -45t85 -15.5q115 0 169 95.5t54 264.5q0 182 -50.5 276.5t-168.5 94.5q-116 0 -172 -90t-56 -246z" />
<glyph unicode="p" horiz-adv-x="1163" d="M45 864v166h346v-133q33 62 119 113t205 51q177 0 273.5 -126.5t96.5 -393.5q0 -277 -120.5 -424.5t-327.5 -147.5q-58 0 -117.5 17t-101.5 43v-283l166 -8v-162h-529v156l68 6q31 3 45 17t14 50v992q0 34 -11 47.5t-40 13.5zM418 215q77 -51 180 -51q63 0 109.5 30 t72.5 82t38.5 113t12.5 131q0 342 -206 342q-87 0 -147 -52.5t-60 -123.5v-471z" />
<glyph unicode="q" horiz-adv-x="1128" d="M82 471q0 152 38.5 267t110 184.5t166.5 104t213 34.5q80 0 187 -20t192 -56v-1239l119 -6v-164h-539v156l121 6q31 2 46.5 16.5t15.5 50.5v283q-98 -115 -273 -115q-86 0 -155.5 30t-113.5 78.5t-74 114.5t-42 134t-12 141zM334 504q0 -52 3 -93t16 -92t35 -84.5 t63.5 -57t97.5 -23.5q90 0 145.5 46.5t55.5 135.5v522q-73 25 -162 25q-123 0 -188.5 -105t-65.5 -274z" />
<glyph unicode="r" horiz-adv-x="946" d="M57 864v166h346v-153q37 80 115 132t176 52q104 0 197 -45v-305l-191 -15v95q0 41 -20 51q-23 10 -55 10q-83 0 -135 -58.5t-52 -148.5v-475l178 -8v-162h-548v156l67 6q32 3 46 17t14 50v568q0 33 -11.5 46t-40.5 15z" />
<glyph unicode="s" horiz-adv-x="923" d="M90 37v285l184 14v-98q0 -29 10 -44.5t38 -25.5q58 -21 135 -21q161 0 161 125q0 27 -9.5 48t-26 35t-40 24.5t-51.5 19t-60 16.5q-9 2 -13 3q-40 10 -66 18t-63 22t-61 29.5t-50.5 39.5t-42 52.5t-25.5 68.5t-10 87q0 78 31.5 140.5t86 102.5t126 61.5t152.5 21.5 q172 0 340 -82v-246l-185 -14v86q0 30 -9.5 44.5t-37.5 24.5q-53 19 -119 19q-69 0 -111 -31.5t-42 -91.5q0 -27 12 -49t27.5 -36t46 -27.5t50.5 -19.5t58 -17q44 -13 69.5 -20.5t66 -23.5t64.5 -31t53 -39.5t45 -52.5t27 -67.5t11 -85.5q0 -154 -112 -241t-283 -87 q-104 0 -210 16.5t-167 47.5z" />
<glyph unicode="t" horiz-adv-x="772" d="M39 858l20 150q51 4 90 24.5t66.5 57.5t44 70.5t35.5 86.5h133v-217h272l-20 -172h-252v-539q0 -89 33 -125t100 -36q68 0 139 43l62 -158q-46 -32 -117 -52t-143 -20q-91 0 -154.5 23.5t-95 52.5t-48 83.5t-18.5 87t-2 92.5v1v547h-145z" />
<glyph unicode="u" horiz-adv-x="1210" d="M55 862v168h361v-649q0 -108 30.5 -163.5t120.5 -55.5q102 0 160.5 59.5t58.5 143.5v432q0 34 -11 46.5t-40 14.5l-65 4v168h360v-803q0 -33 10.5 -44.5t40.5 -14.5l72 -6v-162h-332v133q-54 -76 -142 -118t-190 -42q-317 0 -317 355v473q0 31 -12 43t-39 14z" />
<glyph unicode="v" horiz-adv-x="1142" d="M20 870v160h482v-164l-125 -6l211 -674h4l205 674l-107 6v164h432v-160l-63 -4q-22 -2 -34 -11.5t-21 -37.5l-265 -817h-313l-287 815q-9 29 -20.5 39.5t-38.5 11.5z" />
<glyph unicode="w" horiz-adv-x="1628" d="M20 872v158h469v-164l-114 -6l141 -629h4l225 758h199l213 -762h4l139 633l-104 6v164h412v-158l-68 -4q-22 -2 -34 -11.5t-21 -37.5l-195 -819h-295l-168 610h-6l-174 -610h-301l-207 817q-9 29 -20.5 39.5t-38.5 11.5z" />
<glyph unicode="x" horiz-adv-x="1093" d="M29 0v162l63 6q46 5 82 49l236 295l-252 348l-105 12v158h477v-162l-59 -4q-24 -1 -31.5 -17.5t6.5 -35.5l117 -156l158 205l-84 6v164h416v-160l-62 -4q-42 -2 -82 -51l-225 -285l268 -356l105 -12v-162h-488v162l64 4q27 1 31 16.5t-11 34.5l-125 164l-170 -211l97 -6 v-164h-426z" />
<glyph unicode="y" horiz-adv-x="1173" d="M55 862v168h361v-588q0 -108 30.5 -163.5t120.5 -55.5q102 0 160.5 59.5t58.5 143.5v371q0 34 -11 47.5t-40 13.5l-65 4v168h360v-991q0 -248 -120 -362.5t-355 -114.5q-103 0 -213 18t-172 49v285l195 16v-98q0 -30 10 -47t37 -27q56 -20 145 -20q264 0 264 301v156 q-54 -76 -142 -118t-190 -42q-317 0 -317 354v412q0 31 -12 43t-39 14z" />
<glyph unicode="z" horiz-adv-x="989" d="M82 0v156l526 692h-258q-42 0 -53.5 -16t-11.5 -54v-71l-193 14v309h815v-139l-532 -707h291q34 0 46.5 18t12.5 52v86l193 -14v-326h-836z" />
<glyph unicode="{" horiz-adv-x="696" d="M88 500v151q83 10 109.5 63t21.5 181q-2 57 -8.5 164t-7.5 127q-6 141 63 214t195 73q79 0 164 -21l-21 -152q-64 11 -82 11q-63 0 -82.5 -32.5t-19.5 -111.5q0 -46 9 -166t9 -167q0 -105 -30.5 -167t-104.5 -92q78 -27 106.5 -81t28.5 -166q0 -47 -11 -180.5t-11 -180.5 q0 -80 19.5 -116.5t82.5 -36.5q39 0 80 10l20 -156q-86 -18 -161 -18q-124 0 -193 70t-69 190q0 42 2 90.5t4.5 83t7 90.5t6.5 84q6 119 -19.5 175.5t-107.5 66.5z" />
<glyph unicode="|" horiz-adv-x="561" d="M174 -180v1710h213v-1710h-213z" />
<glyph unicode="}" horiz-adv-x="696" d="M72 1452q86 21 164 21q126 0 195 -73t63 -214q-1 -26 -8 -130.5t-9 -160.5q-5 -128 21.5 -181t109.5 -63v-151q-82 -10 -107.5 -66.5t-19.5 -175.5q2 -28 8.5 -106t9.5 -133t3 -109q0 -120 -69 -190t-193 -70q-76 0 -162 18l20 156q41 -10 80 -10q63 0 83 37t20 116 q0 47 -11.5 180.5t-11.5 180.5q0 112 28.5 166t106.5 81q-74 30 -104.5 92t-30.5 167q0 47 9 167t9 166q0 79 -19.5 111.5t-82.5 32.5q-18 0 -82 -11z" />
<glyph unicode="~" horiz-adv-x="1224" d="M96 578q63 105 135 161t164 56q56 0 117 -24.5t105.5 -53.5t98.5 -53.5t97 -24.5q93 0 166 131l149 -111q-100 -213 -299 -213q-59 0 -122 23.5t-107.5 51.5t-95.5 51.5t-88 23.5q-48 0 -88 -33.5t-84 -99.5z" />
<glyph unicode="&#xa1;" horiz-adv-x="567" d="M143 922q0 58 38 98.5t100 40.5q67 0 105 -39t38 -98q0 -56 -39 -96t-98 -40q-66 0 -105 38t-39 96zM166 -57l41 714h145l43 -714v-244q0 -42 -26.5 -69t-85.5 -27q-117 0 -117 100v240z" />
<glyph unicode="&#xa2;" d="M154 616q0 127 33 227.5t91 164.5t126.5 102.5t148.5 54.5v238h154v-229q143 -8 284 -82v-267l-188 -14v98q0 31 -8.5 46t-34.5 24q-30 7 -53 10v-704q102 6 215 88l88 -158q-131 -103 -303 -117v-221h-154v225q-187 28 -293 160.5t-106 353.5zM401 641q0 -258 152 -330 v656q-152 -73 -152 -326z" />
<glyph unicode="&#xa3;" horiz-adv-x="1130" d="M66 -16v190q159 74 172 256l12 162h-172l20 172h164l12 176q8 113 47.5 194.5t103 126.5t136.5 65t162 20q87 0 183.5 -24t164.5 -60v-287l-209 -14v96q0 31 -7.5 45t-33.5 24q-46 19 -96 19q-105 0 -155.5 -52.5t-57.5 -170.5l-12 -158h358l-20 -170h-349l-6 -84 q-11 -171 -178 -299l4 -8q3 1 22.5 8.5t24.5 9t21.5 7t25 7t23.5 4.5t28 4t27 1q54 0 164.5 -20.5t185.5 -20.5q92 0 193 28l-27 -219q-99 -18 -178 -18q-100 0 -251.5 25.5t-243.5 25.5q-123 0 -258 -61z" />
<glyph unicode="&#xa5;" horiz-adv-x="1126" d="M10 1188v174h500v-166l-61 -6q-33 -3 -43 -25.5t8 -54.5l153 -315h8l203 385l-102 8v174h440v-166l-61 -6q-23 -3 -38.5 -17.5t-31.5 -44.5l-219 -366h231v-156h-313v-133h313v-156h-313v-137l160 -6v-174h-578v166l109 6q30 2 44.5 14.5t14.5 42.5v88h-313v156h313v133 h-313v156h231l-246 420z" />
<glyph unicode="&#xa6;" horiz-adv-x="563" d="M174 -180v766h215v-766h-215zM174 825v705h215v-705h-215z" />
<glyph unicode="&#xa7;" horiz-adv-x="1130" d="M88 549q0 178 172 325q-27 62 -27 150q0 43 9 85.5t34.5 90t65.5 83.5t107.5 59.5t154.5 23.5q163 0 324 -84v-266l-189 -15v99q0 31 -8.5 46.5t-34.5 24.5q-37 11 -73 11q-82 0 -124 -38t-42 -102q0 -27 6.5 -50t23 -44.5t31.5 -37.5t44 -36.5t48 -33t57 -35t58 -35.5 q64 -41 109 -77t85.5 -82.5t61 -102t20.5 -119.5q0 -81 -42 -163.5t-125 -153.5q26 -70 26 -150q0 -43 -9 -85.5t-34.5 -90t-65.5 -83.5t-107.5 -59.5t-154.5 -23.5q-169 0 -323 80v270l188 15v-99q0 -31 8.5 -46.5t34.5 -24.5q37 -11 74 -11q82 0 124 38t42 102 q0 21 -4 39.5t-14.5 36.5t-19 32t-28.5 30.5t-31.5 26.5t-39 27.5t-40 25.5t-45.5 27.5t-46 26.5q-146 85 -213.5 168.5t-67.5 204.5zM313 592q0 -16 3 -31t6 -27t12.5 -25t15.5 -22t21.5 -22.5t24.5 -21t31 -22.5t33.5 -23t39.5 -26t43 -28t59 -39t70 -48t49 -38 q27 24 43 61.5t16 73.5q0 16 -3 31t-6 27t-12.5 25.5t-15 22t-21.5 22t-24 21t-31 23t-33.5 22.5t-39.5 26t-43 28q-127 80 -178 125q-60 -57 -60 -135z" />
<glyph unicode="&#xa8;" horiz-adv-x="1024" d="M170 1325q0 58 39.5 97.5t101.5 39.5t102 -39.5t40 -97.5t-40 -96.5t-102 -38.5q-64 0 -102.5 38t-38.5 97zM580 1325q0 58 39.5 97.5t101.5 39.5t101.5 -39.5t39.5 -97.5q0 -59 -40 -97t-101 -38q-64 0 -102.5 38t-38.5 97z" />
<glyph unicode="&#xa9;" horiz-adv-x="1667" d="M123 668q0 148 52 280t143 228t222.5 152t282.5 56q156 0 291 -56t228 -151t146.5 -224t53.5 -273q0 -203 -91 -367.5t-256 -259t-372 -94.5q-213 0 -373 91t-243.5 251t-83.5 367zM285 668q0 -255 150.5 -408.5t389.5 -153.5q157 0 284 73t199 203t72 292 q0 159 -72.5 288t-200 202t-282.5 73q-159 0 -283 -75t-190.5 -204.5t-66.5 -289.5zM475 678q0 91 23 163.5t59 117t84 74t94.5 41t93.5 11.5q195 0 308 -153l-115 -90q-44 48 -90 75t-107 27q-78 0 -132 -62t-54 -202q0 -131 49.5 -202.5t149.5 -71.5q57 0 100.5 21.5 t95.5 64.5l82 -111q-111 -115 -282 -115q-177 0 -268 109.5t-91 302.5z" />
<glyph unicode="&#xaa;" horiz-adv-x="847" d="M98 858q0 181 97.5 286t275.5 105q130 0 262 -49v-500q0 -23 9 -31t34 -10l35 -2v-116h-238v77h-8q-76 -94 -190 -94q-73 0 -128 27.5t-86.5 75t-47 105.5t-15.5 126zM287 879q0 -215 135 -215q53 0 88 30t35 62v336q-46 16 -94 16q-83 0 -123.5 -64t-40.5 -165z" />
<glyph unicode="&#xab;" horiz-adv-x="1085" d="M96 541q0 56 60 104l348 279l96 -93l-246 -292l232 -328l-97 -86l-356 330q-37 34 -37 86zM514 541q0 57 59 104l349 279l96 -93l-246 -292l232 -328l-97 -86l-356 330q-37 34 -37 86z" />
<glyph unicode="&#xac;" d="M106 645v199h879v-494h-197v295h-682z" />
<glyph unicode="&#xad;" horiz-adv-x="659" d="M86 500v190h485v-190h-485z" />
<glyph unicode="&#xae;" horiz-adv-x="948" d="M61 985q0 173 114.5 287t293.5 114q183 0 300.5 -113.5t117.5 -283.5q0 -177 -117 -290t-301 -113q-186 0 -297 111.5t-111 287.5zM170 985q0 -136 84 -221.5t215 -85.5q136 0 222.5 84.5t86.5 222.5q0 133 -87.5 220t-221.5 87q-135 0 -217 -86t-82 -221zM332 774v432 h155q68 0 106 -29t38 -87q0 -87 -70 -119q18 -8 27 -31l74 -166h-103l-63 144q-12 28 -33 28h-39v-172h-92zM424 1020h33q73 0 73 61q0 31 -18 41.5t-55 10.5h-33v-113z" />
<glyph unicode="&#xaf;" horiz-adv-x="1024" d="M213 1249v172h588v-172h-588z" />
<glyph unicode="&#xb0;" horiz-adv-x="610" d="M72 1221q0 104 65 172.5t168 68.5q107 0 170.5 -66.5t63.5 -162.5q0 -108 -66 -178t-174 -70q-105 0 -166 67t-61 169zM199 1221q0 -54 27.5 -87.5t78.5 -33.5t78 34t27 87q0 58 -26.5 91.5t-78.5 33.5q-54 0 -80 -33.5t-26 -91.5z" />
<glyph unicode="&#xb1;" d="M133 72v198h305v275h-305v200h305v320h209v-320h316v-200h-316v-275h316v-198h-830z" />
<glyph unicode="&#xb2;" horiz-adv-x="690" d="M47 1210v224q147 75 307 75q124 0 189 -56.5t65 -147.5q0 -69 -27 -122.5t-87 -123.5l-183 -207h324v-154h-563v119l254 295q33 40 47.5 59t28.5 48.5t14 56.5q0 41 -27 63.5t-70 22.5q-57 0 -88 -14q-20 -8 -24 -18t-4 -36v-92z" />
<glyph unicode="&#xb3;" horiz-adv-x="690" d="M49 752l47 133q43 -23 99 -38.5t102 -15.5q129 0 129 97q0 56 -40 81t-132 25h-66l13 135h133q78 47 78 113q0 84 -103 84q-43 0 -73 -10q-19 -6 -23 -14.5t-4 -30.5v-68l-143 10v195q126 61 274 61q120 0 185 -54t65 -142q0 -119 -117 -199q131 -41 131 -174 q0 -113 -76.5 -182.5t-222.5 -69.5q-71 0 -143.5 19.5t-112.5 44.5z" />
<glyph unicode="&#xb4;" horiz-adv-x="1024" d="M303 1217l238 393l96 -45q30 -14 44.5 -33.5t13 -41t-14 -43.5t-35.5 -44l-262 -254z" />
<glyph unicode="&#xb5;" horiz-adv-x="1196" d="M152 -442v1472h229v-592q0 -143 45 -219t154 -76q105 0 162 89.5t57 240.5v557h233v-819q0 -68 53 -68q25 0 80 25l29 -143q-89 -50 -186 -50q-79 0 -118 40.5t-44 125.5q-33 -76 -104.5 -123t-159.5 -47q-65 0 -121.5 26t-89.5 75v-514h-219z" />
<glyph unicode="&#xb6;" horiz-adv-x="1124" d="M104 881q0 128 38 223t106.5 150t155.5 81.5t194 26.5h465v-166l-68 -6q-29 -3 -44 -17.5t-15 -48.5v-958q0 -135 -21.5 -226t-78 -164t-154 -119t-248.5 -77l-51 201q180 43 248.5 120.5t68.5 225.5v1059h-147v-746q-74 2 -140 19.5t-123 52.5t-98 86t-64.5 123.5 t-23.5 159.5z" />
<glyph unicode="&#xb7;" horiz-adv-x="632" d="M174 629q0 61 38 100t101 39q68 0 107 -37.5t39 -99.5t-38 -102t-102 -40q-70 0 -107.5 38.5t-37.5 101.5z" />
<glyph unicode="&#xb8;" horiz-adv-x="1024" d="M272 -459l33 107q84 -27 137 -27q51 0 75 21t24 55q0 44 -45.5 61t-135.5 17l74 231h117l-35 -135q86 -6 138.5 -49.5t52.5 -118.5q0 -54 -22.5 -94t-60.5 -62t-80 -32.5t-87 -10.5q-98 0 -185 37z" />
<glyph unicode="&#xb9;" horiz-adv-x="647" d="M53 1352l256 145h150v-655l143 -6v-138h-477v136l121 8q19 2 26 8.5t7 23.5v435l-166 -74z" />
<glyph unicode="&#xba;" horiz-adv-x="831" d="M86 881q0 83 21.5 149t55 106.5t79 67t89.5 37t91 10.5q46 0 88.5 -9t86 -33.5t75 -62t51.5 -99t20 -140.5q0 -183 -92 -283t-245 -100q-151 0 -235.5 95t-84.5 262zM279 905q0 -107 29.5 -167t105.5 -60q137 0 137 207q0 108 -31.5 161.5t-107.5 53.5 q-68 0 -100.5 -53.5t-32.5 -141.5z" />
<glyph unicode="&#xbb;" horiz-adv-x="1085" d="M70 836l96 92l348 -279q59 -47 59 -104q0 -54 -41 -92l-352 -324l-96 86l231 324zM487 836l97 92l348 -279q59 -47 59 -104q0 -54 -41 -92l-352 -324l-96 86l231 324z" />
<glyph unicode="&#xbc;" horiz-adv-x="1689" d="M55 1188l256 145h150v-655l143 -6v-137h-477v135l121 8q19 2 26 9t7 24v434l-166 -74zM426 -12l664 1417l159 -68l-667 -1421zM967 231v119l229 475l141 -65l-188 -387h139l60 155h108v-155h125v-146h-125v-84l146 -6v-137h-478v135l121 8q19 1 26 8.5t7 24.5v55h-311z " />
<glyph unicode="&#xbd;" horiz-adv-x="1689" d="M59 1188l256 145h150v-655l143 -6v-137h-477v135l121 8q19 2 26 9t7 24v434l-166 -74zM412 -12l663 1417l160 -68l-668 -1421zM1018 512v223q149 76 307 76q124 0 189 -57t65 -148q0 -68 -27.5 -122t-87.5 -124l-182 -206h324v-154h-564v119l254 295q33 40 47.5 59 t28.5 48.5t14 56.5q0 41 -26.5 63.5t-69.5 22.5q-54 0 -88 -15q-20 -8 -24 -18t-4 -35v-92z" />
<glyph unicode="&#xbe;" horiz-adv-x="1689" d="M102 588l48 133q101 -53 200 -53q129 0 129 96q0 56 -40 81t-132 25h-65l12 136h133q78 47 78 112q0 84 -103 84q-43 0 -73 -10q-19 -6 -23 -14.5t-4 -30.5v-68l-143 11v194q128 62 274 62q119 0 184.5 -54.5t65.5 -142.5q0 -119 -117 -199q131 -41 131 -174 q0 -113 -76.5 -182.5t-222.5 -69.5q-71 0 -143.5 19.5t-112.5 44.5zM446 -12l664 1417l160 -68l-668 -1421zM989 231v119l230 475l141 -65l-189 -387h140l59 155h109v-155h125v-146h-125v-84l145 -6v-137h-477v135l121 8q19 1 25.5 8.5t6.5 24.5v55h-311z" />
<glyph unicode="&#xbf;" horiz-adv-x="886" d="M98 -88q0 55 12 102t29.5 80.5t49 68t58.5 57t70 54.5q62 44 84 72.5t25 85.5l10 225h197l10 -215q6 -111 -31 -176t-133 -137q-7 -5 -30.5 -22t-31 -23t-25 -22t-24 -27t-16 -29t-13 -38t-3.5 -44q0 -64 38 -96.5t103 -32.5q45 0 103 17q26 7 33.5 22.5t7.5 48.5v109 l208 -15v-280q-195 -94 -376 -94q-179 0 -267 83.5t-88 225.5zM393 922q0 58 37.5 98.5t99.5 40.5q67 0 105.5 -39t38.5 -98q0 -56 -39 -96t-98 -40q-66 0 -105 38t-39 96z" />
<glyph unicode="&#xc0;" horiz-adv-x="1355" d="M10 0v166l68 6q26 3 38 15t23 42l330 955l-129 12v166h469l418 -1182h2l117 -6v-174h-529v166l78 6q35 3 47 16t2 45l-43 127h-479l-62 -180l123 -6v-174h-473zM367 1704q-12 41 36 86l82 68l332 -322l-61 -84l-318 178q-59 33 -71 74zM471 549h381l-184 584h-6z" />
<glyph unicode="&#xc1;" horiz-adv-x="1355" d="M10 0v166l68 6q26 3 38 15t23 42l330 955l-129 12v166h469l418 -1182h2l117 -6v-174h-529v166l78 6q35 3 47 16t2 45l-43 127h-479l-62 -180l123 -6v-174h-473zM453 1536l331 322l82 -68q47 -43 35 -85.5t-70 -74.5l-317 -178zM471 549h381l-184 584h-6z" />
<glyph unicode="&#xc2;" horiz-adv-x="1355" d="M10 0v166l68 6q26 3 38 15t23 42l330 955l-129 12v166h469l418 -1182h2l117 -6v-174h-529v166l78 6q35 3 47 16t2 45l-43 127h-479l-62 -180l123 -6v-174h-473zM287 1520l241 262q42 45 85.5 45t82.5 -41l246 -264l-84 -72l-246 176l-241 -176zM471 549h381l-184 584h-6z " />
<glyph unicode="&#xc3;" horiz-adv-x="1355" d="M10 0v166l68 6q26 3 38 15t23 42l330 955l-129 12v166h469l418 -1182h2l117 -6v-174h-529v166l78 6q35 3 47 16t2 45l-43 127h-479l-62 -180l123 -6v-174h-473zM279 1563q73 161 208 161q49 0 143.5 -28.5t131.5 -28.5q50 0 90 66l111 -60q-35 -92 -86 -135t-125 -43 q-44 0 -134 27.5t-122 27.5q-41 0 -64 -11t-55 -48zM471 549h381l-184 584h-6z" />
<glyph unicode="&#xc4;" horiz-adv-x="1355" d="M10 0v166l68 6q26 3 38 15t23 42l330 955l-129 12v166h469l418 -1182h2l117 -6v-174h-529v166l78 6q35 3 47 16t2 45l-43 127h-479l-62 -180l123 -6v-174h-473zM274 1612q0 58 40 97.5t102 39.5t101.5 -39.5t39.5 -97.5q0 -59 -40 -97t-101 -38q-64 0 -103 38t-39 97z M471 549h381l-184 584h-6zM684 1612q0 58 39.5 97.5t101.5 39.5t102 -39.5t40 -97.5t-40 -96.5t-102 -38.5q-64 0 -102.5 38t-38.5 97z" />
<glyph unicode="&#xc5;" horiz-adv-x="1355" d="M10 0v166l68 6q26 3 38 15t23 42l330 955l-129 12v166h469l418 -1182h2l117 -6v-174h-529v166l78 6q35 3 47 16t2 45l-43 127h-479l-62 -180l123 -6v-174h-473zM430 1624q0 84 54.5 137.5t140.5 53.5q88 0 139 -52t51 -129q0 -89 -53.5 -144.5t-143.5 -55.5 q-88 0 -138 53.5t-50 136.5zM471 549h381l-184 584h-6zM551 1624q0 -38 19 -62t55 -24q35 0 54 24.5t19 61.5q0 84 -73 84q-74 0 -74 -84z" />
<glyph unicode="&#xc6;" horiz-adv-x="1748" d="M0 0v166l68 6q26 3 38 15t23 42l330 955l-129 12v166h1312v-340l-208 -14v82q0 34 -11 48.5t-49 14.5h-461l121 -350h510v-209h-473l135 -383h195q37 0 47 15t10 50v103l209 -14v-365h-860v166l78 6q35 3 47 16t2 45l-43 127h-479l-62 -180l123 -6v-174h-473zM461 549 h381l-185 584h-6z" />
<glyph unicode="&#xc7;" horiz-adv-x="1232" d="M82 674q0 155 37 279t98.5 203.5t145.5 132.5t173.5 75t188.5 22q206 0 385 -83v-349l-209 -14v160q0 31 -8 44.5t-35 22.5q-55 17 -133 17q-191 0 -289 -129t-98 -365q0 -253 92.5 -385.5t298.5 -128.5q88 0 150 19q27 9 35 22.5t8 44.5v164l208 -14v-355 q-80 -42 -188.5 -63t-214.5 -21l-27 -102q86 -6 138.5 -49.5t52.5 -118.5q0 -54 -22.5 -94t-60.5 -62t-80 -32.5t-87 -10.5q-97 0 -184 37l32 107q84 -27 138 -27q51 0 74.5 21t23.5 55q0 44 -45.5 61t-134.5 17l65 207q-259 29 -393.5 203.5t-134.5 488.5z" />
<glyph unicode="&#xc8;" horiz-adv-x="1124" d="M70 0v166l67 6q29 3 44.5 15.5t15.5 41.5v953l-117 6v174h938v-340l-209 -14v82q0 34 -10.5 48.5t-48.5 14.5h-304v-350h474v-209h-474v-383h330q37 0 47.5 15t10.5 50v103l208 -14v-365h-972zM320 1704q-12 41 36 86l82 68l332 -322l-61 -84l-318 178q-59 33 -71 74z " />
<glyph unicode="&#xc9;" horiz-adv-x="1124" d="M70 0v166l67 6q29 3 44.5 15.5t15.5 41.5v953l-117 6v174h938v-340l-209 -14v82q0 34 -10.5 48.5t-48.5 14.5h-304v-350h474v-209h-474v-383h330q37 0 47.5 15t10.5 50v103l208 -14v-365h-972zM377 1536l332 322l82 -68q47 -43 35 -85.5t-70 -74.5l-318 -178z" />
<glyph unicode="&#xca;" horiz-adv-x="1124" d="M70 0v166l67 6q29 3 44.5 15.5t15.5 41.5v953l-117 6v174h938v-340l-209 -14v82q0 34 -10.5 48.5t-48.5 14.5h-304v-350h474v-209h-474v-383h330q37 0 47.5 15t10.5 50v103l208 -14v-365h-972zM233 1520l242 262q42 45 85.5 45t82.5 -41l246 -264l-84 -72l-246 176 l-242 -176z" />
<glyph unicode="&#xcb;" horiz-adv-x="1124" d="M70 0v166l67 6q29 3 44.5 15.5t15.5 41.5v953l-117 6v174h938v-340l-209 -14v82q0 34 -10.5 48.5t-48.5 14.5h-304v-350h474v-209h-474v-383h330q37 0 47.5 15t10.5 50v103l208 -14v-365h-972zM219 1612q0 58 39.5 97.5t101.5 39.5t102 -39.5t40 -97.5t-40 -96.5 t-102 -38.5q-64 0 -102.5 38t-38.5 97zM629 1612q0 58 39.5 97.5t101.5 39.5t101.5 -39.5t39.5 -97.5q0 -59 -40 -97t-101 -38q-64 0 -102.5 38t-38.5 97z" />
<glyph unicode="&#xcc;" horiz-adv-x="628" d="M58 1704q-12 41 36 86l82 68l332 -322l-62 -84l-317 178q-59 33 -71 74zM66 0v166l67 6q31 3 45.5 17.5t14.5 50.5v942l-117 6v174h495v-166l-67 -6q-29 -3 -44.5 -17.5t-15.5 -48.5v-944l117 -6v-174h-495z" />
<glyph unicode="&#xcd;" horiz-adv-x="628" d="M66 0v166l67 6q31 3 45.5 17.5t14.5 50.5v942l-117 6v174h495v-166l-67 -6q-29 -3 -44.5 -17.5t-15.5 -48.5v-944l117 -6v-174h-495zM131 1536l332 322l82 -68q47 -43 35 -85.5t-70 -74.5l-317 -178z" />
<glyph unicode="&#xce;" horiz-adv-x="628" d="M-6 1520l242 262q84 90 167 4l246 -264l-84 -72l-246 176l-241 -176zM66 0v166l67 6q31 3 45.5 17.5t14.5 50.5v942l-117 6v174h495v-166l-67 -6q-29 -3 -44.5 -17.5t-15.5 -48.5v-944l117 -6v-174h-495z" />
<glyph unicode="&#xcf;" horiz-adv-x="628" d="M-20 1612q0 58 39.5 97.5t101.5 39.5t101.5 -39.5t39.5 -97.5q0 -59 -40 -97t-101 -38q-64 0 -102.5 38t-38.5 97zM66 0v166l67 6q31 3 45.5 17.5t14.5 50.5v942l-117 6v174h495v-166l-67 -6q-29 -3 -44.5 -17.5t-15.5 -48.5v-944l117 -6v-174h-495zM389 1612 q0 58 39.5 97.5t101.5 39.5t102 -39.5t40 -97.5t-40 -96.5t-102 -38.5q-64 0 -102.5 38t-38.5 97z" />
<glyph unicode="&#xd0;" horiz-adv-x="1390" d="M74 594v184h151v404l-116 6v174h561q301 0 470 -160t169 -473q0 -156 -34 -281.5t-92 -208t-139 -137t-171.5 -78.5t-192.5 -24h-582v166l68 6q29 3 44 15.5t15 41.5v365h-151zM475 197h209q175 0 274 126.5t99 368.5q0 108 -20.5 190.5t-56 135t-87.5 85.5t-109 46.5 t-127 13.5h-182v-385h346v-184h-346v-397z" />
<glyph unicode="&#xd1;" horiz-adv-x="1443" d="M66 0v166l73 6q27 2 40.5 14.5t13.5 42.5v953l-117 6v174h368l580 -940h4v760l-135 6v174h500v-166l-74 -6q-49 -3 -49 -64v-1126h-240l-592 954h-4v-774l133 -6v-174h-501zM356 1563q37 81 91.5 121t117.5 40q49 0 143.5 -28.5t131.5 -28.5q50 0 90 66l110 -60 q-35 -92 -86 -135t-125 -43q-44 0 -134 27.5t-122 27.5q-41 0 -63.5 -11t-54.5 -48z" />
<glyph unicode="&#xd2;" horiz-adv-x="1359" d="M82 678q0 152 37 274.5t97 202t141.5 133t166 76t174.5 22.5q94 0 177.5 -23t158 -76.5t128 -134t85 -201.5t31.5 -273q0 -343 -163 -524t-439 -181q-279 0 -436.5 180.5t-157.5 524.5zM338 688q0 -77 8 -143t31.5 -135.5t61 -118.5t102 -80t149.5 -31q75 0 134 28t96 74 t61 111t33.5 133t9.5 146q0 48 -3.5 94t-14 97t-26.5 95t-42.5 85t-60.5 70t-83 46t-108 17q-94 0 -164 -41t-109 -112.5t-57 -154.5t-18 -180zM459.5 1704q-11.5 41 36.5 86l82 68l331 -322l-61 -84l-318 178q-59 33 -70.5 74z" />
<glyph unicode="&#xd3;" horiz-adv-x="1359" d="M82 678q0 152 37 274.5t97 202t141.5 133t166 76t174.5 22.5q94 0 177.5 -23t158 -76.5t128 -134t85 -201.5t31.5 -273q0 -343 -163 -524t-439 -181q-279 0 -436.5 180.5t-157.5 524.5zM338 688q0 -77 8 -143t31.5 -135.5t61 -118.5t102 -80t149.5 -31q75 0 134 28t96 74 t61 111t33.5 133t9.5 146q0 48 -3.5 94t-14 97t-26.5 95t-42.5 85t-60.5 70t-83 46t-108 17q-94 0 -164 -41t-109 -112.5t-57 -154.5t-18 -180zM485 1536l332 322l82 -68q47 -43 35 -85.5t-70 -74.5l-317 -178z" />
<glyph unicode="&#xd4;" horiz-adv-x="1359" d="M82 678q0 152 37 274.5t97 202t141.5 133t166 76t174.5 22.5q94 0 177.5 -23t158 -76.5t128 -134t85 -201.5t31.5 -273q0 -343 -163 -524t-439 -181q-279 0 -436.5 180.5t-157.5 524.5zM338 688q0 -77 8 -143t31.5 -135.5t61 -118.5t102 -80t149.5 -31q75 0 134 28t96 74 t61 111t33.5 133t9.5 146q0 48 -3.5 94t-14 97t-26.5 95t-42.5 85t-60.5 70t-83 46t-108 17q-94 0 -164 -41t-109 -112.5t-57 -154.5t-18 -180zM367 1520l241 262q42 45 85.5 45t82.5 -41l246 -264l-84 -72l-246 176l-241 -176z" />
<glyph unicode="&#xd5;" horiz-adv-x="1359" d="M82 678q0 152 37 274.5t97 202t141.5 133t166 76t174.5 22.5q94 0 177.5 -23t158 -76.5t128 -134t85 -201.5t31.5 -273q0 -343 -163 -524t-439 -181q-279 0 -436.5 180.5t-157.5 524.5zM338 688q0 -77 8 -143t31.5 -135.5t61 -118.5t102 -80t149.5 -31q75 0 134 28t96 74 t61 111t33.5 133t9.5 146q0 48 -3.5 94t-14 97t-26.5 95t-42.5 85t-60.5 70t-83 46t-108 17q-94 0 -164 -41t-109 -112.5t-57 -154.5t-18 -180zM352 1563q37 81 91.5 121t117.5 40q49 0 143.5 -28.5t131.5 -28.5q50 0 90 66l110 -60q-35 -92 -86 -135t-125 -43 q-44 0 -134 27.5t-122 27.5q-41 0 -63.5 -11t-54.5 -48z" />
<glyph unicode="&#xd6;" horiz-adv-x="1359" d="M82 678q0 152 37 274.5t97 202t141.5 133t166 76t174.5 22.5q94 0 177.5 -23t158 -76.5t128 -134t85 -201.5t31.5 -273q0 -343 -163 -524t-439 -181q-279 0 -436.5 180.5t-157.5 524.5zM338 688q0 -77 8 -143t31.5 -135.5t61 -118.5t102 -80t149.5 -31q75 0 134 28t96 74 t61 111t33.5 133t9.5 146q0 48 -3.5 94t-14 97t-26.5 95t-42.5 85t-60.5 70t-83 46t-108 17q-94 0 -164 -41t-109 -112.5t-57 -154.5t-18 -180zM346 1612q0 58 39.5 97.5t101.5 39.5t102 -39.5t40 -97.5t-40 -96.5t-102 -38.5q-64 0 -102.5 38t-38.5 97zM756 1612 q0 58 39.5 97.5t101.5 39.5t101.5 -39.5t39.5 -97.5q0 -59 -40 -97t-101 -38q-64 0 -102.5 38t-38.5 97z" />
<glyph unicode="&#xd7;" d="M170 410l233 233l-233 234l147 147l234 -233l229 229l142 -141l-230 -232l232 -231l-148 -148l-231 232l-232 -232z" />
<glyph unicode="&#xd8;" horiz-adv-x="1359" d="M82 678q0 152 37 274.5t97 202t141.5 133t166 76t174.5 22.5q113 0 211 -34l90 186l183 -84l-101 -209q197 -184 197 -567q0 -343 -163 -524t-439 -181q-110 0 -219 33l-103 -211l-178 86l109 225q-203 181 -203 572zM338 688q0 -225 70 -352l393 819q-61 21 -115 21 q-94 0 -164 -41t-109 -112.5t-57 -154.5t-18 -180zM563 201q55 -21 127 -21q75 0 134 28t96 74t61 111t33.5 133t9.5 146q0 207 -70 342z" />
<glyph unicode="&#xd9;" horiz-adv-x="1349" d="M45 1188v174h496v-166l-68 -6q-32 -3 -46.5 -17.5t-14.5 -50.5v-680q0 -143 68 -201.5t200 -58.5q126 0 196 63.5t70 186.5v750l-119 6v174h486v-166l-68 -6q-59 -6 -59 -62v-731q0 -199 -139 -311.5t-375 -112.5q-256 0 -382 109.5t-126 347.5v752zM408 1704 q-12 41 36 86l82 68l332 -322l-61 -84l-318 178q-59 33 -71 74z" />
<glyph unicode="&#xda;" horiz-adv-x="1349" d="M45 1188v174h496v-166l-68 -6q-32 -3 -46.5 -17.5t-14.5 -50.5v-680q0 -143 68 -201.5t200 -58.5q126 0 196 63.5t70 186.5v750l-119 6v174h486v-166l-68 -6q-59 -6 -59 -62v-731q0 -199 -139 -311.5t-375 -112.5q-256 0 -382 109.5t-126 347.5v752zM498 1536l331 322 l82 -68q47 -43 35.5 -85.5t-69.5 -74.5l-318 -178z" />
<glyph unicode="&#xdb;" horiz-adv-x="1349" d="M45 1188v174h496v-166l-68 -6q-32 -3 -46.5 -17.5t-14.5 -50.5v-680q0 -143 68 -201.5t200 -58.5q126 0 196 63.5t70 186.5v750l-119 6v174h486v-166l-68 -6q-59 -6 -59 -62v-731q0 -199 -139 -311.5t-375 -112.5q-256 0 -382 109.5t-126 347.5v752zM344 1520l242 262 q42 45 85.5 45t82.5 -41l245 -264l-84 -72l-245 176l-242 -176z" />
<glyph unicode="&#xdc;" horiz-adv-x="1349" d="M45 1188v174h496v-166l-68 -6q-32 -3 -46.5 -17.5t-14.5 -50.5v-680q0 -143 68 -201.5t200 -58.5q126 0 196 63.5t70 186.5v750l-119 6v174h486v-166l-68 -6q-59 -6 -59 -62v-731q0 -199 -139 -311.5t-375 -112.5q-256 0 -382 109.5t-126 347.5v752zM346 1612 q0 58 39.5 97.5t101.5 39.5t102 -39.5t40 -97.5t-40 -96.5t-102 -38.5q-64 0 -102.5 38t-38.5 97zM756 1612q0 58 39.5 97.5t101.5 39.5t101.5 -39.5t39.5 -97.5q0 -59 -40 -97t-101 -38q-64 0 -102.5 38t-38.5 97z" />
<glyph unicode="&#xdd;" horiz-adv-x="1167" d="M10 1188v174h500v-166l-61 -6q-33 -3 -43 -25.5t8 -54.5l174 -356h8l223 426l-102 8v174h440v-166l-61 -6q-23 -3 -38.5 -17.5t-31.5 -44.5l-321 -608v-340l159 -6v-174h-577v166l108 6q31 2 45.5 14.5t14.5 42.5v291l-349 662zM391 1536l332 322l82 -68q47 -43 35 -85.5 t-70 -74.5l-317 -178z" />
<glyph unicode="&#xde;" horiz-adv-x="1208" d="M66 0v160l67 6q29 3 44.5 15.5t15.5 41.5v963l-127 8v168h567v-154l-131 -6q-60 -4 -60 -57v-35h220q229 0 357 -102t128 -295q0 -216 -145.5 -331.5t-385.5 -115.5h-174v-94l197 -6v-166h-573zM442 465h148q143 0 221 51.5t78 171.5q0 71 -21 116t-66 68t-98.5 31 t-136.5 8h-125v-446z" />
<glyph unicode="&#xdf;" horiz-adv-x="1280" d="M57 0v156l68 6q31 3 45 17t14 50v815q0 416 492 416q222 0 332 -83t110 -214q0 -58 -27.5 -110t-67 -88.5t-79 -69.5t-67 -68t-27.5 -69q0 -30 20.5 -56t53 -48t71.5 -45.5t78.5 -52.5t72 -63t53 -84t20.5 -110q0 -157 -104 -241.5t-265 -84.5q-187 0 -328 64v285l185 14 v-98q0 -33 6 -47.5t32 -24.5q41 -16 101 -16q58 2 94.5 36.5t36.5 98.5q0 39 -19.5 71.5t-50.5 56t-69 45.5t-76 46t-69 52t-50.5 69t-19.5 92q0 42 14.5 80t38 67.5t51.5 57t56 53t51.5 50.5t38 54.5t14.5 59.5q0 69 -59 103t-164 34q-236 0 -236 -219v-1057h-371z" />
<glyph unicode="&#xe0;" horiz-adv-x="1161" d="M82 471q0 278 135.5 434t405.5 156q64 0 164.5 -17.5t199.5 -54.5v-762q0 -33 10.5 -45t40.5 -14l66 -4v-164h-326v119l-6 2q-47 -69 -121.5 -108.5t-158.5 -39.5q-208 0 -309 133.5t-101 364.5zM332 479q0 -332 213 -332q91 0 148 54.5t57 124.5v530q-60 27 -158 27 q-71 0 -122.5 -31.5t-81 -88.5t-43 -127t-13.5 -157zM364.5 1490.5q-1.5 21.5 13 41t44.5 33.5l96 45l238 -393l-80 -68l-262 254q-23 22 -35.5 44t-14 43.5z" />
<glyph unicode="&#xe1;" horiz-adv-x="1161" d="M82 471q0 278 135.5 434t405.5 156q64 0 164.5 -17.5t199.5 -54.5v-762q0 -33 10.5 -45t40.5 -14l66 -4v-164h-326v119l-6 2q-47 -69 -121.5 -108.5t-158.5 -39.5q-208 0 -309 133.5t-101 364.5zM332 479q0 -332 213 -332q91 0 148 54.5t57 124.5v530q-60 27 -158 27 q-71 0 -122.5 -31.5t-81 -88.5t-43 -127t-13.5 -157zM438 1217l238 393l96 -45q30 -14 44.5 -33.5t13 -41t-14 -43.5t-35.5 -44l-262 -254z" />
<glyph unicode="&#xe2;" horiz-adv-x="1161" d="M82 471q0 278 135.5 434t405.5 156q64 0 164.5 -17.5t199.5 -54.5v-762q0 -33 10.5 -45t40.5 -14l66 -4v-164h-326v119l-6 2q-47 -69 -121.5 -108.5t-158.5 -39.5q-208 0 -309 133.5t-101 364.5zM272 1217l236 309q44 56 92.5 53.5t89.5 -57.5l232 -303l-84 -70l-242 213 l-240 -211zM332 479q0 -332 213 -332q91 0 148 54.5t57 124.5v530q-60 27 -158 27q-71 0 -122.5 -31.5t-81 -88.5t-43 -127t-13.5 -157z" />
<glyph unicode="&#xe3;" horiz-adv-x="1161" d="M82 471q0 278 135.5 434t405.5 156q64 0 164.5 -17.5t199.5 -54.5v-762q0 -33 10.5 -45t40.5 -14l66 -4v-164h-326v119l-6 2q-47 -69 -121.5 -108.5t-158.5 -39.5q-208 0 -309 133.5t-101 364.5zM260 1292q37 82 91.5 122t117.5 40q49 0 143 -28.5t131 -28.5q51 0 91 65 l110 -59q-35 -92 -86 -135t-125 -43q-44 0 -134 27.5t-122 27.5q-41 0 -64 -11t-55 -48zM332 479q0 -332 213 -332q91 0 148 54.5t57 124.5v530q-60 27 -158 27q-71 0 -122.5 -31.5t-81 -88.5t-43 -127t-13.5 -157z" />
<glyph unicode="&#xe4;" horiz-adv-x="1161" d="M82 471q0 278 135.5 434t405.5 156q64 0 164.5 -17.5t199.5 -54.5v-762q0 -33 10.5 -45t40.5 -14l66 -4v-164h-326v119l-6 2q-47 -69 -121.5 -108.5t-158.5 -39.5q-208 0 -309 133.5t-101 364.5zM248 1325q0 58 39.5 97.5t101.5 39.5t102 -39.5t40 -97.5t-40 -96.5 t-102 -38.5q-64 0 -102.5 38t-38.5 97zM332 479q0 -332 213 -332q91 0 148 54.5t57 124.5v530q-60 27 -158 27q-71 0 -122.5 -31.5t-81 -88.5t-43 -127t-13.5 -157zM658 1325q0 58 39.5 97.5t101.5 39.5t101.5 -39.5t39.5 -97.5q0 -59 -40 -97t-101 -38q-64 0 -102.5 38 t-38.5 97z" />
<glyph unicode="&#xe5;" horiz-adv-x="1161" d="M82 471q0 278 135.5 434t405.5 156q64 0 164.5 -17.5t199.5 -54.5v-762q0 -33 10.5 -45t40.5 -14l66 -4v-164h-326v119l-6 2q-47 -69 -121.5 -108.5t-158.5 -39.5q-208 0 -309 133.5t-101 364.5zM332 479q0 -332 213 -332q91 0 148 54.5t57 124.5v530q-60 27 -158 27 q-71 0 -122.5 -31.5t-81 -88.5t-43 -127t-13.5 -157zM393 1346q0 83 54.5 136.5t140.5 53.5q88 0 139 -51.5t51 -128.5q0 -89 -53 -145t-143 -56q-88 0 -138.5 54.5t-50.5 136.5zM514 1346q0 -38 19 -62t55 -24q35 0 54.5 24.5t19.5 61.5q0 84 -74 84t-74 -84z" />
<glyph unicode="&#xe6;" horiz-adv-x="1566" d="M82 477q0 273 137 428.5t393 155.5q65 0 145.5 -18.5t147.5 -51.5q109 70 254 70q153 0 242.5 -75t89.5 -210q0 -76 -25.5 -136.5t-72 -99.5t-101.5 -66t-125 -41.5t-131 -20t-129 -6.5q6 -113 70 -178.5t184 -65.5q122 0 256 92l78 -166q-46 -40 -143 -77.5t-226 -37.5 q-212 0 -323 111q-136 -111 -303 -111q-92 0 -164 26t-119.5 71.5t-78 110.5t-43.5 137.5t-13 158.5zM332 500q0 -176 50 -264.5t169 -88.5q88 0 154 66q-54 114 -54 281q0 96 29 192.5t76 165.5q-77 31 -168 31q-87 0 -146.5 -54.5t-84.5 -138.5t-25 -190zM899 575 q48 -1 105 7.5t119 28.5t102.5 61t40.5 96q0 56 -32.5 87.5t-88.5 31.5q-78 0 -134.5 -47.5t-82.5 -116t-29 -148.5z" />
<glyph unicode="&#xe7;" horiz-adv-x="964" d="M68 502q0 120 28.5 217t76 160t111.5 105t131.5 59.5t139.5 17.5q164 0 319 -84v-266l-188 -15v99q0 31 -8.5 45.5t-34.5 23.5q-41 13 -80 13q-122 0 -185 -90t-63 -261q0 -173 66 -269.5t199 -96.5q114 0 235 88l88 -158q-132 -109 -321 -117l-25 -102 q86 -6 138.5 -49.5t52.5 -118.5q0 -54 -22.5 -94t-60.5 -62t-80 -32.5t-87 -10.5q-98 0 -185 37l33 107q84 -27 137 -27q51 0 75 21t24 55q0 44 -45.5 61t-135.5 17l64 202q-190 23 -293.5 158.5t-103.5 366.5z" />
<glyph unicode="&#xe8;" horiz-adv-x="991" d="M76 492q0 115 32.5 217t94 181t159.5 125t220 46q153 0 243 -75t90 -210q0 -65 -20 -119t-53 -91.5t-80.5 -66.5t-98 -46t-110.5 -28t-112 -15t-109 -4q7 -108 68 -175t184 -67q132 0 258 90l78 -166q-41 -36 -138.5 -75.5t-222.5 -39.5q-128 0 -222 37.5t-150.5 108 t-83.5 163.5t-27 210zM296.5 1490.5q-1.5 21.5 13 41t44.5 33.5l96 45l238 -393l-80 -68l-262 254q-23 22 -35.5 44t-14 43.5zM324 578q65 1 122.5 9.5t116 28.5t93 60t34.5 96t-33 85.5t-90 29.5q-78 0 -133.5 -46.5t-81 -114t-28.5 -148.5z" />
<glyph unicode="&#xe9;" horiz-adv-x="991" d="M76 492q0 115 32.5 217t94 181t159.5 125t220 46q153 0 243 -75t90 -210q0 -65 -20 -119t-53 -91.5t-80.5 -66.5t-98 -46t-110.5 -28t-112 -15t-109 -4q7 -108 68 -175t184 -67q132 0 258 90l78 -166q-41 -36 -138.5 -75.5t-222.5 -39.5q-128 0 -222 37.5t-150.5 108 t-83.5 163.5t-27 210zM324 578q65 1 122.5 9.5t116 28.5t93 60t34.5 96t-33 85.5t-90 29.5q-78 0 -133.5 -46.5t-81 -114t-28.5 -148.5zM354 1217l238 393l96 -45q30 -14 44.5 -33.5t13 -41t-14 -43.5t-35.5 -44l-262 -254z" />
<glyph unicode="&#xea;" horiz-adv-x="991" d="M76 492q0 115 32.5 217t94 181t159.5 125t220 46q153 0 243 -75t90 -210q0 -65 -20 -119t-53 -91.5t-80.5 -66.5t-98 -46t-110.5 -28t-112 -15t-109 -4q7 -108 68 -175t184 -67q132 0 258 90l78 -166q-41 -36 -138.5 -75.5t-222.5 -39.5q-128 0 -222 37.5t-150.5 108 t-83.5 163.5t-27 210zM213 1217l236 309q44 56 92.5 53.5t89.5 -57.5l232 -303l-84 -70l-242 213l-240 -211zM324 578q65 1 122.5 9.5t116 28.5t93 60t34.5 96t-33 85.5t-90 29.5q-78 0 -133.5 -46.5t-81 -114t-28.5 -148.5z" />
<glyph unicode="&#xeb;" horiz-adv-x="991" d="M76 492q0 -117 27 -210t83.5 -163.5t150.5 -108t222 -37.5q125 0 222.5 39.5t138.5 75.5l-78 166q-126 -90 -258 -90q-123 0 -184 67t-68 175q57 0 109 4t112 15t110.5 28t98 46t80.5 66.5t53 91.5t20 119q0 135 -90 210t-243 75q-122 0 -220 -46t-159.5 -125t-94 -181 t-32.5 -217zM186 1325q0 58 40 97.5t102 39.5t101.5 -39.5t39.5 -97.5q0 -59 -40 -97t-101 -38q-64 0 -103 38t-39 97zM324 578q3 81 28.5 148.5t81 114t133.5 46.5q57 0 90 -29.5t33 -85.5t-34.5 -96t-93 -60t-116 -28.5t-122.5 -9.5zM596 1325q0 58 39.5 97.5t101.5 39.5 t102 -39.5t40 -97.5t-40 -96.5t-102 -38.5q-64 0 -102.5 38t-38.5 97z" />
<glyph unicode="&#xec;" horiz-adv-x="606" d="M42.5 1490.5q-1.5 21.5 13 41t44.5 33.5l96 45l238 -393l-80 -68l-262 254q-23 22 -35.5 44t-14 43.5zM68 0v156l67 6q31 3 45.5 17t14.5 48v570q0 34 -11.5 46.5t-40.5 12.5l-71 4v170h366v-860l117 -6v-164h-487z" />
<glyph unicode="&#xed;" horiz-adv-x="606" d="M68 0v156l67 6q31 3 45.5 17t14.5 48v570q0 34 -11.5 46.5t-40.5 12.5l-71 4v170h366v-860l117 -6v-164h-487zM168 1217l238 393l96 -45q30 -14 44.5 -33.5t13 -41t-14 -43.5t-35.5 -44l-262 -254z" />
<glyph unicode="&#xee;" horiz-adv-x="606" d="M-68 1217l236 309q44 56 92.5 53.5t89.5 -57.5l232 -303l-84 -70l-242 213l-240 -211zM68 0v156l67 6q31 3 45.5 17t14.5 48v570q0 34 -11.5 46.5t-40.5 12.5l-71 4v170h366v-860l117 -6v-164h-487z" />
<glyph unicode="&#xef;" horiz-adv-x="606" d="M-90 1325q0 58 39.5 97.5t101.5 39.5t102 -39.5t40 -97.5t-40 -96.5t-102 -38.5q-64 0 -102.5 38t-38.5 97zM68 0v156l67 6q31 3 45.5 17t14.5 48v570q0 34 -11.5 46.5t-40.5 12.5l-71 4v170h366v-860l117 -6v-164h-487zM319 1325q0 58 40 97.5t102 39.5t101.5 -39.5 t39.5 -97.5q0 -59 -40 -97t-101 -38q-64 0 -103 38t-39 97z" />
<glyph unicode="&#xf0;" horiz-adv-x="1048" d="M61 428q0 212 112 347.5t304 135.5q135 0 234 -65q-40 146 -127 248l-170 -117l-95 133l136 92q-90 55 -205 76l49 190q205 -26 350 -133l172 117l92 -133l-137 -96q203 -253 203 -658q0 -129 -26.5 -233.5t-82 -187t-150.5 -128t-222 -45.5q-114 0 -199 34.5t-136.5 97 t-76.5 144t-25 181.5zM313 436q0 -130 50 -200t145 -70q110 0 164.5 101.5t54.5 267.5q0 83 -2 112q-37 31 -97.5 53.5t-115.5 22.5q-99 0 -149 -74.5t-50 -212.5z" />
<glyph unicode="&#xf1;" horiz-adv-x="1228" d="M55 866v164h346v-133q54 77 142.5 120.5t189.5 43.5q157 0 241.5 -89t84.5 -267v-535l117 -6v-164h-488v156l68 6q31 3 45 17t14 50v422q0 111 -35 166t-133 55q-97 0 -154 -61t-57 -145v-496l117 -6v-164h-487v156l67 6q32 3 46 17t14 50v568q0 33 -12 47t-40 16z M264 1292q37 82 91.5 122t117.5 40q49 0 143 -28.5t131 -28.5q51 0 91 65l110 -59q-35 -92 -86 -135t-125 -43q-44 0 -134 27.5t-122 27.5q-41 0 -64 -11t-55 -48z" />
<glyph unicode="&#xf2;" horiz-adv-x="1081" d="M68 516q0 123 31 220t79.5 156.5t114.5 99t130 54.5t132 15q38 0 73.5 -3.5t83 -17t87.5 -35t80.5 -61t69 -92.5t46 -132.5t17.5 -176.5q0 -143 -38.5 -254.5t-106 -180.5t-155 -104t-190.5 -35q-212 0 -333 138t-121 409zM313.5 1490.5q-1.5 21.5 13 41t44.5 33.5l96 45 l238 -393l-80 -68l-262 254q-23 22 -35.5 44t-14 43.5zM315 545q0 -53 3 -96t11 -90.5t24 -83t40 -65t61 -45t85 -15.5q115 0 169 95.5t54 264.5q0 182 -50.5 276.5t-168.5 94.5q-116 0 -172 -90t-56 -246z" />
<glyph unicode="&#xf3;" horiz-adv-x="1081" d="M68 516q0 123 31 220t79.5 156.5t114.5 99t130 54.5t132 15q38 0 73.5 -3.5t83 -17t87.5 -35t80.5 -61t69 -92.5t46 -132.5t17.5 -176.5q0 -143 -38.5 -254.5t-106 -180.5t-155 -104t-190.5 -35q-212 0 -333 138t-121 409zM315 545q0 -53 3 -96t11 -90.5t24 -83t40 -65 t61 -45t85 -15.5q115 0 169 95.5t54 264.5q0 182 -50.5 276.5t-168.5 94.5q-116 0 -172 -90t-56 -246zM381 1217l237 393l97 -45q30 -14 44.5 -33.5t13 -41t-14 -43.5t-35.5 -44l-262 -254z" />
<glyph unicode="&#xf4;" horiz-adv-x="1081" d="M68 516q0 123 31 220t79.5 156.5t114.5 99t130 54.5t132 15q38 0 73.5 -3.5t83 -17t87.5 -35t80.5 -61t69 -92.5t46 -132.5t17.5 -176.5q0 -143 -38.5 -254.5t-106 -180.5t-155 -104t-190.5 -35q-212 0 -333 138t-121 409zM211 1217l236 309q44 56 92.5 53.5t89.5 -57.5 l232 -303l-84 -70l-242 213l-240 -211zM315 545q0 -53 3 -96t11 -90.5t24 -83t40 -65t61 -45t85 -15.5q115 0 169 95.5t54 264.5q0 182 -50.5 276.5t-168.5 94.5q-116 0 -172 -90t-56 -246z" />
<glyph unicode="&#xf5;" horiz-adv-x="1081" d="M68 516q0 123 31 220t79.5 156.5t114.5 99t130 54.5t132 15q38 0 73.5 -3.5t83 -17t87.5 -35t80.5 -61t69 -92.5t46 -132.5t17.5 -176.5q0 -143 -38.5 -254.5t-106 -180.5t-155 -104t-190.5 -35q-212 0 -333 138t-121 409zM203 1292q37 82 91.5 122t117.5 40 q49 0 143 -28.5t131 -28.5q50 0 90 65l111 -59q-35 -92 -86 -135t-125 -43q-44 0 -134 27.5t-122 27.5q-41 0 -64 -11t-55 -48zM315 545q0 -53 3 -96t11 -90.5t24 -83t40 -65t61 -45t85 -15.5q115 0 169 95.5t54 264.5q0 182 -50.5 276.5t-168.5 94.5q-116 0 -172 -90 t-56 -246z" />
<glyph unicode="&#xf6;" horiz-adv-x="1081" d="M68 516q0 123 31 220t79.5 156.5t114.5 99t130 54.5t132 15q38 0 73.5 -3.5t83 -17t87.5 -35t80.5 -61t69 -92.5t46 -132.5t17.5 -176.5q0 -143 -38.5 -254.5t-106 -180.5t-155 -104t-190.5 -35q-212 0 -333 138t-121 409zM188 1325q0 58 39.5 97.5t101.5 39.5t102 -39.5 t40 -97.5t-40 -96.5t-102 -38.5q-64 0 -102.5 38t-38.5 97zM315 545q0 -53 3 -96t11 -90.5t24 -83t40 -65t61 -45t85 -15.5q115 0 169 95.5t54 264.5q0 182 -50.5 276.5t-168.5 94.5q-116 0 -172 -90t-56 -246zM598 1325q0 58 39.5 97.5t101.5 39.5t101.5 -39.5t39.5 -97.5 q0 -59 -40 -97t-101 -38q-64 0 -102.5 38t-38.5 97z" />
<glyph unicode="&#xf7;" d="M133 545v196h830v-196h-830zM418 262q0 58 35.5 97.5t95.5 39.5q62 0 98.5 -37t36.5 -98t-37 -101t-96 -40q-63 0 -98 37.5t-35 101.5zM418 1034q0 58 35.5 97.5t95.5 39.5q62 0 98.5 -37t36.5 -98t-37 -101t-96 -40q-63 0 -98 37.5t-35 101.5z" />
<glyph unicode="&#xf8;" horiz-adv-x="1081" d="M72 516q0 123 31 220t79.5 156.5t114.5 99t130 54.5t132 15q87 0 162 -23l78 156l149 -72l-82 -164q150 -132 150 -415q0 -143 -38.5 -254.5t-106 -180.5t-155 -104t-190.5 -35q-87 0 -164 25l-81 -166l-148 74l86 176q-147 141 -147 438zM319 545q0 -147 25 -234 l283 555q-34 15 -80 15q-116 0 -172 -90t-56 -246zM455 166q40 -16 88 -16q115 0 169 95.5t54 264.5q0 128 -27 213z" />
<glyph unicode="&#xf9;" horiz-adv-x="1210" d="M55 862v168h361v-649q0 -108 30.5 -163.5t120.5 -55.5q102 0 160.5 59.5t58.5 143.5v432q0 34 -11 46.5t-40 14.5l-65 4v168h360v-803q0 -33 10.5 -44.5t40.5 -14.5l72 -6v-162h-332v133q-54 -76 -142 -118t-190 -42q-317 0 -317 355v473q0 31 -12 43t-39 14z M325.5 1490.5q-1.5 21.5 13 41t44.5 33.5l96 45l238 -393l-80 -68l-262 254q-23 22 -35.5 44t-14 43.5z" />
<glyph unicode="&#xfa;" horiz-adv-x="1210" d="M55 862v168h361v-649q0 -108 30.5 -163.5t120.5 -55.5q102 0 160.5 59.5t58.5 143.5v432q0 34 -11 46.5t-40 14.5l-65 4v168h360v-803q0 -33 10.5 -44.5t40.5 -14.5l72 -6v-162h-332v133q-54 -76 -142 -118t-190 -42q-317 0 -317 355v473q0 31 -12 43t-39 14zM418 1217 l237 393l97 -45q30 -14 44.5 -33.5t13 -41t-14 -43.5t-35.5 -44l-262 -254z" />
<glyph unicode="&#xfb;" horiz-adv-x="1210" d="M55 862v168h361v-649q0 -108 30.5 -163.5t120.5 -55.5q102 0 160.5 59.5t58.5 143.5v432q0 34 -11 46.5t-40 14.5l-65 4v168h360v-803q0 -33 10.5 -44.5t40.5 -14.5l72 -6v-162h-332v133q-54 -76 -142 -118t-190 -42q-317 0 -317 355v473q0 31 -12 43t-39 14zM237 1217 l236 309q44 56 92.5 53.5t89.5 -57.5l232 -303l-84 -70l-242 213l-240 -211z" />
<glyph unicode="&#xfc;" horiz-adv-x="1210" d="M55 862v168h361v-649q0 -108 30.5 -163.5t120.5 -55.5q102 0 160.5 59.5t58.5 143.5v432q0 34 -11 46.5t-40 14.5l-65 4v168h360v-803q0 -33 10.5 -44.5t40.5 -14.5l72 -6v-162h-332v133q-54 -76 -142 -118t-190 -42q-317 0 -317 355v473q0 31 -12 43t-39 14zM221 1325 q0 58 39.5 97.5t101.5 39.5t102 -39.5t40 -97.5t-40 -96.5t-102 -38.5q-64 0 -102.5 38t-38.5 97zM631 1325q0 58 39.5 97.5t101.5 39.5t101.5 -39.5t39.5 -97.5q0 -59 -40 -97t-101 -38q-64 0 -102.5 38t-38.5 97z" />
<glyph unicode="&#xfd;" horiz-adv-x="1173" d="M55 862v168h361v-588q0 -108 30.5 -163.5t120.5 -55.5q102 0 160.5 59.5t58.5 143.5v371q0 34 -11 47.5t-40 13.5l-65 4v168h360v-991q0 -248 -120 -362.5t-355 -114.5q-103 0 -213 18t-172 49v285l195 16v-98q0 -30 10 -47t37 -27q56 -20 145 -20q264 0 264 301v156 q-54 -76 -142 -118t-190 -42q-317 0 -317 354v412q0 31 -12 43t-39 14zM420 1217l238 393l96 -45q30 -14 44.5 -33.5t13 -41t-14 -43.5t-35.5 -44l-262 -254z" />
<glyph unicode="&#xfe;" horiz-adv-x="1163" d="M55 -268l68 6q31 3 45 17t14 50v1432q0 26 -12 36.5t-39 12.5l-72 4v170h359v-485q43 40 109.5 63t138.5 23q191 0 304 -132t113 -364q0 -282 -117.5 -439t-328.5 -157q-58 0 -117.5 17t-101.5 43v-283l166 -8v-162h-529v156zM418 215q77 -51 180 -51q122 0 177.5 101.5 t55.5 266.5q0 52 -5.5 97.5t-20.5 93t-40 81t-66.5 54.5t-96.5 21q-73 0 -128.5 -43.5t-55.5 -110.5v-510z" />
<glyph unicode="&#xff;" horiz-adv-x="1173" d="M55 862v168h361v-588q0 -108 30.5 -163.5t120.5 -55.5q102 0 160.5 59.5t58.5 143.5v371q0 34 -11 47.5t-40 13.5l-65 4v168h360v-991q0 -248 -120 -362.5t-355 -114.5q-103 0 -213 18t-172 49v285l195 16v-98q0 -30 10 -47t37 -27q56 -20 145 -20q264 0 264 301v156 q-54 -76 -142 -118t-190 -42q-317 0 -317 354v412q0 31 -12 43t-39 14zM207 1325q0 58 39.5 97.5t101.5 39.5t101.5 -39.5t39.5 -97.5q0 -59 -40 -97t-101 -38q-64 0 -102.5 38t-38.5 97zM616 1325q0 58 40 97.5t102 39.5t101.5 -39.5t39.5 -97.5q0 -59 -40 -97t-101 -38 q-64 0 -103 38t-39 97z" />
<glyph unicode="&#x152;" horiz-adv-x="1814" d="M82 680q0 152 37 274t97.5 201.5t142.5 132.5t168.5 75.5t179.5 22.5q94 0 202 -24h799v-340l-209 -14v82q0 34 -10.5 48.5t-48.5 14.5h-303v-350h473v-209h-473v-383h329q37 0 47.5 15t10.5 50v103l209 -14v-365h-824q-115 -27 -229 -27q-285 0 -441.5 180.5 t-156.5 526.5zM338 690q0 -78 9.5 -146t35 -136.5t66 -117.5t107.5 -79.5t155 -30.5q103 0 176 31v926q-96 41 -180 41q-78 0 -141 -27.5t-105 -74t-70 -109.5t-40.5 -132t-12.5 -145z" />
<glyph unicode="&#x153;" horiz-adv-x="1652" d="M68 514q0 123 30.5 220.5t78 157.5t112 99.5t127.5 54.5t129 15q245 0 336 -187q118 187 362 187q153 0 243.5 -75t90.5 -210q0 -76 -26 -136.5t-72.5 -100t-103 -67t-125 -41.5t-130 -20t-127.5 -5q6 -110 68.5 -177t185.5 -67q127 0 256 92l78 -166q-41 -36 -138 -75.5 t-222 -39.5q-263 0 -365 174q-52 -90 -141 -133t-201 -43q-207 0 -326.5 136.5t-119.5 406.5zM315 543q0 -63 4.5 -114.5t19 -105.5t38 -90t65 -59.5t97.5 -23.5q113 0 168 96t55 264q0 180 -50.5 275.5t-168.5 95.5q-115 0 -171.5 -90.5t-56.5 -247.5zM985 575 q49 -1 105.5 7.5t118.5 27.5t102.5 60t40.5 96q0 56 -33.5 88.5t-89.5 32.5q-77 0 -133 -47.5t-82 -116t-29 -148.5z" />
<glyph unicode="&#x178;" horiz-adv-x="1167" d="M10 1188v174h500v-166l-61 -6q-33 -3 -43 -25.5t8 -54.5l174 -356h8l223 426l-102 8v174h440v-166l-61 -6q-23 -3 -38.5 -17.5t-31.5 -44.5l-321 -608v-340l159 -6v-174h-577v166l108 6q31 2 45.5 14.5t14.5 42.5v291l-349 662zM262 1612q0 58 39.5 97.5t101.5 39.5 t102 -39.5t40 -97.5t-40 -96.5t-102 -38.5q-64 0 -102.5 38t-38.5 97zM672 1612q0 58 39.5 97.5t101.5 39.5t101.5 -39.5t39.5 -97.5q0 -59 -40 -97t-101 -38q-64 0 -102.5 38t-38.5 97z" />
<glyph unicode="&#x2c6;" horiz-adv-x="1024" d="M184 1217l236 309q44 56 92.5 53.5t89.5 -57.5l232 -303l-84 -70l-242 213l-240 -211z" />
<glyph unicode="&#x2dc;" horiz-adv-x="1024" d="M174 1292q37 82 91.5 122t117.5 40q49 0 143 -28.5t131 -28.5q51 0 91 65l110 -59q-35 -92 -86 -135t-125 -43q-44 0 -134 27.5t-122 27.5q-41 0 -64 -11t-55 -48z" />
<glyph unicode="&#x2000;" horiz-adv-x="929" />
<glyph unicode="&#x2001;" horiz-adv-x="1858" />
<glyph unicode="&#x2002;" horiz-adv-x="929" />
<glyph unicode="&#x2003;" horiz-adv-x="1858" />
<glyph unicode="&#x2004;" horiz-adv-x="619" />
<glyph unicode="&#x2005;" horiz-adv-x="464" />
<glyph unicode="&#x2006;" horiz-adv-x="309" />
<glyph unicode="&#x2007;" horiz-adv-x="309" />
<glyph unicode="&#x2008;" horiz-adv-x="232" />
<glyph unicode="&#x2009;" horiz-adv-x="371" />
<glyph unicode="&#x200a;" horiz-adv-x="103" />
<glyph unicode="&#x2010;" horiz-adv-x="659" d="M61 496v188h537v-188h-537z" />
<glyph unicode="&#x2011;" horiz-adv-x="659" d="M61 496v188h537v-188h-537z" />
<glyph unicode="&#x2012;" horiz-adv-x="659" d="M61 496v188h537v-188h-537z" />
<glyph unicode="&#x2013;" horiz-adv-x="1024" d="M0 500v170h1024v-170h-1024z" />
<glyph unicode="&#x2014;" horiz-adv-x="2048" d="M0 500v170h2048v-170h-2048z" />
<glyph unicode="&#x2018;" horiz-adv-x="450" d="M63 1085q0 39 23 80l195 338l129 -47l-119 -483q-126 13 -189 47q-39 20 -39 65z" />
<glyph unicode="&#x2019;" horiz-adv-x="434" d="M63 1020l119 483q126 -13 189 -47q39 -20 39 -65q0 -39 -23 -80l-194 -338z" />
<glyph unicode="&#x201a;" horiz-adv-x="464" d="M55 -262l62 389q8 47 33.5 74.5t66.5 27.5q9 0 18 -1t19.5 -4l17.5 -5t19 -8t18.5 -9t20 -11t19 -11.5t22 -13.5t22.5 -14l-209 -453z" />
<glyph unicode="&#x201c;" horiz-adv-x="790" d="M63 1085q0 39 23 80l195 338l129 -47l-119 -483q-126 13 -189 47q-39 20 -39 65zM403 1085q0 39 23 80l195 338l129 -47l-119 -483q-126 13 -189 47q-39 20 -39 65z" />
<glyph unicode="&#x201d;" horiz-adv-x="774" d="M63 1020l119 483q126 -13 189 -47q39 -20 39 -65q0 -39 -23 -80l-194 -338zM403 1020l119 483q126 -13 189 -47q39 -20 39 -65q0 -39 -23 -80l-195 -338z" />
<glyph unicode="&#x201e;" horiz-adv-x="804" d="M55 -262l62 389q8 47 33.5 74.5t66.5 27.5q9 0 18 -1t19.5 -4l17.5 -5t19 -8t18.5 -9t20 -11t19 -11.5t22 -13.5t22.5 -14l-209 -453zM395 -262l62 389q8 47 33.5 74.5t66.5 27.5q9 0 18 -1t19.5 -4l17.5 -5t19 -8t18.5 -9t20 -11t19 -11.5t22 -13.5t22.5 -14l-209 -453z " />
<glyph unicode="&#x2022;" horiz-adv-x="1024" d="M274 635q0 113 67 182.5t171 69.5t171 -69.5t67 -182.5q0 -114 -67 -184t-171 -70t-171 69.5t-67 184.5z" />
<glyph unicode="&#x2026;" horiz-adv-x="1488" d="M74 115q0 64 39.5 105.5t105.5 41.5q72 0 113 -39.5t41 -105.5q0 -64 -39.5 -106t-106.5 -42q-74 0 -113.5 39.5t-39.5 106.5zM602 115q0 64 40 105.5t106 41.5q72 0 112.5 -39.5t40.5 -105.5q0 -64 -39 -106t-106 -42q-74 0 -114 39.5t-40 106.5zM1114 115 q0 64 40 105.5t106 41.5q72 0 112.5 -39.5t40.5 -105.5q0 -64 -39 -106t-106 -42q-74 0 -114 39.5t-40 106.5z" />
<glyph unicode="&#x202f;" horiz-adv-x="371" />
<glyph unicode="&#x2039;" horiz-adv-x="667" d="M96 541q0 56 60 104l348 279l96 -93l-246 -292l232 -328l-97 -86l-356 330q-37 34 -37 86z" />
<glyph unicode="&#x203a;" horiz-adv-x="667" d="M70 836l96 92l348 -279q59 -47 59 -104q0 -54 -41 -92l-352 -324l-96 86l231 324z" />
<glyph unicode="&#x205f;" horiz-adv-x="464" />
<glyph unicode="&#x20ac;" horiz-adv-x="1148" d="M82 422v168h829v-168h-430q25 -120 89 -180t180 -60q132 0 247 97l117 -164q-76 -69 -177.5 -104.5t-211.5 -35.5q-421 0 -498 447h-145zM82 707v167h145q12 118 58.5 210t117.5 148t158.5 85t186.5 29q87 0 184.5 -24t165.5 -60v-287l-209 -14v96q0 30 -8 43.5t-35 23.5 q-49 19 -111 19q-112 0 -179.5 -76t-78.5 -193h434v-167h-829z" />
<glyph unicode="&#x2122;" horiz-adv-x="1595" d="M80 1165v197h579v-197l-114 -8v41q0 18 -5.5 25.5t-25.5 7.5h-61v-445l82 -6v-106h-330v104l55 2q29 6 29 29v422h-70q-16 0 -20 -8t-4 -25v-41zM690 674v104l37 4q27 0 27 29l20 428l-63 4v119h264l155 -410h3l155 410h238v-115l-33 -2q-12 -2 -18 -5t-10.5 -10.5 t-4.5 -21.5l27 -422l65 -4v-108h-272v104l37 4q29 0 29 27l-19 332h-4l-152 -400h-106l-160 402h-2l-20 -357l67 -4v-108h-260z" />
<glyph unicode="&#x25fc;" horiz-adv-x="1034" d="M0 0v1034h1034v-1034h-1034z" />
<glyph unicode="&#xfb01;" horiz-adv-x="1202" d="M20 858v172h177v78q0 55 8.5 102.5t34 99t66.5 88t112.5 60t165.5 23.5q96 0 196.5 -28t161.5 -62l-63 -166q-135 71 -265 71q-91 0 -132.5 -42t-41.5 -128v-96h586v-860l117 -6v-164h-488v156l68 6q30 3 44.5 16.5t14.5 48.5v570q0 31 -11 46t-42 15h-289v-686l131 -8 v-164h-501v156l67 6q32 3 46 17t14 50v629h-177z" />
<glyph unicode="&#xfb02;" horiz-adv-x="1200" d="M20 858v172h177v78q0 55 8 102.5t32 99t63 88t106 60t155 23.5q146 0 268 -64l121 43h74v-1290l117 -6v-164h-488v156l68 6q30 3 44.5 16.5t14.5 48.5v631h-340v-686l131 -8v-164h-501v156l67 6q32 3 46 17t14 50v629h-177zM440 1030h340v217q-82 49 -180 49 q-84 0 -122 -40t-38 -119v-107z" />
<glyph unicode="&#xfb03;" horiz-adv-x="1779" d="M20 858v172h177v78q0 57 6 102.5t27 98.5t57 88.5t101 59.5t153 24q114 0 207 -35l-50 -170q-68 20 -116 20q-75 0 -108.5 -41.5t-33.5 -128.5v-96h342v78q0 55 8.5 102.5t34 99t66.5 88t112.5 60t165.5 23.5q96 0 197 -28t162 -62l-64 -166q-135 71 -264 71 q-91 0 -132.5 -42t-41.5 -128v-96h586v-860l117 -6v-164h-488v156l68 6q30 3 44.5 16.5t14.5 48.5v570q0 31 -11 46t-42 15h-289v-686l131 -8v-164h-502v156l68 6q31 3 45 17t14 50v629h-342v-686l131 -8v-164h-501v156l67 6q32 3 46 17t14 50v629h-177z" />
<glyph unicode="&#xfb04;" horiz-adv-x="1785" d="M20 858v172h177v78q0 57 6 102.5t27 98.5t57 88.5t101 59.5t153 24q114 0 207 -35l-50 -170q-68 20 -116 20q-75 0 -108.5 -41.5t-33.5 -128.5v-96h342v78q0 54 8 102t32.5 99.5t63 88t106 60t155.5 23.5q146 0 268 -64l121 43h74v-1290l116 -6v-164h-487v156l68 6 q30 3 44.5 16.5t14.5 48.5v631h-340v-686l131 -8v-164h-502v156l68 6q31 3 45 17t14 50v629h-342v-686l131 -8v-164h-501v156l67 6q32 3 46 17t14 50v629h-177zM1026 1030h340v217q-82 49 -180 49q-84 0 -122 -40t-38 -119v-107z" />
</font>
</defs>
</svg>
