<?xml version="1.0" encoding="utf-8"?>
<!-- Generator: Adobe Illustrator 21.0.2, SVG Export Plug-In . SVG Version: 6.00 Build 0)  -->
<svg version="1.1" id="Layer_1" xmlns="http://www.w3.org/2000/svg" xmlns:xlink="http://www.w3.org/1999/xlink" x="0px" y="0px"
	 viewBox="0 0 331.6 104.9" style="enable-background:new 0 0 331.6 104.9;" xml:space="preserve">
<style type="text/css">
	.st0{fill:#566D31;}
	.st1{fill:#2E391C;}
</style>
<g>
	<path class="st0" d="M52.4,82.9c0-3.6-4,13-23.1,13c-12.4,0-21-8-21-19.9c0-11.4,7.8-22.5,12.6-28.2c1.8,2.7,6.3,9.4,7.2,10.9
		c1.2,1.9,2.9,6.8-0.1,7.3c-4.3,0.8-4.5-6.9-4.6-9c-0.1-0.7-1.1-0.8-1.4-0.2c-1.3,2.4-2.2,10,1.7,13.3c3.6,3,8.7,1.5,9.9-3
		c3.2,5.5,4,10.6,4.5,14c0.1,0.6,0.9,0.6,1,0c2-11.3-3.3-19.3-5.1-22.8c-1.8-3.5-9.1-13.9-10.3-16c-1.2-2.1-4.7-8.2-4.7-14.6
		c0-9.8,8.1-19.3,9.6-19.3c1.5,0,10.1,7.9,10.1,19.6c0,4.5-1,7.7-2.2,10.1c-0.4,0.8-1.5,0.8-1.9,0.1c-4.7-7.3-4.8-8.8-1.8-10.9
		c2-1.4-7.6-5.4-7.2,2.8c0.2,4.3,6.3,13,7.7,14.7c1.4,1.7,10.1-1.9,10.1-17.4c0-15.6-13.4-25.9-15-25.9c-1.6,0-15,12.7-15,25.9
		c0,6.5,2.4,12.2,5.2,16.6C18,44.4,1.2,57.8,1.5,77.6c0.2,15.2,10.3,26.2,27,26.2C43.1,103.8,52.4,93.4,52.4,82.9z"/>
	<path class="st1" d="M274.7,48.1c0.7-0.3,1.6-0.6,2.7-0.9c1-0.3,2.1-0.5,3.3-0.7c1.2-0.2,2.4-0.4,3.6-0.5c1.2-0.1,2.4-0.2,3.6-0.2
		c0.3-0.6,0.6-1.3,0.8-2.1c0.2-0.8,0.3-1.5,0.3-2.3c0-2.4-0.8-4.1-2.4-5.1c-1.6-1-3.7-1.6-6.4-1.6c-1.6,0-3.3,0.1-4.9,0.4
		c-1.6,0.3-3.2,0.6-4.7,1.1c-1.5,0.4-2.9,1-4.3,1.6c-1.3,0.6-2.4,1.2-3.3,2c-0.9,0.7-1.6,1.6-2.1,2.5c-0.5,0.9-0.7,2-0.7,3.3v25.3
		c0,1.4,0.2,2.5,0.5,3.4c0.4,0.9,0.9,1.6,1.6,2.1c0.7,0.5,1.5,0.8,2.5,1c1,0.2,2.1,0.3,3.3,0.3c1.3,0,2.5-0.1,3.7-0.3
		c1.2-0.2,2.1-0.3,2.7-0.5V48.1z M208.1,51.3c0-5.5-1.6-9.6-4.7-12.4c-3.1-2.8-7.4-4.2-13-4.2c-1.8,0-3.4,0.2-4.9,0.5
		c-1.5,0.4-2.6,0.7-3.3,1v-8.2c0-1.4-0.2-2.5-0.5-3.4c-0.4-0.9-0.9-1.6-1.6-2.1c-0.7-0.5-1.5-0.8-2.5-1c-1-0.2-2.1-0.3-3.3-0.3
		c-1.2,0-2.5,0.1-3.7,0.3c-1.2,0.2-2.1,0.4-2.7,0.5v48.8c0,1.4,0.2,2.5,0.5,3.4c0.4,0.9,0.9,1.6,1.6,2.1c0.7,0.5,1.5,0.8,2.5,1
		c1,0.2,2.1,0.3,3.3,0.3c1.3,0,2.5-0.1,3.7-0.3c1.2-0.2,2.1-0.3,2.7-0.5V47.3c0.6-0.4,1.4-0.7,2.4-1c1-0.3,2.1-0.4,3.2-0.4
		c1.7,0,3.1,0.5,4.3,1.4c1.1,0.9,1.7,2.5,1.7,4.8v18.7c0,1.4,0.2,2.5,0.5,3.4c0.4,0.9,0.9,1.6,1.6,2.1c0.7,0.5,1.5,0.8,2.5,1
		c1,0.2,2.1,0.3,3.3,0.3c1.3,0,2.5-0.1,3.7-0.3c1.2-0.2,2.1-0.3,2.7-0.5V51.3z M133.6,35.1c-2.2,0.3-4.1,0.7-5.8,1.3
		c-1.5,0.6-2.5,1.4-3.2,2.2c-0.7,0.9-1.1,2-1.1,3.5c0,1.1,0.3,2.2,0.8,3.2c0.5,1,1.1,1.8,1.9,2.3c1.6-0.7,3.5-1.2,5.5-1.7
		c2-0.4,4.1-0.7,6.2-0.7c2.7,0,4.8,0.4,6.2,1.1c1.4,0.7,2.1,1.9,2.1,3.5v0.6l-11,1.2c-4.8,0.5-8.4,1.8-10.7,3.9
		c-2.3,2.1-3.5,5.1-3.5,8.9c0,2.3,0.5,4.3,1.4,6.1c0.9,1.7,2.2,3.2,4,4.3c1.7,1.1,3.8,2,6.1,2.5c2.5,0.6,5.3,0.8,7.2,0.8
		c5,0,7.9-2.1,7.9-2.1c1.1,1.1,5.9,2.4,12.4,0.6c0-1.3,0-6.3,0-7.7V50.1c0-2.6-0.5-4.9-1.4-6.9c-1-1.9-2.3-3.5-4.1-4.8
		c-1.8-1.3-3.9-2.2-6.4-2.8c-2.5-0.6-5.3-0.9-8.3-0.9C137.9,34.7,135.8,34.8,133.6,35.1z M136.1,66.7c-0.9-0.7-1.3-1.6-1.3-2.7
		c0-1.1,0.5-2,1.5-2.5c1-0.6,2.3-0.9,3.9-1l6.1-0.5v6.7c-0.6,0.3-1.4,0.6-2.6,0.8c-1.2,0.2-2.2,0.3-3.2,0.3
		C138.4,67.8,137,67.4,136.1,66.7z M65.4,36.2c-2.1-2.1-8.8-1.5-12.5-0.8l0,35.4c0,1.4,0.2,2.5,0.5,3.4c0.4,0.9,0.9,1.6,1.6,2.1
		c0.7,0.5,1.5,0.8,2.5,1c1,0.2,2.1,0.3,3.3,0.3c1.3,0,2.5-0.1,3.7-0.3c1.2-0.2,2.1-0.3,2.7-0.5V47.2c0.5-0.3,1.1-0.6,1.9-0.9
		c0.7-0.3,1.6-0.5,2.6-0.5c1.5,0,2.7,0.4,3.7,1.1c1,0.8,1.6,2,1.6,3.7v20.1c0,1.4,0.2,2.5,0.5,3.4c0.4,0.9,0.9,1.6,1.6,2.1
		c0.7,0.5,1.5,0.8,2.5,1c1,0.2,2.1,0.3,3.3,0.3c1.2,0,2.5-0.1,3.7-0.3c1.2-0.2,2.1-0.3,2.7-0.5v-28c0-0.2,0-0.3,0-0.5
		c0-0.2,0-0.4-0.1-0.6c0.4-0.4,1.1-0.8,2-1.1c0.9-0.4,1.7-0.5,2.5-0.5c1.6,0,2.9,0.4,3.9,1.1c1,0.8,1.4,2,1.4,3.7v20.1
		c0,1.4,0.2,2.5,0.5,3.4c0.4,0.9,0.9,1.6,1.6,2.1c0.7,0.5,1.5,0.8,2.5,1c1,0.2,2.1,0.3,3.3,0.3c1.3,0,2.5-0.1,3.7-0.3
		c1.2-0.2,2.1-0.3,2.7-0.5V50.2c0-2.9-0.5-5.3-1.4-7.3c-1-2-2.2-3.6-3.8-4.8c-1.6-1.2-3.4-2.1-5.5-2.7c-2-0.6-4.1-0.8-6.3-0.8
		c-3,0-5.5,0.4-7.6,1.1c-2.1,0.7-3.2,1.1-4.9,2.3c-2.2-1.5-3.8-2.2-6.2-2.8c-2.8-0.6-5-0.7-7.6-0.5C70,34.9,68.2,35.1,65.4,36.2z"/>
	<path class="st1" d="M251.4,43.2c-1-1.9-2.3-3.5-4.1-4.8c-1.8-1.3-3.9-2.2-6.4-2.8c-2.5-0.6-5.3-0.9-8.3-0.9c-2,0-4.1,0.1-6.3,0.4
		c-2.2,0.3-4.1,0.7-5.8,1.3c-1.5,0.6-2.5,1.4-3.2,2.2c-0.7,0.9-1.1,2-1.1,3.5c0,1.1,0.3,2.2,0.8,3.2c0.5,1,1.1,1.8,1.9,2.3
		c1.6-0.7,3.5-1.2,5.5-1.7c2-0.4,4.1-0.7,6.2-0.7c2.7,0,4.8,0.4,6.2,1.1c1.4,0.7,2.1,1.9,2.1,3.5v0.6l-11,1.2
		c-4.8,0.5-8.4,1.8-10.7,3.9c-2.3,2.1-3.5,5.1-3.5,8.9c0,2.3,0.5,4.3,1.4,6.1c0.9,1.7,2.2,3.2,4,4.3c1.7,1.1,3.8,2,6.1,2.5
		c2.5,0.6,5.3,0.8,7.2,0.8c5,0,7.9-2.1,7.9-2.1c1.1,1.1,5.9,2.4,12.4,0.6c0-1.3,0-6.3,0-7.7V50.1C252.8,47.4,252.3,45.2,251.4,43.2z
		 M239,66.7c-0.6,0.3-1.4,0.6-2.6,0.8c-1.2,0.2-2.2,0.3-3.2,0.3c-2.1,0-3.5-0.4-4.4-1.1c-0.9-0.7-1.3-1.6-1.3-2.7
		c0-1.1,0.5-2,1.5-2.5c1-0.6,2.3-0.9,3.9-1l6.1-0.5V66.7z"/>
	<path class="st1" d="M328.7,43.2c-1-1.9-2.3-3.5-4.1-4.8c-1.8-1.3-3.9-2.2-6.4-2.8c-2.5-0.6-5.3-0.9-8.3-0.9c-2,0-4.1,0.1-6.3,0.4
		c-2.2,0.3-4.1,0.7-5.8,1.3c-1.5,0.6-2.5,1.4-3.2,2.2c-0.7,0.9-1.1,2-1.1,3.5c0,1.1,0.3,2.2,0.8,3.2c0.5,1,1.1,1.8,1.9,2.3
		c1.6-0.7,3.5-1.2,5.5-1.7c2-0.4,4.1-0.7,6.2-0.7c2.7,0,4.8,0.4,6.2,1.1c1.4,0.7,2.1,1.9,2.1,3.5v0.6l-11,1.2
		c-4.8,0.5-8.4,1.8-10.7,3.9c-2.3,2.1-3.5,5.1-3.5,8.9c0,2.3,0.5,4.3,1.4,6.1c0.9,1.7,2.2,3.2,4,4.3c1.7,1.1,3.8,2,6.1,2.5
		c2.5,0.6,5.3,0.8,7.2,0.8c5,0,7.9-2.1,7.9-2.1c1.1,1.1,5.9,2.4,12.4,0.6c0-1.3,0-6.3,0-7.7V50.1C330.1,47.4,329.6,45.2,328.7,43.2z
		 M316.3,66.7c-0.6,0.3-1.4,0.6-2.6,0.8c-1.2,0.2-2.2,0.3-3.2,0.3c-2.1,0-3.5-0.4-4.4-1.1c-0.9-0.7-1.3-1.6-1.3-2.7
		c0-1.1,0.5-2,1.5-2.5c1-0.6,2.3-0.9,3.9-1l6.1-0.5V66.7z"/>
	<path class="st0" d="M56.3,20.5h1.4c0.8,0,1.5-0.1,2.1-0.3c0.6-0.2,1.1-0.5,1.5-0.9c0.4-0.4,0.7-0.8,0.9-1.3
		c0.2-0.5,0.3-1.1,0.3-1.7c0-1.3-0.5-2.3-1.4-3.1c-0.9-0.8-2.3-1.1-4.1-1.1c-0.6,0-1.1,0-1.7,0.1c-0.6,0.1-1.1,0.2-1.5,0.3
		c-0.3,0.1-0.5,0.2-0.6,0.4c-0.1,0.1-0.2,0.4-0.2,0.6v9.1c0,0.3,0,0.6,0.1,0.8c0.1,0.2,0.2,0.4,0.3,0.5s0.3,0.2,0.6,0.2
		c0.2,0,0.5,0.1,0.8,0.1c0.3,0,0.6,0,0.9-0.1c0.3,0,0.5-0.1,0.7-0.1V20.5z M56.2,17.9v-3c0.1,0,0.3,0,0.4,0c0.1,0,0.3,0,0.5,0
		c0.6,0,1,0.1,1.3,0.4c0.3,0.3,0.5,0.6,0.5,1.1c0,0.5-0.1,0.9-0.4,1.2c-0.3,0.3-0.7,0.4-1.2,0.4H56.2z"/>
	<path class="st0" d="M67,17.7c0.3-0.4,0.7-0.6,1.3-0.6c0.5,0,1,0.2,1.3,0.6c0.3,0.4,0.4,1,0.4,1.8c0,0.8-0.1,1.4-0.4,1.8
		c-0.3,0.4-0.7,0.6-1.2,0.6s-1-0.2-1.3-0.6c-0.3-0.4-0.5-1-0.5-1.8C66.5,18.7,66.7,18.1,67,17.7z M72.9,17.4c-0.2-0.6-0.6-1.1-1-1.6
		c-0.4-0.4-1-0.8-1.6-1c-0.6-0.2-1.3-0.4-2.1-0.4c-0.8,0-1.5,0.1-2.1,0.3c-0.6,0.2-1.2,0.6-1.6,1c-0.4,0.4-0.8,1-1,1.6
		c-0.2,0.6-0.4,1.3-0.4,2.1c0,0.8,0.1,1.5,0.4,2.1c0.2,0.6,0.6,1.1,1,1.6c0.4,0.4,1,0.8,1.6,1c0.6,0.2,1.3,0.3,2.1,0.3
		c0.8,0,1.5-0.1,2.1-0.3c0.6-0.2,1.2-0.5,1.6-1c0.4-0.4,0.8-1,1-1.6c0.2-0.6,0.4-1.3,0.4-2.1C73.3,18.7,73.2,18,72.9,17.4z"/>
	<path class="st0" d="M95.6,17.3c0.2,0.3,0.4,0.5,0.4,0.8l-3.3,0.5c0-0.2,0.1-0.4,0.1-0.6c0.1-0.2,0.2-0.4,0.3-0.5
		c0.1-0.2,0.3-0.3,0.6-0.4c0.2-0.1,0.5-0.2,0.8-0.2C95,16.9,95.4,17,95.6,17.3z M96.5,24.4c0.5-0.1,1-0.2,1.4-0.4
		c0.5-0.3,0.8-0.7,0.8-1.3c0-0.3-0.1-0.5-0.2-0.7c-0.1-0.2-0.3-0.4-0.5-0.5c-0.3,0.2-0.7,0.3-1.2,0.5c-0.5,0.1-1,0.2-1.5,0.2
		c-0.6,0-1.1-0.1-1.5-0.3c-0.4-0.2-0.7-0.5-0.9-1l4.8-0.7c0.4-0.1,0.8-0.2,1-0.4c0.2-0.2,0.4-0.6,0.4-1c0-0.6-0.1-1.1-0.3-1.6
		c-0.2-0.5-0.5-0.9-0.9-1.3c-0.4-0.4-0.9-0.6-1.5-0.9c-0.6-0.2-1.2-0.3-1.9-0.3c-0.6,0-1.2,0.1-1.8,0.3c-0.6,0.2-1.1,0.5-1.5,0.9
		c-0.5,0.4-0.8,0.9-1.1,1.5c-0.3,0.6-0.4,1.3-0.4,2.2c0,0.9,0.1,1.6,0.4,2.3c0.3,0.6,0.7,1.2,1.1,1.6c0.5,0.4,1.1,0.7,1.7,1
		c0.7,0.2,1.4,0.3,2.1,0.3C95.5,24.5,96,24.5,96.5,24.4z M80.4,23c0.1-0.4,0.2-0.8,0.4-1.3c0.1-0.5,0.3-0.9,0.4-1.4
		c0.1-0.5,0.2-1,0.3-1.4c0.1,0.4,0.2,0.9,0.3,1.3c0.1,0.5,0.2,0.9,0.4,1.3c0.1,0.4,0.3,0.8,0.4,1.2c0.1,0.4,0.2,0.6,0.3,0.9
		c0.2,0.5,0.8,0.8,1.9,0.8c0.4,0,0.8,0,1.2-0.1c0.4-0.1,0.7-0.2,0.8-0.4c0.1-0.2,0.2-0.6,0.3-1c0.1-0.4,0.3-0.9,0.4-1.4
		c0.1-0.5,0.3-1.1,0.4-1.6c0.1-0.6,0.3-1.1,0.4-1.6c0.1-0.5,0.2-1,0.3-1.4c0.1-0.4,0.1-0.7,0.1-0.9c0-0.5-0.1-0.8-0.4-1
		c-0.3-0.2-0.7-0.3-1.1-0.3c-0.3,0-0.5,0-0.8,0.1c-0.3,0.1-0.5,0.2-0.7,0.3c-0.1,1.1-0.2,2.2-0.4,3.3c-0.1,1.1-0.3,2.1-0.4,3.1h-0.1
		c0-0.2-0.1-0.5-0.2-0.8c-0.1-0.4-0.2-0.8-0.3-1.2c-0.1-0.5-0.2-1-0.4-1.5c-0.1-0.5-0.3-1.1-0.4-1.7c-0.1-0.3-0.3-0.5-0.6-0.7
		c-0.3-0.1-0.7-0.2-1.2-0.2c-0.4,0-0.7,0-0.9,0.1c-0.3,0.1-0.5,0.2-0.8,0.3c-0.1,0.6-0.3,1.2-0.4,1.8c-0.1,0.6-0.3,1.1-0.4,1.6
		c-0.1,0.5-0.2,1-0.3,1.3c-0.1,0.4-0.2,0.7-0.2,0.9h-0.1c0-0.1-0.1-0.3-0.1-0.5c0-0.2-0.1-0.5-0.1-0.9c-0.1-0.4-0.1-0.9-0.2-1.6
		s-0.2-1.4-0.3-2.4c-0.1-0.5-0.2-0.8-0.5-1c-0.3-0.2-0.7-0.3-1.1-0.3c-0.4,0-0.7,0.1-1,0.2c-0.3,0.1-0.5,0.3-0.7,0.5
		c0.1,0.6,0.2,1.4,0.4,2.2c0.2,0.8,0.3,1.6,0.5,2.4c0.2,0.8,0.4,1.5,0.6,2.2c0.2,0.7,0.4,1.2,0.5,1.5c0.1,0.3,0.4,0.5,0.8,0.6
		c0.4,0.1,0.8,0.2,1.4,0.2c0.4,0,0.8,0,1.1-0.1c0.3-0.1,0.6-0.2,0.7-0.4C80.2,23.7,80.3,23.4,80.4,23z"/>
	<path class="st0" d="M104,17.6c0.2-0.1,0.4-0.1,0.6-0.2c0.2-0.1,0.5-0.1,0.8-0.2c0.3-0.1,0.5-0.1,0.8-0.1c0.3,0,0.6,0,0.8,0
		c0.1-0.1,0.1-0.3,0.2-0.5c0.1-0.2,0.1-0.4,0.1-0.5c0-0.5-0.2-0.9-0.5-1.2c-0.4-0.2-0.9-0.4-1.5-0.4c-0.4,0-0.7,0-1.1,0.1
		c-0.4,0.1-0.7,0.1-1.1,0.2c-0.3,0.1-0.7,0.2-1,0.4c-0.3,0.1-0.6,0.3-0.8,0.5c-0.2,0.2-0.4,0.4-0.5,0.6c-0.1,0.2-0.2,0.5-0.2,0.8
		v5.8c0,0.3,0,0.6,0.1,0.8c0.1,0.2,0.2,0.4,0.4,0.5s0.3,0.2,0.6,0.2c0.2,0,0.5,0.1,0.8,0.1c0.3,0,0.6,0,0.9-0.1
		c0.3,0,0.5-0.1,0.6-0.1V17.6z"/>
	<path class="st0" d="M125,17.3v4.3c-0.1,0.1-0.2,0.2-0.4,0.2c-0.2,0.1-0.4,0.1-0.6,0.1c-0.7,0-1.2-0.2-1.5-0.6
		c-0.3-0.4-0.5-1-0.5-1.8c0-0.8,0.2-1.4,0.6-1.8c0.4-0.4,0.9-0.6,1.6-0.6C124.4,17.1,124.7,17.1,125,17.3z M118.9,21.6
		c0.2,0.6,0.6,1.1,1,1.6c0.5,0.4,1,0.8,1.7,1c0.7,0.2,1.4,0.3,2.3,0.3c0.8,0,1.5-0.1,2.1-0.3c0.6-0.2,1.1-0.4,1.5-0.6
		c0.6-0.4,0.9-0.8,0.9-1.5v-9.2c0-0.3,0-0.6-0.1-0.8c-0.1-0.2-0.2-0.4-0.3-0.5c-0.2-0.1-0.3-0.2-0.6-0.2c-0.2,0-0.5-0.1-0.8-0.1
		c-0.3,0-0.6,0-0.9,0.1c-0.3,0-0.5,0.1-0.6,0.1v3.1c-0.2-0.1-0.4-0.1-0.6-0.2c-0.2,0-0.5-0.1-0.8-0.1c-0.7,0-1.4,0.1-2,0.3
		c-0.6,0.2-1.1,0.5-1.6,0.9c-0.5,0.4-0.8,0.9-1.1,1.6c-0.3,0.6-0.4,1.4-0.4,2.2C118.6,20.3,118.7,20.9,118.9,21.6z M113.8,17.3
		c0.2,0.3,0.4,0.5,0.4,0.8l-3.3,0.5c0-0.2,0.1-0.4,0.1-0.6c0.1-0.2,0.2-0.4,0.3-0.5c0.1-0.2,0.3-0.3,0.6-0.4
		c0.2-0.1,0.5-0.2,0.8-0.2C113.2,16.9,113.6,17,113.8,17.3z M114.8,24.4c0.5-0.1,1-0.2,1.4-0.4c0.5-0.3,0.8-0.7,0.8-1.3
		c0-0.3-0.1-0.5-0.2-0.7c-0.1-0.2-0.3-0.4-0.5-0.5c-0.3,0.2-0.7,0.3-1.2,0.5c-0.5,0.1-1,0.2-1.5,0.2c-0.6,0-1.1-0.1-1.5-0.3
		c-0.4-0.2-0.7-0.5-0.9-1L116,20c0.4-0.1,0.8-0.2,1-0.4c0.2-0.2,0.4-0.6,0.4-1c0-0.6-0.1-1.1-0.3-1.6c-0.2-0.5-0.5-0.9-0.9-1.3
		c-0.4-0.4-0.9-0.6-1.5-0.9c-0.6-0.2-1.2-0.3-1.9-0.3c-0.6,0-1.2,0.1-1.8,0.3c-0.6,0.2-1.1,0.5-1.5,0.9c-0.5,0.4-0.8,0.9-1.1,1.5
		c-0.3,0.6-0.4,1.3-0.4,2.2c0,0.9,0.1,1.6,0.4,2.3c0.3,0.6,0.7,1.2,1.1,1.6c0.5,0.4,1.1,0.7,1.7,1c0.7,0.2,1.4,0.3,2.1,0.3
		C113.8,24.5,114.2,24.5,114.8,24.4z"/>
	<path class="st0" d="M138,21.8c-0.2-0.1-0.4-0.1-0.5-0.2v-4.2c0.2-0.1,0.4-0.2,0.6-0.2c0.2-0.1,0.4-0.1,0.7-0.1
		c0.6,0,1,0.2,1.4,0.6c0.3,0.4,0.5,1,0.5,1.8c0,0.8-0.2,1.4-0.5,1.8c-0.3,0.4-0.8,0.6-1.4,0.6C138.4,21.9,138.2,21.9,138,21.8z
		 M134.2,21.9c0,0.6,0.3,1.1,0.9,1.5c0.4,0.3,0.9,0.5,1.5,0.7c0.6,0.2,1.3,0.3,2.2,0.3c0.8,0,1.5-0.1,2.2-0.3
		c0.7-0.2,1.2-0.5,1.7-0.9c0.5-0.4,0.8-0.9,1.1-1.6c0.3-0.6,0.4-1.4,0.4-2.2c0-0.8-0.1-1.5-0.4-2.1c-0.2-0.6-0.6-1.1-1-1.6
		c-0.4-0.4-0.9-0.7-1.5-1c-0.6-0.2-1.1-0.3-1.8-0.3c-0.3,0-0.7,0-1,0.1c-0.3,0.1-0.6,0.1-0.9,0.3v-1.9c0-0.3,0-0.6-0.1-0.8
		c-0.1-0.2-0.2-0.4-0.3-0.5c-0.2-0.1-0.3-0.2-0.6-0.2c-0.2,0-0.5-0.1-0.8-0.1c-0.3,0-0.6,0-0.9,0.1c-0.3,0-0.5,0.1-0.6,0.1V21.9z"/>
	<path class="st0" d="M147.7,23.1c0.3,0.2,0.5,0.4,0.7,0.5c-0.3,0.4-0.7,0.8-1.1,1.2c-0.4,0.4-0.8,0.8-1.2,1.1
		c0.1,0.5,0.3,0.9,0.6,1.3c0.3,0.3,0.8,0.5,1.3,0.5c0.3,0,0.6,0,0.9-0.1c0.3-0.1,0.6-0.2,0.9-0.5c0.3-0.2,0.6-0.5,0.9-0.9
		c0.3-0.4,0.6-0.9,1-1.5c0.2-0.4,0.4-0.8,0.7-1.3c0.2-0.5,0.5-1,0.7-1.5c0.2-0.5,0.4-1.1,0.6-1.6c0.2-0.5,0.4-1.1,0.5-1.6
		c0.1-0.5,0.3-1,0.4-1.5c0.1-0.5,0.1-0.9,0.1-1.2c0-0.5-0.1-0.8-0.4-1c-0.3-0.2-0.7-0.3-1.1-0.3c-0.6,0-1.1,0.1-1.5,0.4
		c-0.1,0.5-0.2,1.1-0.3,1.6c-0.1,0.5-0.3,1.1-0.4,1.6c-0.1,0.5-0.3,1.1-0.4,1.6c-0.1,0.5-0.3,1-0.5,1.4h-0.1l-1.5-5.3
		c-0.1-0.5-0.4-0.9-0.7-1.1c-0.3-0.2-0.7-0.3-1.1-0.3c-0.4,0-0.7,0.1-1,0.2c-0.3,0.1-0.5,0.3-0.7,0.5c0.2,0.9,0.4,1.6,0.6,2.3
		c0.2,0.7,0.4,1.3,0.5,1.8c0.2,0.5,0.3,1,0.5,1.4c0.2,0.4,0.3,0.8,0.5,1.1C147.1,22.4,147.4,22.9,147.7,23.1z"/>
</g>
</svg>
