<svg xmlns="http://www.w3.org/2000/svg" viewBox="0 0 242 87.87"><defs><style>.cls-1{fill:#feb03e;}.cls-2{fill:#9ca1a7;}</style></defs><g id="Layer_2" data-name="Layer 2"><g id="Layer_1-2" data-name="Layer 1"><path class="cls-1" d="M83.85,53.33h-3V52.1c0-4.65,0-9.3,0-13.94,0-1.5-.25-3-.4-4.58H83.9v2c.37.11.43-.22.59-.34A2.39,2.39,0,0,0,85,34.7a4.42,4.42,0,0,1,3.42-1.48,6.41,6.41,0,0,1,4.29,1.24,4.18,4.18,0,0,1,.75,1,4.12,4.12,0,0,0,.77-.66,4.25,4.25,0,0,1,3.08-1.55,7.89,7.89,0,0,1,4.08.58,3.79,3.79,0,0,1,2,2.37,4.74,4.74,0,0,1,.32,1.88c0,5,0,10.11,0,15.22h-3.42V44c0-1.13,0-2.27,0-3.4s-.12-2.09-.19-3.15L98.48,36H95.84c-.11.54-.89.42-1.07,1-.1.31-.5.53-.58.84a7.82,7.82,0,0,0-.32,2c0,4.44,0,8.88,0,13.39H90.46V38.19l-.75-1.47a4,4,0,0,0-3.13-.67l-1.53.79-.83,1.61C83.55,43.26,84.13,48.24,83.85,53.33Z"/><path class="cls-1" d="M19,51.68v9H15.6V33.57h3L19,34V35.5c.32-.32.53-.5.71-.71a3.88,3.88,0,0,1,2.56-1.36,8.07,8.07,0,0,1,2.73,0,4.1,4.1,0,0,1,2.87,1.72A7.5,7.5,0,0,1,29.27,38a16.59,16.59,0,0,0,.41,2.31,6.14,6.14,0,0,1,.16,2.25c.06.83,0,1.66,0,2.48a20.25,20.25,0,0,1-.27,2.82,11.78,11.78,0,0,1-.67,2.53,4.92,4.92,0,0,1-4.29,3.3c-.52,0-1,0-1.55,0a4.13,4.13,0,0,1-3.58-1.5Zm2-.8c.2,0,.39-.06.5,0a2.56,2.56,0,0,0,2.67-.09,3.12,3.12,0,0,0,1.69-2.07,10.28,10.28,0,0,1,.57-2.39c-.13-2.33.29-4.68-.31-7-.31-1.2-.65-2.37-1.58-2.9-2-.73-3.71-.78-4.95,1,0,.11.06.3,0,.41-.85,1.42-.58,3.06-.89,4.58-.36,1.76.37,3.51.29,5.29,0,.12.16.25.18.38C19.29,49.33,20.15,50,21,50.88Z"/><path class="cls-1" d="M33,25.17h3.06V36c.18-.11.29-.14.32-.2a4.74,4.74,0,0,1,3.45-2.47,6.55,6.55,0,0,1,2.57-.11,4.24,4.24,0,0,1,3.21,1.6A7.48,7.48,0,0,1,46.68,37a11.23,11.23,0,0,1,.26,2.82V53.33H43.52V51.81c0-4.18,0-8.36,0-12.54A3.21,3.21,0,0,0,40.21,36c-.36,0-.72,0-1.13,0-.12.09-.27.27-.45.3-1.45.29-1.84,1.52-2.2,2.65a9.33,9.33,0,0,0-.35,2.79c0,3.82,0,7.64,0,11.57-.49,0-1,.05-1.48.05H33Z"/><path class="cls-1" d="M64.38,53.33H60.6V51.21a5.86,5.86,0,0,1-3,2.4c-.64.25-1.43-.36-1.92.44-.71-.59-1.45-.3-2.24-.42-.55-.39-1.17-.87-1.83-1.29a3.14,3.14,0,0,1-1.23-2.26,19.6,19.6,0,0,1-.35-3,11.18,11.18,0,0,1,.43-2.19,7.45,7.45,0,0,1,.78-1.31,6.74,6.74,0,0,1,3.63-2.09,14,14,0,0,1,2.21-.27c1.14-.11,2.27-.28,3.56-.43l-.35-3.24L58.78,36a4.51,4.51,0,0,0-3.09.06l-1.27,1.26v1.55l-.43.44H50.82a5.35,5.35,0,0,1,3.32-5.77c.94-.13,1.83-.23,2.71-.38a9,9,0,0,1,3.42.37,4,4,0,0,1,2.83,2.19c.17.34.37.67.64,1.15.6,4.73.15,9.66.3,14.56A12.56,12.56,0,0,0,64.38,53.33Zm-3.8-9.58c-1.15,0-2.19,0-3.22,0a3.59,3.59,0,0,0-3.8,2.87,3.45,3.45,0,0,0,.92,3.56c.41.36.85.67,1.39,1.09l2.34-.38C60.64,49.06,60.72,46.5,60.58,43.75Z"/><path class="cls-1" d="M120.85,53.32h-3.72v-2c-.59.62-1,1.06-1.43,1.51a2.83,2.83,0,0,1-2.12.87c-.82,0-1.65,0-2.48,0a4.85,4.85,0,0,1-3.88-3,13.07,13.07,0,0,1-.28-4.66,4.85,4.85,0,0,1,1.29-2.69,4.77,4.77,0,0,1,2.06-1.33,12.45,12.45,0,0,1,3.45-.7,14,14,0,0,1,3.41-.19c0-.91,0-1.72,0-2.53a2.83,2.83,0,0,0-2-2.52,3.3,3.3,0,0,0-4.2,1.75v1.52c-.1.08-.13.14-.17.14h-3.09l-.51-.5c.11-.23.37-.5.33-.73-.18-1.19.55-2.09,1.06-3a3.87,3.87,0,0,1,2.68-1.63,7.18,7.18,0,0,1,1.42-.35,23.07,23.07,0,0,1,2.63,0,7.66,7.66,0,0,1,3.61,1.35,3.73,3.73,0,0,1,1.31,2,10.39,10.39,0,0,1,.39,2.64c-.07,3.41,0,6.81-.06,10.22C120.51,50.75,121,52,120.85,53.32Zm-10.53-7.15V49.1a8.6,8.6,0,0,0,.55.92c.25.32.55.6.8.87.28,0,.56-.08.67,0,.77.66,1.5.13,2.24,0a2.19,2.19,0,0,0,1.56-1,6.34,6.34,0,0,0,1-3.28c0-.36-.16-.86,0-1.06.63-.68.06-1.17-.16-1.75h-2.45A4.17,4.17,0,0,0,110.32,46.17Z"/><path class="cls-1" d="M153.27,33.56h3.42c-.16.72-.25,1.39-.46,2-1.2,3.63-2.44,7.25-3.66,10.88q-1.9,5.73-3.8,11.45c-.3.91-.64,1.81-1,2.81h-3.29a20.23,20.23,0,0,1,.39-2c.44-1.42,1-2.79,1.38-4.23a3.9,3.9,0,0,0-.06-2.06c-1.25-3.92-2.51-7.84-3.9-11.72-.66-1.85-1.27-3.71-1.95-5.55-.22-.59,0-1.07-.26-1.62h3.49a10.66,10.66,0,0,1,.88,2.36,18.55,18.55,0,0,0,.66,2.38c.29,1.16.72,2.3.95,3.48a34.26,34.26,0,0,0,1,3.32,28.78,28.78,0,0,0,1.38,4.32,39.94,39.94,0,0,0,1.3-4.18c.19-.91.55-1.75.76-2.64.51-2.1,1.34-4.11,1.79-6.24A23,23,0,0,1,153.27,33.56Z"/><path class="cls-1" d="M130.52,50.71a7.21,7.21,0,0,0,1.58.45,5.69,5.69,0,0,0,1.43-.37c.77-.42,1.12-1.38,1.68-2.41v-1.5h3.35a6.44,6.44,0,0,1-1.11,4.46,6.84,6.84,0,0,1-3.56,2.31c-.44.16-1-.1-1.43.31a.6.6,0,0,1-.58,0c-.38-.43-.87-.24-1.3-.24a4.92,4.92,0,0,1-3.53-1.54,7.69,7.69,0,0,1-1.84-3.87,33,33,0,0,1-.24-7.62,9.36,9.36,0,0,1,1.49-4.95,5.28,5.28,0,0,1,3.66-2.18,10.83,10.83,0,0,1,2.35-.34,6.65,6.65,0,0,1,4.12,1.32,5,5,0,0,1,1.72,2.84,7.81,7.81,0,0,1,.25,2.64c-.5,0-1.05,0-1.6,0h-1.7a15.39,15.39,0,0,0-.45-2.34,3.07,3.07,0,0,0-1.61-1.76l-2.69.31A4.73,4.73,0,0,0,129,38.15a8.16,8.16,0,0,0-.58,2.69,33.64,33.64,0,0,0,0,4.49,21.74,21.74,0,0,0,.45,2.76A4.29,4.29,0,0,0,130.52,50.71Z"/><path class="cls-2" d="M181.14,53.66c-.65.11-1.44-.23-2.08.29a3.59,3.59,0,0,0-1.14-.26,5.07,5.07,0,0,1-3.26-1.13A4.77,4.77,0,0,1,172.78,50a9.94,9.94,0,0,1-.66-3.91c.09-1.8.07-3.62,0-5.42A8,8,0,0,1,173.4,36a5.37,5.37,0,0,1,3.48-2.55,9,9,0,0,1,2.52-.27c3.32.18,5.35,1.95,6.13,5.27a14,14,0,0,1,.28,3.28c0,1.7,0,3.41,0,5.11a9,9,0,0,1-1.67,4.87A7.17,7.17,0,0,1,182.63,53,11.81,11.81,0,0,1,181.14,53.66Zm-.46-18.29h-2.46a3,3,0,0,0-2.94,2.08,12.13,12.13,0,0,0-.67,3.76c.09,1.7.07,3.41,0,5.11a16.48,16.48,0,0,0,.65,3.3,6.79,6.79,0,0,0,1,1.26,3.07,3.07,0,0,0,2.73.93c.46,0,.92,0,1.21,0a4.37,4.37,0,0,0,2.42-2.33,8,8,0,0,0,.63-3c0-2.43.26-4.87-.23-7.31C182.73,37.56,182.24,36.19,180.68,35.37Z"/><path class="cls-2" d="M203.58,33.54h2L206,34v1.86c.61-.55,1-1,1.48-1.44a4.19,4.19,0,0,1,2.77-1.17,6.83,6.83,0,0,1,3.17.58c1.58.62,2.13,1.86,2.56,3.32a12.08,12.08,0,0,1,.29,3.44V53.3h-2.43c0-.33-.05-.72-.05-1.11,0-4,0-8.06,0-12.09a8.51,8.51,0,0,0-.91-3.34,2.15,2.15,0,0,0-2.21-1.39c-.56,0-1.13,0-1.69,0-.05.05-.08.1-.12.12-2.12.92-2.84,2.65-2.83,4.82v13h-2.43Z"/><path class="cls-2" d="M188.3,33.54h2.17V44.22c0,.93,0,1.86,0,2.78s.24,1.66.36,2.51c.53.81.69,2,1.92,2.37l3.19-.33a5.14,5.14,0,0,1,.7-.78,4.63,4.63,0,0,0,1.57-3.84c0-4.24,0-8.47,0-12.7v-.66h2c.24,1.29.32,13.57.11,19.73H198.6l-.12-2a10,10,0,0,0-.95.78,4.53,4.53,0,0,1-4,1.62c-.66-.06-1.33,0-1.85,0a11.82,11.82,0,0,1-1.53-.81,5.17,5.17,0,0,1-1.56-2.44,4.55,4.55,0,0,1-.3-1.89Z"/><path class="cls-2" d="M223.64,51.83c3.13.3,3.76-1.37,4.15-4.3h2.45a6.14,6.14,0,0,1-1.91,5.09,3.54,3.54,0,0,1-2.51,1.05c-.35,0-.7-.08-1,.25a.74.74,0,0,1-.69,0c-.31-.34-.67-.2-1-.22a4.77,4.77,0,0,1-3.74-2.1,7.13,7.13,0,0,1-1.29-4.11c0-1.3-.24-2.6-.26-3.9,0-.83.22-1.67.27-2.51a20.3,20.3,0,0,1,0-2.47c.42-2.15,1.35-3.95,3.59-4.82a6.74,6.74,0,0,1,4.31-.3,9,9,0,0,1,2.14.86c.74.34.85,1,1.35,1.5a1.82,1.82,0,0,1,.37,1.21c0,.78.63,1.5.22,2.34h-2.3c-.13-.77-.21-1.55-.41-2.3a2.56,2.56,0,0,0-2.37-1.69c-.67,0-1.34,0-2,0-.86.63-1.9,1.09-2,2.39A38.15,38.15,0,0,0,221,49.1,4.25,4.25,0,0,0,223.64,51.83Z"/><path class="cls-2" d="M170.57,39.36h-2.36l-.4-2.63-1.62-1.36c-.65,0-1.21,0-1.78,0a2.65,2.65,0,0,0-2.5,1.57,3.34,3.34,0,0,0-.61,1.59c0,2.44-.69,4.87-.3,7.29.25,1.56.2,3.19,1.16,4.63a2.41,2.41,0,0,0,2.24,1.35c.59,0,1.23.22,1.74-.3,1.07.11,1.34-.82,1.61-1.48a11.4,11.4,0,0,0,.48-2.51h2.23c.51,2.3-.17,4.5-3.47,6.16-.92,0-1.9-.05-2.88,0a5.67,5.67,0,0,1-2.55-.61c-1.67-.67-2.54-2.93-2.79-4.17-.59-3-.19-6-.27-9a15.25,15.25,0,0,1,.41-2.63l.64-1.26A4.9,4.9,0,0,1,163,33.47a10.79,10.79,0,0,1,2.52-.26,9.93,9.93,0,0,1,3.15,1,5.66,5.66,0,0,1,1.63,2.42A5.9,5.9,0,0,1,170.57,39.36Z"/><path class="cls-1" d="M77.7,33.23v3.29l-4,.28a5.84,5.84,0,0,0-2.18,4.82c0,3.87,0,7.74,0,11.67H68.41V33.57h3c.19.82,0,1.74.15,2.84.7-1.09,1.16-2.19,2.41-2.61A8.85,8.85,0,0,1,77.7,33.23Z"/><path class="cls-2" d="M15.61,68.91H242c0,.08,0,.12,0,.15s-.07.1-.1.1H15.62Z"/><path class="cls-2" d="M239.62,25.17H242V53.33h-2.37Z"/><path class="cls-2" d="M60.19,85.81c.71-3,1.37-5.7,2.05-8.55.65.09,1.41-.38,1.94.25l1.52,7.43.33.33c.06-.06.16-.12.17-.19a10.19,10.19,0,0,1,.26-1.27c.27-1.53.7-3,1-4.56.11-.56.28-1.12.42-1.66.37-.6.9-.27,1.41-.39A4.59,4.59,0,0,1,69,79c-.46,1.26-.6,2.64-1,3.93s-.72,2.59-1.08,3.88c-.08.28-.15.56-.23.88H65l-1.74-8-.33,0c-.73,2.66-1.19,5.38-1.93,8H59.48c-.09-.1-.27-.19-.3-.32-.81-3.33-1.6-6.67-2.41-10.11h1.57C58.94,80.05,59.53,82.8,60.19,85.81Z"/><path class="cls-2" d="M233.09,33.85h2.07V53.33h-2.07Z"/><path class="cls-1" d="M.1,2.07l2-2c3.2-.58,5.24,1.39,4.84,4A4.09,4.09,0,0,1,4.65,6.86C1.41,7.39-.46,5.28.1,2.07Z"/><path class="cls-1" d="M13.08,8.69v2A4.57,4.57,0,0,1,10.55,13h-2A4.8,4.8,0,0,1,6.24,10.6V8.68A5,5,0,0,1,8.59,6.26h2.13A4.86,4.86,0,0,1,13.08,8.69Z"/><path class="cls-1" d="M19.29,15v1.89a5.41,5.41,0,0,1-2.22,2.34,3.74,3.74,0,0,1-4.59-2.38v-2a4.86,4.86,0,0,1,2.32-2.31A3.73,3.73,0,0,1,19.29,15Z"/><path class="cls-1" d="M13.08,21.16V23a5.57,5.57,0,0,1-2.23,2.35A3.75,3.75,0,0,1,6.27,23V21a4.8,4.8,0,0,1,2.31-2.31C10.61,18.3,12.12,19,13.08,21.16Z"/><path class="cls-1" d="M1.83,31.35A3.76,3.76,0,0,1,.13,27a4.84,4.84,0,0,1,2.36-2.22c2.85-.46,4.81,1.51,4.34,4.61L5.29,31.29a9.73,9.73,0,0,1-1.82.34A8.89,8.89,0,0,1,1.83,31.35Z"/><path class="cls-2" d="M106.28,87.74H105c0-1.46,0-2.9,0-4.33a4.12,4.12,0,0,0-.66-2.1h-1.11a2.5,2.5,0,0,0-.73,1.66c0,1.55,0,3.1,0,4.75l-1.2.06V82.1l-.89-.92-1.32.49v5.58c-.36.61-.9.6-1.51.46V80.42c1-.36,2.1.28,3.07-.42l1.77.83c1-1,2.15-.94,3.48,0a3.07,3.07,0,0,1,.34,1.85C106.27,84.31,106.28,86,106.28,87.74Z"/><path class="cls-2" d="M150.14,80.36h1.08l.25.7.46-.73h2.35l.53.53,1.76-.85c.63.4,1.56.25,1.9,1.09v6.62l-1.19.06v-5.7l-.83-.82h-.62l-.77.77v5.66a1.28,1.28,0,0,1-1.53-.37V81.76l-.49-.5h-1l-.76,1.17v5.31h-1.15Z"/><path class="cls-2" d="M196.7,85.33h-4l-.52,2.16c-.24.37-.77.35-1.33.23-.35-.8.18-1.43.37-2.1.71-2.38,1.38-4.77,2.31-7.08.16-.38-.1-.93.49-1.27h1.65c1.08,3.41,2.48,6.77,3.24,10.26-.13.14-.16.21-.2.21h-1.12ZM193.17,84h3.26c-.71-1.74-.91-3.57-1.76-5.23C194.16,80.55,193.68,82.24,193.17,84Z"/><path class="cls-2" d="M139.07,87.74h-1.62c-1.37-1.54-2.34-3.52-3.77-5.4v5.37l-1.25.07V77.28l1.2-.06V81.8l3.6-4.49h1.61L135.18,82C136.37,83.92,137.92,85.57,139.07,87.74Z"/><path class="cls-2" d="M37.14,77.28l1.26.64a4,4,0,0,1,.76,3,3.59,3.59,0,0,1-2.3,2.17H34.54v4.57H33V77.28Zm0,4.24A2.1,2.1,0,0,0,37.32,79c-1-.85-1.89-.47-2.77-.56v3.42C35.47,81.83,36.38,82.07,37.14,81.52Z"/><path class="cls-2" d="M70.27,87.72V77.28h1.48v3.44a3,3,0,0,1,3.15-.24,2.42,2.42,0,0,1,.63,1.94c0,1.75,0,3.5,0,5.3H74.36V82.06l-1-.77h-.8l-.72.72v5.27l-.44.44Z"/><path class="cls-2" d="M140.94,87.79c-1.11-1.14-1.11-1.14-1.1-2.78.66-1.88,2.07-2,3.66-1.87V81.57l-1.26-.42-1.15,1.3h-.87V81.34l1-.93,1.37-.33,1.51.36a2.77,2.77,0,0,1,1,2.4c-.07,1.59,0,3.19,0,4.92a5.7,5.7,0,0,0-2.1-.15A19.5,19.5,0,0,1,140.94,87.79Zm3-3.74a4.22,4.22,0,0,0-2.5.43c-.46,1.17-.46,1.17.39,2.33h.83l.81-.63Z"/><path class="cls-2" d="M176.46,80.38v7.44c-.71-.12-1.49-.49-2-.26-.74.35-1.42,0-2.12.26l-1.11-1.36V80.38h1.46v6l1.44.57.79-1.21V80.38Z"/><path class="cls-2" d="M223.1,87.61c-.84.57-1.43-.49-2.11,0s-1.41,0-2,.27l-.83-.83c-.13-.72-.26-1.44-.35-1.89.71-2,2.09-2.17,3.7-1.93V81.67c-.27-.59-.87-.37-1.4-.41l-.76,1.19H218.2V81.34l1.13-1a2.62,2.62,0,0,0,.62,0,2.18,2.18,0,0,0,.55-.26l1.62.38a2.8,2.8,0,0,1,1,2.4C223,84.43,223.1,86,223.1,87.61Zm-1.26-3.56c-.94,0-1.76-.13-2.27.29a1.63,1.63,0,0,0,.23,2.47h1A3.3,3.3,0,0,0,221.84,84.05Z"/><path class="cls-2" d="M87,83.53l2.9,4.16-1.56.11L85.83,84v3.75l-1.15.06c-.08-.1-.14-.14-.14-.18,0-3.4,0-6.8,0-10.31l1.25-.07v6l2-2.86h1.6Z"/><path class="cls-2" d="M112,80.31a3,3,0,0,1,1.12,2.43c0,1.64,0,3.28,0,5.08l-2-.35c-.6.65-1.37.11-2,.33-1.28-.75-1.35-1.93-1.21-3.22.78-1.37,2.1-1.63,3.64-1.44V81.56l-1.28-.4-1.13,1.29h-.85a1.41,1.41,0,0,1,.3-1.62C109.53,80,110.78,80.46,112,80.31Zm-.5,5.83.42-2.2-2.48.37-.4,1.62.8.9h1Z"/><path class="cls-2" d="M126,83.11l-.72-1.79H124l-.46,1.13h-1.32a1.18,1.18,0,0,1-.09-.37,2.4,2.4,0,0,1,1-1.64l1.51-.36,1.51.36a2.75,2.75,0,0,1,1,2.39c-.08,1.6,0,3.2,0,4.87h-1.19l-.1-.5a3.25,3.25,0,0,1-2.52.57l-1.05-.62c-.23-1-.58-1.92-.1-2.83C122.93,82.81,124.41,83.15,126,83.11Zm-2.61,1.6v1.75l1.33.48,1.07-1.43V84.09h-1.36Z"/><path class="cls-2" d="M24.34,86.42l.88.43c.55-.35,1.44-.4,1.18-1.49H28c.13,1.12-.69,1.69-1.38,2.42-1.07-.11-2.26.29-3.45-.62a9.52,9.52,0,0,1-.7-2.15,3.16,3.16,0,0,1,.24-2.36c.15-.21-.07-.65.05-.9a2.26,2.26,0,0,1,1.68-1.42h2.08l.68.36c1,1,.85,2.28.8,3.63H24A2.58,2.58,0,0,0,24.34,86.42Zm.41-5.12L24,82v1.43h2.73a3.67,3.67,0,0,0-.68-2.09Z"/><path class="cls-2" d="M91.84,80.33H94.7l1,1.32v6.09H94.59l-.22-.54-1.19.62-2-.28C91,87,91,86.43,90.72,86.12c-.73-.8,0-1.46.21-2a1.86,1.86,0,0,1,1.88-1c.51,0,1,0,1.53,0,.08-.82.08-.82-.55-1.79H92.63l-.48,1.12H90.84a1.45,1.45,0,0,1-.09-.36C90.76,81.31,91.31,80.85,91.84,80.33Zm1.41,6.58a2.5,2.5,0,0,0,1.14-2.83H92.94l-.93.7v1.65Z"/><path class="cls-2" d="M241.69,87.74H240.6l-.25-.69-.43.72c-.67,0-1.14,0-1.6,0a9.05,9.05,0,0,1-1.1-.31,4,4,0,0,1-.44-2.75c0-.79,1-1.49,2-1.57.55,0,1.11,0,1.7,0V82l-.85-.72h-1l-.48,1.15h-1.3c0-.92.09-1.17,1-2.09h2.78l1,1Zm-3.63-3v1.42c.43.36.67.91,1.47.63l.92-1.25V84.09H239.1Z"/><path class="cls-2" d="M161.74,82.49h-1.3a1.89,1.89,0,0,1-.1-.41c0-.78.57-1.23,1.07-1.74h2.82l1,1.18v6.21h-1.11l-.25-.7-.44.82-2.65-.26a4.08,4.08,0,0,1-.13-3.73l1.53-.75h1.92l-.38-1.79h-1.55ZM163,86.82a2.44,2.44,0,0,0,1-2.74,2.62,2.62,0,0,0-2.38.71v1.33C162,86.4,162.23,87,163,86.82Z"/><path class="cls-2" d="M211,86.17V81.81l.89-1.19a4.25,4.25,0,0,1,3.88.24,5.86,5.86,0,0,1,.46,3.45h-3.79c-.61.81.27,1.42.15,2.14l1.31.49,1.29-1.65h.93c.49.73-.07,1.28-.32,1.87-1,.93-2.19.52-3.43.63C211.91,87.28,211.44,86.71,211,86.17Zm4-2.77a2.3,2.3,0,0,0-.69-2.09h-1.39a2.18,2.18,0,0,0-.62,2.09Z"/><path class="cls-2" d="M81.23,83.12l-.44-1.82H79.25l-.47,1.12H77.35c.3-.77.33-1.62,1.18-2.08h2.69l1.14,1.07v6.31l-1.13.06L81,87.06l-.46.66H78.44l-1-1V84.61l.41-.77,1.43-.72Zm-.14,1a2.38,2.38,0,0,0-2.42.65v1.33c.41.35.65.9,1.45.68l1-1.29Z"/><path class="cls-2" d="M52.79,87.8c-.72-.09-1.48-.41-2-.2-.74.28-1.43,0-2.12.27l-1.09-1.48v-6h1.51v6l1.38.51.76-.84c.13-.94.31-1.86.38-2.8s0-1.86,0-2.9l1.19-.07Z"/><path class="cls-2" d="M229.62,81.59l1.26-1.26h2.92a4.07,4.07,0,0,1,1.41,3.26,6.7,6.7,0,0,1-.29,2.5c-.48,1.28-.88,1.67-2.2,1.68-.57,0-1.13,0-1.71,0-.25-.25-.51-.5-.75-.76a2.16,2.16,0,0,1-.65-1.58C229.64,84.19,229.62,83,229.62,81.59Zm4,.36-.66-.65h-1.39l-.69,1.19c.18,1.3-.31,2.7.47,4.05l1.61.37-.12-.28.76-.48.28-2.34Z"/><path class="cls-2" d="M186.76,82c-.11,1.63.24,3.22-.41,4.82l-1,1h-2.6l-1.17-.86c-.72-1.7-.36-3.24-.49-4.81l1.3-1.71h3Zm-1.6-.22a1.86,1.86,0,0,0-2.36-.09,5.85,5.85,0,0,0-.18,4l.85,1.19h1C185.94,85.33,185.62,83.53,185.16,81.73Z"/><path class="cls-2" d="M41.81,80.33h2.81l1,1A8.21,8.21,0,0,1,46,85.31a2.25,2.25,0,0,1-1.51,2.29,2.84,2.84,0,0,1-.7.16c-.62,0-1.24,0-2,0l-1.35-1.6c0-1,.06-2,0-3a2.82,2.82,0,0,1,1.08-2.5Zm2,1H42.32a5.34,5.34,0,0,0-.68,3,2.65,2.65,0,0,0,1.18,2.5h.85c1.38-1.12,1.06-2.7,1.1-4.19Z"/><path class="cls-2" d="M204,87.77h-1.85a1.88,1.88,0,0,1-1.92-1.28c-.77-1.85-.63-4.95,1-6.17,1.13.12,2.31-.26,3.35.3l.82,1.21c0,1,0,2,0,3.13a2.72,2.72,0,0,1-1,2.38A6,6,0,0,0,204,87.77Zm-1.84-6.5.06.26-.71.37c-.16.6-.27.93-.34,1.26s-.22.67-.1.86a4.05,4.05,0,0,1,.3,2l.85.85,1.5-.41.43-.87c0-.86,0-1.84,0-2.82a2.15,2.15,0,0,0-.76-1.55Z"/><path class="cls-2" d="M118.25,81.27h-.93a2.87,2.87,0,0,0-1.09,2.44c0,1.33,0,2.66,0,4H115V80.36h1.07l.27.67.48-.72c1.07.09,2-.19,2.94.35a3,3,0,0,1,.47,2c0,1.69,0,3.39,0,5.11H119c0-1.47,0-3,0-4.43A2.46,2.46,0,0,0,118.25,81.27Z"/><path class="cls-2" d="M20,87.74H18.68V78.48H15.93v-1.2c2.18-.12,4.42,0,6.72-.06v1.19c-.82.18-1.74,0-2.69.11Z"/><path class="cls-2" d="M167.43,78.91l1.23-.54c0,.67.07,1.25.11,1.95h1.48v.89H168.8v4.94c.31.81,1.63-.1,1.82,1.2l-.62.26.14.15h-1.9l-.78-.86V81.3l-1.16-.07v-.84l1.13-.11Z"/><path class="cls-2" d="M208.5,78.32v2H210l.06.94h-1.5V86.1c.3.65.9.34,1.43.48v1.16h-2l-.73-.87V81.32l-1.2-.1v-.86h1.18V78.93Z"/><path class="cls-2" d="M225.37,87.72l-.38-.38v-7h1.43l.23.67.36-.69h1.63V81.5h-1.32l-.81,1v5.24Z"/><path class="cls-2" d="M147,80.36h1.14v7.35l-1.14.07Z"/><path class="cls-2" d="M235.47,28.22h-2.69v-3c.38,0,.82-.05,1.27-.06h1.42Z"/><path class="cls-2" d="M175.51,79.38H172.2v-.83h3.31Z"/><path class="cls-2" d="M147,78.42V77.29h1.2l.46,1.13Z"/></g></g></svg>