<?xml version="1.0" encoding="utf-8"?>
<!-- Generator: Adobe Illustrator 14.0.0, SVG Export Plug-In . SVG Version: 6.00 Build 43363)  -->
<!DOCTYPE svg PUBLIC "-//W3C//DTD SVG 1.1//EN" "http://www.w3.org/Graphics/SVG/1.1/DTD/svg11.dtd">
<svg version="1.1" id="Calque_1" xmlns="http://www.w3.org/2000/svg" xmlns:xlink="http://www.w3.org/1999/xlink" x="0px" y="0px"
	 width="140px" height="45px" viewBox="0 0 140 45" enable-background="new 0 0 140 45" xml:space="preserve" preserveAspectRatio="xMinYMid meet" >
<path fill="#5C883C" d="M16.726,12.413c0,5.511-2.731,6.688-2.731,6.688s6.626,6.054,6.626,13.383c0,6.027-3.344,10.5-9.789,10.5
	s-10.766-4.276-10.832-10.5c-0.088-8.222,6.77-13.423,6.77-13.423l1.417,2.626c0,0-1.696,6.653,1.492,6.402
	c2.691-0.212-0.814-5.648-0.814-5.648c-1.288-2.386-4.167-5.45-4.167-10.03c0-5.417,5.365-10.396,5.988-10.396
	S16.726,6.023,16.726,12.413z M12.31,16.9c0,0,1.29-4.849-1.069-4.188c-1.311,0.367,0,2.568,0,2.568L12.31,16.9z"/>
<linearGradient id="SVGID_1_" gradientUnits="userSpaceOnUse" x1="-573.8276" y1="519.3633" x2="-573.5341" y2="519.3633" gradientTransform="matrix(-16.247 -105.3433 -105.3433 16.247 45403.7617 -68846.3047)">
	<stop  offset="0" style="stop-color:#AFBD36"/>
	<stop  offset="0.1831" style="stop-color:#97AC39"/>
	<stop  offset="0.5242" style="stop-color:#77973C"/>
	<stop  offset="0.8087" style="stop-color:#638C3C"/>
	<stop  offset="1" style="stop-color:#5C883C"/>
</linearGradient>
<path fill="url(#SVGID_1_)" d="M10.258,9.615c0,0,0.544-0.192,0.544,0.478c0,0.504,0,0.716,0,0.716s0.013,0.198-0.347,0.406
	c-0.487,0.281-2.238,1.675-2.086,3.411c0.127,1.47,1.458,3.669,4.199,6.808c2.662,3.048,7.166,9.804,7.037,12.951
	c-0.115,2.814-1.2,4.355-3.149,5.655c-1.406,0.938-2.266,0.855-2.266,0.855s-0.578-0.047-0.145-0.535
	c0.435-0.491,1.887-2.074,1.808-5.019c-0.086-3.186-4.955-10.713-4.955-10.713s-4.771-7.05-4.771-9.519
	C6.126,10.986,10.258,9.615,10.258,9.615z"/>
<path fill="#4D7335" d="M11.323,12.666c0,0-1.781,0.022,1.021,4.189c0,0-0.449,1.196-1.193,1.993
	c-0.905,0.967,1.145,0.752,1.627,0.676c0.722-0.112,1.266-0.459,1.266-0.459c1.48,1.462,1.931,2.027,3.701,4.666
	c0,0-2.229-3.134-4.542-3.779c-0.711-0.198-2.353,0.317-2.611-0.192c-0.258-0.51,0.99-1.359,1.2-1.771
	C11.956,17.668,9.307,13.031,11.323,12.666z"/>
<linearGradient id="SVGID_2_" gradientUnits="userSpaceOnUse" x1="-553.4468" y1="528.4355" x2="-553.1534" y2="528.4355" gradientTransform="matrix(7.0819 57.9576 57.9576 -7.0819 -26694.9668 35821.8516)">
	<stop  offset="0" style="stop-color:#AFBD36"/>
	<stop  offset="0.1831" style="stop-color:#97AC39"/>
	<stop  offset="0.5242" style="stop-color:#77973C"/>
	<stop  offset="0.8087" style="stop-color:#638C3C"/>
	<stop  offset="1" style="stop-color:#5C883C"/>
</linearGradient>
<path fill="url(#SVGID_2_)" d="M16.438,12.792c0,3.034-1.199,5.743-2.965,6.405c-0.753,0.282-2.076,0.386-2.061,0.038
	c0.028-0.663,0.886,0.242,1.875-0.617c0.814-0.707,1.732-2.638,1.529-5.136c-0.319-3.905-2.691-5.445-3.079-5.726
	c-0.322-0.232-0.807-0.26-0.867-0.874c-0.098-0.997-0.209-2.914-0.209-2.914s-0.074-1.044,0.741-0.523
	C12.216,3.967,16.438,6.773,16.438,12.792z"/>
<linearGradient id="SVGID_3_" gradientUnits="userSpaceOnUse" x1="-556.7144" y1="527.9609" x2="-556.4203" y2="527.9609" gradientTransform="matrix(6.0318 71.3408 71.3408 -6.0318 -34299.8281 42921.0781)">
	<stop  offset="0" style="stop-color:#AFBD36"/>
	<stop  offset="0.1831" style="stop-color:#97AC39"/>
	<stop  offset="0.5242" style="stop-color:#77973C"/>
	<stop  offset="0.8087" style="stop-color:#638C3C"/>
	<stop  offset="1" style="stop-color:#5C883C"/>
</linearGradient>
<path fill="url(#SVGID_3_)" d="M7.115,19.911c0,0,0.019,0.104,0.421,0.448l0.375,0.686c0,0,0.188,0.202,0.11,0.361
	c-0.207,0.424-3.875,10.429,2.064,10.032c0,0,1.034-0.079,1.635-0.955c0.297-0.433,0.656-0.867,0.848-0.007
	c0.215,0.967,2.285,6.737-1.67,10.002C7.761,43.067-0.834,38.563,7.115,19.911z"/>
<path fill="#4D7335" d="M9.159,22.91c0,0,6.064,8.982,6.147,12.182c0.115,4.471-3.313,6.661-5.737,6.94
	c1.377-0.158,3.701-2.789,4.174-6.015C14.469,31.083,9.159,22.91,9.159,22.91z"/>
<path fill="#4D7335" d="M9.178,22.926c0,0,3.171,5.173,0.35,5.106c-2.82-0.064-1.506-5.711-1.34-6.345c0,0-2.147,6.724-0.254,8.397
	c1.646,1.454,3.376,0.624,3.701-0.638C11.96,28.186,12.173,27.501,9.178,22.926z"/>
<polygon fill="#4D7335" points="6.771,19.061 6.771,19.061 7.957,22.695 8.314,21.531 "/>
<path fill="#484221" d="M128.921,29.92c1.257,1.027,3.324,0.918,6.203-0.323v-2.418c-3.04-1.172-5.147-1.262-6.325-0.278
	C127.626,27.885,127.665,28.891,128.921,29.92z M131.847,15.858c2.383-0.173,4.297,0.287,5.743,1.375
	c1.447,1.09,2.249,2.496,2.41,4.22l-0.076,10.82c0.076,1.478-0.682,2.265-2.27,2.363c-1.589,0.101-2.45-0.375-2.586-1.421
	c-0.577,0.948-2.206,1.388-4.884,1.32c-2.677-0.067-4.544-0.718-5.603-1.948c-1.061-1.231-1.447-2.926-1.163-5.089
	c0.283-2.16,1.639-3.654,4.071-4.486c2.43-0.831,5.007-0.63,7.727,0.6c0.406-1.957-0.468-2.972-2.622-3.045
	c-2.153-0.074-3.947,0.253-5.38,0.979c-1.437,0.727-2.405,0.4-2.91-0.979s0.029-2.465,1.605-3.259
	C127.486,16.513,129.465,16.031,131.847,15.858z M110.42,20.344l0.019,3.934c3.324,0.813,4.956,0.1,4.893-2.143
	C115.27,19.896,113.633,19.299,110.42,20.344z M110.309,16.634c3.977-1.503,6.814-1.142,8.512,1.081
	c1.699,2.221,1.803,4.65,0.315,7.285c-0.617,1.046-1.577,1.711-2.882,1.992c1.121,0.47,2.254,1.59,3.398,3.36l2.77,3.749
	c1.563,1.611,2.626,2.645,3.185,3.094c0.562,0.446,0.826,1.095,0.794,1.938c-0.031,0.842-0.339,1.454-0.923,1.836
	s-1.3,0.504-2.143,0.37c-0.843-0.137-1.929-0.975-3.259-2.512l-1.624-2.289c-1.639-2.094-3.072-3.942-4.302-5.55
	c-1.232-1.605-2.413-2.304-3.546-2.097v4.229c-0.235,0.937-1.11,1.401-2.632,1.396c-1.519-0.009-2.304-0.631-2.354-1.875V17.226
	c-0.174-1.06,0.522-1.613,2.086-1.663S110.138,15.871,110.309,16.634z M92.877,29.92c1.258,1.027,3.324,0.918,6.205-0.323v-2.418
	c-3.041-1.172-5.148-1.262-6.326-0.278C91.583,27.885,91.622,28.891,92.877,29.92z M95.805,15.858
	c2.382-0.173,4.295,0.287,5.741,1.375c1.447,1.09,2.25,2.496,2.409,4.22l-0.073,10.82c0.073,1.478-0.683,2.265-2.271,2.363
	c-1.588,0.101-2.449-0.375-2.585-1.421c-0.577,0.948-2.206,1.388-4.883,1.32c-2.678-0.067-4.546-0.718-5.603-1.948
	c-1.061-1.231-1.447-2.926-1.165-5.089c0.282-2.16,1.64-3.654,4.072-4.486c2.43-0.831,5.006-0.63,7.727,0.6
	c0.407-1.957-0.467-2.972-2.622-3.045c-2.153-0.074-3.947,0.253-5.382,0.979c-1.435,0.727-2.404,0.4-2.908-0.979
	c-0.506-1.379,0.031-2.465,1.605-3.259C91.443,16.513,93.422,16.031,95.805,15.858z M73.988,10.06l-0.018,7.755
	c1.846-1.576,3.749-2.271,5.715-2.086c1.962,0.185,3.482,0.917,4.56,2.197c1.078,1.28,1.739,2.955,1.985,5.021
	c0.246,2.068-0.416,4.59-1.985,7.562c-1.569,2.974-1.81,5.171-0.721,6.592c1.09,1.423,1.483,2.634,1.183,3.639
	c-0.303,1.003-1.068,1.483-2.299,1.438c-1.231-0.041-2.314-0.924-3.25-2.648c-0.936-1.726-1.241-3.639-0.915-5.742
	c0.326-2.105,0.962-4.028,1.911-5.772c0.948-1.74,1.266-3.464,0.951-5.171c-0.314-1.704-1.538-2.51-3.675-2.418
	c-2.136,0.093-3.284,0.792-3.444,2.097l-0.018,10.321c0,1.132-0.825,1.724-2.475,1.773c-1.65,0.049-2.5-0.642-2.548-2.068
	l-0.053-22.452c0.135-1.193,0.975-1.782,2.521-1.763C72.957,8.352,73.815,8.927,73.988,10.06z M55.837,29.92
	c1.256,1.027,3.323,0.918,6.204-0.323v-2.418c-3.04-1.172-5.148-1.262-6.324-0.278C54.542,27.885,54.582,28.891,55.837,29.92z
	 M58.765,15.858c2.382-0.173,4.295,0.287,5.742,1.375c1.447,1.09,2.25,2.496,2.41,4.22l-0.074,10.82
	c0.074,1.478-0.683,2.265-2.271,2.363c-1.588,0.101-2.449-0.375-2.585-1.421c-0.579,0.948-2.207,1.388-4.883,1.32
	c-2.677-0.067-4.546-0.718-5.604-1.948c-1.058-1.231-1.446-2.926-1.163-5.089c0.283-2.159,1.64-3.654,4.072-4.486
	c2.431-0.831,5.007-0.63,7.727,0.6c0.406-1.957-0.468-2.972-2.622-3.045c-2.154-0.074-3.948,0.253-5.382,0.979
	c-1.434,0.727-2.404,0.4-2.909-0.979c-0.504-1.379,0.031-2.465,1.608-3.259C54.404,16.513,56.382,16.031,58.765,15.858z
	 M28.123,17.427c1.108-1.108,2.643-1.628,4.608-1.56c1.962,0.067,3.369,0.797,4.218,2.189c2.007-1.859,4.45-2.533,7.331-2.023
	c2.881,0.512,4.444,2.501,4.69,5.974l0.037,10.285c-0.135,1.503-0.914,2.266-2.335,2.289c-1.422,0.024-2.261-0.702-2.52-2.178
	l0.037-10.434c-0.283-1.267-1.203-1.902-2.76-1.902c-1.558,0-2.484,0.696-2.78,2.087l0.073,10.359
	c-0.209,1.402-1.049,2.117-2.52,2.142c-1.472,0.024-2.306-0.626-2.501-1.957l0.055-10.488c-0.308-1.279-1.28-1.927-2.917-1.938
	s-2.537,0.645-2.695,1.974l-0.019,10.563c0,1.157-0.825,1.761-2.474,1.809c-1.649,0.05-2.5-0.658-2.548-2.123l-0.056-14.882
	c0.258-1.146,1.129-1.726,2.613-1.745C27.141,15.849,27.962,16.369,28.123,17.427z"/>
<linearGradient id="SVGID_4_" gradientUnits="userSpaceOnUse" x1="-513.2163" y1="520.0791" x2="-512.863" y2="520.0791" gradientTransform="matrix(8.0662 13.1992 13.1992 -8.0662 -2691.7957 10983.3818)">
	<stop  offset="0" style="stop-color:#9C9A94"/>
	<stop  offset="0.6628" style="stop-color:#605B3F"/>
	<stop  offset="1" style="stop-color:#484221"/>
</linearGradient>
<path fill="url(#SVGID_4_)" d="M33.24,16.256c-0.62-0.247-0.824-0.362-0.303-0.378c0,0,2.711-0.077,4.04,2.199
	c0.405,0.694-1.209,1.038-1.745,0.057C34.89,17.508,34.283,16.674,33.24,16.256z"/>
<linearGradient id="SVGID_5_" gradientUnits="userSpaceOnUse" x1="-481.1992" y1="512.3711" x2="-480.8455" y2="512.3711" gradientTransform="matrix(4.8134 8.0794 8.0794 -4.8134 -1751.417 6361.6768)">
	<stop  offset="0" style="stop-color:#9C9A94"/>
	<stop  offset="0.6628" style="stop-color:#605B3F"/>
	<stop  offset="1" style="stop-color:#484221"/>
</linearGradient>
<path fill="url(#SVGID_5_)" d="M72.357,8.787c-0.432-0.313-0.751-0.439-0.413-0.414c0,0,1.517,0.037,1.957,1.316
	c0.261,0.762-0.242,1.534-0.777,0.552C72.782,9.615,72.998,9.251,72.357,8.787z"/>
<linearGradient id="SVGID_6_" gradientUnits="userSpaceOnUse" x1="-470.0239" y1="510.7158" x2="-469.6721" y2="510.7158" gradientTransform="matrix(5.1206 6.886 6.886 -5.1206 -1083.9194 5867.0254)">
	<stop  offset="0" style="stop-color:#9C9A94"/>
	<stop  offset="0.6628" style="stop-color:#605B3F"/>
	<stop  offset="1" style="stop-color:#484221"/>
</linearGradient>
<path fill="url(#SVGID_6_)" d="M26.242,16.22c-0.493-0.247-0.549-0.342-0.239-0.344c0,0,1.909-0.075,2.117,1.538
	c0.104,0.797-0.852,0.758-0.929,0.038C27.126,16.842,26.627,16.413,26.242,16.22z"/>
<linearGradient id="SVGID_7_" gradientUnits="userSpaceOnUse" x1="-450.8643" y1="495.3848" x2="-450.5111" y2="495.3848" gradientTransform="matrix(3.546 5.4467 5.4467 -3.546 -990.7164 4227.3467)">
	<stop  offset="0" style="stop-color:#9C9A94"/>
	<stop  offset="0.6628" style="stop-color:#605B3F"/>
	<stop  offset="1" style="stop-color:#484221"/>
</linearGradient>
<path fill="url(#SVGID_7_)" d="M108.883,15.849c-0.407-0.228-0.457-0.277-0.244-0.26c0,0,1.02,0.017,1.531,0.668
	c0.496,0.633-0.611,1.139-0.703,0.581C109.397,16.427,109.261,16.059,108.883,15.849z"/>
<linearGradient id="SVGID_8_" gradientUnits="userSpaceOnUse" x1="-537.7197" y1="520.9912" x2="-537.3658" y2="520.9912" gradientTransform="matrix(11.9818 24.2734 24.2734 -11.9818 -6122.8486 19308.7598)">
	<stop  offset="0" style="stop-color:#9C9A94"/>
	<stop  offset="0.6628" style="stop-color:#605B3F"/>
	<stop  offset="1" style="stop-color:#484221"/>
</linearGradient>
<path fill="url(#SVGID_8_)" d="M80.307,16.244c-0.617-0.256-1.403-0.561-0.741-0.515c0.662,0.046,5.249,0.16,6.471,6.061
	c0.163,0.788-1.124,0.972-1.407-0.107c-0.326-1.242-1.488-3.411-2.223-4.069C81.733,17.007,81.032,16.543,80.307,16.244z"/>
<linearGradient id="SVGID_9_" gradientUnits="userSpaceOnUse" x1="-538.4331" y1="514.6406" x2="-538.0802" y2="514.6406" gradientTransform="matrix(13.5381 21.7876 21.7876 -13.5381 -3789.0742 18712.668)">
	<stop  offset="0" style="stop-color:#9C9A94"/>
	<stop  offset="0.6628" style="stop-color:#605B3F"/>
	<stop  offset="1" style="stop-color:#484221"/>
</linearGradient>
<path fill="url(#SVGID_9_)" d="M134.268,16.337c-0.616-0.254-1.012-0.443-0.552-0.473c0.592-0.04,5.682,0.572,6.271,5.561
	c0.095,0.799-1.489,0.489-1.774-0.591c-0.326-1.242-1.305-2.875-2.09-3.471C135.401,16.814,134.992,16.636,134.268,16.337z"/>
<linearGradient id="SVGID_10_" gradientUnits="userSpaceOnUse" x1="-520.9746" y1="489.6328" x2="-520.6212" y2="489.6328" gradientTransform="matrix(10.5615 8.0266 8.0266 -10.5615 1703.2947 9374.5586)">
	<stop  offset="0" style="stop-color:#9C9A94"/>
	<stop  offset="0.6628" style="stop-color:#605B3F"/>
	<stop  offset="1" style="stop-color:#484221"/>
</linearGradient>
<path fill="url(#SVGID_10_)" d="M131.479,22.812c-0.373-0.079-0.854-0.261-0.334-0.276c0,0,2.031,0.137,4.024,1.086
	c0.574,0.273-0.769,0.936-1.377,0.436C133.121,23.505,132.048,22.932,131.479,22.812z"/>
<linearGradient id="SVGID_11_" gradientUnits="userSpaceOnUse" x1="-496.5552" y1="504.5273" x2="-496.2034" y2="504.5273" gradientTransform="matrix(5.4284 8.6106 8.6106 -5.4284 -1520.3319 7042.6963)">
	<stop  offset="0" style="stop-color:#9C9A94"/>
	<stop  offset="0.6628" style="stop-color:#605B3F"/>
	<stop  offset="1" style="stop-color:#484221"/>
</linearGradient>
<path fill="url(#SVGID_11_)" d="M128.322,29.322c-0.298-0.364,0.064,0.671,0.241,0.887c0,0,0.613,1.002,1.7,0.974
	c0.637-0.018,1.395-0.491,0.375-0.588C129.622,30.496,128.965,30.111,128.322,29.322z"/>
<linearGradient id="SVGID_12_" gradientUnits="userSpaceOnUse" x1="-550.4878" y1="517.7813" x2="-550.1345" y2="517.7813" gradientTransform="matrix(25.0204 35.5673 35.5673 -25.0204 -4525.377 32561.0137)">
	<stop  offset="0" style="stop-color:#9C9A94"/>
	<stop  offset="0.6628" style="stop-color:#605B3F"/>
	<stop  offset="1" style="stop-color:#484221"/>
</linearGradient>
<path fill="url(#SVGID_12_)" d="M121.294,33.771c-0.671-0.984-1.319-2.231-2.111-3.637c-0.234-0.417-0.457-1.021-0.156-0.647
	c0.685,0.861,2.659,3.639,3.401,4.635c1.31,1.368,2.719,2.659,3.353,3.236c0.602,0.429,0.965,2.363,0.157,2.022
	C125.603,39.238,124.386,38.311,121.294,33.771z"/>
<linearGradient id="SVGID_13_" gradientUnits="userSpaceOnUse" x1="-513.103" y1="536.0938" x2="-512.7487" y2="536.0938" gradientTransform="matrix(2.3734 13.3797 13.3797 -2.3734 -5871.2744 8173.8018)">
	<stop  offset="0" style="stop-color:#9C9A94"/>
	<stop  offset="0.6628" style="stop-color:#605B3F"/>
	<stop  offset="1" style="stop-color:#484221"/>
</linearGradient>
<path fill="url(#SVGID_13_)" d="M83.67,38.249c-0.228-0.607-0.271-1.302,0.063-0.852c0,0,0.817,0.992,1.037,2.197
	c0.155,0.864-0.158,1.976-0.695,0.994C83.733,39.963,83.835,38.688,83.67,38.249z"/>
<linearGradient id="SVGID_14_" gradientUnits="userSpaceOnUse" x1="-537.0752" y1="516.8281" x2="-536.7225" y2="516.8281" gradientTransform="matrix(13.5387 21.7885 21.7885 -13.5387 -3891.2546 18713.5039)">
	<stop  offset="0" style="stop-color:#9C9A94"/>
	<stop  offset="0.6628" style="stop-color:#605B3F"/>
	<stop  offset="1" style="stop-color:#484221"/>
</linearGradient>
<path fill="url(#SVGID_14_)" d="M98.244,16.342c-0.618-0.255-1.012-0.443-0.553-0.474c0.592-0.04,5.681,0.573,6.271,5.562
	c0.097,0.799-1.488,0.49-1.773-0.592c-0.327-1.242-1.306-2.875-2.092-3.471C99.378,16.821,98.968,16.641,98.244,16.342z"/>
<linearGradient id="SVGID_15_" gradientUnits="userSpaceOnUse" x1="-517.0132" y1="492.6406" x2="-516.6603" y2="492.6406" gradientTransform="matrix(10.5615 8.0266 8.0266 -10.5615 1601.3259 9374.4961)">
	<stop  offset="0" style="stop-color:#9C9A94"/>
	<stop  offset="0.6628" style="stop-color:#605B3F"/>
	<stop  offset="1" style="stop-color:#484221"/>
</linearGradient>
<path fill="url(#SVGID_15_)" d="M95.481,22.791c-0.374-0.078-0.855-0.26-0.335-0.275c0,0,2.032,0.139,4.024,1.085
	c0.576,0.273-0.768,0.938-1.377,0.437C97.123,23.484,96.05,22.911,95.481,22.791z"/>
<linearGradient id="SVGID_16_" gradientUnits="userSpaceOnUse" x1="-494.7427" y1="510.293" x2="-494.3896" y2="510.293" gradientTransform="matrix(5.5531 8.8082 8.8082 -5.5531 -1655.0157 7219.7041)">
	<stop  offset="0" style="stop-color:#9C9A94"/>
	<stop  offset="0.6628" style="stop-color:#605B3F"/>
	<stop  offset="1" style="stop-color:#484221"/>
</linearGradient>
<path fill="url(#SVGID_16_)" d="M92.265,29.319c-0.365-0.428,0.154,0.64,0.294,0.897c0,0,0.613,1.002,1.701,0.974
	c0.637-0.018,1.395-0.491,0.374-0.588C93.617,30.504,92.877,30.036,92.265,29.319z"/>
<linearGradient id="SVGID_17_" gradientUnits="userSpaceOnUse" x1="-535.6772" y1="519.0771" x2="-535.3243" y2="519.0771" gradientTransform="matrix(13.5381 21.7876 21.7876 -13.5381 -3996.1055 18712.6992)">
	<stop  offset="0" style="stop-color:#9C9A94"/>
	<stop  offset="0.6628" style="stop-color:#605B3F"/>
	<stop  offset="1" style="stop-color:#484221"/>
</linearGradient>
<path fill="url(#SVGID_17_)" d="M61.185,16.341c-0.617-0.256-1.012-0.444-0.552-0.475c0.592-0.039,5.68,0.572,6.272,5.562
	c0.095,0.799-1.49,0.49-1.775-0.592c-0.326-1.242-1.304-2.875-2.09-3.471C62.32,16.82,61.91,16.639,61.185,16.341z"/>
<linearGradient id="SVGID_18_" gradientUnits="userSpaceOnUse" x1="-512.9414" y1="495.7383" x2="-512.588" y2="495.7383" gradientTransform="matrix(10.5615 8.0266 8.0266 -10.5615 1496.4197 9374.5586)">
	<stop  offset="0" style="stop-color:#9C9A94"/>
	<stop  offset="0.6628" style="stop-color:#605B3F"/>
	<stop  offset="1" style="stop-color:#484221"/>
</linearGradient>
<path fill="url(#SVGID_18_)" d="M58.449,22.814c-0.375-0.078-0.856-0.259-0.335-0.277c0,0,2.031,0.14,4.023,1.086
	c0.576,0.274-0.767,0.938-1.376,0.438C60.09,23.508,59.016,22.936,58.449,22.814z"/>
<linearGradient id="SVGID_19_" gradientUnits="userSpaceOnUse" x1="-491.1812" y1="515.7988" x2="-490.8281" y2="515.7988" gradientTransform="matrix(5.5467 8.7982 8.7982 -5.5467 -1758.2955 7210.707)">
	<stop  offset="0" style="stop-color:#9C9A94"/>
	<stop  offset="0.6628" style="stop-color:#605B3F"/>
	<stop  offset="1" style="stop-color:#484221"/>
</linearGradient>
<path fill="url(#SVGID_19_)" d="M55.219,29.318c-0.365-0.429,0.207,0.656,0.295,0.896c0,0,0.612,1.002,1.7,0.974
	c0.638-0.018,1.395-0.491,0.374-0.588C56.574,30.502,55.833,30.034,55.219,29.318z"/>
<linearGradient id="SVGID_20_" gradientUnits="userSpaceOnUse" x1="-534.2783" y1="515.0078" x2="-533.9249" y2="515.0078" gradientTransform="matrix(12.1137 19.4953 19.4953 -12.1137 -3452.6499 16668.9883)">
	<stop  offset="0" style="stop-color:#9C9A94"/>
	<stop  offset="0.6628" style="stop-color:#605B3F"/>
	<stop  offset="1" style="stop-color:#484221"/>
</linearGradient>
<path fill="url(#SVGID_20_)" d="M115.462,16.098c-0.535-0.243-0.7-0.369-0.302-0.354c1.229,0.05,4.491,0.948,5.005,5.285
	c0.09,0.761-1.29,0.466-1.536-0.564c-0.283-1.185-0.922-2.762-1.602-3.331C116.402,16.613,116.088,16.383,115.462,16.098z"/>
<linearGradient id="SVGID_21_" gradientUnits="userSpaceOnUse" x1="-534.8286" y1="520.1465" x2="-534.4752" y2="520.1465" gradientTransform="matrix(13.4647 21.6695 21.6695 -13.4647 -4026.5427 18607.3086)">
	<stop  offset="0" style="stop-color:#9C9A94"/>
	<stop  offset="0.6628" style="stop-color:#605B3F"/>
	<stop  offset="1" style="stop-color:#484221"/>
</linearGradient>
<path fill="url(#SVGID_21_)" d="M43.297,16.35c-0.606-0.255-0.994-0.49-0.542-0.474c1.049,0.039,5.62,0.021,6.161,5.562
	c0.08,0.801-1.463,0.49-1.744-0.592c-0.321-1.242-1.282-2.875-2.053-3.471C44.412,16.829,44.009,16.649,43.297,16.35z"/>
</svg>
