<?xml version="1.0" standalone="no"?>
<!DOCTYPE svg PUBLIC "-//W3C//DTD SVG 1.1//EN" "http://www.w3.org/Graphics/SVG/1.1/DTD/svg11.dtd" >
<svg xmlns="http://www.w3.org/2000/svg">
<metadata></metadata>
<defs>
<font id="patrick_handregular" horiz-adv-x="905" >
<font-face units-per-em="2048" ascent="1638" descent="-410" />
<missing-glyph horiz-adv-x="471" />
<glyph horiz-adv-x="0" />
<glyph horiz-adv-x="0" />
<glyph horiz-adv-x="682" />
<glyph unicode="&#xd;" horiz-adv-x="681" />
<glyph unicode=" "  horiz-adv-x="471" />
<glyph unicode="&#x09;" horiz-adv-x="471" />
<glyph unicode="&#xa0;" horiz-adv-x="471" />
<glyph unicode="!" horiz-adv-x="505" d="M336 1409l-19 -698q0 -113 2 -148q-8 -27 -31.5 -47t-52 -20t-47.5 45q-31 516 -30 868q18 51 94 51t84 -51zM164 172q0 37 28.5 67.5t76.5 30.5t69.5 -18.5t21.5 -79.5q0 -109 -90 -109q-45 0 -75.5 36t-30.5 73z" />
<glyph unicode="&#x22;" horiz-adv-x="620" d="M163.5 1120q-26.5 0 -47 19.5t-26.5 54.5l16 305q10 63 70 64q72 0 72 -140q0 -35 -7.5 -90t-9.5 -137q-2 -35 -21.5 -55.5t-46 -20.5zM424 1546q55 0 68 -61l-11 -256q0 -35 -20.5 -55.5t-44.5 -20.5q-68 0 -74 68q0 98 6 129.5t6 126.5q4 31 24.5 50t45.5 19z" />
<glyph unicode="#" horiz-adv-x="935" d="M893 641q0 -20 -14.5 -40.5t-22.5 -21.5t-29 -1l-90 4q-29 -68 -50 -139.5t-32 -90.5h80q53 -25 53 -74t-59 -59h-100q-2 -14 -8.5 -77.5t-22.5 -106.5t-63.5 -43t-57.5 55l23 166l-189 -8l-10 -64q-16 -90 -35 -116q-18 -23 -43.5 -23t-44 19.5t-20.5 50.5l14 106 q2 25 2 27h-35q-31 4 -49 23.5t-18 44t21.5 44t51.5 19.5h66q25 102 82 231q-106 -4 -130 -3t-43.5 19.5t-19.5 45.5q0 47 52.5 61.5t134.5 22.5l65 8q14 31 23 92q20 137 86 137q70 0 69 -78q0 -41 -30 -137q41 0 147 -8q8 25 18.5 78t18.5 76q20 68 68 67q61 0 61 -84 q0 -47 -35 -151q20 0 74 -15q41 -12 41 -57zM440 590q-16 -31 -96 -248q23 0 182 4q23 94 66 252q-97 0 -152 -8z" />
<glyph unicode="$" horiz-adv-x="1038" d="M901 1047q-43 0 -63 49q-27 106 -201 125v-56l-12 -426q348 -129 348 -446q0 -154 -123 -219.5t-268 -65.5v-49q-2 -35 -24.5 -57.5t-47.5 -22.5q-59 0 -70 74v57q-119 33 -218 105.5t-99 146.5q0 31 18.5 51.5t44 20.5t70.5 -39q2 -2 35 -33q104 -94 160 -115 q8 98 10 243t14 257q-244 92 -305 189q-25 41 -25 115.5t41 164.5t116 156.5t175 87.5v57q4 31 24.5 48.5t45.5 17.5q51 0 69 -60v-57q131 -10 229.5 -75.5t129.5 -168.5q-4 -47 -39 -67q-15 -8 -35 -8zM489 958l7 185q0 55 -2 71q-88 -23 -147.5 -105.5t-59.5 -166.5 q6 -90 202 -154v170zM777 465q-50 70 -171 125q-6 -61 -9 -184t-9 -281q240 18 239.5 144t-50.5 196z" />
<glyph unicode="%" horiz-adv-x="1316" d="M1104 1227q0 -35 -113 -197q-68 -84 -336 -510q-172 -268 -264 -422q-53 -84 -105.5 -84t-76.5 37q-10 16 -10 37t17 55.5t123.5 162.5t245 358.5t206 337t92.5 157.5q39 90 100 144q39 27 69.5 26.5t41 -15t10.5 -48.5v-39zM137 1171q96 154 293 154q106 0 178 -61.5 t72 -185.5t-107.5 -244.5t-238.5 -120.5q-96 0 -171 75.5t-75 190t49 192.5zM526 1055q0 150 -92 149.5t-144 -61t-52 -142t21.5 -106.5t86 -25t122.5 53.5t58 131.5zM766 493.5q102 98.5 219 98.5t187.5 -83t70.5 -207t-92 -206t-218 -82t-197.5 64.5t-71.5 190.5 t102 224.5zM815 289q0 -133 127 -133q55 0 110.5 51t55.5 102q0 90 -47 127q-23 16 -53 17q-74 0 -133.5 -46t-59.5 -118z" />
<glyph unicode="&#x26;" horiz-adv-x="1085" d="M738.5 890q-56.5 -71 -185.5 -151q25 -37 80 -112.5t67 -94.5l64 -104q61 100 72 152q16 61 84 61q35 0 57 -19.5t22 -52.5q0 -80 -159 -272q63 -123 94 -213q-4 -31 -28.5 -53.5t-55.5 -22.5t-55 25q-16 25 -26.5 55.5t-35.5 87.5q-94 -100 -157.5 -136t-146.5 -36 t-167 65.5t-127 161.5q-43 86 -43 172q0 135 69.5 218.5t205.5 160.5q-96 174 -96.5 299t76.5 199t185.5 74t185.5 -90t77 -196.5t-56.5 -177.5zM537 1198q-106 0 -111 -172q10 -88 59 -176q143 86 143.5 171t-30.5 132q-26 45 -61 45zM426 178q106 0 236 131 q-8 12 -20.5 31.5t-36 55.5t-70 100.5t-82.5 136.5l-17 29q-66 -47 -92 -72q-92 -80 -92 -185.5t72 -181.5q41 -45 102 -45z" />
<glyph unicode="'" horiz-adv-x="335" d="M163.5 1341q-26.5 0 -47 19.5t-26.5 54.5l16 305q10 63 70 64q72 0 72 -139q0 -35 -7.5 -90.5t-9.5 -137.5q-2 -35 -21.5 -55.5t-46 -20.5z" />
<glyph unicode="(" horiz-adv-x="684" d="M148.5 1021q25.5 126 76.5 223t124 208t128 145q23 12 47.5 12.5t51 -20t26.5 -38t-93 -149.5t-124 -179t-56.5 -116t-36.5 -172.5t-11 -246.5t45 -319t100 -236q174 -188 174 -233q0 -23 -28.5 -36.5t-64.5 -13.5t-63 25q-182 182 -251.5 363.5t-69.5 419t25.5 363.5z " />
<glyph unicode=")" horiz-adv-x="745" d="M554 344q-50 -156 -198 -358q-74 -100 -100.5 -119t-56 -19t-54 21.5t-24.5 44.5q0 6 111.5 166t150.5 237.5t53.5 197.5t14.5 266.5t-46.5 323.5t-101.5 236q-180 186 -180 240q0 18 29.5 30.5t67.5 12.5t52 -18q195 -195 263.5 -380.5t68.5 -455.5t-50 -426z" />
<glyph unicode="*" horiz-adv-x="827" d="M391.5 776q-59.5 0 -72.5 74q0 82 9 147q-113 -78 -154 -77.5t-61 32.5q-10 16 -10.5 41t53.5 66q31 20 104 61q-117 109 -145 131q-27 27 -27 56.5t19.5 50t48 20.5t58.5 -24.5t43 -36.5t19 -19l76 -79q2 14 4 71.5t6.5 90t22.5 62.5t51 30q51 0 70 -62l-10 -133 q68 39 153 76h10q31 0 52.5 -19.5t21.5 -44.5q0 -49 -94 -98q-10 -6 -23.5 -13.5t-59.5 -35t-73 -39.5q31 -25 97 -53q137 -59 137 -107q0 -31 -19.5 -50.5t-54.5 -19.5q-72 0 -178 76q-2 -6 -3 -24.5t-2 -29.5t-1 -32q-8 -88 -67.5 -88z" />
<glyph unicode="+" horiz-adv-x="983" d="M418 567v17l-4 143q0 207 102 207q47 0 64 -60l-5 -307h259q59 -10 59 -55q0 -33 -24.5 -62.5t-59.5 -39.5h-236q-2 -14 -2 -48v-98v-14q0 -225 -98 -225q-63 0 -63 71q0 209 6 314h-277q-68 0 -67 55q0 33 27.5 65.5t64.5 36.5h254z" />
<glyph unicode="," horiz-adv-x="413" d="M231.5 213q55.5 0 73.5 -57q0 -135 -43 -244q-14 -39 -41.5 -65.5t-58.5 -26.5q-68 0 -68 71q0 23 6 43q63 72 64 216q12 63 67.5 63z" />
<glyph unicode="-" horiz-adv-x="827" d="M311 403l-170 -4q-29 0 -48 20.5t-19 58.5t24.5 62.5t69.5 24.5h111h296h103q76 -4 76 -78q0 -35 -23.5 -60.5t-68.5 -25.5z" />
<glyph unicode="." horiz-adv-x="438" d="M297 213q33 -33 39 -90q0 -45 -33 -83t-77 -38t-78.5 23.5t-34.5 72.5t31.5 98.5t75.5 49.5t77 -33z" />
<glyph unicode="/" horiz-adv-x="866" d="M90 -29q0 8 6 29q133 313 291 727t291 733q29 53 84 53q25 0 41 -14t16 -37.5t-51 -142.5t-246.5 -619.5t-300.5 -740.5q-35 -47 -76 -47q-55 0 -55 59z" />
<glyph unicode="0" horiz-adv-x="917" d="M63 647q0 274 99 483q49 106 133 168t192 62q160 0 261.5 -208t101.5 -493.5t-94 -473t-267 -187.5q-426 0 -426 649zM469 186q74 0 124 77t68.5 172t18.5 248t-41 325q-20 94 -62 150t-102 56q-80 0 -137 -96q-102 -174 -102 -463q0 -188 70.5 -328.5t162.5 -140.5z" />
<glyph unicode="1" horiz-adv-x="743" d="M647 96q0 -100 -108 -100q-23 0 -40.5 19.5t-17.5 60.5l-6 520q0 258 6 485q-70 -61 -135 -141t-89 -106.5t-61.5 -52t-70.5 -25.5t-52.5 22.5t-19.5 55t48.5 89t355.5 382.5q47 43 118 43q35 0 57.5 -20.5t22.5 -47.5l-14 -551z" />
<glyph unicode="2" horiz-adv-x="958" d="M600 -4l-301 4h-41q-203 0 -203 78q0 55 20.5 104t39 74t74 82t80 86t148.5 145.5t186.5 210.5t62.5 199q0 162 -129 209q-37 12 -76 12q-88 0 -176 -76q-35 -33 -74 -32q-12 0 -23 2q-51 12 -51 71q0 80 113 133q121 57 263 57.5t233.5 -103t91.5 -257.5 q0 -219 -136 -377q-63 -74 -129 -137q-207 -197 -276 -299q92 -6 228.5 -6t336.5 17q31 -6 50.5 -28t19.5 -48q0 -70 -74 -97q-74 -24 -258 -24z" />
<glyph unicode="3" horiz-adv-x="917" d="M446 1196q-121 0 -225 -104q-29 -20 -51.5 -20.5t-38.5 3.5q-47 14 -47 66q0 84 106.5 147.5t252 63.5t242.5 -77t97 -200t-27.5 -205t-119.5 -135q217 -82 217 -295q0 -180 -108.5 -310t-265 -130t-275.5 75t-119 169q0 18 20.5 42.5t59.5 24.5t84 -35.5t102.5 -71.5 t128.5 -36q205 0 205 256q0 98 -70.5 158.5t-199.5 62.5q-27 2 -40.5 4t-35 18.5t-21.5 51.5q0 74 82 80t146.5 73.5t64.5 169.5q0 57 -49 105.5t-115 48.5z" />
<glyph unicode="4" horiz-adv-x="768" d="M516 453q-74 -12 -209 -12.5t-184 44.5t-49 195.5t22.5 331t50 265.5t109.5 85q55 0 63 -47v-39t-12 -76q-49 -360 -49 -514q0 -37 2 -61q37 -8 99.5 -8.5t158.5 12.5q4 43 4 115.5t2 121.5t14.5 69.5t71 20.5t73.5 -20.5t15 -56t-6 -149.5t-6 -640q0 -92 -90 -92h-8 q-76 0 -76 125v113z" />
<glyph unicode="5" horiz-adv-x="866" d="M248 883q84 31 161.5 30.5t150.5 -25t133.5 -75.5t97 -140t36.5 -206q0 -197 -114.5 -332t-265 -135t-264 68.5t-113.5 150.5q0 39 9 58.5t33.5 32t44 12.5t53.5 -24t95.5 -67t141 -43t141 81t61.5 177q0 276 -248 277q-53 0 -123.5 -10.5t-92 -12.5t-58.5 15 q-43 41 -43 261t10 284.5t35 74.5q43 18 257 18.5t343 -40.5q41 -25 41 -71t-25.5 -74.5t-54.5 -22.5q-170 37 -342 37q-53 0 -106 -4q0 -80 6 -295z" />
<glyph unicode="6" horiz-adv-x="817" d="M404.5 960.5q-109.5 -219.5 -119.5 -262.5q86 23 175 23t167 -49q127 -84 127 -271q0 -408 -398 -409h-6q-145 0 -208.5 101.5t-69.5 268.5q0 389 293 859q49 82 85.5 106.5t58 24.5t44 -16.5t22.5 -45t-30.5 -69.5t-140 -260.5zM554 516q-46 45 -124 45t-115 -12 q-29 -12 -45 -31.5t-29.5 -60.5t-13.5 -112t40 -123t98 -52q115 0 175 67.5t60 150.5t-46 128z" />
<glyph unicode="7" horiz-adv-x="1013" d="M694 733l-16 -645q0 -45 -30 -67.5t-66 -22.5q-57 0 -58 154q0 317 19 585l-209 -12q-25 -2 -45.5 23.5t-20.5 52.5q0 72 86 71l201 2l20 248q-70 25 -356 70q-111 18 -131 22q-53 10 -53 80q0 25 20.5 47.5t58.5 22.5t307 -44t298 -71q12 -10 12 -75q0 -31 -14 -166 q-12 -94 -15 -129l103 6h46t54.5 -14.5t22.5 -54.5t-29 -59.5t-111 -21.5z" />
<glyph unicode="8" horiz-adv-x="886" d="M698.5 1290.5q100.5 -71.5 100.5 -203.5q0 -186 -201 -321q117 -125 166 -215q53 -98 53 -233.5t-100 -223.5q-109 -94 -272.5 -94t-256.5 82q-96 86 -96 235q0 244 236 431q-88 47 -152 145q-66 100 -65.5 212t90.5 181q98 76 247.5 76t250 -71.5zM256 1077 q0 -41 24.5 -77.5t49 -55t67.5 -47.5t58 -39q66 49 88 66.5t52 49.5t37 55.5t6 70.5t-57.5 83t-117.5 36h-12q-195 -17 -195 -142zM244 342v-18q2 -80 68.5 -123t164.5 -43q92 0 133 51t40 125t-49 147.5t-152 180.5q-104 -72 -154.5 -156t-50.5 -164z" />
<glyph unicode="9" horiz-adv-x="751" d="M694 1067l-2 -205v-387l4 -389q0 -37 -31.5 -60.5t-59 -23.5t-44 25.5t-18.5 58.5q-14 301 -15 623q-53 -70 -215 -70q-111 0 -182.5 114.5t-71.5 247.5q0 176 110 269.5t277.5 93.5t231.5 -129q16 -35 16 -168zM532 1018l3 100q0 49 -8.5 64.5t-20.5 23.5 q-14 14 -33.5 14.5t-51.5 -7t-82 -29t-88 -71.5t-38 -130t41 -131t86 -51q12 0 27 4q123 33 165 65v148z" />
<glyph unicode=":" horiz-adv-x="475" d="M304 825.5q34 -32.5 40 -90.5q0 -45 -34 -83t-77 -38t-77.5 25t-34.5 73t30.5 97t74.5 49t78 -32.5zM254 231q16 0 41 -10q14 -8 31.5 -45t17.5 -73.5t-35 -68.5t-78 -32t-70.5 32t-27.5 81q0 116 121 116z" />
<glyph unicode=";" horiz-adv-x="475" d="M304 820q34 -32 40 -91q0 -43 -32.5 -80t-67.5 -37q-68 0 -103 35q-20 18 -20 49q0 76 39 116t74.5 40t69.5 -32zM287.5 -100.5q-56.5 -75.5 -104.5 -75.5t-48 31q0 14 42 66t52 89q-45 0 -79.5 35t-34.5 82t28.5 82t75.5 35t74 -19q51 -33 51 -141.5t-56.5 -184z" />
<glyph unicode="&#x3c;" horiz-adv-x="811" d="M53 483q0 37 35 60q285 236 524 393q20 10 46 10t47.5 -22.5t21.5 -51t-16 -51.5q-20 -14 -467 -340q49 -37 220 -151.5t251 -179.5q16 -27 16 -50.5t-26.5 -47t-54 -23.5t-36.5 6q-86 68 -255 184.5t-275 200.5q-31 26 -31 63z" />
<glyph unicode="=" horiz-adv-x="1171" d="M954.5 796.5q-16.5 -26.5 -36.5 -34.5q-133 -8 -242 -8l-389 8q-49 0 -49 49q0 27 17 53.5t42 30.5l389 -8q106 0 246 8q39 -8 39 -40t-16.5 -58.5zM971 506q0 -27 -15.5 -51.5t-37.5 -28.5l-648 -8q-47 0 -47 51q0 31 16.5 56.5t41.5 29.5q195 2 645 2q45 -2 45 -51z " />
<glyph unicode="&#x3e;" horiz-adv-x="819" d="M188.5 946q22.5 -8 54 -27.5t59.5 -39t77 -54t131 -90t215 -164.5q45 -39 45 -72.5t-33 -68.5l-36.5 -36.5t-100.5 -76.5l-61 -43q-41 -29 -143.5 -98.5t-188.5 -140.5q-10 -6 -39 -6t-54.5 24.5t-25.5 54t12 48.5q98 72 255 178t233 166q-59 45 -186.5 130t-288.5 197 q-27 33 -27 62t17.5 47t40 18t45 -8z" />
<glyph unicode="?" horiz-adv-x="753" d="M569 1167q0 49 -52 88t-105.5 39t-98.5 -23.5t-65 -56.5q-57 -82 -88 -81q-88 0 -88 86q0 78 108.5 158.5t227.5 80.5q168 0 266 -137q53 -76 53 -154q0 -135 -111 -260q-47 -53 -94 -100q-113 -113 -112.5 -149.5t28.5 -82.5q27 -45 27 -61t-10 -37q-25 -37 -71 -37 t-93 62.5t-47 138.5q0 133 100 242q47 51 88 86q137 128 137 198zM320.5 239.5q27.5 30.5 76.5 30.5t70.5 -18.5t21.5 -79.5q0 -109 -98 -109q-37 0 -67.5 37t-30.5 73t27.5 66.5z" />
<glyph unicode="@" horiz-adv-x="1126" d="M590 291v6q-14 -2 -64 -2q-147 0 -196 59q-31 39 -31 89.5t41 111.5t103.5 99t109.5 38t84 -12q0 12 20.5 20.5t44.5 8.5q57 0 58 -35q0 -4 -23 -207q59 33 95 85t36 110.5t-43 91.5q-72 59 -197.5 59t-223 -56.5t-147.5 -146.5t-50 -195.5t90 -181t252 -75.5 q98 0 186 44t129 101t74 57t51.5 -15t18.5 -37.5t-2 -26.5q-31 -129 -147 -203t-261 -74q-295 0 -448 195q-78 102 -78 239t87 260t222 191.5t266 68.5t238 -63q123 -72 123 -235.5t-144 -270.5q-61 -47 -143 -70q-8 -68 -47 -77q-20 -4 -33 -4q-51 0 -51 53zM600 418 q14 78 14 131q0 31 -36 31q-80 0 -121 -64q-25 -33 -25 -84q29 -16 92.5 -16t75.5 2z" />
<glyph unicode="A" horiz-adv-x="999" d="M530 1350q51 0 86 -45t91 -187q129 -334 251 -1046q2 -8 2.5 -23.5t-19 -33t-55.5 -17.5t-60.5 17.5t-33 57.5t-30.5 156q-49 260 -66 271q-25 14 -163 30.5t-183 16.5t-53 -8q-37 -33 -100 -498q-8 -39 -78 -39t-70 59q0 147 108.5 563t180.5 552q90 174 192 174z M522 1122q-31 0 -106.5 -181t-75.5 -224q0 -10 4 -15q16 -16 129 -28t149.5 -12t41 5t4.5 32.5t-55.5 225t-90.5 197.5z" />
<glyph unicode="B" horiz-adv-x="1038" d="M406 4l-265 6q-23 86 -26 774v146q0 174 32.5 265t137.5 146q53 27 148 27t147 -12q137 -29 187 -107t50 -209q0 -182 -96 -268q49 -6 98 -49t80 -88q53 -82 53 -223q0 -221 -133.5 -314.5t-412.5 -93.5zM279 1001l4 -233q4 0 69.5 9t110.5 20q207 49 207 235 q0 92 -54.5 135t-142.5 43q-111 0 -149 -39q-16 -16 -26.5 -27t-14.5 -36t-5.5 -35t0 -39t1.5 -33zM676 606.5q-43 18.5 -124 18.5t-276 -27q0 -319 11 -432q240 0 336 31.5t129.5 78t33.5 98.5t-1 73.5t-12 59.5t-32.5 59.5t-64.5 40z" />
<glyph unicode="C" horiz-adv-x="1122" d="M688 1339q137 0 303 -53q37 -29 37 -62.5t-33.5 -59t-76.5 -25.5q-111 29 -207 28q-221 0 -336 -131t-115 -389t135 -403q70 -76 166 -76t307 102q74 35 99 35q53 0 53 -55t-51 -92q-176 -92 -274.5 -124t-170.5 -32q-147 0 -252 109q-186 201 -186 548t177 513.5 t425 166.5z" />
<glyph unicode="D" horiz-adv-x="972" d="M121 66q-31 23 -31 50t23 46q-39 293 -39 672q0 115 10 446q10 31 42 53.5t60.5 22.5t34.5 -2q293 -82 510 -316.5t227 -562.5q0 -360 -299 -452q-86 -27 -181 -27t-167 14q8 -16 8 -43.5t-33.5 -53.5t-79.5 -26t-59 56zM244 850q0 -358 41 -680q49 -14 165.5 -14 t224 38.5t113.5 114.5q6 57 7 88q0 266 -142.5 471t-398.5 312q-10 -242 -10 -330z" />
<glyph unicode="E" d="M113 705q-29 18 -29 53t22 63q-8 205 -8 432q12 49 38 72t75 29q270 -12 586 -13q78 -16 77 -67q0 -86 -167 -100q-45 -2 -99 -3h-133q-39 0 -215 17q0 -256 8 -352q109 -2 418 -2q74 -14 74 -66.5t-60 -81.5q-6 -4 -22 -8l-354 6q-33 0 -54 -4l9 -352q0 -119 -7 -170 l476 6q66 -10 65 -55q0 -31 -27.5 -62t-64.5 -39l-524 -8q-47 0 -65.5 17.5t-18.5 58.5q8 57 8 184v143z" />
<glyph unicode="F" horiz-adv-x="768" d="M430 1327l227 4q152 0 152 -80q0 -29 -8 -40t-12.5 -17t-16.5 -10q-25 -8 -41 -10.5t-22 -2.5q-23 -4 -76 -6t-154.5 -2t-249.5 8v-376h418q23 0 42.5 -20.5t19.5 -45.5q0 -94 -80 -94h-400l9 -537q0 -104 -71 -104t-83 94q-6 31 -7 521.5t-5 564.5q-76 -8 -76 86 q0 25 20.5 54t36 31.5t39 2.5t115.5 -9q127 -12 223 -12z" />
<glyph unicode="G" horiz-adv-x="983" d="M678 1360q98 0 195.5 -49t97.5 -111q0 -94 -78 -94q-29 0 -100.5 37t-120.5 37q-176 0 -294 -158t-118 -401q0 -182 80 -319.5t189.5 -137.5t172 72.5t62.5 164.5q0 51 -7 85t-36 61.5t-76 27.5t-89 20.5t-42 55.5t20.5 66t55.5 37q139 0 187 -29t72.5 -47.5t41 -61.5 t26 -71.5t13.5 -91.5q4 -106 4 -249t-21 -175q-18 -27 -61 -28t-59.5 17.5t-20.5 81.5q-49 -43 -124 -72.5t-132 -29.5q-180 0 -303 191.5t-123 461.5q0 143 47 281.5t127 232.5q168 195 414 195z" />
<glyph unicode="H" horiz-adv-x="958" d="M270 784q160 -27 293 -26.5t170 2.5q-4 156 -4 299v194.5t4 64.5t26.5 25.5t65.5 12.5q61 0 62 -74v-725q0 -225 -10 -496q-2 -59 -101 -59q-49 0 -49 59l8 543q-66 -4 -179.5 -4t-285.5 25q0 -270 25 -566q2 -33 -28.5 -50t-77 -17t-50.5 47q-27 291 -26 573l12 639 q0 41 30.5 60.5t65.5 19.5q57 0 58 -55z" />
<glyph unicode="I" horiz-adv-x="481" d="M276.5 1323q40.5 0 51.5 -47q2 -238 8 -711q0 -289 -17 -489q-4 -31 -37.5 -54.5t-68.5 -23.5q-57 0 -57 59q20 205 20 508l-12 688q8 29 40 49.5t72.5 20.5z" />
<glyph unicode="J" horiz-adv-x="757" d="M522 1345.5q33 22.5 64.5 22.5t49 -14.5t19.5 -34.5q43 -553 43 -699.5t-4 -220t-20.5 -158.5t-46.5 -135q-68 -115 -217.5 -114.5t-243.5 99.5t-94 286q0 31 31.5 56.5t68.5 25.5q45 0 55 -84q27 -238 179 -238q39 0 66.5 25.5t41.5 61.5t23 95q12 86 12 206t-30 437.5 t-30 339t33 44z" />
<glyph unicode="K" horiz-adv-x="1071" d="M150 233q0 158 -19.5 534t-34.5 476q0 45 31 79t70 34q49 0 65 -62q33 -205 41 -589q184 170 285.5 290.5t214.5 309.5q33 55 96 55q33 0 54.5 -17.5t21.5 -42.5q0 -66 -116 -226.5t-245 -311.5q172 -172 295 -397q16 -29 43 -72t41 -68q39 -68 39 -115t-23.5 -76.5 t-58.5 -29.5t-90 91t-158.5 258t-218.5 294q-115 -111 -172 -153q6 -131 6 -218.5t-4 -140.5q-12 -133 -108 -133q-59 0 -55 72v159z" />
<glyph unicode="L" horiz-adv-x="761" d="M55 285l2 159l19 856q0 25 26.5 39.5t67.5 14.5q98 0 98 -70q0 -23 -23.5 -344.5t-23.5 -384.5v-217q0 -154 21 -168q31 -10 71 -10l295 20q96 0 97 -69q0 -55 -52.5 -81t-103.5 -29t-125 -3q-322 0 -348 20q-14 12 -16.5 93.5t-3.5 114t-1 59.5z" />
<glyph unicode="M" horiz-adv-x="1218" d="M1051 1364q49 0 63 -72q10 -334 10 -728t-4 -455.5t-26.5 -86t-81.5 -24.5q-53 0 -54 65v463q0 113 -4 232t-4 149q-70 -119 -184.5 -195.5t-255.5 -76.5t-238 117q-4 -125 -4 -296t2 -360q0 -51 -33.5 -74.5t-76.5 -23.5q-55 0 -56 68q2 184 2 583v582q0 35 24 67.5 t55.5 32.5t58 -17.5t28.5 -51.5q8 -227 74 -338t156 -111t154.5 29.5t106.5 68.5t81 111q55 102 106 252q31 90 101 90z" />
<glyph unicode="N" horiz-adv-x="1089" d="M919.5 1356q32.5 0 59.5 -28t27 -64q0 -801 7 -968t7 -171q0 -45 -24.5 -85t-54.5 -40t-45 3t-27.5 7t-24.5 17l-21 20q-8 8 -21.5 31.5t-21.5 38t-25.5 50.5t-75.5 146.5t-106 198.5q-162 297 -301 469q0 -666 -36 -924q-6 -49 -76 -49q-33 0 -54.5 16.5t-21.5 53.5 t15.5 405.5t15.5 459.5v116q0 147 22.5 165.5t46.5 18.5q113 0 344 -369q45 -72 172 -300t152 -281l-25 850q0 176 39 200q21 13 53.5 13z" />
<glyph unicode="O" horiz-adv-x="1138" d="M627 1362q143 0 243 -92q197 -176 197 -556t-217 -597q-113 -109 -260 -119q-195 0 -303.5 133t-154.5 298t-46 319q0 262 125 432q131 182 416 182zM612 1192q-274 0 -342 -260q-20 -70 -20 -178.5t41 -251.5q55 -193 164 -271q63 -49 153 -49t162 81t98.5 206t26.5 252 q0 225 -64.5 348t-218.5 123z" />
<glyph unicode="P" horiz-adv-x="985" d="M117 209q-14 211 -14.5 570.5t10.5 465.5q10 66 90 87.5t211 21.5q193 0 324.5 -83t131.5 -245q0 -133 -36.5 -222t-92.5 -132q-90 -70 -266 -70q-76 0 -199 21q10 -410 8.5 -516.5t-71.5 -106.5q-45 0 -57.5 16.5t-16.5 23.5t-8 21.5t-6 23.5t-3 27.5t-3 28.5 q-2 31 -2 68zM610 1152q-90 48 -192.5 48t-143.5 -18q-8 -121 -8 -222.5t8 -183.5q55 -6 76 -10q53 -6 91 -6t51.5 1t51.5 6t54 17.5t41 33t35 46.5q27 74 26.5 157t-90.5 131z" />
<glyph unicode="Q" horiz-adv-x="1341" d="M1012 106l-27 31q-145 -125 -356 -145q-156 12 -280 107.5t-186.5 239.5t-62.5 290q0 279 142 497q68 109 176 172.5t237 63.5t244 -59.5t188 -161.5q152 -213 152 -488q0 -207 -123 -393q0 -2 64 -67q59 -66 59 -98t-21.5 -64.5t-70.5 -33t-135 108.5zM356 330 q94 -170 297 -183q164 14 256 84l-161 187q-63 72 -63.5 109.5t26 63t66.5 25.5t106 -69q39 -45 104 -129q29 -41 37 -49q66 119 66 260q0 319 -213 487q-106 86 -252 86q-188 0 -279 -172q-76 -152 -76 -349t86 -351z" />
<glyph unicode="R" horiz-adv-x="929" d="M211 21.5q-33 -29.5 -71 -29.5t-52 49q-6 270 -6 539l-6 516q0 156 137 213q111 51 262 51q78 0 167 -38t159.5 -110.5t70.5 -157.5t-77.5 -182.5t-192.5 -172t-223 -111.5q190 -133 331.5 -285.5t141.5 -236.5q0 -27 -26.5 -50.5t-64.5 -23.5t-65 33q-45 109 -171 228.5 t-294 227.5l13 -393q0 -37 -33 -66.5zM544 817.5q171 108.5 171 195.5t-86 134t-204 47t-187 -29q-2 -104 -2 -463q137 7 308 115.5z" />
<glyph unicode="S" horiz-adv-x="940" d="M545 1356q133 0 226 -45t93 -115q0 -31 -15 -53.5t-45 -22.5t-128 46t-179 46t-167 -51t-86 -125q0 -100 104 -147q78 -35 223.5 -62.5t237.5 -112.5t92 -257q0 -262 -158 -387q-88 -70 -248.5 -70t-320.5 88q-104 55 -104 111q0 20 17 44.5t48 41t56.5 5.5t83 -40 t83.5 -39q86 -33 162 -33t146.5 75t70.5 183q0 143 -143 201q-70 29 -158 43q-182 33 -274 109.5t-92 232.5t133 245t342 89z" />
<glyph unicode="T" horiz-adv-x="958" d="M90 1329l830 12q59 -18 59 -59q0 -102 -84 -102q-154 0 -326 -9q-10 -176 -10 -265v-113l8 -719q0 -63 -32 -74q-25 -8 -62 -8q-59 0 -65 67q-12 158 -12.5 589t12.5 519q-43 -2 -127 -2t-209 2q-33 0 -51.5 20.5t-18.5 50.5t25.5 58.5t62.5 32.5z" />
<glyph unicode="U" horiz-adv-x="1126" d="M950 1364q35 0 60 -35q35 -178 34 -399v-156q0 -176 -6 -207.5t-12 -70.5t-11 -59.5t-16 -55.5q-23 -76 -63 -135q-61 -115 -161.5 -180.5t-204 -65.5t-213 90t-179.5 225q-106 209 -106 482q0 96 28 456q14 33 44 58.5t61 25.5q45 0 55 -61q-29 -354 -29 -449 q0 -225 88 -399q55 -115 136.5 -191.5t158.5 -76.5q129 0 222 200q39 70 43 224q0 41 4 57l4 270q0 188 -29 344q0 43 28.5 76t63.5 33z" />
<glyph unicode="V" horiz-adv-x="1150" d="M604 39q-84 248 -174 453.5t-231 517.5q-49 109 -61.5 134t-12.5 57t31.5 62.5t70.5 30.5t66 -39l98 -225q207 -477 295 -694l37 143q45 188 94 373q139 504 275 504q25 0 42 -14.5t17 -39t-25.5 -71.5t-64.5 -170t-48 -144.5t-98.5 -345t-152.5 -508.5q-10 -33 -39 -54 t-65 -21t-54 51z" />
<glyph unicode="W" horiz-adv-x="1261" d="M1178 1366q43 0 59 -61q-12 -207 -26.5 -294t-23.5 -152.5t-12.5 -90.5t-17.5 -100.5t-29.5 -150.5t-18.5 -89t-38 -183t-52.5 -207t-59 -38t-66.5 25q-94 129 -178 319q-20 49 -46 106.5t-38 86.5l-19 43q-43 -74 -118.5 -250t-133.5 -283q-37 -47 -81 -47 q-94 0 -144 502q0 2 -3 22.5t-8 71.5t-12.5 113.5t-52.5 517.5q0 41 31 74.5t68 33.5q45 0 61 -59q55 -666 111 -983q16 29 83.5 189.5t123 256t106.5 95.5q35 0 59 -37q129 -367 222 -516q2 23 24 122l27 132q0 12 5 34.5t8 44t7 39.5l23 129q49 303 61 498q8 35 38 60.5 t61 25.5z" />
<glyph unicode="X" horiz-adv-x="1230" d="M129 -10q-70 0 -70 59q0 33 17 66q16 18 156.5 172.5t259.5 302.5q-279 434 -355 567q-10 25 -10 54.5t29.5 60.5t67.5 31t61 -35q205 -336 329 -531q213 250 404 557q35 61 98 62q25 0 42.5 -15.5t17.5 -38t-13 -57.5q-154 -256 -458 -641q176 -283 325 -457 q16 -33 16.5 -61.5t-29.5 -59t-67 -30.5t-63 20q-92 117 -307 443q-137 -162 -392 -445q-32 -24 -59 -24z" />
<glyph unicode="Y" d="M365 496l2 104q0 53 -34 104.5t-163 297t-129 277.5t26.5 57.5t52 25.5t61.5 -47t141.5 -248t121.5 -221q197 348 316 491q29 27 46 27t25 -4q49 -20 49.5 -54t-16.5 -59q-16 -25 -90 -129q-109 -152 -187.5 -306.5t-78.5 -188.5v-375l6 -164q0 -45 -24.5 -62.5 t-60.5 -17.5t-48 39t-14 102.5t-2 186.5v164z" />
<glyph unicode="Z" horiz-adv-x="1038" d="M469 0l-311 -8h-21.5t-32 15.5t-14.5 51.5q29 158 82 251t148.5 202t121.5 141q-254 43 -254 123q0 43 28 70.5t46.5 27.5t119.5 -27.5t191 -35.5q6 10 43 57t68 86q76 100 129 199q-244 53 -668 53q-70 0 -69 64q0 23 30.5 52.5t74.5 33.5t152.5 4t328.5 -29 q317 -41 335 -114q2 -6 2 -28t-34 -87q-47 -92 -185 -271q-18 -25 -28 -36q8 0 37.5 1t40 0t28.5 -5q41 -12 41 -66.5t-54 -74t-90 -19.5h-53l-73 8q-133 -150 -193 -223q-100 -131 -143 -260l280 -9q63 0 144 7l112 10q16 2 34 2t42 -2q53 -4 66 -72q8 -51 -51 -72 q-66 -23 -133.5 -23.5t-102.5 -0.5l-170 4h-45z" />
<glyph unicode="[" horiz-adv-x="620" d="M287 27q8 2 53 2q152 0 152 -58q0 -109 -197 -108q-123 0 -150 33q-14 16 -14 45v698l-6 174v623q4 72 48 96t146 24h33q174 0 174 -73q0 -92 -137 -92h-67q-18 4 -35 0q6 -150 6 -367z" />
<glyph unicode="\" horiz-adv-x="860" d="M723 -78q-55 0 -84 53q-102 238 -280.5 708t-301.5 753q-6 18 -6 37.5t15.5 35t35.5 15.5q45 0 80 -47q117 -272 298.5 -733t239.5 -604.5t58 -167t-15 -37t-40 -13.5z" />
<glyph unicode="]" horiz-adv-x="606" d="M297 1556q104 0 148 -24.5t44 -95.5v-1495q0 -35 -27.5 -53.5t-58 -21.5t-81.5 -3q-197 0 -197 104q0 61 154 62q43 0 51 -2v909q-2 152 -2 265.5t2 189.5q-37 4 -59.5 2t-41.5 -2q-139 0 -139 86q0 80 182 79h25z" />
<glyph unicode="^" horiz-adv-x="757" d="M621 1270q0 -29 -25 -49.5t-45.5 -19.5t-84 47t-97.5 89q-133 -133 -173 -132t-58.5 24.5t-17.5 55.5t107.5 112t152.5 79t143.5 -80t97.5 -126z" />
<glyph unicode="_" horiz-adv-x="1169" d="M254 -123h-141q-49 0 -50 55q0 29 18.5 47.5t55.5 18.5q305 -2 535.5 -2t384.5 2q51 0 51 -57q0 -23 -26.5 -43.5t-49.5 -20.5q-80 -2 -219 -2z" />
<glyph unicode="`" horiz-adv-x="450" d="M352 1153q37 -18 37 -78q0 -16 -12 -28q-18 -29 -46 -29t-66 20.5t-94 75.5t-83 107.5t-27 72t3.5 37t27 30.5t37.5 13t23 -2q31 -8 84 -97t116 -122z" />
<glyph unicode="a" horiz-adv-x="802" d="M649 956q90 0 90 -153v-35l-4 -143q-2 -68 -2 -133l31 -463q0 -51 -105 -52h-29.5t-32.5 18.5t-2 45.5t-5 59q-94 -100 -250 -100q-289 0 -289 446q0 248 93.5 375t267.5 127q82 0 163 -28q27 36 74 36zM436 770q-117 0 -174 -67.5t-57 -247.5q0 -303 164 -303 q43 0 95 38.5t73 88.5q39 111 38.5 241.5t-32 190t-107.5 59.5z" />
<glyph unicode="b" horiz-adv-x="843" d="M82 1384q0 82 102 82q47 0 56 -57v-307q0 -86 2 -172q41 12 104 12q199 0 307.5 -133t108.5 -334t-128 -339t-329 -138t-201 113.5t-11 577.5t-11 695zM496 725q-74 57 -156 57q-45 0 -92 -16q12 -168 12 -596q35 -12 72 -12q80 0 160 59q119 82 119 251t-115 257z" />
<glyph unicode="c" horiz-adv-x="794" d="M122 729q73 113 185.5 169t219 56t171 -25.5t64.5 -67.5t-23.5 -84t-62.5 -42q-14 0 -79 23.5t-83 23.5q-119 0 -203 -87t-84 -230t46 -214t159 -71q45 0 154.5 52.5t136.5 52.5t43 -16.5t16 -41.5q0 -49 -62.5 -103t-154.5 -90t-166 -36q-164 0 -257 129t-93 352 q0 137 73 250z" />
<glyph unicode="d" horiz-adv-x="798" d="M567 958l-2 396q0 111 71 110.5t79 -61.5q4 -27 10 -322t19.5 -553t13.5 -481q0 -61 -92 -61q-61 0 -62 86q-88 -70 -209 -70q-154 0 -249 114.5t-95 282.5t68.5 314.5t214.5 210.5q90 39 174 39q30 -1 59 -5zM542.5 746.5q-20.5 23.5 -44 28.5t-56 5t-80 -24.5 t-79.5 -79.5q-66 -111 -66 -232.5t48 -198.5t137.5 -77t140.5 88t51 225q0 154 -15.5 198t-36 67.5z" />
<glyph unicode="e" horiz-adv-x="815" d="M373 948q109 0 207 -63.5t98 -156.5t-80 -180t-213 -106q-57 -8 -172 -8q23 -174 88 -229q20 -23 55 -23q127 0 213 81t123 81q16 0 49 -30.5t33 -57.5q0 -53 -129 -154q-57 -47 -138 -78.5t-151 -31.5q-178 0 -262 229q-53 141 -53 311t80 293t252 123zM383 807 q-78 0 -133 -88q-20 -31 -39 -139q287 0 287 141q0 86 -115 86z" />
<glyph unicode="f" horiz-adv-x="735" d="M412.5 1461q23.5 3 108.5 3t140.5 -24.5t55.5 -98t-60 -73.5q-12 0 -69.5 21.5t-73.5 21.5q-72 0 -86 -86q-4 -31 -4 -126v-157h143q90 -4 90 -63q0 -86 -122 -91q-18 -2 -45 -2t-62 2q4 -82 18.5 -291.5t14.5 -408.5q0 -41 -33 -65.5t-68 -24.5q-55 0 -55 65 q0 184 -14.5 358.5t-20.5 366.5q-184 0 -215 37q-12 14 -12 37q0 53 44 69.5t101.5 16.5h81.5q6 334 37 414q18 49 50 72.5t55.5 26.5z" />
<glyph unicode="g" horiz-adv-x="911" d="M666 84q-74 -86 -186.5 -86t-194.5 70q-172 133 -172 407q0 215 118.5 345t292.5 130t238 -119q55 -104 55 -315l-4 -168q0 -119 11.5 -328.5t11.5 -316.5q0 -176 -87 -259t-266 -83q-106 0 -216.5 45t-110.5 105q0 43 23.5 65.5t54 22.5t138 -45.5t154.5 -45.5 q147 0 147.5 242t-7.5 334zM619.5 726q-44.5 60 -138.5 60t-151.5 -86t-57.5 -218t54.5 -209.5t167 -77.5t145.5 96q25 78 25 226.5t-44.5 208.5z" />
<glyph unicode="h" horiz-adv-x="860" d="M297 664l16 -484q0 -90 -8 -104q-4 -37 -23.5 -57.5t-74.5 -20.5q-27 0 -43.5 34t-18.5 77q-14 360 -37.5 676.5t-23.5 588.5q0 43 28.5 67.5t67.5 24.5q57 0 68.5 -98t14.5 -245.5t7 -215.5q102 53 205 54q238 0 301 -209q37 -119 37 -306q0 -61 -11 -193t-13.5 -171 t-34 -60.5t-68.5 -21.5q-57 0 -57 61l14 357q0 45 -4 149.5t-42 166t-132 61.5q-168 0 -168 -131z" />
<glyph unicode="i" horiz-adv-x="458" d="M213 1294q37 0 69.5 -34.5t32.5 -72.5t-35.5 -77t-74.5 -39t-71 33t-32 84q0 98 107 106h4zM299 221l2 -143q0 -39 -30.5 -64.5t-65.5 -25.5q-51 0 -53 51q-27 653 -27 722.5t6 170.5q4 37 47 37q109 0 123 -88q6 -45 6 -72l-8 -129v-459z" />
<glyph unicode="j" horiz-adv-x="481" d="M227 1284q37 0 70 -35t33 -72.5t-36 -76.5t-75 -39t-70.5 32.5t-31.5 84.5q0 98 106 106h4zM184.5 936.5q26.5 21.5 79.5 21.5t60 -51q29 -252 28.5 -477t-14.5 -451.5t-66 -349.5q-70 -162 -252 -161q-92 0 -159.5 57t-67.5 137q0 43 31 65.5t67.5 22.5t55 -18.5 t24.5 -40.5q20 -59 70.5 -59.5t86.5 79.5t47 217.5t11 290.5q0 481 -24 664q-4 32 22.5 53.5z" />
<glyph unicode="k" horiz-adv-x="849" d="M809 92q0 -96 -88 -96q-37 0 -100.5 181t-169.5 280q-10 -14 -87 -81t-92 -81v-205q-4 -31 -10 -47t-27.5 -30.5t-58.5 -14.5q-55 0 -55 68q0 190 -16.5 590.5t-16.5 717.5q0 39 32 61.5t66 22.5q47 0 58 -59v-363q0 -66 2 -98.5t4 -97.5q4 -135 14 -305q59 45 152.5 142 t140.5 167q74 117 135 117q16 0 33 -9q43 -25 43 -57.5t-29 -85.5q-74 -127 -170 -231q92 -102 185 -293q55 -123 55 -193z" />
<glyph unicode="l" horiz-adv-x="544" d="M97.5 1426.5q19.5 23.5 62.5 23.5q88 0 88 -72q0 -55 -9.5 -288.5t-9.5 -418t15 -296.5q25 -197 69.5 -197t67.5 64q10 25 32.5 44t57.5 19q72 0 72 -121q0 -66 -71 -130t-140.5 -64t-111.5 23.5t-67.5 70.5t-41 91t-21.5 108q-12 102 -17 328.5t-5 432t5 282.5 t24.5 100.5z" />
<glyph unicode="m" horiz-adv-x="1392" d="M195 -2q-53 0 -64 59q0 414 -49 738q0 41 29.5 73.5t67.5 32.5t57 -43q76 100 202 100q162 0 250 -155q102 147 271 147t253 -135q55 -84 78 -221t23 -389q0 -98 -20.5 -152.5t-86.5 -54.5q-53 0 -53 68l6 256q0 461 -239 460q-76 0 -107 -53q-35 -63 -41 -133 q-8 -123 -8 -223v-297q0 -33 -33 -55.5t-67 -22.5q-45 0 -58 59l6 424q0 225 -75 281q-37 27 -112 26.5t-110.5 -55.5t-35.5 -178l12 -381q0 -176 -96 -176z" />
<glyph unicode="n" horiz-adv-x="925" d="M156 63l-23 832q0 39 26.5 63.5t53.5 24.5q66 0 76 -55q8 -55 8 -115q111 145 276 145q254 0 254 -579v-160.5t-12 -157.5q-14 -61 -88 -61q-49 0 -49 66l2 114q0 238 -15.5 325t-29.5 138q-35 111 -113 111q-102 0 -143 -74q-45 -80 -53 -188q-14 -190 -15 -404 q0 -41 -30.5 -65.5t-73.5 -24.5q-51 -1 -51 65z" />
<glyph unicode="o" horiz-adv-x="825" d="M440 954q147 0 242.5 -141t95.5 -339t-97 -337t-258 -139t-259 142.5t-98 316.5q0 223 90 356q96 141 284 141zM416 786q-86 0 -141.5 -90t-55.5 -190q0 -156 61.5 -238t139.5 -82q139 0 178 121q16 57 16 144q1 335 -198 335z" />
<glyph unicode="p" horiz-adv-x="876" d="M401 2q-70 0 -129 47l-26 23v-615q-12 -41 -43 -68.5t-66 -27.5q-53 0 -53 72v1427q12 53 29.5 75.5t55.5 22.5t49 -17t28 -95q8 41 65.5 75.5t153.5 34.5q209 0 297 -151.5t88 -357t-120 -325.5t-329 -120zM246 616v-380q12 -6 28 -21q59 -53 129 -53q283 0 283 291 q0 248 -127 313q-53 29 -131 29q-76 -10 -129 -67t-53 -112z" />
<glyph unicode="q" horiz-adv-x="948" d="M727 -578v11l8 323q0 104 -8 217l-12 160q-68 -133 -287 -133q-104 0 -195 68q-172 133 -172 397q0 227 103.5 356t296 129t284.5 -102q63 -70 91 -148q39 -135 41 -315v-76l16 -424q2 -63 2 -176v-252q-8 -39 -41 -67.5t-59 -28.5q-68 0 -68 61zM399 788 q-88 0 -131 -69.5t-43 -225t67.5 -248.5t156 -93t157 63.5t105.5 179.5q-10 217 -82 305t-230 88z" />
<glyph unicode="r" horiz-adv-x="788" d="M342 299l2 -211q0 -37 -34 -67.5t-66 -30.5q-47 0 -60 73q-2 16 -16 300t-55 446q-18 78 -19 92q0 68 82 68q35 0 55.5 -27t25.5 -54.5t9 -74.5t6 -59q43 102 129 153t189 51q168 0 168 -86q0 -43 -30 -68.5t-69 -25.5q-174 0 -245.5 -110.5t-71.5 -368.5z" />
<glyph unicode="s" horiz-adv-x="788" d="M199 889q86 72 199.5 72t218 -41t104.5 -109q0 -35 -26.5 -55.5t-46 -20.5t-31 1t-82 38t-130 37t-101.5 -29.5t-42 -87t48 -90.5t169 -56.5t185.5 -66.5t64.5 -159q0 -170 -89 -241t-216 -71t-216 35t-89 105q0 80 80 79q20 0 89.5 -28.5t138.5 -28.5t104.5 44 t35.5 101.5t-47 83t-143 42t-141 34.5q-123 49 -123 219q0 121 86 193z" />
<glyph unicode="t" horiz-adv-x="704" d="M129 956l102 -2q35 0 39 2v420q2 35 35 59.5t61.5 24.5t46 -18.5t15.5 -57t-2 -426.5l240 9q61 0 61 -72q0 -53 -31.5 -80t-67.5 -29t-71 -2l-125 2q0 -84 17.5 -331.5t27.5 -320.5t4 -94.5t-22 -29.5q-27 -12 -72 -12t-53 49q-41 268 -55 737q-18 -2 -141.5 -2 t-123.5 72q0 102 115 102z" />
<glyph unicode="u" horiz-adv-x="819" d="M108.5 934.5q26.5 23.5 54 23.5t43 -10t18.5 -18t7 -29q-12 -160 -12 -288t31 -292.5t67 -164.5q55 0 140.5 61.5t122.5 128.5q-25 295 -25 506q0 43 27.5 73.5t66.5 30.5q63 0 64 -86q0 -145 21.5 -431.5t43.5 -364.5q4 -16 4 -38t-27.5 -41.5t-71.5 -19.5t-58 50 q-4 41 -21 122q-143 -150 -289 -149q-68 0 -121 51t-83 139q-53 170 -53.5 319.5t16.5 369.5q8 34 34.5 57.5z" />
<glyph unicode="v" horiz-adv-x="819" d="M739 967q29 0 43.5 -19.5t14.5 -42.5l-2 -20q-86 -219 -127 -357q-27 -96 -40.5 -143t-44 -166t-40.5 -153q-29 -70 -101 -70q-35 0 -49 45q-66 205 -192.5 463t-144 296t-17.5 68.5t27.5 59t62.5 28.5t59 -36q23 -45 128.5 -252t148.5 -326q2 12 14 51q104 362 170 518 q35 56 90 56z" />
<glyph unicode="w" horiz-adv-x="948" d="M248 2q-70 0 -134.5 271.5t-64.5 609.5q0 35 30 54t54.5 19t39.5 -15t15 -40q0 -319 109 -614q16 25 51 99.5t65.5 109t73.5 34.5t90.5 -63.5t81 -136t37.5 -76.5q55 172 56 319l-13 312q-2 31 29 52t59 21q59 0 60 -231v-113q0 -274 -84 -489q-45 -123 -113 -123 q-39 0 -71.5 50t-73.5 142.5t-64 127.5l-61 -121q-35 -72 -53.5 -103.5t-51 -63.5t-67.5 -32z" />
<glyph unicode="x" horiz-adv-x="917" d="M309 920l168 -295q70 76 131 168l86 127q25 35 61 34.5t58.5 -22t22.5 -51t-86 -159.5t-185 -253q18 -29 82 -133.5t139 -198.5q14 -23 14.5 -54.5t-24 -58t-55.5 -26.5q-51 0 -133 113.5t-146 248.5q-61 -84 -119.5 -176t-90 -134t-69.5 -42t-59.5 22.5t-21.5 55.5 q0 80 287 403q-35 68 -127 211.5t-92 176t27.5 57t69.5 25t62 -38.5z" />
<glyph unicode="y" horiz-adv-x="866" d="M731 946q27 0 52.5 -18.5t25.5 -40.5q0 -59 -174 -643t-258 -819q-18 -55 -57 -55.5t-61.5 27.5t-22.5 81t68.5 254.5t82.5 257.5q-51 86 -346 860q-4 10 -4 26.5t24.5 43t67.5 26.5t70 -43q29 -74 94 -257t101 -265t69 -170q29 96 98.5 373.5t79.5 316.5q8 45 90 45z " />
<glyph unicode="z" horiz-adv-x="876" d="M453 788l-293 -26q-96 0 -97 84q0 88 101 94q31 2 395 2q76 0 152 -41q88 -49 88 -155.5t-148 -233.5q-61 -53 -131 -106q-227 -172 -227 -218q0 -31 76.5 -30.5t141 9.5t138.5 20.5t92 11.5q86 0 86 -62q0 -139 -417 -139q-152 0 -216.5 32.5t-84.5 116.5q-2 12 -3 25 q0 57 66 139q90 111 236 211q166 115 192 162q14 27 10 47q-12 57 -157 57z" />
<glyph unicode="{" horiz-adv-x="694" d="M492 45h43h8q72 0 71 -55q0 -29 -25.5 -59.5t-58.5 -39.5q-225 0 -280 134q-14 31 -14 66.5t28.5 134t28.5 157.5q0 119 -89 215t-89 141t69 109q18 18 60 63q68 80 67 203q0 45 -20.5 141.5t-20.5 119t14.5 52t36 45t60.5 30t86 14.5h37q135 0 135 -68q0 -92 -113 -92 q-23 0 -61 6q-25 0 -25 -36t13.5 -103.5t13.5 -141t-36 -158.5t-128 -178q16 -25 72 -92q61 -88 76 -213q0 -31 -28 -144.5t-28 -160.5t29 -68.5t68 -21.5z" />
<glyph unicode="|" horiz-adv-x="360" d="M94 -39v1466q16 37 45 61.5t60 24.5q43 0 59 -61v-1466q-12 -39 -45 -67t-66 -28q-53 0 -53 70z" />
<glyph unicode="}" horiz-adv-x="671" d="M115 -6q0 53 88 53l35 -2q96 0 96 90q0 51 -25.5 158.5t-25.5 153t21.5 110t86.5 141.5q31 41 37 47q-94 92 -130 177.5t-36 210.5q0 27 14.5 92t14.5 101t-21 36l-63 -6q-117 0 -117 92q12 68 156 68h2q104 0 157.5 -43t53.5 -111q0 -10 -20.5 -106.5t-20.5 -153.5 q0 -111 69 -191q29 -35 58 -63q70 -63 69.5 -108.5t-87.5 -140.5t-87 -216q0 -66 27 -158t27 -125q0 -94 -73 -151.5t-222 -57.5q-33 8 -58.5 39t-25.5 64z" />
<glyph unicode="~" horiz-adv-x="1083" d="M152 836q-31 0 -65 21.5t-34 53.5q0 63 116 142.5t190.5 79.5t186 -61.5t165.5 -80.5q33 0 114.5 65.5t117.5 65.5t57.5 -23.5t21.5 -45.5q0 -63 -115.5 -140t-187.5 -77q-111 0 -202 62.5t-142 62.5t-108.5 -62.5t-114.5 -62.5z" />
<glyph unicode="&#xa1;" horiz-adv-x="438" d="M342 860q0 -63 -21.5 -81.5t-70.5 -18.5t-77 29.5t-28 72.5t48 86q20 18 40 19q109 -1 109 -107zM238 -432q-33 0 -63 15.5t-38 37.5q0 424 33 868q16 41 44 41t52.5 -19t30.5 -44q-2 -33 -2 -152.5t11 -351t11 -342.5q-16 -53 -79 -53z" />
<glyph unicode="&#xa2;" horiz-adv-x="868" d="M784 229q0 -51 -67.5 -108.5t-165.5 -93.5l12 -123q-8 -76 -82 -76q-66 0 -65 172q-172 0 -268.5 128t-96.5 353q0 168 103.5 292t263.5 163q12 74 16 137q8 31 29.5 50.5t46.5 19.5t41 -17.5t16 -48.5v-12l-10 -109q207 -16 207 -79q0 -45 -24.5 -92.5t-54.5 -47.5 t-64.5 13.5t-59.5 23.5q-8 2 -12 2q-8 -170 -8 -294t2 -169v-102q8 4 25.5 13t68.5 36t83 27t48 -16.5t16 -41.5zM410 762q-180 -74 -181 -303q0 -131 40 -200t139 -77q-4 119 -4 266.5t6 313.5z" />
<glyph unicode="&#xa3;" horiz-adv-x="1126" d="M150 543q-74 0 -74 88q0 33 21.5 54.5t55 23.5t142.5 2q-12 100 -12 285.5t96 274.5t239.5 89t266.5 -68q98 -55 98 -114q0 -6 -2 -13q-14 -63 -74 -63q-37 0 -71 26q-119 76 -203 76q-129 0 -164 -100q-23 -68 -23 -143.5t1.5 -109.5t5.5 -86t4 -56q106 10 256 10 q55 0 74.5 -17.5t19.5 -56.5q0 -82 -48 -89t-300 -7q4 -72 4 -140.5t-6 -134.5q37 -59 106.5 -91.5t147.5 -32.5q135 0 209 96q23 29 65 28q68 0 68 -53q0 -74 -109.5 -147.5t-226.5 -73.5q-137 0 -221 45q-57 33 -117 76q-49 0 -100 -43q-14 -12 -49 -45t-74 -33 q-74 0 -74 76q0 59 160 168q45 31 55 39q6 45 6 110.5t-6 155.5l-141 -6h-6z" />
<glyph unicode="&#xa4;" horiz-adv-x="1417" d="M1059 334l153 -148q12 -18 12.5 -51t-27.5 -60.5t-60.5 -27.5t-57.5 25l-155 157q-113 -61 -242 -61t-231 53q-137 -143 -165 -156.5t-46 -13.5q-59 0 -59.5 61.5t149.5 204.5q-111 125 -119 338q2 207 131 351q-47 49 -96 106l-56 59q-14 12 -14 46t30 62t64 28 q55 0 154 -123q14 -18 34.5 -44t24.5 -32q115 57 238 57t235 -67q14 18 111 137q66 78 119 78q27 0 43 -17.5t16 -50.5t-43 -78t-135 -157q121 -137 121 -338t-129 -338zM690 1006q-137 0 -226 -86t-95 -240q8 -162 108.5 -260t235.5 -98t223 87t88 242.5t-98.5 255 t-235.5 99.5z" />
<glyph unicode="&#xa5;" horiz-adv-x="950" d="M688 600q57 -18 57 -68q0 -70 -163 -88l-76 -12v-74q125 27 163 27t58.5 -18.5t20.5 -44.5q0 -82 -246 -111q0 -63 4 -121q-6 -31 -33 -58.5t-47 -27.5q-66 0 -66 119v63q-14 -4 -70.5 -14t-79 -17.5t-43 -7.5t-36.5 20.5t-16 43.5q0 72 59 82l186 41v74 q-123 -27 -178 -29q-72 10 -71 78q0 33 20 45q23 10 102 24l127 25l5 80q0 27 -5 47q-109 156 -192 330q-14 31 -23.5 48t-15.5 31.5t-10 20.5t-35 69.5t-37 73t-6 35t26.5 51t52 25.5t62.5 -50t99 -161q53 -106 61 -115l47 -90q39 -76 55 -100l95 164q0 4 20 37l27 47 q27 53 63 102l33 49q31 45 71 82t68.5 37t45 -15.5t16.5 -40t-9 -40.5q-150 -184 -323 -527q-31 -61 -43 -77v-91z" />
<glyph unicode="&#xa6;" horiz-adv-x="348" d="M84 872l4 558q8 37 38 63.5t62 26.5q43 0 62 -62l-2 -577q-8 -37 -40 -57.5t-67 -20.5q-57 -1 -57 69zM84 -47l4 606q8 33 37 53.5t63 20.5q45 0 62 -62l-2 -594q-8 -41 -40 -66.5t-67 -25.5q-57 0 -57 68z" />
<glyph unicode="&#xa7;" horiz-adv-x="786" d="M260 924q-111 51 -110 159q0 166 122 234q76 49 168 49q162 0 162 -88q0 -33 -20.5 -60.5t-49.5 -27.5l-81 10q-66 0 -103 -29.5t-37 -78.5q0 -84 144.5 -139.5t189.5 -122t45 -148.5q0 -164 -147 -297q49 -61 49 -168.5t-68.5 -162t-173 -54.5t-174.5 23.5t-70 70.5 q0 78 78 78l152 -14q90 0 102 53q2 8 2 25q0 76 -96 135q-6 4 -12 7t-43 25.5t-61.5 39t-67.5 53.5q-72 63 -72 157q0 154 172 271zM223 678q0 -82 123 -152q61 -37 80 -45q53 31 92 84t39 107.5t-49 103.5t-106.5 49t-118 -47t-60.5 -100z" />
<glyph unicode="&#xa8;" horiz-adv-x="827" d="M236 1049q-76 0 -93 79q0 47 35 83t77 36t66.5 -28.5t26.5 -77.5q-6 -41 -37.5 -66.5t-74.5 -25.5zM604 1245q37 0 62.5 -21.5t27.5 -58.5q-6 -51 -36.5 -80.5t-70.5 -29.5t-66.5 27.5t-26.5 70.5q-1 92 110 92z" />
<glyph unicode="&#xa9;" horiz-adv-x="1554" d="M90 680q0 176 96.5 330.5t254 247t335.5 108.5q266 -12 367 -63q57 -29 100 -72q184 -182 184 -545q0 -313 -160.5 -496.5t-457.5 -191.5q-152 0 -285 42t-247.5 151.5t-157.5 273.5q-29 102 -29 215zM1270 674q0 395 -250 504q-102 41 -244 43q-225 -23 -376.5 -181.5 t-151.5 -373.5t155.5 -362.5t388 -147.5t355.5 135t123 383zM598 702q0 -260 147 -260q6 0 104.5 42t145.5 42q59 0 60 -59q0 -51 -53.5 -97t-126 -68.5t-121.5 -22.5q-129 0 -221.5 106.5t-92.5 255.5q0 244 150 381q80 74 186 74q47 0 114.5 -27t124 -75t56.5 -90 t-26.5 -67.5t-64.5 -25.5t-99 63q-82 55 -133 62q-66 0 -108 -71t-42 -163z" />
<glyph unicode="&#xaa;" horiz-adv-x="591" d="M535 1235l-3 -145l21 -377q0 -43 -90 -43q-49 0 -49 55v16q-66 -55 -160 -55q-207 0 -207 313q0 174 66.5 263.5t189.5 89.5q55 0 111 -19q20 25 53 25q68 0 68 -123zM388.5 1175.5q-19.5 36.5 -83 36.5t-100.5 -43t-37 -163q0 -199 106 -199q68 0 101 72.5t33 166 t-19.5 130z" />
<glyph unicode="&#xab;" horiz-adv-x="978" d="M477 874q53 0 53 -64.5t-184 -223.5q-72 -61 -86 -80q23 -23 88 -78q129 -121 129 -182q0 -35 -17.5 -55.5t-40 -20.5t-63.5 29.5t-63.5 61.5t-79.5 82t-78.5 81t-21.5 72q0 80 71 151q33 37 105.5 101.5t84 79t45 30.5t58.5 16zM688 778l37 39q27 31 41 39q14 6 39.5 6 t46 -14t20.5 -37q0 -68 -235 -322q14 -33 74 -81q150 -133 149 -175q0 -76 -59 -75q-51 0 -86 35q-12 10 -34 37.5t-65 66.5q-131 117 -131 195q0 31 57.5 110.5t145.5 175.5z" />
<glyph unicode="&#xac;" horiz-adv-x="991" d="M116 542.5q44 26.5 87 28.5t82 2l215 -4q186 0 334 -2q41 -6 47 -37q6 -16 6 -47v-333q-6 -35 -25.5 -55.5t-45 -20.5t-46 19.5t-25.5 53.5q0 203 3 263h-609q-68 0 -67.5 53t44.5 79.5z" />
<glyph unicode="&#xad;" horiz-adv-x="827" d="M311 403l-170 -4q-29 0 -48 20.5t-19 58.5t24.5 62.5t69.5 24.5h111h296h103q76 -4 76 -78q0 -35 -23.5 -60.5t-68.5 -25.5z" />
<glyph unicode="&#xae;" horiz-adv-x="1556" d="M190.5 1011.5q94.5 153.5 252 246t333.5 104.5q248 -2 365 -59q49 -27 98 -72q186 -180 186 -543q0 -313 -159.5 -495.5t-456.5 -192.5q-330 0 -535 197q-80 76 -129 203.5t-49 292.5t94.5 318.5zM1268 674q0 399 -248 504q-98 41 -242 43q-225 -25 -374.5 -182.5 t-149.5 -373.5t152.5 -361.5t384 -145.5t354.5 135t123 381zM760 1059q133 0 206.5 -57.5t73.5 -155.5q0 -133 -116 -199q16 -27 66 -99.5t63 -125.5q0 -47 -45 -78q-23 -12 -46.5 -12t-41.5 39q-14 51 -68.5 132t-65.5 103q-88 0 -131 6q0 -29 2 -51v-112q-6 -129 -90 -130 q-49 0 -49 60l8 596q27 84 181 84h53zM731 922q-57 0 -69 -2v-166q23 -16 83 -16.5t113 25t53 65.5t-61.5 67t-118.5 27z" />
<glyph unicode="&#xaf;" horiz-adv-x="819" d="M143 1221l240 -7q143 0 214 5.5t84 5.5t33.5 -14.5t21.5 -29t1 -42.5q0 -72 -80 -80q-100 -8 -233 -8t-297 8q-68 2 -68 57q0 105 84 105z" />
<glyph unicode="&#xb0;" horiz-adv-x="475" d="M254 1460q104 0 135 -102q12 -35 12 -78q-10 -84 -84 -127q-39 -25 -92 -25t-107.5 44.5t-54.5 120t54.5 121.5t136.5 46zM303 1305q0 41 -20.5 55t-46 14t-49 -21.5t-23.5 -49.5q0 -66 69.5 -66t69.5 68z" />
<glyph unicode="&#xb1;" horiz-adv-x="972" d="M418 567v17l-4 143q0 207 102 207q47 0 64 -60l-5 -307h259q59 -10 59 -55q0 -33 -24.5 -62.5t-59.5 -39.5h-236q-2 -14 -2 -48v-98v-14q0 -225 -98 -225q-63 0 -63 71q0 209 6 314h-277q-68 0 -67 55q0 33 27.5 65.5t64.5 36.5h254zM150 -246q-35 0 -55.5 19.5 t-20.5 46.5q0 76 100 90h627q76 -25 76 -80q0 -33 -17.5 -48t-64.5 -28h-645z" />
<glyph unicode="&#xb2;" horiz-adv-x="471" d="M264 946q-215 0 -215 76q0 68 92 139.5t92 116.5q0 25 -12 27t-41.5 -13.5t-50.5 -15.5q-76 0 -76 78q0 41 57.5 81t124 40t112.5 -40t46 -104q0 -119 -166 -254q47 8 142 17q33 4 44 -13.5t11 -48.5q0 -61 -37 -73.5t-123 -12.5z" />
<glyph unicode="&#xb3;" horiz-adv-x="450" d="M226.5 1256.5q31.5 17.5 31.5 43t-35 25.5t-70.5 -5t-55 16.5t-19.5 58.5q0 80 112 80q86 0 145.5 -30t59.5 -82t-13 -86t-58 -60q82 -14 82 -125q0 -63 -43.5 -106.5t-110.5 -43.5q-117 0 -168 51q-18 18 -18 41q0 78 67 78q27 0 57 -10q55 -18 68 6q16 39 2 53.5 t-39.5 28.5t-25.5 31.5t31.5 35z" />
<glyph unicode="&#xb4;" horiz-adv-x="505" d="M276 1352q12 35 52.5 34.5t64 -25t23.5 -39.5t-4 -26q-33 -92 -110 -174t-118 -82t-61.5 20.5t-20.5 48.5t33 54q108 89 141 189z" />
<glyph unicode="&#xb6;" horiz-adv-x="1024" d="M698 -10q-78 0 -77 256l18 993h-88q-14 -180 -14 -584l2 -571q0 -70 -97 -92q-35 6 -36 20q-8 16 -9 35q-12 98 -12 342t8 332q-197 18 -276 143q-43 68 -43 166q0 160 120.5 245t348.5 85h178q111 0 158 -12.5t47 -40.5q0 -35 -15.5 -54.5t-59.5 -19.5t-73 4 q-12 -524 -12 -940l4 -213q0 -39 -22.5 -66.5t-49.5 -27.5z" />
<glyph unicode="&#xb7;" horiz-adv-x="409" d="M130 565q32 49 76 49t76.5 -32.5t39.5 -89.5q0 -45 -33 -83t-77 -38t-79 23.5t-35 72.5t32 98z" />
<glyph unicode="&#xb8;" horiz-adv-x="819" d="M410 -76l67 8q45 0 72 -16q45 -25 59 -100q6 -33 6 -60q0 -68 -51 -119t-146 -51t-153.5 27t-58.5 61.5t16.5 55t32.5 20.5t67.5 -26.5t92.5 -26.5t66.5 20.5t25.5 40.5q0 59 -31 70q-8 2 -32.5 2t-73.5 -4q-92 0 -92.5 116.5t73.5 116.5q47 0 47 -63q-2 -18 -1.5 -45 t14.5 -27z" />
<glyph unicode="&#xb9;" horiz-adv-x="409" d="M241.5 942q-32.5 0 -53 24.5t-18.5 55.5q6 96 33 240q-109 -70 -142 -33q-16 18 -16 58t87 115t151 75q74 0 73 -115q0 -29 -32 -318q-4 -43 -27 -72.5t-55.5 -29.5z" />
<glyph unicode="&#xba;" horiz-adv-x="612" d="M499.5 1252.5q65.5 -99.5 65.5 -234.5t-68.5 -232.5t-180 -97.5t-181 99.5t-69.5 235.5t63 230q68 98 186.5 98.5t184 -99zM311 1219q-53 0 -87 -56.5t-34 -140.5t37 -135t89.5 -51t86 31.5t33.5 133.5q0 218 -125 218z" />
<glyph unicode="&#xbb;" horiz-adv-x="1040" d="M524 852q16 0 51 -15.5t53.5 -38t81 -75.5t105.5 -96q70 -70 70 -150q0 -41 -21.5 -71.5t-78 -81t-78.5 -84.5q-25 -35 -65 -64t-62.5 -29t-42 20.5t-19.5 60.5t53.5 98.5t118.5 115.5l47 41q-20 25 -84 80q-176 150 -186 223q0 66 57 66zM215 137q-78 0 -78 64 q0 53 150 186q57 49 73 80q-238 248 -237 321q0 23 22.5 39.5t49 16.5t53.5 -23q82 -82 173 -193.5t91 -144.5q0 -66 -49 -122t-85 -87.5t-61 -62.5l-34 -39q-53 -35 -60 -35h-8z" />
<glyph unicode="&#xbc;" horiz-adv-x="1095" d="M311 442q-63 0 -75 74q2 109 32 238q-6 -6 -48 -21.5t-50 -19.5q-61 0 -61 63q0 45 86 113.5t151 68.5q74 0 74 -100q0 -53 -16.5 -176t-17.5 -149.5t-23.5 -58.5t-51.5 -32zM911 827l-24 -34q-10 -16 -272.5 -368.5t-287 -387.5t-58 -35t-57.5 20.5t-24 45t11 41.5 l106 137q229 295 270 358q205 317 271 346q14 8 36.5 8t39 -21.5t16.5 -53t-27 -56.5zM821 63v87h-49q-88 0 -116.5 15t-28.5 52q0 59 200 285q25 18 58 18q66 0 84 -53q4 -20 2 -32.5t-21 -155.5q47 -10 47 -50.5t-28 -56.5q-2 0 -5 -2t-16 -8q-4 -12 -4 -53 q-4 -111 -58.5 -111.5t-64.5 65.5zM827 303v21q-2 8 -2 20q-31 -31 -55 -76q57 8 57 35z" />
<glyph unicode="&#xbd;" horiz-adv-x="1200" d="M311 442q-63 0 -75 74q2 109 32 238q-6 -6 -48 -21.5t-50 -19.5q-61 0 -61 63q0 45 86 113.5t151 68.5q74 0 74 -100q0 -53 -16.5 -176t-17.5 -149.5t-23.5 -58.5t-51.5 -32zM911 827l-24 -34q-10 -16 -272.5 -368.5t-287 -387.5t-58 -35t-57.5 20.5t-24 45t11 41.5 l106 137q229 295 270 358q205 317 271 346q14 8 36.5 8t39 -21.5t16.5 -53t-27 -56.5zM942 -2h-72q-160 2 -159 78q0 63 90 127q92 59 92 108q0 18 -8 35q-16 0 -51 -14.5t-58.5 -14.5t-43 19.5t-19.5 59.5t57 75t121 35q164 0 164 -150q0 -82 -170 -223l139 17 q27 0 43 -19.5t16 -53.5t-26 -52q-4 -2 -13.5 -8.5t-24 -12.5t-77.5 -6z" />
<glyph unicode="&#xbe;" horiz-adv-x="1097" d="M909 827l-168 -225q-381 -514 -407.5 -557t-69.5 -43t-67 37q-10 16 -10.5 34.5t18 44t178.5 234.5t190.5 256t63.5 97l29 43q141 211 206 210q27 0 44.5 -21.5t17.5 -53t-25 -56.5zM182 819q-59 0 -59 68.5t106 68.5q82 0 136.5 -25.5t54.5 -72.5q0 -104 -62 -135 q33 -6 54.5 -43t21.5 -79t-43 -88t-108.5 -46t-129 24.5t-63.5 65.5q0 27 21.5 46.5t52.5 21.5q68 -12 74 -13q37 0 57 37q-25 0 -68 35q-16 12 -16 39t16 37l68 37q-10 23 -66 22h-47zM809 150h-49q-88 0 -118 15t-30 52q0 59 201 285q25 18 57 18q66 0 84 -53 q4 -20 2 -32.5t-20 -155.5q49 -8 49 -60q0 -20 -10 -33.5t-41 -23.5q-2 -10 -2 -45q-4 -119 -53 -119q-63 0 -70 65v87zM754 268q14 2 55 2q2 16 2 74q-26 -27 -57 -76z" />
<glyph unicode="&#xbf;" horiz-adv-x="768" d="M473 791.5q-27 -31.5 -59 -31.5q-66 0 -88.5 17.5t-22.5 80.5q0 109 94 109q35 0 69 -32t34 -72t-27 -71.5zM219 -139q0 -47 53.5 -88t108.5 -41q100 0 160.5 81t96.5 81t59.5 -23t23.5 -59q0 -78 -109.5 -159t-228.5 -81q-168 0 -266 135q-53 72 -54 154q0 135 113 262 q45 53 92 98q111 111 111 150t-27.5 85t-27.5 67.5t23.5 43t47.5 21.5q57 0 105.5 -61.5t48.5 -139.5q0 -129 -103 -240q-57 -61 -88 -88q-139 -128 -139 -198z" />
<glyph unicode="&#xc0;" horiz-adv-x="999" d="M674 1454q-18 -29 -46 -29t-66 20.5t-94 76t-84 107.5t-28 71.5t4.5 37t28 31t37.5 13.5t23 -2q31 -8 84 -97.5t116 -121.5q33 -16 37 -53.5t-12 -53.5zM530 1350q51 0 86 -45t91 -187q129 -334 251 -1046q2 -8 2.5 -23.5t-19 -33t-55.5 -17.5t-60.5 17.5t-33 57.5 t-30.5 156q-49 260 -66 271q-25 14 -163 30.5t-183 16.5t-53 -8q-37 -33 -100 -498q-8 -39 -78 -39t-70 59q0 147 108.5 563t180.5 552q90 174 192 174zM522 1122q-31 0 -106.5 -181t-75.5 -224q0 -10 4 -15q16 -16 129 -28t149.5 -12t41 5t4.5 32.5t-55.5 225t-90.5 197.5z " />
<glyph unicode="&#xc1;" horiz-adv-x="999" d="M537 1759q12 35 52 35t63.5 -24.5t23.5 -40t-4 -25.5q-33 -92 -110 -174t-118 -82t-61.5 20.5t-20.5 48t31 52.5q111 90 144 190zM530 1350q51 0 86 -45t91 -187q129 -334 251 -1046q2 -8 2.5 -23.5t-19 -33t-55.5 -17.5t-60.5 17.5t-33 57.5t-30.5 156q-49 260 -66 271 q-25 14 -163 30.5t-183 16.5t-53 -8q-37 -33 -100 -498q-8 -39 -78 -39t-70 59q0 147 108.5 563t180.5 552q90 174 192 174zM522 1122q-31 0 -106.5 -181t-75.5 -224q0 -10 4 -15q16 -16 129 -28t149.5 -12t41 5t4.5 32.5t-55.5 225t-90.5 197.5z" />
<glyph unicode="&#xc2;" horiz-adv-x="999" d="M380.5 1661q104.5 82 151 82t146.5 -77t100 -124q0 -29 -24.5 -49t-41 -20t-90 65.5t-93 65.5t-88 -68t-97.5 -68t-48.5 24t-19.5 55.5t104.5 113.5zM530 1350q51 0 86 -45t91 -187q129 -334 251 -1046q2 -8 2.5 -23.5t-19 -33t-55.5 -17.5t-60.5 17.5t-33 57.5 t-30.5 156q-49 260 -66 271q-25 14 -163 30.5t-183 16.5t-53 -8q-37 -33 -100 -498q-8 -39 -78 -39t-70 59q0 147 108.5 563t180.5 552q90 174 192 174zM522 1122q-31 0 -106.5 -181t-75.5 -224q0 -10 4 -15q16 -16 129 -28t149.5 -12t41 5t4.5 32.5t-55.5 225t-90.5 197.5z " />
<glyph unicode="&#xc3;" horiz-adv-x="999" d="M306.5 1648.5q60.5 49.5 114.5 49.5t87 -16.5t45 -36.5q33 -53 59.5 -53.5t58 49t59.5 49.5t48.5 -25t20.5 -51q0 -74 -60.5 -113t-117 -39t-87 23.5t-53 47t-49.5 23.5q-12 0 -51 -46t-65.5 -46t-48 26t-21.5 67.5t60.5 91zM530 1350q51 0 86 -45t91 -187 q129 -334 251 -1046q2 -8 2.5 -23.5t-19 -33t-55.5 -17.5t-60.5 17.5t-33 57.5t-30.5 156q-49 260 -66 271q-25 14 -163 30.5t-183 16.5t-53 -8q-37 -33 -100 -498q-8 -39 -78 -39t-70 59q0 147 108.5 563t180.5 552q90 174 192 174zM522 1122q-31 0 -106.5 -181t-75.5 -224 q0 -10 4 -15q16 -16 129 -28t149.5 -12t41 5t4.5 32.5t-55.5 225t-90.5 197.5z" />
<glyph unicode="&#xc4;" horiz-adv-x="999" d="M342 1456q-76 0 -92 80q0 47 34.5 83t76.5 36t67 -29t27 -78q-6 -41 -38 -66.5t-75 -25.5zM711 1653q37 0 62.5 -21.5t27.5 -58.5q-6 -51 -37 -81t-71 -30t-66.5 28t-26.5 71q0 92 111 92zM530 1350q51 0 86 -45t91 -187q129 -334 251 -1046q2 -8 2.5 -23.5t-19 -33 t-55.5 -17.5t-60.5 17.5t-33 57.5t-30.5 156q-49 260 -66 271q-25 14 -163 30.5t-183 16.5t-53 -8q-37 -33 -100 -498q-8 -39 -78 -39t-70 59q0 147 108.5 563t180.5 552q90 174 192 174zM522 1122q-31 0 -106.5 -181t-75.5 -224q0 -10 4 -15q16 -16 129 -28t149.5 -12t41 5 t4.5 32.5t-55.5 225t-90.5 197.5z" />
<glyph unicode="&#xc5;" horiz-adv-x="999" d="M400.5 1710q58.5 49 135 49t118.5 -49t42 -125q0 -80 -53 -127t-126 -47t-124 55.5t-51 125t58.5 118.5zM530 1657q-27 0 -47 -18.5t-20 -45.5q0 -57 53 -57q66 0 65.5 60.5t-51.5 60.5zM530 1350q51 0 86 -45t91 -187q129 -334 251 -1046q2 -8 2.5 -23.5t-19 -33 t-55.5 -17.5t-60.5 17.5t-33 57.5t-30.5 156q-49 260 -66 271q-25 14 -163 30.5t-183 16.5t-53 -8q-37 -33 -100 -498q-8 -39 -78 -39t-70 59q0 147 108.5 563t180.5 552q90 174 192 174zM522 1122q-31 0 -106.5 -181t-75.5 -224q0 -10 4 -15q16 -16 129 -28t149.5 -12t41 5 t4.5 32.5t-55.5 225t-90.5 197.5z" />
<glyph unicode="&#xc6;" horiz-adv-x="1353" d="M1145 754q74 -12 74 -64q0 -27 -24 -52.5t-56 -33.5q-33 0 -88.5 4t-176.5 4h-53l13 -403v-53l385 6q68 -10 67 -60q0 -41 -47 -77q-25 -16 -45 -23h-416h-10q-113 0 -113 61l7 529l-185 -4q-98 0 -166 18q-37 -150 -59 -338l-31 -217q-6 -49 -76.5 -49t-70.5 57 q0 184 39 412.5t141 402.5q147 256 254.5 349.5t253.5 93.5h469q76 -25 76 -72q0 -98 -238 -98h-72q-12 0 -186 16q0 -311 8 -401zM641 1153q-68 -45 -147.5 -146.5t-141.5 -242.5q57 -10 111 -10l186 8q2 27 2 81t-10 310z" />
<glyph unicode="&#xc7;" horiz-adv-x="1122" d="M694 -35l68 8q45 0 74 -16q43 -25 57 -100q6 -33 6 -60q0 -68 -51 -119t-146.5 -51t-154 27t-58.5 61.5t16.5 55t33 20.5t67.5 -26.5t92 -26.5t67 20.5t26 40.5q0 59 -31 70q-8 2 -33 2t-74 -4q-92 0 -92 108v29q-12 -2 -37 -2q-147 0 -252 109q-186 201 -186 548 t177 513.5t425 166.5q137 0 303 -53q37 -29 37 -62.5t-33.5 -59t-76.5 -25.5q-111 29 -207 28q-221 0 -336 -131t-115 -389t135 -403q70 -76 166 -76t307 102q74 35 99 35q53 0 53 -55t-51 -92q-166 -86 -287 -127q-2 -16 -2 -41t14 -25z" />
<glyph unicode="&#xc8;" d="M625 1456q-18 -29 -46 -29t-66 20.5t-94.5 76t-84 107.5t-27.5 71.5t4 37t27.5 31t38 13.5t22.5 -2q31 -8 84.5 -97.5t116.5 -121.5q33 -16 37 -53.5t-12 -53.5zM113 705q-29 18 -29 53t22 63q-8 205 -8 432q12 49 38 72t75 29q270 -12 586 -13q78 -16 77 -67 q0 -86 -167 -100q-45 -2 -99 -3h-133q-39 0 -215 17q0 -256 8 -352q109 -2 418 -2q74 -14 74 -66.5t-60 -81.5q-6 -4 -22 -8l-354 6q-33 0 -54 -4l9 -352q0 -119 -7 -170l476 6q66 -10 65 -55q0 -31 -27.5 -62t-64.5 -39l-524 -8q-47 0 -65.5 17.5t-18.5 58.5q8 57 8 184 v143z" />
<glyph unicode="&#xc9;" d="M487 1761q12 35 52.5 35t64 -24.5t23.5 -40t-4 -25.5q-33 -92 -110 -174t-118 -82t-61.5 20.5t-20.5 48t31 54.5q110 88 143 188zM113 705q-29 18 -29 53t22 63q-8 205 -8 432q12 49 38 72t75 29q270 -12 586 -13q78 -16 77 -67q0 -86 -167 -100q-45 -2 -99 -3h-133 q-39 0 -215 17q0 -256 8 -352q109 -2 418 -2q74 -14 74 -66.5t-60 -81.5q-6 -4 -22 -8l-354 6q-33 0 -54 -4l9 -352q0 -119 -7 -170l476 6q66 -10 65 -55q0 -31 -27.5 -62t-64.5 -39l-524 -8q-47 0 -65.5 17.5t-18.5 58.5q8 57 8 184v143z" />
<glyph unicode="&#xca;" d="M331.5 1663q104.5 82 150.5 82t146.5 -77t100.5 -124q0 -29 -24.5 -49t-41 -20t-90 65.5t-93 65.5t-88 -68t-97.5 -68t-48.5 24t-19.5 55.5t104.5 113.5zM113 705q-29 18 -29 53t22 63q-8 205 -8 432q12 49 38 72t75 29q270 -12 586 -13q78 -16 77 -67q0 -86 -167 -100 q-45 -2 -99 -3h-133q-39 0 -215 17q0 -256 8 -352q109 -2 418 -2q74 -14 74 -66.5t-60 -81.5q-6 -4 -22 -8l-354 6q-33 0 -54 -4l9 -352q0 -119 -7 -170l476 6q66 -10 65 -55q0 -31 -27.5 -62t-64.5 -39l-524 -8q-47 0 -65.5 17.5t-18.5 58.5q8 57 8 184v143z" />
<glyph unicode="&#xcb;" d="M293 1458q-76 0 -92 80q0 47 34.5 83t76.5 36t66.5 -29t27.5 -78q-6 -41 -38 -66.5t-75 -25.5zM662 1655q37 0 62.5 -21.5t27.5 -58.5q-6 -51 -37 -81t-71 -30t-66.5 28t-26.5 71q0 92 111 92zM113 705q-29 18 -29 53t22 63q-8 205 -8 432q12 49 38 72t75 29 q270 -12 586 -13q78 -16 77 -67q0 -86 -167 -100q-45 -2 -99 -3h-133q-39 0 -215 17q0 -256 8 -352q109 -2 418 -2q74 -14 74 -66.5t-60 -81.5q-6 -4 -22 -8l-354 6q-33 0 -54 -4l9 -352q0 -119 -7 -170l476 6q66 -10 65 -55q0 -31 -27.5 -62t-64.5 -39l-524 -8 q-47 0 -65.5 17.5t-18.5 58.5q8 57 8 184v143z" />
<glyph unicode="&#xcc;" horiz-adv-x="481" d="M369 1563q37 -18 37 -78q0 -16 -13 -29q-18 -29 -46 -29t-65.5 20.5t-94 76t-83 107.5t-26.5 71.5t3 37t26.5 31t38 13.5t22.5 -2q31 -8 84.5 -97t116.5 -122zM276.5 1323q40.5 0 51.5 -47q2 -238 8 -711q0 -289 -17 -489q-4 -31 -37.5 -54.5t-68.5 -23.5q-57 0 -57 59 q20 205 20 508l-12 688q8 29 40 49.5t72.5 20.5z" />
<glyph unicode="&#xcd;" horiz-adv-x="481" d="M256 1761q12 35 52 35t63.5 -24.5t23.5 -40t-4 -25.5q-33 -92 -109.5 -174t-117.5 -82t-61.5 20.5t-20.5 48t33 54.5q108 88 141 188zM276.5 1323q40.5 0 51.5 -47q2 -238 8 -711q0 -289 -17 -489q-4 -31 -37.5 -54.5t-68.5 -23.5q-57 0 -57 59q20 205 20 508l-12 688 q8 29 40 49.5t72.5 20.5z" />
<glyph unicode="&#xce;" horiz-adv-x="481" d="M100.5 1663q104.5 82 150.5 82t146.5 -77t100.5 -124q0 -29 -24.5 -49t-40 -20t-91.5 65.5t-94.5 65.5t-87 -68t-97 -68t-48 24t-19.5 55.5t104.5 113.5zM276.5 1323q40.5 0 51.5 -47q2 -238 8 -711q0 -289 -17 -489q-4 -31 -37.5 -54.5t-68.5 -23.5q-57 0 -57 59 q20 205 20 508l-12 688q8 29 40 49.5t72.5 20.5z" />
<glyph unicode="&#xcf;" horiz-adv-x="481" d="M61 1458q-78 0 -92 80q0 47 35 83t77 36t66.5 -29t26.5 -78q-6 -41 -38 -66.5t-75 -25.5zM430 1655q37 0 62.5 -21.5t27.5 -58.5q-6 -51 -36.5 -81t-70.5 -30t-67 28t-27 71q0 92 111 92zM276.5 1323q40.5 0 51.5 -47q2 -238 8 -711q0 -289 -17 -489q-4 -31 -37.5 -54.5 t-68.5 -23.5q-57 0 -57 59q20 205 20 508l-12 688q8 29 40 49.5t72.5 20.5z" />
<glyph unicode="&#xd0;" horiz-adv-x="1206" d="M260 162q-27 205 -37 487h-76q-74 10 -73 78q0 31 20.5 52.5t55.5 23.5h73q0 346 8 477q16 53 74 72q25 4 41 4t23 -2q293 -82 510 -316.5t227 -562.5q0 -360 -299 -452q-86 -27 -181.5 -27t-166.5 14q8 -16 8 -43.5t-34 -53.5t-80 -26t-58 56l-27 123q-31 20 -31 49 t23 47zM393 803h150q61 -16 61 -78.5t-63 -75.5h-146q10 -256 37 -479q49 -14 166 -14t224.5 38.5t113.5 114.5q6 57 6 88q0 266 -142.5 471t-398.5 312q-8 -101 -8 -377z" />
<glyph unicode="&#xd1;" horiz-adv-x="1089" d="M328.5 1651q60.5 49 115 49t87 -16.5t44.5 -36.5q33 -53 60 -53.5t58.5 49t59 49.5t48 -25t20.5 -51q0 -74 -60.5 -113t-116.5 -39t-87 23.5t-53.5 47.5t-48.5 24q-12 0 -51 -46.5t-66 -46.5t-48.5 26t-21.5 68t60.5 91zM919.5 1356q32.5 0 59.5 -28t27 -64 q0 -801 7 -968t7 -171q0 -45 -24.5 -85t-54.5 -40t-45 3t-27.5 7t-24.5 17l-21 20q-8 8 -21.5 31.5t-21.5 38t-25.5 50.5t-75.5 146.5t-106 198.5q-162 297 -301 469q0 -666 -36 -924q-6 -49 -76 -49q-33 0 -54.5 16.5t-21.5 53.5t15.5 405.5t15.5 459.5v116 q0 147 22.5 165.5t46.5 18.5q113 0 344 -369q45 -72 172 -300t152 -281l-25 850q0 176 39 200q21 13 53.5 13z" />
<glyph unicode="&#xd2;" horiz-adv-x="1138" d="M750 1456q-18 -29 -46 -29t-66 20.5t-94.5 76t-83 107.5t-26.5 71.5t3 37t26.5 31t38 13.5t22.5 -2q31 -8 84.5 -97.5t116.5 -121.5q33 -16 37 -53.5t-12 -53.5zM627 1362q143 0 243 -92q197 -176 197 -556t-217 -597q-113 -109 -260 -119q-195 0 -303.5 133t-154.5 298 t-46 319q0 262 125 432q131 182 416 182zM612 1192q-274 0 -342 -260q-20 -70 -20 -178.5t41 -251.5q55 -193 164 -271q63 -49 153 -49t162 81t98.5 206t26.5 252q0 225 -64.5 348t-218.5 123z" />
<glyph unicode="&#xd3;" horiz-adv-x="1138" d="M612 1761q12 35 52.5 35t64 -24.5t23.5 -40t-4 -25.5q-33 -92 -110 -174t-118 -82t-61.5 20.5t-20.5 48t33 54.5q108 88 141 188zM627 1362q143 0 243 -92q197 -176 197 -556t-217 -597q-113 -109 -260 -119q-195 0 -303.5 133t-154.5 298t-46 319q0 262 125 432 q131 182 416 182zM612 1192q-274 0 -342 -260q-20 -70 -20 -178.5t41 -251.5q55 -193 164 -271q63 -49 153 -49t162 81t98.5 206t26.5 252q0 225 -64.5 348t-218.5 123z" />
<glyph unicode="&#xd4;" horiz-adv-x="1138" d="M456.5 1663q104.5 82 150.5 82t146.5 -77t100.5 -124q0 -29 -24.5 -49t-40 -20t-91 65.5t-94 65.5t-87 -68t-97.5 -68t-48.5 24t-19.5 55.5t104.5 113.5zM627 1362q143 0 243 -92q197 -176 197 -556t-217 -597q-113 -109 -260 -119q-195 0 -303.5 133t-154.5 298t-46 319 q0 262 125 432q131 182 416 182zM612 1192q-274 0 -342 -260q-20 -70 -20 -178.5t41 -251.5q55 -193 164 -271q63 -49 153 -49t162 81t98.5 206t26.5 252q0 225 -64.5 348t-218.5 123z" />
<glyph unicode="&#xd5;" horiz-adv-x="1138" d="M382 1651q60 49 114.5 49t87 -16.5t45.5 -36.5q33 -53 59.5 -53.5t58 49t59.5 49.5t48 -25t20 -51q0 -74 -60 -113t-116.5 -39t-87 23.5t-53 47.5t-49.5 24q-12 0 -51 -46.5t-65.5 -46.5t-48 26t-21.5 68t60 91zM627 1362q143 0 243 -92q197 -176 197 -556t-217 -597 q-113 -109 -260 -119q-195 0 -303.5 133t-154.5 298t-46 319q0 262 125 432q131 182 416 182zM612 1192q-274 0 -342 -260q-20 -70 -20 -178.5t41 -251.5q55 -193 164 -271q63 -49 153 -49t162 81t98.5 206t26.5 252q0 225 -64.5 348t-218.5 123z" />
<glyph unicode="&#xd6;" horiz-adv-x="1138" d="M418 1458q-78 0 -92 80q0 47 34.5 83t76.5 36t66.5 -29t26.5 -78q-6 -41 -37.5 -66.5t-74.5 -25.5zM786 1655q37 0 62.5 -21.5t28.5 -58.5q-6 -51 -37 -81t-71 -30t-66.5 28t-26.5 71q-1 92 110 92zM627 1362q143 0 243 -92q197 -176 197 -556t-217 -597 q-113 -109 -260 -119q-195 0 -303.5 133t-154.5 298t-46 319q0 262 125 432q131 182 416 182zM612 1192q-274 0 -342 -260q-20 -70 -20 -178.5t41 -251.5q55 -193 164 -271q63 -49 153 -49t162 81t98.5 206t26.5 252q0 225 -64.5 348t-218.5 123z" />
<glyph unicode="&#xd7;" horiz-adv-x="1003" d="M692 668q-82 -68 -125 -119q35 -37 102.5 -95.5t79 -69.5t48.5 -42q72 -55 71.5 -112.5t-86.5 -57.5q-20 0 -43 23q-78 70 -247 249l-25 -30q-195 -240 -260 -240q-31 0 -50.5 20.5t-19.5 49t53 92.5q59 66 131 134.5t74 72.5q-199 195 -235.5 252t-36.5 81.5t19.5 45 t46 20.5t77.5 -50t109.5 -118.5t113.5 -132.5l86 94q92 104 152 154q80 55 86 55h23q35 0 34.5 -65.5t-178.5 -210.5z" />
<glyph unicode="&#xd8;" horiz-adv-x="1163" d="M391 53q-23 -63 -63 -63q-16 0 -29 10q-45 18 -45 47t29 88q-197 213 -197 619q0 262 125 430q59 84 165.5 133t214 49t181.5 -33q27 78 55 97q14 6 32 6t40 -13q37 -12 37 -43.5t-41 -126.5q172 -176 172 -530q0 -174 -55.5 -335t-165 -268.5t-256.5 -117.5 q-113 0 -199 51zM711 1180q-55 16 -127 16t-142.5 -34t-111.5 -93q-80 -117 -80 -295q0 -252 117 -438zM465 229q57 -43 146 -43t160 81t97.5 206t26.5 279q0 223 -74 331q-252 -608 -356 -854z" />
<glyph unicode="&#xd9;" horiz-adv-x="1126" d="M707 1456q-18 -29 -46 -29t-66 20.5t-94.5 76t-84 107.5t-27.5 71.5t4 37t27.5 31t38 13.5t22.5 -2q31 -8 84 -97.5t117 -121.5q33 -16 37 -53.5t-12 -53.5zM950 1364q35 0 60 -35q35 -178 34 -399v-156q0 -176 -6 -207.5t-12 -70.5t-11 -59.5t-16 -55.5 q-23 -76 -63 -135q-61 -115 -161.5 -180.5t-204 -65.5t-213 90t-179.5 225q-106 209 -106 482q0 96 28 456q14 33 44 58.5t61 25.5q45 0 55 -61q-29 -354 -29 -449q0 -225 88 -399q55 -115 136.5 -191.5t158.5 -76.5q129 0 222 200q39 70 43 224q0 41 4 57l4 270 q0 188 -29 344q0 43 28.5 76t63.5 33z" />
<glyph unicode="&#xda;" horiz-adv-x="1126" d="M569 1761q12 35 52.5 35t64 -24.5t23.5 -40t-4 -25.5q-33 -92 -110 -174t-118 -82t-61.5 20.5t-20.5 48t31 54.5q110 88 143 188zM950 1364q35 0 60 -35q35 -178 34 -399v-156q0 -176 -6 -207.5t-12 -70.5t-11 -59.5t-16 -55.5q-23 -76 -63 -135q-61 -115 -161.5 -180.5 t-204 -65.5t-213 90t-179.5 225q-106 209 -106 482q0 96 28 456q14 33 44 58.5t61 25.5q45 0 55 -61q-29 -354 -29 -449q0 -225 88 -399q55 -115 136.5 -191.5t158.5 -76.5q129 0 222 200q39 70 43 224q0 41 4 57l4 270q0 188 -29 344q0 43 28.5 76t63.5 33z" />
<glyph unicode="&#xdb;" horiz-adv-x="1126" d="M413.5 1663q104.5 82 150.5 82t146.5 -77t100.5 -124q0 -29 -24.5 -49t-41 -20t-90 65.5t-93 65.5t-88 -68t-97.5 -68t-48.5 24t-19.5 55.5t104.5 113.5zM950 1364q35 0 60 -35q35 -178 34 -399v-156q0 -176 -6 -207.5t-12 -70.5t-11 -59.5t-16 -55.5q-23 -76 -63 -135 q-61 -115 -161.5 -180.5t-204 -65.5t-213 90t-179.5 225q-106 209 -106 482q0 96 28 456q14 33 44 58.5t61 25.5q45 0 55 -61q-29 -354 -29 -449q0 -225 88 -399q55 -115 136.5 -191.5t158.5 -76.5q129 0 222 200q39 70 43 224q0 41 4 57l4 270q0 188 -29 344q0 43 28.5 76 t63.5 33z" />
<glyph unicode="&#xdc;" horiz-adv-x="1126" d="M375 1458q-76 0 -92 80q0 47 34.5 83t76.5 36t66.5 -29t26.5 -78q-6 -41 -37.5 -66.5t-74.5 -25.5zM743 1655q37 0 62.5 -21.5t28.5 -58.5q-6 -51 -37 -81t-71 -30t-66.5 28t-26.5 71q-1 92 110 92zM950 1364q35 0 60 -35q35 -178 34 -399v-156q0 -176 -6 -207.5 t-12 -70.5t-11 -59.5t-16 -55.5q-23 -76 -63 -135q-61 -115 -161.5 -180.5t-204 -65.5t-213 90t-179.5 225q-106 209 -106 482q0 96 28 456q14 33 44 58.5t61 25.5q45 0 55 -61q-29 -354 -29 -449q0 -225 88 -399q55 -115 136.5 -191.5t158.5 -76.5q129 0 222 200 q39 70 43 224q0 41 4 57l4 270q0 188 -29 344q0 43 28.5 76t63.5 33z" />
<glyph unicode="&#xdd;" d="M467 1761q12 35 52 35t63.5 -24.5t23.5 -40t-4 -25.5q-33 -92 -109.5 -174t-117.5 -82t-61.5 20.5t-20.5 48t31 54.5q110 88 143 188zM365 496l2 104q0 53 -34 104.5t-163 297t-129 277.5t26.5 57.5t52 25.5t61.5 -47t141.5 -248t121.5 -221q197 348 316 491q29 27 46 27 t25 -4q49 -20 49.5 -54t-16.5 -59q-16 -25 -90 -129q-109 -152 -187.5 -306.5t-78.5 -188.5v-375l6 -164q0 -45 -24.5 -62.5t-60.5 -17.5t-48 39t-14 102.5t-2 186.5v164z" />
<glyph unicode="&#xde;" horiz-adv-x="1007" d="M123 72v1222q23 72 92 72q37 0 66 -47v-115q49 8 141 8t215 -35.5t196.5 -124.5t73.5 -229q0 -373 -524 -372q-80 0 -102 2v-357q-6 -37 -37 -66.5t-62 -29.5q-59 0 -59 72zM358 1053q-45 0 -77 -4v-435q117 -8 170 -8q268 0 309 203q-29 244 -402 244z" />
<glyph unicode="&#xdf;" horiz-adv-x="1083" d="M84 338l-4 455q0 211 41 337q14 45 49 115q92 180 309 180q143 0 245.5 -91t102.5 -226t-36 -227q-43 -111 -177 -148q27 2 52 2q137 0 211 -88q98 -111 98 -307q0 -168 -57 -279q-76 -145 -295 -145q-215 0 -261 211q-2 10 -2 30.5t26 49.5t61.5 29t58 -25t34 -53.5 t38 -53t67.5 -24.5q82 0 125 75.5t43 177t-20.5 150.5t-77 77t-176.5 28q-172 0 -174 88q0 27 14 53.5t39 30.5q238 90 237 323q0 178 -178 179q-66 0 -115 -51.5t-75.5 -134.5t-38.5 -170t-12 -268t12 -632.5t16 -493.5t4 -64.5t-22.5 -52.5t-77.5 -30q-80 0 -80 176v150z " />
<glyph unicode="&#xe0;" horiz-adv-x="802" d="M567 1053q-18 -29 -45.5 -29t-65.5 20.5t-94.5 76t-84 107.5t-27.5 71.5t4 37t27.5 30.5t38 13t22.5 -2q31 -8 84 -97t117 -122q33 -16 36.5 -53t-12.5 -53zM649 956q90 0 90 -153v-35l-4 -143q-2 -68 -2 -133l31 -463q0 -51 -105 -52h-29.5t-32.5 18.5t-2 45.5t-5 59 q-94 -100 -250 -100q-289 0 -289 446q0 248 93.5 375t267.5 127q82 0 163 -28q27 36 74 36zM436 770q-117 0 -174 -67.5t-57 -247.5q0 -303 164 -303q43 0 95 38.5t73 88.5q39 111 38.5 241.5t-32 190t-107.5 59.5z" />
<glyph unicode="&#xe1;" horiz-adv-x="802" d="M430 1358q12 35 52 35t63.5 -25t23.5 -40t-4 -25q-33 -92 -109.5 -174t-117.5 -82t-61.5 20t-20.5 48t31 52q110 91 143 191zM649 956q90 0 90 -153v-35l-4 -143q-2 -68 -2 -133l31 -463q0 -51 -105 -52h-29.5t-32.5 18.5t-2 45.5t-5 59q-94 -100 -250 -100 q-289 0 -289 446q0 248 93.5 375t267.5 127q82 0 163 -28q27 36 74 36zM436 770q-117 0 -174 -67.5t-57 -247.5q0 -303 164 -303q43 0 95 38.5t73 88.5q39 111 38.5 241.5t-32 190t-107.5 59.5z" />
<glyph unicode="&#xe2;" horiz-adv-x="802" d="M274.5 1259.5q104.5 81.5 150.5 81.5t146.5 -76.5t100.5 -123.5q0 -29 -24.5 -49.5t-41 -20.5t-91.5 65.5t-93.5 65.5t-87 -67.5t-97 -67.5t-48 23.5t-19.5 55.5t104.5 113.5zM649 956q90 0 90 -153v-35l-4 -143q-2 -68 -2 -133l31 -463q0 -51 -105 -52h-29.5t-32.5 18.5 t-2 45.5t-5 59q-94 -100 -250 -100q-289 0 -289 446q0 248 93.5 375t267.5 127q82 0 163 -28q27 36 74 36zM436 770q-117 0 -174 -67.5t-57 -247.5q0 -303 164 -303q43 0 95 38.5t73 88.5q39 111 38.5 241.5t-32 190t-107.5 59.5z" />
<glyph unicode="&#xe3;" horiz-adv-x="802" d="M199.5 1247q60.5 49 115 49t87 -16t44.5 -37q33 -53 59.5 -53t58.5 49t59.5 49t48 -24.5t20.5 -51.5q0 -74 -60.5 -112.5t-116.5 -38.5t-87 23.5t-53.5 47t-48.5 23.5q-12 0 -51 -46t-66 -46t-48.5 25.5t-21.5 67.5t60.5 91zM649 956q90 0 90 -153v-35l-4 -143 q-2 -68 -2 -133l31 -463q0 -51 -105 -52h-29.5t-32.5 18.5t-2 45.5t-5 59q-94 -100 -250 -100q-289 0 -289 446q0 248 93.5 375t267.5 127q82 0 163 -28q27 36 74 36zM436 770q-117 0 -174 -67.5t-57 -247.5q0 -303 164 -303q43 0 95 38.5t73 88.5q39 111 38.5 241.5 t-32 190t-107.5 59.5z" />
<glyph unicode="&#xe4;" horiz-adv-x="802" d="M236 1055q-76 0 -93 80q0 47 35 82.5t77 35.5t66.5 -28.5t26.5 -77.5q-6 -41 -37.5 -66.5t-74.5 -25.5zM604 1251q37 0 62.5 -21.5t27.5 -58.5q-6 -51 -36.5 -80.5t-70.5 -29.5t-66.5 27.5t-26.5 70.5q-1 92 110 92zM649 956q90 0 90 -153v-35l-4 -143q-2 -68 -2 -133 l31 -463q0 -51 -105 -52h-29.5t-32.5 18.5t-2 45.5t-5 59q-94 -100 -250 -100q-289 0 -289 446q0 248 93.5 375t267.5 127q82 0 163 -28q27 36 74 36zM436 770q-117 0 -174 -67.5t-57 -247.5q0 -303 164 -303q43 0 95 38.5t73 88.5q39 111 38.5 241.5t-32 190t-107.5 59.5z " />
<glyph unicode="&#xe5;" horiz-adv-x="802" d="M294 1309q58 49 135 49t119 -49t42 -125q0 -80 -53.5 -127t-126 -47t-123.5 55t-51 125t58 119zM424 1255q-27 0 -47.5 -18t-20.5 -45q0 -57 54 -57q66 0 65.5 60t-51.5 60zM649 956q90 0 90 -153v-35l-4 -143q-2 -68 -2 -133l31 -463q0 -51 -105 -52h-29.5t-32.5 18.5 t-2 45.5t-5 59q-94 -100 -250 -100q-289 0 -289 446q0 248 93.5 375t267.5 127q82 0 163 -28q27 36 74 36zM436 770q-117 0 -174 -67.5t-57 -247.5q0 -303 164 -303q43 0 95 38.5t73 88.5q39 111 38.5 241.5t-32 190t-107.5 59.5z" />
<glyph unicode="&#xe6;" horiz-adv-x="1396" d="M354 788q-43 0 -85 -23.5t-66.5 -47t-54 -34.5t-48.5 11q-31 25 -30 51q0 90 141 166q66 31 128 31t112 -8q139 -29 178 -84q76 94 243 94q102 0 179 -60.5t77 -148.5q0 -133 -63 -221q-66 -90 -211 -90q-66 0 -158 12q18 -162 86 -217q20 -23 56 -22q125 0 204 73 q84 84 123 84q16 0 49 -29.5t33 -56.5q0 -51 -127 -149q-145 -117 -263 -117t-202 109q-23 -25 -98.5 -69t-161.5 -44t-160.5 32.5t-127 105.5t-52.5 171q0 156 117 244q86 66 203 65q41 0 84 -8l69 -12q0 113 -30.5 152.5t-143.5 39.5zM791 561q184 0 184 164q0 84 -113 84 q-78 0 -131 -86q-20 -31 -25.5 -88t-7.5 -66q52 -8 93 -8zM461 465q-49 16 -100.5 16t-99.5 -44t-48 -113q0 -90 78 -140q53 -31 123 -30q102 0 178 69q-35 82 -49 213z" />
<glyph unicode="&#xe7;" horiz-adv-x="794" d="M488.5 -33q5.5 -8 28 -3t58.5 5q98 0 121 -116q6 -33 6 -60q0 -68 -51 -119t-146 -51t-153.5 26.5t-58.5 61.5t16.5 55.5t32.5 20.5t67.5 -26.5t92.5 -26.5t66.5 20.5t25.5 40.5q0 59 -31 70q-8 2 -32.5 2t-73.5 -4q-92 0 -92 108v29q-147 14 -231.5 142t-84.5 337 q0 137 73 250t185.5 169t219 56t171 -25.5t64.5 -67.5t-23.5 -84t-62.5 -42q-14 0 -79 23.5t-83 23.5q-119 0 -203 -87t-84 -230t46 -214t159 -71q45 0 154.5 52.5t136.5 52.5t43 -16.5t16 -41.5q0 -49 -61 -104q-98 -84 -238 -115q0 -33 5.5 -41z" />
<glyph unicode="&#xe8;" horiz-adv-x="815" d="M535 1047q-18 -29 -46 -29t-66 20.5t-94.5 75.5t-84 107.5t-27.5 72t4 37t27.5 30.5t38 13t22.5 -2q31 -8 84 -97t117 -122q33 -16 37 -53t-12 -53zM373 948q109 0 207 -63.5t98 -156.5t-80 -180t-213 -106q-57 -8 -172 -8q23 -174 88 -229q20 -23 55 -23q127 0 213 81 t123 81q16 0 49 -30.5t33 -57.5q0 -53 -129 -154q-57 -47 -138 -78.5t-151 -31.5q-178 0 -262 229q-53 141 -53 311t80 293t252 123zM383 807q-78 0 -133 -88q-20 -31 -39 -139q287 0 287 141q0 86 -115 86z" />
<glyph unicode="&#xe9;" horiz-adv-x="815" d="M397 1352q12 35 52 34.5t64 -25t24 -39.5t-5 -26q-33 -92 -109.5 -174t-117.5 -82t-61.5 20.5t-20.5 48.5t31 54q110 89 143 189zM373 948q109 0 207 -63.5t98 -156.5t-80 -180t-213 -106q-57 -8 -172 -8q23 -174 88 -229q20 -23 55 -23q127 0 213 81t123 81 q16 0 49 -30.5t33 -57.5q0 -53 -129 -154q-57 -47 -138 -78.5t-151 -31.5q-178 0 -262 229q-53 141 -53 311t80 293t252 123zM383 807q-78 0 -133 -88q-20 -31 -39 -139q287 0 287 141q0 86 -115 86z" />
<glyph unicode="&#xea;" horiz-adv-x="815" d="M241.5 1253q104.5 82 150.5 82t146.5 -76.5t100.5 -123.5q0 -29 -24.5 -49.5t-41 -20.5t-91 65.5t-93 65.5t-87.5 -67.5t-97.5 -67.5t-48 23.5t-19.5 55t104.5 113.5zM373 948q109 0 207 -63.5t98 -156.5t-80 -180t-213 -106q-57 -8 -172 -8q23 -174 88 -229 q20 -23 55 -23q127 0 213 81t123 81q16 0 49 -30.5t33 -57.5q0 -53 -129 -154q-57 -47 -138 -78.5t-151 -31.5q-178 0 -262 229q-53 141 -53 311t80 293t252 123zM383 807q-78 0 -133 -88q-20 -31 -39 -139q287 0 287 141q0 86 -115 86z" />
<glyph unicode="&#xeb;" horiz-adv-x="815" d="M203 1049q-76 0 -92 79q0 47 34.5 83t76.5 36t66.5 -28.5t26.5 -77.5q-6 -41 -37.5 -66.5t-74.5 -25.5zM571 1245q37 0 62.5 -21.5t28.5 -58.5q-6 -51 -37 -80.5t-71 -29.5t-66.5 27.5t-26.5 70.5q-1 92 110 92zM373 948q109 0 207 -63.5t98 -156.5t-80 -180t-213 -106 q-57 -8 -172 -8q23 -174 88 -229q20 -23 55 -23q127 0 213 81t123 81q16 0 49 -30.5t33 -57.5q0 -53 -129 -154q-57 -47 -138 -78.5t-151 -31.5q-178 0 -262 229q-53 141 -53 311t80 293t252 123zM383 807q-78 0 -133 -88q-20 -31 -39 -139q287 0 287 141q0 86 -115 86z" />
<glyph unicode="&#xec;" horiz-adv-x="458" d="M336 1161q37 -18 37 -78q0 -16 -13 -28q-18 -29 -45.5 -29t-65.5 20.5t-94.5 76t-83 107.5t-26.5 71.5t3 37t26.5 30.5t38 13t22.5 -2q31 -8 84.5 -97t116.5 -122zM299 221l2 -143q0 -39 -30.5 -64.5t-65.5 -25.5q-51 0 -53 51q-27 653 -27 722.5t6 170.5q4 37 47 37 q109 0 123 -88q6 -45 6 -72l-8 -129v-459z" />
<glyph unicode="&#xed;" horiz-adv-x="458" d="M223 1360q12 35 52 35t63.5 -24.5t23.5 -40t-4 -25.5q-33 -92 -109.5 -174t-117.5 -82t-61.5 20.5t-20.5 48t33 53.5q108 89 141 189zM299 221l2 -143q0 -39 -30.5 -64.5t-65.5 -25.5q-51 0 -53 51q-27 653 -27 722.5t6 170.5q4 37 47 37q109 0 123 -88q6 -45 6 -72 l-8 -129v-459z" />
<glyph unicode="&#xee;" horiz-adv-x="458" d="M67.5 1261.5q104.5 81.5 150.5 81.5t146.5 -76.5t100.5 -123.5q0 -29 -24.5 -49.5t-40 -20.5t-91.5 65.5t-94 65.5t-87 -67.5t-97.5 -67.5t-48 23.5t-19.5 55.5t104.5 113.5zM299 221l2 -143q0 -39 -30.5 -64.5t-65.5 -25.5q-51 0 -53 51q-27 653 -27 722.5t6 170.5 q4 37 47 37q109 0 123 -88q6 -45 6 -72l-8 -129v-459z" />
<glyph unicode="&#xef;" horiz-adv-x="458" d="M29 1057q-78 0 -92 80q0 47 34.5 82.5t76.5 35.5t66.5 -28.5t26.5 -77.5q-6 -41 -37.5 -66.5t-74.5 -25.5zM397 1253q37 0 62.5 -21.5t27.5 -57.5q-6 -51 -36.5 -81t-70.5 -30t-66.5 27.5t-26.5 70.5q-1 92 110 92zM299 221l2 -143q0 -39 -30.5 -64.5t-65.5 -25.5 q-51 0 -53 51q-27 653 -27 722.5t6 170.5q4 37 47 37q109 0 123 -88q6 -45 6 -72l-8 -129v-459z" />
<glyph unicode="&#xf0;" horiz-adv-x="948" d="M641 1300q0 -37 -27 -63l-84 -84q18 -18 117 -149q102 -135 146.5 -253t50.5 -274q0 -104 -53.5 -213.5t-147.5 -188.5t-198.5 -79t-187.5 67.5t-121 166t-38 186.5q0 178 105 332q51 74 131 117.5t172 43.5l-103 131l-45 -55q-35 -18 -60.5 -18t-42.5 16t-17 41t22 59 l59 64q-61 61 -61 80h2q-23 23 -22.5 53.5t29 57t54 26.5t50.5 -12l73 -90l72 73q33 27 59 27q66 -1 66 -62zM477 158q55 0 96 39q113 94 113 282q0 98 -59.5 191.5t-145.5 93.5t-156.5 -71.5t-70.5 -207t61.5 -231.5t161.5 -96z" />
<glyph unicode="&#xf1;" horiz-adv-x="925" d="M246.5 1241q60.5 49 115 49t87 -16.5t45.5 -36.5q33 -53 59.5 -53t58 49t59 49t48 -24.5t20.5 -51.5q0 -74 -60.5 -112.5t-116.5 -38.5t-87 23.5t-53.5 47t-48.5 23.5q-12 0 -51 -46t-66 -46t-48.5 25.5t-21.5 67.5t60.5 91zM156 63l-23 832q0 39 26.5 63.5t53.5 24.5 q66 0 76 -55q8 -55 8 -115q111 145 276 145q254 0 254 -579v-160.5t-12 -157.5q-14 -61 -88 -61q-49 0 -49 66l2 114q0 238 -15.5 325t-29.5 138q-35 111 -113 111q-102 0 -143 -74q-45 -80 -53 -188q-14 -190 -15 -404q0 -41 -30.5 -65.5t-73.5 -24.5q-51 -1 -51 65z" />
<glyph unicode="&#xf2;" horiz-adv-x="825" d="M565 1053q-18 -29 -45.5 -29t-65.5 20.5t-94.5 76t-83 107.5t-26.5 71.5t3 37t26.5 30.5t38 13t22.5 -2q31 -8 84 -97t117 -122q33 -16 36.5 -53t-12.5 -53zM440 954q147 0 242.5 -141t95.5 -339t-97 -337t-258 -139t-259 142.5t-98 316.5q0 223 90 356q96 141 284 141z M416 786q-86 0 -141.5 -90t-55.5 -190q0 -156 61.5 -238t139.5 -82q139 0 178 121q16 57 16 144q1 335 -198 335z" />
<glyph unicode="&#xf3;" horiz-adv-x="825" d="M428 1358q12 35 52 35t63.5 -25t23.5 -40t-4 -25q-33 -92 -109.5 -174t-117.5 -82t-61.5 20t-20.5 48t33 52q108 91 141 191zM440 954q147 0 242.5 -141t95.5 -339t-97 -337t-258 -139t-259 142.5t-98 316.5q0 223 90 356q96 141 284 141zM416 786q-86 0 -141.5 -90 t-55.5 -190q0 -156 61.5 -238t139.5 -82q139 0 178 121q16 57 16 144q1 335 -198 335z" />
<glyph unicode="&#xf4;" horiz-adv-x="825" d="M272.5 1259.5q104.5 81.5 150.5 81.5t146.5 -76.5t100.5 -123.5q0 -29 -24.5 -49.5t-40 -20.5t-91.5 65.5t-94.5 65.5t-87 -67.5t-97 -67.5t-48 23.5t-19.5 55.5t104.5 113.5zM440 954q147 0 242.5 -141t95.5 -339t-97 -337t-258 -139t-259 142.5t-98 316.5q0 223 90 356 q96 141 284 141zM416 786q-86 0 -141.5 -90t-55.5 -190q0 -156 61.5 -238t139.5 -82q139 0 178 121q16 57 16 144q1 335 -198 335z" />
<glyph unicode="&#xf5;" horiz-adv-x="825" d="M197.5 1247q60.5 49 115 49t87 -16t44.5 -37q33 -53 59.5 -53t58.5 49t59.5 49t48 -24.5t20.5 -51.5q0 -74 -60.5 -112.5t-116.5 -38.5t-87 23.5t-53.5 47t-48.5 23.5q-12 0 -51.5 -46t-66 -46t-48 25.5t-21.5 67.5t60.5 91zM440 954q147 0 242.5 -141t95.5 -339 t-97 -337t-258 -139t-259 142.5t-98 316.5q0 223 90 356q96 141 284 141zM416 786q-86 0 -141.5 -90t-55.5 -190q0 -156 61.5 -238t139.5 -82q139 0 178 121q16 57 16 144q1 335 -198 335z" />
<glyph unicode="&#xf6;" horiz-adv-x="825" d="M233 1055q-78 0 -92 80q0 47 35 82.5t77 35.5t66.5 -28.5t26.5 -77.5q-6 -41 -38 -66.5t-75 -25.5zM602 1251q37 0 62.5 -21.5t27.5 -58.5q-6 -51 -36.5 -80.5t-70.5 -29.5t-66.5 27.5t-26.5 70.5q-1 92 110 92zM440 954q147 0 242.5 -141t95.5 -339t-97 -337t-258 -139 t-259 142.5t-98 316.5q0 223 90 356q96 141 284 141zM416 786q-86 0 -141.5 -90t-55.5 -190q0 -156 61.5 -238t139.5 -82q139 0 178 121q16 57 16 144q1 335 -198 335z" />
<glyph unicode="&#xf7;" horiz-adv-x="1062" d="M450.5 931.5q30.5 26.5 68.5 26.5t66.5 -26.5t28.5 -64.5t-29.5 -70.5t-71.5 -32.5t-67.5 27.5t-25.5 70.5t30.5 69.5zM893 481l-502 -14q-221 0 -261 21.5t-40 54.5q0 70 80 73q123 -10 231 -10l494 17q61 -25 61 -76.5t-63 -65.5zM414 209q0 102 127 102q74 -16 75 -98 q-27 -92 -114 -92q-41 0 -64.5 24.5t-23.5 63.5z" />
<glyph unicode="&#xf8;" horiz-adv-x="860" d="M637 987q72 0 72 -45q0 -35 -37 -108q106 -143 106 -375q0 -139 -78 -291q-39 -76 -103.5 -122t-138 -46t-149.5 35q-39 -76 -74.5 -76t-57 14.5t-21.5 42t43 105.5q-147 158 -148 358q0 70 31 159t81 159.5t126 114.5t147.5 44t126.5 -30q31 61 74 61zM489 754 q-39 31 -85 30.5t-101 -51.5q-96 -90 -96 -229q0 -90 72 -209zM614 424q0 100 -34 199l-203 -437q47 -41 117 -41q120 66 120 279z" />
<glyph unicode="&#xf9;" horiz-adv-x="819" d="M545 1047q-18 -29 -46 -29t-66 20.5t-94 75.5t-83 107.5t-27 72t3.5 37t27 30.5t37.5 13t22 -2q31 -8 84.5 -97t116.5 -122q33 -16 37 -53t-12 -53zM108.5 934.5q26.5 23.5 54 23.5t43 -10t18.5 -18t7 -29q-12 -160 -12 -288t31 -292.5t67 -164.5q55 0 140.5 61.5 t122.5 128.5q-25 295 -25 506q0 43 27.5 73.5t66.5 30.5q63 0 64 -86q0 -145 21.5 -431.5t43.5 -364.5q4 -16 4 -38t-27.5 -41.5t-71.5 -19.5t-58 50q-4 41 -21 122q-143 -150 -289 -149q-68 0 -121 51t-83 139q-53 170 -53.5 319.5t16.5 369.5q8 34 34.5 57.5z" />
<glyph unicode="&#xfa;" horiz-adv-x="819" d="M408 1352q12 35 52 34.5t63.5 -25t23.5 -39.5t-4 -26q-33 -92 -110 -174t-118 -82t-61.5 20.5t-20.5 48.5t33 54q109 89 142 189zM108.5 934.5q26.5 23.5 54 23.5t43 -10t18.5 -18t7 -29q-12 -160 -12 -288t31 -292.5t67 -164.5q55 0 140.5 61.5t122.5 128.5 q-25 295 -25 506q0 43 27.5 73.5t66.5 30.5q63 0 64 -86q0 -145 21.5 -431.5t43.5 -364.5q4 -16 4 -38t-27.5 -41.5t-71.5 -19.5t-58 50q-4 41 -21 122q-143 -150 -289 -149q-68 0 -121 51t-83 139q-53 170 -53.5 319.5t16.5 369.5q8 34 34.5 57.5z" />
<glyph unicode="&#xfb;" horiz-adv-x="819" d="M251.5 1253q104.5 82 151 82t146.5 -76.5t100 -123.5q0 -29 -24.5 -49.5t-40 -20.5t-91 65.5t-94 65.5t-87 -67.5t-97.5 -67.5t-48.5 23.5t-19.5 55t104.5 113.5zM108.5 934.5q26.5 23.5 54 23.5t43 -10t18.5 -18t7 -29q-12 -160 -12 -288t31 -292.5t67 -164.5 q55 0 140.5 61.5t122.5 128.5q-25 295 -25 506q0 43 27.5 73.5t66.5 30.5q63 0 64 -86q0 -145 21.5 -431.5t43.5 -364.5q4 -16 4 -38t-27.5 -41.5t-71.5 -19.5t-58 50q-4 41 -21 122q-143 -150 -289 -149q-68 0 -121 51t-83 139q-53 170 -53.5 319.5t16.5 369.5 q8 34 34.5 57.5z" />
<glyph unicode="&#xfc;" horiz-adv-x="819" d="M213 1049q-78 0 -92 79q0 47 34.5 83t76.5 36t67 -28.5t27 -77.5q-6 -41 -38 -66.5t-75 -25.5zM582 1245q37 0 62.5 -21.5t27.5 -58.5q-6 -51 -37 -80.5t-71 -29.5t-66.5 27.5t-26.5 70.5q0 92 111 92zM108.5 934.5q26.5 23.5 54 23.5t43 -10t18.5 -18t7 -29 q-12 -160 -12 -288t31 -292.5t67 -164.5q55 0 140.5 61.5t122.5 128.5q-25 295 -25 506q0 43 27.5 73.5t66.5 30.5q63 0 64 -86q0 -145 21.5 -431.5t43.5 -364.5q4 -16 4 -38t-27.5 -41.5t-71.5 -19.5t-58 50q-4 41 -21 122q-143 -150 -289 -149q-68 0 -121 51t-83 139 q-53 170 -53.5 319.5t16.5 369.5q8 34 34.5 57.5z" />
<glyph unicode="&#xfd;" horiz-adv-x="866" d="M438 1352q12 35 52 34.5t64 -25t24 -39.5t-5 -26q-33 -92 -109.5 -174t-117.5 -82t-61.5 20.5t-20.5 48.5t31 54q110 89 143 189zM731 946q27 0 52.5 -18.5t25.5 -40.5q0 -59 -174 -643t-258 -819q-18 -55 -57 -55.5t-61.5 27.5t-22.5 81t68.5 254.5t82.5 257.5 q-51 86 -346 860q-4 10 -4 26.5t24.5 43t67.5 26.5t70 -43q29 -74 94 -257t101 -265t69 -170q29 96 98.5 373.5t79.5 316.5q8 45 90 45z" />
<glyph unicode="&#xfe;" horiz-adv-x="929" d="M84 -563v700q4 322 4 498t-2 268l-4 217q0 25 21.5 41.5t56.5 16.5q68 0 86 -58v-262q16 41 73.5 69.5t149.5 28.5q207 0 299 -159q82 -139 82 -347t-120 -328t-329 -120q-88 0 -155 33v-574q-18 -63 -74 -86q-18 -6 -35 -6q-53 0 -53 68zM246 199q8 0 23.5 -8.5 t43.5 -16.5q27 -12 90 -12q283 0 283 291q0 248 -127 313q-53 29 -131 29q-76 -10 -129 -66.5t-53 -112.5v-417z" />
<glyph unicode="&#xff;" horiz-adv-x="866" d="M244 1049q-76 0 -92 79q0 47 34.5 83t76.5 36t66.5 -28.5t26.5 -77.5q-6 -41 -37.5 -66.5t-74.5 -25.5zM612 1245q37 0 62.5 -21.5t27.5 -58.5q-6 -51 -36.5 -80.5t-70.5 -29.5t-66.5 27.5t-26.5 70.5q-1 92 110 92zM731 946q27 0 52.5 -18.5t25.5 -40.5q0 -59 -174 -643 t-258 -819q-18 -55 -57 -55.5t-61.5 27.5t-22.5 81t68.5 254.5t82.5 257.5q-51 86 -346 860q-4 10 -4 26.5t24.5 43t67.5 26.5t70 -43q29 -74 94 -257t101 -265t69 -170q29 96 98.5 373.5t79.5 316.5q8 45 90 45z" />
<glyph unicode="&#x100;" horiz-adv-x="999" d="M260 1628l240 -6q143 0 213.5 5t84 5t34 -14t21.5 -28.5t1 -43.5q0 -72 -80 -80q-100 -8 -232 -8t-298 8q-68 4 -68 58q0 104 84 104zM530 1350q51 0 86 -45t91 -187q129 -334 251 -1046q2 -8 2.5 -23.5t-19 -33t-55.5 -17.5t-60.5 17.5t-33 57.5t-30.5 156 q-49 260 -66 271q-25 14 -163 30.5t-183 16.5t-53 -8q-37 -33 -100 -498q-8 -39 -78 -39t-70 59q0 147 108.5 563t180.5 552q90 174 192 174zM522 1122q-31 0 -106.5 -181t-75.5 -224q0 -10 4 -15q16 -16 129 -28t149.5 -12t41 5t4.5 32.5t-55.5 225t-90.5 197.5z" />
<glyph unicode="&#x101;" horiz-adv-x="802" d="M154 1227l239 -6q143 0 214 5t84.5 5t33.5 -14.5t21.5 -28.5t1.5 -43q0 -72 -80 -80q-100 -8 -232.5 -8t-298.5 8q-68 4 -67 57q0 105 84 105zM649 956q90 0 90 -153v-35l-4 -143q-2 -68 -2 -133l31 -463q0 -51 -105 -52h-29.5t-32.5 18.5t-2 45.5t-5 59 q-94 -100 -250 -100q-289 0 -289 446q0 248 93.5 375t267.5 127q82 0 163 -28q27 36 74 36zM436 770q-117 0 -174 -67.5t-57 -247.5q0 -303 164 -303q43 0 95 38.5t73 88.5q39 111 38.5 241.5t-32 190t-107.5 59.5z" />
<glyph unicode="&#x102;" horiz-adv-x="999" d="M283.5 1688.5q21.5 23.5 58.5 23.5t58.5 -42t31.5 -59.5t35 -34.5t64.5 -17t64.5 22.5t54.5 72.5t62 50t51 -20.5t18.5 -53.5q0 -86 -78.5 -145.5t-179 -59.5t-181.5 57.5t-81 149.5q0 33 21.5 56.5zM530 1350q51 0 86 -45t91 -187q129 -334 251 -1046q2 -8 2.5 -23.5 t-19 -33t-55.5 -17.5t-60.5 17.5t-33 57.5t-30.5 156q-49 260 -66 271q-25 14 -163 30.5t-183 16.5t-53 -8q-37 -33 -100 -498q-8 -39 -78 -39t-70 59q0 147 108.5 563t180.5 552q90 174 192 174zM522 1122q-31 0 -106.5 -181t-75.5 -224q0 -10 4 -15q16 -16 129 -28 t149.5 -12t41 5t4.5 32.5t-55.5 225t-90.5 197.5z" />
<glyph unicode="&#x103;" horiz-adv-x="802" d="M177.5 1287.5q21.5 23.5 58 23.5t58 -42t32 -59.5t35 -35t64.5 -17.5t64.5 22.5t54 73t62.5 50.5t51.5 -20.5t18.5 -53.5q0 -86 -79 -145.5t-179.5 -59.5t-181 57.5t-80.5 149.5q0 33 21.5 56.5zM649 956q90 0 90 -153v-35l-4 -143q-2 -68 -2 -133l31 -463 q0 -51 -105 -52h-29.5t-32.5 18.5t-2 45.5t-5 59q-94 -100 -250 -100q-289 0 -289 446q0 248 93.5 375t267.5 127q82 0 163 -28q27 36 74 36zM436 770q-117 0 -174 -67.5t-57 -247.5q0 -303 164 -303q43 0 95 38.5t73 88.5q39 111 38.5 241.5t-32 190t-107.5 59.5z" />
<glyph unicode="&#x104;" horiz-adv-x="999" d="M725 -137q0 111 76 184q-4 4 -33 154q-55 289 -72 299q-25 14 -163 30.5t-183 16.5t-53 -8q-37 -33 -100 -498q-8 -39 -78 -39t-70 59q0 147 108.5 563t180.5 552q90 174 192 174q51 0 86 -45t91 -187q129 -334 251 -1046q2 -14 0 -27v-2q0 -25 -38 -55q-76 -59 -76 -127 q0 -43 21.5 -68.5t49 -25.5t53 18t41 33.5t39 18.5t46.5 -27q16 -14 16 -26.5t-10 -31.5q-18 -37 -49 -55q-53 -41 -119 -41q-18 0 -37 2q-88 10 -129 76t-41 129zM344 702q16 -16 129 -28t149.5 -12t41 5t4.5 32.5t-55.5 225t-90.5 197.5q-31 0 -106.5 -181t-75.5 -224 q0 -11 4 -15z" />
<glyph unicode="&#x105;" horiz-adv-x="802" d="M649 956q90 0 90 -153v-35l-4 -143q-2 -68 -2 -133q0 -248 31 -455v-14q-2 -18 -31 -43q-84 -68 -84 -138q0 -43 21.5 -68.5t49.5 -25.5t53.5 18.5t40.5 34t39 18.5t46 -28q16 -14 16 -26.5t-10 -30.5q-18 -37 -49 -56q-53 -41 -119 -40q-18 0 -37 2q-88 10 -129 75.5 t-41 146.5t64 154q0 4 2 23q4 37 -6 61q-94 -100 -250 -100q-289 0 -289 446q0 248 93.5 375t267.5 127q82 0 163 -28q27 36 74 36zM575 520q0 131 -31.5 190.5t-107.5 59.5q-117 0 -174 -67.5t-57 -247.5q0 -303 164 -303q43 0 95 38.5t73 88.5q38 110 38 241z" />
<glyph unicode="&#x106;" horiz-adv-x="1122" d="M670 1761q12 35 52 35t63.5 -24.5t23.5 -40t-4 -25.5q-33 -92 -110 -174t-117.5 -82t-61 20.5t-20.5 48t32 54.5q109 88 142 188zM688 1339q137 0 303 -53q37 -29 37 -62.5t-33.5 -59t-76.5 -25.5q-111 29 -207 28q-221 0 -336 -131t-115 -389t135 -403q70 -76 166 -76 t307 102q74 35 99 35q53 0 53 -55t-51 -92q-176 -92 -274.5 -124t-170.5 -32q-147 0 -252 109q-186 201 -186 548t177 513.5t425 166.5z" />
<glyph unicode="&#x107;" horiz-adv-x="794" d="M487 1352q12 35 52.5 34.5t64 -25t23.5 -39.5t-4 -26q-33 -92 -110 -174t-118 -82t-61.5 20.5t-20.5 48.5t31 54q110 89 143 189zM122 729q73 113 185.5 169t219 56t171 -25.5t64.5 -67.5t-23.5 -84t-62.5 -42q-14 0 -79 23.5t-83 23.5q-119 0 -203 -87t-84 -230t46 -214 t159 -71q45 0 154.5 52.5t136.5 52.5t43 -16.5t16 -41.5q0 -49 -62.5 -103t-154.5 -90t-166 -36q-164 0 -257 129t-93 352q0 137 73 250z" />
<glyph unicode="&#x108;" horiz-adv-x="1122" d="M514 1663q104 82 150.5 82t146.5 -77t100 -124q0 -29 -24.5 -49t-40 -20t-91 65.5t-94 65.5t-87 -68t-97 -68t-48 24t-19.5 55.5t104 113.5zM688 1339q137 0 303 -53q37 -29 37 -62.5t-33.5 -59t-76.5 -25.5q-111 29 -207 28q-221 0 -336 -131t-115 -389t135 -403 q70 -76 166 -76t307 102q74 35 99 35q53 0 53 -55t-51 -92q-176 -92 -274.5 -124t-170.5 -32q-147 0 -252 109q-186 201 -186 548t177 513.5t425 166.5z" />
<glyph unicode="&#x109;" horiz-adv-x="794" d="M331.5 1253q104.5 82 150.5 82t146.5 -76.5t100.5 -123.5q0 -29 -24.5 -49.5t-41 -20.5t-90 65.5t-93 65.5t-88 -67.5t-97.5 -67.5t-48.5 23.5t-19.5 55t104.5 113.5zM122 729q73 113 185.5 169t219 56t171 -25.5t64.5 -67.5t-23.5 -84t-62.5 -42q-14 0 -79 23.5 t-83 23.5q-119 0 -203 -87t-84 -230t46 -214t159 -71q45 0 154.5 52.5t136.5 52.5t43 -16.5t16 -41.5q0 -49 -62.5 -103t-154.5 -90t-166 -36q-164 0 -257 129t-93 352q0 137 73 250z" />
<glyph unicode="&#x10a;" horiz-adv-x="1122" d="M659 1696q37 0 70 -35t33 -73t-36 -76.5t-75 -38.5t-70.5 32.5t-31.5 83.5q0 98 106 107h4zM688 1339q137 0 303 -53q37 -29 37 -62.5t-33.5 -59t-76.5 -25.5q-111 29 -207 28q-221 0 -336 -131t-115 -389t135 -403q70 -76 166 -76t307 102q74 35 99 35q53 0 53 -55 t-51 -92q-176 -92 -274.5 -124t-170.5 -32q-147 0 -252 109q-186 201 -186 548t177 513.5t425 166.5z" />
<glyph unicode="&#x10b;" horiz-adv-x="794" d="M477 1286q37 0 70 -34.5t33 -72.5t-36 -77t-75 -39t-70.5 32.5t-31.5 84.5q0 98 106 106h4zM122 729q73 113 185.5 169t219 56t171 -25.5t64.5 -67.5t-23.5 -84t-62.5 -42q-14 0 -79 23.5t-83 23.5q-119 0 -203 -87t-84 -230t46 -214t159 -71q45 0 154.5 52.5t136.5 52.5 t43 -16.5t16 -41.5q0 -49 -62.5 -103t-154.5 -90t-166 -36q-164 0 -257 129t-93 352q0 137 73 250z" />
<glyph unicode="&#x10c;" horiz-adv-x="1122" d="M838 1741q33 0 52 -24.5t18 -56.5t-107.5 -109.5t-149.5 -77.5q-47 0 -145 80.5t-98 127.5q0 29 25.5 49.5t46 19.5t83 -48t96.5 -90q130 129 179 129zM688 1339q137 0 303 -53q37 -29 37 -62.5t-33.5 -59t-76.5 -25.5q-111 29 -207 28q-221 0 -336 -131t-115 -389 t135 -403q70 -76 166 -76t307 102q74 35 99 35q53 0 53 -55t-51 -92q-176 -92 -274.5 -124t-170.5 -32q-147 0 -252 109q-186 201 -186 548t177 513.5t425 166.5z" />
<glyph unicode="&#x10d;" horiz-adv-x="794" d="M655 1331q33 0 52.5 -24.5t18.5 -56t-107.5 -109.5t-149.5 -78q-47 0 -145.5 81t-98.5 128q0 29 25.5 49t46 19t83 -48t97.5 -90q129 129 178 129zM122 729q73 113 185.5 169t219 56t171 -25.5t64.5 -67.5t-23.5 -84t-62.5 -42q-14 0 -79 23.5t-83 23.5q-119 0 -203 -87 t-84 -230t46 -214t159 -71q45 0 154.5 52.5t136.5 52.5t43 -16.5t16 -41.5q0 -49 -62.5 -103t-154.5 -90t-166 -36q-164 0 -257 129t-93 352q0 137 73 250z" />
<glyph unicode="&#x10e;" horiz-adv-x="972" d="M647 1741q33 0 52.5 -24.5t18.5 -56.5t-107.5 -109.5t-149.5 -77.5q-47 0 -145.5 80.5t-98.5 127.5q0 29 25.5 49.5t46 19.5t83 -48t97.5 -90q129 129 178 129zM121 66q-31 23 -31 50t23 46q-39 293 -39 672q0 115 10 446q10 31 42 53.5t60.5 22.5t34.5 -2 q293 -82 510 -316.5t227 -562.5q0 -360 -299 -452q-86 -27 -181 -27t-167 14q8 -16 8 -43.5t-33.5 -53.5t-79.5 -26t-59 56zM244 850q0 -358 41 -680q49 -14 165.5 -14t224 38.5t113.5 114.5q6 57 7 88q0 266 -142.5 471t-398.5 312q-10 -242 -10 -330z" />
<glyph unicode="&#x10f;" horiz-adv-x="1126" d="M578 958l-3 396q0 111 71 110.5t79 -61.5q4 -27 10 -322t19.5 -553t13.5 -481q0 -61 -92 -61q-61 0 -62 86q-88 -70 -208 -70q-154 0 -249.5 114.5t-95.5 282.5t69 314.5t214 210.5q90 39 174 39q31 -1 60 -5zM943.5 1443.5q21.5 18.5 49 18.5t51 -19.5t23.5 -51.5 q0 -113 -41 -217.5t-108.5 -104.5t-67.5 70q0 29 36 102.5t36 155.5q0 28 21.5 46.5zM552.5 746.5q-20.5 23.5 -44 28.5t-56 5t-79.5 -24.5t-80 -79.5q-66 -111 -66 -232.5t48.5 -198.5t137.5 -77t140 88t51 225q0 154 -15.5 198t-36 67.5z" />
<glyph unicode="&#x110;" horiz-adv-x="1126" d="M598 -4q-98 0 -170 14q8 -18 8 -39.5t-26.5 -52.5t-73.5 -31t-59.5 26t-38.5 153q-31 23 -31 50t22 46q-27 205 -36 487q-96 4 -123 20.5t-27 58.5t28.5 57.5t121.5 17.5q0 346 8 477q12 45 50 61.5t56.5 16.5t30.5 -4q293 -82 510 -316.5t227 -562.5q0 -246 -133 -362.5 t-344 -116.5zM542.5 783.5q30.5 -11.5 30.5 -59.5t-29.5 -58.5t-178.5 -16.5q8 -256 36 -479q49 -14 129 -14q211 0 296 57t85 184q0 266 -142 471t-398 312q-8 -100 -9 -377q150 -8 180.5 -19.5z" />
<glyph unicode="&#x111;" horiz-adv-x="921" d="M295 1255l223 -6h47v105q0 111 71 110.5t79 -61.5q2 -18 6 -150l94 7q29 2 50.5 -13.5t22.5 -30t1 -42.5q0 -72 -80 -80l-84 -7q8 -238 8 -325q25 -492 25 -715q0 -61 -92 -61q-61 0 -62 86q-88 -70 -209 -70q-154 0 -249 114.5t-95 282.5t68.5 314.5t214.5 210.5 q90 39 174 39q31 0 59 -5v125q-100 0 -288 11q-68 4 -68 57q0 104 84 104zM265 245q48 -77 137.5 -77t140.5 88t51 225q0 154 -16 197q-29 86 -82 98q-20 4 -53 4t-80.5 -24.5t-79.5 -79.5q-66 -111 -66 -232.5t48 -198.5z" />
<glyph unicode="&#x112;" d="M211 1630l240 -6q143 0 213.5 5t84 5t34 -14t21.5 -28.5t1 -43.5q0 -72 -80 -80q-100 -8 -232.5 -8t-297.5 8q-68 2 -68 58q0 104 84 104zM113 705q-29 18 -29 53t22 63q-8 205 -8 432q12 49 38 72t75 29q270 -12 586 -13q78 -16 77 -67q0 -86 -167 -100q-45 -2 -99 -3 h-133q-39 0 -215 17q0 -256 8 -352q109 -2 418 -2q74 -14 74 -66.5t-60 -81.5q-6 -4 -22 -8l-354 6q-33 0 -54 -4l9 -352q0 -119 -7 -170l476 6q66 -10 65 -55q0 -31 -27.5 -62t-64.5 -39l-524 -8q-47 0 -65.5 17.5t-18.5 58.5q8 57 8 184v143z" />
<glyph unicode="&#x113;" horiz-adv-x="815" d="M121 1221l239 -7q143 0 214 5.5t84.5 5.5t34 -14.5t21.5 -29t1 -42.5q0 -72 -80 -80q-100 -8 -232.5 -8t-298.5 8q-68 2 -67 57q0 105 84 105zM373 948q109 0 207 -63.5t98 -156.5t-80 -180t-213 -106q-57 -8 -172 -8q23 -174 88 -229q20 -23 55 -23q127 0 213 81t123 81 q16 0 49 -30.5t33 -57.5q0 -53 -129 -154q-57 -47 -138 -78.5t-151 -31.5q-178 0 -262 229q-53 141 -53 311t80 293t252 123zM383 807q-78 0 -133 -88q-20 -31 -39 -139q287 0 287 141q0 86 -115 86z" />
<glyph unicode="&#x114;" d="M234.5 1690.5q21.5 23.5 58.5 23.5t58.5 -42t31.5 -59.5t34.5 -34.5t64.5 -17t64.5 22.5t54.5 72.5t62.5 50t51 -20.5t18.5 -53.5q0 -86 -79 -145.5t-179 -59.5t-181 57.5t-81 149.5q0 33 21.5 56.5zM113 705q-29 18 -29 53t22 63q-8 205 -8 432q12 49 38 72t75 29 q270 -12 586 -13q78 -16 77 -67q0 -86 -167 -100q-45 -2 -99 -3h-133q-39 0 -215 17q0 -256 8 -352q109 -2 418 -2q74 -14 74 -66.5t-60 -81.5q-6 -4 -22 -8l-354 6q-33 0 -54 -4l9 -352q0 -119 -7 -170l476 6q66 -10 65 -55q0 -31 -27.5 -62t-64.5 -39l-524 -8 q-47 0 -65.5 17.5t-18.5 58.5q8 57 8 184v143z" />
<glyph unicode="&#x115;" horiz-adv-x="815" d="M144.5 1281q21.5 24 58.5 24t58.5 -42t31.5 -59.5t34.5 -35t64.5 -17.5t64.5 22.5t54.5 72.5t62.5 50t51 -20.5t18.5 -52.5q0 -86 -79 -145.5t-179 -59.5t-181 57.5t-81 149.5q0 32 21.5 56zM373 948q109 0 207 -63.5t98 -156.5t-80 -180t-213 -106q-57 -8 -172 -8 q23 -174 88 -229q20 -23 55 -23q127 0 213 81t123 81q16 0 49 -30.5t33 -57.5q0 -53 -129 -154q-57 -47 -138 -78.5t-151 -31.5q-178 0 -262 229q-53 141 -53 311t80 293t252 123zM383 807q-78 0 -133 -88q-20 -31 -39 -139q287 0 287 141q0 86 -115 86z" />
<glyph unicode="&#x116;" d="M477 1696q37 0 70 -35t33 -73t-36 -76.5t-75 -38.5t-70.5 32.5t-31.5 83.5q0 98 106 107h4zM113 705q-29 18 -29 53t22 63q-8 205 -8 432q12 49 38 72t75 29q270 -12 586 -13q78 -16 77 -67q0 -86 -167 -100q-45 -2 -99 -3h-133q-39 0 -215 17q0 -256 8 -352 q109 -2 418 -2q74 -14 74 -66.5t-60 -81.5q-6 -4 -22 -8l-354 6q-33 0 -54 -4l9 -352q0 -119 -7 -170l476 6q66 -10 65 -55q0 -31 -27.5 -62t-64.5 -39l-524 -8q-47 0 -65.5 17.5t-18.5 58.5q8 57 8 184v143z" />
<glyph unicode="&#x117;" horiz-adv-x="815" d="M387 1286q37 0 69.5 -34.5t32.5 -72.5t-35.5 -77t-74.5 -39t-71 32.5t-32 84.5q0 98 107 106h4zM373 948q109 0 207 -63.5t98 -156.5t-80 -180t-213 -106q-57 -8 -172 -8q23 -174 88 -229q20 -23 55 -23q127 0 213 81t123 81q16 0 49 -30.5t33 -57.5q0 -53 -129 -154 q-57 -47 -138 -78.5t-151 -31.5q-178 0 -262 229q-53 141 -53 311t80 293t252 123zM383 807q-78 0 -133 -88q-20 -31 -39 -139q287 0 287 141q0 86 -115 86z" />
<glyph unicode="&#x118;" d="M719 -328q-88 10 -129 76t-41 131.5t35 126.5l-387 -6q-47 0 -65.5 17.5t-18.5 58.5q8 57 8 184v143l-8 302q-29 18 -29 53t22 63q-8 205 -8 432q12 49 38 72t75 29q270 -12 586 -13q78 -16 77 -67q0 -86 -167 -100q-45 -2 -99 -3h-133q-39 0 -215 17q0 -256 8 -352 q109 -2 418 -2q74 -14 74 -66.5t-60 -81.5q-6 -4 -22 -8l-354 6q-33 0 -54 -4l9 -352q0 -119 -7 -170l476 6q66 -10 65 -55q0 -39 -37 -72q-6 -10 -37 -35q-72 -57 -71 -127q0 -43 21.5 -68.5t49 -25.5t53 18.5t41 33.5t39 18.5t46.5 -27.5q16 -14 16 -26.5t-10 -30.5 q-18 -37 -50 -56q-53 -41 -118 -41q-19 0 -37 2z" />
<glyph unicode="&#x119;" horiz-adv-x="815" d="M403 -330q-88 10 -129 76t-41 129.5t35 132.5q-111 41 -169 197.5t-58 326.5t80 293t252 123q109 0 207 -63.5t98 -156.5t-80 -180t-213 -106q-57 -8 -172 -8q23 -174 88 -229q20 -23 55 -23q127 0 213 81t123 81q16 0 49 -30.5t33 -57.5q0 -53 -113.5 -142t-234.5 -114 q-74 -66 -74 -118t21.5 -77.5t49.5 -25.5t53.5 18.5t40.5 33.5t39 18.5t46 -27.5q37 -35 -16 -90q-12 -14 -27 -23q-53 -41 -119 -41q-19 0 -37 2zM498 721q0 86 -115 86q-78 0 -133 -88q-20 -31 -39 -139q287 0 287 141z" />
<glyph unicode="&#x11a;" d="M655 1741q33 0 52.5 -24.5t18.5 -56.5t-107.5 -109.5t-149.5 -77.5q-47 0 -145.5 80.5t-98.5 127.5q0 29 25.5 49.5t46 19.5t83 -48t97.5 -90q129 129 178 129zM113 705q-29 18 -29 53t22 63q-8 205 -8 432q12 49 38 72t75 29q270 -12 586 -13q78 -16 77 -67 q0 -86 -167 -100q-45 -2 -99 -3h-133q-39 0 -215 17q0 -256 8 -352q109 -2 418 -2q74 -14 74 -66.5t-60 -81.5q-6 -4 -22 -8l-354 6q-33 0 -54 -4l9 -352q0 -119 -7 -170l476 6q66 -10 65 -55q0 -31 -27.5 -62t-64.5 -39l-524 -8q-47 0 -65.5 17.5t-18.5 58.5q8 57 8 184 v143z" />
<glyph unicode="&#x11b;" horiz-adv-x="815" d="M565 1331q33 0 52.5 -24.5t18.5 -56t-107.5 -109.5t-149.5 -78q-47 0 -145.5 81t-98.5 128q0 29 25.5 49t46 19t83 -48t97.5 -90q129 129 178 129zM373 948q109 0 207 -63.5t98 -156.5t-80 -180t-213 -106q-57 -8 -172 -8q23 -174 88 -229q20 -23 55 -23q127 0 213 81 t123 81q16 0 49 -30.5t33 -57.5q0 -53 -129 -154q-57 -47 -138 -78.5t-151 -31.5q-178 0 -262 229q-53 141 -53 311t80 293t252 123zM383 807q-78 0 -133 -88q-20 -31 -39 -139q287 0 287 141q0 86 -115 86z" />
<glyph unicode="&#x11c;" horiz-adv-x="983" d="M438.5 1671q104.5 82 150.5 82t146.5 -77t100.5 -124q0 -29 -25 -49t-41 -20t-90 65.5t-93.5 65.5t-88 -67.5t-97 -67.5t-48 23.5t-19.5 55t104.5 113.5zM678 1360q98 0 195.5 -49t97.5 -111q0 -94 -78 -94q-29 0 -100.5 37t-120.5 37q-176 0 -294 -158t-118 -401 q0 -182 80 -319.5t189.5 -137.5t172 72.5t62.5 164.5q0 51 -7 85t-36 61.5t-76 27.5t-89 20.5t-42 55.5t20.5 66t55.5 37q139 0 187 -29t72.5 -47.5t41 -61.5t26 -71.5t13.5 -91.5q4 -106 4 -249t-21 -175q-18 -27 -61 -28t-59.5 17.5t-20.5 81.5q-49 -43 -124 -72.5 t-132 -29.5q-180 0 -303 191.5t-123 461.5q0 143 47 281.5t127 232.5q168 195 414 195z" />
<glyph unicode="&#x11d;" horiz-adv-x="911" d="M340 1253q104 82 150.5 82t146.5 -76.5t100 -123.5q0 -29 -24.5 -49.5t-41 -20.5t-91 65.5t-93 65.5t-87 -67.5t-97.5 -67.5t-48 23.5t-19 55t104 113.5zM666 84q-74 -86 -186.5 -86t-194.5 70q-172 133 -172 407q0 215 118.5 345t292.5 130t238 -119q55 -104 55 -315 l-4 -168q0 -119 11.5 -328.5t11.5 -316.5q0 -176 -87 -259t-266 -83q-106 0 -216.5 45t-110.5 105q0 43 23.5 65.5t54 22.5t138 -45.5t154.5 -45.5q147 0 147.5 242t-7.5 334zM619.5 726q-44.5 60 -138.5 60t-151.5 -86t-57.5 -218t54.5 -209.5t167 -77.5t145.5 96 q25 78 25 226.5t-44.5 208.5z" />
<glyph unicode="&#x11e;" horiz-adv-x="983" d="M340.5 1698.5q21.5 23.5 58.5 23.5t58.5 -42t32 -59t35 -34.5t64.5 -17.5t64.5 22.5t54 72.5t62.5 50t51.5 -20.5t18.5 -53.5q0 -86 -79 -145t-179.5 -59t-181.5 57t-81 149q0 33 21.5 56.5zM678 1360q98 0 195.5 -49t97.5 -111q0 -94 -78 -94q-29 0 -100.5 37t-120.5 37 q-176 0 -294 -158t-118 -401q0 -182 80 -319.5t189.5 -137.5t172 72.5t62.5 164.5q0 51 -7 85t-36 61.5t-76 27.5t-89 20.5t-42 55.5t20.5 66t55.5 37q139 0 187 -29t72.5 -47.5t41 -61.5t26 -71.5t13.5 -91.5q4 -106 4 -249t-21 -175q-18 -27 -61 -28t-59.5 17.5 t-20.5 81.5q-49 -43 -124 -72.5t-132 -29.5q-180 0 -303 191.5t-123 461.5q0 143 47 281.5t127 232.5q168 195 414 195z" />
<glyph unicode="&#x11f;" horiz-adv-x="911" d="M242.5 1281q21.5 24 58.5 24t58.5 -42t31.5 -59.5t35 -35t64.5 -17.5t64.5 22.5t54.5 72.5t62.5 50t51 -20.5t18 -52.5q0 -86 -78.5 -145.5t-179 -59.5t-181.5 57.5t-81 149.5q0 32 21.5 56zM666 84q-74 -86 -186.5 -86t-194.5 70q-172 133 -172 407q0 215 118.5 345 t292.5 130t238 -119q55 -104 55 -315l-4 -168q0 -119 11.5 -328.5t11.5 -316.5q0 -176 -87 -259t-266 -83q-106 0 -216.5 45t-110.5 105q0 43 23.5 65.5t54 22.5t138 -45.5t154.5 -45.5q147 0 147.5 242t-7.5 334zM619.5 726q-44.5 60 -138.5 60t-151.5 -86t-57.5 -218 t54.5 -209.5t167 -77.5t145.5 96q25 78 25 226.5t-44.5 208.5z" />
<glyph unicode="&#x120;" horiz-adv-x="983" d="M584 1704q37 0 69.5 -35t32.5 -72.5t-36 -76.5t-74.5 -39t-70.5 32.5t-32 83.5q0 98 107 107h4zM678 1360q98 0 195.5 -49t97.5 -111q0 -94 -78 -94q-29 0 -100.5 37t-120.5 37q-176 0 -294 -158t-118 -401q0 -182 80 -319.5t189.5 -137.5t172 72.5t62.5 164.5 q0 51 -7 85t-36 61.5t-76 27.5t-89 20.5t-42 55.5t20.5 66t55.5 37q139 0 187 -29t72.5 -47.5t41 -61.5t26 -71.5t13.5 -91.5q4 -106 4 -249t-21 -175q-18 -27 -61 -28t-59.5 17.5t-20.5 81.5q-49 -43 -124 -72.5t-132 -29.5q-180 0 -303 191.5t-123 461.5q0 143 47 281.5 t127 232.5q168 195 414 195z" />
<glyph unicode="&#x121;" horiz-adv-x="911" d="M485 1286q37 0 70 -34.5t33 -72.5t-36 -77t-75 -39t-70.5 32.5t-31.5 84.5q0 98 106 106h4zM666 84q-74 -86 -186.5 -86t-194.5 70q-172 133 -172 407q0 215 118.5 345t292.5 130t238 -119q55 -104 55 -315l-4 -168q0 -119 11.5 -328.5t11.5 -316.5q0 -176 -87 -259 t-266 -83q-106 0 -216.5 45t-110.5 105q0 43 23.5 65.5t54 22.5t138 -45.5t154.5 -45.5q147 0 147.5 242t-7.5 334zM619.5 726q-44.5 60 -138.5 60t-151.5 -86t-57.5 -218t54.5 -209.5t167 -77.5t145.5 96q25 78 25 226.5t-44.5 208.5z" />
<glyph unicode="&#x122;" horiz-adv-x="983" d="M678 1360q98 0 195.5 -49t97.5 -111q0 -94 -78 -94q-29 0 -100.5 37t-120.5 37q-176 0 -294 -158t-118 -401q0 -182 80 -319.5t189.5 -137.5t172 72.5t62.5 164.5q0 51 -7 85t-36 61.5t-76 27.5t-89 20.5t-42 55.5t20.5 66t55.5 37q139 0 187 -29t72.5 -47.5t41 -61.5 t26 -71.5t13.5 -91.5q4 -106 4 -249t-21 -175q-18 -27 -61 -28t-59.5 17.5t-20.5 81.5q-49 -43 -124 -72.5t-132 -29.5q-180 0 -303 191.5t-123 461.5q0 143 47 281.5t127 232.5q168 195 414 195zM618.5 -82q36.5 0 56 -25.5t19.5 -44t-6 -34.5q-27 -86 -104.5 -164 t-115.5 -78t-58.5 20.5t-20.5 50t25.5 59.5t71.5 78t71 93t61.5 45z" />
<glyph unicode="&#x123;" horiz-adv-x="911" d="M537 1421q68 0 67 -73q0 -23 -29.5 -98.5t-30.5 -136t-25.5 -73t-42 -12.5t-42.5 14q-39 18 -39 102.5t34 167.5t73 103q19 6 35 6zM666 84q-74 -86 -186.5 -86t-194.5 70q-172 133 -172 407q0 215 118.5 345t292.5 130t238 -119q55 -104 55 -315l-4 -168 q0 -119 11.5 -328.5t11.5 -316.5q0 -176 -87 -259t-266 -83q-106 0 -216.5 45t-110.5 105q0 43 23.5 65.5t54 22.5t138 -45.5t154.5 -45.5q147 0 147.5 242t-7.5 334zM619.5 726q-44.5 60 -138.5 60t-151.5 -86t-57.5 -218t54.5 -209.5t167 -77.5t145.5 96q25 78 25 226.5 t-44.5 208.5z" />
<glyph unicode="&#x124;" horiz-adv-x="958" d="M337.5 1663q104.5 82 151 82t146.5 -77t100 -124q0 -29 -24.5 -49t-40 -20t-91 65.5t-94 65.5t-87 -68t-97.5 -68t-48.5 24t-19.5 55.5t104.5 113.5zM270 784q160 -27 293 -26.5t170 2.5q-4 156 -4 299v194.5t4 64.5t26.5 25.5t65.5 12.5q61 0 62 -74v-725 q0 -225 -10 -496q-2 -59 -101 -59q-49 0 -49 59l8 543q-66 -4 -179.5 -4t-285.5 25q0 -270 25 -566q2 -33 -28.5 -50t-77 -17t-50.5 47q-27 291 -26 573l12 639q0 41 30.5 60.5t65.5 19.5q57 0 58 -55z" />
<glyph unicode="&#x125;" horiz-adv-x="860" d="M6.5 1786q104.5 82 150.5 82t146 -77t100 -124q0 -29 -24.5 -49.5t-39.5 -20.5t-91 66t-94.5 66t-87 -68t-97 -68t-48 23.5t-19.5 55.5t104.5 114zM297 664l16 -484q0 -90 -8 -104q-4 -37 -23.5 -57.5t-74.5 -20.5q-27 0 -43.5 34t-18.5 77q-14 360 -37.5 676.5 t-23.5 588.5q0 43 28.5 67.5t67.5 24.5q57 0 68.5 -98t14.5 -245.5t7 -215.5q102 53 205 54q238 0 301 -209q37 -119 37 -306q0 -61 -11 -193t-13.5 -171t-34 -60.5t-68.5 -21.5q-57 0 -57 61l14 357q0 45 -4 149.5t-42 166t-132 61.5q-168 0 -168 -131z" />
<glyph unicode="&#x126;" horiz-adv-x="1024" d="M33 1024q0 106 80 106q8 0 16 -2h8v123q0 41 31 60.5t65 19.5q57 0 58 -55l-2 -162q223 -16 452 -16v182q0 25 4.5 38t27 25.5t65.5 12.5q61 0 61 -68v-184h14q29 2 50.5 -13.5t22.5 -31t1 -21.5q0 -98 -80 -100h-8v-381q0 -225 -10 -496q-2 -59 -101 -59q-49 0 -49 59 l9 543q-66 -4 -179.5 -4t-285.5 25q0 -270 24 -566q2 -33 -28.5 -50t-76.5 -17t-50 47q-27 291 -27 467t2 246l6 206l-29 3q-71 6 -71 63zM745 760q-4 53 -4 174q-236 0 -456 12l-2 -162q160 -27 292.5 -26.5t169.5 2.5z" />
<glyph unicode="&#x127;" horiz-adv-x="921" d="M342 664l16 -484q0 -90 -8 -104q-4 -37 -23.5 -57.5t-74.5 -20.5q-27 0 -43 34t-19 77q-14 360 -28.5 558.5t-22.5 393.5h-26q-33 2 -56.5 23.5t-23.5 62.5q0 76 80 76h16h4q-4 139 -4 151q0 43 28.5 67.5t67.5 24.5q57 0 72 -108q8 -96 10 -135q166 6 291 18 q29 2 50.5 -13.5t22.5 -30.5t1 -42q0 -66 -80 -74q-141 -12 -283 -18q0 -51 6 -156q102 53 205 54q238 0 301 -209q37 -119 37 -306q0 -61 -11 -193t-13.5 -171t-34 -60.5t-68.5 -21.5q-57 0 -57 61l14 357q0 45 -4 149.5t-42 166t-132 61.5q-168 0 -168 -131z" />
<glyph unicode="&#x128;" horiz-adv-x="481" d="M25.5 1651q60.5 49 115 49t87 -16.5t44.5 -36.5q33 -53 59.5 -53.5t58.5 49t59.5 49.5t48 -25t20.5 -51q0 -74 -60.5 -113t-116.5 -39t-87 23.5t-53.5 47.5t-48.5 24q-12 0 -51.5 -46.5t-66 -46.5t-48 26t-21.5 68t60.5 91zM276.5 1323q40.5 0 51.5 -47q2 -238 8 -711 q0 -289 -17 -489q-4 -31 -37.5 -54.5t-68.5 -23.5q-57 0 -57 59q20 205 20 508l-12 688q8 29 40 49.5t72.5 20.5z" />
<glyph unicode="&#x129;" horiz-adv-x="458" d="M-7.5 1249q60.5 49 115 49t87 -16t45.5 -37q33 -53 59.5 -53t58 49t59 49t48 -24.5t20.5 -51.5q0 -74 -60 -112.5t-116.5 -38.5t-87.5 23.5t-53.5 47t-48.5 23.5q-12 0 -51 -46t-66 -46t-48.5 25.5t-21.5 67.5t60.5 91zM299 221l2 -143q0 -39 -30.5 -64.5t-65.5 -25.5 q-51 0 -53 51q-27 653 -27 722.5t6 170.5q4 37 47 37q109 0 123 -88q6 -45 6 -72l-8 -129v-459z" />
<glyph unicode="&#x12a;" horiz-adv-x="481" d="M-20 1630l239 -6q143 0 214 5t84 5t33.5 -14t21.5 -28.5t1 -43.5q0 -72 -79 -80q-100 -8 -233.5 -8t-297.5 8q-68 2 -67 58q0 104 84 104zM276.5 1323q40.5 0 51.5 -47q2 -238 8 -711q0 -289 -17 -489q-4 -31 -37.5 -54.5t-68.5 -23.5q-57 0 -57 59q20 205 20 508 l-12 688q8 29 40 49.5t72.5 20.5z" />
<glyph unicode="&#x12b;" horiz-adv-x="458" d="M-53 1229l239 -6q143 0 214 5t84.5 5t34 -14.5t21.5 -28.5t1 -43q0 -72 -80 -80q-100 -8 -233.5 -8t-297.5 8q-68 2 -67 57q0 105 84 105zM299 221l2 -143q0 -39 -30.5 -64.5t-65.5 -25.5q-51 0 -53 51q-27 653 -27 722.5t6 170.5q4 37 47 37q109 0 123 -88q6 -45 6 -72 l-8 -129v-459z" />
<glyph unicode="&#x12c;" horiz-adv-x="481" d="M3.5 1690.5q21.5 23.5 58 23.5t58 -42t32 -59.5t35 -34.5t64.5 -17t64.5 22.5t54 72.5t62.5 50t51.5 -20.5t18.5 -53.5q0 -86 -79 -145.5t-179.5 -59.5t-181 57.5t-80.5 149.5q0 33 21.5 56.5zM276.5 1323q40.5 0 51.5 -47q2 -238 8 -711q0 -289 -17 -489 q-4 -31 -37.5 -54.5t-68.5 -23.5q-57 0 -57 59q20 205 20 508l-12 688q8 29 40 49.5t72.5 20.5z" />
<glyph unicode="&#x12d;" horiz-adv-x="458" d="M-29.5 1289.5q21.5 23.5 58.5 23.5t58.5 -42t31.5 -59.5t34.5 -35t64.5 -17.5t64.5 22.5t54.5 73t62.5 50.5t51 -20.5t18.5 -53.5q0 -86 -79 -145.5t-179 -59.5t-181 57.5t-81 149.5q0 33 21.5 56.5zM299 221l2 -143q0 -39 -30.5 -64.5t-65.5 -25.5q-51 0 -53 51 q-27 653 -27 722.5t6 170.5q4 37 47 37q109 0 123 -88q6 -45 6 -72l-8 -129v-459z" />
<glyph unicode="&#x12e;" horiz-adv-x="481" d="M276.5 1323q40.5 0 51.5 -47q2 -238 8 -711q0 -289 -17 -489q-4 -16 -12 -29.5t-37 -38.5q-74 -59 -73 -127q0 -43 21.5 -68.5t49 -25.5t53 18.5t41 34t39 18.5t45.5 -28q16 -14 16.5 -26.5t-9.5 -30.5q-18 -37 -50 -56q-53 -41 -118 -41q-18 0 -37 2q-88 10 -129 76 t-41 129q0 113 80 189q18 209 18 493l-12 688q8 29 40 49.5t72.5 20.5z" />
<glyph unicode="&#x12f;" horiz-adv-x="458" d="M279.5 1110q-35.5 -39 -74.5 -39t-71 33t-32 84q0 98 107 106h4q37 0 69.5 -34.5t32.5 -72.5t-35.5 -77zM150 72l-25 628q0 131 6 232q4 37 47 37q109 0 123 -88q6 -45 6 -72l-8 -129v-459l2 -143q0 -45 -39 -70q-2 -2 -17.5 -15t-19.5 -18.5t-15 -18.5t-17 -24 q-12 -27 -12.5 -64.5t21 -63t49.5 -25.5t53.5 18.5t40.5 33.5t39 18.5t46 -27.5q16 -14 16 -26.5t-10 -31.5q-18 -37 -49 -55q-53 -41 -119 -41q-18 0 -37 2q-88 10 -129 76t-41 129q1 121 89 197z" />
<glyph unicode="&#x130;" horiz-adv-x="481" d="M246 1696q37 0 69.5 -35t32.5 -73t-36 -76.5t-74.5 -38.5t-70.5 32.5t-32 83.5q0 98 107 107h4zM276.5 1323q40.5 0 51.5 -47q2 -238 8 -711q0 -289 -17 -489q-4 -31 -37.5 -54.5t-68.5 -23.5q-57 0 -57 59q20 205 20 508l-12 688q8 29 40 49.5t72.5 20.5z" />
<glyph unicode="&#x131;" horiz-adv-x="458" d="M299 221l2 -143q0 -39 -30.5 -64.5t-65.5 -25.5q-51 0 -53 51q-27 653 -27 722.5t6 170.5q4 37 47 37q109 0 123 -88q6 -45 6 -72l-8 -129v-459z" />
<glyph unicode="&#x132;" horiz-adv-x="1239" d="M1003.5 1345.5q32.5 22.5 64.5 22.5t49.5 -14.5t19.5 -34.5q43 -553 43 -699.5t-4.5 -220t-20.5 -158.5t-45 -135q-70 -115 -219.5 -114.5t-243.5 99.5t-94 286q0 31 31.5 56.5t68.5 25.5q45 0 56 -84q27 -238 178 -238q98 0 123 133q20 113 20 244t-29.5 448.5 t-29.5 339t32.5 44zM276.5 1323q40.5 0 51.5 -47q2 -238 8 -711q0 -289 -17 -489q-4 -31 -37.5 -54.5t-68.5 -23.5q-57 0 -57 59q20 205 20 508l-12 688q8 29 40 49.5t72.5 20.5z" />
<glyph unicode="&#x133;" horiz-adv-x="940" d="M213 1294q37 0 69.5 -34.5t32.5 -72.5t-35.5 -77t-74.5 -39t-71 33t-32 84q0 98 107 106h4zM686 1284q37 0 69.5 -35t32.5 -72.5t-35.5 -76.5t-74.5 -39t-71 32.5t-32 84.5q0 98 107 106h4zM299 221l2 -143q0 -39 -30.5 -64.5t-65.5 -25.5q-51 0 -53 51 q-27 653 -27 722.5t6 170.5q4 37 47 37q109 0 123 -88q6 -45 6 -72l-8 -129v-459zM643 936.5q27 21.5 80 21.5t59 -51q29 -252 29 -477t-14.5 -451.5t-65.5 -349.5q-70 -162 -252 -161q-92 0 -159.5 57t-67.5 137q0 43 30.5 65.5t67.5 22.5t55.5 -18.5t24.5 -40.5 q20 -59 70.5 -59.5t86.5 79.5t47 217.5t11 290.5q0 481 -24 664q-5 32 22 53.5z" />
<glyph unicode="&#x134;" horiz-adv-x="757" d="M411.5 1663q104.5 82 150.5 82t146.5 -77t100.5 -124q0 -29 -24.5 -49t-40 -20t-91 65.5t-94 65.5t-87.5 -68t-97.5 -68t-48 24t-19.5 55.5t104.5 113.5zM522 1345.5q33 22.5 64.5 22.5t49 -14.5t19.5 -34.5q43 -553 43 -699.5t-4 -220t-20.5 -158.5t-46.5 -135 q-68 -115 -217.5 -114.5t-243.5 99.5t-94 286q0 31 31.5 56.5t68.5 25.5q45 0 55 -84q27 -238 179 -238q39 0 66.5 25.5t41.5 61.5t23 95q12 86 12 206t-30 437.5t-30 339t33 44z" />
<glyph unicode="&#x135;" horiz-adv-x="481" d="M81.5 1251q104.5 82 151 82t146.5 -76.5t100 -123.5q0 -29 -24.5 -49.5t-41 -20.5t-91 65.5t-93 65.5t-87 -67.5t-97.5 -67.5t-48.5 23.5t-19.5 55t104.5 113.5zM184.5 936.5q26.5 21.5 79.5 21.5t60 -51q29 -252 28.5 -477t-14.5 -451.5t-66 -349.5q-70 -162 -252 -161 q-92 0 -159.5 57t-67.5 137q0 43 31 65.5t67.5 22.5t55 -18.5t24.5 -40.5q20 -59 70.5 -59.5t86.5 79.5t47 217.5t11 290.5q0 481 -24 664q-4 32 22.5 53.5z" />
<glyph unicode="&#x136;" horiz-adv-x="1071" d="M150 233q0 158 -19.5 534t-34.5 476q0 45 31 79t70 34q49 0 65 -62q33 -205 41 -589q184 170 285.5 290.5t214.5 309.5q33 55 96 55q33 0 54.5 -17.5t21.5 -42.5q0 -66 -116 -226.5t-245 -311.5q172 -172 295 -397q16 -29 43 -72t41 -68q39 -68 39 -115t-23.5 -76.5 t-58.5 -29.5t-90 91t-158.5 258t-218.5 294q-115 -111 -172 -153q6 -131 6 -218.5t-4 -140.5q-12 -133 -108 -133q-59 0 -55 72v159zM586 -80q37 0 56.5 -25.5t19.5 -44t-7 -34.5q-27 -86 -104.5 -164t-115.5 -78t-58.5 20.5t-20.5 50t26 59.5t72 78t70.5 93t61.5 45z" />
<glyph unicode="&#x137;" horiz-adv-x="849" d="M809 92q0 -96 -88 -96q-37 0 -100.5 181t-169.5 280q-10 -14 -87 -81t-92 -81v-205q-4 -31 -10 -47t-27.5 -30.5t-58.5 -14.5q-55 0 -55 68q0 190 -16.5 590.5t-16.5 717.5q0 39 32 61.5t66 22.5q47 0 58 -59v-363q0 -66 2 -98.5t4 -97.5q4 -135 14 -305q59 45 152.5 142 t140.5 167q74 117 135 117q16 0 33 -9q43 -25 43 -57.5t-29 -85.5q-74 -127 -170 -231q92 -102 185 -293q55 -123 55 -193zM489.5 -80q36.5 0 56 -25.5t19.5 -44t-6 -34.5q-27 -86 -104.5 -164t-115.5 -78t-58.5 20.5t-20.5 50t25.5 59.5t71.5 78t71 93t61.5 45z" />
<glyph unicode="&#x138;" horiz-adv-x="1036" d="M309 342l4 -270q0 -70 -94 -70q-66 0 -61 64v110q0 102 -13.5 337t-21.5 296t-8 82.5t25.5 41t61.5 19.5t56 -37q45 -94 45 -395q131 102 212 185t169 206q29 43 70 43q82 0 82 -53q0 -98 -277 -369q119 -104 222.5 -256.5t103.5 -192.5t-21.5 -59.5t-52.5 -19.5t-71 51 t-94 136t-99 139.5t-113 107.5q-98 -80 -125 -96z" />
<glyph unicode="&#x139;" horiz-adv-x="761" d="M186 1761q12 35 52.5 35t64 -24.5t23.5 -40t-4 -25.5q-33 -92 -110 -174t-118 -82t-61.5 20.5t-20.5 48t33 54.5q108 88 141 188zM55 285l2 159l19 856q0 25 26.5 39.5t67.5 14.5q98 0 98 -70q0 -23 -23.5 -344.5t-23.5 -384.5v-217q0 -154 21 -168q31 -10 71 -10l295 20 q96 0 97 -69q0 -55 -52.5 -81t-103.5 -29t-125 -3q-322 0 -348 20q-14 12 -16.5 93.5t-3.5 114t-1 59.5z" />
<glyph unicode="&#x13a;" horiz-adv-x="544" d="M178 1860q12 35 52 34.5t63.5 -25t23.5 -39.5t-4 -26q-33 -92 -109.5 -174t-117.5 -82t-61.5 20.5t-20.5 48.5t33 54q108 89 141 189zM97.5 1426.5q19.5 23.5 62.5 23.5q88 0 88 -72q0 -55 -9.5 -288.5t-9.5 -418t15 -296.5q25 -197 69.5 -197t67.5 64q10 25 32.5 44 t57.5 19q72 0 72 -121q0 -66 -71 -130t-140.5 -64t-111.5 23.5t-67.5 70.5t-41 91t-21.5 108q-12 102 -17 328.5t-5 432t5 282.5t24.5 100.5z" />
<glyph unicode="&#x13b;" horiz-adv-x="761" d="M55 285l2 159l19 856q0 25 26.5 39.5t67.5 14.5q98 0 98 -70q0 -23 -23.5 -344.5t-23.5 -384.5v-217q0 -154 21 -168q31 -10 71 -10l295 20q96 0 97 -69q0 -55 -52.5 -81t-103.5 -29t-125 -3q-322 0 -348 20q-14 12 -16.5 93.5t-3.5 114t-1 59.5zM412 -80q37 0 56 -25.5 t19 -44t-6 -34.5q-27 -86 -104.5 -164t-115.5 -78t-58.5 20.5t-20.5 50t25.5 59.5t72 78t71 93t61.5 45z" />
<glyph unicode="&#x13c;" horiz-adv-x="544" d="M97.5 1426.5q19.5 23.5 62.5 23.5q88 0 88 -72q0 -55 -9.5 -288.5t-9.5 -418t15 -296.5q25 -197 69.5 -197t67.5 64q10 25 32.5 44t57.5 19q72 0 72 -121q0 -66 -71 -130t-140.5 -64t-111.5 23.5t-67.5 70.5t-41 91t-21.5 108q-12 102 -17 328.5t-5 432t5 282.5 t24.5 100.5zM385 -80q37 0 56.5 -25.5t19.5 -44t-6 -34.5q-27 -86 -105 -164t-115.5 -78t-58 20.5t-20.5 50t25.5 59.5t71.5 78t70.5 93t61.5 45z" />
<glyph unicode="&#x13d;" horiz-adv-x="761" d="M513.5 1337.5q21.5 18.5 49 18.5t51 -19.5t23.5 -52.5q0 -117 -41 -219t-108.5 -102t-67.5 69q0 29 36 102.5t36 155.5q0 29 21.5 47.5zM55 285l2 159l19 856q0 25 26.5 39.5t67.5 14.5q98 0 98 -70q0 -23 -23.5 -344.5t-23.5 -384.5v-217q0 -154 21 -168q31 -10 71 -10 l295 20q96 0 97 -69q0 -55 -52.5 -81t-103.5 -29t-125 -3q-322 0 -348 20q-14 12 -16.5 93.5t-3.5 114t-1 59.5z" />
<glyph unicode="&#x13e;" horiz-adv-x="716" d="M470.5 1433.5q21.5 18.5 49 18.5t51 -19.5t23.5 -52.5q0 -117 -41 -219t-108.5 -102t-67.5 69q0 29 36 103t36 155q0 29 21.5 47.5zM54.5 1426.5q19.5 23.5 60.5 23.5q90 0 90 -72q0 -55 -9.5 -288.5t-9.5 -418t15 -296.5q25 -197 69.5 -197t69.5 64q8 25 30.5 44 t57.5 19q72 0 72 -121q0 -66 -71 -130t-140.5 -64t-111.5 23.5t-67.5 70.5t-41 91t-23.5 108q-10 102 -15 328.5t-5 432t5 282.5t24.5 100.5z" />
<glyph unicode="&#x13f;" horiz-adv-x="761" d="M55 285l2 159l19 856q0 25 26.5 39.5t67.5 14.5q98 0 98 -70q0 -23 -23.5 -344.5t-23.5 -384.5v-217q0 -154 21 -168q31 -10 71 -10l295 20q96 0 97 -69q0 -55 -52.5 -81t-103.5 -29t-125 -3q-322 0 -348 20q-14 12 -16.5 93.5t-3.5 114t-1 59.5zM441.5 641 q31.5 49 75.5 49t77 -32.5t39 -90.5q0 -45 -33 -83t-77 -38t-78.5 24t-34.5 73t31.5 98z" />
<glyph unicode="&#x140;" horiz-adv-x="716" d="M97.5 1426.5q19.5 23.5 62.5 23.5q88 0 88 -72q0 -55 -9.5 -288.5t-9.5 -418t15 -296.5q25 -197 69.5 -197t67.5 64q10 25 32.5 44t57.5 19q72 0 72 -121q0 -66 -71 -130t-140.5 -64t-111.5 23.5t-67.5 70.5t-41 91t-21.5 108q-12 102 -17 328.5t-5 432t5 282.5 t24.5 100.5zM433 670q32 49 76 49t76.5 -33t39.5 -90q0 -45 -33 -83t-77 -38t-79 23.5t-35 73t32 98.5z" />
<glyph unicode="&#x141;" horiz-adv-x="921" d="M250 285l2 159l2 97l-96 -47q-20 -10 -48 -10.5t-51 38.5q-14 29 -14 43.5t7 29.5t59.5 47t146.5 83l12 575q0 25 27 39.5t68 14.5q98 0 98 -70q0 -35 -13.5 -209t-17.5 -246q61 43 103 76q78 66 118 0q18 -27 18.5 -59.5t-44.5 -69.5q-92 -72 -207 -143q-4 -98 -4 -121 v-174q0 -154 20 -168q31 -10 72 -10l295 20q96 0 96 -69q0 -55 -52 -81t-103.5 -29t-125.5 -3q-324 0 -348 20q-14 12 -16 93.5t-3 114t-1 59.5z" />
<glyph unicode="&#x142;" horiz-adv-x="778" d="M180 545q-39 -20 -67.5 -20.5t-51.5 38.5q-14 29 -14 43.5t7 29.5t50 40l74 45q-4 246 -4 405.5t4 222t23.5 86t60.5 23.5q90 0 90 -72q0 -66 -7 -247t-9 -316q84 61 125 97q78 66 119 0q18 -27 18 -60t-45 -69q-145 -113 -219 -160q0 -303 47 -406q18 -39 37 -39 q45 0 69 64q8 25 31 44t57 19q72 0 72 -120q0 -66 -70.5 -130.5t-140 -64.5t-111.5 23.5t-68 70.5t-41 91t-23 108q-10 102 -11 186z" />
<glyph unicode="&#x143;" horiz-adv-x="1089" d="M559 1761q12 35 52 35t63.5 -24.5t23.5 -40t-4 -25.5q-33 -92 -109.5 -174t-117.5 -82t-61.5 20.5t-20.5 48t33 54.5q108 88 141 188zM919.5 1356q32.5 0 59.5 -28t27 -64q0 -801 7 -968t7 -171q0 -45 -24.5 -85t-54.5 -40t-45 3t-27.5 7t-24.5 17l-21 20 q-8 8 -21.5 31.5t-21.5 38t-25.5 50.5t-75.5 146.5t-106 198.5q-162 297 -301 469q0 -666 -36 -924q-6 -49 -76 -49q-33 0 -54.5 16.5t-21.5 53.5t15.5 405.5t15.5 459.5v116q0 147 22.5 165.5t46.5 18.5q113 0 344 -369q45 -72 172 -300t152 -281l-25 850q0 176 39 200 q21 13 53.5 13z" />
<glyph unicode="&#x144;" horiz-adv-x="925" d="M477 1352q12 35 52 34.5t63.5 -25t23.5 -39.5t-4 -26q-33 -92 -109.5 -174t-117.5 -82t-61.5 20.5t-20.5 48.5t33 54q108 89 141 189zM156 63l-23 832q0 39 26.5 63.5t53.5 24.5q66 0 76 -55q8 -55 8 -115q111 145 276 145q254 0 254 -579v-160.5t-12 -157.5 q-14 -61 -88 -61q-49 0 -49 66l2 114q0 238 -15.5 325t-29.5 138q-35 111 -113 111q-102 0 -143 -74q-45 -80 -53 -188q-14 -190 -15 -404q0 -41 -30.5 -65.5t-73.5 -24.5q-51 -1 -51 65z" />
<glyph unicode="&#x145;" horiz-adv-x="1089" d="M919.5 1356q32.5 0 59.5 -28t27 -64q0 -801 7 -968t7 -171q0 -45 -24.5 -85t-54.5 -40t-45 3t-27.5 7t-24.5 17l-21 20q-8 8 -21.5 31.5t-21.5 38t-25.5 50.5t-75.5 146.5t-106 198.5q-162 297 -301 469q0 -666 -36 -924q-6 -49 -76 -49q-33 0 -54.5 16.5t-21.5 53.5 t15.5 405.5t15.5 459.5v116q0 147 22.5 165.5t46.5 18.5q113 0 344 -369q45 -72 172 -300t152 -281l-25 850q0 176 39 200q21 13 53.5 13zM590 -80q37 0 56.5 -25.5t19.5 -44t-7 -34.5q-27 -86 -104.5 -164t-115.5 -78t-58.5 20.5t-20.5 50t26 59.5t72 78t70.5 93t61.5 45z " />
<glyph unicode="&#x146;" horiz-adv-x="925" d="M156 63l-23 832q0 39 26.5 63.5t53.5 24.5q66 0 76 -55q8 -55 8 -115q111 145 276 145q254 0 254 -579v-160.5t-12 -157.5q-14 -61 -88 -61q-49 0 -49 66l2 114q0 238 -15.5 325t-29.5 138q-35 111 -113 111q-102 0 -143 -74q-45 -80 -53 -188q-14 -190 -15 -404 q0 -41 -30.5 -65.5t-73.5 -24.5q-51 -1 -51 65zM551 -80q37 0 56.5 -25.5t19.5 -44t-6 -34.5q-27 -86 -105 -164t-116 -78t-58 20.5t-20 50t25.5 59.5t71.5 78t70.5 93t61.5 45z" />
<glyph unicode="&#x147;" horiz-adv-x="1089" d="M727 1741q33 0 52.5 -24.5t18.5 -56.5t-107.5 -109.5t-149.5 -77.5q-47 0 -145.5 80.5t-98.5 127.5q0 29 25.5 49.5t46 19.5t83 -48t97.5 -90q129 129 178 129zM919.5 1356q32.5 0 59.5 -28t27 -64q0 -801 7 -968t7 -171q0 -45 -24.5 -85t-54.5 -40t-45 3t-27.5 7 t-24.5 17l-21 20q-8 8 -21.5 31.5t-21.5 38t-25.5 50.5t-75.5 146.5t-106 198.5q-162 297 -301 469q0 -666 -36 -924q-6 -49 -76 -49q-33 0 -54.5 16.5t-21.5 53.5t15.5 405.5t15.5 459.5v116q0 147 22.5 165.5t46.5 18.5q113 0 344 -369q45 -72 172 -300t152 -281l-25 850 q0 176 39 200q21 13 53.5 13z" />
<glyph unicode="&#x148;" horiz-adv-x="925" d="M645 1331q33 0 52.5 -24.5t18.5 -56t-107.5 -109.5t-149.5 -78q-47 0 -145.5 81t-98.5 128q0 29 25.5 49t46 19t83 -48t97.5 -90q129 129 178 129zM156 63l-23 832q0 39 26.5 63.5t53.5 24.5q66 0 76 -55q8 -55 8 -115q111 145 276 145q254 0 254 -579v-160.5t-12 -157.5 q-14 -61 -88 -61q-49 0 -49 66l2 114q0 238 -15.5 325t-29.5 138q-35 111 -113 111q-102 0 -143 -74q-45 -80 -53 -188q-14 -190 -15 -404q0 -41 -30.5 -65.5t-73.5 -24.5q-51 -1 -51 65z" />
<glyph unicode="&#x149;" horiz-adv-x="925" d="M150 1352q12 35 52 34.5t63.5 -25t23.5 -39.5t-4 -26q-33 -92 -110 -174t-118 -82t-61.5 20.5t-20.5 48.5t33 54q109 89 142 189zM156 63l-23 832q0 39 26.5 63.5t53.5 24.5q66 0 76 -55q8 -55 8 -115q111 145 276 145q254 0 254 -579v-160.5t-12 -157.5q-14 -61 -88 -61 q-49 0 -49 66l2 114q0 238 -15.5 325t-29.5 138q-35 111 -113 111q-102 0 -143 -74q-45 -80 -53 -188q-14 -190 -15 -404q0 -41 -30.5 -65.5t-73.5 -24.5q-51 -1 -51 65z" />
<glyph unicode="&#x14a;" horiz-adv-x="1089" d="M1006 1264l16 -1256q0 -117 -21 -155q-43 -84 -108 -127q-53 -41 -127 -41q-94 0 -162 82q-41 51 -41 91t25 60q31 18 63.5 18.5t53.5 -45.5q20 -49 60 -49t66 31q35 39 35 85t-18 77q-319 547 -576 946q0 -666 -36 -924q-6 -49 -76 -49q-33 0 -54.5 16.5t-21.5 53.5 t15.5 405.5t15.5 459.5v116q0 147 22.5 165.5t46.5 18.5q113 0 344 -369q49 -78 176 -299t150 -270l-27 838v39q0 137 39 161q20 12 53 12.5t60 -27t27 -64.5z" />
<glyph unicode="&#x14b;" horiz-adv-x="923" d="M567 -156q104 0 105 224q0 381 -6.5 462.5t-49.5 152.5t-102 71t-102 -36t-64 -108q-31 -115 -31 -301l-6 -221q0 -41 -30.5 -65.5t-73.5 -24.5q-51 0 -51 65q0 141 -11.5 403.5t-11.5 428.5q0 39 26.5 63.5t53.5 24.5q66 0 76 -55q8 -55 8 -115q111 145 276 145 q115 0 170 -104q84 -160 84 -426l-2 -168v-106q0 -252 -55 -347q-31 -49 -78 -79q-53 -41 -127 -41q-94 0 -162 82q-41 51 -41 91t25 60q31 18 63.5 18.5t53.5 -44.5q20 -50 63 -50z" />
<glyph unicode="&#x14c;" horiz-adv-x="1138" d="M336 1630l239 -6q143 0 214 5t84.5 5t34 -14t21.5 -28.5t1 -43.5q0 -72 -80 -80q-100 -8 -233.5 -8t-297.5 8q-68 2 -67 58q0 104 84 104zM627 1362q143 0 243 -92q197 -176 197 -556t-217 -597q-113 -109 -260 -119q-195 0 -303.5 133t-154.5 298t-46 319q0 262 125 432 q131 182 416 182zM612 1192q-274 0 -342 -260q-20 -70 -20 -178.5t41 -251.5q55 -193 164 -271q63 -49 153 -49t162 81t98.5 206t26.5 252q0 225 -64.5 348t-218.5 123z" />
<glyph unicode="&#x14d;" horiz-adv-x="825" d="M152 1227l239 -6q143 0 214 5t84 5t33.5 -14.5t21.5 -28.5t1 -43q0 -72 -79 -80q-100 -8 -233.5 -8t-297.5 8q-68 4 -67 57q0 105 84 105zM440 954q147 0 242.5 -141t95.5 -339t-97 -337t-258 -139t-259 142.5t-98 316.5q0 223 90 356q96 141 284 141zM416 786 q-86 0 -141.5 -90t-55.5 -190q0 -156 61.5 -238t139.5 -82q139 0 178 121q16 57 16 144q1 335 -198 335z" />
<glyph unicode="&#x14e;" horiz-adv-x="1138" d="M359.5 1690.5q21.5 23.5 58.5 23.5t58.5 -42t31.5 -59.5t34.5 -34.5t64.5 -17t64.5 22.5t54.5 72.5t62.5 50t51 -20.5t18.5 -53.5q0 -86 -79 -145.5t-179 -59.5t-181 57.5t-81 149.5q0 33 21.5 56.5zM627 1362q143 0 243 -92q197 -176 197 -556t-217 -597 q-113 -109 -260 -119q-195 0 -303.5 133t-154.5 298t-46 319q0 262 125 432q131 182 416 182zM612 1192q-274 0 -342 -260q-20 -70 -20 -178.5t41 -251.5q55 -193 164 -271q63 -49 153 -49t162 81t98.5 206t26.5 252q0 225 -64.5 348t-218.5 123z" />
<glyph unicode="&#x14f;" horiz-adv-x="825" d="M175.5 1287.5q21.5 23.5 58 23.5t58 -42t32 -59.5t35 -35t64.5 -17.5t64.5 22.5t54 73t62.5 50.5t51.5 -20.5t18.5 -53.5q0 -86 -79 -145.5t-179.5 -59.5t-181 57.5t-80.5 149.5q0 33 21.5 56.5zM440 954q147 0 242.5 -141t95.5 -339t-97 -337t-258 -139t-259 142.5 t-98 316.5q0 223 90 356q96 141 284 141zM416 786q-86 0 -141.5 -90t-55.5 -190q0 -156 61.5 -238t139.5 -82q139 0 178 121q16 57 16 144q1 335 -198 335z" />
<glyph unicode="&#x150;" horiz-adv-x="1138" d="M403 1460q-72 0 -71 72q0 25 20 53q80 57 115 197q29 47 62.5 47t54 -21.5t20.5 -56.5q-31 -137 -108 -233q-46 -58 -93 -58zM612 1581q80 51 115 197q18 43 66 43q66 0 73 -76q-90 -289 -202 -289q-35 0 -54.5 19.5t-20 46t22.5 59.5zM627 1362q143 0 243 -92 q197 -176 197 -556t-217 -597q-113 -109 -260 -119q-195 0 -303.5 133t-154.5 298t-46 319q0 262 125 432q131 182 416 182zM612 1192q-274 0 -342 -260q-20 -70 -20 -178.5t41 -251.5q55 -193 164 -271q63 -49 153 -49t162 81t98.5 206t26.5 252q0 225 -64.5 348 t-218.5 123z" />
<glyph unicode="&#x151;" horiz-adv-x="825" d="M219 1057q-72 0 -72 71q0 25 21 54q80 57 115 196q29 47 62.5 47t54 -21.5t20.5 -55.5q-31 -137 -109 -234q-45 -57 -92 -57zM428 1178q80 51 115 196q18 43 65 43q66 0 74 -76q-90 -289 -203 -288q-35 0 -54 19.5t-19.5 46t22.5 59.5zM440 954q147 0 242.5 -141 t95.5 -339t-97 -337t-258 -139t-259 142.5t-98 316.5q0 223 90 356q96 141 284 141zM416 786q-86 0 -141.5 -90t-55.5 -190q0 -156 61.5 -238t139.5 -82q139 0 178 121q16 57 16 144q1 335 -198 335z" />
<glyph unicode="&#x152;" horiz-adv-x="1587" d="M1124 1169q-41 0 -157 13q0 -297 6 -406q248 -6 332 -6q80 -16 79 -68q0 -27 -24.5 -53t-59.5 -35l-258 11h-67l12 -363q0 -82 -2 -104l393 6q70 -8 70 -58q0 -33 -27.5 -63.5t-66.5 -40.5h-396h-10q-82 0 -117.5 34t-35.5 120q-61 -92 -119 -123t-162 -31 q-246 0 -352 303q-63 180 -64 385q0 334 58 443q20 39 49 79q96 141 334.5 141.5t279.5 -110.5v14q0 41 17.5 59.5t49.5 28t100.5 9.5t228 -8.5t178.5 -8.5q86 -18 86 -71q0 -96 -262 -97h-93zM748 672q0 254 -31 350t-55 123q-74 49 -111 51q-293 0 -293 -436 q0 -248 90 -428q66 -143 166 -144q234 1 234 484z" />
<glyph unicode="&#x153;" horiz-adv-x="1406" d="M926 948q125 0 222 -62.5t97 -153.5t-78 -163q-147 -135 -385 -135q23 -188 88 -237q35 -25 82 -25q88 0 176.5 86t131.5 86q16 0 48.5 -30.5t32.5 -57.5q0 -55 -134 -159.5t-283.5 -104.5t-227.5 149q-104 -156 -267 -155.5t-261 142.5t-98 316q0 223 90 356.5 t276 141.5h4q145 0 240 -129q90 135 246 135zM1065 721q0 86 -115 86q-55 0 -102 -49t-62 -127q0 -4 -8 -51q287 0 287 141zM424 174q139 0 178 121q16 57 16 143q0 336 -198 336q-86 0 -141.5 -90t-55.5 -190q0 -156 61.5 -238t139.5 -82z" />
<glyph unicode="&#x154;" horiz-adv-x="929" d="M505 1532q-77 -82 -118 -82t-61.5 20.5t-20.5 48t31 54.5q111 88 143 188q12 35 52 35t63.5 -24.5t23.5 -40t-4 -25.5q-32 -92 -109 -174zM211 21.5q-33 -29.5 -71 -29.5t-52 49q-6 270 -6 539l-6 516q0 156 137 213q111 51 262 51q78 0 167 -38t159.5 -110.5 t70.5 -157.5t-77.5 -182.5t-192.5 -172t-223 -111.5q190 -133 331.5 -285.5t141.5 -236.5q0 -27 -26.5 -50.5t-64.5 -23.5t-65 33q-45 109 -171 228.5t-294 227.5l13 -393q0 -37 -33 -66.5zM544 817.5q171 108.5 171 195.5t-86 134t-204 47t-187 -29q-2 -104 -2 -463 q137 7 308 115.5z" />
<glyph unicode="&#x155;" horiz-adv-x="788" d="M410 1352q12 35 52 34.5t63.5 -25t23.5 -39.5t-4 -26q-33 -92 -110 -174t-118 -82t-61 20.5t-20 48.5t30 54q111 89 144 189zM342 299l2 -211q0 -37 -34 -67.5t-66 -30.5q-47 0 -60 73q-2 16 -16 300t-55 446q-18 78 -19 92q0 68 82 68q35 0 55.5 -27t25.5 -54.5t9 -74.5 t6 -59q43 102 129 153t189 51q168 0 168 -86q0 -43 -30 -68.5t-69 -25.5q-174 0 -245.5 -110.5t-71.5 -368.5z" />
<glyph unicode="&#x156;" horiz-adv-x="929" d="M211 21.5q-33 -29.5 -71 -29.5t-52 49q-6 270 -6 539l-6 516q0 156 137 213q111 51 262 51q78 0 167 -38t159.5 -110.5t70.5 -157.5t-77.5 -182.5t-192.5 -172t-223 -111.5q190 -133 331.5 -285.5t141.5 -236.5q0 -27 -26.5 -50.5t-64.5 -23.5t-65 33q-45 109 -171 228.5 t-294 227.5l13 -393q0 -37 -33 -66.5zM544 817.5q171 108.5 171 195.5t-86 134t-204 47t-187 -29q-2 -104 -2 -463q137 7 308 115.5zM512 -80q37 0 56.5 -25.5t19.5 -44t-6 -34.5q-27 -86 -105 -164t-115.5 -78t-58 20.5t-20.5 50t25.5 59.5t71.5 78t70.5 93t61.5 45z" />
<glyph unicode="&#x157;" horiz-adv-x="788" d="M342 299l2 -211q0 -37 -34 -67.5t-66 -30.5q-47 0 -60 73q-2 16 -16 300t-55 446q-18 78 -19 92q0 68 82 68q35 0 55.5 -27t25.5 -54.5t9 -74.5t6 -59q43 102 129 153t189 51q168 0 168 -86q0 -43 -30 -68.5t-69 -25.5q-174 0 -245.5 -110.5t-71.5 -368.5zM498 -80 q37 0 56 -25.5t19 -44t-6 -34.5q-27 -86 -104.5 -164t-115.5 -78t-58.5 20.5t-20.5 50t25.5 59.5t72 78t71 93t61.5 45z" />
<glyph unicode="&#x158;" horiz-adv-x="929" d="M217 1681q0 29 25.5 49.5t46 19.5t83 -48t97.5 -90q129 129 178 129q33 0 52.5 -24.5t18.5 -56.5t-107.5 -109.5t-149.5 -77.5q-47 0 -145.5 80.5t-98.5 127.5zM211 21.5q-33 -29.5 -71 -29.5t-52 49q-6 270 -6 539l-6 516q0 156 137 213q111 51 262 51q78 0 167 -38 t159.5 -110.5t70.5 -157.5t-77.5 -182.5t-192.5 -172t-223 -111.5q190 -133 331.5 -285.5t141.5 -236.5q0 -27 -26.5 -50.5t-64.5 -23.5t-65 33q-45 109 -171 228.5t-294 227.5l13 -393q0 -37 -33 -66.5zM544 817.5q171 108.5 171 195.5t-86 134t-204 47t-187 -29 q-2 -104 -2 -463q137 7 308 115.5z" />
<glyph unicode="&#x159;" horiz-adv-x="788" d="M578 1331q33 0 52 -24.5t18 -56t-107.5 -109.5t-149.5 -78q-47 0 -145.5 81t-98.5 128q0 29 26 49t46.5 19t83 -48t96.5 -90q130 129 179 129zM342 299l2 -211q0 -37 -34 -67.5t-66 -30.5q-47 0 -60 73q-2 16 -16 300t-55 446q-18 78 -19 92q0 68 82 68q35 0 55.5 -27 t25.5 -54.5t9 -74.5t6 -59q43 102 129 153t189 51q168 0 168 -86q0 -43 -30 -68.5t-69 -25.5q-174 0 -245.5 -110.5t-71.5 -368.5z" />
<glyph unicode="&#x15a;" horiz-adv-x="940" d="M485 1761q12 35 52.5 35t64 -24.5t23.5 -40t-4 -25.5q-33 -92 -110 -174t-118 -82t-61.5 20.5t-20.5 48t33 54.5q108 88 141 188zM545 1356q133 0 226 -45t93 -115q0 -31 -15 -53.5t-45 -22.5t-128 46t-179 46t-167 -51t-86 -125q0 -100 104 -147q78 -35 223.5 -62.5 t237.5 -112.5t92 -257q0 -262 -158 -387q-88 -70 -248.5 -70t-320.5 88q-104 55 -104 111q0 20 17 44.5t48 41t56.5 5.5t83 -40t83.5 -39q86 -33 162 -33t146.5 75t70.5 183q0 143 -143 201q-70 29 -158 43q-182 33 -274 109.5t-92 232.5t133 245t342 89z" />
<glyph unicode="&#x15b;" horiz-adv-x="788" d="M422 1352q12 35 52 34.5t63.5 -25t23.5 -39.5t-4 -26q-33 -92 -109.5 -174t-117.5 -82t-61.5 20.5t-20.5 48.5t31 54q110 89 143 189zM199 889q86 72 199.5 72t218 -41t104.5 -109q0 -35 -26.5 -55.5t-46 -20.5t-31 1t-82 38t-130 37t-101.5 -29.5t-42 -87t48 -90.5 t169 -56.5t185.5 -66.5t64.5 -159q0 -170 -89 -241t-216 -71t-216 35t-89 105q0 80 80 79q20 0 89.5 -28.5t138.5 -28.5t104.5 44t35.5 101.5t-47 83t-143 42t-141 34.5q-123 49 -123 219q0 121 86 193z" />
<glyph unicode="&#x15c;" horiz-adv-x="940" d="M329.5 1663q104.5 82 150.5 82t146.5 -77t100.5 -124q0 -29 -24.5 -49t-40 -20t-91 65.5t-94 65.5t-87 -68t-97.5 -68t-48.5 24t-19.5 55.5t104.5 113.5zM545 1356q133 0 226 -45t93 -115q0 -31 -15 -53.5t-45 -22.5t-128 46t-179 46t-167 -51t-86 -125q0 -100 104 -147 q78 -35 223.5 -62.5t237.5 -112.5t92 -257q0 -262 -158 -387q-88 -70 -248.5 -70t-320.5 88q-104 55 -104 111q0 20 17 44.5t48 41t56.5 5.5t83 -40t83.5 -39q86 -33 162 -33t146.5 75t70.5 183q0 143 -143 201q-70 29 -158 43q-182 33 -274 109.5t-92 232.5t133 245t342 89 z" />
<glyph unicode="&#x15d;" horiz-adv-x="788" d="M266.5 1253q104.5 82 150.5 82t146.5 -76.5t100.5 -123.5q0 -29 -25 -49.5t-41 -20.5t-90 65.5t-93.5 65.5t-88 -67.5t-97 -67.5t-48 23.5t-19.5 55t104.5 113.5zM199 889q86 72 199.5 72t218 -41t104.5 -109q0 -35 -26.5 -55.5t-46 -20.5t-31 1t-82 38t-130 37 t-101.5 -29.5t-42 -87t48 -90.5t169 -56.5t185.5 -66.5t64.5 -159q0 -170 -89 -241t-216 -71t-216 35t-89 105q0 80 80 79q20 0 89.5 -28.5t138.5 -28.5t104.5 44t35.5 101.5t-47 83t-143 42t-141 34.5q-123 49 -123 219q0 121 86 193z" />
<glyph unicode="&#x15e;" horiz-adv-x="940" d="M536.5 -48q4.5 -9 28 -4t60.5 5q98 0 120 -117q6 -33 7 -59q0 -68 -51.5 -119t-146.5 -51t-153.5 26.5t-58.5 61.5t16.5 55.5t33 20.5t67.5 -27t92 -27t66.5 20.5t25.5 41.5q0 59 -31 69q-8 2 -32.5 2t-73.5 -4q-92 0 -92 109q0 35 2 49q-119 18 -232.5 78.5 t-113.5 116.5q0 20 17 44.5t48 41t56.5 5.5t83 -40t83.5 -39q86 -33 162 -33t146.5 75t70.5 183q0 143 -143 201q-70 29 -158 43q-182 33 -274 109.5t-92 232.5t133 245t342 89q133 0 226 -45t93 -115q0 -31 -15 -53.5t-45 -22.5t-128 46t-179 46t-167 -51t-86 -125 q0 -100 104 -147q78 -35 223.5 -62.5t237.5 -112.5t92 -257q0 -262 -158 -387q-78 -61 -208 -68q-3 -41 1.5 -50z" />
<glyph unicode="&#x15f;" horiz-adv-x="788" d="M473 -55l68 8q45 0 73 -16q43 -25 58 -101q6 -33 6 -59q0 -68 -51.5 -119t-146.5 -51t-153.5 26.5t-58.5 61.5t16.5 55.5t33 20.5t67.5 -27t92 -27t66.5 20.5t25.5 41.5q0 59 -30 69q-8 2 -33 2t-74 -4q-92 0 -92 109q0 41 4 59q-98 8 -161.5 42t-63.5 94q0 80 80 79 q20 0 89.5 -28.5t138.5 -28.5t104.5 44t35.5 101.5t-47 83t-143 42t-141 34.5q-123 49 -123 219q0 121 86 193t199.5 72t218 -41t104.5 -109q0 -35 -26.5 -55.5t-46 -20.5t-31 1t-82 38t-130 37t-101.5 -29.5t-42 -87t48 -90.5t169 -56.5t185.5 -66.5t64.5 -179t-75.5 -209 t-192.5 -81q-2 -16 -2 -41.5t14 -25.5z" />
<glyph unicode="&#x160;" horiz-adv-x="940" d="M653 1741q33 0 52.5 -24.5t18.5 -56.5t-107.5 -109.5t-149.5 -77.5q-47 0 -145.5 80.5t-98.5 127.5q0 29 25.5 49.5t46 19.5t83 -48t97.5 -90q129 129 178 129zM545 1356q133 0 226 -45t93 -115q0 -31 -15 -53.5t-45 -22.5t-128 46t-179 46t-167 -51t-86 -125 q0 -100 104 -147q78 -35 223.5 -62.5t237.5 -112.5t92 -257q0 -262 -158 -387q-88 -70 -248.5 -70t-320.5 88q-104 55 -104 111q0 20 17 44.5t48 41t56.5 5.5t83 -40t83.5 -39q86 -33 162 -33t146.5 75t70.5 183q0 143 -143 201q-70 29 -158 43q-182 33 -274 109.5 t-92 232.5t133 245t342 89z" />
<glyph unicode="&#x161;" horiz-adv-x="788" d="M590 1331q33 0 52.5 -24.5t18 -56t-108 -109.5t-149.5 -78q-47 0 -145 81t-98 128q0 29 25.5 49t46 19t83 -48t97.5 -90q129 129 178 129zM199 889q86 72 199.5 72t218 -41t104.5 -109q0 -35 -26.5 -55.5t-46 -20.5t-31 1t-82 38t-130 37t-101.5 -29.5t-42 -87t48 -90.5 t169 -56.5t185.5 -66.5t64.5 -159q0 -170 -89 -241t-216 -71t-216 35t-89 105q0 80 80 79q20 0 89.5 -28.5t138.5 -28.5t104.5 44t35.5 101.5t-47 83t-143 42t-141 34.5q-123 49 -123 219q0 121 86 193z" />
<glyph unicode="&#x162;" horiz-adv-x="958" d="M90 1329l830 12q59 -18 59 -59q0 -102 -84 -102q-154 0 -326 -9q-10 -176 -10 -265v-113l8 -719q0 -49 -24 -68q0 -35 4 -43t27.5 -3t60.5 5q98 0 121 -117q6 -33 6 -59q0 -68 -51.5 -119t-146.5 -51t-153.5 26.5t-58.5 61.5t16.5 55.5t33 20.5t67.5 -26.5t92 -26.5 t66.5 20.5t25.5 40.5q0 59 -30 70q-8 2 -33 2t-74 -4q-92 0 -92 108q0 31 2 45q-14 14 -18 47q-12 158 -12.5 589t12.5 519q-43 -2 -127 -2t-209 2q-33 0 -51.5 20.5t-18.5 50.5t25.5 58.5t62.5 32.5z" />
<glyph unicode="&#x163;" horiz-adv-x="704" d="M426 958l240 9q61 0 61 -72q0 -53 -31.5 -80t-67.5 -29t-71 -2l-125 2q0 -84 17.5 -331.5t26.5 -310t9 -82t-12 -37.5q-2 -16 -2 -42t14 -26l68 8q45 0 74 -16q43 -25 57 -101q6 -33 6 -59q0 -68 -51 -119t-146.5 -51t-153.5 26.5t-58 61.5t16 55.5t32.5 20.5t68 -26.5 t92 -26.5t66.5 20.5t26 40.5q0 59 -31 70q-8 2 -32.5 2t-74.5 -4q-92 0 -92 108q0 29 2 43q-18 14 -20 37q-41 268 -55 737q-18 -2 -141.5 -2t-123.5 72q0 102 115 102l102 -2q35 0 39 2v420q2 35 35 59.5t61.5 24.5t46 -18.5t15.5 -57.5t-2 -426z" />
<glyph unicode="&#x164;" horiz-adv-x="958" d="M680 1741q33 0 52.5 -24.5t18.5 -56.5t-107.5 -109.5t-149.5 -77.5q-47 0 -145.5 80.5t-98.5 127.5q0 29 25.5 49.5t46 19.5t83 -48t97.5 -90q129 129 178 129zM90 1329l830 12q59 -18 59 -59q0 -102 -84 -102q-154 0 -326 -9q-10 -176 -10 -265v-113l8 -719 q0 -63 -32 -74q-25 -8 -62 -8q-59 0 -65 67q-12 158 -12.5 589t12.5 519q-43 -2 -127 -2t-209 2q-33 0 -51.5 20.5t-18.5 50.5t25.5 58.5t62.5 32.5z" />
<glyph unicode="&#x165;" horiz-adv-x="704" d="M129 956l102 -2q35 0 39 2v420q2 35 35 59.5t61.5 24.5t46 -18.5t15.5 -57t-2 -426.5l240 9q61 0 61 -72q0 -53 -31.5 -80t-67.5 -29t-71 -2l-125 2q0 -84 17.5 -331.5t27.5 -320.5t4 -94.5t-22 -29.5q-27 -12 -72 -12t-53 49q-41 268 -55 737q-18 -2 -141.5 -2 t-123.5 72q0 102 115 102zM631.5 1441.5q21.5 18.5 49.5 18.5t51.5 -19.5t23.5 -51.5q0 -113 -41 -217.5t-108.5 -104.5t-67.5 70q0 29 35.5 102.5t35.5 155.5q0 28 21.5 46.5z" />
<glyph unicode="&#x166;" horiz-adv-x="958" d="M90 1329l830 12q59 -18 59 -59q0 -102 -84 -102q-154 0 -326 -9q-6 -84 -10 -233q119 4 168 8t70.5 -11t22.5 -29.5t1 -43.5q0 -72 -80 -80q-66 -6 -182 -10l8 -698q0 -63 -32 -74q-25 -8 -62 -8q-59 0 -65 67q-12 139 -13 715q-121 4 -186.5 8t-65.5 58q0 104 84 104h13 l157 -6q4 197 11 229q-43 -2 -127 -2t-209 2q-33 0 -51.5 20.5t-18.5 50.5t25.5 58.5t62.5 32.5z" />
<glyph unicode="&#x167;" horiz-adv-x="704" d="M557 784l-125 2l4 -81q80 0 209 10q29 2 50.5 -13.5t22.5 -30t1 -42.5q0 -72 -80 -80q-127 -10 -195 -10q16 -291 39 -443q8 -70 -24 -86q-27 -12 -72 -12t-53 49q-29 190 -45 494q-117 4 -182.5 8t-65.5 57q0 104 84 105q33 0 156 -6l-2 79q-18 -2 -141.5 -2t-123.5 72 q0 102 115 102l102 -2q35 0 39 2v420q2 35 35 59.5t61.5 24.5t46 -18.5t15.5 -57t-2 -426.5l240 9q61 0 61 -72q0 -53 -31.5 -80t-67.5 -29t-71 -2z" />
<glyph unicode="&#x168;" horiz-adv-x="1126" d="M339 1651q60 49 114.5 49t87 -16.5t45.5 -36.5q33 -53 59.5 -53.5t58 49t59.5 49.5t48 -25t20 -51q0 -74 -60 -113t-116.5 -39t-87 23.5t-53 47.5t-49.5 24q-12 0 -51 -46.5t-65.5 -46.5t-48 26t-21.5 68t60 91zM950 1364q35 0 60 -35q35 -178 34 -399v-156 q0 -176 -6 -207.5t-12 -70.5t-11 -59.5t-16 -55.5q-23 -76 -63 -135q-61 -115 -161.5 -180.5t-204 -65.5t-213 90t-179.5 225q-106 209 -106 482q0 96 28 456q14 33 44 58.5t61 25.5q45 0 55 -61q-29 -354 -29 -449q0 -225 88 -399q55 -115 136.5 -191.5t158.5 -76.5 q129 0 222 200q39 70 43 224q0 41 4 57l4 270q0 188 -29 344q0 43 28.5 76t63.5 33z" />
<glyph unicode="&#x169;" horiz-adv-x="819" d="M177.5 1241q60.5 49 114.5 49t87 -16.5t45 -36.5q33 -53 59.5 -53t58 49t59.5 49t48.5 -24.5t20.5 -51.5q0 -74 -60.5 -112.5t-117 -38.5t-87 23.5t-53 47t-49.5 23.5q-12 0 -51 -46t-65.5 -46t-48 25.5t-21.5 67.5t60.5 91zM108.5 934.5q26.5 23.5 54 23.5t43 -10 t18.5 -18t7 -29q-12 -160 -12 -288t31 -292.5t67 -164.5q55 0 140.5 61.5t122.5 128.5q-25 295 -25 506q0 43 27.5 73.5t66.5 30.5q63 0 64 -86q0 -145 21.5 -431.5t43.5 -364.5q4 -16 4 -38t-27.5 -41.5t-71.5 -19.5t-58 50q-4 41 -21 122q-143 -150 -289 -149 q-68 0 -121 51t-83 139q-53 170 -53.5 319.5t16.5 369.5q8 34 34.5 57.5z" />
<glyph unicode="&#x16a;" horiz-adv-x="1126" d="M293 1630l239 -6q143 0 214 5t84.5 5t34 -14t21.5 -28.5t1 -43.5q0 -72 -80 -80q-100 -8 -232.5 -8t-298.5 8q-68 2 -67 58q0 104 84 104zM950 1364q35 0 60 -35q35 -178 34 -399v-156q0 -176 -6 -207.5t-12 -70.5t-11 -59.5t-16 -55.5q-23 -76 -63 -135 q-61 -115 -161.5 -180.5t-204 -65.5t-213 90t-179.5 225q-106 209 -106 482q0 96 28 456q14 33 44 58.5t61 25.5q45 0 55 -61q-29 -354 -29 -449q0 -225 88 -399q55 -115 136.5 -191.5t158.5 -76.5q129 0 222 200q39 70 43 224q0 41 4 57l4 270q0 188 -29 344q0 43 28.5 76 t63.5 33z" />
<glyph unicode="&#x16b;" horiz-adv-x="819" d="M131 1221l240 -7q143 0 213.5 5.5t84 5.5t34 -14.5t21.5 -29t1 -42.5q0 -72 -80 -80q-100 -8 -233 -8t-297 8q-68 2 -68 57q0 105 84 105zM108.5 934.5q26.5 23.5 54 23.5t43 -10t18.5 -18t7 -29q-12 -160 -12 -288t31 -292.5t67 -164.5q55 0 140.5 61.5t122.5 128.5 q-25 295 -25 506q0 43 27.5 73.5t66.5 30.5q63 0 64 -86q0 -145 21.5 -431.5t43.5 -364.5q4 -16 4 -38t-27.5 -41.5t-71.5 -19.5t-58 50q-4 41 -21 122q-143 -150 -289 -149q-68 0 -121 51t-83 139q-53 170 -53.5 319.5t16.5 369.5q8 34 34.5 57.5z" />
<glyph unicode="&#x16c;" horiz-adv-x="1126" d="M316.5 1690.5q21.5 23.5 58.5 23.5t58.5 -42t31.5 -59.5t34.5 -34.5t64.5 -17t64.5 22.5t54.5 72.5t62.5 50t51 -20.5t18.5 -53.5q0 -86 -79 -145.5t-179 -59.5t-181 57.5t-81 149.5q0 33 21.5 56.5zM950 1364q35 0 60 -35q35 -178 34 -399v-156q0 -176 -6 -207.5 t-12 -70.5t-11 -59.5t-16 -55.5q-23 -76 -63 -135q-61 -115 -161.5 -180.5t-204 -65.5t-213 90t-179.5 225q-106 209 -106 482q0 96 28 456q14 33 44 58.5t61 25.5q45 0 55 -61q-29 -354 -29 -449q0 -225 88 -399q55 -115 136.5 -191.5t158.5 -76.5q129 0 222 200 q39 70 43 224q0 41 4 57l4 270q0 188 -29 344q0 43 28.5 76t63.5 33z" />
<glyph unicode="&#x16d;" horiz-adv-x="819" d="M154.5 1281q21.5 24 58.5 24t58.5 -42t31.5 -59.5t34.5 -35t64.5 -17.5t65 22.5t54.5 72.5t62 50t51 -20.5t18.5 -52.5q0 -86 -78.5 -145.5t-179 -59.5t-181.5 57.5t-81 149.5q0 32 21.5 56zM108.5 934.5q26.5 23.5 54 23.5t43 -10t18.5 -18t7 -29q-12 -160 -12 -288 t31 -292.5t67 -164.5q55 0 140.5 61.5t122.5 128.5q-25 295 -25 506q0 43 27.5 73.5t66.5 30.5q63 0 64 -86q0 -145 21.5 -431.5t43.5 -364.5q4 -16 4 -38t-27.5 -41.5t-71.5 -19.5t-58 50q-4 41 -21 122q-143 -150 -289 -149q-68 0 -121 51t-83 139q-53 170 -53.5 319.5 t16.5 369.5q8 34 34.5 57.5z" />
<glyph unicode="&#x16e;" horiz-adv-x="1126" d="M433.5 1712q58.5 49 135 49t118.5 -49t42 -125q0 -80 -53 -127t-126 -47t-124 55.5t-51 125t58.5 118.5zM563 1659q-27 0 -47 -18.5t-20 -45.5q0 -57 53 -57q66 0 65.5 60.5t-51.5 60.5zM950 1364q35 0 60 -35q35 -178 34 -399v-156q0 -176 -6 -207.5t-12 -70.5 t-11 -59.5t-16 -55.5q-23 -76 -63 -135q-61 -115 -161.5 -180.5t-204 -65.5t-213 90t-179.5 225q-106 209 -106 482q0 96 28 456q14 33 44 58.5t61 25.5q45 0 55 -61q-29 -354 -29 -449q0 -225 88 -399q55 -115 136.5 -191.5t158.5 -76.5q129 0 222 200q39 70 43 224 q0 41 4 57l4 270q0 188 -29 344q0 43 28.5 76t63.5 33z" />
<glyph unicode="&#x16f;" horiz-adv-x="819" d="M271.5 1302.5q58.5 49.5 135 49.5t118.5 -49.5t42 -124.5q0 -80 -53 -127t-126 -47t-124 55t-51 124.5t58.5 119zM401 1249q-27 0 -47 -18.5t-20 -44.5q0 -57 53 -58q66 0 65.5 60.5t-51.5 60.5zM108.5 934.5q26.5 23.5 54 23.5t43 -10t18.5 -18t7 -29q-12 -160 -12 -288 t31 -292.5t67 -164.5q55 0 140.5 61.5t122.5 128.5q-25 295 -25 506q0 43 27.5 73.5t66.5 30.5q63 0 64 -86q0 -145 21.5 -431.5t43.5 -364.5q4 -16 4 -38t-27.5 -41.5t-71.5 -19.5t-58 50q-4 41 -21 122q-143 -150 -289 -149q-68 0 -121 51t-83 139q-53 170 -53.5 319.5 t16.5 369.5q8 34 34.5 57.5z" />
<glyph unicode="&#x170;" horiz-adv-x="1126" d="M360 1460q-72 0 -71 72q0 25 20 53q80 57 115 197q29 47 62.5 47t54 -21.5t20.5 -56.5q-31 -137 -108 -233q-46 -58 -93 -58zM569 1581q80 51 115 197q18 43 66 43q66 0 73 -76q-90 -289 -202 -289q-35 0 -54.5 19.5t-20 46t22.5 59.5zM950 1364q35 0 60 -35 q35 -178 34 -399v-156q0 -176 -6 -207.5t-12 -70.5t-11 -59.5t-16 -55.5q-23 -76 -63 -135q-61 -115 -161.5 -180.5t-204 -65.5t-213 90t-179.5 225q-106 209 -106 482q0 96 28 456q14 33 44 58.5t61 25.5q45 0 55 -61q-29 -354 -29 -449q0 -225 88 -399 q55 -115 136.5 -191.5t158.5 -76.5q129 0 222 200q39 70 43 224q0 41 4 57l4 270q0 188 -29 344q0 43 28.5 76t63.5 33z" />
<glyph unicode="&#x171;" horiz-adv-x="819" d="M199 1051q-72 0 -72 71q0 25 20 54q80 57 115 196q29 47 62.5 47t54 -21.5t20.5 -56.5q-31 -137 -108 -233q-45 -57 -92 -57zM408 1171q80 51 114 197q18 43 66 43q66 0 74 -76q-90 -289 -203 -288q-35 0 -54.5 19t-19.5 45.5t23 59.5zM108.5 934.5q26.5 23.5 54 23.5 t43 -10t18.5 -18t7 -29q-12 -160 -12 -288t31 -292.5t67 -164.5q55 0 140.5 61.5t122.5 128.5q-25 295 -25 506q0 43 27.5 73.5t66.5 30.5q63 0 64 -86q0 -145 21.5 -431.5t43.5 -364.5q4 -16 4 -38t-27.5 -41.5t-71.5 -19.5t-58 50q-4 41 -21 122q-143 -150 -289 -149 q-68 0 -121 51t-83 139q-53 170 -53.5 319.5t16.5 369.5q8 34 34.5 57.5z" />
<glyph unicode="&#x172;" horiz-adv-x="1126" d="M623 -328q-88 10 -129 76t-41 134.5t39 131.5q-88 29 -173.5 111t-140.5 190q-106 209 -106 482q0 96 28 456q14 33 44 58.5t61 25.5q45 0 55 -61q-29 -354 -29 -449q0 -225 88 -399q55 -115 136.5 -191.5t158.5 -76.5q129 0 222 200q39 70 43 224q0 41 4 57l4 270 q0 188 -29 344q0 43 28.5 76t63.5 33t60 -35q35 -178 34 -399v-156q0 -176 -6 -207.5t-12 -70.5t-11 -59.5t-16 -55.5q-23 -76 -63 -135q-47 -90 -122 -150.5t-159 -83.5q-18 -18 -30.5 -28.5t-23.5 -23.5t-15 -26q-14 -29 -14.5 -65.5t21 -62t49.5 -25.5t53.5 18.5t41 33.5 t39 18.5t45.5 -27.5q37 -35 -14 -90q-14 -14 -29 -23q-53 -41 -119 -41q-18 0 -36 2z" />
<glyph unicode="&#x173;" horiz-adv-x="819" d="M545 -150q0 111 78 187l-19 110q-143 -150 -289 -149q-68 0 -121 51t-83 139q-53 170 -53.5 319.5t16.5 369.5q8 35 34.5 58t54 23t43 -10t18.5 -18t7 -29q-12 -160 -12 -288t31 -292.5t67 -164.5q55 0 140.5 61.5t122.5 128.5q-25 295 -25 506q0 43 27.5 73.5t66.5 30.5 q63 0 64 -86q0 -145 21.5 -431.5t43.5 -364.5q4 -14 4 -32.5t-10 -31t-41 -39.5q-68 -59 -67.5 -112.5t22 -79t49 -25.5t53 18.5t41 34t39 18.5t45.5 -28q16 -14 16.5 -26.5t-9.5 -30.5q-18 -37 -50 -55q-53 -41 -118 -41q-18 0 -37 2q-88 10 -129 75.5t-41 128.5z" />
<glyph unicode="&#x174;" horiz-adv-x="1261" d="M489.5 1663q104.5 82 150.5 82t146.5 -77t100.5 -124q0 -29 -24.5 -49t-40 -20t-91.5 65.5t-94.5 65.5t-87 -68t-97 -68t-48 24t-19.5 55.5t104.5 113.5zM1178 1366q43 0 59 -61q-12 -207 -26.5 -294t-23.5 -152.5t-12.5 -90.5t-17.5 -100.5t-29.5 -150.5t-18.5 -89 t-38 -183t-52.5 -207t-59 -38t-66.5 25q-94 129 -178 319q-20 49 -46 106.5t-38 86.5l-19 43q-43 -74 -118.5 -250t-133.5 -283q-37 -47 -81 -47q-94 0 -144 502q0 2 -3 22.5t-8 71.5t-12.5 113.5t-52.5 517.5q0 41 31 74.5t68 33.5q45 0 61 -59q55 -666 111 -983 q16 29 83.5 189.5t123 256t106.5 95.5q35 0 59 -37q129 -367 222 -516q2 23 24 122l27 132q0 12 5 34.5t8 44t7 39.5l23 129q49 303 61 498q8 35 38 60.5t61 25.5z" />
<glyph unicode="&#x175;" horiz-adv-x="948" d="M333.5 1253q104.5 82 150.5 82t146.5 -76.5t100.5 -123.5q0 -29 -24.5 -49.5t-40 -20.5t-91 65.5t-94 65.5t-87 -67.5t-97.5 -67.5t-48.5 23.5t-19.5 55t104.5 113.5zM248 2q-70 0 -134.5 271.5t-64.5 609.5q0 35 30 54t54.5 19t39.5 -15t15 -40q0 -319 109 -614 q16 25 51 99.5t65.5 109t73.5 34.5t90.5 -63.5t81 -136t37.5 -76.5q55 172 56 319l-13 312q-2 31 29 52t59 21q59 0 60 -231v-113q0 -274 -84 -489q-45 -123 -113 -123q-39 0 -71.5 50t-73.5 142.5t-64 127.5l-61 -121q-35 -72 -53.5 -103.5t-51 -63.5t-67.5 -32z" />
<glyph unicode="&#x176;" d="M311.5 1663q104.5 82 150.5 82t146.5 -77t100.5 -124q0 -29 -25 -49t-41 -20t-90 65.5t-93.5 65.5t-88 -68t-97 -68t-48 24t-19.5 55.5t104.5 113.5zM365 496l2 104q0 53 -34 104.5t-163 297t-129 277.5t26.5 57.5t52 25.5t61.5 -47t141.5 -248t121.5 -221 q197 348 316 491q29 27 46 27t25 -4q49 -20 49.5 -54t-16.5 -59q-16 -25 -90 -129q-109 -152 -187.5 -306.5t-78.5 -188.5v-375l6 -164q0 -45 -24.5 -62.5t-60.5 -17.5t-48 39t-14 102.5t-2 186.5v164z" />
<glyph unicode="&#x177;" horiz-adv-x="866" d="M282.5 1253q104.5 82 150.5 82t146.5 -76.5t100.5 -123.5q0 -29 -24.5 -49.5t-41 -20.5t-90 65.5t-93 65.5t-88.5 -67.5t-97.5 -67.5t-48 23.5t-19.5 55t104.5 113.5zM731 946q27 0 52.5 -18.5t25.5 -40.5q0 -59 -174 -643t-258 -819q-18 -55 -57 -55.5t-61.5 27.5 t-22.5 81t68.5 254.5t82.5 257.5q-51 86 -346 860q-4 10 -4 26.5t24.5 43t67.5 26.5t70 -43q29 -74 94 -257t101 -265t69 -170q29 96 98.5 373.5t79.5 316.5q8 45 90 45z" />
<glyph unicode="&#x178;" d="M272 1458q-76 0 -92 80q0 47 35 83t77 36t66.5 -29t26.5 -78q-6 -41 -38 -66.5t-75 -25.5zM641 1655q37 0 62.5 -21.5t27.5 -58.5q-6 -51 -36.5 -81t-70.5 -30t-67 28t-27 71q0 92 111 92zM365 496l2 104q0 53 -34 104.5t-163 297t-129 277.5t26.5 57.5t52 25.5t61.5 -47 t141.5 -248t121.5 -221q197 348 316 491q29 27 46 27t25 -4q49 -20 49.5 -54t-16.5 -59q-16 -25 -90 -129q-109 -152 -187.5 -306.5t-78.5 -188.5v-375l6 -164q0 -45 -24.5 -62.5t-60.5 -17.5t-48 39t-14 102.5t-2 186.5v164z" />
<glyph unicode="&#x179;" horiz-adv-x="1038" d="M553 1761q12 35 52 35t63.5 -24.5t23.5 -40t-4 -25.5q-33 -92 -109.5 -174t-117.5 -82t-61.5 20.5t-20.5 48t31 54.5q110 88 143 188zM469 0l-311 -8h-21.5t-32 15.5t-14.5 51.5q29 158 82 251t148.5 202t121.5 141q-254 43 -254 123q0 43 28 70.5t46.5 27.5t119.5 -27.5 t191 -35.5q6 10 43 57t68 86q76 100 129 199q-244 53 -668 53q-70 0 -69 64q0 23 30.5 52.5t74.5 33.5t152.5 4t328.5 -29q317 -41 335 -114q2 -6 2 -28t-34 -87q-47 -92 -185 -271q-18 -25 -28 -36q8 0 37.5 1t40 0t28.5 -5q41 -12 41 -66.5t-54 -74t-90 -19.5h-53l-73 8 q-133 -150 -193 -223q-100 -131 -143 -260l280 -9q63 0 144 7l112 10q16 2 34 2t42 -2q53 -4 66 -72q8 -51 -51 -72q-66 -23 -133.5 -23.5t-102.5 -0.5l-170 4h-45z" />
<glyph unicode="&#x17a;" horiz-adv-x="876" d="M453 1352q12 35 52 34.5t63.5 -25t23.5 -39.5t-4 -26q-33 -92 -110 -174t-118 -82t-61 20.5t-20 48.5t32 54q109 89 142 189zM453 788l-293 -26q-96 0 -97 84q0 88 101 94q31 2 395 2q76 0 152 -41q88 -49 88 -155.5t-148 -233.5q-61 -53 -131 -106q-227 -172 -227 -218 q0 -31 76.5 -30.5t141 9.5t138.5 20.5t92 11.5q86 0 86 -62q0 -139 -417 -139q-152 0 -216.5 32.5t-84.5 116.5q-2 12 -3 25q0 57 66 139q90 111 236 211q166 115 192 162q14 27 10 47q-12 57 -157 57z" />
<glyph unicode="&#x17b;" horiz-adv-x="1038" d="M543 1696q37 0 69.5 -35t32.5 -73t-36 -76.5t-74.5 -38.5t-70.5 32.5t-32 83.5q0 98 107 107h4zM469 0l-311 -8h-21.5t-32 15.5t-14.5 51.5q29 158 82 251t148.5 202t121.5 141q-254 43 -254 123q0 43 28 70.5t46.5 27.5t119.5 -27.5t191 -35.5q6 10 43 57t68 86 q76 100 129 199q-244 53 -668 53q-70 0 -69 64q0 23 30.5 52.5t74.5 33.5t152.5 4t328.5 -29q317 -41 335 -114q2 -6 2 -28t-34 -87q-47 -92 -185 -271q-18 -25 -28 -36q8 0 37.5 1t40 0t28.5 -5q41 -12 41 -66.5t-54 -74t-90 -19.5h-53l-73 8q-133 -150 -193 -223 q-100 -131 -143 -260l280 -9q63 0 144 7l112 10q16 2 34 2t42 -2q53 -4 66 -72q8 -51 -51 -72q-66 -23 -133.5 -23.5t-102.5 -0.5l-170 4h-45z" />
<glyph unicode="&#x17c;" horiz-adv-x="876" d="M442 1286q37 0 70 -34.5t33 -72.5t-36 -77t-75 -39t-70.5 32.5t-31.5 84.5q0 98 106 106h4zM453 788l-293 -26q-96 0 -97 84q0 88 101 94q31 2 395 2q76 0 152 -41q88 -49 88 -155.5t-148 -233.5q-61 -53 -131 -106q-227 -172 -227 -218q0 -31 76.5 -30.5t141 9.5 t138.5 20.5t92 11.5q86 0 86 -62q0 -139 -417 -139q-152 0 -216.5 32.5t-84.5 116.5q-2 12 -3 25q0 57 66 139q90 111 236 211q166 115 192 162q14 27 10 47q-12 57 -157 57z" />
<glyph unicode="&#x17d;" horiz-adv-x="1038" d="M721 1741q33 0 52.5 -24.5t18.5 -56.5t-107.5 -109.5t-149.5 -77.5q-47 0 -145.5 80.5t-98.5 127.5q0 29 25.5 49.5t46 19.5t83 -48t97.5 -90q129 129 178 129zM469 0l-311 -8h-21.5t-32 15.5t-14.5 51.5q29 158 82 251t148.5 202t121.5 141q-254 43 -254 123 q0 43 28 70.5t46.5 27.5t119.5 -27.5t191 -35.5q6 10 43 57t68 86q76 100 129 199q-244 53 -668 53q-70 0 -69 64q0 23 30.5 52.5t74.5 33.5t152.5 4t328.5 -29q317 -41 335 -114q2 -6 2 -28t-34 -87q-47 -92 -185 -271q-18 -25 -28 -36q8 0 37.5 1t40 0t28.5 -5 q41 -12 41 -66.5t-54 -74t-90 -19.5h-53l-73 8q-133 -150 -193 -223q-100 -131 -143 -260l280 -9q63 0 144 7l112 10q16 2 34 2t42 -2q53 -4 66 -72q8 -51 -51 -72q-66 -23 -133.5 -23.5t-102.5 -0.5l-170 4h-45z" />
<glyph unicode="&#x17e;" horiz-adv-x="876" d="M621 1331q33 0 52 -24.5t18 -56t-107.5 -109.5t-149.5 -78q-47 0 -145.5 81t-98.5 128q0 29 26 49t46.5 19t83 -48t96.5 -90q130 129 179 129zM453 788l-293 -26q-96 0 -97 84q0 88 101 94q31 2 395 2q76 0 152 -41q88 -49 88 -155.5t-148 -233.5q-61 -53 -131 -106 q-227 -172 -227 -218q0 -31 76.5 -30.5t141 9.5t138.5 20.5t92 11.5q86 0 86 -62q0 -139 -417 -139q-152 0 -216.5 32.5t-84.5 116.5q-2 12 -3 25q0 57 66 139q90 111 236 211q166 115 192 162q14 27 10 47q-12 57 -157 57z" />
<glyph unicode="&#x17f;" horiz-adv-x="655" d="M265.5 1461q23.5 3 108.5 3t140 -24.5t55 -98t-59 -73.5q-12 0 -69.5 21.5t-73.5 21.5q-72 0 -86 -86q-8 -53 -8.5 -205t20 -442.5t20.5 -489.5q0 -41 -32.5 -65.5t-67.5 -24.5q-55 0 -55 65q0 184 -19.5 436.5t-19.5 504.5q0 362 90 430q33 24 56.5 27z" />
<glyph unicode="&#x192;" horiz-adv-x="1181" d="M457 797h-310q-76 0 -75 65q0 31 24.5 59.5t59.5 34.5h303l-4 191q0 180 76.5 249.5t230.5 69.5q221 0 287 -67q20 -20 20 -43t-10 -43q-23 -43 -72 -43q-18 0 -90 11t-126 11t-91 -17.5t-55 -70.5q-10 -25 -10.5 -56.5t-0.5 -47.5l2 -144h326q57 -14 57 -58t-30.5 -69.5 t-50.5 -31.5h-304v-1041q0 -188 -61 -272q-68 -98 -295 -98q-133 0 -164 34q-16 20 -16 54t26.5 75t55 41t88 -12t91.5 -12t60 22q55 51 56 318l2 121v770z" />
<glyph unicode="&#x1a0;" horiz-adv-x="1138" d="M1241 1278q0 -115 -66.5 -181.5t-146.5 -80.5q39 -119 39 -285q0 -397 -217 -614q-113 -109 -260 -119q-195 0 -303.5 133t-154.5 298t-46 319q0 262 125 432q131 182 416 182q143 0 243 -92q61 -55 101 -121q2 0 29.5 9t35.5 15.5t29 22.5q33 25 41 102q4 20 21.5 45 t33.5 25q49 0 64.5 -23.5t15.5 -66.5zM895 721q0 225 -64.5 348t-218.5 123q-274 0 -342 -260q-20 -70 -20 -178.5t41 -251.5q55 -193 164 -271q63 -49 153 -49t162 81t98.5 206t26.5 252z" />
<glyph unicode="&#x1a1;" horiz-adv-x="825" d="M920 860q0 -94 -45.5 -154.5t-112.5 -89.5q16 -82 16 -159q0 -180 -97 -319.5t-258 -139.5t-259 142.5t-98 316.5q0 223 90 356q96 141 282 141q88 0 161 -52t118 -146q55 33 67 125q4 20 21.5 44.5t34.5 24.5q49 0 64.5 -23.5t15.5 -66.5zM420 186q139 0 178 121 q16 57 16 144q0 336 -198 335q-86 0 -141.5 -90t-55.5 -190q0 -156 61.5 -238t139.5 -82z" />
<glyph unicode="&#x1af;" horiz-adv-x="1126" d="M950 1364q35 0 60 -35q14 -78 24 -174q37 12 61.5 41t32.5 94q4 20 21.5 45t34.5 25q49 0 64.5 -23.5t15.5 -66.5q0 -119 -70 -184.5t-152 -77.5l2 -78v-156q0 -176 -6 -207.5t-12 -70.5t-11 -59.5t-16 -55.5q-23 -76 -63 -135q-61 -115 -161.5 -180.5t-204 -65.5 t-213 90t-179.5 225q-106 209 -106 482q0 96 28 456q14 33 44 58.5t61 25.5q45 0 55 -61q-29 -354 -29 -449q0 -225 88 -399q55 -115 136.5 -191.5t158.5 -76.5q129 0 222 200q39 70 43 224q0 41 4 57l4 270q0 188 -29 344q0 43 28.5 76t63.5 33z" />
<glyph unicode="&#x1b0;" horiz-adv-x="819" d="M963 862q0 -125 -78 -192.5t-162 -71.5q31 -436 55 -524q4 -16 4 -38t-27.5 -41.5t-71.5 -19.5t-58 50q-4 41 -21 122q-143 -150 -289 -149q-68 0 -121 51t-83 139q-53 170 -53.5 319.5t16.5 369.5q8 35 34.5 58t54 23t43 -10t18.5 -18t7 -29q-12 -160 -12 -288 t31 -292.5t67 -164.5q55 0 140.5 61.5t122.5 128.5q-25 295 -25 506q0 43 27.5 73.5t66.5 30.5q63 0 64 -86q0 -27 4 -129q31 10 47 19.5t36.5 40t25.5 66.5t22.5 60.5t34.5 24.5q49 0 64.5 -23.5t15.5 -66.5z" />
<glyph unicode="&#x1cd;" horiz-adv-x="999" d="M705 1739q33 0 52 -24.5t18 -56.5t-107.5 -110t-149.5 -78q-47 0 -145.5 81t-98.5 128q0 29 26 49.5t46.5 19.5t83 -48t96.5 -90q130 129 179 129zM530 1350q51 0 86 -45t91 -187q129 -334 251 -1046q2 -8 2.5 -23.5t-19 -33t-55.5 -17.5t-60.5 17.5t-33 57.5t-30.5 156 q-49 260 -66 271q-25 14 -163 30.5t-183 16.5t-53 -8q-37 -33 -100 -498q-8 -39 -78 -39t-70 59q0 147 108.5 563t180.5 552q90 174 192 174zM522 1122q-31 0 -106.5 -181t-75.5 -224q0 -10 4 -15q16 -16 129 -28t149.5 -12t41 5t4.5 32.5t-55.5 225t-90.5 197.5z" />
<glyph unicode="&#x1ce;" horiz-adv-x="802" d="M598 1337q33 0 52.5 -24.5t18.5 -56t-107.5 -109.5t-149.5 -78q-47 0 -145.5 81t-98.5 128q0 29 25.5 49.5t46 19.5t83 -48.5t97.5 -90.5q129 129 178 129zM649 956q90 0 90 -153v-35l-4 -143q-2 -68 -2 -133l31 -463q0 -51 -105 -52h-29.5t-32.5 18.5t-2 45.5t-5 59 q-94 -100 -250 -100q-289 0 -289 446q0 248 93.5 375t267.5 127q82 0 163 -28q27 36 74 36zM436 770q-117 0 -174 -67.5t-57 -247.5q0 -303 164 -303q43 0 95 38.5t73 88.5q39 111 38.5 241.5t-32 190t-107.5 59.5z" />
<glyph unicode="&#x1cf;" horiz-adv-x="481" d="M424 1741q33 0 52.5 -24.5t18.5 -56.5t-107.5 -109.5t-149.5 -77.5q-47 0 -145.5 80.5t-98.5 127.5q0 29 25.5 49.5t46 19.5t83 -48t97.5 -90q129 129 178 129zM276.5 1323q40.5 0 51.5 -47q2 -238 8 -711q0 -289 -17 -489q-4 -31 -37.5 -54.5t-68.5 -23.5q-57 0 -57 59 q20 205 20 508l-12 688q8 29 40 49.5t72.5 20.5z" />
<glyph unicode="&#x1d0;" horiz-adv-x="458" d="M391 1339q33 0 52.5 -24.5t18.5 -56t-107.5 -109.5t-149.5 -78q-47 0 -145.5 81t-98.5 128q0 29 25.5 49.5t46 19.5t83 -48.5t97.5 -90.5q129 129 178 129zM299 221l2 -143q0 -39 -30.5 -64.5t-65.5 -25.5q-51 0 -53 51q-27 653 -27 722.5t6 170.5q4 37 47 37 q109 0 123 -88q6 -45 6 -72l-8 -129v-459z" />
<glyph unicode="&#x1d1;" horiz-adv-x="1138" d="M780 1741q33 0 52.5 -24.5t18.5 -56.5t-107.5 -109.5t-149.5 -77.5q-47 0 -145.5 80.5t-98.5 127.5q0 29 25.5 49.5t46 19.5t83 -48t97.5 -90q129 129 178 129zM627 1362q143 0 243 -92q197 -176 197 -556t-217 -597q-113 -109 -260 -119q-195 0 -303.5 133t-154.5 298 t-46 319q0 262 125 432q131 182 416 182zM612 1192q-274 0 -342 -260q-20 -70 -20 -178.5t41 -251.5q55 -193 164 -271q63 -49 153 -49t162 81t98.5 206t26.5 252q0 225 -64.5 348t-218.5 123z" />
<glyph unicode="&#x1d2;" horiz-adv-x="825" d="M596 1337q33 0 52.5 -24.5t18.5 -56t-107.5 -109.5t-149.5 -78q-47 0 -145.5 81t-98.5 128q0 29 25.5 49.5t46 19.5t83 -48.5t97.5 -90.5q129 129 178 129zM440 954q147 0 242.5 -141t95.5 -339t-97 -337t-258 -139t-259 142.5t-98 316.5q0 223 90 356q96 141 284 141z M416 786q-86 0 -141.5 -90t-55.5 -190q0 -156 61.5 -238t139.5 -82q139 0 178 121q16 57 16 144q1 335 -198 335z" />
<glyph unicode="&#x1d3;" horiz-adv-x="1126" d="M737 1741q33 0 52.5 -24.5t18.5 -56.5t-107.5 -109.5t-149.5 -77.5q-47 0 -145.5 80.5t-98.5 127.5q0 29 25.5 49.5t46 19.5t83 -48t97.5 -90q129 129 178 129zM950 1364q35 0 60 -35q35 -178 34 -399v-156q0 -176 -6 -207.5t-12 -70.5t-11 -59.5t-16 -55.5 q-23 -76 -63 -135q-61 -115 -161.5 -180.5t-204 -65.5t-213 90t-179.5 225q-106 209 -106 482q0 96 28 456q14 33 44 58.5t61 25.5q45 0 55 -61q-29 -354 -29 -449q0 -225 88 -399q55 -115 136.5 -191.5t158.5 -76.5q129 0 222 200q39 70 43 224q0 41 4 57l4 270 q0 188 -29 344q0 43 28.5 76t63.5 33z" />
<glyph unicode="&#x1d4;" horiz-adv-x="819" d="M575 1331q33 0 52.5 -24.5t18.5 -56t-107.5 -109.5t-149.5 -78q-47 0 -145.5 81t-98.5 128q0 29 26 49t46.5 19t82.5 -48t97 -90q129 129 178 129zM108.5 934.5q26.5 23.5 54 23.5t43 -10t18.5 -18t7 -29q-12 -160 -12 -288t31 -292.5t67 -164.5q55 0 140.5 61.5 t122.5 128.5q-25 295 -25 506q0 43 27.5 73.5t66.5 30.5q63 0 64 -86q0 -145 21.5 -431.5t43.5 -364.5q4 -16 4 -38t-27.5 -41.5t-71.5 -19.5t-58 50q-4 41 -21 122q-143 -150 -289 -149q-68 0 -121 51t-83 139q-53 170 -53.5 319.5t16.5 369.5q8 34 34.5 57.5z" />
<glyph unicode="&#x1f0;" horiz-adv-x="481" d="M406 1329q33 0 52 -24.5t18 -56t-107.5 -109.5t-149.5 -78q-47 0 -145.5 81t-98.5 128q0 29 26 49t46.5 19t83 -48t96.5 -90q130 129 179 129zM184.5 936.5q26.5 21.5 79.5 21.5t60 -51q29 -252 28.5 -477t-14.5 -451.5t-66 -349.5q-70 -162 -252 -161q-92 0 -159.5 57 t-67.5 137q0 43 31 65.5t67.5 22.5t55 -18.5t24.5 -40.5q20 -59 70.5 -59.5t86.5 79.5t47 217.5t11 290.5q0 481 -24 664q-4 32 22.5 53.5z" />
<glyph unicode="&#x1fa;" horiz-adv-x="999" d="M528 2099q12 35 52.5 35t64 -24.5t23.5 -40t-4 -25.5q-33 -92 -110 -174t-118 -82t-61.5 20.5t-20.5 48t31 52.5q110 90 143 190zM400.5 1710q58.5 49 135 49t118.5 -49t42 -125q0 -80 -53 -127t-126 -47t-124 55.5t-51 125t58.5 118.5zM530 1657q-27 0 -47 -18.5 t-20 -45.5q0 -57 53 -57q66 0 65.5 60.5t-51.5 60.5zM530 1350q51 0 86 -45t91 -187q129 -334 251 -1046q2 -8 2.5 -23.5t-19 -33t-55.5 -17.5t-60.5 17.5t-33 57.5t-30.5 156q-49 260 -66 271q-25 14 -163 30.5t-183 16.5t-53 -8q-37 -33 -100 -498q-8 -39 -78 -39t-70 59 q0 147 108.5 563t180.5 552q90 174 192 174zM522 1122q-31 0 -106.5 -181t-75.5 -224q0 -10 4 -15q16 -16 129 -28t149.5 -12t41 5t4.5 32.5t-55.5 225t-90.5 197.5z" />
<glyph unicode="&#x1fb;" horiz-adv-x="802" d="M422 1698q12 35 52 35t63.5 -25t23.5 -40t-4 -26q-33 -92 -109.5 -174t-117.5 -82t-61.5 20.5t-20.5 48.5t31 52q110 91 143 191zM294 1309q58 49 135 49t119 -49t42 -125q0 -80 -53.5 -127t-126 -47t-123.5 55t-51 125t58 119zM424 1255q-27 0 -47.5 -18t-20.5 -45 q0 -57 54 -57q66 0 65.5 60t-51.5 60zM649 956q90 0 90 -153v-35l-4 -143q-2 -68 -2 -133l31 -463q0 -51 -105 -52h-29.5t-32.5 18.5t-2 45.5t-5 59q-94 -100 -250 -100q-289 0 -289 446q0 248 93.5 375t267.5 127q82 0 163 -28q27 36 74 36zM436 770q-117 0 -174 -67.5 t-57 -247.5q0 -303 164 -303q43 0 95 38.5t73 88.5q39 111 38.5 241.5t-32 190t-107.5 59.5z" />
<glyph unicode="&#x1fc;" horiz-adv-x="1353" d="M719 1763q12 35 52 35t63.5 -24.5t23.5 -40t-4 -25.5q-33 -92 -109.5 -174t-117.5 -82t-61.5 20.5t-20.5 48t33 52.5q108 90 141 190zM1145 754q74 -12 74 -64q0 -27 -24 -52.5t-56 -33.5q-33 0 -88.5 4t-176.5 4h-53l13 -403v-53l385 6q68 -10 67 -60q0 -41 -47 -77 q-25 -16 -45 -23h-416h-10q-113 0 -113 61l7 529l-185 -4q-98 0 -166 18q-37 -150 -59 -338l-31 -217q-6 -49 -76.5 -49t-70.5 57q0 184 39 412.5t141 402.5q147 256 254.5 349.5t253.5 93.5h469q76 -25 76 -72q0 -98 -238 -98h-72q-12 0 -186 16q0 -311 8 -401zM641 1153 q-68 -45 -147.5 -146.5t-141.5 -242.5q57 -10 111 -10l186 8q2 27 2 81t-10 310z" />
<glyph unicode="&#x1fd;" horiz-adv-x="1396" d="M631 1352q12 35 52 34.5t63.5 -25t23.5 -39.5t-4 -26q-33 -92 -109.5 -174t-117.5 -82t-61.5 20.5t-20.5 48.5t30 54q111 89 144 189zM354 788q-43 0 -85 -23.5t-66.5 -47t-54 -34.5t-48.5 11q-31 25 -30 51q0 90 141 166q66 31 128 31t112 -8q139 -29 178 -84 q76 94 243 94q102 0 179 -60.5t77 -148.5q0 -133 -63 -221q-66 -90 -211 -90q-66 0 -158 12q18 -162 86 -217q20 -23 56 -22q125 0 204 73q84 84 123 84q16 0 49 -29.5t33 -56.5q0 -51 -127 -149q-145 -117 -263 -117t-202 109q-23 -25 -98.5 -69t-161.5 -44t-160.5 32.5 t-127 105.5t-52.5 171q0 156 117 244q86 66 203 65q41 0 84 -8l69 -12q0 113 -30.5 152.5t-143.5 39.5zM791 561q184 0 184 164q0 84 -113 84q-78 0 -131 -86q-20 -31 -25.5 -88t-7.5 -66q52 -8 93 -8zM461 465q-49 16 -100.5 16t-99.5 -44t-48 -113q0 -90 78 -140 q53 -31 123 -30q102 0 178 69q-35 82 -49 213z" />
<glyph unicode="&#x1fe;" horiz-adv-x="1163" d="M596 1761q12 35 52 35t63.5 -24.5t23.5 -40t-4 -25.5q-33 -92 -109.5 -174t-117.5 -82t-61.5 20.5t-20.5 48t33 54.5q108 88 141 188zM391 53q-23 -63 -63 -63q-16 0 -29 10q-45 18 -45 47t29 88q-197 213 -197 619q0 262 125 430q59 84 165.5 133t214 49t181.5 -33 q27 78 55 97q14 6 32 6t40 -13q37 -12 37 -43.5t-41 -126.5q172 -176 172 -530q0 -174 -55.5 -335t-165 -268.5t-256.5 -117.5q-113 0 -199 51zM711 1180q-55 16 -127 16t-142.5 -34t-111.5 -93q-80 -117 -80 -295q0 -252 117 -438zM465 229q57 -43 146 -43t160 81t97.5 206 t26.5 279q0 223 -74 331q-252 -608 -356 -854z" />
<glyph unicode="&#x1ff;" horiz-adv-x="860" d="M444 1352q12 35 52.5 34.5t64 -25t23.5 -39.5t-4 -26q-33 -92 -110 -174t-118 -82t-61.5 20.5t-20.5 48.5t33 54q108 89 141 189zM637 987q72 0 72 -45q0 -35 -37 -108q106 -143 106 -375q0 -139 -78 -291q-39 -76 -103.5 -122t-138 -46t-149.5 35q-39 -76 -74.5 -76 t-57 14.5t-21.5 42t43 105.5q-147 158 -148 358q0 70 31 159t81 159.5t126 114.5t147.5 44t126.5 -30q31 61 74 61zM489 754q-39 31 -85 30.5t-101 -51.5q-96 -90 -96 -229q0 -90 72 -209zM614 424q0 100 -34 199l-203 -437q47 -41 117 -41q120 66 120 279z" />
<glyph unicode="&#x218;" horiz-adv-x="940" d="M545 1356q133 0 226 -45t93 -115q0 -31 -15 -53.5t-45 -22.5t-128 46t-179 46t-167 -51t-86 -125q0 -100 104 -147q78 -35 223.5 -62.5t237.5 -112.5t92 -257q0 -262 -158 -387q-88 -70 -248.5 -70t-320.5 88q-104 55 -104 111q0 20 17 44.5t48 41t56.5 5.5t83 -40 t83.5 -39q86 -33 162 -33t146.5 75t70.5 183q0 143 -143 201q-70 29 -158 43q-182 33 -274 109.5t-92 232.5t133 245t342 89zM581.5 -80q36.5 0 56 -25.5t19.5 -44t-6 -34.5q-27 -86 -104.5 -164t-115.5 -78t-58.5 20.5t-20.5 50t25.5 59.5t72 78t71 93t61 45z" />
<glyph unicode="&#x219;" horiz-adv-x="788" d="M199 889q86 72 199.5 72t218 -41t104.5 -109q0 -35 -26.5 -55.5t-46 -20.5t-31 1t-82 38t-130 37t-101.5 -29.5t-42 -87t48 -90.5t169 -56.5t185.5 -66.5t64.5 -159q0 -170 -89 -241t-216 -71t-216 35t-89 105q0 80 80 79q20 0 89.5 -28.5t138.5 -28.5t104.5 44 t35.5 101.5t-47 83t-143 42t-141 34.5q-123 49 -123 219q0 121 86 193zM506 -59q37 0 56.5 -26t19.5 -44t-7 -35q-27 -86 -104.5 -164t-115.5 -78t-58.5 20.5t-20.5 50.5t26 59.5t72 77.5t70.5 93.5t61.5 45.5z" />
<glyph unicode="&#x21a;" horiz-adv-x="958" d="M90 1329l830 12q59 -18 59 -59q0 -102 -84 -102q-154 0 -326 -9q-10 -176 -10 -265v-113l8 -719q0 -63 -32 -74q-25 -8 -62 -8q-59 0 -65 67q-12 158 -12.5 589t12.5 519q-43 -2 -127 -2t-209 2q-33 0 -51.5 20.5t-18.5 50.5t25.5 58.5t62.5 32.5zM590 -47 q37 0 56.5 -25.5t19.5 -44t-7 -35.5q-27 -86 -104.5 -163.5t-115.5 -77.5t-58.5 20.5t-20.5 50t26 59.5t72 78t70.5 93t61.5 45z" />
<glyph unicode="&#x21b;" horiz-adv-x="704" d="M129 956l102 -2q35 0 39 2v420q2 35 35 59.5t61.5 24.5t46 -18.5t15.5 -57t-2 -426.5l240 9q61 0 61 -72q0 -53 -31.5 -80t-67.5 -29t-71 -2l-125 2q0 -84 17.5 -331.5t27.5 -320.5t4 -94.5t-22 -29.5q-27 -12 -72 -12t-53 49q-41 268 -55 737q-18 -2 -141.5 -2 t-123.5 72q0 102 115 102zM420 -104q37 0 56.5 -26t19.5 -44.5t-7 -34.5q-27 -86 -104.5 -164t-115.5 -78t-58.5 20.5t-20.5 50.5t26 59.5t72 77.5t70.5 93.5t61.5 45.5z" />
<glyph unicode="&#x2c6;" horiz-adv-x="665" d="M180.5 1253q104.5 82 150.5 82t146.5 -76.5t100.5 -123.5q0 -29 -25 -49.5t-41 -20.5t-90 65.5t-93.5 65.5t-88 -67.5t-97 -67.5t-48 23.5t-19.5 55t104.5 113.5z" />
<glyph unicode="&#x2c7;" horiz-adv-x="665" d="M506 1331q33 0 52.5 -24.5t18 -56t-108 -109.5t-149.5 -78q-47 0 -145 81t-98 128q0 29 25.5 49t46 19t83 -48t97.5 -90q129 129 178 129z" />
<glyph unicode="&#x2d8;" horiz-adv-x="614" d="M68.5 1281q21.5 24 58.5 24t58.5 -42t31.5 -59.5t34.5 -35t64.5 -17.5t65 22.5t54.5 72.5t62 50t51 -20.5t18.5 -52.5q0 -86 -78.5 -145.5t-179 -59.5t-181.5 57.5t-81 149.5q0 32 21.5 56z" />
<glyph unicode="&#x2d9;" horiz-adv-x="286" d="M147 1286q37 0 70 -34.5t33 -72.5t-36 -77t-75 -39t-70.5 32.5t-31.5 84.5q0 98 106 106h4z" />
<glyph unicode="&#x2da;" horiz-adv-x="413" d="M89 1296.5q58 49.5 135 49.5t119 -49.5t42 -125.5q0 -80 -53 -127t-126 -47t-124 55.5t-51 125t58 119zM219 1243q-27 0 -47 -18.5t-20 -44.5q0 -57 53 -58q66 0 65.5 60.5t-51.5 60.5z" />
<glyph unicode="&#x2db;" horiz-adv-x="614" d="M174.5 50.5q61.5 68.5 130.5 68.5q14 0 27.5 -16.5t13.5 -37t-17.5 -39t-39.5 -34.5q-57 -41 -58 -113q0 -43 21.5 -68.5t49.5 -25.5t53.5 18.5t41 34t39 18.5t45.5 -28q16 -14 16.5 -26.5t-10.5 -30.5q-18 -37 -49 -56q-53 -41 -119 -41q-18 0 -36 2q-88 10 -129 76 t-41 148t61.5 150.5z" />
<glyph unicode="&#x2dc;" horiz-adv-x="819" d="M201.5 1243q60.5 49 115 49t87 -16t45.5 -37q33 -53 59.5 -53t58 49t59 49t48 -24.5t20.5 -51.5q0 -74 -60.5 -112.5t-116.5 -38.5t-87 23.5t-53.5 47t-48.5 23.5q-12 0 -51 -46t-66 -46t-48.5 25.5t-21.5 67.5t60.5 91z" />
<glyph unicode="&#x2dd;" horiz-adv-x="628" d="M135 913q-72 0 -72 72q0 25 21 53q80 57 115 197q29 47 62.5 47t54 -21.5t20.5 -56.5q-31 -137 -109 -233q-45 -58 -92 -58zM344 1034q80 51 115 197q18 43 65 43q66 0 74 -76q-90 -289 -203 -289q-35 0 -54 19.5t-19.5 46t22.5 59.5z" />
<glyph unicode="&#x3a9;" horiz-adv-x="1120" d="M993 205q55 -16 55.5 -80t-26.5 -88.5t-59.5 -26.5t-49 -2h-24.5h-33q-104 0 -148 31t-44 115q0 158 30.5 268t38.5 139q43 152 43 266.5t-43 227.5q-55 133 -170 133q-168 0 -221 -152q-33 -86 -33 -180t15.5 -169t68.5 -236.5t63.5 -209.5t10.5 -116q0 -123 -143 -123 q-72 0 -168 10q-27 2 -47.5 35t-20.5 72q0 90 74 100l160 -14q-8 72 -66.5 194.5t-67.5 143.5q-53 141 -53 330.5t93.5 339t317.5 149.5t324 -178q88 -156 88 -346q0 -29 -9 -95.5t-81 -250.5q-68 -176 -67 -275q0 -14 23.5 -14t29.5 2h139z" />
<glyph unicode="&#x3bb;" horiz-adv-x="1196" d="M889 -4q-37 0 -64 37q-147 381 -225 540q-55 -90 -141 -265t-131 -259q-35 -53 -79 -53t-66.5 19.5t-22.5 49t14 56t112.5 229.5t215.5 389q-86 180 -180 283q-27 27 -84 94q-20 20 -20.5 58t25 70t60.5 32q43 0 166 -167t195 -306q127 -250 305 -672q10 -27 10 -56.5 t-26.5 -54t-63.5 -24.5z" />
<glyph unicode="&#x3bc;" horiz-adv-x="1009" d="M893 895l8 -430q0 -250 -96 -356.5t-313 -106.5q-129 0 -230 47q-2 -147 -2 -555q-6 -41 -42 -82t-62 -41q-57 0 -58 72v1440q-2 0 2 10q23 68 103 68q51 0 67 -68q0 -293 -8 -596q104 -135 244 -135q190 0 219 147q12 63 12 147.5t-12 221.5t-12 205q16 74 89 73.5 t91 -61.5z" />
<glyph unicode="&#x3c0;" horiz-adv-x="1261" d="M207 934q133 -27 244.5 -27t307 23.5t306.5 30.5q80 -25 80 -97q0 -33 -23.5 -58.5t-62.5 -33.5q-70 -4 -158 -12v-654q-6 -47 -32.5 -75.5t-57.5 -28.5q-90 0 -100 96v637q-137 -18 -203 -20v-631q-2 -45 -27.5 -72.5t-62.5 -27.5t-64.5 26.5t-34.5 71.5v641 q-37 4 -149 25q-68 27 -68 88q1 82 105 98z" />
<glyph unicode="&#x1e00;" horiz-adv-x="999" d="M530 1350q51 0 86 -45t91 -187q129 -334 251 -1046q2 -8 2.5 -23.5t-19 -33t-55.5 -17.5t-60.5 17.5t-33 57.5t-30.5 156q-49 260 -66 271q-25 14 -163 30.5t-183 16.5t-53 -8q-37 -33 -100 -498q-8 -39 -78 -39t-70 59q0 147 108.5 563t180.5 552q90 174 192 174z M522 1122q-31 0 -106.5 -181t-75.5 -224q0 -10 4 -15q16 -16 129 -28t149.5 -12t41 5t4.5 32.5t-55.5 225t-90.5 197.5zM384 -108.5q58 49.5 135 49.5t119 -49.5t42 -124.5q0 -80 -53.5 -127.5t-126 -47.5t-123.5 55.5t-51 125t58 119zM514 -162q-27 0 -47.5 -18.5 t-20.5 -44.5q0 -57 54 -58q66 0 65.5 60.5t-51.5 60.5z" />
<glyph unicode="&#x1e01;" horiz-adv-x="802" d="M649 956q90 0 90 -153v-35l-4 -143q-2 -68 -2 -133l31 -463q0 -51 -105 -52h-29.5t-32.5 18.5t-2 45.5t-5 59q-94 -100 -250 -100q-289 0 -289 446q0 248 93.5 375t267.5 127q82 0 163 -28q27 36 74 36zM436 770q-117 0 -174 -67.5t-57 -247.5q0 -303 164 -303 q43 0 95 38.5t73 88.5q39 111 38.5 241.5t-32 190t-107.5 59.5zM298 -125q58 49 135 49t119 -49t42 -125q0 -80 -53.5 -127t-126 -47t-123.5 55.5t-51 125t58 118.5zM428 -178q-27 0 -47.5 -18.5t-20.5 -45.5q0 -57 54 -57q66 0 65.5 60.5t-51.5 60.5z" />
<glyph unicode="&#x1e3e;" horiz-adv-x="1218" d="M586 1761q12 35 52 35t63.5 -24.5t23.5 -40t-4 -25.5q-33 -92 -109.5 -174t-117.5 -82t-61.5 20.5t-20.5 48t30 54.5q111 88 144 188zM1051 1364q49 0 63 -72q10 -334 10 -728t-4 -455.5t-26.5 -86t-81.5 -24.5q-53 0 -54 65v463q0 113 -4 232t-4 149 q-70 -119 -184.5 -195.5t-255.5 -76.5t-238 117q-4 -125 -4 -296t2 -360q0 -51 -33.5 -74.5t-76.5 -23.5q-55 0 -56 68q2 184 2 583v582q0 35 24 67.5t55.5 32.5t58 -17.5t28.5 -51.5q8 -227 74 -338t156 -111t154.5 29.5t106.5 68.5t81 111q55 102 106 252q31 90 101 90z " />
<glyph unicode="&#x1e3f;" horiz-adv-x="1392" d="M694 1352q12 35 52 34.5t64 -25t24 -39.5t-5 -26q-33 -92 -109.5 -174t-117.5 -82t-61.5 20.5t-20.5 48.5t33 54q108 89 141 189zM195 -2q-53 0 -64 59q0 414 -49 738q0 41 29.5 73.5t67.5 32.5t57 -43q76 100 202 100q162 0 250 -155q102 147 271 147t253 -135 q55 -84 78 -221t23 -389q0 -98 -20.5 -152.5t-86.5 -54.5q-53 0 -53 68l6 256q0 461 -239 460q-76 0 -107 -53q-35 -63 -41 -133q-8 -123 -8 -223v-297q0 -33 -33 -55.5t-67 -22.5q-45 0 -58 59l6 424q0 225 -75 281q-37 27 -112 26.5t-110.5 -55.5t-35.5 -178l12 -381 q0 -176 -96 -176z" />
<glyph unicode="&#x1e80;" horiz-adv-x="1261" d="M782 1456q-18 -29 -45.5 -29t-65.5 20.5t-94.5 76t-83 107.5t-26.5 71.5t3 37t26.5 31t38 13.5t22.5 -2q31 -8 84 -97.5t117 -121.5q33 -16 36.5 -53.5t-12.5 -53.5zM1178 1366q43 0 59 -61q-12 -207 -26.5 -294t-23.5 -152.5t-12.5 -90.5t-17.5 -100.5t-29.5 -150.5 t-18.5 -89t-38 -183t-52.5 -207t-59 -38t-66.5 25q-94 129 -178 319q-20 49 -46 106.5t-38 86.5l-19 43q-43 -74 -118.5 -250t-133.5 -283q-37 -47 -81 -47q-94 0 -144 502q0 2 -3 22.5t-8 71.5t-12.5 113.5t-52.5 517.5q0 41 31 74.5t68 33.5q45 0 61 -59q55 -666 111 -983 q16 29 83.5 189.5t123 256t106.5 95.5q35 0 59 -37q129 -367 222 -516q2 23 24 122l27 132q0 12 5 34.5t8 44t7 39.5l23 129q49 303 61 498q8 35 38 60.5t61 25.5z" />
<glyph unicode="&#x1e81;" horiz-adv-x="948" d="M627 1047q-18 -29 -46 -29t-66 20.5t-94 75.5t-83 107.5t-27 72t3 37t27 30.5t38 13t22 -2q31 -8 84.5 -97t116.5 -122q33 -16 37 -53t-12 -53zM248 2q-70 0 -134.5 271.5t-64.5 609.5q0 35 30 54t54.5 19t39.5 -15t15 -40q0 -319 109 -614q16 25 51 99.5t65.5 109 t73.5 34.5t90.5 -63.5t81 -136t37.5 -76.5q55 172 56 319l-13 312q-2 31 29 52t59 21q59 0 60 -231v-113q0 -274 -84 -489q-45 -123 -113 -123q-39 0 -71.5 50t-73.5 142.5t-64 127.5l-61 -121q-35 -72 -53.5 -103.5t-51 -63.5t-67.5 -32z" />
<glyph unicode="&#x1e82;" horiz-adv-x="1261" d="M645 1761q12 35 52 35t63.5 -24.5t23.5 -40t-4 -25.5q-33 -92 -109.5 -174t-117.5 -82t-61.5 20.5t-20.5 48t33 54.5q108 88 141 188zM1178 1366q43 0 59 -61q-12 -207 -26.5 -294t-23.5 -152.5t-12.5 -90.5t-17.5 -100.5t-29.5 -150.5t-18.5 -89t-38 -183t-52.5 -207 t-59 -38t-66.5 25q-94 129 -178 319q-20 49 -46 106.5t-38 86.5l-19 43q-43 -74 -118.5 -250t-133.5 -283q-37 -47 -81 -47q-94 0 -144 502q0 2 -3 22.5t-8 71.5t-12.5 113.5t-52.5 517.5q0 41 31 74.5t68 33.5q45 0 61 -59q55 -666 111 -983q16 29 83.5 189.5t123 256 t106.5 95.5q35 0 59 -37q129 -367 222 -516q2 23 24 122l27 132q0 12 5 34.5t8 44t7 39.5l23 129q49 303 61 498q8 35 38 60.5t61 25.5z" />
<glyph unicode="&#x1e83;" horiz-adv-x="948" d="M489 1352q12 35 52.5 34.5t64 -25t23.5 -39.5t-4 -26q-33 -92 -110 -174t-118 -82t-61.5 20.5t-20.5 48.5t33 54q108 89 141 189zM248 2q-70 0 -134.5 271.5t-64.5 609.5q0 35 30 54t54.5 19t39.5 -15t15 -40q0 -319 109 -614q16 25 51 99.5t65.5 109t73.5 34.5 t90.5 -63.5t81 -136t37.5 -76.5q55 172 56 319l-13 312q-2 31 29 52t59 21q59 0 60 -231v-113q0 -274 -84 -489q-45 -123 -113 -123q-39 0 -71.5 50t-73.5 142.5t-64 127.5l-61 -121q-35 -72 -53.5 -103.5t-51 -63.5t-67.5 -32z" />
<glyph unicode="&#x1e84;" horiz-adv-x="1261" d="M451 1458q-78 0 -93 80q0 47 35 83t77 36t66.5 -29t26.5 -78q-6 -41 -37.5 -66.5t-74.5 -25.5zM819 1655q37 0 62.5 -21.5t27.5 -58.5q-6 -51 -36.5 -81t-70.5 -30t-66.5 28t-26.5 71q-1 92 110 92zM1178 1366q43 0 59 -61q-12 -207 -26.5 -294t-23.5 -152.5t-12.5 -90.5 t-17.5 -100.5t-29.5 -150.5t-18.5 -89t-38 -183t-52.5 -207t-59 -38t-66.5 25q-94 129 -178 319q-20 49 -46 106.5t-38 86.5l-19 43q-43 -74 -118.5 -250t-133.5 -283q-37 -47 -81 -47q-94 0 -144 502q0 2 -3 22.5t-8 71.5t-12.5 113.5t-52.5 517.5q0 41 31 74.5t68 33.5 q45 0 61 -59q55 -666 111 -983q16 29 83.5 189.5t123 256t106.5 95.5q35 0 59 -37q129 -367 222 -516q2 23 24 122l27 132q0 12 5 34.5t8 44t7 39.5l23 129q49 303 61 498q8 35 38 60.5t61 25.5z" />
<glyph unicode="&#x1e85;" horiz-adv-x="948" d="M295 1049q-78 0 -92 79q0 47 34.5 83t76.5 36t67 -28.5t27 -77.5q-6 -41 -38 -66.5t-75 -25.5zM664 1245q37 0 62.5 -21.5t27.5 -58.5q-6 -51 -37 -80.5t-71 -29.5t-66.5 27.5t-26.5 70.5q0 92 111 92zM248 2q-70 0 -134.5 271.5t-64.5 609.5q0 35 30 54t54.5 19 t39.5 -15t15 -40q0 -319 109 -614q16 25 51 99.5t65.5 109t73.5 34.5t90.5 -63.5t81 -136t37.5 -76.5q55 172 56 319l-13 312q-2 31 29 52t59 21q59 0 60 -231v-113q0 -274 -84 -489q-45 -123 -113 -123q-39 0 -71.5 50t-73.5 142.5t-64 127.5l-61 -121 q-35 -72 -53.5 -103.5t-51 -63.5t-67.5 -32z" />
<glyph unicode="&#x1ea0;" horiz-adv-x="999" d="M530 1350q51 0 86 -45t91 -187q129 -334 251 -1046q2 -8 2.5 -23.5t-19 -33t-55.5 -17.5t-60.5 17.5t-33 57.5t-30.5 156q-49 260 -66 271q-25 14 -163 30.5t-183 16.5t-53 -8q-37 -33 -100 -498q-8 -39 -78 -39t-70 59q0 147 108.5 563t180.5 552q90 174 192 174z M522 1122q-31 0 -106.5 -181t-75.5 -224q0 -10 4 -15q16 -16 129 -28t149.5 -12t41 5t4.5 32.5t-55.5 225t-90.5 197.5zM580.5 -96.5q29.5 -30.5 29.5 -66.5t-31.5 -70.5t-67.5 -34.5t-62.5 28.5t-30.5 77.5q8 47 28 70q25 27 65 26.5t69.5 -31z" />
<glyph unicode="&#x1ea1;" horiz-adv-x="802" d="M649 956q90 0 90 -153v-35l-4 -143q-2 -68 -2 -133l31 -463q0 -51 -105 -52h-29.5t-32.5 18.5t-2 45.5t-5 59q-94 -100 -250 -100q-289 0 -289 446q0 248 93.5 375t267.5 127q82 0 163 -28q27 36 74 36zM436 770q-117 0 -174 -67.5t-57 -247.5q0 -303 164 -303 q43 0 95 38.5t73 88.5q39 111 38.5 241.5t-32 190t-107.5 59.5zM494.5 -112.5q29.5 -30.5 29.5 -66.5t-31.5 -71t-67.5 -35t-62.5 29t-30.5 78q8 47 28 69q25 27 65 27t69.5 -30.5z" />
<glyph unicode="&#x1ea2;" horiz-adv-x="999" d="M528 1757q68 0 105 -42t37 -69.5t-6.5 -44t-67.5 -120.5q-39 -61 -78 -62q-12 0 -22 4q-27 10 -21 39q6 43 38 81t40 70t-27 40q-16 0 -23 -9.5t-14.5 -21.5t-17.5 -22.5t-29.5 -10.5t-38.5 19q-16 20 -10 53t44 64.5t85 31.5h6zM530 1350q51 0 86 -45t91 -187 q129 -334 251 -1046q2 -8 2.5 -23.5t-19 -33t-55.5 -17.5t-60.5 17.5t-33 57.5t-30.5 156q-49 260 -66 271q-25 14 -163 30.5t-183 16.5t-53 -8q-37 -33 -100 -498q-8 -39 -78 -39t-70 59q0 147 108.5 563t180.5 552q90 174 192 174zM522 1122q-31 0 -106.5 -181t-75.5 -224 q0 -10 4 -15q16 -16 129 -28t149.5 -12t41 5t4.5 32.5t-55.5 225t-90.5 197.5z" />
<glyph unicode="&#x1ea3;" horiz-adv-x="802" d="M422 1356q68 0 104.5 -42t36.5 -69.5t-6 -44t-68 -121.5q-39 -61 -77 -61q-12 0 -23 4q-27 10 -20 39q6 43 37.5 81t40 69.5t-26.5 39.5q-16 0 -23.5 -9t-14.5 -21.5t-17.5 -22.5t-30 -10t-37.5 18q-16 20 -10 53t44 65t85 32h6zM649 956q90 0 90 -153v-35l-4 -143 q-2 -68 -2 -133l31 -463q0 -51 -105 -52h-29.5t-32.5 18.5t-2 45.5t-5 59q-94 -100 -250 -100q-289 0 -289 446q0 248 93.5 375t267.5 127q82 0 163 -28q27 36 74 36zM436 770q-117 0 -174 -67.5t-57 -247.5q0 -303 164 -303q43 0 95 38.5t73 88.5q39 111 38.5 241.5 t-32 190t-107.5 59.5z" />
<glyph unicode="&#x1ea4;" horiz-adv-x="999" d="M866 1976q12 35 52 35t64 -24.5t24 -40t-5 -25.5q-33 -92 -109.5 -174t-117.5 -82t-61.5 20.5t-20.5 48t33 52.5q108 90 141 190zM380.5 1661q104.5 82 151 82t146.5 -77t100 -124q0 -29 -24.5 -49t-41 -20t-90 65.5t-93 65.5t-88 -68t-97.5 -68t-48.5 24t-19.5 55.5 t104.5 113.5zM530 1350q51 0 86 -45t91 -187q129 -334 251 -1046q2 -8 2.5 -23.5t-19 -33t-55.5 -17.5t-60.5 17.5t-33 57.5t-30.5 156q-49 260 -66 271q-25 14 -163 30.5t-183 16.5t-53 -8q-37 -33 -100 -498q-8 -39 -78 -39t-70 59q0 147 108.5 563t180.5 552 q90 174 192 174zM522 1122q-31 0 -106.5 -181t-75.5 -224q0 -10 4 -15q16 -16 129 -28t149.5 -12t41 5t4.5 32.5t-55.5 225t-90.5 197.5z" />
<glyph unicode="&#x1ea5;" horiz-adv-x="802" d="M760 1575q12 35 52 35t63.5 -24.5t23.5 -40t-4 -25.5q-33 -92 -109.5 -174t-117.5 -82t-61.5 20.5t-20.5 48t32 51.5q109 91 142 191zM274.5 1259.5q104.5 81.5 150.5 81.5t146.5 -76.5t100.5 -123.5q0 -29 -24.5 -49.5t-41 -20.5t-91.5 65.5t-93.5 65.5t-87 -67.5 t-97 -67.5t-48 23.5t-19.5 55.5t104.5 113.5zM649 956q90 0 90 -153v-35l-4 -143q-2 -68 -2 -133l31 -463q0 -51 -105 -52h-29.5t-32.5 18.5t-2 45.5t-5 59q-94 -100 -250 -100q-289 0 -289 446q0 248 93.5 375t267.5 127q82 0 163 -28q27 36 74 36zM436 770 q-117 0 -174 -67.5t-57 -247.5q0 -303 164 -303q43 0 95 38.5t73 88.5q39 111 38.5 241.5t-32 190t-107.5 59.5z" />
<glyph unicode="&#x1ea6;" horiz-adv-x="999" d="M895 1626q-18 -29 -46 -29t-66 20.5t-94 76t-83.5 107.5t-27.5 71.5t4 37t27.5 31t38 13.5t22.5 -2q31 -8 84 -97.5t116 -121.5q33 -16 37 -53.5t-12 -53.5zM380.5 1661q104.5 82 151 82t146.5 -77t100 -124q0 -29 -24.5 -49t-41 -20t-90 65.5t-93 65.5t-88 -68 t-97.5 -68t-48.5 24t-19.5 55.5t104.5 113.5zM530 1350q51 0 86 -45t91 -187q129 -334 251 -1046q2 -8 2.5 -23.5t-19 -33t-55.5 -17.5t-60.5 17.5t-33 57.5t-30.5 156q-49 260 -66 271q-25 14 -163 30.5t-183 16.5t-53 -8q-37 -33 -100 -498q-8 -39 -78 -39t-70 59 q0 147 108.5 563t180.5 552q90 174 192 174zM522 1122q-31 0 -106.5 -181t-75.5 -224q0 -10 4 -15q16 -16 129 -28t149.5 -12t41 5t4.5 32.5t-55.5 225t-90.5 197.5z" />
<glyph unicode="&#x1ea7;" horiz-adv-x="802" d="M764 1331q37 -18 37 -78q0 -16 -13 -28q-18 -29 -45.5 -29t-65.5 20.5t-94.5 76t-84 107.5t-27.5 71.5t4 37t27.5 30.5t38 13t22.5 -2q31 -8 84.5 -97t116.5 -122zM274.5 1259.5q104.5 81.5 150.5 81.5t146.5 -76.5t100.5 -123.5q0 -29 -24.5 -49.5t-41 -20.5t-91.5 65.5 t-93.5 65.5t-87 -67.5t-97 -67.5t-48 23.5t-19.5 55.5t104.5 113.5zM649 956q90 0 90 -153v-35l-4 -143q-2 -68 -2 -133l31 -463q0 -51 -105 -52h-29.5t-32.5 18.5t-2 45.5t-5 59q-94 -100 -250 -100q-289 0 -289 446q0 248 93.5 375t267.5 127q82 0 163 -28q27 36 74 36z M436 770q-117 0 -174 -67.5t-57 -247.5q0 -303 164 -303q43 0 95 38.5t73 88.5q39 111 38.5 241.5t-32 190t-107.5 59.5z" />
<glyph unicode="&#x1ea8;" horiz-adv-x="999" d="M756 2013q68 0 104.5 -42t36.5 -69.5t-6 -44t-68 -120.5q-39 -61 -78 -62q-12 0 -22 4q-27 10 -23 39q8 43 40 81t40 70t-26 40q-16 0 -23.5 -9.5t-14.5 -21.5t-17.5 -23.5t-29 -11.5t-38.5 21q-16 20 -10 53t43.5 64.5t85.5 31.5h6zM380.5 1661q104.5 82 151 82 t146.5 -77t100 -124q0 -29 -24.5 -49t-41 -20t-90 65.5t-93 65.5t-88 -68t-97.5 -68t-48.5 24t-19.5 55.5t104.5 113.5zM530 1350q51 0 86 -45t91 -187q129 -334 251 -1046q2 -8 2.5 -23.5t-19 -33t-55.5 -17.5t-60.5 17.5t-33 57.5t-30.5 156q-49 260 -66 271 q-25 14 -163 30.5t-183 16.5t-53 -8q-37 -33 -100 -498q-8 -39 -78 -39t-70 59q0 147 108.5 563t180.5 552q90 174 192 174zM522 1122q-31 0 -106.5 -181t-75.5 -224q0 -10 4 -15q16 -16 129 -28t149.5 -12t41 5t4.5 32.5t-55.5 225t-90.5 197.5z" />
<glyph unicode="&#x1ea9;" horiz-adv-x="802" d="M649 1612q68 0 105 -42t37 -69.5t-6.5 -44t-67.5 -121.5q-39 -61 -78 -61q-12 0 -23 4q-27 10 -22 39q8 43 40 81t40 69.5t-27 39.5q-16 0 -23.5 -9t-14.5 -21.5t-17 -23.5t-28.5 -11t-39.5 20q-16 20 -10 53t44 65t85 32h6zM274.5 1259.5q104.5 81.5 150.5 81.5 t146.5 -76.5t100.5 -123.5q0 -29 -24.5 -49.5t-41 -20.5t-91.5 65.5t-93.5 65.5t-87 -67.5t-97 -67.5t-48 23.5t-19.5 55.5t104.5 113.5zM649 956q90 0 90 -153v-35l-4 -143q-2 -68 -2 -133l31 -463q0 -51 -105 -52h-29.5t-32.5 18.5t-2 45.5t-5 59q-94 -100 -250 -100 q-289 0 -289 446q0 248 93.5 375t267.5 127q82 0 163 -28q27 36 74 36zM436 770q-117 0 -174 -67.5t-57 -247.5q0 -303 164 -303q43 0 95 38.5t73 88.5q39 111 38.5 241.5t-32 190t-107.5 59.5z" />
<glyph unicode="&#x1eaa;" horiz-adv-x="999" d="M310.5 1960q60.5 49 114.5 49t87 -16.5t45 -36.5q33 -53 59.5 -53t58.5 49t59.5 49t48 -24.5t20.5 -51.5q0 -74 -60.5 -112.5t-117 -38.5t-87 23.5t-53 47t-49.5 23.5q-12 0 -51 -46t-65.5 -46t-48 25.5t-21.5 67.5t60.5 91zM380.5 1661q104.5 82 151 82t146.5 -77 t100 -124q0 -29 -24.5 -49t-41 -20t-90 65.5t-93 65.5t-88 -68t-97.5 -68t-48.5 24t-19.5 55.5t104.5 113.5zM530 1350q51 0 86 -45t91 -187q129 -334 251 -1046q2 -8 2.5 -23.5t-19 -33t-55.5 -17.5t-60.5 17.5t-33 57.5t-30.5 156q-49 260 -66 271q-25 14 -163 30.5 t-183 16.5t-53 -8q-37 -33 -100 -498q-8 -39 -78 -39t-70 59q0 147 108.5 563t180.5 552q90 174 192 174zM522 1122q-31 0 -106.5 -181t-75.5 -224q0 -10 4 -15q16 -16 129 -28t149.5 -12t41 5t4.5 32.5t-55.5 225t-90.5 197.5z" />
<glyph unicode="&#x1eab;" horiz-adv-x="802" d="M203.5 1558.5q60.5 49.5 115 49.5t87 -16.5t45.5 -37.5q33 -53 59.5 -53t58 49t59 49t48 -24.5t20.5 -50.5q0 -74 -60.5 -113t-116.5 -39t-87 23.5t-53.5 47t-48.5 23.5q-12 0 -51 -46t-66 -46t-48.5 25.5t-21.5 67.5t60.5 91.5zM274.5 1259.5q104.5 81.5 150.5 81.5 t146.5 -76.5t100.5 -123.5q0 -29 -24.5 -49.5t-41 -20.5t-91.5 65.5t-93.5 65.5t-87 -67.5t-97 -67.5t-48 23.5t-19.5 55.5t104.5 113.5zM649 956q90 0 90 -153v-35l-4 -143q-2 -68 -2 -133l31 -463q0 -51 -105 -52h-29.5t-32.5 18.5t-2 45.5t-5 59q-94 -100 -250 -100 q-289 0 -289 446q0 248 93.5 375t267.5 127q82 0 163 -28q27 36 74 36zM436 770q-117 0 -174 -67.5t-57 -247.5q0 -303 164 -303q43 0 95 38.5t73 88.5q39 111 38.5 241.5t-32 190t-107.5 59.5z" />
<glyph unicode="&#x1eac;" horiz-adv-x="999" d="M380.5 1661q104.5 82 151 82t146.5 -77t100 -124q0 -29 -24.5 -49t-41 -20t-90 65.5t-93 65.5t-88 -68t-97.5 -68t-48.5 24t-19.5 55.5t104.5 113.5zM530 1350q51 0 86 -45t91 -187q129 -334 251 -1046q2 -8 2.5 -23.5t-19 -33t-55.5 -17.5t-60.5 17.5t-33 57.5 t-30.5 156q-49 260 -66 271q-25 14 -163 30.5t-183 16.5t-53 -8q-37 -33 -100 -498q-8 -39 -78 -39t-70 59q0 147 108.5 563t180.5 552q90 174 192 174zM522 1122q-31 0 -106.5 -181t-75.5 -224q0 -10 4 -15q16 -16 129 -28t149.5 -12t41 5t4.5 32.5t-55.5 225t-90.5 197.5z M580.5 -96.5q29.5 -30.5 29.5 -66.5t-31.5 -70.5t-67.5 -34.5t-62.5 28.5t-30.5 77.5q8 47 28 70q25 27 65 26.5t69.5 -31z" />
<glyph unicode="&#x1ead;" horiz-adv-x="802" d="M274.5 1259.5q104.5 81.5 150.5 81.5t146.5 -76.5t100.5 -123.5q0 -29 -24.5 -49.5t-41 -20.5t-91.5 65.5t-93.5 65.5t-87 -67.5t-97 -67.5t-48 23.5t-19.5 55.5t104.5 113.5zM649 956q90 0 90 -153v-35l-4 -143q-2 -68 -2 -133l31 -463q0 -51 -105 -52h-29.5t-32.5 18.5 t-2 45.5t-5 59q-94 -100 -250 -100q-289 0 -289 446q0 248 93.5 375t267.5 127q82 0 163 -28q27 36 74 36zM436 770q-117 0 -174 -67.5t-57 -247.5q0 -303 164 -303q43 0 95 38.5t73 88.5q39 111 38.5 241.5t-32 190t-107.5 59.5zM494.5 -112.5q29.5 -30.5 29.5 -66.5 t-31.5 -71t-67.5 -35t-62.5 29t-30.5 78q8 47 28 69q25 27 65 27t69.5 -30.5z" />
<glyph unicode="&#x1eae;" horiz-adv-x="999" d="M541 2040q12 35 52 35t63.5 -25t23.5 -40t-4 -25q-33 -92 -110 -174t-117.5 -82t-61 20t-20.5 48t30 54q111 89 144 189zM283.5 1688.5q21.5 23.5 58.5 23.5t58.5 -42t31.5 -59.5t35 -34.5t64.5 -17t64.5 22.5t54.5 72.5t62 50t51 -20.5t18.5 -53.5q0 -86 -78.5 -145.5 t-179 -59.5t-181.5 57.5t-81 149.5q0 33 21.5 56.5zM530 1350q51 0 86 -45t91 -187q129 -334 251 -1046q2 -8 2.5 -23.5t-19 -33t-55.5 -17.5t-60.5 17.5t-33 57.5t-30.5 156q-49 260 -66 271q-25 14 -163 30.5t-183 16.5t-53 -8q-37 -33 -100 -498q-8 -39 -78 -39t-70 59 q0 147 108.5 563t180.5 552q90 174 192 174zM522 1122q-31 0 -106.5 -181t-75.5 -224q0 -10 4 -15q16 -16 129 -28t149.5 -12t41 5t4.5 32.5t-55.5 225t-90.5 197.5z" />
<glyph unicode="&#x1eaf;" horiz-adv-x="802" d="M434 1638q12 35 52 35t63.5 -24.5t23.5 -40t-4 -25.5q-33 -92 -109.5 -174t-117.5 -82t-61.5 20.5t-20.5 48t31 54.5q110 88 143 188zM177.5 1287.5q21.5 23.5 58 23.5t58 -42t32 -59.5t35 -35t64.5 -17.5t64.5 22.5t54 73t62.5 50.5t51.5 -20.5t18.5 -53.5 q0 -86 -79 -145.5t-179.5 -59.5t-181 57.5t-80.5 149.5q0 33 21.5 56.5zM649 956q90 0 90 -153v-35l-4 -143q-2 -68 -2 -133l31 -463q0 -51 -105 -52h-29.5t-32.5 18.5t-2 45.5t-5 59q-94 -100 -250 -100q-289 0 -289 446q0 248 93.5 375t267.5 127q82 0 163 -28 q27 36 74 36zM436 770q-117 0 -174 -67.5t-57 -247.5q0 -303 164 -303q43 0 95 38.5t73 88.5q39 111 38.5 241.5t-32 190t-107.5 59.5z" />
<glyph unicode="&#x1eb0;" horiz-adv-x="999" d="M678 1735q-18 -29 -46 -29t-66 20.5t-94 76t-84 107.5t-28 71.5t4.5 37t28 30.5t37.5 13t23 -2q31 -8 84 -97t116 -122q33 -16 37 -53t-12 -53zM283.5 1688.5q21.5 23.5 58.5 23.5t58.5 -42t31.5 -59.5t35 -34.5t64.5 -17t64.5 22.5t54.5 72.5t62 50t51 -20.5t18.5 -53.5 q0 -86 -78.5 -145.5t-179 -59.5t-181.5 57.5t-81 149.5q0 33 21.5 56.5zM530 1350q51 0 86 -45t91 -187q129 -334 251 -1046q2 -8 2.5 -23.5t-19 -33t-55.5 -17.5t-60.5 17.5t-33 57.5t-30.5 156q-49 260 -66 271q-25 14 -163 30.5t-183 16.5t-53 -8q-37 -33 -100 -498 q-8 -39 -78 -39t-70 59q0 147 108.5 563t180.5 552q90 174 192 174zM522 1122q-31 0 -106.5 -181t-75.5 -224q0 -10 4 -15q16 -16 129 -28t149.5 -12t41 5t4.5 32.5t-55.5 225t-90.5 197.5z" />
<glyph unicode="&#x1eb1;" horiz-adv-x="802" d="M571 1333q-18 -29 -45.5 -28.5t-65.5 21t-94.5 75.5t-84 107.5t-27.5 71.5t4 36.5t27.5 31t38 13.5t22.5 -2q31 -8 84 -97t117 -122q33 -16 36.5 -53.5t-12.5 -53.5zM177.5 1287.5q21.5 23.5 58 23.5t58 -42t32 -59.5t35 -35t64.5 -17.5t64.5 22.5t54 73t62.5 50.5 t51.5 -20.5t18.5 -53.5q0 -86 -79 -145.5t-179.5 -59.5t-181 57.5t-80.5 149.5q0 33 21.5 56.5zM649 956q90 0 90 -153v-35l-4 -143q-2 -68 -2 -133l31 -463q0 -51 -105 -52h-29.5t-32.5 18.5t-2 45.5t-5 59q-94 -100 -250 -100q-289 0 -289 446q0 248 93.5 375t267.5 127 q82 0 163 -28q27 36 74 36zM436 770q-117 0 -174 -67.5t-57 -247.5q0 -303 164 -303q43 0 95 38.5t73 88.5q39 111 38.5 241.5t-32 190t-107.5 59.5z" />
<glyph unicode="&#x1eb2;" horiz-adv-x="999" d="M532 2038q68 0 105 -42t37 -70t-6 -44t-68 -121q-39 -61 -78 -61q-12 0 -22 4q-27 10 -21 39q6 43 38 81t40 69.5t-27 39.5q-16 0 -23 -9t-14.5 -21.5t-17.5 -23.5t-29.5 -11t-37.5 20q-16 20 -10.5 53t43.5 65t85 32h6zM283.5 1688.5q21.5 23.5 58.5 23.5t58.5 -42 t31.5 -59.5t35 -34.5t64.5 -17t64.5 22.5t54.5 72.5t62 50t51 -20.5t18.5 -53.5q0 -86 -78.5 -145.5t-179 -59.5t-181.5 57.5t-81 149.5q0 33 21.5 56.5zM530 1350q51 0 86 -45t91 -187q129 -334 251 -1046q2 -8 2.5 -23.5t-19 -33t-55.5 -17.5t-60.5 17.5t-33 57.5 t-30.5 156q-49 260 -66 271q-25 14 -163 30.5t-183 16.5t-53 -8q-37 -33 -100 -498q-8 -39 -78 -39t-70 59q0 147 108.5 563t180.5 552q90 174 192 174zM522 1122q-31 0 -106.5 -181t-75.5 -224q0 -10 4 -15q16 -16 129 -28t149.5 -12t41 5t4.5 32.5t-55.5 225t-90.5 197.5z " />
<glyph unicode="&#x1eb3;" horiz-adv-x="802" d="M426 1636q68 0 104.5 -42t36.5 -69.5t-6 -44t-67 -120.5q-39 -61 -78 -62q-12 0 -23 5q-27 10 -20 38q6 43 37.5 81t40 70t-26.5 40q-16 0 -23.5 -9.5t-14.5 -21.5t-17.5 -23.5t-30 -11.5t-37.5 21q-16 20 -10 53t44 64.5t85 31.5h6zM177.5 1287.5q21.5 23.5 58 23.5 t58 -42t32 -59.5t35 -35t64.5 -17.5t64.5 22.5t54 73t62.5 50.5t51.5 -20.5t18.5 -53.5q0 -86 -79 -145.5t-179.5 -59.5t-181 57.5t-80.5 149.5q0 33 21.5 56.5zM649 956q90 0 90 -153v-35l-4 -143q-2 -68 -2 -133l31 -463q0 -51 -105 -52h-29.5t-32.5 18.5t-2 45.5t-5 59 q-94 -100 -250 -100q-289 0 -289 446q0 248 93.5 375t267.5 127q82 0 163 -28q27 36 74 36zM436 770q-117 0 -174 -67.5t-57 -247.5q0 -303 164 -303q43 0 95 38.5t73 88.5q39 111 38.5 241.5t-32 190t-107.5 59.5z" />
<glyph unicode="&#x1eb4;" horiz-adv-x="999" d="M310.5 1929q60.5 49 114.5 49t87 -16t45 -37q33 -53 59.5 -53t58.5 49t59.5 49t48 -24.5t20.5 -51.5q0 -74 -60.5 -112.5t-117 -38.5t-87 23.5t-53 47t-49.5 23.5q-12 0 -51 -46t-65.5 -46t-48 25.5t-21.5 67.5t60.5 91zM283.5 1688.5q21.5 23.5 58.5 23.5t58.5 -42 t31.5 -59.5t35 -34.5t64.5 -17t64.5 22.5t54.5 72.5t62 50t51 -20.5t18.5 -53.5q0 -86 -78.5 -145.5t-179 -59.5t-181.5 57.5t-81 149.5q0 33 21.5 56.5zM530 1350q51 0 86 -45t91 -187q129 -334 251 -1046q2 -8 2.5 -23.5t-19 -33t-55.5 -17.5t-60.5 17.5t-33 57.5 t-30.5 156q-49 260 -66 271q-25 14 -163 30.5t-183 16.5t-53 -8q-37 -33 -100 -498q-8 -39 -78 -39t-70 59q0 147 108.5 563t180.5 552q90 174 192 174zM522 1122q-31 0 -106.5 -181t-75.5 -224q0 -10 4 -15q16 -16 129 -28t149.5 -12t41 5t4.5 32.5t-55.5 225t-90.5 197.5z " />
<glyph unicode="&#x1eb5;" horiz-adv-x="802" d="M203.5 1528q60.5 49 115 49t87 -16.5t45.5 -36.5q33 -53 59.5 -53.5t58 49t59 49.5t48 -24.5t20.5 -51.5q0 -74 -60.5 -113t-116.5 -39t-87 24t-53.5 47.5t-48.5 23.5q-12 0 -51 -46.5t-66 -46.5t-48.5 26t-21.5 68t60.5 91zM177.5 1287.5q21.5 23.5 58 23.5t58 -42 t32 -59.5t35 -35t64.5 -17.5t64.5 22.5t54 73t62.5 50.5t51.5 -20.5t18.5 -53.5q0 -86 -79 -145.5t-179.5 -59.5t-181 57.5t-80.5 149.5q0 33 21.5 56.5zM649 956q90 0 90 -153v-35l-4 -143q-2 -68 -2 -133l31 -463q0 -51 -105 -52h-29.5t-32.5 18.5t-2 45.5t-5 59 q-94 -100 -250 -100q-289 0 -289 446q0 248 93.5 375t267.5 127q82 0 163 -28q27 36 74 36zM436 770q-117 0 -174 -67.5t-57 -247.5q0 -303 164 -303q43 0 95 38.5t73 88.5q39 111 38.5 241.5t-32 190t-107.5 59.5z" />
<glyph unicode="&#x1eb6;" horiz-adv-x="999" d="M283.5 1688.5q21.5 23.5 58.5 23.5t58.5 -42t31.5 -59.5t35 -34.5t64.5 -17t64.5 22.5t54.5 72.5t62 50t51 -20.5t18.5 -53.5q0 -86 -78.5 -145.5t-179 -59.5t-181.5 57.5t-81 149.5q0 33 21.5 56.5zM530 1350q51 0 86 -45t91 -187q129 -334 251 -1046q2 -8 2.5 -23.5 t-19 -33t-55.5 -17.5t-60.5 17.5t-33 57.5t-30.5 156q-49 260 -66 271q-25 14 -163 30.5t-183 16.5t-53 -8q-37 -33 -100 -498q-8 -39 -78 -39t-70 59q0 147 108.5 563t180.5 552q90 174 192 174zM522 1122q-31 0 -106.5 -181t-75.5 -224q0 -10 4 -15q16 -16 129 -28 t149.5 -12t41 5t4.5 32.5t-55.5 225t-90.5 197.5zM580.5 -96.5q29.5 -30.5 29.5 -66.5t-31.5 -70.5t-67.5 -34.5t-62.5 28.5t-30.5 77.5q8 47 28 70q25 27 65 26.5t69.5 -31z" />
<glyph unicode="&#x1eb7;" horiz-adv-x="802" d="M177.5 1287.5q21.5 23.5 58 23.5t58 -42t32 -59.5t35 -35t64.5 -17.5t64.5 22.5t54 73t62.5 50.5t51.5 -20.5t18.5 -53.5q0 -86 -79 -145.5t-179.5 -59.5t-181 57.5t-80.5 149.5q0 33 21.5 56.5zM649 956q90 0 90 -153v-35l-4 -143q-2 -68 -2 -133l31 -463 q0 -51 -105 -52h-29.5t-32.5 18.5t-2 45.5t-5 59q-94 -100 -250 -100q-289 0 -289 446q0 248 93.5 375t267.5 127q82 0 163 -28q27 36 74 36zM436 770q-117 0 -174 -67.5t-57 -247.5q0 -303 164 -303q43 0 95 38.5t73 88.5q39 111 38.5 241.5t-32 190t-107.5 59.5z M494.5 -112.5q29.5 -30.5 29.5 -66.5t-31.5 -71t-67.5 -35t-62.5 29t-30.5 78q8 47 28 69q25 27 65 27t69.5 -30.5z" />
<glyph unicode="&#x1eb8;" d="M113 705q-29 18 -29 53t22 63q-8 205 -8 432q12 49 38 72t75 29q270 -12 586 -13q78 -16 77 -67q0 -86 -167 -100q-45 -2 -99 -3h-133q-39 0 -215 17q0 -256 8 -352q109 -2 418 -2q74 -14 74 -66.5t-60 -81.5q-6 -4 -22 -8l-354 6q-33 0 -54 -4l9 -352q0 -119 -7 -170 l476 6q66 -10 65 -55q0 -31 -27.5 -62t-64.5 -39l-524 -8q-47 0 -65.5 17.5t-18.5 58.5q8 57 8 184v143zM527.5 -102.5q29.5 -30.5 29.5 -66.5t-31.5 -70.5t-67.5 -34.5t-62.5 28.5t-30.5 77.5q8 47 28 70q25 27 65 26.5t69.5 -31z" />
<glyph unicode="&#x1eb9;" horiz-adv-x="815" d="M373 948q109 0 207 -63.5t98 -156.5t-80 -180t-213 -106q-57 -8 -172 -8q23 -174 88 -229q20 -23 55 -23q127 0 213 81t123 81q16 0 49 -30.5t33 -57.5q0 -53 -129 -154q-57 -47 -138 -78.5t-151 -31.5q-178 0 -262 229q-53 141 -53 311t80 293t252 123zM383 807 q-78 0 -133 -88q-20 -31 -39 -139q287 0 287 141q0 86 -115 86zM468 -90q30 -31 30 -67t-32 -70.5t-68 -34.5t-62.5 28.5t-30.5 77.5q8 47 29 70q25 27 64.5 27t69.5 -31z" />
<glyph unicode="&#x1eba;" d="M479 1759q68 0 105 -42t37 -69.5t-6.5 -44t-67.5 -120.5q-39 -61 -78 -62q-12 0 -23 4q-27 10 -20 39q6 43 38 81t40 70t-27 40q-16 0 -23.5 -9.5t-14.5 -21.5t-17 -23.5t-29.5 -11.5t-38.5 21q-16 20 -10 53t44 64.5t85 31.5h6zM113 705q-29 18 -29 53t22 63 q-8 205 -8 432q12 49 38 72t75 29q270 -12 586 -13q78 -16 77 -67q0 -86 -167 -100q-45 -2 -99 -3h-133q-39 0 -215 17q0 -256 8 -352q109 -2 418 -2q74 -14 74 -66.5t-60 -81.5q-6 -4 -22 -8l-354 6q-33 0 -54 -4l9 -352q0 -119 -7 -170l476 6q66 -10 65 -55 q0 -31 -27.5 -62t-64.5 -39l-524 -8q-47 0 -65.5 17.5t-18.5 58.5q8 57 8 184v143z" />
<glyph unicode="&#x1ebb;" horiz-adv-x="815" d="M389 1350q68 0 104.5 -42t36.5 -70t-6 -44t-67 -121q-39 -61 -78 -61q-12 0 -23 4q-27 10 -20 39q6 43 38 81t40 69.5t-27 39.5q-16 0 -23.5 -9t-14.5 -21.5t-17 -23.5t-29.5 -11t-38.5 20q-16 20 -10 53t44 65t85 32h6zM373 948q109 0 207 -63.5t98 -156.5t-80 -180 t-213 -106q-57 -8 -172 -8q23 -174 88 -229q20 -23 55 -23q127 0 213 81t123 81q16 0 49 -30.5t33 -57.5q0 -53 -129 -154q-57 -47 -138 -78.5t-151 -31.5q-178 0 -262 229q-53 141 -53 311t80 293t252 123zM383 807q-78 0 -133 -88q-20 -31 -39 -139q287 0 287 141 q0 86 -115 86z" />
<glyph unicode="&#x1ebc;" d="M257 1651q60 49 114.5 49t87.5 -16.5t45 -36.5q33 -53 59.5 -53.5t58 49t59.5 49.5t48.5 -25t20.5 -51q0 -74 -60.5 -113t-117 -39t-87 23.5t-53 47.5t-49.5 24q-12 0 -51 -46.5t-65.5 -46.5t-48 26t-21.5 68t60 91zM113 705q-29 18 -29 53t22 63q-8 205 -8 432 q12 49 38 72t75 29q270 -12 586 -13q78 -16 77 -67q0 -86 -167 -100q-45 -2 -99 -3h-133q-39 0 -215 17q0 -256 8 -352q109 -2 418 -2q74 -14 74 -66.5t-60 -81.5q-6 -4 -22 -8l-354 6q-33 0 -54 -4l9 -352q0 -119 -7 -170l476 6q66 -10 65 -55q0 -31 -27.5 -62t-64.5 -39 l-524 -8q-47 0 -65.5 17.5t-18.5 58.5q8 57 8 184v143z" />
<glyph unicode="&#x1ebd;" horiz-adv-x="815" d="M166.5 1241q60.5 49 115 49t87 -16.5t45.5 -36.5q33 -53 59.5 -53t58 49t59 49t48 -24.5t20.5 -51.5q0 -74 -60 -112.5t-116.5 -38.5t-87 23.5t-53.5 47t-49 23.5q-12 0 -51 -46t-65.5 -46t-48.5 25.5t-22 67.5t60.5 91zM373 948q109 0 207 -63.5t98 -156.5t-80 -180 t-213 -106q-57 -8 -172 -8q23 -174 88 -229q20 -23 55 -23q127 0 213 81t123 81q16 0 49 -30.5t33 -57.5q0 -53 -129 -154q-57 -47 -138 -78.5t-151 -31.5q-178 0 -262 229q-53 141 -53 311t80 293t252 123zM383 807q-78 0 -133 -88q-20 -31 -39 -139q287 0 287 141 q0 86 -115 86z" />
<glyph unicode="&#x1ebe;" d="M817 1978q12 35 52 35t63.5 -24.5t23.5 -40t-4 -25.5q-33 -92 -109.5 -174t-117.5 -82t-61.5 20.5t-20.5 48t33 54.5q108 88 141 188zM331.5 1663q104.5 82 150.5 82t146.5 -77t100.5 -124q0 -29 -24.5 -49t-41 -20t-90 65.5t-93 65.5t-88 -68t-97.5 -68t-48.5 24 t-19.5 55.5t104.5 113.5zM113 705q-29 18 -29 53t22 63q-8 205 -8 432q12 49 38 72t75 29q270 -12 586 -13q78 -16 77 -67q0 -86 -167 -100q-45 -2 -99 -3h-133q-39 0 -215 17q0 -256 8 -352q109 -2 418 -2q74 -14 74 -66.5t-60 -81.5q-6 -4 -22 -8l-354 6q-33 0 -54 -4 l9 -352q0 -119 -7 -170l476 6q66 -10 65 -55q0 -31 -27.5 -62t-64.5 -39l-524 -8q-47 0 -65.5 17.5t-18.5 58.5q8 57 8 184v143z" />
<glyph unicode="&#x1ebf;" horiz-adv-x="815" d="M727 1569q12 35 52 35t63.5 -25t23.5 -40t-4 -26q-33 -92 -109.5 -174t-117.5 -82t-61.5 20.5t-20.5 48.5t33 54q108 89 141 189zM241.5 1253q104.5 82 150.5 82t146.5 -76.5t100.5 -123.5q0 -29 -24.5 -49.5t-41 -20.5t-91 65.5t-93 65.5t-87.5 -67.5t-97.5 -67.5 t-48 23.5t-19.5 55t104.5 113.5zM373 948q109 0 207 -63.5t98 -156.5t-80 -180t-213 -106q-57 -8 -172 -8q23 -174 88 -229q20 -23 55 -23q127 0 213 81t123 81q16 0 49 -30.5t33 -57.5q0 -53 -129 -154q-57 -47 -138 -78.5t-151 -31.5q-178 0 -262 229q-53 141 -53 311 t80 293t252 123zM383 807q-78 0 -133 -88q-20 -31 -39 -139q287 0 287 141q0 86 -115 86z" />
<glyph unicode="&#x1ec0;" d="M846 1628q-18 -29 -46 -29t-66 20.5t-94 76t-84 107.5t-28 71.5t4.5 37t28 31t37.5 13.5t23 -2q31 -8 84 -97.5t116 -121.5q33 -16 37 -53.5t-12 -53.5zM331.5 1663q104.5 82 150.5 82t146.5 -77t100.5 -124q0 -29 -24.5 -49t-41 -20t-90 65.5t-93 65.5t-88 -68 t-97.5 -68t-48.5 24t-19.5 55.5t104.5 113.5zM113 705q-29 18 -29 53t22 63q-8 205 -8 432q12 49 38 72t75 29q270 -12 586 -13q78 -16 77 -67q0 -86 -167 -100q-45 -2 -99 -3h-133q-39 0 -215 17q0 -256 8 -352q109 -2 418 -2q74 -14 74 -66.5t-60 -81.5q-6 -4 -22 -8 l-354 6q-33 0 -54 -4l9 -352q0 -119 -7 -170l476 6q66 -10 65 -55q0 -31 -27.5 -62t-64.5 -39l-524 -8q-47 0 -65.5 17.5t-18.5 58.5q8 57 8 184v143z" />
<glyph unicode="&#x1ec1;" horiz-adv-x="815" d="M756 1219q-18 -29 -46 -29t-66 20.5t-94 75.5t-84 107.5t-28 72t4 37t28 30.5t38 13t22 -2q31 -8 84.5 -97t116.5 -122q33 -16 37 -53t-12 -53zM241.5 1253q104.5 82 150.5 82t146.5 -76.5t100.5 -123.5q0 -29 -24.5 -49.5t-41 -20.5t-91 65.5t-93 65.5t-87.5 -67.5 t-97.5 -67.5t-48 23.5t-19.5 55t104.5 113.5zM373 948q109 0 207 -63.5t98 -156.5t-80 -180t-213 -106q-57 -8 -172 -8q23 -174 88 -229q20 -23 55 -23q127 0 213 81t123 81q16 0 49 -30.5t33 -57.5q0 -53 -129 -154q-57 -47 -138 -78.5t-151 -31.5q-178 0 -262 229 q-53 141 -53 311t80 293t252 123zM383 807q-78 0 -133 -88q-20 -31 -39 -139q287 0 287 141q0 86 -115 86z" />
<glyph unicode="&#x1ec2;" d="M707 2015q68 0 104.5 -42t36.5 -69.5t-6 -44t-68 -120.5q-39 -61 -78 -62q-12 0 -22 4q-27 10 -23 39q8 43 40 81t40 70t-26 40q-16 0 -23.5 -9.5t-15 -21.5t-17.5 -22.5t-28.5 -10.5t-38.5 19q-16 20 -10 53t43.5 64.5t84.5 31.5h7zM331.5 1663q104.5 82 150.5 82 t146.5 -77t100.5 -124q0 -29 -24.5 -49t-41 -20t-90 65.5t-93 65.5t-88 -68t-97.5 -68t-48.5 24t-19.5 55.5t104.5 113.5zM113 705q-29 18 -29 53t22 63q-8 205 -8 432q12 49 38 72t75 29q270 -12 586 -13q78 -16 77 -67q0 -86 -167 -100q-45 -2 -99 -3h-133q-39 0 -215 17 q0 -256 8 -352q109 -2 418 -2q74 -14 74 -66.5t-60 -81.5q-6 -4 -22 -8l-354 6q-33 0 -54 -4l9 -352q0 -119 -7 -170l476 6q66 -10 65 -55q0 -31 -27.5 -62t-64.5 -39l-524 -8q-47 0 -65.5 17.5t-18.5 58.5q8 57 8 184v143z" />
<glyph unicode="&#x1ec3;" horiz-adv-x="815" d="M616 1606q68 0 105 -42t37 -70t-6.5 -44t-67.5 -121q-39 -61 -78 -61q-12 0 -22 4q-27 10 -23 39q8 43 40 81t40 69.5t-27 39.5q-16 0 -23 -9t-14.5 -21.5t-17.5 -22.5t-28.5 -10t-38.5 18q-16 20 -10.5 53t43.5 65t85 32h6zM241.5 1253q104.5 82 150.5 82t146.5 -76.5 t100.5 -123.5q0 -29 -24.5 -49.5t-41 -20.5t-91 65.5t-93 65.5t-87.5 -67.5t-97.5 -67.5t-48 23.5t-19.5 55t104.5 113.5zM373 948q109 0 207 -63.5t98 -156.5t-80 -180t-213 -106q-57 -8 -172 -8q23 -174 88 -229q20 -23 55 -23q127 0 213 81t123 81q16 0 49 -30.5 t33 -57.5q0 -53 -129 -154q-57 -47 -138 -78.5t-151 -31.5q-178 0 -262 229q-53 141 -53 311t80 293t252 123zM383 807q-78 0 -133 -88q-20 -31 -39 -139q287 0 287 141q0 86 -115 86z" />
<glyph unicode="&#x1ec4;" d="M261.5 1962q60.5 49 114.5 49t87 -16.5t45 -36.5q33 -53 59.5 -53t58 49t59.5 49t48.5 -24.5t20.5 -51.5q0 -74 -60.5 -112.5t-117 -38.5t-87 23.5t-53 47t-49.5 23.5q-12 0 -51 -46t-65.5 -46t-48 25.5t-21.5 67.5t60.5 91zM331.5 1663q104.5 82 150.5 82t146.5 -77 t100.5 -124q0 -29 -24.5 -49t-41 -20t-90 65.5t-93 65.5t-88 -68t-97.5 -68t-48.5 24t-19.5 55.5t104.5 113.5zM113 705q-29 18 -29 53t22 63q-8 205 -8 432q12 49 38 72t75 29q270 -12 586 -13q78 -16 77 -67q0 -86 -167 -100q-45 -2 -99 -3h-133q-39 0 -215 17 q0 -256 8 -352q109 -2 418 -2q74 -14 74 -66.5t-60 -81.5q-6 -4 -22 -8l-354 6q-33 0 -54 -4l9 -352q0 -119 -7 -170l476 6q66 -10 65 -55q0 -31 -27.5 -62t-64.5 -39l-524 -8q-47 0 -65.5 17.5t-18.5 58.5q8 57 8 184v143z" />
<glyph unicode="&#x1ec5;" horiz-adv-x="815" d="M171 1552.5q60 49.5 114.5 49.5t87.5 -16.5t45 -37.5q33 -53 59.5 -53t58 49t59.5 49t48.5 -24.5t20.5 -50.5q0 -74 -60.5 -113t-117 -39t-87 23.5t-53 47t-49.5 23.5q-12 0 -51 -46t-65.5 -46t-48 25.5t-21.5 67.5t60 91.5zM241.5 1253q104.5 82 150.5 82t146.5 -76.5 t100.5 -123.5q0 -29 -24.5 -49.5t-41 -20.5t-91 65.5t-93 65.5t-87.5 -67.5t-97.5 -67.5t-48 23.5t-19.5 55t104.5 113.5zM373 948q109 0 207 -63.5t98 -156.5t-80 -180t-213 -106q-57 -8 -172 -8q23 -174 88 -229q20 -23 55 -23q127 0 213 81t123 81q16 0 49 -30.5 t33 -57.5q0 -53 -129 -154q-57 -47 -138 -78.5t-151 -31.5q-178 0 -262 229q-53 141 -53 311t80 293t252 123zM383 807q-78 0 -133 -88q-20 -31 -39 -139q287 0 287 141q0 86 -115 86z" />
<glyph unicode="&#x1ec6;" d="M331.5 1663q104.5 82 150.5 82t146.5 -77t100.5 -124q0 -29 -24.5 -49t-41 -20t-90 65.5t-93 65.5t-88 -68t-97.5 -68t-48.5 24t-19.5 55.5t104.5 113.5zM113 705q-29 18 -29 53t22 63q-8 205 -8 432q12 49 38 72t75 29q270 -12 586 -13q78 -16 77 -67q0 -86 -167 -100 q-45 -2 -99 -3h-133q-39 0 -215 17q0 -256 8 -352q109 -2 418 -2q74 -14 74 -66.5t-60 -81.5q-6 -4 -22 -8l-354 6q-33 0 -54 -4l9 -352q0 -119 -7 -170l476 6q66 -10 65 -55q0 -31 -27.5 -62t-64.5 -39l-524 -8q-47 0 -65.5 17.5t-18.5 58.5q8 57 8 184v143zM527.5 -102.5 q29.5 -30.5 29.5 -66.5t-31.5 -70.5t-67.5 -34.5t-62.5 28.5t-30.5 77.5q8 47 28 70q25 27 65 26.5t69.5 -31z" />
<glyph unicode="&#x1ec7;" horiz-adv-x="815" d="M241.5 1253q104.5 82 150.5 82t146.5 -76.5t100.5 -123.5q0 -29 -24.5 -49.5t-41 -20.5t-91 65.5t-93 65.5t-87.5 -67.5t-97.5 -67.5t-48 23.5t-19.5 55t104.5 113.5zM373 948q109 0 207 -63.5t98 -156.5t-80 -180t-213 -106q-57 -8 -172 -8q23 -174 88 -229 q20 -23 55 -23q127 0 213 81t123 81q16 0 49 -30.5t33 -57.5q0 -53 -129 -154q-57 -47 -138 -78.5t-151 -31.5q-178 0 -262 229q-53 141 -53 311t80 293t252 123zM383 807q-78 0 -133 -88q-20 -31 -39 -139q287 0 287 141q0 86 -115 86zM468 -90q30 -31 30 -67t-32 -70.5 t-68 -34.5t-62.5 28.5t-30.5 77.5q8 47 29 70q25 27 64.5 27t69.5 -31z" />
<glyph unicode="&#x1ec8;" horiz-adv-x="481" d="M248 1759q68 0 104.5 -42t36.5 -69.5t-6 -44t-68 -120.5q-39 -61 -77 -62q-12 0 -23 4q-27 10 -22 39q8 43 39.5 81t40 70t-26.5 40q-16 0 -23.5 -9.5t-14.5 -21.5t-17.5 -23.5t-29 -11.5t-38.5 21q-12 14 -12 29.5t4 36t42 52t85 31.5h6zM276.5 1323q40.5 0 51.5 -47 q2 -238 8 -711q0 -289 -17 -489q-4 -31 -37.5 -54.5t-68.5 -23.5q-57 0 -57 59q20 205 20 508l-12 688q8 29 40 49.5t72.5 20.5z" />
<glyph unicode="&#x1ec9;" horiz-adv-x="458" d="M221 1362q68 0 104.5 -42t36.5 -69.5t-6 -44t-67 -121.5q-39 -61 -78 -61q-10 0 -23 4q-27 10 -20 39q6 43 38 81t40 69.5t-27 39.5q-16 0 -23.5 -9t-14.5 -21.5t-17 -23.5t-29.5 -11t-38.5 20q-12 14 -12 29.5t4 36t42 52.5t85 32h6zM299 221l2 -143q0 -39 -30.5 -64.5 t-65.5 -25.5q-51 0 -53 51q-27 653 -27 722.5t6 170.5q4 37 47 37q109 0 123 -88q6 -45 6 -72l-8 -129v-459z" />
<glyph unicode="&#x1eca;" horiz-adv-x="481" d="M276.5 1323q40.5 0 51.5 -47q2 -238 8 -711q0 -289 -17 -489q-4 -31 -37.5 -54.5t-68.5 -23.5q-57 0 -57 59q20 205 20 508l-12 688q8 29 40 49.5t72.5 20.5zM294 -125q30 -31 30 -66.5t-32 -70.5t-68 -35t-62.5 28.5t-30.5 78.5q8 47 29 69q25 27 64.5 27t69.5 -31z" />
<glyph unicode="&#x1ecb;" horiz-adv-x="458" d="M213 1294q37 0 69.5 -34.5t32.5 -72.5t-35.5 -77t-74.5 -39t-71 33t-32 84q0 98 107 106h4zM299 221l2 -143q0 -39 -30.5 -64.5t-65.5 -25.5q-51 0 -53 51q-27 653 -27 722.5t6 170.5q4 37 47 37q109 0 123 -88q6 -45 6 -72l-8 -129v-459zM298 -112.5q30 -30.5 30 -66.5 t-32 -71t-67.5 -35t-62.5 29t-31 78q8 47 29 69q25 27 64.5 27t69.5 -30.5z" />
<glyph unicode="&#x1ecc;" horiz-adv-x="1138" d="M627 1362q143 0 243 -92q197 -176 197 -556t-217 -597q-113 -109 -260 -119q-195 0 -303.5 133t-154.5 298t-46 319q0 262 125 432q131 182 416 182zM612 1192q-274 0 -342 -260q-20 -70 -20 -178.5t41 -251.5q55 -193 164 -271q63 -49 153 -49t162 81t98.5 206t26.5 252 q0 225 -64.5 348t-218.5 123zM658.5 -114.5q29.5 -30.5 29.5 -66.5t-31.5 -71t-67.5 -35t-62.5 29t-30.5 78q8 47 28 69q25 27 65 27t69.5 -30.5z" />
<glyph unicode="&#x1ecd;" horiz-adv-x="825" d="M440 954q147 0 242.5 -141t95.5 -339t-97 -337t-258 -139t-259 142.5t-98 316.5q0 223 90 356q96 141 284 141zM416 786q-86 0 -141.5 -90t-55.5 -190q0 -156 61.5 -238t139.5 -82q139 0 178 121q16 57 16 144q1 335 -198 335zM505 -114.5q30 -30.5 30 -66.5t-32 -71 t-68 -35t-62.5 29t-30.5 78q8 47 29 69q25 27 64.5 27t69.5 -30.5z" />
<glyph unicode="&#x1ece;" horiz-adv-x="1138" d="M604 1759q68 0 104.5 -42t36.5 -69.5t-6 -44t-67 -120.5q-39 -61 -78 -62q-12 0 -23 4q-27 10 -22 39q8 43 40 81t40 70t-27 40q-16 0 -23.5 -9.5t-14.5 -21.5t-17 -23.5t-28.5 -11.5t-39.5 21q-16 20 -10 53t44 64.5t85 31.5h6zM627 1362q143 0 243 -92 q197 -176 197 -556t-217 -597q-113 -109 -260 -119q-195 0 -303.5 133t-154.5 298t-46 319q0 262 125 432q131 182 416 182zM612 1192q-274 0 -342 -260q-20 -70 -20 -178.5t41 -251.5q55 -193 164 -271q63 -49 153 -49t162 81t98.5 206t26.5 252q0 225 -64.5 348 t-218.5 123z" />
<glyph unicode="&#x1ecf;" horiz-adv-x="825" d="M420 1356q68 0 104.5 -42t36.5 -69.5t-6 -44t-68 -121.5q-39 -61 -77 -61q-12 0 -23 4q-27 10 -22 39q8 43 39.5 81t40 69.5t-26.5 39.5q-16 0 -23.5 -9t-14.5 -21.5t-17.5 -22.5t-29 -10t-38.5 18q-16 20 -10 53t44 65t85 32h6zM440 954q147 0 242.5 -141t95.5 -339 t-97 -337t-258 -139t-259 142.5t-98 316.5q0 223 90 356q96 141 284 141zM416 786q-86 0 -141.5 -90t-55.5 -190q0 -156 61.5 -238t139.5 -82q139 0 178 121q16 57 16 144q1 335 -198 335z" />
<glyph unicode="&#x1ed0;" horiz-adv-x="1138" d="M942 1978q12 35 52 35t63.5 -24.5t23.5 -40t-4 -25.5q-33 -92 -109.5 -174t-117.5 -82t-61.5 20.5t-20.5 48t31 54.5q110 88 143 188zM456.5 1663q104.5 82 150.5 82t146.5 -77t100.5 -124q0 -29 -24.5 -49t-40 -20t-91 65.5t-94 65.5t-87 -68t-97.5 -68t-48.5 24 t-19.5 55.5t104.5 113.5zM627 1362q143 0 243 -92q197 -176 197 -556t-217 -597q-113 -109 -260 -119q-195 0 -303.5 133t-154.5 298t-46 319q0 262 125 432q131 182 416 182zM612 1192q-274 0 -342 -260q-20 -70 -20 -178.5t41 -251.5q55 -193 164 -271q63 -49 153 -49 t162 81t98.5 206t26.5 252q0 225 -64.5 348t-218.5 123z" />
<glyph unicode="&#x1ed1;" horiz-adv-x="825" d="M758 1575q12 35 52 35t63.5 -24.5t23.5 -40t-4 -25.5q-33 -92 -109.5 -174t-117.5 -82t-61.5 20.5t-20.5 48t30 51.5q111 91 144 191zM272.5 1259.5q104.5 81.5 150.5 81.5t146.5 -76.5t100.5 -123.5q0 -29 -24.5 -49.5t-40 -20.5t-91.5 65.5t-94.5 65.5t-87 -67.5 t-97 -67.5t-48 23.5t-19.5 55.5t104.5 113.5zM440 954q147 0 242.5 -141t95.5 -339t-97 -337t-258 -139t-259 142.5t-98 316.5q0 223 90 356q96 141 284 141zM416 786q-86 0 -141.5 -90t-55.5 -190q0 -156 61.5 -238t139.5 -82q139 0 178 121q16 57 16 144q1 335 -198 335z " />
<glyph unicode="&#x1ed2;" horiz-adv-x="1138" d="M971 1628q-18 -29 -46 -29t-66 20.5t-94 76t-83 107.5t-27 71.5t3.5 37t27 31t37.5 13.5t22 -2q31 -8 84.5 -97.5t116.5 -121.5q33 -16 37 -53.5t-12 -53.5zM456.5 1663q104.5 82 150.5 82t146.5 -77t100.5 -124q0 -29 -24.5 -49t-40 -20t-91 65.5t-94 65.5t-87 -68 t-97.5 -68t-48.5 24t-19.5 55.5t104.5 113.5zM627 1362q143 0 243 -92q197 -176 197 -556t-217 -597q-113 -109 -260 -119q-195 0 -303.5 133t-154.5 298t-46 319q0 262 125 432q131 182 416 182zM612 1192q-274 0 -342 -260q-20 -70 -20 -178.5t41 -251.5q55 -193 164 -271 q63 -49 153 -49t162 81t98.5 206t26.5 252q0 225 -64.5 348t-218.5 123z" />
<glyph unicode="&#x1ed3;" horiz-adv-x="825" d="M762 1331q37 -18 37 -78q0 -16 -13 -28q-18 -29 -45.5 -29t-65.5 20.5t-94.5 76t-83 107.5t-26.5 71.5t3 37t26.5 30.5t38 13t22.5 -2q31 -8 84.5 -97t116.5 -122zM272.5 1259.5q104.5 81.5 150.5 81.5t146.5 -76.5t100.5 -123.5q0 -29 -24.5 -49.5t-40 -20.5t-91.5 65.5 t-94.5 65.5t-87 -67.5t-97 -67.5t-48 23.5t-19.5 55.5t104.5 113.5zM440 954q147 0 242.5 -141t95.5 -339t-97 -337t-258 -139t-259 142.5t-98 316.5q0 223 90 356q96 141 284 141zM416 786q-86 0 -141.5 -90t-55.5 -190q0 -156 61.5 -238t139.5 -82q139 0 178 121 q16 57 16 144q1 335 -198 335z" />
<glyph unicode="&#x1ed4;" horiz-adv-x="1138" d="M831 2015q68 0 105 -42t37 -69.5t-6 -44t-68 -120.5q-39 -61 -78 -62q-10 0 -22 4q-27 10 -21 39q6 43 38 81t40 70t-27 40q-16 0 -23 -9.5t-14.5 -21.5t-17.5 -22.5t-29.5 -10.5t-37.5 19q-16 20 -10.5 53t43.5 64.5t85 31.5h6zM456.5 1663q104.5 82 150.5 82t146.5 -77 t100.5 -124q0 -29 -24.5 -49t-40 -20t-91 65.5t-94 65.5t-87 -68t-97.5 -68t-48.5 24t-19.5 55.5t104.5 113.5zM627 1362q143 0 243 -92q197 -176 197 -556t-217 -597q-113 -109 -260 -119q-195 0 -303.5 133t-154.5 298t-46 319q0 262 125 432q131 182 416 182zM612 1192 q-274 0 -342 -260q-20 -70 -20 -178.5t41 -251.5q55 -193 164 -271q63 -49 153 -49t162 81t98.5 206t26.5 252q0 225 -64.5 348t-218.5 123z" />
<glyph unicode="&#x1ed5;" horiz-adv-x="825" d="M647 1612q68 0 104.5 -42t36.5 -69.5t-6 -44t-67 -121.5q-39 -61 -78 -61q-10 0 -23 4q-27 10 -20 39q6 43 38 81t40 69.5t-27 39.5q-16 0 -23.5 -9t-14.5 -21.5t-17 -23.5t-29.5 -11t-38.5 20q-16 20 -10 53t44 65t85 32h6zM272.5 1259.5q104.5 81.5 150.5 81.5 t146.5 -76.5t100.5 -123.5q0 -29 -24.5 -49.5t-40 -20.5t-91.5 65.5t-94.5 65.5t-87 -67.5t-97 -67.5t-48 23.5t-19.5 55.5t104.5 113.5zM440 954q147 0 242.5 -141t95.5 -339t-97 -337t-258 -139t-259 142.5t-98 316.5q0 223 90 356q96 141 284 141zM416 786 q-86 0 -141.5 -90t-55.5 -190q0 -156 61.5 -238t139.5 -82q139 0 178 121q16 57 16 144q1 335 -198 335z" />
<glyph unicode="&#x1ed6;" horiz-adv-x="1138" d="M386 1962q60 49 114.5 49t87.5 -16.5t45 -36.5q33 -53 59.5 -53t58 49t59.5 49t48.5 -24.5t20.5 -51.5q0 -74 -60.5 -112.5t-117 -38.5t-87 23.5t-53 47t-49.5 23.5q-12 0 -51 -46t-65.5 -46t-48 25.5t-21.5 67.5t60 91zM456.5 1663q104.5 82 150.5 82t146.5 -77 t100.5 -124q0 -29 -24.5 -49t-40 -20t-91 65.5t-94 65.5t-87 -68t-97.5 -68t-48.5 24t-19.5 55.5t104.5 113.5zM627 1362q143 0 243 -92q197 -176 197 -556t-217 -597q-113 -109 -260 -119q-195 0 -303.5 133t-154.5 298t-46 319q0 262 125 432q131 182 416 182zM612 1192 q-274 0 -342 -260q-20 -70 -20 -178.5t41 -251.5q55 -193 164 -271q63 -49 153 -49t162 81t98.5 206t26.5 252q0 225 -64.5 348t-218.5 123z" />
<glyph unicode="&#x1ed7;" horiz-adv-x="825" d="M201.5 1558.5q60.5 49.5 115 49.5t87 -16.5t45.5 -37.5q33 -53 59.5 -53t58 49t59 49t48 -24.5t20.5 -50.5q0 -74 -60.5 -113t-116.5 -39t-87 23.5t-53.5 47t-48.5 23.5q-12 0 -51 -46t-66 -46t-48.5 25.5t-21.5 67.5t60.5 91.5zM272.5 1259.5q104.5 81.5 150.5 81.5 t146.5 -76.5t100.5 -123.5q0 -29 -24.5 -49.5t-40 -20.5t-91.5 65.5t-94.5 65.5t-87 -67.5t-97 -67.5t-48 23.5t-19.5 55.5t104.5 113.5zM440 954q147 0 242.5 -141t95.5 -339t-97 -337t-258 -139t-259 142.5t-98 316.5q0 223 90 356q96 141 284 141zM416 786 q-86 0 -141.5 -90t-55.5 -190q0 -156 61.5 -238t139.5 -82q139 0 178 121q16 57 16 144q1 335 -198 335z" />
<glyph unicode="&#x1ed8;" horiz-adv-x="1138" d="M456.5 1663q104.5 82 150.5 82t146.5 -77t100.5 -124q0 -29 -24.5 -49t-40 -20t-91 65.5t-94 65.5t-87 -68t-97.5 -68t-48.5 24t-19.5 55.5t104.5 113.5zM627 1362q143 0 243 -92q197 -176 197 -556t-217 -597q-113 -109 -260 -119q-195 0 -303.5 133t-154.5 298t-46 319 q0 262 125 432q131 182 416 182zM612 1192q-274 0 -342 -260q-20 -70 -20 -178.5t41 -251.5q55 -193 164 -271q63 -49 153 -49t162 81t98.5 206t26.5 252q0 225 -64.5 348t-218.5 123zM658.5 -114.5q29.5 -30.5 29.5 -66.5t-31.5 -71t-67.5 -35t-62.5 29t-30.5 78 q8 47 28 69q25 27 65 27t69.5 -30.5z" />
<glyph unicode="&#x1ed9;" horiz-adv-x="825" d="M272.5 1259.5q104.5 81.5 150.5 81.5t146.5 -76.5t100.5 -123.5q0 -29 -24.5 -49.5t-40 -20.5t-91.5 65.5t-94.5 65.5t-87 -67.5t-97 -67.5t-48 23.5t-19.5 55.5t104.5 113.5zM440 954q147 0 242.5 -141t95.5 -339t-97 -337t-258 -139t-259 142.5t-98 316.5q0 223 90 356 q96 141 284 141zM416 786q-86 0 -141.5 -90t-55.5 -190q0 -156 61.5 -238t139.5 -82q139 0 178 121q16 57 16 144q1 335 -198 335zM505 -114.5q30 -30.5 30 -66.5t-32 -71t-68 -35t-62.5 29t-30.5 78q8 47 29 69q25 27 64.5 27t69.5 -30.5z" />
<glyph unicode="&#x1eda;" horiz-adv-x="1138" d="M638 1532q-77 -82 -118 -82t-61.5 20.5t-20.5 48t33 54.5q109 88 141 188q12 35 52.5 35t64 -24.5t23.5 -40t-4 -25.5q-33 -92 -110 -174zM1241 1278q0 -115 -66.5 -181.5t-146.5 -80.5q39 -119 39 -285q0 -397 -217 -614q-113 -109 -260 -119q-195 0 -303.5 133 t-154.5 298t-46 319q0 262 125 432q131 182 416 182q143 0 243 -92q61 -55 101 -121q2 0 29.5 9t35.5 15.5t29 22.5q33 25 41 102q4 20 21.5 45t33.5 25q49 0 64.5 -23.5t15.5 -66.5zM895 721q0 225 -64.5 348t-218.5 123q-274 0 -342 -260q-20 -70 -20 -178.5t41 -251.5 q55 -193 164 -271q63 -49 153 -49t162 81t98.5 206t26.5 252z" />
<glyph unicode="&#x1edb;" horiz-adv-x="825" d="M453.5 1128.5q-76.5 -81.5 -117.5 -81.5t-61.5 20t-20.5 48t33 52q109 90 141 191q12 35 52 35t63.5 -25t23.5 -40t-4 -25q-33 -93 -109.5 -174.5zM920 860q0 -94 -45.5 -154.5t-112.5 -89.5q16 -82 16 -159q0 -180 -97 -319.5t-258 -139.5t-259 142.5t-98 316.5 q0 223 90 356q96 141 282 141q88 0 161 -52t118 -146q55 33 67 125q4 20 21.5 44.5t34.5 24.5q49 0 64.5 -23.5t15.5 -66.5zM420 186q139 0 178 121q16 57 16 144q0 336 -198 335q-86 0 -141.5 -90t-55.5 -190q0 -156 61.5 -238t139.5 -82z" />
<glyph unicode="&#x1edc;" horiz-adv-x="1138" d="M543.5 1523.5q-56.5 55.5 -83 107.5t-26.5 71.5t3 37t26.5 31t38 13.5t22.5 -2q31 -8 84.5 -97.5t116.5 -121.5q33 -16 37 -53t-12 -54q-18 -29 -46 -29t-66 20.5t-94.5 76zM1241 1278q0 -115 -66.5 -181.5t-146.5 -80.5q39 -119 39 -285q0 -397 -217 -614 q-113 -109 -260 -119q-195 0 -303.5 133t-154.5 298t-46 319q0 262 125 432q131 182 416 182q143 0 243 -92q61 -55 101 -121q2 0 29.5 9t35.5 15.5t29 22.5q33 25 41 102q4 20 21.5 45t33.5 25q49 0 64.5 -23.5t15.5 -66.5zM895 721q0 225 -64.5 348t-218.5 123 q-274 0 -342 -260q-20 -70 -20 -178.5t41 -251.5q55 -193 164 -271q63 -49 153 -49t162 81t98.5 206t26.5 252z" />
<glyph unicode="&#x1edd;" horiz-adv-x="825" d="M359.5 1120.5q-56.5 55.5 -83 107.5t-26.5 71.5t3 37t26.5 30.5t38 13t22.5 -2q31 -8 84 -97t117 -122q33 -16 37 -53t-13 -53q-18 -29 -45.5 -29t-65.5 20.5t-94.5 76zM920 860q0 -94 -45.5 -154.5t-112.5 -89.5q16 -82 16 -159q0 -180 -97 -319.5t-258 -139.5 t-259 142.5t-98 316.5q0 223 90 356q96 141 282 141q88 0 161 -52t118 -146q55 33 67 125q4 20 21.5 44.5t34.5 24.5q49 0 64.5 -23.5t15.5 -66.5zM420 186q139 0 178 121q16 57 16 144q0 336 -198 335q-86 0 -141.5 -90t-55.5 -190q0 -156 61.5 -238t139.5 -82z" />
</font>
</defs>
</svg>
