<svg xmlns="http://www.w3.org/2000/svg" width="22.906" height="46" viewBox="0 0 22.906 46">
  <defs>
    <style>
      .cls-1 {
        fill: #9db576;
        fill-rule: evenodd;
      }
    </style>
  </defs>
  <path id="site-logo-small.svg" class="cls-1" d="M24.169,35.443c0-6.562-5.506-13.888-6.009-13.567-1.322.844,3.782,5.076,3.782,12.985,0,4.428-2.586,8.776-8.3,8.776-5.522,0-9.339-3.578-9.339-8.945,0-5.119,3.473-10.117,5.6-12.7,0.81,1.21,2.789,4.247,3.188,4.908,0.521,0.864,1.246,2.758-.068,2.953-1.919.285-1.974-2.768-2.051-3.68A0.337,0.337,0,0,0,10.34,26.1c-0.583,1.1-1.052,4.4.762,5.954A2.675,2.675,0,0,0,15.524,30.7a17.364,17.364,0,0,1,2.016,6.347,0.228,0.228,0,0,0,.45.007c0.876-5.1-1.483-8.662-2.269-10.254s-4.043-6.239-4.594-7.19a14,14,0,0,1-2.1-6.577c0-4.426,3.616-8.677,4.278-8.677s4.481,3.537,4.481,8.819a10.078,10.078,0,0,1-.99,4.56,0.491,0.491,0,0,1-.855.041c-2.088-3.279-2.116-3.97-.8-4.927,0.88-.641-3.377-2.428-3.205,1.246,0.09,1.924,2.792,5.861,3.434,6.63s4.479-.84,4.479-7.829c0-7.018-5.975-11.669-6.693-11.669S6.483,6.947,6.483,12.9a14.069,14.069,0,0,0,2.3,7.464c-0.158.115-7.619,6.127-7.519,15.066,0.076,6.838,4.6,11.786,12.032,11.786C20,47.213,24.169,42.77,24.169,35.443Z" transform="translate(-1.25 -1.219)"/>
</svg>
