<svg id="inverse" xmlns="http://www.w3.org/2000/svg" viewBox="0 0 192.95 60"><defs><style>.cls-1{fill:#9cb476;}.cls-2{fill:#fff;}</style></defs><path class="cls-1" d="M130.43,80.09c0-2.07-2.33,7.66-13.55,7.66-7.26,0-12.3-4.64-12.3-11.66,0-6.67,4.59-13.2,7.36-16.56,1.09,1.58,3.66,5.54,4.2,6.43.69,1.14,1.73,4-.1,4.3-2.52.44-2.62-4.05-2.71-5.24,0-.4-.65-.45-.84-.1-.8,1.43-1.34,5.88,1,7.81A3.54,3.54,0,0,0,119.35,71,20.82,20.82,0,0,1,122,79.2a.3.3,0,0,0,.6,0c1.13-6.67-2-11.31-3-13.39s-5.34-8.15-6.08-9.39-2.76-4.79-2.76-8.6c0-5.78,4.74-11.32,5.63-11.32s5.93,4.6,5.93,11.52A13.09,13.09,0,0,1,121,54a.66.66,0,0,1-1.14,0c-2.77-4.3-2.77-5.19-1-6.43,1.14-.84-4.45-3.16-4.25,1.63.1,2.52,3.66,7.66,4.55,8.65S125,56.77,125,47.62s-7.86-15.22-8.85-15.22-8.8,7.46-8.8,15.22a18.19,18.19,0,0,0,3,9.74c-.2.15-10,8-9.89,19.67.1,8.9,6,15.37,15.87,15.37C125,92.4,130.43,86.27,130.43,80.09Z" transform="translate(-100.52 -32.4)"/><path class="cls-2" d="M268,52.76a6.94,6.94,0,0,0-3.76-.94,13.89,13.89,0,0,0-2.86.25,18.27,18.27,0,0,0-2.77.64,17,17,0,0,0-2.47.89,8.52,8.52,0,0,0-2,1.19A4.7,4.7,0,0,0,253,56.22a4,4,0,0,0-.4,2V73a5.26,5.26,0,0,0,.3,2,2.93,2.93,0,0,0,.94,1.24,3.3,3.3,0,0,0,1.48.59,11.54,11.54,0,0,0,1.93.15,16.56,16.56,0,0,0,2.22-.15,15.71,15.71,0,0,0,1.58-.29V59.63H261a6.19,6.19,0,0,1,1.54-.49,19.54,19.54,0,0,1,2-.4,14.57,14.57,0,0,1,2.13-.29c.74-.05,1.43-.1,2.12-.1a6.55,6.55,0,0,0,.5-1.19,4.47,4.47,0,0,0,.19-1.38A3.36,3.36,0,0,0,268,52.76Z" transform="translate(-100.52 -32.4)"/><path class="cls-2" d="M190.38,54a10.41,10.41,0,0,0-3.76-1.63,21.09,21.09,0,0,0-4.84-.55,33.64,33.64,0,0,0-3.71.25,15,15,0,0,0-3.36.79,4.81,4.81,0,0,0-1.93,1.34,3.21,3.21,0,0,0-.64,2,4.64,4.64,0,0,0,.44,1.93,3.93,3.93,0,0,0,1.09,1.38,17.59,17.59,0,0,1,3.21-1,17.92,17.92,0,0,1,3.66-.4,8.17,8.17,0,0,1,3.66.64,2.09,2.09,0,0,1,1.23,2.08v.34l-6.47.7c-2.82.29-4.94,1-6.28,2.27a6.8,6.8,0,0,0-2,5.24,7,7,0,0,0,.84,3.56,6.61,6.61,0,0,0,2.32,2.52,11,11,0,0,0,3.61,1.48,19.07,19.07,0,0,0,4.25.49,8.24,8.24,0,0,0,4.59-1.23c.65.64,3.46,1.43,7.32.35V60.82a9.44,9.44,0,0,0-.84-4A7.72,7.72,0,0,0,190.38,54Zm-4.85,16.6a4.33,4.33,0,0,1-1.48.45,13.25,13.25,0,0,1-1.88.2,4.44,4.44,0,0,1-2.62-.6,2,2,0,0,1-.74-1.63,1.64,1.64,0,0,1,.89-1.48A4.92,4.92,0,0,1,182,66.9l3.56-.3Z" transform="translate(-100.52 -32.4)"/><path class="cls-2" d="M219.14,54.2c-1.83-1.64-4.4-2.43-7.66-2.43a13.43,13.43,0,0,0-2.92.3,9.51,9.51,0,0,0-1.92.59V47.82a4.42,4.42,0,0,0-.35-2,2.8,2.8,0,0,0-.89-1.23,3.3,3.3,0,0,0-1.48-.6,13.07,13.07,0,0,0-2-.14,10.52,10.52,0,0,0-2.12.19l-1.63.25V73a5.28,5.28,0,0,0,.29,2,2.64,2.64,0,0,0,.94,1.24,3.39,3.39,0,0,0,1.43.59,11.91,11.91,0,0,0,2,.15,16.82,16.82,0,0,0,2.23-.15c.69-.1,1.23-.2,1.58-.29V59.19a4.24,4.24,0,0,1,1.43-.6,8.27,8.27,0,0,1,1.88-.24,3.89,3.89,0,0,1,2.52.79,3.41,3.41,0,0,1,1,2.86V73a5.5,5.5,0,0,0,.29,2,3,3,0,0,0,.94,1.24,3.34,3.34,0,0,0,1.49.59,11.51,11.51,0,0,0,1.92.15,16.71,16.71,0,0,0,2.23-.15c.69-.1,1.23-.2,1.58-.29v-15h0C221.86,58.3,220.92,55.88,219.14,54.2Z" transform="translate(-100.52 -32.4)"/><path class="cls-2" d="M164.53,53.8a9.16,9.16,0,0,0-3.21-1.53,14.82,14.82,0,0,0-8.16.15,11.68,11.68,0,0,0-2.87,1.33,10.07,10.07,0,0,0-3.65-1.63,13.86,13.86,0,0,0-4.5-.3,12,12,0,0,0-4,.84c-1.24-1.28-5.19-.89-7.32-.44V73a5.26,5.26,0,0,0,.3,2,2.93,2.93,0,0,0,.94,1.24,3.3,3.3,0,0,0,1.48.59,11.63,11.63,0,0,0,1.93.15,16.56,16.56,0,0,0,2.22-.15,15.71,15.71,0,0,0,1.58-.29V59.14a8.17,8.17,0,0,1,1.09-.5,3.85,3.85,0,0,1,1.53-.24,4.19,4.19,0,0,1,2.23.64,2.57,2.57,0,0,1,.89,2.17V73a4.5,4.5,0,0,0,.34,2,2.91,2.91,0,0,0,.89,1.24,3.34,3.34,0,0,0,1.48.59,11.91,11.91,0,0,0,2,.15,14.84,14.84,0,0,0,2.13-.15c.69-.1,1.23-.2,1.63-.29V59.73a1.16,1.16,0,0,0,0-.39,4.19,4.19,0,0,1,1.18-.7,4.6,4.6,0,0,1,1.49-.29,3.82,3.82,0,0,1,2.27.64,2.69,2.69,0,0,1,.84,2.17V73a5.26,5.26,0,0,0,.3,2,2.58,2.58,0,0,0,.94,1.24,3.34,3.34,0,0,0,1.43.59,11.82,11.82,0,0,0,2,.15,16.56,16.56,0,0,0,2.22-.15,15.71,15.71,0,0,0,1.58-.29V60.92a10.14,10.14,0,0,0-.84-4.3A7.45,7.45,0,0,0,164.53,53.8Z" transform="translate(-100.52 -32.4)"/><path class="cls-2" d="M244.89,54a10.33,10.33,0,0,0-3.76-1.63,21.09,21.09,0,0,0-4.84-.55,33.8,33.8,0,0,0-3.71.25,15.1,15.1,0,0,0-3.36.79,4.7,4.7,0,0,0-1.92,1.34,3.15,3.15,0,0,0-.65,2,4.53,4.53,0,0,0,.45,1.93,3.72,3.72,0,0,0,1.09,1.38,17.88,17.88,0,0,1,3.21-1,18.48,18.48,0,0,1,3.66-.39,8.12,8.12,0,0,1,3.65.64A2.1,2.1,0,0,1,240,60.87v.34l-6.48.7c-2.81.29-4.94,1-6.27,2.27a6.74,6.74,0,0,0-2,5.24A7.07,7.07,0,0,0,226,73a6.84,6.84,0,0,0,2.32,2.52A11,11,0,0,0,231.94,77a19.13,19.13,0,0,0,4.25.49,8.25,8.25,0,0,0,4.6-1.23c.64.64,3.46,1.43,7.31.34V60.82a9.07,9.07,0,0,0-.84-4A7.63,7.63,0,0,0,244.89,54ZM240,70.55h0a4.39,4.39,0,0,1-1.49.45,13.27,13.27,0,0,1-1.87.2,4,4,0,0,1-2.62-.65,1.94,1.94,0,0,1-.74-1.63,1.62,1.62,0,0,1,.89-1.48,5,5,0,0,1,2.27-.59l3.56-.3Z" transform="translate(-100.52 -32.4)"/><path class="cls-2" d="M292.63,56.82A7.63,7.63,0,0,0,290.26,54a10.33,10.33,0,0,0-3.76-1.63,21.09,21.09,0,0,0-4.84-.55,33.8,33.8,0,0,0-3.71.25,15.1,15.1,0,0,0-3.36.79,4.7,4.7,0,0,0-1.92,1.34,3.15,3.15,0,0,0-.65,2,4.53,4.53,0,0,0,.45,1.93,3.82,3.82,0,0,0,1.09,1.38,18.13,18.13,0,0,1,3.21-1,18.48,18.48,0,0,1,3.66-.39,8.12,8.12,0,0,1,3.65.64,2.1,2.1,0,0,1,1.24,2.08v.34l-6.48.7c-2.81.29-4.94,1-6.27,2.27a6.74,6.74,0,0,0-2,5.24,7.07,7.07,0,0,0,.84,3.56,6.92,6.92,0,0,0,2.32,2.52A11,11,0,0,0,277.31,77a19.2,19.2,0,0,0,4.25.49,8.25,8.25,0,0,0,4.6-1.23c.64.64,3.46,1.43,7.31.34V60.82A8.42,8.42,0,0,0,292.63,56.82Zm-7.26,13.73h0a4.4,4.4,0,0,1-1.48.45,13.56,13.56,0,0,1-1.88.2,4,4,0,0,1-2.62-.65,1.94,1.94,0,0,1-.74-1.63,1.62,1.62,0,0,1,.89-1.48,5,5,0,0,1,2.27-.59l3.56-.3Z" transform="translate(-100.52 -32.4)"/></svg>